<?xml version="1.0" encoding="utf-8"?>
<!-- Generator: Adobe Illustrator 19.2.1, SVG Export Plug-In . SVG Version: 6.00 Build 0)  -->
<svg version="1.1" id="Layer_1" xmlns="http://www.w3.org/2000/svg" xmlns:xlink="http://www.w3.org/1999/xlink" x="0px" y="0px"
	 viewBox="0 0 150 150" style="enable-background:new 0 0 150 150;" xml:space="preserve">
<style type="text/css">
	.st0{fill-rule:evenodd;clip-rule:evenodd;fill:#99979E;}
</style>
<g>
	<path class="st0" d="M74.9,149.3c-24.8-0.1-45-17-52.9-43.7c-1.2-4.1-4.2-8.2-7.6-11C4.9,86.9,2.1,74.2,7.8,63.3
		c2.5-4.7,4.6-9.8,5.8-15C21.1,17.6,43.2,0.4,75.4,0.5c32,0.1,54.2,17.8,61.3,48.4c1.1,4.9,3,9.7,5.4,14.1c6.2,11.2,3.3,24.1-6.9,32
		c-3.1,2.4-5.9,6.3-7,10.1C120.3,132.6,100.2,149.4,74.9,149.3z M19.8,67c-7.7,14.3-4.7,18.8,11.7,23.5
		c7.5,31.8,21.2,47.2,43.3,46.3c8.1-0.4,16.9-3.4,23.7-7.9c13.3-8.9,17.9-23.5,19.7-38.5c16.7-4,20.3-9.7,14-23.7
		c-4.4,5.6-8.3,10.7-12.3,15.7c-0.8-0.5-1.6-1.1-2.5-1.6c-0.5-2.9-1.1-5.8-1.5-8.1c-11-1.3-21.2-2.5-30.9-3.6
		c2-9.2,3.6-16.8,5.2-24.3c-0.8-0.5-1.6-0.9-2.4-1.4c-9.7,24.6-29.6,29.9-53.2,28.1c-0.6,3.5-1.1,6.4-2,11.3
		C29.1,80,26,78.3,24,75.8C22,73.3,21.2,70,19.8,67z"/>
	<path class="st0" d="M55.1,114.7c12.9,13.8,27.8,13.4,37.1,0C80.1,114.7,68.3,114.7,55.1,114.7z M61.8,88c0,4.4-3.5,7.9-7.9,7.9
		S46,92.4,46,88c0-4.4,3.5-7.9,7.9-7.9S61.8,83.7,61.8,88z M101.3,87.7c0,4.4-3.5,7.9-7.9,7.9s-7.9-3.5-7.9-7.9s3.5-7.9,7.9-7.9
		S101.3,83.3,101.3,87.7z"/>
	<path class="st0" d="M55.1,114.7c13.2,0,25,0,37.1,0C82.9,128.1,67.9,128.5,55.1,114.7z"/>
</g>
</svg>
