<?xml version="1.0" encoding="utf-8"?>
<!-- Generator: Adobe Illustrator 19.2.1, SVG Export Plug-In . SVG Version: 6.00 Build 0)  -->
<svg version="1.1" id="Layer_1" xmlns="http://www.w3.org/2000/svg" xmlns:xlink="http://www.w3.org/1999/xlink" x="0px" y="0px"
	 viewBox="0 0 150 150" style="enable-background:new 0 0 150 150;" xml:space="preserve">
<style type="text/css">
	.st0{fill-rule:evenodd;clip-rule:evenodd;fill:#99979E;}
</style>
<g id="NrEztp.tif">
	<g>
		<path class="st0" d="M75.4,150c-4.2-1.7-7.4-4.2-7.7-9.6c6.2-1,12.4-2.1,18.6-3.1c1.1,5.3-1.1,9.3-6.7,12.7
			C78.3,150,76.8,150,75.4,150z"/>
		<path class="st0" d="M96.5,102.6C83.7,104.8,71,107,58,109.3c0-13.6-7.5-23.7-14.6-34c-0.9-1.3-1.8-2.7-2.7-4
			C30.2,55,29,38.2,39.1,21.3C49,4.8,69.2-3.3,87.7,1.3c19.5,4.9,33.1,21.1,34.4,40.7c0.7,10.6-2.3,20.1-8.4,28.6
			c-2.6,3.6-5.3,7.1-8,10.6C100.8,87.4,96.7,94,96.5,102.6z"/>
		<path class="st0" d="M60.7,122c-0.7-0.8-2.2-1.8-2.5-3c-0.5-2,1.1-3.1,2.9-3.5c8.1-1.6,16.2-3.3,24.2-4.9c2.5-0.5,4.9-1.3,7.4-1.3
			c1.2,0,3,1.3,3.4,2.4c0.3,0.8-1.2,3.1-2.1,3.3C83.3,117.5,72.4,119.6,60.7,122z"/>
		<path class="st0" d="M60.9,134.7c-0.9-1.1-2.6-2.2-2.6-3.2c0.1-1.2,1.5-3,2.7-3.3c5.9-1.5,12-2.6,18-3.7c4.2-0.8,8.5-1.7,12.7-2.5
			c2.2-0.4,4.3-0.2,4.7,2.4c0.4,2.4-1.4,3.2-3.5,3.7c-9.9,2-19.7,4-29.6,5.9c-0.6,0.1-1.2,0.2-1.8,0.2
			C61.3,134.3,61.1,134.5,60.9,134.7z"/>
	</g>
</g>
</svg>
