<?xml version="1.0" encoding="utf-8"?>
<!-- Generator: Adobe Illustrator 19.2.1, SVG Export Plug-In . SVG Version: 6.00 Build 0)  -->
<svg version="1.1" id="Layer_1" xmlns="http://www.w3.org/2000/svg" xmlns:xlink="http://www.w3.org/1999/xlink" x="0px" y="0px"
	 viewBox="0 0 150 150" style="enable-background:new 0 0 150 150;" xml:space="preserve">
<style type="text/css">
	.st0{fill:#99979E;stroke:#F2F2F2;stroke-width:1.25;stroke-miterlimit:10;}
	.st1{fill-rule:evenodd;clip-rule:evenodd;fill:#99979E;stroke:#F2F2F2;stroke-width:1.25;stroke-miterlimit:10;}
</style>
<g id="CAGi3X.tif">
	<g>
		<path class="st0" d="M69.9,136.6c0.1,0,0.1-0.1,0.2-0.1c-0.1-0.4-0.1-0.8-0.2-1.1c-0.7-2.7-1.4-5.4-2.1-8.1
			c-2.1-7.9-4.1-15.8-6.2-23.7c-2.5-9.4-4.9-18.8-7.4-28.1c-1.9-7.3-3.9-14.7-5.8-22c-0.2-0.8-0.6-1.1-1.5-1.1
			c-15.2,0-30.4,0-45.6,0c-0.4,0-0.7,0-1.3,0.1C23.4,80.5,46.7,108.6,69.9,136.6z M150,52.2c-0.8,0-1.3,0-1.8,0c-14.3,0-28.7,0-43,0
			c-3.1,0-3.1,0-3.9,3c-3.1,11.9-6.3,23.9-9.4,35.8c-3.8,14.5-7.6,29-11.5,43.4c-0.2,0.7-0.3,1.3-0.4,2c0.1,0,0.1,0,0.2,0.1
			C103.3,108.5,126.5,80.5,150,52.2z M53.1,52.3c7.3,27.6,14.5,55.2,21.7,82.7c0.1,0,0.2,0,0.3,0c7.2-27.5,14.5-55,21.7-82.6
			C82.2,52.3,67.8,52.3,53.1,52.3z M25.6,17.4C17,27.4,8.6,37.2,0,47.2c15.2,0,30.1,0,45.2,0C38.7,37.2,32.2,27.4,25.6,17.4z
			 M124.4,17.4c-6.6,10-13.1,19.8-19.7,29.7c15.2,0,30,0,45.2,0C141.4,37.2,133,27.4,124.4,17.4z M75,17.3
			c-6.9,10-13.6,19.9-20.4,29.8c13.7,0,27.1,0,40.8,0C88.6,37.2,81.9,27.4,75,17.3z M100.1,45.3c6.6-10,13.1-19.8,19.7-29.7
			c-13.4,0-26.6,0-40,0C86.5,25.5,93.2,35.3,100.1,45.3z M49.9,45.3c6.8-10,13.5-19.8,20.3-29.7c-13.5,0-26.6,0-40,0
			C36.8,25.5,43.3,35.3,49.9,45.3z"/>
		<path class="st1" d="M69.9,136.6C46.7,108.6,23.4,80.5,0,52.3c0.6,0,0.9-0.1,1.3-0.1c15.2,0,30.4,0,45.6,0c0.9,0,1.2,0.3,1.5,1.1
			c1.9,7.3,3.8,14.7,5.8,22c2.5,9.4,4.9,18.8,7.4,28.1c2.1,7.9,4.1,15.8,6.2,23.7c0.7,2.7,1.4,5.4,2.1,8.1c0.1,0.4,0.2,0.8,0.2,1.1
			C70,136.5,70,136.5,69.9,136.6z"/>
		<path class="st1" d="M150,52.2c-23.5,28.3-46.7,56.3-69.9,84.3c-0.1,0-0.1,0-0.2-0.1c0.1-0.7,0.2-1.4,0.4-2
			C84.1,120,88,105.5,91.8,91c3.1-11.9,6.3-23.9,9.4-35.8c0.8-3,0.8-3,3.9-3c14.3,0,28.7,0,43,0C148.7,52.2,149.2,52.2,150,52.2z"/>
		<path class="st1" d="M53.1,52.3c14.7,0,29.1,0,43.8,0c-7.3,27.6-14.5,55.1-21.7,82.6c-0.1,0-0.2,0-0.3,0
			C67.6,107.4,60.4,79.9,53.1,52.3z"/>
		<path class="st1" d="M25.6,17.4c6.6,10,13.1,19.8,19.7,29.8c-15.1,0-30.1,0-45.2,0C8.6,37.2,17,27.4,25.6,17.4z"/>
		<path class="st1" d="M124.4,17.4c8.6,10,17,19.8,25.5,29.7c-15.2,0-30,0-45.2,0C111.3,37.3,117.8,27.4,124.4,17.4z"/>
		<path class="st1" d="M75,17.3c6.9,10,13.6,19.8,20.4,29.8c-13.6,0-27.1,0-40.8,0C61.4,37.2,68.1,27.4,75,17.3z"/>
		<path class="st1" d="M100.1,45.3c-6.8-10-13.5-19.8-20.3-29.7c13.4,0,26.6,0,40,0C113.2,25.5,106.7,35.3,100.1,45.3z"/>
		<path class="st1" d="M49.9,45.3c-6.6-10-13.1-19.8-19.7-29.7c13.3,0,26.5,0,40,0C63.5,25.5,56.7,35.3,49.9,45.3z"/>
	</g>
</g>
</svg>
