<?xml version="1.0" encoding="utf-8"?>
<!-- Generator: Adobe Illustrator 19.2.1, SVG Export Plug-In . SVG Version: 6.00 Build 0)  -->
<svg version="1.1" id="Layer_1" xmlns="http://www.w3.org/2000/svg" xmlns:xlink="http://www.w3.org/1999/xlink" x="0px" y="0px"
	 viewBox="0 0 150 150" style="enable-background:new 0 0 150 150;" xml:space="preserve">
<style type="text/css">
	.st0{fill:#99979E;}
	.st1{fill-rule:evenodd;clip-rule:evenodd;fill:#99979E;}
</style>
<g id="oyLqFa.tif_3_">
	<g>
		<path class="st0" d="M14,141.2c0-44,0-88.1,0-132.1c0.1-0.3,0.2-0.6,0.2-0.9c0.7-3.9,2.9-6.4,6.6-7.6c0.6-0.2,1.1-0.3,1.7-0.5
			C47.3,0,72.2,0,97,0c0.2,0.2,0.3,0.5,0.5,0.7c9.7,9.7,19.4,19.4,29.1,29.1c2.6,2.6,5.2,5.1,7.8,7.7c0,34.8,0,69.6,0,104.4
			c0,0.1-0.1,0.1-0.1,0.2c-1.5,5.5-4.6,8-10.3,8c-33.2,0-66.4,0-99.6,0c-0.5,0-0.9,0-1.4,0c-4-0.2-7.5-3-8.5-6.9
			C14.2,142.5,14.1,141.8,14,141.2z M26.7,137.4c31.7,0,63.4,0,95.1,0c0-31.8,0-63.4,0-95.2c-9.9,0-19.7,0-29.6,0
			c0-9.8,0-19.5,0-29.3c-21.9,0-43.6,0-65.5,0C26.7,54.4,26.7,95.9,26.7,137.4z"/>
		<path class="st1" d="M38.6,64.7c0-2.3,0-4.5,0-6.9c23.7,0,47.4,0,71.2,0c0,2.3,0,4.5,0,6.9C86.2,64.7,62.5,64.7,38.6,64.7z"/>
		<path class="st1" d="M109.9,75.4c0,2.4,0,4.6,0,6.9c-23.8,0-47.5,0-71.2,0c0-2.3,0-4.5,0-6.9C62.4,75.4,86.1,75.4,109.9,75.4z"/>
		<path class="st1" d="M109.9,93c0,2.3,0,4.5,0,6.8c-23.8,0-47.5,0-71.3,0c0-2.3,0-4.5,0-6.8C62.4,93,86.1,93,109.9,93z"/>
		<path class="st1" d="M109.9,110.6c0,2.3,0,4.5,0,6.8c-23.7,0-47.4,0-71.2,0c0-2.2,0-4.5,0-6.8C62.4,110.6,86.1,110.6,109.9,110.6z
			"/>
		<path class="st1" d="M72.5,38.3c-11.3,0-22.5,0-33.8,0c0-2.9,0-5.7,0-8.7c11.2,0,22.5,0,33.8,0C72.5,32.5,72.5,35.3,72.5,38.3z"/>
	</g>
</g>
</svg>
