<?xml version="1.0" encoding="utf-8"?>
<!-- Generator: Adobe Illustrator 19.2.1, SVG Export Plug-In . SVG Version: 6.00 Build 0)  -->
<svg version="1.1" id="Layer_1" xmlns="http://www.w3.org/2000/svg" xmlns:xlink="http://www.w3.org/1999/xlink" x="0px" y="0px"
	 viewBox="0 0 327 93.3" style="enable-background:new 0 0 327 93.3;" xml:space="preserve">
<style type="text/css">
	.st0{fill-rule:evenodd;clip-rule:evenodd;fill:#001774;}
	.st1{fill:none;}
	.st2{fill:#001774;}
	.st3{font-family:'101StaRStuDDeD';}
	.st4{font-size:33.8844px;}
	.st5{letter-spacing:2;}
	.st6{font-size:13.5538px;}
	.st7{letter-spacing:1;}
	.st8{font-family:'AdamGorry-Inline';}
	.st9{fill:none;stroke:#001774;stroke-width:5;stroke-miterlimit:10;}
</style>
<g>
	<g>
		<g>
			<polygon class="st0" points="111.6,11 111.6,2.8 75.3,2.8 79.4,6.9 75.3,11 			"/>
		</g>
		<g>
			<polygon class="st0" points="212.5,2.8 212.5,11 248.8,11 244.7,6.9 248.8,2.8 			"/>
		</g>
	</g>
	<g>
		<rect x="219.9" y="85.6" class="st0" width="20.5" height="1.3"/>
		<rect x="77.5" y="85.6" class="st0" width="20.5" height="1.3"/>
	</g>
	<rect x="19.9" y="29.1" class="st1" width="292.9" height="30.1"/>
	<text transform="matrix(1 0 0 1 64.5093 53.1569)" class="st2 st3 st4 st5">last moment</text>
	<text transform="matrix(1 0 0 1 130.8862 11.3449)"><tspan x="0" y="0" class="st2 st3 st6 st7">daniel</tspan><tspan x="41" y="0" class="st2 st8 st6 st7">&apos;</tspan><tspan x="44.5" y="0" class="st2 st3 st6 st7">s </tspan></text>
	<path class="st9" d="M324.5,64.8c0,3.7-3,6.8-6.8,6.8H9.3c-3.7,0-6.8-3-6.8-6.8V26.4c0-3.7,3-6.8,6.8-6.8h308.4
		c3.7,0,6.8,3,6.8,6.8V64.8z"/>
	<text transform="matrix(1 0 0 1 106.2251 89.8683)" class="st2 st3 st6 st5">of freedom</text>
</g>
</svg>
