<?xml version="1.0" encoding="utf-8"?>
<!-- Generator: Adobe Illustrator 19.2.1, SVG Export Plug-In . SVG Version: 6.00 Build 0)  -->
<svg version="1.1" id="Layer_1" xmlns="http://www.w3.org/2000/svg" xmlns:xlink="http://www.w3.org/1999/xlink" x="0px" y="0px"
	 viewBox="0 0 320.4 126.8" style="enable-background:new 0 0 320.4 126.8;" xml:space="preserve">
<style type="text/css">
	.st0{fill-rule:evenodd;clip-rule:evenodd;fill:#001774;}
	.st1{fill-rule:evenodd;clip-rule:evenodd;}
	.st2{fill:#FFFFFF;}
	.st3{font-family:'Arial-Black';}
	.st4{font-size:19px;}
	.st5{letter-spacing:1;}
	.st6{font-size:24px;}
	.st7{letter-spacing:2;}
</style>
<g>
	<g>
		<g id="gsMifp.tif">
			<g>
				<path class="st0" d="M314,60.4c2.2,12,4.3,23.7,6.5,35.7c-104.8,10.2-209.2,20.4-314,30.7C4.3,114.8,2.2,103,0,91.1
					C104.8,80.8,209.2,70.6,314,60.4z"/>
				<path class="st0" d="M77.7,83.4c2-9,3.8-17.6,5.8-26.2c0.4-1.6,0.2-2.4-1.4-3.2c-6.7-3.5-12.5-8.3-18-13.4
					c-0.7-0.6-1.2-1.5-1.7-2.4c-3.6-6.1-7.2-12.2-10.8-18.3c-0.3-0.6-0.8-1.2-1.3-1.6c-2-1.4-3.3-2.9-2.3-5.6
					c0.1-0.3-0.4-0.9-0.7-1.3C45.8,9.6,44.3,8,43,6.2c-0.8-1.1-1.1-2.5,0.3-3.5c1.4-0.9,2.6-0.2,3.4,1c1.1,1.7,2,3.6,3,5.5
					c0.4,0.8,0.7,1.6,1.5,2.3c0.3-1.7,0.4-3.5,1-5.2c0.6-1.9,1.4-3.8,2.5-5.4c0.5-0.7,2.1-0.6,3.1-0.9c0.1,1,0.5,2.1,0.1,2.9
					c-1.2,2.9-2.7,5.7-4.1,8.6c3.1,1.3,3.1,1.4,1.6,4.6c-0.2,0.5-0.2,1.4,0,1.8c3.6,6.2,7.2,12.4,10.9,18.5c0.2,0.4,0.6,0.8,0.9,1.1
					c5.2,4.9,10.8,9.4,17.2,12.8c3.1-0.1,5.2,1.2,6.5,1.2c1.3,0,10.1-1.5,14.9-3.3c0.6-0.2,1.4-0.7,2-0.4c0.7,0.3,1.8,1.2,1.8,1.7
					c-0.1,0.9-0.8,2.3-1.6,2.5c-3.8,1.3-7.7,2.3-11.6,3.4c-0.9,0.3-1.9,0.3-2.9,0.4c-3.8,0.4-3.8,0.4-4.6,4.2
					c-1.5,7.1-3.1,14.1-4.6,21.2c-0.3,1.4-0.8,1.9-2.2,1.9C80.8,83,79.4,83.2,77.7,83.4z"/>
				<path class="st0" d="M205.9,31.9c-0.5-2.2-1.1-4.3-1.4-6.4c-0.3-1.4-0.4-2.9-0.3-4.3c0-1.4,1.2-2,2.1-1.1c1.1,1,2.1,2.5,2.4,3.9
					c0.4,1.9,0,3.9-0.1,5.8c0,0.9-0.2,1.8,0.2,2.9c1-1.2,1.9-2.5,3-3.6c1.1-1.1,2.2-2.4,3.6-3.1c0.7-0.4,2.4-0.2,2.9,0.3
					c0.5,0.6,0.4,2.3-0.2,2.9c-1.6,1.6-3.6,2.8-5.4,4.2c-0.6,0.5-0.9,1.5-1.4,2.2c-1,1.3-1.9,2.6-3.1,3.7c-0.8,0.7-1.9,1.1-2.7,1.8
					c-5.1,4.9-10.2,9.9-15.3,14.8c-0.7,0.7-1.5,1.2-2.4,1.6c-6.8,3.3-13.7,6.1-21.1,7.6c-1.3,0.3-1.7,0.8-1.7,2.1
					c0.1,2.7,0,5.4,0,8.3c-2.3,0.2-4.2,0.4-6.2,0.6c0-3.8,0-7.4,0-11.3c-1.9-0.7-4-1.4-6-2.2c-3.2-1.4-6.3-2.9-9.4-4.4
					c-1.5-0.7-2.6-1.7-1.7-3.4c0.9-1.7,2.3-1.2,3.7-0.5c4.1,1.9,8.3,3.8,12.6,5.5c0.7,0.3,8,1,8.6,0.8c6.3-2.2,12.7-4.6,18.9-6.9
					c0.7-0.3,1.4-0.9,2-1.5c4.8-4.6,9.6-9.3,14.4-14c0.5-0.5,1-1.5,0.9-2.2C202.4,32.6,202.5,32.3,205.9,31.9z"/>
				<path class="st0" d="M164.5,57.5c-6.5,0-11.6-5.3-11.6-11.7c0-6.3,5.2-11.5,11.6-11.6c6.4,0,11.7,5.2,11.7,11.6
					C176.1,52.3,170.9,57.5,164.5,57.5z"/>
				<path class="st0" d="M138.8,36.5c0,6.5-5.1,11.7-11.6,11.7c-6.4,0-11.6-5.2-11.6-11.7c0-6.4,5.1-11.5,11.5-11.6
					C133.5,24.9,138.8,30,138.8,36.5z"/>
				<path class="st0" d="M91.1,47c-6.5,0-11.6-5.3-11.5-11.7c0.1-6.4,5.2-11.5,11.6-11.5c6.4,0,11.6,5.2,11.6,11.7
					C102.8,41.9,97.6,47.1,91.1,47z"/>
				<path class="st0" d="M98.8,47.3c0.9-1.1,2.1-3,3.6-4.4c0.8-0.7,2.3-0.6,3.5-1c3.1-1,5.5,0,7.8,2.3c2.9,2.9,7.7,6.4,9.2,8
					c1.6,1.6,3.4,1.6,6.7,0.5c3.9-1.6,7.8-3.2,11.7-5c1.6-0.7,2.9-0.6,4.6-0.2c4.7,1,7.3,4.1,9.1,8.2c-3-1.1-6.1-2.3-9.2-3.5
					c-1.3-0.5-2.4-0.5-3.7,0.1c-3.6,1.6-7.2,3-10.8,4.3c-1.3,0.5-1.8,1-1.8,2.5c0.2,5.6,0.4,11.3,0.5,16.9c0,0.8,0,1.7,0,2.7
					c-2,0.2-3.8,0.4-6.3,0.6c0-3.8,0-7.4,0-11c0-3.3,0.7-7-0.6-9.7c-1.2-2.6-4.7-4.2-7.1-6.3c-2-1.7-3.8-3.5-5.8-5.1
					c-0.8-0.6-1.9-1-2.9-1C104.1,46.5,100.9,47,98.8,47.3z"/>
				<path class="st1" d="M34.5,121.5c-0.8,2.4-0.8,2.4-5.8,2.4C29,121.8,29,121.5,34.5,121.5z"/>
				<text transform="matrix(0.995 -9.973001e-02 9.973001e-02 0.995 15.2542 115.1838)"><tspan x="0" y="0" class="st2 st3 st4 st5">BACHELOR CREW</tspan><tspan x="210.5" y="0" class="st2 st3 st6 st7"> </tspan><tspan x="220.9" y="0" class="st2 st3 st4 st5">| 2017</tspan></text>
			</g>
		</g>
		<path class="st0" d="M138,23.6c-6.1-0.5-12.1-1-18-1.5c0.2-3,0.3-6,0.5-8.9c0.1-1.9,0.2-2.1,2.8-1.9c4.9,0.3,9.9,0.8,14.8,1.2
			c1.1,0.1,1.4,0.5,1.3,1.3C138.8,16.9,138.5,20.2,138,23.6z"/>
		<path class="st0" d="M128.9,27c-3.1-0.3-6.2-0.5-9.3-0.9c-0.9-0.1-1.8-0.4-2.5-0.9c-0.7-0.5-1-1.4-0.3-2.2
			c0.7-0.7,1.5-0.6,2.2,0.1c0.3,0.3,0.7,0.5,1,0.5c5.7,0.6,11.4,1.1,17,1.6c0.6,0.1,1.2-0.3,1.8-0.4c0.6,0,1.5,0,1.9,0.3
			c0.3,0.3,0.2,1.5-0.1,1.7c-0.7,0.5-1.7,0.9-2.6,0.9C135,27.6,132,27.3,128.9,27C128.9,27,128.9,27,128.9,27z"/>
	</g>
	<polygon class="st0" points="139,53.5 126.1,64.5 114.5,51 	"/>
	<polygon class="st0" points="99.5,53 84.4,62.7 74.5,47.2 	"/>
	<polygon class="st0" points="175.8,61.8 162.7,74 150.2,60.5 	"/>
</g>
</svg>
