<?xml version="1.0" encoding="utf-8"?>
<!-- Generator: Adobe Illustrator 19.2.1, SVG Export Plug-In . SVG Version: 6.00 Build 0)  -->
<svg version="1.1" id="Layer_1" xmlns="http://www.w3.org/2000/svg" xmlns:xlink="http://www.w3.org/1999/xlink" x="0px" y="0px"
	 viewBox="0 0 327 93.3" style="enable-background:new 0 0 327 93.3;" xml:space="preserve">
<style type="text/css">
	.st0{fill-rule:evenodd;clip-rule:evenodd;fill:#001774;}
	.st1{fill:none;}
	.st2{fill:none;stroke:#001774;stroke-width:5;stroke-miterlimit:10;}
</style>
<g>
	<g>
		<g>
			<polygon class="st0" points="111.5,11 111.5,2.8 75.2,2.8 79.3,6.9 75.2,11 			"/>
		</g>
		<g>
			<polygon class="st0" points="212.4,2.8 212.4,11 248.7,11 244.6,6.9 248.7,2.8 			"/>
		</g>
	</g>
	<g>
		<rect x="219.8" y="85.6" class="st0" width="20.5" height="1.3"/>
		<rect x="77.4" y="85.6" class="st0" width="20.5" height="1.3"/>
	</g>
	<rect x="19.8" y="29.1" class="st1" width="292.9" height="30.1"/>
	<path class="st2" d="M324.5,65.3c0,3.7-3,6.8-6.8,6.8H9.3c-3.7,0-6.8-3-6.8-6.8V26.8c0-3.7,3-6.8,6.8-6.8h308.4
		c3.7,0,6.8,3,6.8,6.8V65.3z"/>
</g>
</svg>
