<?xml version="1.0" encoding="utf-8"?>
<!-- Generator: Adobe Illustrator 19.2.1, SVG Export Plug-In . SVG Version: 6.00 Build 0)  -->
<svg version="1.1" id="Layer_1" xmlns="http://www.w3.org/2000/svg" xmlns:xlink="http://www.w3.org/1999/xlink" x="0px" y="0px"
	 viewBox="0 0 324 94.1" style="enable-background:new 0 0 324 94.1;" xml:space="preserve">
<style type="text/css">
	.st0{fill-rule:evenodd;clip-rule:evenodd;fill:#FF00DC;}
	.st1{fill:none;}
	.st2{fill:none;stroke:#FF00DC;stroke-width:5;stroke-miterlimit:10;}
</style>
<g>
	<g>
		<g>
			<polygon class="st0" points="110.5,12.2 110.5,4.1 74.5,4.1 78.6,8.2 74.5,12.2 			"/>
		</g>
		<g>
			<polygon class="st0" points="210.5,4.1 210.5,12.2 246.4,12.2 242.4,8.2 246.4,4.1 			"/>
		</g>
	</g>
	<g>
		<rect x="220.8" y="86.1" class="st0" width="20.3" height="1.2"/>
		<rect x="79.7" y="86.1" class="st0" width="20.3" height="1.2"/>
	</g>
	<rect x="17.7" y="34.1" class="st1" width="290.2" height="29.8"/>
	<path class="st2" d="M321.5,66.9c0,3.7-3,6.7-6.7,6.7H9.2c-3.7,0-6.7-3-6.7-6.7V28.4c0-3.7,3-6.7,6.7-6.7h305.6
		c3.7,0,6.7,3,6.7,6.7V66.9z"/>
	<g>
	</g>
</g>
</svg>
