<?xml version="1.0" encoding="utf-8"?>
<!-- Generator: Adobe Illustrator 19.2.1, SVG Export Plug-In . SVG Version: 6.00 Build 0)  -->
<svg version="1.1" id="Layer_1" xmlns="http://www.w3.org/2000/svg" xmlns:xlink="http://www.w3.org/1999/xlink" x="0px" y="0px"
	 viewBox="0 0 318.5 139.9" style="enable-background:new 0 0 318.5 139.9;" xml:space="preserve">
<style type="text/css">
	.st0{fill-rule:evenodd;clip-rule:evenodd;fill:#8EC3ED;stroke:#F9D604;stroke-width:6;stroke-miterlimit:10;}
	.st1{fill-rule:evenodd;clip-rule:evenodd;fill:#F9D604;stroke:#F9D604;stroke-width:6;stroke-miterlimit:10;}
	.st2{fill-rule:evenodd;clip-rule:evenodd;fill:#8EC3ED;}
	.st3{fill-rule:evenodd;clip-rule:evenodd;fill:#F9D604;}
	.st4{fill-rule:evenodd;clip-rule:evenodd;fill:#EEAA0C;}
	.st5{fill-rule:evenodd;clip-rule:evenodd;fill:#3162B4;}
	.st6{fill-rule:evenodd;clip-rule:evenodd;fill:#E6E6E6;}
	.st7{fill-rule:evenodd;clip-rule:evenodd;fill:#E7E7E7;}
	.st8{fill-rule:evenodd;clip-rule:evenodd;fill:#E9E9E9;}
	.st9{fill-rule:evenodd;clip-rule:evenodd;fill:#DFDFDF;}
	.st10{fill-rule:evenodd;clip-rule:evenodd;fill:#E06534;}
	.st11{fill-rule:evenodd;clip-rule:evenodd;fill:#E26330;}
	.st12{fill-rule:evenodd;clip-rule:evenodd;fill:#F6FAFD;}
	.st13{fill-rule:evenodd;clip-rule:evenodd;fill:#3365B6;}
	.st14{fill:none;}
</style>
<g>
	<polygon class="st0" points="41.5,83.9 53.3,48.9 278.6,20.3 266.2,55 	"/>
	<polygon class="st0" points="76.9,127.1 88.7,92.1 314,63.5 301.6,98.1 	"/>
	<g>
		<g id="bujPzM.tif_3_">
			<g>
				<path class="st1" d="M46.8,37.4c7.1,1,12.3-1.4,15-9c7.3,8.3,5.6,16.2,0.4,24.2c12.4,1.4,14.7,4.9,11.1,15.9
					c6.6,0.9,10.3,4.3,9.7,11.4c-0.2,1.7,0.4,2.8,2.1,3.5c4.8,1.8,6.6,5.6,5.7,10.5c-0.9,4.8-4.4,6.7-9,7c-23.2,0-46.4,0-69.6,0
					c-5.7-0.3-8.7-3.4-9-9.1c-0.3-6.2,2.5-8.5,13.2-11.4C8,70,10.5,65.9,28,60.6c-7.6-8.1-5.7-15.1,4.9-18c2.3-0.6,4.5-1.6,6.7-2.4
					C42.4,40.4,45.1,40.1,46.8,37.4z M43.1,82.7c-2.7,0.5-4.5,2-4.4,4.8c0.1,3,2,4.9,5.1,4.7c2.7-0.1,4.4-1.9,4.4-4.7
					C48,84.4,46.1,82.9,43.1,82.7z M39.7,48.9c-2.3,0.5-4,1.8-4,4.7c0.1,3.1,1.8,4.9,4.8,4.7c2.6-0.2,4.4-1.8,4.4-4.6
					C44.9,50.4,43,49.1,39.7,48.9z M64.1,80.7c-2.3,0.6-4.6,1.9-4.4,5c0.2,2.6,2.1,4.2,4.8,4.2c2.7,0,4.6-1.7,4.8-4.2
					C69.5,82.6,67.5,81.1,64.1,80.7z M32.4,76.8c2.4-0.6,4.4-2,4.4-5.1c0-3-1.9-4.2-4.7-4.1c-2.9,0-4.4,1.5-4.4,4.4
					C27.8,74.8,29.1,76.5,32.4,76.8z M58.9,61c-2.8,0.1-4.7,1.3-4.7,4.3c0,3.1,1.9,4.9,4.9,4.9c2.9,0,4.2-1.9,4.2-4.7
					C63.4,62.5,61.8,61.1,58.9,61z"/>
				<path class="st1" d="M78.8,112.2c-1.9,6-3.8,12-5.7,18c-1.4,4.6-4.5,6.7-9.2,6.7c-11.3,0-22.7,0-34,0c-4.7,0-7.8-2.1-9.2-6.7
					c-1.8-6-3.8-12-5.7-18c3.5-0.2,3.3-4.8,6.4-5.6c4.5,6.1,4.5,6.1,10.3,0c4.5,6.2,4.5,6.2,10.2-0.3c0.5,0.4,1.1,0.7,1.4,1.3
					c1.9,3.7,3.5,7.2,7.1,0.9c1.9-3.3,3.5-0.7,4.6,1.3c1.8,3.2,3.4,2.9,5.1-0.1c0.6-1.1,1.3-2.2,2.4-3.9c3.6,6.9,7.2,7.4,10.3,0.5
					C75.3,108,75.5,111.7,78.8,112.2z"/>
				<path class="st1" d="M78.8,112.2c-3.4-0.4-3.5-4.2-6.2-5.9c-3.1,6.9-6.7,6.4-10.3-0.5c-1,1.7-1.8,2.8-2.4,3.9
					c-1.6,3-3.3,3.3-5.1,0.1c-1.1-1.9-2.7-4.5-4.6-1.3c-3.6,6.2-5.2,2.8-7.1-0.9c-0.3-0.5-0.9-0.8-1.4-1.3
					c-5.7,6.5-5.7,6.5-10.2,0.3c-5.8,6.1-5.8,6.1-10.3,0c-3.1,0.8-2.8,5.4-6.4,5.6c-1.4-3.7-3.2-7.2-2.9-11.3c23.2,0,46.4,0,69.6,0
					C82.2,105,80.3,108.5,78.8,112.2z"/>
				<path class="st1" d="M36.8,13.5C37.8,9.3,39.7,3,43.3,3C47,3,49.6,9.2,50,13.8c0.3,4-2.5,6.6-6.5,6.7
					C39.3,20.5,37.2,17.9,36.8,13.5z"/>
				<path class="st1" d="M46.8,37.4c-1.7,2.7-4.3,2.9-7.1,2.8c0-3.7,0.1-7.3-0.1-11c-0.1-2.5,1-3.4,3.4-3.3c2.3,0,3.7,0.5,3.7,3.2
					C46.6,31.8,46.7,34.6,46.8,37.4z"/>
				<path class="st1" d="M43.1,82.7c3,0.2,5,1.7,5,4.8c0.1,2.8-1.7,4.6-4.4,4.7c-3,0.2-5-1.7-5.1-4.7C38.6,84.7,40.4,83.2,43.1,82.7
					z"/>
				<path class="st1" d="M39.7,48.9c3.3,0.2,5.2,1.6,5.2,4.7c0,2.8-1.8,4.5-4.4,4.6c-3,0.2-4.8-1.6-4.8-4.7
					C35.6,50.7,37.4,49.4,39.7,48.9z"/>
				<path class="st1" d="M64.1,80.7c3.4,0.4,5.5,2,5.3,5c-0.2,2.6-2.1,4.2-4.8,4.2c-2.7,0-4.6-1.6-4.8-4.2
					C59.5,82.6,61.8,81.3,64.1,80.7z"/>
				<path class="st1" d="M32.4,76.8c-3.4-0.3-4.7-2-4.6-4.8c0-2.9,1.5-4.4,4.4-4.4c2.8,0,4.7,1.2,4.7,4.1
					C36.9,74.8,34.8,76.2,32.4,76.8z"/>
				<path class="st1" d="M58.9,61c2.9,0.1,4.5,1.5,4.5,4.4c0,2.8-1.3,4.7-4.2,4.7c-3,0-4.9-1.8-4.9-4.9C54.2,62.3,56.1,61,58.9,61z"
					/>
			</g>
		</g>
		<g id="bujPzM.tif_1_">
			<g>
				<path class="st2" d="M46.2,42.6c6.4,0.9,11.2-1.2,13.6-8.2c6.6,7.6,5.1,14.8,0.3,22.1c11.3,1.3,13.4,4.5,10.1,14.5
					c6,0.8,9.4,3.9,8.8,10.3c-0.1,1.6,0.3,2.6,2,3.2c4.4,1.7,6,5.1,5.2,9.5c-0.8,4.4-4,6.1-8.2,6.3c-21.1,0-42.3,0-63.4,0
					c-5.2-0.3-8-3.1-8.2-8.2c-0.3-5.6,2.3-7.7,12-10.4c-7.5-9.4-5.3-13.2,10.7-18C22.2,56.3,24,50,33.6,47.3
					c2.1-0.6,4.1-1.5,6.1-2.2C42.3,45.3,44.7,45,46.2,42.6z M42.8,83.9c-2.4,0.5-4.1,1.8-4,4.3c0.1,2.7,1.8,4.4,4.6,4.3
					c2.4-0.1,4-1.8,4-4.3C47.4,85.4,45.6,84,42.8,83.9z M39.7,53.1c-2.1,0.4-3.7,1.7-3.6,4.3c0,2.8,1.7,4.4,4.4,4.3
					c2.4-0.1,4-1.6,4-4.2C44.5,54.5,42.8,53.2,39.7,53.1z M62,82c-2.1,0.6-4.2,1.7-4,4.5c0.2,2.4,1.9,3.8,4.4,3.8
					c2.5,0,4.2-1.5,4.4-3.9C67,83.8,65.1,82.4,62,82z M33.2,78.5c2.1-0.5,4-1.8,4-4.6c0-2.7-1.7-3.8-4.2-3.8c-2.6,0-4,1.4-4,4
					C28.9,76.7,30.1,78.2,33.2,78.5z M57.3,64.1c-2.5,0.1-4.3,1.2-4.2,3.9c0,2.8,1.7,4.4,4.5,4.5c2.7,0,3.8-1.7,3.8-4.3
					C61.3,65.4,59.9,64.2,57.3,64.1z"/>
				<path class="st3" d="M75.4,110.7c-1.7,5.5-3.5,10.9-5.2,16.4c-1.3,4.2-4.1,6.1-8.4,6.1c-10.3,0-20.7,0-31,0
					c-4.2,0-7.1-1.9-8.4-6.1c-1.7-5.5-3.5-10.9-5.2-16.4c3.2-0.2,3-4.4,5.8-5.1c4.1,5.6,4.1,5.6,9.4,0c4.1,5.7,4.1,5.7,9.3-0.3
					c0.4,0.4,1,0.7,1.3,1.1c1.8,3.4,3.2,6.6,6.5,0.9c1.7-3,3.2-0.6,4.2,1.1c1.6,2.9,3.1,2.6,4.6-0.1c0.5-1,1.2-2,2.1-3.5
					c3.3,6.2,6.5,6.7,9.4,0.4C72.2,106.9,72.4,110.3,75.4,110.7z"/>
				<path class="st4" d="M75.4,110.7c-3.1-0.4-3.2-3.8-5.7-5.4c-2.9,6.3-6.1,5.8-9.4-0.4c-1,1.6-1.6,2.5-2.1,3.5
					c-1.5,2.8-3,3-4.6,0.1c-1-1.8-2.5-4.1-4.2-1.1c-3.3,5.7-4.7,2.5-6.5-0.9c-0.2-0.5-0.8-0.8-1.3-1.1c-5.2,5.9-5.2,5.9-9.3,0.3
					c-5.3,5.5-5.3,5.5-9.4,0c-2.8,0.7-2.6,4.9-5.8,5.1c-1.2-3.4-2.9-6.6-2.6-10.3c21.1,0,42.3,0,63.4,0
					C78.5,104.1,76.7,107.4,75.4,110.7z"/>
				<path class="st5" d="M46.2,42.6c-1.6,2.4-3.9,2.7-6.5,2.5c0-3.3,0-6.7-0.1-10c-0.1-2.3,0.9-3.1,3.1-3.1c2.1,0,3.4,0.5,3.4,2.9
					C46.1,37.5,46.2,40.1,46.2,42.6z"/>
				<path class="st6" d="M63.8,28.7c0,0.1,0.2,0.4,0.1,0.4c-0.1,0.1-0.3,0.1-0.5,0.2c0-0.1-0.2-0.4-0.1-0.4
					C63.4,28.8,63.6,28.8,63.8,28.7z"/>
				<path class="st7" d="M76.7,58.3c-0.2-0.2-0.3-0.4-0.5-0.5C76.4,57.9,76.6,58,76.7,58.3C76.8,58.2,76.7,58.3,76.7,58.3z"/>
				<path class="st7" d="M82.7,71.4c-0.2-0.1-0.3-0.2-0.5-0.3C82.3,71.2,82.5,71.3,82.7,71.4L82.7,71.4z"/>
				<path class="st6" d="M67.1,33.2c-0.2-0.2-0.3-0.4-0.5-0.6C66.8,32.8,67,33,67.1,33.2C67.2,33.2,67.1,33.2,67.1,33.2z"/>
				<path class="st7" d="M88.7,82.1c0.4,0.4,0.8,0.8,1.2,1.2c0,0,0,0,0,0C89.4,82.9,89,82.5,88.7,82.1L88.7,82.1z"/>
				<path class="st8" d="M49.3,7c-0.2-0.2-0.3-0.3-0.5-0.5C49,6.6,49.1,6.8,49.3,7L49.3,7z"/>
				<path class="st9" d="M19.5,134.6c-0.2-0.1-0.3-0.2-0.5-0.2C19.1,134.4,19.3,134.5,19.5,134.6L19.5,134.6z"/>
				<path class="st9" d="M20.7,135.8c-0.4-0.4-0.8-0.8-1.2-1.2l0,0C19.9,135,20.3,135.4,20.7,135.8L20.7,135.8z"/>
				<path class="st9" d="M20.7,135.8c0.4,0.4,0.8,0.8,1.2,1.2l0,0C21.5,136.6,21.1,136.2,20.7,135.8L20.7,135.8z"/>
				<path class="st10" d="M42.8,83.9c2.7,0.2,4.5,1.5,4.6,4.4c0.1,2.5-1.5,4.1-4,4.3c-2.8,0.1-4.5-1.5-4.6-4.3
					C38.7,85.7,40.4,84.3,42.8,83.9z"/>
				<path class="st11" d="M39.7,53.1c3,0.2,4.7,1.4,4.8,4.3c0,2.6-1.6,4.1-4,4.2c-2.8,0.2-4.4-1.4-4.4-4.3
					C36.1,54.7,37.6,53.5,39.7,53.1z"/>
				<path class="st12" d="M62,82c3.1,0.4,5,1.8,4.8,4.5c-0.1,2.4-1.9,3.8-4.4,3.9c-2.5,0-4.2-1.5-4.4-3.8C57.8,83.7,59.9,82.6,62,82
					z"/>
				<path class="st12" d="M33.2,78.5c-3.1-0.3-4.2-1.8-4.2-4.3c0-2.6,1.4-4,4-4c2.5,0,4.3,1.1,4.2,3.8
					C37.2,76.7,35.3,77.9,33.2,78.5z"/>
				<path class="st13" d="M57.3,64.1c2.6,0.1,4.1,1.4,4.1,4c0,2.6-1.1,4.3-3.8,4.3c-2.8,0-4.5-1.7-4.5-4.5
					C53,65.3,54.7,64.1,57.3,64.1z"/>
			</g>
		</g>
	</g>
	<path id="SVGID_x5F_1_x5F_" class="st14" d="M45.6,71.6L257,46.3"/>
	<text>	<textPath  xlink:href="#SVGID_x5F_1_x5F_" startOffset="27.783%">
<tspan  style="fill:#3365B6; font-family:'Helvetica-BoldOblique'; font-size:19.452px; letter-spacing:50;">Happy Birthday</tspan>	</textPath>
</text>
	<path id="SVGID_x5F_2_x5F_" class="st14" d="M105,111.8l211.3-25.3"/>
	<text>	<textPath  xlink:href="#SVGID_x5F_2_x5F_" startOffset="27.783%">
<tspan  style="fill:#FFFFFF; font-family:'Helvetica-BoldOblique'; font-size:19.452px; letter-spacing:50;">Benjamin!</tspan>	</textPath>
</text>
</g>
</svg>
