<?xml version="1.0" encoding="utf-8"?>
<!-- Generator: Adobe Illustrator 19.2.1, SVG Export Plug-In . SVG Version: 6.00 Build 0)  -->
<svg version="1.1" id="Layer_1" xmlns="http://www.w3.org/2000/svg" xmlns:xlink="http://www.w3.org/1999/xlink" x="0px" y="0px"
	 viewBox="0 0 215 249.2" style="enable-background:new 0 0 215 249.2;" xml:space="preserve">
<style type="text/css">
	.st0{clip-path:url(#SVGID_2_);fill:#7BCABA;stroke:#E66753;stroke-width:14;stroke-miterlimit:10;}
	.st1{clip-path:url(#SVGID_2_);}
	.st2{clip-path:url(#SVGID_4_);fill:#FFD278;}
	.st3{clip-path:url(#SVGID_4_);}
	.st4{fill:none;stroke:#773692;stroke-width:2.7;stroke-miterlimit:10;}
	.st5{fill:#F76F7E;}
	.st6{fill:#FFFFFF;}
	.st7{fill:#FFD278;}
	.st8{fill:#E66753;}
	.st9{fill:#FFD278;stroke:#E66753;stroke-width:6;stroke-miterlimit:10;}
	.st10{fill:none;}
</style>
<g>
	<g>
		<g>
			<defs>
				<circle id="SVGID_1_" cx="111.6" cy="97.3" r="97.3"/>
			</defs>
			<clipPath id="SVGID_2_">
				<use xlink:href="#SVGID_1_"  style="overflow:visible;"/>
			</clipPath>
			<circle class="st0" cx="111.6" cy="97.3" r="97.3"/>
			<g class="st1">
				<g>
					<g>
						<g>
							<g>
								<defs>
									<path id="SVGID_3_" d="M115,76.3c0,2.2-1.8,3.9-3.9,3.9l0,0c-2.2,0-3.9-1.8-3.9-3.9V49.7c0-2.2,1.8-3.9,3.9-3.9l0,0
										c2.2,0,3.9,1.8,3.9,3.9V76.3z"/>
								</defs>
								<clipPath id="SVGID_4_">
									<use xlink:href="#SVGID_3_"  style="overflow:visible;"/>
								</clipPath>
								<path class="st2" d="M115,76.3c0,2.2-1.8,3.9-3.9,3.9l0,0c-2.2,0-3.9-1.8-3.9-3.9V49.7c0-2.2,1.8-3.9,3.9-3.9l0,0
									c2.2,0,3.9,1.8,3.9,3.9V76.3z"/>
								<g class="st3">
									<line class="st4" x1="105.7" y1="61.5" x2="117.1" y2="50.1"/>
									<line class="st4" x1="101.6" y1="57.5" x2="113" y2="46"/>
									<line class="st4" x1="105.7" y1="69.3" x2="117.1" y2="57.9"/>
									<line class="st4" x1="105.7" y1="77.1" x2="117.1" y2="65.7"/>
								</g>
							</g>
							<g>
								<path class="st5" d="M104,39.5c0-3,7-10.7,7-10.7s7,7.7,7,10.7c0,3-4,5.4-7,5.4C108,44.9,104,42.5,104,39.5z"/>
								<path class="st6" d="M106.8,41.6c0-1.8,4.2-6.4,4.2-6.4s4.2,4.6,4.2,6.4c0,1.8-2.4,3.3-4.2,3.3
									C109.2,44.9,106.8,43.4,106.8,41.6z"/>
							</g>
						</g>
						<g>
							<path class="st6" d="M174.8,129.2c0,6.9-4.9,12.4-11,12.4H58.3c-6.1,0-11-5.6-11-12.4V88.9c0-6.9,4.9-12.4,11-12.4h105.5
								c6.1,0,11,5.6,11,12.4V129.2z"/>
							<g>
								<g>
									<circle class="st7" cx="58.8" cy="131.7" r="4"/>
									<circle class="st7" cx="84.9" cy="131.7" r="4"/>
									<circle class="st7" cx="111" cy="131.7" r="4"/>
									<circle class="st7" cx="137.2" cy="131.7" r="4.1"/>
									<circle class="st7" cx="163.3" cy="131.7" r="4.1"/>
								</g>
								<g>
									<circle class="st7" cx="71.7" cy="122.9" r="4"/>
									<circle class="st7" cx="97.8" cy="122.9" r="4"/>
									<circle class="st7" cx="123.9" cy="122.9" r="4.1"/>
									<circle class="st7" cx="150.1" cy="122.9" r="4"/>
								</g>
							</g>
							<g>
								<path class="st8" d="M163.8,76.2H58.3c-6.1,0-11,4.9-11,11v17.8c0.6,0.1,1.2,0.1,1.8,0.1c1,0,3.2-0.5,4,0c2.1,1.2,2,7,6.6,7
									c4.2,0,4.4-7.9,6.9-8.1c4.4-0.4,4.4,14.6,12.3,14.6c6.3,0,6.4-12.8,9.8-15c0.8-0.5,3-0.4,3.9,0c2.5,1.2,1.9,10.3,7.3,10.3
									c4.7,0,3.6-7.5,6-8.8c1.3-0.7,4.7-0.9,5.9,0c4.3,3.1,1.9,11.9,6.6,11.9c4.8,0,0.8-10.9,4.9-14.1c1.6-1.3,6.6-1.9,8.3-0.7
									c2.6,1.7,2.2,11.5,8.3,11.5c5.9,0,4.5-9.6,7.1-9.6c4.7-0.1,0.7,15.8,12,15.8c8.6,0,3.7-12.5,7.1-14.7c1.3-0.8,4.6-0.1,6.1,0
									c0.8,0.1,1.7,0,2.4-0.1V87.2C174.8,81.1,169.9,76.2,163.8,76.2z"/>
								<g>
									<g>
										<line class="st8" x1="50.4" y1="82.9" x2="54.1" y2="90.8"/>
										<line class="st8" x1="65.6" y1="85.5" x2="74.1" y2="82.9"/>
										<line class="st8" x1="85.1" y1="82.9" x2="86.2" y2="88.2"/>
										<line class="st8" x1="74.1" y1="97.1" x2="69.8" y2="102.4"/>
										<line class="st8" x1="65.6" y1="93.9" x2="65.6" y2="99.7"/>
										<line class="st8" x1="100.9" y1="85.5" x2="107.2" y2="90.8"/>
										<line class="st8" x1="118.8" y1="82.9" x2="114.6" y2="86.8"/>
										<line class="st8" x1="138.2" y1="80.3" x2="144" y2="84.2"/>
										<line class="st8" x1="163.5" y1="82.2" x2="160.3" y2="85.5"/>
										<line class="st8" x1="130.9" y1="90.8" x2="126.1" y2="96.8"/>
										<line class="st8" x1="94" y1="96.8" x2="100.9" y2="97.1"/>
										<line class="st8" x1="144" y1="90.8" x2="146.1" y2="97.1"/>
										<line class="st8" x1="169.2" y1="90.8" x2="163.5" y2="97.1"/>
									</g>
									<g>
										<line class="st8" x1="167.1" y1="97.6" x2="163.8" y2="90.5"/>
										<line class="st8" x1="153.4" y1="95.2" x2="145.8" y2="97.6"/>
										<line class="st8" x1="135.9" y1="97.6" x2="135" y2="92.8"/>
										<line class="st8" x1="145.8" y1="84.8" x2="149.6" y2="80.1"/>
										<line class="st8" x1="153.4" y1="87.6" x2="153.4" y2="82.4"/>
										<line class="st8" x1="121.7" y1="95.2" x2="116" y2="90.5"/>
										<line class="st8" x1="105.6" y1="97.6" x2="109.4" y2="94"/>
										<line class="st8" x1="88.1" y1="99.9" x2="82.9" y2="96.4"/>
										<line class="st8" x1="65.4" y1="98.2" x2="68.2" y2="95.2"/>
										<line class="st8" x1="94.7" y1="90.5" x2="99" y2="85"/>
										<line class="st8" x1="127.9" y1="85" x2="121.7" y2="84.8"/>
										<line class="st8" x1="82.9" y1="90.5" x2="81" y2="84.8"/>
										<line class="st8" x1="60.2" y1="90.5" x2="65.4" y2="84.8"/>
										<line class="st8" x1="51.6" y1="83.6" x2="55.1" y2="80.1"/>
									</g>
								</g>
							</g>
						</g>
					</g>
				</g>
			</g>
		</g>
		<path class="st9" d="M212,210.2c0,3.4-2.2,6.2-5.2,6.2H9.8c-3.1,0-6.8-2.9-6.8-6.2v-41.5c0-3.4,3.7-5.3,6.8-5.3h197
			c3.1,0,5.2,1.9,5.2,5.3V210.2z"/>
	</g>
	<rect x="5.6" y="172.5" class="st10" width="206.6" height="76.7"/>
</g>
</svg>
