<?xml version="1.0" encoding="utf-8"?>
<!-- Generator: Adobe Illustrator 19.2.1, SVG Export Plug-In . SVG Version: 6.00 Build 0)  -->
<svg version="1.1" id="Layer_1" xmlns="http://www.w3.org/2000/svg" xmlns:xlink="http://www.w3.org/1999/xlink" x="0px" y="0px"
	 viewBox="0 0 266.3 343.1" style="enable-background:new 0 0 266.3 343.1;" xml:space="preserve">
<style type="text/css">
	.st0{fill:#89C484;}
	.st1{fill:none;stroke:#FFD278;stroke-width:2;stroke-miterlimit:10;}
	.st2{fill-rule:evenodd;clip-rule:evenodd;fill:#89C484;}
</style>
<g>
	
		<rect x="84.3" y="98.7" transform="matrix(0.7071 -0.7071 0.7071 0.7071 -65.4492 137.8409)" class="st0" width="98.8" height="98.4"/>
	<g>
		<g>
			<path class="st0" d="M214.8,143.3l-76.9-76.9c-2.6-2.6-6.9-2.6-9.5,0l-76.9,76.9c-2.6,2.6-2.6,6.9,0,9.5l76.9,76.9
				c2.6,2.6,6.9,2.6,9.5,0l76.9-76.9C217.4,150.1,217.4,145.9,214.8,143.3z M133.1,224.9L133.1,224.9
				C133.1,224.9,133.1,224.9,133.1,224.9L56.2,148l76.9-76.9L210,148L133.1,224.9z"/>
			<path class="st1" d="M206.1,148l-73-73l-73,73l73,73c0,0,0,0,0,0v0L206.1,148z M133.1,218.8L62.4,148l70.8-70.8l70.8,70.8
				L133.1,218.8L133.1,218.8C133.1,218.8,133.1,218.8,133.1,218.8z"/>
			<path class="st2" d="M203.2,169.8c0-2.1,1.7-3.8,3.8-3.8h39.3c2.1,0,3.8,1.7,3.8,3.8l0,0c0,2.1-1.7,3.8-3.8,3.8H207
				C204.9,173.6,203.2,171.9,203.2,169.8L203.2,169.8z M219.4,148c0,2.1,1.7,3.8,3.8,3.8h39.3c2.1,0,3.8-1.7,3.8-3.8l0,0
				c0-2.1-1.7-3.8-3.8-3.8h-39.3C221.1,144.2,219.4,145.9,219.4,148L219.4,148z M203.2,126.2c0,2.1,1.7,3.8,3.8,3.8h39.3
				c2.1,0,3.8-1.7,3.8-3.8l0,0c0-2.1-1.7-3.8-3.8-3.8H207C204.9,122.4,203.2,124.1,203.2,126.2L203.2,126.2z M63,126.2
				c0-2.1-1.7-3.8-3.8-3.8H20c-2.1,0-3.8,1.7-3.8,3.8l0,0c0,2.1,1.7,3.8,3.8,3.8h39.3C61.4,130,63,128.3,63,126.2L63,126.2z
				 M46.8,148c0-2.1-1.7-3.8-3.8-3.8H3.8c-2.1,0-3.8,1.7-3.8,3.8l0,0c0,2.1,1.7,3.8,3.8,3.8h39.3C45.1,151.8,46.8,150.1,46.8,148
				L46.8,148z M63,169.8c0-2.1-1.7-3.8-3.8-3.8H20c-2.1,0-3.8,1.7-3.8,3.8l0,0c0,2.1,1.7,3.8,3.8,3.8h39.3
				C61.4,173.6,63,171.9,63,169.8L63,169.8z"/>
		</g>
	</g>
</g>
</svg>
