<?xml version="1.0" encoding="utf-8"?>
<!-- Generator: Adobe Illustrator 19.2.1, SVG Export Plug-In . SVG Version: 6.00 Build 0)  -->
<svg version="1.1" id="Layer_1" xmlns="http://www.w3.org/2000/svg" xmlns:xlink="http://www.w3.org/1999/xlink" x="0px" y="0px"
	 viewBox="0 0 327.2 142.8" style="enable-background:new 0 0 327.2 142.8;" xml:space="preserve">
<style type="text/css">
	.st0{fill:#F9D867;}
	.st1{fill-rule:evenodd;clip-rule:evenodd;fill:#8EC3ED;}
	.st2{fill-rule:evenodd;clip-rule:evenodd;fill:#E06534;}
	.st3{fill-rule:evenodd;clip-rule:evenodd;fill:#F9D867;}
	.st4{fill:#E06534;}
	.st5{font-family:'CenturyGothic-Bold';}
	.st6{font-size:39.0367px;}
	.st7{letter-spacing:1;}
</style>
<g>
	<path class="st0" d="M327.2,126.2l-321.1-4c0,0-0.2-6.9,0-15.5c0.3-11.3-0.4-24.2,2.9-24.5c4.2-0.4,3.8-6.8,7.1-8
		c9.9-3.6,311.1-2.3,311.1-2.3l-14.1,27.3L327.2,126.2z"/>
	<g>
		<g>
			<path class="st1" d="M101.3,89.2c-4.1,1.9-7.8,3.7-11.7,5.3c-7.2,3.1-14.3,2.9-21.2-1c-5.6-3.2-11.5-4.8-17.8-3.8
				c-3.8,0.6-7.6,1.7-11,3.5c-8.4,4.4-16.5,4.5-24.8-0.1c-2.6-1.4-5.6-2.4-8.8-3.7c0.3-1.2,0.5-2.8,1-4.3c2.8-8.3,10.4-14,19.4-14
				c18.2-0.1,36.4-0.1,54.6,0C91.9,71.1,100.4,79,101.3,89.2z"/>
			<path class="st2" d="M6,94.3c2.3,1,4.4,1.6,6.2,2.6c10,5.6,19.8,5.7,29.9,0.1c7.7-4.2,15.5-4.2,23.2,0c10,5.5,19.9,5.4,29.9-0.2
				c1.2-0.7,2.5-1.2,3.8-1.7c0.7-0.3,1.5-0.4,2.4-0.7c0,0.8,0.1,1.5,0.1,2.1c0,5.2,0,10.3,0,15.5c0,3.6-0.6,4.3-4.2,4.3
				c-26.2,0-52.4,0-78.5,0c-3,0-6.1,0-9.1,0c-2.9,0-3.7-0.8-3.8-3.7C6,106.7,6,100.8,6,94.3z"/>
			<path class="st2" d="M54.1,120.1c16.5,0,33,0,49.5,0c0.8,0,1.8-0.2,2.3,0.2c0.8,0.7,1.8,1.8,1.7,2.7c-0.1,0.9-1.2,1.9-2.1,2.4
				c-0.7,0.4-1.8,0.2-2.8,0.2c-32.8,0-65.5,0-98.3,0c-0.4,0-0.8,0-1.2,0c-1.9-0.1-3.3-0.8-3.3-2.9c0-2,1.5-2.7,3.4-2.7
				c11.3,0,22.7,0,34,0C43,120.1,48.5,120.1,54.1,120.1z"/>
			<path class="st3" d="M33.2,0.3c4.7,7,9.7,13.5,8.4,22.4c-0.2,1.5-1,3.1-1.9,4.4c-2.7,3.9-6.7,4.9-10.1,2.8
				c-3.6-2.1-5-6.8-3.1-10.9c0.9-1.8,1.9-3.6,2.8-5.4c1-2.1,1.9-4.3,2.6-6.5C32.4,5.1,32.7,2.9,33.2,0.3z"/>
			<path class="st3" d="M71.8,0c4.6,6.3,8.5,12.2,8.8,19.8c0.1,3.3-0.9,6.1-3.2,8.5c-2.8,2.8-5.7,3.4-8.9,1.7
				c-3.1-1.6-4.9-5.4-4.1-8.7c0.3-1.4,1-2.8,1.7-4.1C68.8,12,71.3,6.7,71.8,0z"/>
			<text transform="matrix(1 0 0 1 24.6686 65.0263)" class="st4 st5 st6 st7">2 8</text>
		</g>
	</g>
</g>
</svg>
