<?xml version="1.0" encoding="utf-8"?>
<!-- Generator: Adobe Illustrator 19.2.1, SVG Export Plug-In . SVG Version: 6.00 Build 0)  -->
<svg version="1.1" id="Layer_1" xmlns="http://www.w3.org/2000/svg" xmlns:xlink="http://www.w3.org/1999/xlink" x="0px" y="0px"
	 viewBox="0 0 331 166.2" style="enable-background:new 0 0 331 166.2;" xml:space="preserve">
<style type="text/css">
	.st0{fill:#F1F1F2;stroke:#268BCD;stroke-width:5;stroke-miterlimit:10;}
	.st1{fill:none;}
	.st2{fill:#CA3F34;}
	.st3{font-family:'AdamGorry-Lights';}
	.st4{font-size:31.2128px;}
	.st5{letter-spacing:2;}
	.st6{fill:#E7A203;}
	.st7{fill:#268BCD;}
	.st8{fill:#5D58A1;}
</style>
<g>
	<path class="st0" d="M328.5,119.1c0,5.7-4.7,10.4-10.4,10.4H12.9c-5.7,0-10.4-4.7-10.4-10.4V44.9c0-5.7,4.7-10.4,10.4-10.4h305.2
		c5.7,0,10.4,4.7,10.4,10.4V119.1z"/>
	<rect x="22" y="56.4" class="st1" width="288.7" height="58.9"/>
	<text transform="matrix(1 0 0 1 36.187 78.5952)"><tspan x="0" y="0" class="st2 st3 st4 st5">H</tspan><tspan x="22.7" y="0" class="st6 st3 st4 st5">A</tspan><tspan x="44.1" y="0" class="st7 st3 st4 st5">P</tspan><tspan x="63.1" y="0" class="st8 st3 st4 st5">P</tspan><tspan x="82" y="0" class="st6 st3 st4 st5">Y </tspan><tspan x="110.2" y="0" class="st8 st3 st4 st5">B</tspan><tspan x="129.5" y="0" class="st7 st3 st4 st5">I</tspan><tspan x="139.3" y="0" class="st6 st3 st4 st5">R</tspan><tspan x="158.4" y="0" class="st8 st3 st4 st5">T</tspan><tspan x="176.3" y="0" class="st2 st3 st4 st5">H</tspan><tspan x="199" y="0" class="st7 st3 st4 st5">D</tspan><tspan x="222.1" y="0" class="st6 st3 st4 st5">A</tspan><tspan x="243.5" y="0" class="st2 st3 st4 st5">Y</tspan><tspan x="60.6" y="31.2" class="st2 st3 st4 st5">JENNIFER</tspan></text>
</g>
</svg>
