<?xml version="1.0" encoding="utf-8"?>
<!-- Generator: Adobe Illustrator 19.2.1, SVG Export Plug-In . SVG Version: 6.00 Build 0)  -->
<svg version="1.1" id="Layer_1" xmlns="http://www.w3.org/2000/svg" xmlns:xlink="http://www.w3.org/1999/xlink" x="0px" y="0px"
	 viewBox="0 0 201.7 197.5" style="enable-background:new 0 0 201.7 197.5;" xml:space="preserve">
<style type="text/css">
	.st0{fill:#4D4D4B;}
	.st1{fill-rule:evenodd;clip-rule:evenodd;fill:#4A97A9;}
	.st2{fill:none;}
</style>
<g>
	<g id="tVDNuk.tif">
		<g>
			<path class="st0" d="M174.4,0c0.4,0,0.9,0,1.3,0c-0.7,1.2-1.3,2.4-2,3.6c-4.3,6.9-8.6,13.7-13.3,21.2c7.2,6.2,14.4,12.4,22,19
				c-9,1.8-17.4,3.4-25.8,5.1c14,4.2,28.5,6,42.7,8.7c0,15.2,0,30.3,0,45.5c-22.2,4.2-44.3,8.3-66.4,12.4c0,0.2,0,0.4,0,0.6
				c13.7,4.2,28.3,5.2,42.3,8.5c0,15,0,30,0,45.1c-0.7,0.2-1.3,0.3-1.9,0.4c-9.5,1.7-19,3.5-28.4,5.2c-34.5,6.4-69,12.7-103.5,19.1
				c-5.2,1-10.4,2-15.6,3.1c-0.4,0-0.9,0-1.3,0c0.5-0.9,0.9-1.7,1.4-2.6c4.5-7.3,9-14.5,13.7-22c-7.1-6.4-14.2-12.8-21.4-19.3
				c8.2-2.1,16.6-2.9,24.3-6.1c-7.6-1.5-15.2-2.8-22.8-4.1c-6.5-1.1-13.1-2.3-19.6-3.5c0-15,0-30.1,0-45.1
				c23-4.3,46.1-8.6,69.1-12.9c0-0.3,0-0.5,0-0.8c-14.8-2.6-29.6-5.1-44.6-7.7c0-15.1,0-30.1,0-45.3c0.7-0.1,1.3-0.3,2-0.4
				c16.8-3.1,33.6-6.2,50.3-9.4c27.4-5.1,54.9-10.2,82.3-15.3C164.3,2.1,169.3,1,174.4,0z M191.1,66.6C130,78,69.1,89.4,8.3,100.8
				c0,10.3,0,20.3,0,30.3c0.4,0,0.7,0,1-0.1c13.2-2.5,26.4-5,39.7-7.4c23.8-4.4,47.6-8.9,71.4-13.3c22.9-4.3,45.8-8.6,68.7-12.8
				c1.6-0.3,2.2-0.8,2.2-2.4c-0.1-8.8,0-17.6,0-26.4C191.2,68,191.2,67.4,191.1,66.6z M167.1,133.1c-4.9,0.9-9.5,1.7-14.1,2.5
				c-32.4,5.7-64.8,11.4-97.1,17.2c-7.3,1.3-14.4,3.2-22.2,4.9c3.8,3.4,7.1,6.3,10.3,9.2c4.1,3.7,4.5,6.5,1.7,11
				c-1.9,3-3.7,6-5.8,9.3c1.8-0.3,3.1-0.6,4.4-0.8c38.9-7.2,77.9-14.4,116.8-21.6c1.9-0.4,4.6-0.3,5.6-1.4c1-1.1,0.4-3.4,0.4-5.2
				C167.1,149.9,167.1,141.6,167.1,133.1z M32.6,64.5c44.5-8.4,88.8-16.7,133.8-25.1c-4.1-3.6-7.8-6.8-11.3-10
				c-2.7-2.4-3.2-5.7-1.5-8.7c0.6-1.1,1.3-2.1,2-3.2c1.4-2.3,2.9-4.6,4.5-7.2c-42.8,8-85.1,15.8-127.4,23.7
				C32.6,44.2,32.6,54.2,32.6,64.5z"/>
			<path class="st1" d="M191.1,66.6c0,0.8,0.1,1.4,0.1,2.1c0,8.8,0,17.6,0,26.4c0,1.5-0.5,2.1-2.2,2.4c-22.9,4.2-45.8,8.5-68.7,12.8
				c-23.8,4.5-47.6,8.9-71.4,13.3c-13.2,2.5-26.4,5-39.7,7.4c-0.3,0-0.6,0-1,0.1c0-10.1,0-20,0-30.3C69.1,89.4,130,78,191.1,66.6z"
				/>
			<path class="st1" d="M167.1,133.1c0,8.5,0,16.8,0,25.1c0,1.8,0.6,4.1-0.4,5.2c-1,1.1-3.6,1-5.6,1.4
				c-38.9,7.2-77.9,14.4-116.8,21.6c-1.3,0.2-2.6,0.5-4.4,0.8c2.1-3.3,3.9-6.3,5.8-9.3c2.8-4.5,2.4-7.3-1.7-11
				c-3.3-2.9-6.6-5.9-10.3-9.2c7.7-1.7,14.9-3.6,22.2-4.9c32.4-5.8,64.7-11.5,97.1-17.2C157.6,134.7,162.2,133.9,167.1,133.1z"/>
			<path class="st1" d="M32.6,64.5c0-10.3,0-20.3,0-30.5c42.4-7.9,84.7-15.8,127.4-23.7c-1.6,2.6-3.1,4.9-4.5,7.2
				c-0.7,1.1-1.4,2.1-2,3.2c-1.7,3-1.2,6.3,1.5,8.7c3.6,3.2,7.2,6.4,11.3,10C121.3,47.8,77.1,56.2,32.6,64.5z"/>
		</g>
	</g>
	<path id="SVGID_x5F_1_x5F_" class="st2" d="M39.6,57.6l118-24.8"/>
	<text>	<textPath  xlink:href="#SVGID_x5F_1_x5F_" startOffset="22.363%">
	</textPath>
</text>
	<path id="SVGID_x5F_2_x5F_" class="st2" d="M10.8,126l174.3-35.1"/>
	<text>	<textPath  xlink:href="#SVGID_x5F_2_x5F_" startOffset="27.783%">
	</textPath>
</text>
</g>
</svg>
