<?xml version="1.0" encoding="utf-8"?>
<!-- Generator: Adobe Illustrator 19.2.1, SVG Export Plug-In . SVG Version: 6.00 Build 0)  -->
<svg version="1.1" id="Layer_1" xmlns="http://www.w3.org/2000/svg" xmlns:xlink="http://www.w3.org/1999/xlink" x="0px" y="0px"
	 viewBox="0 0 311.2 202.2" style="enable-background:new 0 0 311.2 202.2;" xml:space="preserve">
<style type="text/css">
	.st0{fill-rule:evenodd;clip-rule:evenodd;fill:#F3312E;}
	.st1{fill:#CA2724;}
	.st2{fill-rule:evenodd;clip-rule:evenodd;fill:#CEB193;}
	.st3{fill-rule:evenodd;clip-rule:evenodd;fill:#CA2724;}
	.st4{fill-rule:evenodd;clip-rule:evenodd;fill:#FEFEFE;}
	.st5{fill-rule:evenodd;clip-rule:evenodd;fill:#BE8F60;}
	.st6{fill:#F3312E;}
	.st7{fill-rule:evenodd;clip-rule:evenodd;fill:#F8F8F8;}
	.st8{fill:#68C4DD;}
	.st9{fill-rule:evenodd;clip-rule:evenodd;fill:#68C4DD;}
</style>
<g>
	<g>
		<g>
			<g>
				<path class="st0" d="M309.4,166.1c-0.8,3.6-2.7,6.7-4.8,9.6c-2.7,3.6-6.2,5.3-11,5.2c-16.7-0.4-33.4-0.4-50.1-0.6
					c-1.2,0-2.4,0.2-3.5-0.3c0.9-1.1,0.5-2-0.5-2.7c-0.9-0.7-1.6,0-2.2,0.5c-0.8,0.7-1.8,1.1-2,2.3c-0.4,0.1-0.8,0.2-1.1,0.3
					c-2.8-0.1-5.5-0.3-8.3-0.4c1.6-3.4,5.1-4.8,7.5-7.3c0.8-0.8,1.7-1.6,0.8-2.7c-0.9-1.1-1.9-0.5-2.8,0.2c-2.1,1.8-4.4,3.5-6.3,5.5
					c-1,1.1-2.9,2.2-1.9,4.3c-0.4,0.1-0.9,0.1-1.3,0.2c-19.5-0.2-39-0.3-58.5-0.5c-1,0-1.9-0.2-2.8-0.2c-0.1-1.3,1-1.8,1.8-2.4
					c3.1-2.4,4.6-5.8,5.8-9.4c3.2-9.8,3.1-19.7,1.2-29.7c-0.5-2.8,0.5-3.7,3.1-3.5c1.4,0.1,2.8,0.3,4.2,0.3
					c4.3,0.1,8.7,0.2,13.1,0.2c0.9,0,1.8-1,2.6,0.1c0.9,1.2-0.4,1.7-0.8,2.5c-1.4,2.6-0.9,5.1,0.7,7.2c1.4,1.9,3.6,3,5.9,2.6
					c3.7-0.7,8.8-7.6,8.7-11.6c3.8,1,7.6,0.5,11.5,0.8c11.6,0.9,23.2,2.2,34.8,3.9c13.8,2,27.5,4.6,40.5,10
					c5.7,2.3,11.5,4.8,14.5,10.9c0.6,1.3,0.1,3.1,1.8,3.9l-0.1-0.1C309.6,165.5,309.5,165.8,309.4,166.1z M212.1,156.9
					c-0.4,0.3-0.9,0.6-1.2,1c-1.8,2.1-2.9,0.9-4.3-0.7c-1.5-1.7-1.9-2.9,0.2-4.4c1.9-1.3,3.7-2.9,5-5c1.3-2.2,0.8-4-0.9-5.7
					c-0.5-0.5-1-0.8-1.7-0.3c-0.6,0.4-1,1-0.5,1.6c0.8,1.1,0.7,2.2,0,3.3c-1,1.7-2.8,2.6-4.2,3.9c-1.2,1.2-2.3,1.6-3.4-0.1
					c-0.5-0.7-1.1-1-1.9-0.4c-0.8,0.6-0.7,1.2-0.2,1.9c1,1.5,0.8,2.7-0.7,3.9c-0.7,0.5-2.1,1-1.4,2.1c0.8,1.1,2.2,1.3,3.4,0.3
					c0.7-0.6,1.3-1.4,2.5-0.7c2.6,1.6,3,4,1,6.2c-0.7,0.7-1.6,1.4-0.2,2.3c0.8,0.5,7.3-1.4,7.7-2.2c0.1-0.2,0.1-0.4,0.1-0.6
					c-0.4-1.8,1-2.4,2.1-3.3c1.8-1.5,3.6-3,4.7-5.2c1-2,0.4-3.7-1-5.3c-0.5-0.5-1-0.8-1.7-0.4c-0.6,0.4-0.9,0.9-0.6,1.6
					C216.3,153.9,214,155.3,212.1,156.9z M216.7,162.3C216.7,162.3,216.7,162.3,216.7,162.3c-1.4,1.2-2.8,2.4-4.2,3.5
					c-0.9,0.8-1.3,1.7-0.4,2.8c1,1.1,1.7,0.3,2.4-0.4c2.1-1.7,4.1-3.4,6.1-5.2c1.4-1.3,2.8-2.5,4.6-0.6c1.8,2,1.6,3.7-0.6,5.7
					c-2.1,1.8-4.2,3.6-6.4,5.4c-1.1,0.9-1.4,2-0.3,3c1.1,1.1,2,0.7,2.9-0.5c1.6-2.2,3.8-3.8,5.8-5.4c3.6-2.8,3.5-5.9,1.1-9.2
					c-2.9-4-5.3-4.1-9.2-0.8C218,161.2,217.4,161.8,216.7,162.3z"/>
				<path class="st1" d="M145.6,124.2c-3.8,7.2-4.4,15.8-4.6,23.8c3,0.1,5.7,0,8.1-1.9c0-6.3,1-13.4,4.3-18.9
					c0.4-0.6,0.7-1.3,1.2-1.9c2.8-3.1,3-3,6.3-0.2c6.1,8.2,7.4,17.6,7.1,27.4c-0.2,6.7-1.4,13.2-5.6,18.8c-2.2,2.9-3.4,3-5.8,0.3
					c-3.9-4.3-5.4-9.7-6.5-15.2c-0.2-1-0.4-2.1-0.6-3.2c-2.7,0.3-5.4,0.7-7.9,1.6c1.4,5.9,2.5,11.9,5.7,17.2c3,5,6.9,8.5,13.3,7.3
					c-0.1-1.3,1-1.8,1.8-2.4c3.1-2.4,4.6-5.8,5.8-9.4c3.2-9.8,3.1-19.7,1.2-29.7c-0.5-2.8,0.5-3.7,3.1-3.5c1.4,0.1,2.8,0.3,4.2,0.3
					c4,0.1,8.1,0.2,12.1,0.2c0.3-0.1,0.6-0.2,0.8-0.2c0.3,0,0.7,0,1,0c0.4-0.2,0.9-0.3,1.3,0c5.1-0.2,10.5-1.2,14.5,1
					c0.3,0,0.6,0.1,0.9,0.1c-0.3,0-0.6-0.1-0.9-0.1c0.1,0.1,0.2,0.1,0.4,0.2c0,0,0-0.1,0-0.1c3.8,1,7.6,0.5,11.5,0.8
					c11.6,0.9,23.2,2.2,34.8,3.9c13.8,2,27.5,4.6,40.5,10c5.7,2.3,11.5,4.8,14.5,10.9c0.6,1.3,0.1,3.1,1.8,3.9
					c3.1-10.7,1.2-20.8-4-30.4c-2.2-4-5.6-6-10.4-6.3c-28.1-2.2-56.2-4.7-84.4-7c-5.9-0.5-11.7-1.4-17.6-1.2c0,2-1.6,2-2.9,2.2
					c-2,0.3-1.7-1.7-2.5-2.7c-1.4-0.2-2.7-0.5-4.1-0.7c-1.5-0.1-3-0.2-4.5-0.3c-1.5-0.1-3.1-0.3-4.6-0.4c-2.8,0.7-5.4-0.6-8.1-0.8
					c-2.8-0.2-5.6-0.1-8.3-0.6C152,116,148.8,118.3,145.6,124.2z"/>
				<path class="st1" d="M188.6,135c0.3,0,0.6,0,1,0c0.3,0,0.6-0.1,0.9-0.2c-0.3,0-0.7,0-1,0C189.2,134.8,188.9,134.8,188.6,135z"/>
				<path class="st1" d="M206.3,135.7c-4-2.2-9.4-1.2-14.5-1c0.1,0.1,0.3,0.2,0.4,0.4c0.1,0.2,0.2,0.3,0.3,0.5
					C197,134.8,201.9,135.1,206.3,135.7z"/>
				<path class="st1" d="M198.1,143.5c-1.7,1.3-2.6,0.5-3.8-0.8c-1.5-1.6-1.2-3.2,0.1-4.5c1.8-1.6,2.2,0.7,3.1,1.3
					C198.6,140.8,200.3,141.8,198.1,143.5z"/>
				<path class="st1" d="M202.4,139.7c-1,0.5-1.5-0.4-2.1-1c-0.8-0.9-1.6-1.9-2.5-2.9c1.5-0.8,2.8-0.3,4-0.4
					c1.1-0.1,1.6,0.8,1.7,1.9C203.6,138.3,203.4,139.2,202.4,139.7z"/>
				<path class="st1" d="M203.5,137.3c-0.1-1-0.6-2-1.7-1.9c-1.2,0.1-2.5-0.4-4,0.4c0.9,1,1.7,2,2.5,2.9c0.5,0.6,1,1.5,2.1,1
					C203.4,139.2,203.6,138.3,203.5,137.3z"/>
				<path class="st2" d="M96.8,124.8c-0.5-0.5-1-1.1-0.9-2.1c1.5,0.1,2.7,1,3.7,1.8c1.5,1.2,1.4-0.4,2-0.9c2.3,1.3,4.6,2.6,6.3,3.6
					C103.8,129.3,100.6,126.1,96.8,124.8z"/>
				<path class="st3" d="M309.4,166.1c0.1-0.3,0.1-0.7,0.2-1C309.6,165.5,309.5,165.8,309.4,166.1z"/>
				<path class="st2" d="M149.4,153.3c1.9-0.2,3.9-0.7,5.8-0.6c2.8,0.1,4.1-1.5,4.3-3.7c0.5-6.5,1-13,0.7-19.5
					c-0.1-1.6,0-2.9,0.7-4.3c6.1,8.2,7.4,17.6,7.1,27.4c-0.2,6.7-1.4,13.2-5.6,18.8c-2.2,2.9-3.4,3-5.8,0.3
					c-3.9-4.3-5.4-9.7-6.5-15.2C149.8,155.4,149.6,154.3,149.4,153.3z"/>
				<path class="st2" d="M153.5,127.2c1.1,4,0.4,8.1,0.3,12.1c0,1.1,0.1,2.3,0,3.4c-0.4,3-1.6,4.8-4.5,3.4
					C149.3,139.9,150.2,132.7,153.5,127.2z"/>
				<path class="st0" d="M197.6,139.5c1,1.3,2.7,2.4,0.5,4c-1.7,1.3-2.6,0.5-3.8-0.8c-1.5-1.6-1.2-3.2,0.1-4.5
					C196.3,136.6,196.7,138.9,197.6,139.5z"/>
				<path class="st0" d="M197.9,135.8c1.5-0.8,2.8-0.3,4-0.4c1.1-0.1,1.6,0.8,1.7,1.9c0.1,1-0.2,1.9-1.2,2.4c-1,0.5-1.5-0.4-2.1-1
					C199.5,137.8,198.7,136.8,197.9,135.8z"/>
				<path class="st4" d="M106.3,117.3c-0.3,0-0.6,0.1-0.5-0.4c0,0,0.3,0,0.5,0C106.3,117.1,106.3,117.2,106.3,117.3z"/>
				<path class="st4" d="M76.3,115.2c0.4,0,1,0.1,0.8,0.5c-0.2,0.6-0.6,0-0.9-0.2C76.3,115.5,76.3,115.3,76.3,115.2z"/>
				<path class="st5" d="M149.5,153.7c-2.7,0.3-5.5,0.3-8,1.2c-6.7,1.7-13.3,3.7-20.4,4c-5.5,0.2-10.6-0.5-15.5-2.8
					c-4-1.9-7.1-4.8-9.8-8.4c-2.4-3.2-3.9-6.8-5.4-10.5c-0.3-2.2-0.7-4.4-0.9-6.6c-0.1-0.9,0-1.8-0.9-2.1c-1-0.3-2,0-2.6,0.8
					c-0.6,0.8-1.1,1.8-1.6,2.7c-0.7,0.5-1.4,1-2,1.5c-1.1-1.3,1.4-6-3.7-3.5c1.2-2.2,1.7-4.3,3.2-5.8c2.2,3.4,3.5,4.1,5.5,2.1
					c1.7-1.7,3.2-2,5.3-1.3c1.3,0.5,2.3,0.8,1.5-1.5c-0.9-2.4-0.9-5.3-0.8-7.7c0.1-2.9,1.5-4.9-2.5-2c-0.2,0.2-0.8-0.1-0.9,0.1
					c-1.4,1.9-6.5-1.6-5.6,3.8c0,0.1-0.7,0.3-1.1,0.6c-0.4,0.3-0.7,0.7-0.2,1c2.9,2.4,0.4,3.5-1.2,4.8c-0.1-2.2-2.5-2.7-3.3-4.4
					c-0.5-1-2.4-1.6,0.2-2.4c1-0.3,0.5-1.2,0-1.8c-0.6-0.8-0.8-1.5,0.1-2.2c0.4,0.2,0.8,0.4,1.2,0.6c0.7,0.7,2,0.8,2,0
					c0-2,2.1-1.5,2.3-1.5c2.7,1.4,3.8-0.2,4.9-2.9c1.9,4.6,3.2,2.6,4.5,0.2c0-0.1,0.1-0.2,0.2-0.3c0.7-1.3,1.3-1,2.5-0.4
					c1.3,0.6,1.7,1.6,0.9,2.2c-1.6,1.3,0.4,2.1,0.2,3.1c-0.2,1-0.2,1.1,2.7,1.4c0.9,0.1,1.9,0.2,2.9,0.3c-2.6,3.6,1.9,1.8,2.5,3.1
					c-1.3,0.6-2.7,0.3-3.9,0.6c-1,0.2-2.8,0.5-1.4,2.4c0.4,0.5,0.8,1,1.2,1.5c-0.5,0.5-0.5,2.1-2,0.9c-1-0.8-2.1-1.7-3.7-1.8
					c-0.1,1,0,1.9,0.5,2.4c0.6,2.8,1.1,4.9,1,7.9c-0.2,8.5,9,17.6,17.7,18.4c9,0.9,38-5.3,38.4-8.2c0.2-1.1,0.3-2.8,0.3-3.9
					c0.1-4,0.8-8.1-0.3-12.1c0.4-0.6,0.7-1.3,1.2-1.9c2.8-3.1,3-3,6.3-0.2c-0.7,1.4-0.8,2.7-0.7,4.3c0.3,6.5-0.2,13-0.7,19.5
					c-0.2,2.3-1.5,3.9-4.3,3.7C153.3,152.6,151.5,153.5,149.5,153.7z"/>
			</g>
			<polygon class="st3" points="234,139.3 171.9,134.1 169,124.4 155.7,116.7 238.8,123.8 245.7,130.2 			"/>
			<path class="st0" d="M252.7,180.5l-53-0.2c0,0-33.4-45.7-29.1-45.8c4.3-1,73.9,3.9,75.8,4.9c1.9,1.1,29.2,38.4,29.2,38.4
				L252.7,180.5z"/>
		</g>
		<g>
			<g>
				<g>
					<polygon class="st6" points="49.8,81 13.6,29.4 61.3,53.5 59.5,0 84.2,49.3 103.4,22.9 101.1,57.1 149.5,18.7 133.1,49.8 
						117.4,82 157.6,113.2 110.4,114.1 130.5,159.4 92.2,127.9 83.7,202.2 68.7,128.7 32.4,149.7 52.5,112.2 2.6,115.5 32.9,92.1 
											"/>
					<g>
						<g id="EDONP3.tif_4_">
							<g>
								<path class="st7" d="M127.2,98.1c5.3,2.4,24.3,12.8,24.6,13.1c-3.4,0.4-10.7,0.4-14.2,0.5c-3.5,0-7,0-10.5,0
									c-3.5,0-6.9,0-10.4,0c-3.5,0-7,0-10.6,0c0.9,1.9,1.7,3.7,2.5,5.4c4,8.4,8,16.7,11.9,25.1c1.5,3,2.9,6.1,4.3,9.1
									c0.1,0.3,0.4,0.6,0.1,0.8c-0.3,0.2-0.6-0.1-0.8-0.3c-3.9-3.4-7.9-6.8-11.8-10.2c-4.7-4.1-9.5-8.1-14.2-12.2
									c-2.4-2.1-4.9-4.2-7.3-6.3c-0.2-0.2-0.3-0.4-0.7-0.4c-2.4,22.4-4.8,44.8-7.2,67.2c-0.1,0-0.2,0-0.3,0c-0.5-0.9-0.5-2-0.6-3
									c-0.7-4-1.3-8.1-2-12.1c-0.9-5.4-1.7-10.8-2.6-16.1c-1.1-6.8-2.2-13.6-3.3-20.4c-0.8-4.8-1.6-9.6-2.3-14.4
									c-0.2-1.2-0.2-1.2-1.3-0.5c-2.5,1.6-5.1,3.3-7.6,4.9c-7.7,4.9-15.4,9.9-23,14.8c-0.3,0.2-0.6,0.6-0.9,0.3
									c-0.4-0.3,0-0.7,0.2-1c3.7-6.8,7.4-13.7,11.1-20.5c2.2-4,4.3-7.9,6.4-11.9c0.1-0.2,0.1-0.3,0.3-0.7
									c-16.6,1.4-33.2,2.7-49.7,4.1c0.2-0.6,0.7-0.6,1-0.8c2.9-1.4,5.7-2.8,8.6-4.2c0.4-0.2,0.9-0.3,1.1-0.7
									c1.9-0.4,3.9-0.2,5.9-0.3c-1,1.1-2.5,1.3-3.8,2.3c1.2,0.2,2.2,0.1,3.2,0c10.2-0.9,20.3-1.7,30.5-2.6c2-0.2,4.1-0.3,6.1-0.5
									c0.4,0,0.9-0.2,1.2,0.1c0.3,0.4-0.1,0.8-0.3,1.1c-4.3,7.9-8.5,15.7-12.8,23.6c-0.9,1.6-1.7,3.2-2.5,4.8
									c1.6-0.6,2.9-1.6,4.3-2.5c7.5-4.8,15-9.6,22.5-14.5c1.1-0.7,1.2-0.6,1.5,0.7c1,6,2,12.1,2.9,18.1c1.2,7.1,2.3,14.2,3.5,21.3
									c0.6,3.8,1.2,7.6,1.8,11.3c0,0.2,0.1,0.4,0.2,0.8c0.5-0.6,0.4-1.3,0.5-1.8c0.9-8.6,1.8-17.1,2.7-25.7c0.9-8.1,2.5-25.8,3-26
									c0.6-0.3,14.3,12.1,20.8,17.6c2.6,2.3,5.3,4.5,7.9,6.8c0.2,0.1,0.3,0.3,0.8,0.3c-0.5-1.2-1-2.4-1.6-3.5
									c-4.6-9.6-9.1-19.2-13.7-28.9c-0.5-1.1-0.4-1.2,0.8-1.2c10.1,0,20.2,0,30.3-0.1c0.5,0,1,0,1.4,0c0-0.1,8.2,0.4,8.3,0.3
									c-6.2-2.5-20-10.4-20-10.4"/>
								<path class="st7" d="M98.2,54.8C98.2,54.8,98.2,54.8,98.2,54.8c-2.5,1-2.7,0.9-2.4-1.6c0.4-4.2,0.8-8.4,1.1-12.6
									c0-0.4,0-0.8,0-1.2c-0.9,0.5-1.2,1.4-1.7,2.1c-3.6,5.3-7.1,10.6-10.7,15.8c-0.3,0.4-0.5,1-1.2,0.9c-0.6-0.1-0.7-0.7-1-1.1
									c-5.8-12-11.6-24-17.5-36c-0.1-0.2-0.1-0.5-0.5-0.6c0,0.7,0,1.4,0,2.1c0.5,7.7,1.1,15.4,1.6,23c0.4,5.2,0.7,10.4,1.1,15.5
									c0.1,0.9-0.2,1-1,0.7c-10-5-20.1-10-30.1-15c-2.1-1-4.1-2-6.3-3.1c-0.2,0.6,0.3,0.9,0.5,1.2c4.5,6,9,12.1,13.6,18.1
									c0.8,1,1.5,2,2.3,3c0.5,0.6,0.4,0.9-0.4,1c-0.6,0.1-1.3,0.3-1.9,0.4c-0.9-1.8-2.4-3.3-3.6-5C35.2,55.6,30,48.7,24.8,41.8
									c-1.1-1.5-2.4-2.9-3.3-4.6c0,0,0.1-0.1,0.1-0.1c0.5-0.1,0.8,0.2,1.2,0.4C30.6,41.3,38.3,45.2,46,49c5.7,2.8,11.3,5.7,17,8.5
									c0.4,0.2,0.8,0.5,1.4,0.5c-1.1-16.7-2.3-33.3-3.4-50.1c0.8,0.3,0.9,1,1.2,1.5c4.4,9,8.7,17.9,13,26.9
									c2.7,5.5,5.3,11,7.9,16.5c0.6,1.3,0.6,1.3,1.4,0.1c4.9-7.3,9.8-14.5,14.7-21.8c0.1-0.2,0.2-0.4,0.4-0.6
									c0.1-0.2,0.2-0.4,0.5-0.3c0.3,0.1,0.2,0.4,0.2,0.6c-0.1,1.4-0.1,2.8-0.3,4.2c-0.3,2.9-0.6,5.9-0.9,8.8
									c-0.3,3.4-0.6,6.7-0.9,10.1C98.2,54.1,98.2,54.5,98.2,54.8z"/>
								<path class="st7" d="M131.7,47c-0.8,0.4-1.6,0.4-2.4,0.6c-0.2,0.1-0.6,0.2-0.7-0.1c-0.2-0.3,0.1-0.5,0.2-0.7
									c1.7-3,3.4-6,5.2-9c0.3-0.5,0.6-1.1,1-1.8c-0.7-0.1-0.9,0.2-1.2,0.5c-5.6,4.4-11.2,8.8-16.8,13.2c-0.9,0.7-1.8,1.3-3,1.5
									c-1.3,0.2-2.5,0.7-3.8,0.8c2.3-1.8,4.5-3.7,6.8-5.5c5.5-4.4,11.1-8.7,16.6-13c3.1-2.4,6.3-4.9,9.4-7.3
									c0.1-0.1,0.3-0.1,0.4-0.2c0.3,0.3,0,0.5-0.1,0.7c-3.7,6.5-7.5,13.1-11.2,19.6C131.9,46.6,131.7,46.8,131.7,47z"/>
								<path class="st7" d="M21.5,37.3c0-0.1-0.1-0.1-0.1-0.2c0.1-0.1,0.2-0.1,0.2,0C21.6,37.2,21.6,37.2,21.5,37.3z"/>
							</g>
						</g>
					</g>
				</g>
			</g>
			<g>
				<g>
					<g>
						<path class="st1" d="M54.9,94.6c4.8-0.5,9.4-0.9,13.9-1.6c3.3-0.5,5.2-3.1,4.9-5.8c-0.3-2.7-3.1-4.8-6.3-4.7
							c-1.3,0-2.6,0.3-3.8,0.3c-3.5,0.1-6.1-1-7.5-3.6c-2.4-4.5,0.4-8.9,6.2-9.7c4.4-0.6,8.8-1,13.2-1.5c-0.1-1.3-0.3-2.2-0.4-3.3
							c-5,0.6-9.8,0.9-14.6,1.7c-4,0.6-6.7,2.8-8.1,6.1c-2.6,6.4,1.8,15.2,13.5,13.5c1.8-0.3,3.8-0.5,4.1,1.6
							c0.2,2.1-1.8,2.3-3.6,2.5c-3.9,0.4-7.8,0.9-11.8,1.3C54.6,92.5,54.7,93.5,54.9,94.6z M75.7,69.7c-4.7,0.5-9.3,0.9-13.7,1.6
							c-3.1,0.5-4.6,2.6-4.4,5.2c0.3,2.7,2.4,4.4,5.6,4.3c1.3,0,2.6-0.3,3.8-0.4c3.6-0.2,6.5,1,8.2,3.7c2.8,4.7-0.3,9.8-6.7,10.7
							c-4.4,0.6-8.8,1-13.4,1.5c0.1,1.2,0.2,2.2,0.4,3.3c5.1-0.6,10.1-0.9,15-1.8c4-0.7,6.9-3,8.3-6.3c2.9-7.2-2.4-16-13.9-14.2
							c-1.4,0.2-3.3,0.6-3.5-1.2c-0.2-1.8,1.7-1.7,3.1-1.9c3.8-0.4,7.6-0.9,11.5-1.3C75.9,71.8,75.8,70.9,75.7,69.7z M115.2,89.5
							c-4.8,0.5-9.1,1-13.8,1.6c-1.1-9.8-2.2-19.3-3.3-29c-1.3,0.1-2.4,0.3-3.5,0.4c1.2,10.8,2.4,21.5,3.6,32.2
							c5.9-0.7,11.6-1.3,17.3-2C115.5,91.6,115.4,90.8,115.2,89.5z M14.2,71.5c0.6,4.9,1,9.6,1.6,14.2c0.4,3.4,0.8,6.9,1.7,10.2
							c1.2,4.2,5.3,6.8,10.5,6.7c3-0.1,6-0.6,9.2-1c-0.1-1.1-0.2-2-0.4-3.2c-2,0.2-3.9,0.4-5.7,0.6c-7.3,0.8-10.3-1.2-11.1-7.4
							c-0.7-5.5-1.3-11-1.9-16.5c-0.2-1.4-0.3-2.7-0.5-4.1C16.4,71.3,15.5,71.4,14.2,71.5z M151.1,85.7c-1.2,0.1-2.1,0.1-2.9,0.2
							c-11.3,1.2-13.1,0-14.2-9.6c-0.7-6-1.4-11.9-2-18c-1.3,0.1-2.3,0.3-3.5,0.4c0.6,5,1.1,9.8,1.7,14.7c0.4,3.2,0.7,6.4,1.6,9.5
							c1.2,4.3,5.2,6.9,10.3,6.8c3.1,0,6.2-0.6,9.4-1C151.3,87.7,151.2,86.8,151.1,85.7z M122.2,92c-1.2-10.8-2.4-21.5-3.6-32.2
							c-1.2,0.1-2.2,0.3-3.3,0.4c1.2,10.8,2.4,21.5,3.6,32.2C120,92.3,121,92.2,122.2,92z M1,73c1.2,10.9,2.4,21.6,3.7,32.3
							c1.2-0.1,2.1-0.2,3.3-0.4C6.7,94.2,5.5,83.5,4.3,72.7C3.2,72.8,2.2,72.9,1,73z M115,87.8c-0.1-1.2-0.2-2.1-0.4-3.3
							c-2.9,0.3-5.5,0.6-8.5,1c-0.9-8.2-1.8-16.1-2.7-23.9c-1.2,0.1-2.2,0.2-3.2,0.4c1,9.1,2.1,18.1,3.1,27.2
							C107.3,88.6,111,88.2,115,87.8z M34.6,80.3c-3.9,0.4-7.7,0.9-11.5,1.3c-1.9,0.2-2.3,0.9-2.1,2.3c0.4,2.6,0.5,5.3,0.9,7.9
							c0.8,4.8,3.1,6.3,9,5.7c1.8-0.2,3.7-0.4,5.7-0.6c-0.1-1.2-0.2-2.1-0.4-3.3c-2.3,0.3-4.6,0.5-6.8,0.8c-2.1,0.3-3.5-0.4-3.8-2.2
							c-0.4-2.3-0.6-4.7-0.9-7.3c3.5-0.4,6.8-0.8,10.2-1.2C34.8,82.4,34.7,81.5,34.6,80.3z M139,71.8c3.6-0.4,6.9-0.8,10.2-1.2
							c-0.1-1.2-0.2-2.1-0.4-3.3c-4.2,0.5-8.2,0.9-12.1,1.4c-0.6,0.1-1.5,1-1.4,1.4c0.4,3.6,0.8,7.2,1.6,10.7
							c0.5,2.3,2.5,3.7,5.4,3.6c2.8-0.2,5.6-0.6,8.6-0.9c-0.1-1-0.2-1.9-0.4-3.1c-2.4,0.3-4.6,0.5-6.8,0.8c-2.2,0.3-3.5-0.5-3.8-2.2
							C139.5,76.7,139.3,74.4,139,71.8z M6.6,72.3c1.2,11,2.5,21.7,3.7,32.4c1.1-0.1,2.1-0.2,3.2-0.4C12.2,93.6,11,82.9,9.8,72.1
							C8.7,72.1,7.7,72.2,6.6,72.3z M120.8,59.4c1.2,11,2.5,21.7,3.7,32.4c1.1-0.1,2.1-0.2,3.2-0.4c-1.2-10.8-2.4-21.5-3.7-32.3
							C122.9,59.2,122,59.3,120.8,59.4z M34,75.3c-3.4,0.4-6.7,0.8-10.3,1.2c-0.2-2.1-0.4-4-0.7-5.9c-1.3,0.2-2.3,0.3-3.4,0.4
							c0.3,3.1,0.7,6,1,9c4.7-0.5,9.2-1,13.7-1.5C34.3,77.4,34.2,76.5,34,75.3z M137.4,57.5c-1.4,0.2-2.4,0.4-3.4,0.5
							c0.4,3.2,0.7,6.1,1,9.1c4.6-0.5,9.1-1,13.6-1.5c-0.1-1.1-0.2-2-0.4-3.2c-3.4,0.4-6.7,0.8-10.2,1.2
							C137.9,61.5,137.6,59.7,137.4,57.5z M42.8,81.1c-0.5-4.2-0.9-8.4-1.4-12.6c-1.2,0.1-2.2,0.3-3.3,0.4c0.5,4.3,0.9,8.4,1.4,12.6
							C40.8,81.3,41.7,81.2,42.8,81.1z M43.7,68.1c0.5,4.4,1,8.6,1.5,12.8c1.2-0.2,2.2-0.3,3.2-0.5c-0.5-4.3-0.9-8.4-1.4-12.6
							C45.8,68,44.9,68,43.7,68.1z"/>
						<path class="st3" d="M54.9,94.6c-0.1-1.2-0.2-2.1-0.4-3.3c4-0.5,7.9-0.9,11.8-1.3c1.8-0.2,3.8-0.3,3.6-2.5
							c-0.2-2.1-2.2-1.9-4.1-1.6c-11.7,1.7-16-7.1-13.5-13.5c1.3-3.3,4.1-5.5,8.1-6.1c4.7-0.8,9.6-1.1,14.6-1.7
							c0.1,1.1,0.2,2,0.4,3.3c-4.4,0.5-8.8,0.9-13.2,1.5c-5.9,0.8-8.7,5.3-6.2,9.7c1.5,2.7,4.1,3.8,7.5,3.6c1.3-0.1,2.6-0.3,3.8-0.3
							c3.3-0.1,6,2,6.3,4.7c0.3,2.7-1.6,5.3-4.9,5.8C64.3,93.7,59.6,94.1,54.9,94.6z"/>
						<path class="st3" d="M75.7,69.7c0.1,1.2,0.2,2.1,0.4,3.3c-3.9,0.4-7.7,0.9-11.5,1.3c-1.4,0.2-3.3,0.1-3.1,1.9
							c0.2,1.8,2.1,1.4,3.5,1.2c11.5-1.7,16.8,7,13.9,14.2c-1.4,3.4-4.3,5.6-8.3,6.3c-4.9,0.8-9.9,1.2-15,1.8
							c-0.1-1.1-0.2-2.1-0.4-3.3c4.6-0.5,9-0.9,13.4-1.5c6.4-0.9,9.5-6,6.7-10.7c-1.7-2.8-4.5-3.9-8.2-3.7c-1.3,0.1-2.6,0.3-3.8,0.4
							c-3.2,0.1-5.3-1.6-5.6-4.3c-0.3-2.6,1.2-4.7,4.4-5.2C66.4,70.6,70.9,70.2,75.7,69.7z"/>
						<path class="st3" d="M115.2,89.5c0.1,1.3,0.2,2.1,0.4,3.2c-5.7,0.6-11.4,1.3-17.3,2c-1.2-10.7-2.4-21.4-3.6-32.2
							c1.1-0.1,2.2-0.2,3.5-0.4c1.1,9.7,2.2,19.2,3.3,29C106.1,90.6,110.5,90.1,115.2,89.5z"/>
						<path class="st3" d="M14.2,71.5c1.3-0.2,2.2-0.2,3.5-0.4c0.2,1.4,0.3,2.8,0.5,4.1c0.6,5.5,1.2,11,1.9,16.5
							c0.8,6.2,3.8,8.2,11.1,7.4c1.8-0.2,3.7-0.4,5.7-0.6c0.1,1.2,0.2,2.1,0.4,3.2c-3.1,0.4-6.1,0.9-9.2,1
							c-5.2,0.1-9.3-2.5-10.5-6.7c-0.9-3.3-1.3-6.8-1.7-10.2C15.2,81.1,14.7,76.4,14.2,71.5z"/>
						<path class="st3" d="M151.1,85.7c0.1,1.1,0.2,2,0.3,3.1c-3.2,0.4-6.3,1-9.4,1c-5.2,0.1-9.1-2.5-10.3-6.8
							c-0.9-3.1-1.2-6.3-1.6-9.5c-0.6-4.8-1.1-9.7-1.7-14.7c1.2-0.1,2.2-0.2,3.5-0.4c0.7,6,1.4,12,2,18c1.1,9.6,2.9,10.8,14.2,9.6
							C149,85.8,149.9,85.8,151.1,85.7z"/>
						<path class="st3" d="M122.2,92c-1.1,0.1-2.2,0.2-3.3,0.4c-1.2-10.8-2.4-21.4-3.6-32.2c1.1-0.1,2.1-0.2,3.3-0.4
							C119.8,70.5,121,81.2,122.2,92z"/>
						<path class="st3" d="M1,73c1.2-0.1,2.1-0.2,3.3-0.4C5.5,83.5,6.7,94.2,8,105c-1.1,0.1-2.1,0.2-3.3,0.4C3.5,94.6,2.3,83.9,1,73
							z"/>
						<path class="st3" d="M115,87.8c-4.1,0.5-7.7,0.9-11.7,1.3c-1-9.1-2-18.1-3.1-27.2c1-0.1,1.9-0.2,3.2-0.4
							c0.9,7.9,1.8,15.8,2.7,23.9c3-0.3,5.6-0.6,8.5-1C114.8,85.7,114.9,86.6,115,87.8z"/>
						<path class="st3" d="M34.6,80.3c0.1,1.2,0.2,2.1,0.4,3.3c-3.4,0.4-6.7,0.8-10.2,1.2c0.3,2.6,0.5,5,0.9,7.3
							c0.3,1.7,1.7,2.4,3.8,2.2c2.2-0.3,4.5-0.5,6.8-0.8c0.1,1.2,0.2,2.1,0.4,3.3c-2,0.2-3.9,0.4-5.7,0.6c-5.8,0.6-8.2-0.8-9-5.7
							c-0.4-2.6-0.5-5.2-0.9-7.9c-0.2-1.4,0.2-2.1,2.1-2.3C26.9,81.2,30.7,80.7,34.6,80.3z"/>
						<path class="st3" d="M139,71.8c0.3,2.6,0.5,5,0.9,7.3c0.3,1.7,1.6,2.5,3.8,2.2c2.2-0.3,4.5-0.5,6.8-0.8
							c0.1,1.2,0.2,2.1,0.4,3.1c-3,0.3-5.8,0.8-8.6,0.9c-3,0.2-4.9-1.3-5.4-3.6c-0.8-3.5-1.2-7.1-1.6-10.7c0-0.4,0.9-1.3,1.4-1.4
							c4-0.6,8-1,12.1-1.4c0.1,1.2,0.2,2.1,0.4,3.3C145.9,71,142.6,71.4,139,71.8z"/>
						<path class="st3" d="M6.6,72.3c1.2-0.1,2.1-0.2,3.2-0.2c1.2,10.8,2.4,21.5,3.7,32.3c-1.1,0.1-2,0.2-3.2,0.4
							C9,94,7.8,83.3,6.6,72.3z"/>
						<path class="st3" d="M120.8,59.4c1.2-0.1,2.1-0.2,3.2-0.2c1.2,10.8,2.4,21.5,3.7,32.3c-1.1,0.1-2,0.2-3.2,0.4
							C123.3,81.1,122.1,70.4,120.8,59.4z"/>
						<path class="st3" d="M34,75.3c0.1,1.2,0.2,2,0.4,3.1c-4.5,0.5-9,1-13.7,1.5c-0.3-3-0.7-5.9-1-9c1.1-0.1,2-0.2,3.4-0.4
							c0.2,1.9,0.4,3.7,0.7,5.9C27.4,76.1,30.6,75.7,34,75.3z"/>
						<path class="st3" d="M137.4,57.5c0.2,2.2,0.4,3.9,0.7,6c3.5-0.4,6.8-0.8,10.2-1.2c0.1,1.2,0.2,2.2,0.4,3.2
							c-4.5,0.5-9,1-13.6,1.5c-0.3-3-0.7-5.9-1-9.1C135,57.9,136,57.7,137.4,57.5z"/>
						<path class="st3" d="M42.8,81.1c-1.1,0.1-2.1,0.2-3.3,0.4c-0.5-4.2-0.9-8.3-1.4-12.6c1-0.1,2.1-0.2,3.3-0.4
							C41.9,72.7,42.4,76.8,42.8,81.1z"/>
						<path class="st3" d="M43.7,68.1c1.2-0.1,2.1-0.1,3.2-0.2c0.5,4.2,0.9,8.2,1.4,12.6c-1,0.2-2,0.3-3.2,0.5
							C44.6,76.7,44.2,72.5,43.7,68.1z"/>
					</g>
				</g>
				<g>
					<path class="st8" d="M53.8,95.9c4.8-0.5,9.4-0.9,13.9-1.6c3.3-0.5,5.2-3.1,4.9-5.8c-0.3-2.7-3.1-4.8-6.3-4.7
						c-1.3,0-2.6,0.3-3.8,0.3c-3.5,0.1-6.1-1-7.5-3.6c-2.4-4.5,0.4-8.9,6.2-9.7c4.4-0.6,8.8-1,13.2-1.5c-0.1-1.3-0.3-2.2-0.4-3.3
						c-5,0.6-9.8,0.9-14.6,1.7c-4,0.6-6.7,2.8-8.1,6.1c-2.6,6.4,1.8,15.2,13.5,13.5c1.8-0.3,3.8-0.5,4.1,1.6
						c0.2,2.1-1.8,2.3-3.6,2.5c-3.9,0.4-7.8,0.9-11.8,1.3C53.6,93.8,53.7,94.7,53.8,95.9z M74.6,71c-4.8,0.5-9.3,0.9-13.7,1.6
						c-3.1,0.5-4.6,2.6-4.3,5.2c0.3,2.7,2.4,4.4,5.5,4.3c1.3,0,2.6-0.3,3.8-0.4c3.6-0.2,6.5,1,8.2,3.7c2.8,4.7-0.3,9.8-6.7,10.7
						c-4.4,0.6-8.8,1-13.4,1.5c0.1,1.2,0.2,2.2,0.4,3.3c5.1-0.6,10.1-0.9,15-1.8c4-0.7,6.9-3,8.3-6.3c2.9-7.2-2.4-15.9-13.9-14.2
						c-1.4,0.2-3.3,0.6-3.5-1.2c-0.2-1.8,1.7-1.7,3.1-1.9c3.8-0.4,7.6-0.9,11.5-1.3C74.9,73.1,74.8,72.2,74.6,71z M114.2,90.8
						c-4.8,0.5-9.1,1-13.8,1.6c-1.1-9.8-2.2-19.3-3.3-29c-1.3,0.2-2.4,0.3-3.5,0.4C94.8,74.6,96,85.3,97.2,96
						c5.9-0.7,11.6-1.3,17.3-2C114.4,92.9,114.3,92.1,114.2,90.8z M13.1,72.8c0.6,4.9,1,9.6,1.6,14.2c0.5,3.4,0.8,6.9,1.7,10.2
						c1.2,4.2,5.3,6.8,10.5,6.7c3-0.1,6-0.6,9.2-1c-0.1-1.1-0.2-2-0.4-3.2c-2,0.2-3.9,0.4-5.7,0.6c-7.3,0.8-10.3-1.2-11.1-7.4
						c-0.7-5.5-1.3-11-1.9-16.5c-0.2-1.4-0.3-2.7-0.5-4.1C15.3,72.6,14.5,72.7,13.1,72.8z M150.1,87c-1.2,0.1-2.1,0.1-2.9,0.2
						c-11.3,1.2-13.1,0-14.2-9.6c-0.7-6-1.4-11.9-2-18c-1.3,0.1-2.3,0.3-3.5,0.4c0.6,5,1.1,9.8,1.7,14.7c0.4,3.2,0.7,6.4,1.6,9.5
						c1.2,4.3,5.2,6.9,10.3,6.8c3.1,0,6.2-0.6,9.4-1C150.3,89,150.2,88.1,150.1,87z M121.1,93.3c-1.2-10.8-2.4-21.5-3.6-32.2
						c-1.2,0.1-2.2,0.3-3.3,0.4c1.2,10.8,2.4,21.5,3.6,32.2C119,93.6,120,93.5,121.1,93.3z M0,74.3c1.2,10.9,2.4,21.6,3.7,32.3
						c1.2-0.1,2.1-0.2,3.3-0.4C5.7,95.5,4.5,84.8,3.3,74C2.1,74.1,1.2,74.2,0,74.3z M114,89c-0.1-1.2-0.2-2.1-0.4-3.3
						c-2.9,0.3-5.5,0.6-8.5,1c-0.9-8.2-1.8-16.1-2.7-23.9c-1.2,0.1-2.2,0.2-3.2,0.4c1,9.1,2.1,18.1,3.1,27.2
						C106.2,89.9,109.9,89.5,114,89z M33.5,81.6c-3.9,0.4-7.7,0.9-11.5,1.3c-1.9,0.2-2.3,0.9-2.1,2.3c0.4,2.6,0.5,5.2,0.9,7.9
						c0.8,4.8,3.1,6.3,9,5.7c1.8-0.2,3.7-0.4,5.7-0.6c-0.1-1.2-0.2-2.1-0.4-3.3c-2.3,0.3-4.6,0.5-6.8,0.8c-2.1,0.3-3.5-0.4-3.8-2.2
						C24.2,91,24,88.6,23.7,86c3.5-0.4,6.8-0.8,10.2-1.2C33.8,83.7,33.7,82.8,33.5,81.6z M138,73.1c3.6-0.4,6.9-0.8,10.2-1.2
						c-0.1-1.2-0.2-2.1-0.4-3.3c-4.2,0.5-8.2,0.9-12.1,1.4c-0.6,0.1-1.5,1-1.4,1.4c0.4,3.6,0.8,7.2,1.5,10.7
						c0.5,2.3,2.5,3.7,5.4,3.6c2.8-0.1,5.6-0.6,8.6-0.9c-0.1-1-0.2-1.9-0.4-3.1c-2.4,0.3-4.6,0.5-6.8,0.8c-2.2,0.3-3.5-0.5-3.8-2.2
						C138.4,78,138.2,75.7,138,73.1z M5.5,73.6C6.8,84.6,8,95.3,9.2,106c1.1-0.1,2.1-0.2,3.2-0.4c-1.2-10.8-2.4-21.5-3.7-32.3
						C7.6,73.4,6.7,73.5,5.5,73.6z M119.8,60.7c1.2,11,2.5,21.7,3.7,32.4c1.1-0.1,2.1-0.2,3.2-0.4c-1.2-10.8-2.4-21.5-3.7-32.3
						C121.9,60.5,120.9,60.6,119.8,60.7z M33,76.6c-3.4,0.4-6.7,0.8-10.3,1.2c-0.2-2.1-0.4-4-0.7-5.9c-1.3,0.2-2.3,0.3-3.4,0.4
						c0.4,3.1,0.7,6,1,9c4.7-0.5,9.2-1,13.7-1.5C33.2,78.7,33.1,77.8,33,76.6z M136.4,58.8c-1.4,0.2-2.4,0.4-3.4,0.5
						c0.4,3.2,0.7,6.1,1,9.1c4.6-0.5,9.1-1,13.6-1.5c-0.1-1.1-0.2-2-0.4-3.2c-3.4,0.4-6.7,0.8-10.2,1.2
						C136.8,62.7,136.6,61,136.4,58.8z M41.8,82.4c-0.5-4.2-1-8.4-1.4-12.6c-1.2,0.1-2.2,0.3-3.2,0.4c0.5,4.3,0.9,8.4,1.4,12.6
						C39.7,82.6,40.7,82.5,41.8,82.4z M42.6,69.4c0.5,4.4,1,8.6,1.5,12.8c1.2-0.2,2.2-0.3,3.2-0.5c-0.5-4.3-1-8.4-1.4-12.6
						C44.8,69.2,43.8,69.3,42.6,69.4z"/>
					<path class="st9" d="M53.8,95.9c-0.1-1.2-0.2-2.1-0.4-3.3c4-0.5,7.9-0.9,11.8-1.3c1.8-0.2,3.8-0.3,3.6-2.5
						c-0.2-2.1-2.3-1.9-4.1-1.6c-11.7,1.7-16-7.1-13.5-13.5c1.3-3.3,4.1-5.5,8.1-6.1c4.7-0.8,9.6-1.1,14.6-1.7
						c0.1,1.1,0.2,2,0.4,3.3c-4.4,0.5-8.8,0.9-13.2,1.5c-5.9,0.8-8.7,5.3-6.2,9.7c1.5,2.7,4.1,3.8,7.5,3.6c1.3-0.1,2.6-0.3,3.8-0.3
						c3.3-0.1,6,2,6.3,4.7c0.3,2.7-1.6,5.3-4.9,5.8C63.2,95,58.6,95.3,53.8,95.9z"/>
					<path class="st9" d="M74.6,71c0.1,1.2,0.2,2.1,0.4,3.3c-3.9,0.4-7.7,0.9-11.5,1.3c-1.4,0.2-3.3,0.1-3.1,1.9
						c0.2,1.8,2.1,1.4,3.5,1.2c11.5-1.7,16.8,7,13.9,14.2c-1.4,3.4-4.3,5.6-8.3,6.3c-4.9,0.8-9.9,1.2-15,1.8
						c-0.1-1.1-0.2-2.1-0.4-3.3c4.6-0.5,9-0.9,13.4-1.5c6.4-0.9,9.5-6,6.7-10.7c-1.7-2.8-4.5-3.9-8.2-3.7c-1.3,0.1-2.6,0.3-3.8,0.4
						c-3.2,0.1-5.3-1.6-5.5-4.3c-0.3-2.6,1.2-4.7,4.3-5.2C65.3,71.9,69.9,71.5,74.6,71z"/>
					<path class="st9" d="M114.2,90.8c0.1,1.3,0.2,2.1,0.4,3.2c-5.7,0.6-11.4,1.3-17.3,2c-1.2-10.7-2.4-21.4-3.6-32.2
						c1.1-0.1,2.2-0.2,3.5-0.4c1.1,9.7,2.2,19.2,3.3,29C105,91.8,109.4,91.3,114.2,90.8z"/>
					<path class="st9" d="M13.1,72.8c1.3-0.2,2.2-0.2,3.5-0.4c0.2,1.4,0.3,2.8,0.5,4.1c0.6,5.5,1.2,11,1.9,16.5
						c0.8,6.2,3.8,8.2,11.1,7.4c1.8-0.2,3.7-0.4,5.7-0.6c0.1,1.2,0.2,2.1,0.4,3.2c-3.1,0.4-6.1,0.9-9.2,1c-5.2,0.1-9.3-2.5-10.5-6.7
						c-0.9-3.3-1.3-6.8-1.7-10.2C14.1,82.4,13.7,77.7,13.1,72.8z"/>
					<path class="st9" d="M150.1,87c0.1,1.1,0.2,2,0.3,3.1c-3.2,0.4-6.3,1-9.4,1c-5.2,0.1-9.1-2.5-10.3-6.8
						c-0.9-3.1-1.2-6.3-1.6-9.5c-0.6-4.8-1.1-9.7-1.7-14.7c1.2-0.1,2.2-0.2,3.5-0.4c0.7,6,1.4,12,2,18c1.1,9.6,2.9,10.8,14.2,9.6
						C148,87.1,148.9,87,150.1,87z"/>
					<path class="st9" d="M121.1,93.3c-1.1,0.1-2.2,0.2-3.3,0.4c-1.2-10.8-2.4-21.4-3.6-32.2c1.1-0.1,2.1-0.2,3.3-0.4
						C118.7,71.8,119.9,82.5,121.1,93.3z"/>
					<path class="st9" d="M0,74.3c1.2-0.1,2.1-0.2,3.3-0.4c1.2,10.8,2.4,21.5,3.7,32.3c-1.1,0.1-2.1,0.2-3.3,0.4
						C2.4,95.9,1.2,85.2,0,74.3z"/>
					<path class="st9" d="M114,89c-4,0.5-7.7,0.9-11.7,1.3c-1-9.1-2-18.1-3.1-27.2c1-0.1,1.9-0.2,3.2-0.4c0.9,7.9,1.8,15.8,2.7,23.9
						c3-0.3,5.6-0.6,8.5-1C113.7,86.9,113.8,87.9,114,89z"/>
					<path class="st9" d="M33.5,81.6c0.1,1.2,0.2,2.1,0.4,3.3c-3.4,0.4-6.7,0.8-10.2,1.2c0.3,2.6,0.5,5,0.9,7.3
						c0.3,1.7,1.7,2.4,3.8,2.2c2.2-0.3,4.5-0.5,6.8-0.8c0.1,1.2,0.2,2.1,0.4,3.3c-2,0.2-3.9,0.4-5.7,0.6c-5.8,0.6-8.2-0.8-9-5.7
						c-0.4-2.6-0.5-5.2-0.9-7.9c-0.2-1.4,0.2-2.1,2.1-2.3C25.8,82.5,29.6,82,33.5,81.6z"/>
					<path class="st9" d="M138,73.1c0.3,2.6,0.5,4.9,0.9,7.3c0.3,1.7,1.6,2.5,3.8,2.2c2.2-0.3,4.5-0.5,6.8-0.8
						c0.1,1.2,0.2,2.1,0.4,3.1c-3,0.3-5.8,0.8-8.6,0.9c-3,0.2-4.9-1.3-5.4-3.6c-0.8-3.5-1.2-7.1-1.5-10.7c0-0.4,0.9-1.3,1.4-1.4
						c4-0.6,8-1,12.1-1.4c0.1,1.2,0.2,2.1,0.4,3.3C144.8,72.3,141.5,72.7,138,73.1z"/>
					<path class="st9" d="M5.5,73.6c1.2-0.1,2.1-0.2,3.2-0.2c1.2,10.8,2.4,21.5,3.7,32.3c-1.1,0.1-2,0.2-3.2,0.4
						C8,95.3,6.8,84.6,5.5,73.6z"/>
					<path class="st9" d="M119.8,60.7c1.2-0.1,2.1-0.2,3.2-0.2c1.2,10.8,2.4,21.5,3.7,32.3c-1.1,0.1-2,0.2-3.2,0.4
						C122.2,82.4,121,71.7,119.8,60.7z"/>
					<path class="st9" d="M33,76.6c0.1,1.2,0.2,2,0.4,3.1c-4.5,0.5-9,1-13.7,1.5c-0.3-3-0.7-5.9-1-9c1.1-0.1,2-0.2,3.4-0.4
						c0.2,1.9,0.4,3.7,0.7,5.9C26.3,77.4,29.6,77,33,76.6z"/>
					<path class="st9" d="M136.4,58.8c0.2,2.2,0.4,3.9,0.7,6c3.5-0.4,6.8-0.8,10.2-1.2c0.1,1.2,0.2,2.2,0.4,3.2
						c-4.5,0.5-9,1-13.6,1.5c-0.3-3-0.7-5.9-1-9.1C133.9,59.2,134.9,59,136.4,58.8z"/>
					<path class="st9" d="M41.8,82.4c-1.1,0.1-2.1,0.2-3.3,0.4c-0.5-4.2-0.9-8.3-1.4-12.6c1-0.1,2.1-0.2,3.2-0.4
						C40.8,74,41.3,78.1,41.8,82.4z"/>
					<path class="st9" d="M42.6,69.4c1.2-0.1,2.1-0.1,3.2-0.2c0.5,4.2,0.9,8.2,1.4,12.6c-1,0.2-2,0.3-3.2,0.5
						C43.6,77.9,43.1,73.8,42.6,69.4z"/>
				</g>
			</g>
		</g>
	</g>
</g>
</svg>
