<?xml version="1.0" encoding="utf-8"?>
<!-- Generator: Adobe Illustrator 19.2.1, SVG Export Plug-In . SVG Version: 6.00 Build 0)  -->
<svg version="1.1" id="Layer_1" xmlns="http://www.w3.org/2000/svg" xmlns:xlink="http://www.w3.org/1999/xlink" x="0px" y="0px"
	 viewBox="0 0 361 86" style="enable-background:new 0 0 361 86;" xml:space="preserve">
<style type="text/css">
	.st0{fill:#4AA0D5;stroke:#FFFFFF;stroke-width:4;stroke-miterlimit:10;}
	.st1{fill:#FFFFFF;}
	.st2{fill:#ED7400;}
</style>
<g>
	<rect x="2" y="2" class="st0" width="357" height="82"/>
	<g>
		<path class="st1" d="M140.9,33.7c-2.4,0-4.6,1.2-5.9,3c0-0.1,0-0.2,0-0.2c0-4.7-3.8-8.6-8.6-8.6c-2.6,0-4.9,1.2-6.5,3
			c-0.8-6.4-6.2-11.3-12.7-11.3c-6.9,0-12.6,5.5-12.8,12.4c-1.6-2.2-4.1-3.6-7-3.6c-4.7,0-8.6,3.8-8.6,8.6c0,0,0,0,0,0
			c-1.3-2-9,11.1-7.5,11.1h69.2c0,0,0.1,0.1,0.1,0.1c0,0,0.1,0.1,0.1,0.1c4,0,7.3-3.2,7.3-7.2C148.1,36.9,144.9,33.7,140.9,33.7z"/>
		<path class="st2" d="M45.8,29.8c0,0,7.1,0.1,12.7,8c0.3-0.1,10.6,0,10.6,0s-8.8-18.1-8.9-18.5c-0.7-7.3,5.5-4.6,5.7-3.7
			c0.8,0.7,19.1,22,19.2,22c0.8,1.5,19.3-4.8,20.9,5.4c13.3,2.3,6.1,8.1,5,8.1c-1.1,0-56.8,0-56.8,0l-4.2-10.4L45.8,29.8z"/>
		<g>
			<path class="st1" d="M63,45.2c0,0.5-0.4,0.8-0.8,0.8h-1.4c-0.5,0-0.8-0.4-0.8-0.8v-2.4c0-0.5,0.4-0.8,0.8-0.8h1.4
				c0.5,0,0.8,0.4,0.8,0.8V45.2z"/>
			<path class="st1" d="M67,45.1c0,0.5-0.4,0.9-0.9,0.9h-1.2c-0.5,0,0.1-0.5,0.1-0.9v-2.2c0-0.5-0.6-0.9-0.1-0.9h1.2
				c0.5,0,0.9,0.4,0.9,0.9V45.1z"/>
			<path class="st1" d="M70,44.8c0,0.6-0.2,1.2-0.3,1.2h-1.5c-0.1,0-0.2-0.6-0.2-1.2v-1.8c0-0.6,0.1-0.9,0.2-0.9h1.5
				c0.1,0,0.3,0.3,0.3,0.9V44.8z"/>
			<path class="st1" d="M76,45.1c0,0.5-0.8,0.9-1.2,0.9h-1.2c-0.5,0-0.5-0.5-0.5-0.9v-2.2c0-0.5,0.1-0.9,0.5-0.9h1.2
				c0.5,0,1.2,0.4,1.2,0.9V45.1z"/>
			<path class="st1" d="M80,45.4c0,0.5-0.4,0.6-0.8,0.6h-1.6c-0.5,0-0.6-0.2-0.6-0.6v-2.4c0-0.5,0.1-0.9,0.6-0.9h1.6
				c0.5,0,0.8,0.5,0.8,0.9V45.4z"/>
			<path class="st1" d="M85,45.1c0,0.5-0.2,0.9-0.6,0.9h-1.2c-0.5,0-1.1-0.5-1.1-0.9v-2.2c0-0.5,0.7-0.9,1.1-0.9h1.2
				c0.5,0,0.6,0.4,0.6,0.9V45.1z"/>
			<path class="st1" d="M89,45.2c0,0.5-0.4,0.8-0.8,0.8h-1.4c-0.5,0-0.8-0.4-0.8-0.8v-2.4c0-0.5,0.4-0.8,0.8-0.8h1.4
				c0.5,0,0.8,0.4,0.8,0.8V45.2z"/>
			<path class="st1" d="M95,45.4c0,0.5-0.7,0.6-1.1,0.6h-1.6c-0.5,0-1.3-0.2-1.3-0.6v-2.4c0-0.5,0.8-0.9,1.3-0.9h1.6
				c0.5,0,1.1,0.5,1.1,0.9V45.4z"/>
			<path class="st1" d="M108,44h-7.2c-1.7,0-3.1-1.3-3.1-2.5l0,0c0-1.2,1.4-2.5,3.1-2.5h5.7C106.5,39,112,44,108,44z"/>
		</g>
		<path class="st1" d="M70.6,50.5c-1.3,0-2.5,0.6-3.2,1.6c0,0,0-0.1,0-0.1c0-2.6-2.1-4.7-4.7-4.7c-1.4,0-2.7,0.6-3.5,1.6
			c-0.4-3.5-3.4-6.2-6.9-6.2c-3.8,0-6.8,3-7,6.7c-0.8-1.2-2.2-2-3.8-2c-2.6,0-4.7,2.1-4.7,4.7c0,0,0,0,0,0.1
			c-0.7-1.1-1.9-1.8-3.3-1.8c-2.2,0-4,1.8-4,4c0,1.1,0.5,2.4,1.2,3.1c0.4,0.7,1.2,1.4,2,1.4h37.7c0,0,0-0.3,0.1-0.3
			c0,0,0-0.1,0.1-0.1c2.2,0,4-1.8,4-4C74.5,52.3,72.7,50.5,70.6,50.5z"/>
	</g>
</g>
</svg>
