<?xml version="1.0" encoding="utf-8"?>
<!-- Generator: Adobe Illustrator 19.2.1, SVG Export Plug-In . SVG Version: 6.00 Build 0)  -->
<svg version="1.1" id="Layer_1" xmlns="http://www.w3.org/2000/svg" xmlns:xlink="http://www.w3.org/1999/xlink" x="0px" y="0px"
	 viewBox="0 0 348 142.2" style="enable-background:new 0 0 348 142.2;" xml:space="preserve">
<style type="text/css">
	.st0{fill:#BCC2C6;}
	.st1{fill-rule:evenodd;clip-rule:evenodd;fill:#F36414;}
	.st2{fill-rule:evenodd;clip-rule:evenodd;fill:#B24600;}
	.st3{fill-rule:evenodd;clip-rule:evenodd;fill:#35ABAD;}
	.st4{fill:#35ABAD;stroke:#FFFFFF;stroke-width:5;stroke-miterlimit:10;}
	.st5{fill:#FFFFFF;}
	.st6{font-family:'FakeReceipt-Regular';}
	.st7{font-size:16.8983px;}
	.st8{letter-spacing:1;}
	.st9{fill:#F36414;}
</style>
<g>
	<g>
		<g id="_x31_vyZE8.tif">
			<g>
				<path class="st0" d="M147.4,75.7c-8.8,0-17.6,0-26.4,0c-0.1-7.6-0.2-15.2-0.3-22.8c0.7-2.7,0-4-3.1-3.8c-2.9,0.2-5.9,0.2-8.9,0
					c-3.1-0.2-3.8,1.1-3.1,3.8c-0.1,7.6-0.2,15.2-0.3,22.8c-8.8,0-17.6,0-26.4,0c0-8.4,0.1-16.7,0.1-25.1
					c10.3-10.2,20.6-20.4,30.8-30.5c3.3-3.3,3.3-3.3,6.6,0c10.3,10.2,20.6,20.4,30.8,30.5C147.3,59,147.4,67.3,147.4,75.7z
					 M120.3,35.6c1.6-3.4-0.1-5.9-2.6-8c-2.7-2.3-6.4-2.2-9.1,0c-2.5,2-4.2,4.5-2.6,8c0.8,3.8,3.4,5.5,7,5.7
					C116.6,41.6,119,39.6,120.3,35.6z"/>
				<path class="st1" d="M104.6,75.7c0.1-7.8,0.2-15.6,0.4-23.5c5.4,0,10.8,0,16.3,0c0.1,7.8,0.3,15.6,0.4,23.5
					C115.9,75.7,110.3,75.7,104.6,75.7z M119.2,64.3c0-1.2-0.4-2.3-1.9-2.3c-1.3,0-2.2,0.7-2.3,2c-0.1,1.2,0.7,2.2,2,2.3
					C118.5,66.5,119.1,65.6,119.2,64.3z"/>
				<path class="st2" d="M121.2,52.2c-5.4,0-10.8,0-16.3,0c-0.5-4.2,3.3-3.9,3.3-3.9l9.6,0C117.9,48.3,121.7,47.6,121.2,52.2z"/>
				<path class="st2" d="M143.5,31.3c-4.3-3.5-8.4-7.4-11.2-12.5c0-0.8-0.1-1.5-0.1-2.3c-0.1-9.5-0.1-9.5,8.7-9.3
					c1.9,0,2.7,0.4,2.7,2.8C143.5,17,143.6,24.1,143.5,31.3z"/>
				<circle class="st3" cx="113.2" cy="33.4" r="8"/>
				<circle class="st2" cx="117.4" cy="64.4" r="2.4"/>
				<path class="st1" d="M147.5,44.9c-10.9-11-21.9-22.1-32.8-33.1c-1.1-1.1-1.9-1.1-3,0c-10.9,11.1-21.9,22.1-32.8,33.1
					c-1.7,0.5-2.4,4.3-5.3,1.2c-3.3-3.6-3.5-3.4-0.1-6.9c13-13,26-26.1,39-39.2c1.5-0.3,2.1,0.9,2.8,1.7
					c4.8,4.7,35.1,34.6,38.4,38.3c1.1,1.2,3.5,2.3,0.8,4.3c-1.9,1.4-3.2,5.2-6.1,1.2C148.1,45.2,147.8,45.1,147.5,44.9z"/>
			</g>
		</g>
		<g>
			<polygon class="st4" points="4.4,139.6 56.2,139.3 39.5,124.1 39.5,91.7 4.4,91.7 18,116.5 			"/>
			<polygon class="st4" points="299.5,127.7 46.5,127.7 46.5,77.7 299.5,77.7 299.5,96.3 			"/>
			<polygon class="st4" points="343.7,138.6 290.8,138.3 306.5,123.1 306.5,90.7 343.6,90.7 330.1,115.5 			"/>
		</g>
		<text transform="matrix(1 0 0 1 59.6197 108.3461)" class="st5 st6 st7 st8">ALEX’S HOUSE PARTY</text>
		<g id="ju5NJg.tif">
			<g>
				<path class="st5" d="M183.3,75.8c2.6,0,5.1,0,7.6,0c0.1,0,0.3-0.2,0.3-0.3c0.4-3,0.9-5.9,1.3-8.9c0.1-0.9,0.1-1.9,0.2-2.8
					c0.2,0,0.3,0,0.5,0.1c1.5,0.3,3.1,0.3,4.7,0c9.5-1.6,14.6-11.7,10.4-20.4c-0.1-0.2-0.1-0.6,0-0.8c1-3,1.2-6.1,0.6-9.3
					c-1.8-8.5-9.8-14.7-18.9-13.7c-5.1,0.6-9.2,3-12.3,7.2c-0.1,0.2-0.5,0.3-0.7,0.4c-0.9,0.1-1.9,0.1-2.8,0.3
					c-6.1,1.5-10.1,5.3-11.3,11.5c-1.3,6.1,0.9,11.2,5.8,15c0.4,0.3,0.6,0.6,0.6,1c1.1,6.7,7.5,11.5,14.3,10.7
					c0.4,0,0.9-0.1,1.4-0.1C184.2,69.1,183.8,72.4,183.3,75.8z"/>
				<path class="st3" d="M186.4,54.1c0,0,0,3.3-0.1,3.7c0,0.1,0,0.2,0,0.3c-0.1,1-0.1,1-1,1.2c-4,1.1-8-1.9-8-6c0-1.1-0.4-1.5-1.3-2
					c-2.9-1.5-4.5-4.8-3.9-8c0.6-3.3,3.2-5.8,6.5-6.2c0.9-0.1,1.9,0,2.8,0.1c0.7,0.1,0.7,0.1,1-0.5c0.8-1.6,1.8-3,3.3-4
					c5.9-4.2,14.1-0.7,15.3,6.5c0.3,2.1,0,4-1,5.9c-0.3,0.6-0.3,1,0.1,1.6c1.7,2.4,1.9,4.9,0.6,7.6c-1.5,3.1-5.2,4.6-8.5,3.6
					c-0.3-0.1-0.4-0.2-0.5-0.5c-0.3-1.4-0.6-2.9-0.9-4.3C190.9,52.6,186.5,49.5,186.4,54.1z"/>
				<path class="st1" d="M183.3,75.8c0.5-3.4,0.9-6.7,1.4-10.2c-0.5,0.1-0.9,0.1-1.4,0.1c-6.8,0.8-13.2-4-14.3-10.7
					c-0.1-0.4-0.2-0.8-0.6-1c-5-3.8-7.1-8.9-5.8-15c1.3-6.1,5.2-10,11.3-11.5c0.9-0.2,1.9-0.2,2.8-0.3c0.3,0,0.6-0.2,0.7-0.4
					c3.1-4.1,7.1-6.6,12.3-7.2c9.2-1,17.1,5.2,18.9,13.7c0.7,3.1,0.4,6.2-0.6,9.3c-0.1,0.2-0.1,0.6,0,0.8
					c4.2,8.7-0.9,18.7-10.4,20.4c-1.5,0.3-3.1,0.2-4.7,0c-0.1,0-0.3,0-0.5-0.1c-0.1,1-0.1,1.9-0.2,2.8c-0.4,3-0.8,5.9-1.3,8.9
					c0,0.1-0.2,0.3-0.3,0.3C188.4,75.8,185.9,75.8,183.3,75.8z M196.7,34.8c0.2,3.3,0,6.6-1.1,9.7c-0.9,2.6-2.4,4.8-4.1,6.8
					c-0.3,0.3-0.3,0.6-0.2,1c0.4,1.8,0.8,3.5,1.1,5.3c0.1,0.4,0.2,0.6,0.6,0.7c4.1,1.3,8.7-0.7,10.6-4.5c1.6-3.3,1.3-6.5-0.8-9.4
					c-0.5-0.7-0.6-1.2-0.2-2c1.2-2.3,1.6-4.8,1.2-7.4c-1.4-9-11.7-13.3-19.1-8.1c-1.8,1.3-3.1,3-4.1,5c-0.4,0.8-0.4,0.7-1.3,0.6
					c-1.2-0.1-2.4-0.2-3.5-0.1c-4.1,0.5-7.4,3.7-8.1,7.8c-0.7,4,1.2,8.2,4.9,10c1.1,0.6,1.6,1.2,1.6,2.5c0.1,5.2,5,8.8,10,7.5
					c1.2-0.3,1.2-0.3,1.3-1.5c0-0.1,0-0.2,0-0.3c0.1-0.5-0.1-0.9-0.6-1.2c-3-1.7-5.4-3.9-7-7c-0.8-1.6-1.4-3.2-1.9-4.8
					c1.4,1.5,2.8,3.1,4.4,4.5c1.6,1.4,3.4,2.6,5.1,3.9c0.1,0,0.1-0.1,0.1-0.1c0.1-5.8-0.9-11.4-2-17.1c2.3,3.4,4.3,6.9,6,10.7
					C192.7,43.6,195.1,39.5,196.7,34.8z"/>
			</g>
		</g>
		<rect x="49" y="124.2" class="st9" width="248" height="4"/>
	</g>
	<rect x="9" y="135.2" class="st9" width="41" height="4"/>
	<rect x="297" y="134.2" class="st9" width="42" height="4"/>
</g>
</svg>
