<?xml version="1.0" encoding="utf-8"?>
<!-- Generator: Adobe Illustrator 19.2.1, SVG Export Plug-In . SVG Version: 6.00 Build 0)  -->
<svg version="1.1" id="Layer_1" xmlns="http://www.w3.org/2000/svg" xmlns:xlink="http://www.w3.org/1999/xlink" x="0px" y="0px"
	 viewBox="0 0 369.2 92" style="enable-background:new 0 0 369.2 92;" xml:space="preserve">
<style type="text/css">
	.st0{fill:#413B57;stroke:#B52D41;stroke-width:3;stroke-miterlimit:10;}
	.st1{fill-rule:evenodd;clip-rule:evenodd;fill:#B52D41;}
	.st2{fill:none;stroke:#B52D41;stroke-miterlimit:10;}
	.st3{opacity:0.3;fill:#231F20;}
	.st4{fill:#FFFFFF;}
	.st5{fill-rule:evenodd;clip-rule:evenodd;fill:#FFFFFF;}
	.st6{fill:none;}
</style>
<g>
	<g>
		<polygon class="st0" points="329.4,70 76.4,70 76.4,31 329.4,31 329.4,49 		"/>
		<polygon class="st0" points="366,81.8 329.4,81.6 329.4,41 366.5,41 352.6,62.2 		"/>
	</g>
	<g>
		<g>
			<g>
				<path class="st1" d="M64.1,78.2c-0.5,3.1-0.3,7.1-1,9.9c-0.3,1.2-1.3,1.9-2.4,2.3C55.3,92.4,49.6,92,44.1,90
					c-1.1-0.4-1.9-1.3-2.2-2.5c-0.8-3-0.7-7.1-1.1-9.8c-5.6,2.2-9.3,2-13.4,1.2c-6-1.2-6-1.6-6.8-6.3c-0.4-2.5-0.8-5.2-1.1-7.7
					c-0.2-1.6,0.8-2.7-1-2.4c-0.2,0-2,0-2.2,0C6,61.7,6,60.9,5.3,52.9c-0.9-10.4-3-20.4-4.5-30.7c0-0.2-0.3-0.5-0.3-0.7
					c10.3,2.9,20.1,2.7,30.7-0.2c-0.4,3.2-0.1,6.5-0.5,9.7c-3.7,0.5-7.3,0.7-10.8,1.5c-1.9,0.5-3.6,2.1-5.3,3.2
					c1.8,1.1,3.4,2.8,5.3,3.2c7.9,1.7,15.9,1.6,23.9-0.2c0.9-0.2,1.7-0.5,2.5-0.9c2.2-1.2-4.7-5.3-7.8-6.2c-0.4-3-1.6-6.6-2.2-10.1
					c10.5,3,20.1,3.1,30.8,0.4c-0.3,3.1-1,6.2-1.4,9.1c-0.1,0.5-0.3,0.5-1.1,0.6c-2.5,0.5-5.2,0.7-7.6,1.4c-1.2,0.4-2.2,1.7-3.3,2.5
					c1.1,1,2.1,2.3,3.4,2.8c1.7,0.7,3.7,1.1,5.6,1.1c6.6-0.1,13.2-0.5,19.7-0.9c0.9,0,1.8-0.4,2.5-0.8c0.8-0.5,1.8-1.4,1.8-2.1
					c0-0.7-1-1.9-1.8-2.1c-2.9-0.8-5.8-1.5-8.8-1.9c-1.9-0.3-1.8,1.2-1.9-1.1c-0.1-2.3-1.1-6.4-1.5-8.9c10.6,3,20.2,3.1,30.8-0.1
					c-1.1,9.2-2.1,18.3-3.1,27.4c-0.3,2.8-0.9,6.4-1,9.2c-0.2,3.1-2,3.6-4.6,3.9c-3,0.4-6.8,1.2-10.7,0.5c-0.8-0.1-0.8-1.2-1.8-1.2
					c-0.6,3.8-1.3,9-1.6,12.7c-0.2,2.5,0.1,3.4-1.9,4.2c-3.3,1.3-7,0.9-10.3,1.1C67.5,79.3,65.5,78.3,64.1,78.2z M51.9,43.9
					c-4.4,0.6-8.8,1.3-13.2,2.2c-1.2,0.3-1.2,1.7-2.3,2.6c1.1,0.9,0.9,2.2,2.1,2.5c8.9,2.4,17.8,2.4,26.7,0c1.2-0.3,2.2-1.7,3.3-2.6
					c-1.1-1-2.2-2.5-3.4-2.8C60.7,45,56.4,44.5,51.9,43.9z"/>
			</g>
		</g>
		<circle class="st2" cx="71.8" cy="4.6" r="4.1"/>
		<polygon class="st3" points="27.8,79.1 24.4,78.3 21.4,76.5 17,38.6 24.2,40.4 		"/>
		<g>
			<polygon class="st4" points="17.1,36.5 21.6,77.7 15.1,36.8 			"/>
		</g>
		<g>
			<path class="st4" d="M41,77c0,0,0,0.1-0.1,0.2c-0.1,0.1-0.2,0.4-0.5,0.5c-0.2,0.2-0.6,0.4-0.9,0.6c-0.4,0.2-0.8,0.4-1.3,0.5
				c-1.9,0.6-4.6,1-7.4,1c-0.7,0-1.4-0.1-2-0.2c-0.7-0.1-1.3-0.2-1.9-0.3c-0.6-0.1-1.2-0.3-1.8-0.5c-0.6-0.2-1.1-0.4-1.5-0.7
				c-0.5-0.2-0.8-0.5-1.2-0.8c-0.3-0.3-0.6-0.5-0.8-0.7c-0.2-0.2-0.3-0.4-0.4-0.5c-0.1-0.1-0.1-0.2-0.1-0.2s0.1,0.1,0.2,0.2
				c0.1,0.1,0.3,0.3,0.5,0.4c0.2,0.2,0.5,0.4,0.9,0.6c0.4,0.2,0.8,0.4,1.2,0.6c0.9,0.4,2,0.7,3.2,0.9c1.2,0.2,2.5,0.3,3.8,0.4
				c2.6,0.1,5.3-0.1,7.2-0.5c1-0.2,1.8-0.4,2.3-0.7c0.3-0.1,0.4-0.3,0.5-0.4C41,77.1,41,77,41,77z"/>
		</g>
		<polygon class="st3" points="12.8,62.1 9.4,61.3 6.4,59.5 2,21.6 9.2,23.4 		"/>
		<g>
			<polygon class="st4" points="2.3,21 6.5,61.1 0.3,21.3 			"/>
		</g>
		<g>
			<path class="st4" d="M19.2,62.1c0,0,0,0.1-0.1,0.2c-0.1,0.1-0.2,0.2-0.4,0.3c-0.4,0.2-1,0.4-1.7,0.5c-0.7,0.1-1.6,0.2-2.5,0.1
				c-0.9,0-1.9-0.2-2.8-0.4c-0.9-0.2-1.9-0.5-2.7-0.9c-0.8-0.4-1.6-0.9-2.1-1.4c-0.3-0.3-0.5-0.5-0.7-0.8c-0.2-0.3-0.3-0.5-0.4-0.7
				c-0.1-0.2-0.1-0.4-0.2-0.5c0-0.1,0-0.2,0-0.2s0.1,0.2,0.4,0.5c0.1,0.2,0.3,0.3,0.5,0.5c0.2,0.2,0.5,0.4,0.7,0.6
				c1.1,0.7,2.9,1.4,4.6,1.7c1.8,0.4,3.6,0.6,5,0.6c0.7,0,1.3,0,1.6-0.1c0.2-0.1,0.3-0.1,0.4-0.2C19.2,62.2,19.2,62.1,19.2,62.1z"/>
		</g>
		<ellipse class="st5" cx="16" cy="21.4" rx="16" ry="4.9"/>
		<path class="st1" d="M31,21.2c-2,0.2-4.5,0.9-6.4,0.5c-5.9-1-11.6-1-17.5,0.1c-2.2,0.4-4.5-0.4-6.7-1C5.3,16.7,28.5,17.2,31,21.2z
			"/>
		<polygon class="st3" points="45,33.2 41.5,32 38.6,31.2 36.9,23.7 43.9,23.3 		"/>
		<g>
			<g>
				<polygon class="st4" points="67.7,48.6 62.9,90.7 65.7,48.5 				"/>
			</g>
			<g>
				<polygon class="st4" points="86.5,35.8 80,78.3 84.6,35.5 				"/>
			</g>
			<g>
				<polygon class="st4" points="103.6,21 99.1,60.6 101.6,20.9 				"/>
			</g>
			<g>
				<polygon class="st4" points="47.2,35.7 46.4,49.4 45.2,35.8 				"/>
			</g>
			<g>
				<path class="st4" d="M64.2,77.8c0,0,0,0.1,0.1,0.2c0.1,0.1,0.2,0.2,0.5,0.3c0.4,0.2,1.1,0.3,1.9,0.4c1.6,0.2,3.7,0.3,5.8,0.2
					c2.1-0.1,4.2-0.4,5.7-1c0.7-0.3,1.3-0.6,1.7-0.9c0.2-0.1,0.3-0.3,0.4-0.4c0.1-0.1,0.1-0.1,0.1-0.1c0,0-0.1,0.3-0.4,0.6
					c-0.3,0.4-0.8,0.9-1.6,1.3c-0.7,0.4-1.7,0.8-2.7,1c-1,0.3-2.1,0.4-3.2,0.5c-2.2,0.1-4.4-0.2-6-0.6c-0.8-0.2-1.4-0.5-1.8-0.8
					c-0.2-0.1-0.3-0.3-0.4-0.4C64.2,77.8,64.2,77.8,64.2,77.8z"/>
			</g>
			<g>
				<path class="st4" d="M82.9,61.5c0,0,0,0.1,0.1,0.2c0.1,0.1,0.2,0.2,0.5,0.3c0.4,0.2,1.1,0.3,1.9,0.4c1.6,0.2,3.8,0.2,5.9,0
					c0.5,0,1.1-0.1,1.6-0.2c0.5-0.1,1-0.1,1.5-0.3c1-0.2,1.9-0.5,2.6-0.8c0.4-0.2,0.7-0.3,1-0.5c0.3-0.2,0.5-0.3,0.7-0.5
					c0.4-0.3,0.6-0.5,0.6-0.5s0,0.1-0.1,0.2C99,60,99,60.2,98.8,60.4c-0.1,0.2-0.4,0.4-0.6,0.6c-0.3,0.2-0.6,0.5-0.9,0.7
					c-0.4,0.2-0.8,0.4-1.2,0.6c-0.4,0.2-0.9,0.4-1.4,0.5c-1,0.3-2.1,0.5-3.2,0.6c-2.2,0.2-4.5,0-6.1-0.5c-0.8-0.2-1.5-0.5-1.9-0.8
					c-0.2-0.1-0.3-0.3-0.4-0.4C83,61.6,82.9,61.5,82.9,61.5z"/>
			</g>
			<g>
				<polygon class="st4" points="67.5,21.8 66,36.2 65.5,21.7 				"/>
			</g>
			<g>
				<polygon class="st4" points="31.7,21.8 30,40.5 29.7,21.7 				"/>
			</g>
			<g>
				<polygon class="st4" points="38.1,21.8 41.1,40.3 36.2,22.2 				"/>
			</g>
			<polygon class="st3" points="48.5,91.2 45.1,90.4 42.1,88.5 38.4,51.3 45.6,53.2 			"/>
			<g>
				<polygon class="st4" points="38.3,48.5 42.3,90.3 36.4,48.7 				"/>
			</g>
			<g>
				<path class="st4" d="M63.2,88.4c0,0,0,0.1,0,0.2c-0.1,0.2-0.2,0.4-0.4,0.6c-0.2,0.2-0.6,0.4-0.9,0.6c-0.4,0.2-0.8,0.4-1.3,0.6
					c-2,0.8-4.8,1.4-7.7,1.5c-0.7,0-1.4,0-2.1,0c-0.7,0-1.4-0.1-2.1-0.2c-0.7-0.1-1.3-0.3-1.9-0.4c-0.6-0.2-1.1-0.4-1.6-0.6
					c-0.5-0.2-0.9-0.5-1.3-0.7c-0.4-0.3-0.7-0.5-0.9-0.7c-0.2-0.2-0.4-0.4-0.5-0.5c-0.1-0.1-0.2-0.2-0.2-0.2s0.1,0.1,0.2,0.2
					c0.1,0.1,0.3,0.3,0.6,0.4c0.2,0.2,0.6,0.4,0.9,0.6c0.4,0.2,0.8,0.4,1.3,0.5c1,0.3,2.2,0.6,3.4,0.7c1.3,0.1,2.7,0.2,4.1,0.1
					c2.8-0.1,5.6-0.5,7.6-1c1-0.3,1.8-0.6,2.3-0.9c0.3-0.2,0.4-0.3,0.5-0.5C63.2,88.5,63.2,88.4,63.2,88.4z"/>
			</g>
			<g>
				<path class="st6" d="M20.2,75.2"/>
			</g>
			<g>
				<path class="st6" d="M40,77.6"/>
			</g>
		</g>
		<ellipse class="st5" cx="51.9" cy="21.4" rx="15.9" ry="4.9"/>
		<path class="st1" d="M67.6,21c-2,0.2-4.5,0.9-6.4,0.5c-5.9-1-11.6-1-17.5,0.1c-2.2,0.4-4.5-0.4-6.7-1C41.8,16.5,65.1,17,67.6,21z"
			/>
		<ellipse class="st5" cx="31.2" cy="36" rx="16.6" ry="5.1"/>
		<path class="st1" d="M45.9,35.3c-2,0.2-4.5,0.9-6.4,0.5c-5.9-1-11.6-1-17.5,0.1c-2.2,0.4-4.5-0.4-6.7-1
			C20.2,30.8,43.4,31.3,45.9,35.3z"/>
		<polygon class="st3" points="80.6,31.6 77.3,31.1 74.3,30.4 73.2,22.4 80.3,22.5 		"/>
		<g>
			<polygon class="st4" points="74.6,20.8 75.1,35.3 72.6,21 			"/>
		</g>
		<ellipse class="st5" cx="88.1" cy="21.4" rx="15.6" ry="4.9"/>
		<path class="st1" d="M103.2,21.4c-2,0.2-4.4,0.9-6.3,0.5c-5.7-1-11.4-1-17.1,0.1c-2.1,0.4-4.4-0.4-6.6-1
			C78,16.8,100.8,17.4,103.2,21.4z"/>
		<polygon class="st3" points="61.5,45 58.2,44.6 55.3,44.2 54.3,37.8 61.3,37.9 		"/>
		<ellipse class="st5" cx="70" cy="35.4" rx="17" ry="5.3"/>
		<path class="st1" d="M85.7,34.2c-2,0.2-4.5,0.9-6.4,0.5c-5.9-1-11.6-1-17.5,0.1c-2.2,0.4-4.5-0.4-6.7-1
			C60,29.7,83.3,30.2,85.7,34.2z"/>
		<g>
			<polygon class="st4" points="55.7,35.8 54.6,51.4 53.7,35.7 			"/>
		</g>
		<g>
			<path class="st4" d="M38.9,54.4C38.9,54.4,38.9,54.5,38.9,54.4c0,0.1,0,0.2,0,0.2C38.9,54.6,38.9,54.5,38.9,54.4
				c0,0.1,0.1,0.2,0.2,0.3c0.1,0.1,0.2,0.1,0.4,0.2c0.6,0.3,1.5,0.6,2.4,0.8c1.9,0.5,3.8,0.7,3.8,0.7s-1.9,0.1-3.9-0.2
				c-1-0.1-1.9-0.3-2.7-0.6c-0.2-0.1-0.4-0.1-0.5-0.2c-0.2-0.1-0.3-0.2-0.4-0.3C38.1,55,38,54.9,38,54.8c0-0.1,0-0.1,0-0.1
				c0-0.1,0-0.1,0-0.1L38.9,54.4z"/>
		</g>
		<g>
			<path class="st4" d="M38.8,56.4C38.8,56.4,38.8,56.5,38.8,56.4c0,0.1,0,0.1,0,0.2c0,0,0,0,0,0c0,0,0,0.1,0.1,0.1
				c0.1,0.1,0.2,0.1,0.3,0.2c0.5,0.3,1.3,0.6,2.1,0.8c1.6,0.5,3.4,0.6,3.4,0.6s-1.7,0.1-3.5-0.2c-0.9-0.1-1.7-0.3-2.4-0.6
				c-0.2-0.1-0.3-0.2-0.5-0.3c-0.1,0-0.1-0.1-0.2-0.2c-0.1-0.1-0.1-0.1-0.2-0.2c-0.1-0.1-0.1-0.2-0.1-0.3c0,0,0-0.1,0-0.1
				c0,0,0-0.1,0-0.1L38.8,56.4z"/>
		</g>
		<g>
			<path class="st4" d="M38.7,58.5C38.7,58.5,38.7,58.5,38.7,58.5c0,0.1,0,0.1,0,0.2c0,0,0,0,0,0c0,0,0,0,0,0c0,0,0,0.1,0.1,0.1
				c0.1,0.1,0.1,0.1,0.2,0.2c0.4,0.3,1.2,0.6,1.9,0.8c1.5,0.5,3.1,0.6,3.1,0.6s-1.6,0.1-3.2-0.1c-0.8-0.1-1.6-0.3-2.2-0.6
				c-0.2-0.1-0.3-0.2-0.4-0.3c-0.1,0-0.1-0.1-0.2-0.2c0,0-0.1-0.1-0.2-0.2c0-0.1-0.1-0.2-0.1-0.2c0,0,0-0.1,0-0.1c0,0,0-0.1,0-0.1
				L38.7,58.5z"/>
		</g>
		<g>
			<path class="st4" d="M17.6,41.4C17.6,41.4,17.6,41.5,17.6,41.4C17.7,41.6,17.7,41.5,17.6,41.4c0,0.1,0.1,0.2,0.2,0.3
				c0.1,0.1,0.2,0.1,0.4,0.2c0.6,0.3,1.6,0.6,2.5,0.8c1.9,0.5,3.9,0.7,3.9,0.7s-2,0.1-4-0.2c-1-0.1-2-0.3-2.8-0.6
				c-0.4-0.1-0.7-0.3-1-0.6c-0.2-0.2-0.2-0.4-0.2-0.4c0-0.1,0-0.1,0-0.1L17.6,41.4z"/>
		</g>
		<g>
			<path class="st4" d="M17.6,43.4C17.6,43.4,17.6,43.5,17.6,43.4c0,0.1,0,0.2,0,0.2c0,0,0,0,0,0c0,0,0,0.1,0.1,0.1
				c0.1,0.1,0.2,0.1,0.3,0.2c0.5,0.3,1.3,0.6,2.2,0.8c1.7,0.5,3.5,0.6,3.5,0.6s-1.8,0.1-3.6-0.2c-0.9-0.1-1.8-0.3-2.5-0.6
				c-0.2-0.1-0.3-0.2-0.5-0.3c-0.1-0.1-0.3-0.2-0.4-0.4c-0.1-0.1-0.1-0.2-0.1-0.3c0-0.1,0-0.1,0-0.1c0-0.1,0-0.1,0-0.1L17.6,43.4z"
				/>
		</g>
		<g>
			<path class="st4" d="M17.5,45.4C17.5,45.4,17.5,45.5,17.5,45.4c0,0.1,0,0.1,0,0.2c0,0,0,0,0,0c0,0,0,0.1,0.1,0.1
				c0.1,0.1,0.1,0.1,0.3,0.2c0.5,0.3,1.2,0.6,2,0.8c1.6,0.5,3.2,0.6,3.2,0.6s-1.7,0.1-3.3-0.1c-0.8-0.1-1.7-0.3-2.3-0.6
				c-0.2-0.1-0.3-0.2-0.4-0.3c-0.1,0-0.1-0.1-0.2-0.2c-0.1-0.1-0.1-0.1-0.2-0.2c-0.1-0.1-0.1-0.2-0.1-0.3c0,0,0-0.1,0-0.1
				c0,0,0-0.1,0-0.1L17.5,45.4z"/>
		</g>
		<g>
			<path class="st4" d="M2.9,26.4C2.9,26.4,2.9,26.5,2.9,26.4c0,0.1,0,0.2,0,0.2C2.9,26.6,2.9,26.5,2.9,26.4c0,0.1,0.1,0.2,0.2,0.3
				c0.1,0.1,0.2,0.1,0.4,0.2c0.6,0.3,1.5,0.6,2.4,0.8c1.9,0.5,3.8,0.7,3.8,0.7s-1.9,0.1-3.9-0.2c-1-0.1-1.9-0.3-2.7-0.6
				c-0.2-0.1-0.4-0.1-0.5-0.2c-0.2-0.1-0.3-0.2-0.4-0.3C2.1,27,2,26.9,2,26.8c0-0.1,0-0.1,0-0.1c0-0.1,0-0.1,0-0.1L2.9,26.4z"/>
		</g>
		<g>
			<path class="st4" d="M2.8,28.4C2.8,28.4,2.8,28.5,2.8,28.4c0,0.1,0,0.1,0,0.2c0,0,0,0,0,0c0,0,0,0.1,0.1,0.1
				c0.1,0.1,0.2,0.1,0.3,0.2c0.5,0.3,1.3,0.6,2.1,0.8c1.6,0.5,3.4,0.6,3.4,0.6s-1.7,0.1-3.5-0.2c-0.9-0.1-1.7-0.3-2.4-0.6
				c-0.2-0.1-0.3-0.2-0.5-0.3c-0.1,0-0.1-0.1-0.2-0.2C2.1,29.2,2.1,29.1,2,29c-0.1-0.1-0.1-0.2-0.1-0.3c0,0,0-0.1,0-0.1
				c0,0,0-0.1,0-0.1L2.8,28.4z"/>
		</g>
		<g>
			<path class="st4" d="M2.7,30.5C2.7,30.5,2.7,30.5,2.7,30.5c0,0.1,0,0.1,0,0.2c0,0,0,0,0,0c0,0,0,0,0,0c0,0,0,0.1,0.1,0.1
				c0.1,0.1,0.1,0.1,0.2,0.2c0.4,0.3,1.2,0.6,1.9,0.8c1.5,0.5,3.1,0.6,3.1,0.6s-1.6,0.1-3.2-0.1c-0.8-0.1-1.6-0.3-2.2-0.6
				c-0.2-0.1-0.3-0.2-0.4-0.3c-0.1,0-0.1-0.1-0.2-0.2c0,0-0.1-0.1-0.2-0.2c0-0.1-0.1-0.2-0.1-0.2c0,0,0-0.1,0-0.1c0,0,0-0.1,0-0.1
				L2.7,30.5z"/>
		</g>
		<g>
			<path class="st4" d="M38.7,26.4C38.7,26.4,38.7,26.4,38.7,26.4C38.7,26.6,38.8,26.4,38.7,26.4c0.1,0.1,0.1,0.2,0.3,0.3
				c0.1,0.1,0.3,0.2,0.4,0.2c0.7,0.3,1.8,0.6,2.8,0.9c2.2,0.5,4.4,0.7,4.4,0.7s-2.2,0-4.5-0.2c-1.1-0.1-2.2-0.3-3.1-0.6
				c-0.2-0.1-0.4-0.1-0.6-0.2c-0.2-0.1-0.3-0.2-0.5-0.3c-0.2-0.2-0.3-0.5-0.3-0.5c0-0.1,0-0.1,0-0.1L38.7,26.4z"/>
		</g>
		<g>
			<path class="st4" d="M39,28.4C39,28.4,39,28.4,39,28.4c0,0.1,0,0.2,0,0.2c0,0,0,0,0-0.1c0,0,0.1,0.1,0.1,0.1
				c0.1,0.1,0.2,0.1,0.3,0.2c0.6,0.3,1.4,0.6,2.3,0.8c1.8,0.5,3.7,0.7,3.7,0.7s-1.9,0.1-3.8-0.2c-0.9-0.1-1.9-0.3-2.6-0.6
				c-0.2-0.1-0.3-0.1-0.5-0.2c-0.2-0.1-0.3-0.2-0.4-0.3c-0.1-0.1-0.1-0.2-0.2-0.3c0-0.1,0-0.1,0-0.1c0-0.1,0-0.1,0-0.1L39,28.4z"/>
		</g>
		<g>
			<path class="st4" d="M39.5,30.4C39.5,30.4,39.5,30.5,39.5,30.4c0,0.1,0,0.1,0,0.2c0,0,0,0,0,0c0,0,0,0,0,0c0,0,0,0.1,0.1,0.1
				c0.1,0.1,0.1,0.1,0.2,0.2c0.4,0.3,1.2,0.6,1.9,0.8c1.5,0.5,3.1,0.6,3.1,0.6s-1.6,0.1-3.2-0.1c-0.8-0.1-1.6-0.3-2.2-0.6
				c-0.2-0.1-0.3-0.2-0.4-0.3c-0.1,0-0.1-0.1-0.2-0.2c0,0-0.1-0.1-0.2-0.2c0-0.1-0.1-0.2-0.1-0.2c0,0,0-0.1,0-0.1c0,0,0-0.1,0-0.1
				L39.5,30.4z"/>
		</g>
		<g>
			<path class="st4" d="M55.3,40.4C55.3,40.4,55.3,40.4,55.3,40.4C55.3,40.6,55.3,40.5,55.3,40.4c0.1,0.2,0.3,0.3,0.6,0.5
				c0.7,0.3,1.6,0.6,2.6,0.8c2,0.5,4.1,0.7,4.1,0.7s-2.1,0.1-4.2-0.2c-1-0.1-2.1-0.3-2.9-0.6c-0.4-0.1-0.7-0.3-1-0.5
				c-0.2-0.2-0.3-0.4-0.3-0.5c0-0.1,0-0.1,0-0.1L55.3,40.4z"/>
		</g>
		<g>
			<path class="st4" d="M55.2,42.4C55.2,42.4,55.2,42.4,55.2,42.4c0,0.1,0,0.2,0,0.2c0,0,0,0,0-0.1c0,0,0,0.1,0.1,0.1
				c0.1,0.1,0.2,0.1,0.3,0.2c0.6,0.3,1.4,0.6,2.3,0.8c1.8,0.5,3.6,0.7,3.6,0.7s-1.9,0.1-3.7-0.2c-0.9-0.1-1.9-0.3-2.6-0.6
				c-0.2-0.1-0.3-0.1-0.5-0.2c-0.2-0.1-0.3-0.2-0.4-0.3c-0.1-0.1-0.1-0.2-0.2-0.3c0-0.1,0-0.1,0-0.1c0-0.1,0-0.1,0-0.1L55.2,42.4z"
				/>
		</g>
		<ellipse class="st5" cx="52.2" cy="48.8" rx="16.4" ry="5.1"/>
		<path class="st1" d="M67.5,48.2c-2,0.2-4.5,0.9-6.4,0.5c-5.9-1-11.6-1-17.5,0.1c-2.2,0.4-4.5-0.4-6.7-1
			C41.8,43.7,65,44.2,67.5,48.2z"/>
		<g>
			<path class="st4" d="M74.6,26.4C74.6,26.4,74.6,26.5,74.6,26.4C74.7,26.6,74.7,26.5,74.6,26.4c0,0.1,0.1,0.2,0.2,0.3
				c0.1,0.1,0.2,0.1,0.4,0.2c0.6,0.3,1.6,0.6,2.5,0.8c1.9,0.5,3.9,0.7,3.9,0.7s-2,0.1-4-0.2c-1-0.1-2-0.3-2.8-0.6
				c-0.4-0.1-0.7-0.3-1-0.6c-0.2-0.2-0.2-0.4-0.2-0.4c0-0.1,0-0.1,0-0.1L74.6,26.4z"/>
		</g>
		<g>
			<path class="st4" d="M74.9,28.5C74.9,28.5,74.9,28.5,74.9,28.5c0,0.1,0,0.1,0,0.2c0,0,0,0,0,0c0,0,0,0.1,0.1,0.1
				c0.1,0.1,0.2,0.1,0.3,0.2c0.5,0.3,1.3,0.6,2.1,0.8c1.6,0.5,3.3,0.6,3.3,0.6s-1.7,0.1-3.4-0.2c-0.9-0.1-1.7-0.3-2.4-0.6
				c-0.2-0.1-0.3-0.2-0.4-0.3c-0.1,0-0.1-0.1-0.2-0.2c-0.1-0.1-0.1-0.1-0.2-0.2c-0.1-0.1-0.1-0.2-0.1-0.3c0,0,0-0.1,0-0.1
				c0,0,0-0.1,0-0.1L74.9,28.5z"/>
		</g>
	</g>
</g>
</svg>
