<?xml version="1.0" encoding="utf-8"?>
<!-- Generator: Adobe Illustrator 19.2.1, SVG Export Plug-In . SVG Version: 6.00 Build 0)  -->
<svg version="1.1" id="Layer_1" xmlns="http://www.w3.org/2000/svg" xmlns:xlink="http://www.w3.org/1999/xlink" x="0px" y="0px"
	 viewBox="0 0 312.8 88.2" style="enable-background:new 0 0 312.8 88.2;" xml:space="preserve">
<style type="text/css">
	.st0{fill:none;}
	.st1{fill:#B80F00;}
	.st2{font-family:'DeftoneStylus-Regular';}
	.st3{font-size:23.2952px;}
	.st4{letter-spacing:1;}
	.st5{font-family:'Gotham-Book';}
	.st6{fill:#B80F00;stroke:#B80F00;stroke-width:2;stroke-miterlimit:10;}
</style>
<g>
	<rect x="0" y="33.1" class="st0" width="158" height="29.1"/>
	<text transform="matrix(1 0 0 1 0 50.1456)"><tspan x="0" y="0" class="st1 st2 st3 st4">SOPHIE’S </tspan><tspan x="109.1" y="0" class="st1 st5 st3 st4">  </tspan></text>
	<g>
		<polygon class="st1" points="126.4,65.2 129.3,74 138.6,74 131,79.4 133.9,88.2 126.4,82.8 118.9,88.2 121.8,79.4 114.3,74 
			123.6,74 		"/>
		<polygon class="st6" points="166.5,80.9 165.8,81.7 86.3,2.2 87.1,1.4 		"/>
		
			<rect x="70.2" y="41" transform="matrix(0.7058 -0.7084 0.7084 0.7058 7.7665 101.7782)" class="st6" width="112.4" height="1.1"/>
		<polygon class="st1" points="125.9,0.9 128.7,9.8 138,9.8 130.5,15.2 133.4,24 125.9,18.5 118.4,24 121.3,15.2 113.8,9.8 123,9.8 
					"/>
	</g>
	<text transform="matrix(1 0 0 1 139.1699 49.5436)" class="st1 st2 st3 st4">BACHELORETTE</text>
</g>
</svg>
