<?xml version="1.0" encoding="utf-8"?>
<!-- Generator: Adobe Illustrator 19.2.1, SVG Export Plug-In . SVG Version: 6.00 Build 0)  -->
<svg version="1.1" id="Layer_1" xmlns="http://www.w3.org/2000/svg" xmlns:xlink="http://www.w3.org/1999/xlink" x="0px" y="0px"
	 viewBox="0 0 296.6 114.4" style="enable-background:new 0 0 296.6 114.4;" xml:space="preserve">
<style type="text/css">
	.st0{fill-rule:evenodd;clip-rule:evenodd;fill:#5822ED;}
	.st1{fill:#F8F8F8;}
	.st2{font-family:'Arial-BoldMT';}
	.st3{font-size:19.7766px;}
	.st4{letter-spacing:1;}
	.st5{fill-rule:evenodd;clip-rule:evenodd;fill:none;stroke:#6B4F99;stroke-width:3;stroke-miterlimit:10;}
</style>
<g>
	<polygon class="st0" points="0,114.4 295,114.4 295,93.7 295,81.4 0,81.4 	"/>
	<text transform="matrix(1 0 0 1 58.6562 104.0092)" class="st1 st2 st3 st4">SEX IN THE CITY</text>
	<path class="st5" d="M5.4,42.2c0.1,0.9,0.1,1.7,0.2,2.4C6.9,45,8.6,43.9,9.1,46c0,0.1,0.3,0.1,0.5,0.1c3.4,0,6.7,0,10.2,0
		c0-5.7,0-11.2,0-17c2.7,0.5,4.6-0.2,5-3c3.6-0.4,4.2-0.1,4.8,2.7c0.8,0.1,1.7,0.1,2.7,0.2c0,5,0,9.9,0,14.7
		c4.2-1.9,8.2-3.9,12.2-5.7c9-4,18.4-5.2,28.1-4.2c5.6,0.6,10.8,2.5,15.9,4.8c0.4,0.2,1.3,0.4,1.4,0.3c0.7-1.3,1.4-0.3,1.9,0
		c1.8,1,3.4,2.2,5.3,3.3c0.2-0.7,0.3-1.3,0.4-1.8c0.8,0,1.6-0.1,2.5-0.1c0-2.6,0-5.2,0-7.8c4.1,0,8,0,12.1,0c0,0.7,0,1.3,0,2
		c0,5.5,0,11,0,16.6c0,0.5,0.4,1,0.6,1.5c0.3-0.5,0.6-0.9,1-1.5c1.4,0,3.1,0,4.9,0c0-4.9,0-9.7,0-14.7c3.9,0,7.6,0,11.4,0
		c0-2.1,0-3.9,0-5.7c0-1.5,0.5-2.4,2.2-2.3c0.7,0.1,1.4,0,2.1,0c2.1,0,3.1-0.8,3.6-2.6c3.7-0.7,3.2-3.7,3.5-5.9
		c1.3-0.6,2.3-1.1,3.3-1.5c0.6-0.2,1.2-0.4,1.8-0.4c1.4-0.1,2.9,0.1,4.3-0.1c1.7-0.2,2.1,1.1,2.4,2.1c0.5,1.2,0.4,2.6,0.5,3.9
		c0.1,2.9,0,5.7,0,8.6c0.9,0,1.7,0,2.4,0c0.1-0.7,0.2-1.3,0.3-2.1c4.3,0,8.7,0,13.1,0c0-3.7,0-7.3,0-10.9c0.8-0.1,1.4-0.1,2-0.3
		c0.5-0.1,1-0.2,1.3-0.5c1.1-0.9,1.9-2.1,3.5-2.1c0.3,0,0.5-0.1,0.8-0.2c1.5-0.4,3.1-0.8,4.7-1.2c0.1,1.4,0.1,2.6,0.2,3.8
		c0.8,0.1,1.4,0.1,2.2,0.2c0,7.6,0,15.1,0,22.9c2.2,0.4,4.2,0.7,6.3,1.1c0,3.1,0.1,6.3,0,9.4c0,1.2,0.1,2.1,1.7,2.1c0,1,0,1.8,0,2.6
		c0.2,0.1,0.4,0.1,0.6,0.2c0.3-0.7,0.6-1.4,1-2.2c0.5-0.1,1-0.1,1.6-0.2c0-6.7,0-13.3,0-19.9c0-10.1-0.8-20.3,0.7-30.4
		c0-0.1,0.1-0.2,0.4-0.5c1.3,0,2.9,0,4,0c0.5-0.9,0.7-2,1.1-2.1c1.4-0.4,2.9-0.4,4.4-0.6c0.1,0.9,0.1,1.6,0.2,2.4
		c1,0,1.9,0.1,2.8,0.1c-0.2,2.4,1.8,1,2.8,1.8c0,16.6,0,33.4,0,50.1c0.8,0,1.4,0,2.2,0c0-2.8,0-5.5,0-8.1c0.7-0.1,1.2-0.2,1.7-0.3
		c0.1-0.9,0.1-1.6,0.2-2.6c1.1,0.4,2.3-1.9,3.3,0.9c0.2-1.4,0.3-2.1,0.4-2.8c0.9,0.2,1.7,0.3,2.5,0.4c0.4,0.1,1.1,0.1,1.2,0.3
		c0.6,1.6,1.8,1.5,3.1,1.4c2.1-0.3,3.5,0.5,4.4,2.5c0.2-0.6,0.3-1.2,0.3-1.8c0-9.7-0.1-19.4,0.1-29.1c0.1-3.6,0.6-7.2,1-10.8
		c1.1-0.1,1.8-0.1,2.5-0.2c0.1-0.8,0.2-1.6,0.2-2.3c1.3,0,2.5,0,3.7,0c0.1,0.8,0.1,1.5,0.2,2.2c1.3,0.1,2.6,0.1,3.9,0.2
		c0.1,1.1,0.1,2,0.1,2.4c1.8,0.8,3.3,1.4,4.2,1.8c0.7,2.1,1.2,3.7,1.8,5.5c1.4,0,2.8,0,3.8,0c0.9,1.9,1.5,3.4,2.3,5
		c0.6,0,1.2,0.1,2,0.2c0,11.2,0,22.4,0,33.7c0.8,0.1,1.5,0.1,2.2,0.2c0,0.9,0.1,1.8,0.1,2.7c0.6,0,1.1,0,1.7,0
		c0.1-0.7,0.1-1.3,0.2-2c4.5,0,9,0,13.4,0c0.1,0.7,0.1,1.3,0.2,2.3c0.5-0.4,1.2-0.8,1.1-0.9c-0.7-2.2,1.8-3.6,1.4-5.7
		c3.4,0,6.5,0,9.7,0c0.3,0,0.7,0.1,0.8,0.2c0.3,1.5,1.5,0.9,2.3,1c1.6,0.1,3.2,0,4.9,0c0,7.1,0,14.1,0,21c-97.5,0-194.4,0-291.7,0
		c0-10.5,0-21,0-31.4C4.1,42.1,4.7,42.1,5.4,42.2z"/>
	<path class="st0" d="M294.4,54.1c-0.1,0.9-0.1,1.7-0.2,2.4c-1.3,0.4-3.1-0.6-3.6,1.4c0,0.1-0.3,0.1-0.5,0.1c-3.4,0-6.8,0-10.3,0
		c0-5.7,0-11.2,0-17c-2.7,0.5-4.6-0.2-5-3c-3.6-0.4-4.2-0.1-4.8,2.7c-0.8,0.1-1.7,0.1-2.8,0.2c0,5,0,9.9,0,14.7
		c-4.2-1.9-8.2-3.9-12.3-5.7c-9-4-18.5-5.2-28.3-4.2c-5.7,0.6-10.9,2.5-16.1,4.8c-0.4,0.2-1.3,0.4-1.4,0.3c-0.7-1.3-1.4-0.3-1.9,0
		c-1.8,1-3.5,2.2-5.3,3.3c-0.2-0.7-0.3-1.3-0.4-1.8c-0.8,0-1.6-0.1-2.5-0.1c0-2.6,0-5.2,0-7.8c-4.1,0-8.1,0-12.2,0c0,0.7,0,1.3,0,2
		c0,5.5,0,11,0,16.6c0,0.5-0.4,1-0.6,1.5c-0.3-0.5-0.6-0.9-1-1.5c-1.4,0-3.1,0-5,0c0-4.9,0-9.7,0-14.7c-3.9,0-7.6,0-11.5,0
		c0-2.1,0-3.9,0-5.7c0-1.5-0.5-2.4-2.2-2.3c-0.7,0.1-1.4,0-2.1,0c-2.1,0-3.1-0.8-3.7-2.6c-3.8-0.7-3.2-3.7-3.5-5.9
		c-1.3-0.6-2.3-1.1-3.4-1.5c-0.6-0.2-1.2-0.4-1.8-0.4c-1.4-0.1-2.9,0.1-4.3-0.1c-1.7-0.2-2.1,1.1-2.5,2.1c-0.5,1.2-0.4,2.6-0.5,3.9
		c-0.1,2.9,0,5.7,0,8.6c-0.9,0-1.7,0-2.4,0c-0.1-0.7-0.2-1.3-0.3-2.1c-4.4,0-8.7,0-13.2,0c0-3.7,0-7.3,0-10.9
		c-0.8-0.1-1.4-0.1-2-0.3c-0.5-0.1-1-0.2-1.4-0.5c-1.1-0.9-1.9-2.1-3.5-2.1c-0.3,0-0.5-0.1-0.8-0.2c-1.5-0.4-3.1-0.8-4.7-1.2
		c-0.1,1.4-0.1,2.6-0.2,3.8c-0.8,0.1-1.4,0.1-2.2,0.2c0,7.6,0,15.1,0,22.9c-2.2,0.4-4.2,0.7-6.3,1.1c0,3.1-0.1,6.3,0,9.4
		c0,1.2-0.1,2.1-1.7,2.1c0,1,0,1.8,0,2.6c-0.2,0.1-0.4,0.1-0.6,0.2c-0.3-0.7-0.6-1.4-1-2.2c-0.5-0.1-1-0.1-1.6-0.2
		c0-6.7,0-13.3,0-19.9c0-10.1,0.8-20.3-0.7-30.4c0-0.1-0.1-0.2-0.4-0.5c-1.4,0-2.9,0-4.1,0c-0.5-0.9-0.7-2-1.1-2.1
		c-1.4-0.4-2.9-0.4-4.5-0.6c-0.1,0.9-0.1,1.6-0.2,2.4c-1,0-1.9,0.1-2.8,0.1c0.2,2.4-1.8,1-2.9,1.8c0,16.6,0,33.4,0,50.1
		c-0.8,0-1.4,0-2.2,0c0-2.8,0-5.5,0-8.1c-0.7-0.1-1.2-0.2-1.7-0.3c-0.1-0.9-0.1-1.6-0.2-2.6c-1.1,0.4-2.3-1.9-3.3,0.9
		c-0.2-1.4-0.3-2.1-0.4-2.8c-0.9,0.2-1.7,0.3-2.5,0.4c-0.4,0.1-1.2,0.1-1.2,0.3c-0.6,1.6-1.9,1.5-3.1,1.4c-2.1-0.3-3.5,0.5-4.5,2.5
		c-0.2-0.6-0.3-1.2-0.3-1.8c0-9.7,0.1-19.4-0.1-29.1c-0.1-3.6-0.6-7.2-1-10.8c-1.1-0.1-1.8-0.1-2.5-0.2c-0.1-0.8-0.2-1.6-0.2-2.3
		c-1.3,0-2.5,0-3.7,0c-0.1,0.8-0.1,1.5-0.2,2.2c-1.4,0.1-2.6,0.1-3.9,0.2c-0.1,1.1-0.1,2-0.1,2.4c-1.8,0.8-3.3,1.4-4.3,1.8
		c-0.7,2.1-1.2,3.7-1.8,5.5c-1.4,0-2.8,0-3.8,0c-0.9,1.9-1.6,3.4-2.3,5c-0.6,0-1.2,0.1-2,0.2c0,11.2,0,22.4,0,33.7
		c-0.8,0.1-1.5,0.1-2.2,0.2c0,0.9-0.1,1.8-0.1,2.7c-0.6,0-1.1,0-1.7,0c-0.1-0.7-0.1-1.3-0.2-2c-4.6,0-9,0-13.5,0
		c-0.1,0.7-0.1,1.3-0.2,2.3c-0.5-0.4-1.2-0.8-1.1-0.9c0.7-2.2-1.8-3.6-1.4-5.7c-3.4,0-6.6,0-9.8,0c-0.3,0-0.8,0.1-0.8,0.2
		c-0.3,1.5-1.5,0.9-2.4,1c-1.6,0.1-3.2,0-5,0c0,7.1,0,7.4,0,14.4c98.2,0,195.8-0.6,293.8-0.6c0-10.5,0-13.8,0-24.2
		C295.7,54,295,54,294.4,54.1z"/>
</g>
</svg>
