<?xml version="1.0" encoding="utf-8"?>
<!-- Generator: Adobe Illustrator 19.2.1, SVG Export Plug-In . SVG Version: 6.00 Build 0)  -->
<svg version="1.1" id="Layer_1" xmlns="http://www.w3.org/2000/svg" xmlns:xlink="http://www.w3.org/1999/xlink" x="0px" y="0px"
	 viewBox="0 0 336.2 168.1" style="enable-background:new 0 0 336.2 168.1;" xml:space="preserve">
<style type="text/css">
	.st0{fill:none;stroke:#FF00DC;stroke-miterlimit:10;}
	.st1{fill:#FF00DC;}
	.st2{fill-rule:evenodd;clip-rule:evenodd;fill:#FFFFFF;}
</style>
<g>
	<g>
		<polygon class="st0" points="165.6,167.6 1.1,90.9 166.9,0.6 335.1,90.9 		"/>
		<polygon class="st1" points="166.6,160 17,90.3 167.7,8.2 320.7,90.3 		"/>
	</g>
	<g>
		<g>
			<path class="st2" d="M157.7,120.1c1.9,0,3.8-0.1,5.8,0c2,0.1,3-0.6,3.5-2.6c0.5-2,1.3-3.8,2.2-6.5c0.9,2.7,1.7,4.7,2.3,6.7
				c0.4,1.7,1.3,2.4,3.1,2.3c2-0.1,4.1,0,6.5,0.6c-1.7,1.2-3.3,2.5-5.1,3.6c-1.5,0.9-1.8,2-1.2,3.6c0.7,1.9,1.3,3.8,1.3,6.2
				c-1.5-1.1-3.2-2.1-4.6-3.3c-1.6-1.4-3-1.4-4.6,0c-1.4,1.2-3,2.1-5,2.9c0.5-1.8,1-3.6,1.7-5.4c0.8-2,0.4-3.3-1.4-4.3
				c-1.6-0.9-3-2.1-4.5-3.2C157.7,120.6,157.7,120.3,157.7,120.1z"/>
			<path class="st2" d="M207.8,120.8c-5.2,2.5-5.9,5.9-3.8,10.6c-1.8-1.1-3.5-3-5.3-3.1c-1.7,0-3.5,1.9-6.1,3.5
				c2.7-5,2.5-8.6-3.1-10.7c5.5,0.8,8.5-1.1,9-6.8C199.8,119.1,201.6,122.7,207.8,120.8z"/>
			<path class="st2" d="M138,114.2c0.8,5.5,3.5,7.9,8.7,7.1c-1.6,1.3-3.9,2.3-4.4,3.9c-0.5,1.6,0.7,3.9,1.4,6.7
				c-3.8-4-7.5-4.6-11.2,0.4c1.4-7.2,1.4-7.2-3.8-11.6C134.4,121.9,137.4,119.9,138,114.2z"/>
		</g>
	</g>
</g>
</svg>
