<?xml version="1.0" encoding="utf-8"?>
<!-- Generator: Adobe Illustrator 19.2.1, SVG Export Plug-In . SVG Version: 6.00 Build 0)  -->
<svg version="1.1" id="Layer_1" xmlns="http://www.w3.org/2000/svg" xmlns:xlink="http://www.w3.org/1999/xlink" x="0px" y="0px"
	 viewBox="0 0 303.6 151.8" style="enable-background:new 0 0 303.6 151.8;" xml:space="preserve">
<style type="text/css">
	.st0{fill:none;stroke:#FF00DC;stroke-miterlimit:10;}
	.st1{fill:#FF00DC;}
	.st2{fill-rule:evenodd;clip-rule:evenodd;fill:#FFFFFF;}
	.st3{fill:#FFFFFF;}
	.st4{font-family:'Arial-BoldMT';}
	.st5{font-size:24px;}
	.st6{letter-spacing:2;}
	.st7{font-family:'ColonnaMT';}
	.st8{font-size:48px;}
	.st9{letter-spacing:4;}
</style>
<g>
	<g>
		<polygon class="st0" points="148.9,159.3 -15.6,82.7 150.2,-7.7 318.4,82.7 		"/>
		<polygon class="st1" points="149.9,151.7 0.3,82.1 151,-0.1 304,82.1 		"/>
	</g>
	<g>
		<g>
			<path class="st2" d="M141,111.9c1.9,0,3.8-0.1,5.8,0c2,0.1,3-0.6,3.5-2.6c0.5-2,1.3-3.8,2.2-6.5c0.9,2.7,1.7,4.7,2.3,6.7
				c0.4,1.7,1.3,2.4,3.1,2.3c2-0.1,4.1,0,6.5,0.6c-1.7,1.2-3.3,2.5-5.1,3.6c-1.5,0.9-1.8,2-1.2,3.6c0.7,1.9,1.3,3.8,1.3,6.2
				c-1.5-1.1-3.2-2.1-4.6-3.3c-1.6-1.4-3-1.4-4.6,0c-1.4,1.2-3,2.1-5,2.9c0.5-1.8,1-3.6,1.7-5.4c0.8-2,0.4-3.3-1.4-4.3
				c-1.6-0.9-3-2.1-4.5-3.2C141,112.4,141,112.1,141,111.9z"/>
			<path class="st2" d="M191.1,112.6c-5.2,2.5-5.9,5.9-3.8,10.6c-1.8-1.1-3.5-3-5.3-3.1c-1.7,0-3.5,1.9-6.1,3.5
				c2.7-5,2.5-8.6-3.1-10.7c5.5,0.8,8.5-1.1,9-6.8C183.1,110.9,184.9,114.5,191.1,112.6z"/>
			<path class="st2" d="M121.3,105.9c0.8,5.5,3.5,7.9,8.7,7.1c-1.6,1.3-3.9,2.3-4.4,3.9c-0.5,1.6,0.7,3.9,1.4,6.7
				c-3.8-4-7.5-4.6-11.2,0.4c1.4-7.2,1.4-7.2-3.8-11.6C117.7,113.7,120.7,111.6,121.3,105.9z"/>
		</g>
		<text transform="matrix(1 0 0 1 113.4043 53)"><tspan x="0" y="0" class="st3 st4 st5 st6">TEAM</tspan><tspan x="-59.4" y="36" class="st3 st7 st8 st9">STACEY</tspan></text>
	</g>
</g>
</svg>
