<?xml version="1.0" encoding="utf-8"?>
<!-- Generator: Adobe Illustrator 19.2.1, SVG Export Plug-In . SVG Version: 6.00 Build 0)  -->
<svg version="1.1" id="Layer_1" xmlns="http://www.w3.org/2000/svg" xmlns:xlink="http://www.w3.org/1999/xlink" x="0px" y="0px"
	 viewBox="0 0 320 168.8" style="enable-background:new 0 0 320 168.8;" xml:space="preserve">
<style type="text/css">
	.st0{opacity:0.4;}
	.st1{fill-rule:evenodd;clip-rule:evenodd;fill:#99979E;}
	.st2{fill-rule:evenodd;clip-rule:evenodd;fill:none;}
	.st3{fill:#99979E;}
	.st4{font-family:'Apple-Chancery';}
	.st5{font-size:38.0217px;}
	.st6{fill-rule:evenodd;clip-rule:evenodd;fill:#DDBE63;}
	.st7{fill:#DDBE63;}
	.st8{font-size:15.2087px;}
</style>
<g>
	<g class="st0">
		<g>
			<path class="st1" d="M271.5,71.6c-0.4,0.4-2.6,0-2.6,0s-1-5.2-3.5-4.5c-1.2,0.3,1,1.9,0.5,2.9c-0.9,1.1-2.2,2.5-3.5,2.7
				c-2,0.3-3.1-1.3-3.2-3.3c-0.1-2.5,1.9-4.6,4.9-5C267.3,64,271.1,68.1,271.5,71.6z"/>
			<path class="st1" d="M47.7,71.3c0.4,0.4,2.6,0,2.6,0s1-5.2,3.5-4.5c1.2,0.3-1,1.9-0.5,2.9c0.9,1.1,2.2,2.5,3.5,2.7
				c2,0.3,3.1-1.3,3.2-3.3c0.1-2.5-1.9-4.6-4.9-5C51.9,63.7,48.1,67.8,47.7,71.3z"/>
			<g>
				<path class="st1" d="M163.5,79c-0.1,1.3-0.2,2.6-0.5,4.8c-2.5-3.2-4.4-3.5-6.7-0.1c-0.3-1.8-1-3.1-0.6-3.8
					c0.5-0.9,1.9-1.9,2.8-1.9c1.7,0,3.3,0.7,5,1.2C163.6,79.1,163.5,79,163.5,79z"/>
				<g>
					<g>
						<path class="st1" d="M204.9,60.5c-0.2,4-1.5,6.8-5.3,8.2c-2-11.8-13.7-14.5-22.7-11.1c-4.6,1.7-8.6,4.7-12.8,7.1
							c2.2-2.2,4.4-4.9,7.1-7.2c11.1-9.2,23.7-11.9,37.8-7.7c3.9,1.2,7.6,3.6,11.6,4.2c4.4,0.7,9.1,0.1,13.6,0.1
							c-0.3,4.7-7.1,7.6-16.4,5.9c0.6,2.1,1.2,4.1,1.8,6.1C215.9,67.6,210.2,65.6,204.9,60.5z"/>
						<path class="st1" d="M270.5,68.7c3,4.4-0.4,10.9-6.5,12.1c-4.1,0.8-7.5-0.5-10.3-3.3c-7.5-7.4-4.6-19.5,5.6-23.2
							c13.5-4.9,28.1,6.6,26.2,20.7c-1.2,9.2-7.4,15.9-16.7,18.1c-8.2,1.9-16.5-1.3-21.9-8.8c-2.2-3.1-4-6.4-5.4-10
							c2.3,3,4.7,6,7.1,9c4.3,5.3,9.8,7.8,16.8,7.3c7.8-0.6,14.5-5.8,16.6-13c2-7-1-14.9-7.3-19c-7.5-5-18.1-2.5-21.3,4.9
							c-2.2,5,0.5,11.7,5.6,14c4.2,1.9,9.1-0.5,9.9-5c0.1-0.7,0.3-1.5,0.6-2.6C269.7,69.5,270.1,69.1,270.5,68.7z"/>
						<path class="st1" d="M181.5,71.9c-2.5-0.5-4.5,0.8-4.9,3.7c-0.5,4.6,4.1,8.2,8.7,6.6c4.4-1.6,6.1-5,6.5-9.2
							c0.3-3.9-2.6-8.5-6.6-10.3c-5.5-2.5-10.7-1.4-15.7,1.3c-1.5,0.8-2.9,1.9-4.7,3.1c6.8-9.3,20.2-10.6,27.3-3
							c3.7,3.9,4.8,8.5,2.9,13.5c-1.9,4.8-5.3,7.9-10.8,8.6c-7.2,0.8-13.5-5.6-11.9-12.1c1.1-4.5,6-7.3,10.4-5.9
							c3,0.9,4.7,3.7,4.1,6.6c-0.5,2.1-1.8,3.6-4,3.5c-1.1,0-3-1.3-3-2C179.8,74.9,180.8,73.5,181.5,71.9z"/>
						<path class="st1" d="M169.9,8.8c5.6,1.5,7.1,3.7,7.1,9.8c7.6-0.4,12,2.5,12.4,8.6c-0.6-0.2-1.2-0.2-1.7-0.4
							c-7.6-2.7-14.4-1-20.8,3.4c-1.1,0.8-2.7,0.9-4.1,1.4c-0.3-0.3-0.6-0.7-0.9-1c1.7-3.4,3.3-6.9,5-10.3
							C168.5,16.6,171.2,13.4,169.9,8.8z"/>
						<path class="st1" d="M159.6,1c0.2,0.2,0.4,0.3,0.5,0.4c8.5,8.4,5.9,17.3,1.3,26.2c-0.6,1.1-1.3,2.1-1.9,3.1
							c-0.6-1-1.2-1.9-1.6-3c-1.3-3.1-2.5-6.2-3.9-9.3c-1.6-3.6-1.5-7.1,0.7-10.5C156.3,5.6,158,3.3,159.6,1z"/>
						<path class="st1" d="M160.5,85.8c7.4,9.9,18.4,12.5,29.6,5.8c6.3-3.8,11.7-8.9,17.5-13.5c5.1-4.1,10.2-8.4,17.2-9.1
							c2.2-0.2,4.4,0.1,6.6,0.4c0.6,0.1,1,1.1,1.4,1.7c-0.7,0.3-1.4,1.1-2,1c-8.4-1.7-14.3,2.7-20.2,7.4c-5.4,4.3-10.6,9-16.3,12.9
							c-6.5,4.5-13.9,7-22.1,4.8C166.1,95.6,161.8,92.1,160.5,85.8z"/>
						<path class="st1" d="M201.4,31.9c-1,5.1-5.8,8.4-11.5,7.3c-2.5-0.5-5.1-1.6-7.2-3c-6.2-4.3-7.8-4.9-15.1-4.2
							c3.5-4.4,10.1-6.2,16.9-4.3c2.1,0.6,4.1,1.5,6.1,2.5C195.6,32.6,196.2,32.8,201.4,31.9z"/>
						<path class="st1" d="M239.6,75c5.9,9.1,1.7,19.2-8.1,20.8c-4.2,0.7-7.7-0.8-10.3-4c-2.6-3.2-3.4-6.7-1.8-10.6
							c1.6-4,6.7-5.8,10.5-3.7c2.6,1.4,3.5,4.7,2.1,7.1c-0.3,0.5-0.8,1.2-1.2,1.3c-1.5,0.1-3.2,0.4-4.4-0.2
							c-0.8-0.4-1.3-2.6-0.8-3.4c0.6-0.9,2.3-1,4-1.6c-1-0.4-2.4-1.4-3.1-1.1c-1.5,0.6-3.2,1.7-3.8,3.1c-1.3,2.6-0.1,6.1,2.3,8
							c2.8,2.2,6,2.5,9.2,1.1c4.5-1.9,7.2-6.9,6.6-11.8C240.4,78.6,240,77.1,239.6,75z"/>
						<path class="st1" d="M168.6,46.5c2.1-1.6-2.3-2.2-1.2-4.3c1.1-2.1,3.3-1.3,3.8-0.9c1.2,1.1,2.2,2.9,2.2,4.5
							c0,2.4-2.7,3.9-5.5,3.8c-5.8-0.2-10.3-10.6,1.2-15.9c5.1-1.2,10.2,1.3,12.1,6c2.1,5.1,0.2,10.4-5,13.2
							c0.9-1.6,1.7-2.8,2.3-4.2c1.4-3.4,1.1-6.6-1.5-9.4c-2-2.1-4.6-2.4-7.3-1.6c-2.6,0.7-4,2.6-4.3,5.1
							C164.9,45.2,166.7,46.7,168.6,46.5z"/>
						<path class="st1" d="M283.5,84.1c6-5,14.7-2.3,18.1,6.3c-1.9,0.3-3.7,0.6-5.6,1c-3.7,0.9-5.9-1.1-8-3.5
							C286.7,86.5,285.1,85.4,283.5,84.1z"/>
						<path class="st1" d="M231.7,74.1c2.5-1.2,3.7-2.8,2-5.4c0.2-0.2,0.5-0.5,0.7-0.7c1.1,0.6,3.2,1.2,3.2,1.8
							c0.1,1.7-0.2,3.8-1.3,5.1C235.2,76.6,233.3,76.2,231.7,74.1z"/>
						<path class="st1" d="M114.3,60.2c0.2,4,1.5,6.8,5.3,8.2c2-11.8,13.7-14.5,22.7-11.1c4.6,1.7,8.6,4.7,12.8,7.1
							c-2.2-2.2-4.4-4.9-7.1-7.2c-11.1-9.2-23.7-11.9-37.8-7.7c-3.9,1.2-7.6,3.6-11.6,4.2c-4.4,0.7-9.1,0.1-13.6,0.1
							c0.3,4.7,7.1,7.6,16.4,5.9c-0.6,2.1-1.2,4.1-1.8,6.1C103.3,67.3,109,65.3,114.3,60.2z"/>
						<path class="st1" d="M48.7,68.4c-3,4.4,0.4,10.9,6.5,12.1c4.1,0.8,7.5-0.5,10.3-3.3c7.5-7.4,4.6-19.5-5.6-23.2
							c-13.5-4.9-28.1,6.6-26.2,20.7c1.2,9.2,7.4,15.9,16.7,18.1c8.2,1.9,16.5-1.3,21.9-8.8c2.2-3.1,4-6.4,5.4-10
							c-2.3,3-4.7,6-7.1,9c-4.3,5.3-9.8,7.8-16.8,7.3c-7.8-0.6-14.5-5.8-16.6-13c-2-7,1-14.9,7.3-19c7.5-5,18.1-2.5,21.3,4.9
							c2.2,5-0.5,11.7-5.6,14c-4.2,1.9-9.1-0.5-9.9-5c-0.1-0.7-0.3-1.5-0.6-2.6C49.5,69.2,49.1,68.8,48.7,68.4z"/>
						<path class="st1" d="M137.7,71.6c2.5-0.5,4.5,0.8,4.9,3.7c0.5,4.6-4.1,8.2-8.7,6.6c-4.4-1.6-6.1-5-6.5-9.2
							c-0.3-3.9,2.6-8.5,6.6-10.3c5.5-2.5,10.7-1.4,15.7,1.3c1.5,0.8,2.9,1.9,4.7,3.1c-6.8-9.3-20.2-10.6-27.3-3
							c-3.7,3.9-4.8,8.5-2.9,13.5c1.9,4.8,5.3,7.9,10.8,8.6c7.2,0.8,13.5-5.6,11.9-12.1c-1.1-4.5-6-7.3-10.4-5.9
							c-3,0.9-4.7,3.7-4.1,6.6c0.5,2.1,1.8,3.6,4,3.5c1.1,0,3-1.3,3-2C139.4,74.6,138.4,73.2,137.7,71.6z"/>
						<path class="st1" d="M149.3,8.5c-5.6,1.5-7.1,3.7-7.1,9.8c-7.6-0.4-12,2.5-12.4,8.6c0.6-0.2,1.2-0.2,1.7-0.4
							c7.6-2.7,14.4-1,20.8,3.4c1.1,0.8,2.7,0.9,4.1,1.4c0.3-0.3,0.6-0.7,0.9-1c-1.7-3.4-3.3-6.9-5-10.3
							C150.7,16.3,148,13.1,149.3,8.5z"/>
						<path class="st1" d="M158.7,85.5c-7.4,9.9-18.4,12.5-29.6,5.8c-6.3-3.8-11.7-8.9-17.5-13.5c-5.1-4.1-10.2-8.4-17.2-9.1
							c-2.2-0.2-4.4,0.1-6.6,0.4c-0.6,0.1-1,1.1-1.4,1.7c0.7,0.3,1.4,1.1,2,1c8.4-1.7,14.3,2.7,20.2,7.4c5.4,4.3,10.6,9,16.3,12.9
							c6.5,4.5,13.9,7,22.1,4.8C153.1,95.3,157.4,91.8,158.7,85.5z"/>
						<path class="st1" d="M117.9,31.6c1,5.1,5.8,8.4,11.5,7.3c2.5-0.5,5.1-1.6,7.2-3c6.2-4.3,7.8-4.9,15.1-4.2
							c-3.5-4.4-10.1-6.2-16.9-4.3c-2.1,0.6-4.1,1.5-6.1,2.5C123.6,32.3,123,32.5,117.9,31.6z"/>
						<path class="st1" d="M79.6,74.7c-5.9,9.1-1.7,19.2,8.1,20.8c4.2,0.7,7.7-0.8,10.3-4c2.6-3.2,3.4-6.7,1.8-10.6
							c-1.6-4-6.7-5.8-10.5-3.7c-2.6,1.4-3.5,4.7-2.1,7.1c0.3,0.5,0.8,1.2,1.2,1.3c1.5,0.1,3.2,0.4,4.4-0.2c0.8-0.4,1.3-2.6,0.8-3.4
							c-0.6-0.9-2.3-1-4-1.6c1-0.4,2.4-1.4,3.1-1.1c1.5,0.6,3.2,1.7,3.8,3.1c1.3,2.6,0.1,6.1-2.3,8c-2.8,2.2-6,2.5-9.2,1.1
							c-4.5-1.9-7.2-6.9-6.6-11.8C78.8,78.3,79.2,76.8,79.6,74.7z"/>
						<path class="st1" d="M150.6,46.2c-2.1-1.6,2.3-2.2,1.2-4.3c-1.1-2.1-3.3-1.3-3.8-0.9c-1.2,1.1-2.2,2.9-2.2,4.5
							c0,2.4,2.7,3.9,5.5,3.8c5.8-0.2,10.3-10.6-1.2-15.9c-5.1-1.2-10.2,1.3-12.1,6c-2.1,5.1-0.2,10.4,5,13.2
							c-0.9-1.6-1.7-2.8-2.3-4.2c-1.4-3.4-1.1-6.6,1.5-9.4c2-2.1,4.6-2.4,7.3-1.6c2.6,0.7,4,2.6,4.3,5.1
							C154.3,44.9,152.5,46.4,150.6,46.2z"/>
						<path class="st1" d="M35.7,83.8c-6-5-14.7-2.3-18.1,6.3c1.9,0.3,3.7,0.6,5.6,1c3.7,0.9,5.9-1.1,8-3.5
							C32.5,86.2,34.1,85.1,35.7,83.8z"/>
						<path class="st1" d="M155.6,78.8c2-3,3.9-3.2,8.8-0.7c0.6-2.1-0.1-3.5-2-4.5c-2.4-1.2-5.9-0.6-7.2,1.2
							c-0.9,1.3-1.4,2.8,0.6,3.8L155.6,78.8z"/>
						<path class="st1" d="M87.5,73.8c-2.5-1.2-3.7-2.8-2-5.4c-0.2-0.2-0.5-0.5-0.7-0.7c-1.1,0.6-3.2,1.2-3.2,1.8
							c-0.1,1.7,0.2,3.8,1.3,5.1C84,76.3,85.9,75.9,87.5,73.8z"/>
						<path class="st1" d="M163.9,72.6c0-2.7-2.1-3.5-4.5-3.4c-2.3,0.1-4.2,1-4.1,3.4C158.2,72.6,160.8,72.6,163.9,72.6z"/>
						<path class="st1" d="M161.5,54.6c0.1-2,0.3-4.1,0.2-6.1c0-0.2-1.4-0.5-2.1-0.5c-0.7,0-2,0.4-2.1,0.8c-0.2,1.8-0.1,3.7-0.1,5.5
							c0.5,0,1,0.1,1.4,0.1c0.3-1.1,0.5-2.2,1-4.2c0.4,1.9,0.6,3,0.8,4.1C160.9,54.4,161.2,54.5,161.5,54.6z"/>
					</g>
				</g>
			</g>
		</g>
		<rect y="99.2" class="st2" width="317.5" height="13.3"/>
		<rect x="2.5" y="118.2" class="st2" width="317.5" height="37.4"/>
		<text transform="matrix(1 0 0 1 32.7139 151.1221)" class="st3 st4 st5">Dale and Kate!</text>
		<rect x="59" y="106" class="st1" width="34" height="2"/>
		<rect x="222" y="108" class="st1" width="35" height="2"/>
	</g>
	<g>
		<g>
			<path class="st6" d="M271.5,70.6c-0.4,0.4-2.6,0-2.6,0s-1-5.2-3.5-4.5c-1.2,0.3,1,1.9,0.5,2.9c-0.9,1.1-2.2,2.5-3.5,2.7
				c-2,0.3-3.1-1.3-3.2-3.3c-0.1-2.5,1.9-4.6,4.9-5C267.3,63,271.1,67.1,271.5,70.6z"/>
			<path class="st6" d="M47.7,70.3c0.4,0.4,2.6,0,2.6,0s1-5.2,3.5-4.5c1.2,0.3-1,1.9-0.5,2.9c0.9,1.1,2.2,2.5,3.5,2.7
				c2,0.3,3.1-1.3,3.2-3.3c0.1-2.5-1.9-4.6-4.9-5C51.9,62.7,48.1,66.8,47.7,70.3z"/>
			<g>
				<path class="st6" d="M163.5,78c-0.1,1.3-0.2,2.6-0.5,4.8c-2.5-3.2-4.4-3.5-6.7-0.1c-0.3-1.8-1-3.1-0.6-3.8
					c0.5-0.9,1.9-1.9,2.8-1.9c1.7,0,3.3,0.7,5,1.2C163.6,78.1,163.5,78,163.5,78z"/>
				<g>
					<g>
						<path class="st6" d="M204.9,59.5c-0.2,4-1.5,6.8-5.3,8.2c-2-11.8-13.7-14.5-22.7-11.1c-4.6,1.7-8.6,4.7-12.8,7.1
							c2.2-2.2,4.4-4.9,7.1-7.2c11.1-9.2,23.7-11.9,37.8-7.7c3.9,1.2,7.6,3.6,11.6,4.2c4.4,0.7,9.1,0.1,13.6,0.1
							c-0.3,4.7-7.1,7.6-16.4,5.9c0.6,2.1,1.2,4.1,1.8,6.1C215.9,66.6,210.2,64.6,204.9,59.5z"/>
						<path class="st6" d="M270.5,67.7c3,4.4-0.4,10.9-6.5,12.1c-4.1,0.8-7.5-0.5-10.3-3.3c-7.5-7.4-4.6-19.5,5.6-23.2
							c13.5-4.9,28.1,6.6,26.2,20.7c-1.2,9.2-7.4,15.9-16.7,18.1c-8.2,1.9-16.5-1.3-21.9-8.8c-2.2-3.1-4-6.4-5.4-10
							c2.3,3,4.7,6,7.1,9c4.3,5.3,9.8,7.8,16.8,7.3c7.8-0.6,14.5-5.8,16.6-13c2-7-1-14.9-7.3-19c-7.5-5-18.1-2.5-21.3,4.9
							c-2.2,5,0.5,11.7,5.6,14c4.2,1.9,9.1-0.5,9.9-5c0.1-0.7,0.3-1.5,0.6-2.6C269.7,68.5,270.1,68.1,270.5,67.7z"/>
						<path class="st6" d="M181.5,70.9c-2.5-0.5-4.5,0.8-4.9,3.7c-0.5,4.6,4.1,8.2,8.7,6.6c4.4-1.6,6.1-5,6.5-9.2
							c0.3-3.9-2.6-8.5-6.6-10.3c-5.5-2.5-10.7-1.4-15.7,1.3c-1.5,0.8-2.9,1.9-4.7,3.1c6.8-9.3,20.2-10.6,27.3-3
							c3.7,3.9,4.8,8.5,2.9,13.5c-1.9,4.8-5.3,7.9-10.8,8.6c-7.2,0.8-13.5-5.6-11.9-12.1c1.1-4.5,6-7.3,10.4-5.9
							c3,0.9,4.7,3.7,4.1,6.6c-0.5,2.1-1.8,3.6-4,3.5c-1.1,0-3-1.3-3-2C179.8,73.9,180.8,72.5,181.5,70.9z"/>
						<path class="st6" d="M169.9,7.8c5.6,1.5,7.1,3.7,7.1,9.8c7.6-0.4,12,2.5,12.4,8.6c-0.6-0.2-1.2-0.2-1.7-0.4
							c-7.6-2.7-14.4-1-20.8,3.4c-1.1,0.8-2.7,0.9-4.1,1.4c-0.3-0.3-0.6-0.7-0.9-1c1.7-3.4,3.3-6.9,5-10.3
							C168.5,15.6,171.2,12.4,169.9,7.8z"/>
						<path class="st6" d="M159.6,0c0.2,0.2,0.4,0.3,0.5,0.4c8.5,8.4,5.9,17.3,1.3,26.2c-0.6,1.1-1.3,2.1-1.9,3.1
							c-0.6-1-1.2-1.9-1.6-3c-1.3-3.1-2.5-6.2-3.9-9.3c-1.6-3.6-1.5-7.1,0.7-10.5C156.3,4.6,158,2.3,159.6,0z"/>
						<path class="st6" d="M160.5,84.8c7.4,9.9,18.4,12.5,29.6,5.8c6.3-3.8,11.7-8.9,17.5-13.5c5.1-4.1,10.2-8.4,17.2-9.1
							c2.2-0.2,4.4,0.1,6.6,0.4c0.6,0.1,1,1.1,1.4,1.7c-0.7,0.3-1.4,1.1-2,1c-8.4-1.7-14.3,2.7-20.2,7.4c-5.4,4.3-10.6,9-16.3,12.9
							c-6.5,4.5-13.9,7-22.1,4.8C166.1,94.6,161.8,91.1,160.5,84.8z"/>
						<path class="st6" d="M201.4,30.9c-1,5.1-5.8,8.4-11.5,7.3c-2.5-0.5-5.1-1.6-7.2-3c-6.2-4.3-7.8-4.9-15.1-4.2
							c3.5-4.4,10.1-6.2,16.9-4.3c2.1,0.6,4.1,1.5,6.1,2.5C195.6,31.6,196.2,31.8,201.4,30.9z"/>
						<path class="st6" d="M239.6,74c5.9,9.1,1.7,19.2-8.1,20.8c-4.2,0.7-7.7-0.8-10.3-4c-2.6-3.2-3.4-6.7-1.8-10.6
							c1.6-4,6.7-5.8,10.5-3.7c2.6,1.4,3.5,4.7,2.1,7.1c-0.3,0.5-0.8,1.2-1.2,1.3c-1.5,0.1-3.2,0.4-4.4-0.2
							c-0.8-0.4-1.3-2.6-0.8-3.4c0.6-0.9,2.3-1,4-1.6c-1-0.4-2.4-1.4-3.1-1.1c-1.5,0.6-3.2,1.7-3.8,3.1c-1.3,2.6-0.1,6.1,2.3,8
							c2.8,2.2,6,2.5,9.2,1.1c4.5-1.9,7.2-6.9,6.6-11.8C240.4,77.6,240,76.1,239.6,74z"/>
						<path class="st6" d="M168.6,45.5c2.1-1.6-2.3-2.2-1.2-4.3c1.1-2.1,3.3-1.3,3.8-0.9c1.2,1.1,2.2,2.9,2.2,4.5
							c0,2.4-2.7,3.9-5.5,3.8c-5.8-0.2-10.3-10.6,1.2-15.9c5.1-1.2,10.2,1.3,12.1,6c2.1,5.1,0.2,10.4-5,13.2
							c0.9-1.6,1.7-2.8,2.3-4.2c1.4-3.4,1.1-6.6-1.5-9.4c-2-2.1-4.6-2.4-7.3-1.6c-2.6,0.7-4,2.6-4.3,5.1
							C164.9,44.2,166.7,45.7,168.6,45.5z"/>
						<path class="st6" d="M283.5,83.1c6-5,14.7-2.3,18.1,6.3c-1.9,0.3-3.7,0.6-5.6,1c-3.7,0.9-5.9-1.1-8-3.5
							C286.7,85.5,285.1,84.4,283.5,83.1z"/>
						<path class="st6" d="M231.7,73.1c2.5-1.2,3.7-2.8,2-5.4c0.2-0.2,0.5-0.5,0.7-0.7c1.1,0.6,3.2,1.2,3.2,1.8
							c0.1,1.7-0.2,3.8-1.3,5.1C235.2,75.6,233.3,75.2,231.7,73.1z"/>
						<path class="st6" d="M114.3,59.2c0.2,4,1.5,6.8,5.3,8.2c2-11.8,13.7-14.5,22.7-11.1c4.6,1.7,8.6,4.7,12.8,7.1
							c-2.2-2.2-4.4-4.9-7.1-7.2c-11.1-9.2-23.7-11.9-37.8-7.7c-3.9,1.2-7.6,3.6-11.6,4.2c-4.4,0.7-9.1,0.1-13.6,0.1
							c0.3,4.7,7.1,7.6,16.4,5.9c-0.6,2.1-1.2,4.1-1.8,6.1C103.3,66.3,109,64.3,114.3,59.2z"/>
						<path class="st6" d="M48.7,67.4c-3,4.4,0.4,10.9,6.5,12.1c4.1,0.8,7.5-0.5,10.3-3.3c7.5-7.4,4.6-19.5-5.6-23.2
							c-13.5-4.9-28.1,6.6-26.2,20.7c1.2,9.2,7.4,15.9,16.7,18.1c8.2,1.9,16.5-1.3,21.9-8.8c2.2-3.1,4-6.4,5.4-10
							c-2.3,3-4.7,6-7.1,9c-4.3,5.3-9.8,7.8-16.8,7.3c-7.8-0.6-14.5-5.8-16.6-13c-2-7,1-14.9,7.3-19c7.5-5,18.1-2.5,21.3,4.9
							c2.2,5-0.5,11.7-5.6,14c-4.2,1.9-9.1-0.5-9.9-5c-0.1-0.7-0.3-1.5-0.6-2.6C49.5,68.2,49.1,67.8,48.7,67.4z"/>
						<path class="st6" d="M137.7,70.6c2.5-0.5,4.5,0.8,4.9,3.7c0.5,4.6-4.1,8.2-8.7,6.6c-4.4-1.6-6.1-5-6.5-9.2
							c-0.3-3.9,2.6-8.5,6.6-10.3c5.5-2.5,10.7-1.4,15.7,1.3c1.5,0.8,2.9,1.9,4.7,3.1c-6.8-9.3-20.2-10.6-27.3-3
							c-3.7,3.9-4.8,8.5-2.9,13.5c1.9,4.8,5.3,7.9,10.8,8.6c7.2,0.8,13.5-5.6,11.9-12.1c-1.1-4.5-6-7.3-10.4-5.9
							c-3,0.9-4.7,3.7-4.1,6.6c0.5,2.1,1.8,3.6,4,3.5c1.1,0,3-1.3,3-2C139.4,73.6,138.4,72.2,137.7,70.6z"/>
						<path class="st6" d="M149.3,7.5c-5.6,1.5-7.1,3.7-7.1,9.8c-7.6-0.4-12,2.5-12.4,8.6c0.6-0.2,1.2-0.2,1.7-0.4
							c7.6-2.7,14.4-1,20.8,3.4c1.1,0.8,2.7,0.9,4.1,1.4c0.3-0.3,0.6-0.7,0.9-1c-1.7-3.4-3.3-6.9-5-10.3
							C150.7,15.3,148,12.1,149.3,7.5z"/>
						<path class="st6" d="M158.7,84.5c-7.4,9.9-18.4,12.5-29.6,5.8c-6.3-3.8-11.7-8.9-17.5-13.5c-5.1-4.1-10.2-8.4-17.2-9.1
							c-2.2-0.2-4.4,0.1-6.6,0.4c-0.6,0.1-1,1.1-1.4,1.7c0.7,0.3,1.4,1.1,2,1c8.4-1.7,14.3,2.7,20.2,7.4c5.4,4.3,10.6,9,16.3,12.9
							c6.5,4.5,13.9,7,22.1,4.8C153.1,94.3,157.4,90.8,158.7,84.5z"/>
						<path class="st6" d="M117.9,30.6c1,5.1,5.8,8.4,11.5,7.3c2.5-0.5,5.1-1.6,7.2-3c6.2-4.3,7.8-4.9,15.1-4.2
							c-3.5-4.4-10.1-6.2-16.9-4.3c-2.1,0.6-4.1,1.5-6.1,2.5C123.6,31.3,123,31.5,117.9,30.6z"/>
						<path class="st6" d="M79.6,73.7c-5.9,9.1-1.7,19.2,8.1,20.8c4.2,0.7,7.7-0.8,10.3-4c2.6-3.2,3.4-6.7,1.8-10.6
							c-1.6-4-6.7-5.8-10.5-3.7c-2.6,1.4-3.5,4.7-2.1,7.1c0.3,0.5,0.8,1.2,1.2,1.3c1.5,0.1,3.2,0.4,4.4-0.2c0.8-0.4,1.3-2.6,0.8-3.4
							c-0.6-0.9-2.3-1-4-1.6c1-0.4,2.4-1.4,3.1-1.1c1.5,0.6,3.2,1.7,3.8,3.1c1.3,2.6,0.1,6.1-2.3,8c-2.8,2.2-6,2.5-9.2,1.1
							c-4.5-1.9-7.2-6.9-6.6-11.8C78.8,77.3,79.2,75.8,79.6,73.7z"/>
						<path class="st6" d="M150.6,45.2c-2.1-1.6,2.3-2.2,1.2-4.3c-1.1-2.1-3.3-1.3-3.8-0.9c-1.2,1.1-2.2,2.9-2.2,4.5
							c0,2.4,2.7,3.9,5.5,3.8c5.8-0.2,10.3-10.6-1.2-15.9c-5.1-1.2-10.2,1.3-12.1,6c-2.1,5.1-0.2,10.4,5,13.2
							c-0.9-1.6-1.7-2.8-2.3-4.2c-1.4-3.4-1.1-6.6,1.5-9.4c2-2.1,4.6-2.4,7.3-1.6c2.6,0.7,4,2.6,4.3,5.1
							C154.3,43.9,152.5,45.4,150.6,45.2z"/>
						<path class="st6" d="M35.7,82.8c-6-5-14.7-2.3-18.1,6.3c1.9,0.3,3.7,0.6,5.6,1c3.7,0.9,5.9-1.1,8-3.5
							C32.5,85.2,34.1,84.1,35.7,82.8z"/>
						<path class="st6" d="M155.6,77.8c2-3,3.9-3.2,8.8-0.7c0.6-2.1-0.1-3.5-2-4.5c-2.4-1.2-5.9-0.6-7.2,1.2
							c-0.9,1.3-1.4,2.8,0.6,3.8L155.6,77.8z"/>
						<path class="st6" d="M87.5,72.8c-2.5-1.2-3.7-2.8-2-5.4c-0.2-0.2-0.5-0.5-0.7-0.7c-1.1,0.6-3.2,1.2-3.2,1.8
							c-0.1,1.7,0.2,3.8,1.3,5.1C84,75.3,85.9,74.9,87.5,72.8z"/>
						<path class="st6" d="M163.9,71.6c0-2.7-2.1-3.5-4.5-3.4c-2.3,0.1-4.2,1-4.1,3.4C158.2,71.6,160.8,71.6,163.9,71.6z"/>
						<path class="st6" d="M161.5,53.6c0.1-2,0.3-4.1,0.2-6.1c0-0.2-1.4-0.5-2.1-0.5c-0.7,0-2,0.4-2.1,0.8c-0.2,1.8-0.1,3.7-0.1,5.5
							c0.5,0,1,0.1,1.4,0.1c0.3-1.1,0.5-2.2,1-4.2c0.4,1.9,0.6,3,0.8,4.1C160.9,53.4,161.2,53.5,161.5,53.6z"/>
					</g>
				</g>
			</g>
		</g>
		<rect x="2.5" y="117.2" class="st2" width="317.5" height="37.4"/>
		<text transform="matrix(1 0 0 1 32.7139 150.1221)" class="st7 st4 st5">Dale and Kate!</text>
		<rect x="59" y="105" class="st6" width="34" height="2"/>
		<rect x="222" y="107" class="st6" width="35" height="2"/>
		<rect y="99.2" class="st2" width="317.5" height="13.3"/>
		<text transform="matrix(1 0 0 1 105.0947 112.3779)" class="st3 st4 st8">Congratulations</text>
		<rect x="0" y="99" class="st2" width="317.5" height="13.3"/>
		<text transform="matrix(1 0 0 1 105.126 112.1279)" class="st7 st4 st8">Congratulations</text>
	</g>
</g>
</svg>
