<?xml version="1.0" encoding="utf-8"?>
<!-- Generator: Adobe Illustrator 19.2.1, SVG Export Plug-In . SVG Version: 6.00 Build 0)  -->
<svg version="1.1" id="Layer_1" xmlns="http://www.w3.org/2000/svg" xmlns:xlink="http://www.w3.org/1999/xlink" x="0px" y="0px"
	 viewBox="0 0 364 182" style="enable-background:new 0 0 364 182;" xml:space="preserve">
<style type="text/css">
	.st0{fill:#FFFFFF;stroke:#EB7662;stroke-width:3;stroke-miterlimit:10;}
	.st1{fill:#EB7662;}
	.st2{fill-rule:evenodd;clip-rule:evenodd;fill:none;}
	.st3{fill-rule:evenodd;clip-rule:evenodd;fill:#FFFFFF;}
</style>
<g>
	<polygon class="st0" points="179.3,180.3 3.3,98.4 180.7,1.7 360.6,98.4 	"/>
	<polygon class="st1" points="180.4,172.2 20.4,97.7 181.6,9.8 345.2,97.7 	"/>
	<g>
		<rect x="56.2" y="73.7" class="st2" width="249.1" height="31.1"/>
		<g>
			<path class="st3" d="M129.4,105.2c0.8-3.8,4.6-4.1,11-1.2c2.1-6.2,6-8,13.7-6.4c-3.5,1.9-5.3,4.4-5.8,7.4
				c-0.8,4.6,1.7,8.4,6.7,10.5c5.5,2.3,12,1.8,16.7-1.2c6.5-4.3,6.1-11.9-0.8-15.5c-6.1-3.2-14.1-0.8-15,4.4c-0.5,3,2,5.7,5.3,5.8
				c2.7,0.1,4.3-1.2,3.8-3.4c-0.3,0.1-0.6,0.2-0.8,0.3c-1.6,1.1-3.3,1.1-4.3,0.1c-1.1-1.1-0.6-2.8,1-3.7c3-1.5,7.3,0.2,7.7,3.1
				c0.4,2.2-1.2,4.2-3.9,5c-3.3,1-7.3,0.2-9.3-2c-3.1-3.3-1.8-8.3,2.7-10.6c4.6-2.3,11.4-1.9,15.5,0.9c4.6,3.1,5.8,8.7,2.9,12.9
				c-4.3,6.3-13.9,9-23.8,7c-5.8-1.2-10-3.9-12.8-7.8c-1.1-1.5-2.2-3.1-3.5-4.6C134.7,104.4,132.6,104,129.4,105.2z"/>
			<path class="st3" d="M98.5,103.7c2.4-0.3,4.9-0.5,7.4-1c3.8-0.8,7.4-1.8,11.4-0.4c-6.7-5-21-6.3-28.6-2.7
				c-4.6,2.2-6.8,6.1-5.5,9.7c1.3,3.6,6.6,5.6,11.1,4c2.2-0.8,3.1-2.3,2.8-4c-0.2-1.8-1.4-3.1-3.9-3.5c-2-0.3-4.3,0.6-4.6,1.9
				c-0.4,1.5,0.8,2.3,2.6,2.7c0,0.2-0.1,0.3-0.1,0.5c-1-0.1-2.3,0-2.8-0.4c-0.9-0.6-1.6-1.6-1.7-2.5c-0.1-1.9,1.8-3.3,4.5-3.7
				c4-0.6,7.5,1.2,8.4,4.2c0.8,2.9-1.6,5.9-5.5,6.7c-4.1,0.8-7.6,0-10.4-2.3c-3.2-2.7-3.7-5.9-2-9.2c2.2-4.4,6.5-7.2,12.5-8
				c8.6-1.2,16.2,0.6,23.6,4.4c5.6,2.9,9.9,6.6,14.6,10.1c4.5,3.3,9.2,6.5,15,8.5c-4.9-1-9.1-2.9-12.9-5.4
				c-3.5-2.3-6.9-4.8-10.3-7.1c-3.1-2.1-6.2-2.4-10.1-1.1c-2.1,0.7-4.2,1.5-6.5,1.9C103.3,107.6,100.3,106.4,98.5,103.7z"/>
			<path class="st3" d="M152.8,120.4c-4.2,0.5-8.2,0-12.1-0.9c-5.5-1.3-10.9-2.7-16.4-3.7c-2.5-0.5-5.2-0.6-7.9-0.5
				c-3,0.1-5.8,0.9-7.1,3.2c-1.2,2.1,0.3,3.6,2.2,5.1c-4.1-0.3-7.4-2.8-7.6-5.6c-0.2-3.4,2.7-5.2,9.8-6.1c-0.4-1.3-0.9-2.7-1.3-3.9
				c8.8,0,15.7,2.8,22.2,6.8c5,3.1,10.9,4.9,17.5,5.4C152.4,120.2,152.6,120.3,152.8,120.4z"/>
			<path class="st3" d="M180.8,106.6c-0.7-1.9-1.3-3.3-1.5-4.7c-0.1-0.7,0.5-1.4,1-2.1c0.1-0.1,1.1-0.1,1.2,0.1
				c0.4,0.7,1,1.5,0.9,2.1C182.1,103.4,181.5,104.7,180.8,106.6z"/>
			<path class="st3" d="M180.7,109.5c1.1,1.1,2.4,1.8,2.2,2.3c-0.2,0.7-1.4,1.2-2.1,1.8c-0.7-0.6-1.9-1.1-2-1.7
				C178.6,111.3,179.7,110.6,180.7,109.5z"/>
			<path class="st3" d="M179,118.2c-2.6,1.7-3,3.9-2.9,6.3c0.1,2.6-0.6,5.1-2.9,7.1c-2.6,2.3-7,2.6-9.8,0.7c-3.1-2.1-3.5-5.6-0.8-8
				c0.1,0.6,0.1,1.3,0.5,1.6c1.1,0.9,2.3,2,3.6,2.2c1.1,0.1,2.8-0.9,3.6-1.7c0.9-1,1.1-2.4,1.6-3.6
				C173.2,119.8,175.6,118.2,179,118.2z"/>
			<path class="st3" d="M170.7,134.5c2.6,0.8,4.3-0.1,5.5-1.5c1.7-2.1,3.1-4.4,4.6-6.5c2.3,3,2.7,7.8,9.5,8.5c0,2.4-2.1,3.2-5.6,1.9
				c-1.3,1.6-2.6,3.2-4.1,5c-1.5-1.8-2.7-3.4-4-5C173,138.1,171.2,137.5,170.7,134.5z"/>
			<path class="st3" d="M181.5,117.9c3.9,0.3,5.8,1.8,7.1,3.9c0.5,0.9,0.8,1.8,1.2,2.7c0.6,1.7,1.4,3.4,4,3.7
				c2.5,0.3,3.6-1.2,5.1-3.2c0.6,1.3,1.3,2.1,1.3,3c0.1,2.2-2.4,4.7-5.1,5.3c-2.6,0.6-5.9-0.3-7.7-2.2c-2-2-2.6-4.4-2.5-6.8
				C185,122,184.6,119.9,181.5,117.9z"/>
			<path class="st3" d="M183.1,123.1c-1.9,0-3.3,0-5.2,0c-0.7-0.7-0.7-2,0.7-2.7c0.8-0.5,2.6-0.6,3.5-0.2
				C183.8,120.8,183.8,122.1,183.1,123.1z"/>
			<path class="st3" d="M232.7,106.1c-0.8-3.8-4.6-4.1-11-1.2c-2.1-6.2-6-8-13.7-6.4c3.5,1.9,5.3,4.4,5.8,7.4
				c0.8,4.6-1.7,8.4-6.7,10.5c-5.5,2.3-12,1.8-16.7-1.2c-6.5-4.3-6.1-11.9,0.8-15.5c6.1-3.2,14.1-0.8,15,4.4c0.5,3-2,5.7-5.3,5.8
				c-2.7,0.1-4.3-1.2-3.8-3.4c0.3,0.1,0.6,0.2,0.8,0.3c1.6,1.1,3.3,1.1,4.3,0.1c1.1-1.1,0.6-2.8-1-3.7c-3-1.5-7.3,0.2-7.7,3.1
				c-0.4,2.2,1.2,4.2,3.9,5c3.3,1,7.3,0.2,9.3-2c3.1-3.3,1.8-8.3-2.7-10.6c-4.6-2.3-11.4-1.9-15.5,0.9c-4.6,3.1-5.8,8.7-3,12.9
				c4.3,6.3,13.9,9,23.8,7c5.8-1.2,9.9-3.9,12.8-7.8c1.1-1.5,2.2-3.1,3.5-4.6C227.5,105.2,229.6,104.9,232.7,106.1z"/>
			<path class="st3" d="M263.6,104.6c-2.4-0.3-4.9-0.5-7.4-1c-3.8-0.8-7.4-1.8-11.4-0.4c6.7-5,21-6.3,28.6-2.7
				c4.6,2.2,6.8,6.1,5.5,9.7c-1.3,3.6-6.6,5.6-11.1,4c-2.2-0.8-3.1-2.3-2.8-4c0.2-1.8,1.4-3.1,3.9-3.5c2-0.3,4.3,0.6,4.6,1.9
				c0.4,1.5-0.8,2.3-2.6,2.7c0,0.2,0.1,0.3,0.1,0.5c1-0.1,2.3,0,2.8-0.4c0.9-0.6,1.6-1.6,1.7-2.5c0.2-1.9-1.8-3.3-4.5-3.7
				c-4-0.6-7.5,1.2-8.4,4.2c-0.8,2.9,1.6,5.9,5.5,6.7c4.1,0.8,7.6,0,10.4-2.3c3.2-2.7,3.7-5.9,2-9.2c-2.2-4.4-6.5-7.2-12.5-8
				c-8.6-1.2-16.2,0.6-23.6,4.4c-5.6,2.9-9.9,6.6-14.7,10.1c-4.5,3.3-9.2,6.5-15,8.5c4.8-1,9.1-2.9,12.9-5.4
				c3.5-2.3,6.9-4.8,10.3-7.1c3.1-2.1,6.2-2.4,10.1-1.1c2.1,0.7,4.2,1.5,6.5,1.9C258.9,108.5,261.8,107.3,263.6,104.6z"/>
			<path class="st3" d="M209.4,121.3c4.2,0.5,8.2,0,12.1-0.9c5.5-1.3,10.9-2.7,16.4-3.7c2.5-0.5,5.2-0.6,7.9-0.5
				c3,0.1,5.8,0.9,7.1,3.2c1.2,2.1-0.3,3.6-2.2,5.1c4.1-0.3,7.4-2.8,7.6-5.6c0.2-3.4-2.7-5.2-9.8-6.1c0.4-1.4,0.9-2.7,1.3-3.9
				c-8.8,0-15.7,2.8-22.2,6.8c-5,3.1-10.9,4.9-17.5,5.4C209.7,121.1,209.6,121.2,209.4,121.3z"/>
		</g>
		<rect x="55.4" y="54" class="st2" width="249.1" height="31.1"/>
	</g>
</g>
</svg>
