<?xml version="1.0" encoding="utf-8"?>
<!-- Generator: Adobe Illustrator 19.2.1, SVG Export Plug-In . SVG Version: 6.00 Build 0)  -->
<svg version="1.1" id="Layer_1" xmlns="http://www.w3.org/2000/svg" xmlns:xlink="http://www.w3.org/1999/xlink" x="0px" y="0px"
	 viewBox="0 0 328.8 164.8" style="enable-background:new 0 0 328.8 164.8;" xml:space="preserve">
<style type="text/css">
	.st0{fill:#FFFFFF;stroke:#000000;stroke-width:3;stroke-miterlimit:10;}
	.st1{fill-rule:evenodd;clip-rule:evenodd;}
</style>
<g>
	<polygon class="st0" points="326.8,127 44.5,127 44.5,37 326.8,37 313.2,84.6 	"/>
	<g>
		<path class="st1" d="M35.9,0c2.8,1.2,5.5,2.3,8.4,3.5c-0.5,0.3-1.1,0.7-1.7,1.2c0.2,1,0.3,2.1,0.5,3.2c0,0.2,0.1,0.5,0.1,0.7
			c-0.5,2.6-0.9,5.2,1.1,7.8c-1.2,0.2-1.7,0.2-2.4,0.3c-0.6,1.6-1.1,3.4-1.8,5.1c-0.2,0.4-0.9,0.7-1.3,0.9c-0.2,0.1-0.5-0.1-0.7-0.1
			c-1.3,0-2.8-1.6-3.8,0.2c-1.2,2-1.6,4.3-0.2,6.4c2.3,3.3,5,6.1,9.7,5.1c0.4-0.1,0.9,0.1,1.4,0.1c1.4-3.6,0.7-6.7-2.1-9
			c-0.6-0.5-1.1-1-1.7-1.4c-0.7-0.6-0.8-1.1-0.3-2c0.7-1.4,1.2-2.9,1.8-4.3c0.1-0.3,0.6-0.6,1-0.6c1.8-0.3,3.1-1.3,4-3
			c-0.2-0.3-0.5-0.6-0.7-0.9c1.1-0.7,2.1-1.4,3.1-2.1c1.4-1,2.7-1,4,0.1c1.2,1.1,2.4,1.6,4.2,0.8c2.5-1.1,7.5,1.5,9.1,4.8
			c1.1,2.3,2,4.7,2.7,7.1c1.3,4.3,2.2,8.7,3.8,12.9c1,2.6,2.5,5.2,4.4,7.3c3.6,3.9,9.1,2.1,10.4-3c0.4-1.6,0.2-3.2-1.3-4.1
			c-0.9-0.6-2.4-1.1-3.3-0.8c-0.8,0.3-1.3,1.7-1.9,2.6c-0.2,0.3,0,0.7,0,1.5c-0.7-2.7,0.3-4.6,2.2-4.9c2.2-0.4,4.8,1.5,5.1,3.8
			c0.3,3.1-1.1,5.5-3.6,7.1c-2.3,1.5-4.7,1.2-7-0.3c-3.4-2.2-5.1-5.7-6.1-9.4c-1.5-5-2.7-10.1-4-15.2c-0.3-1.2-0.8-2.4-1.4-3.5
			c0.5,3-1.1,5.4-2.2,7.9c-1.1,0.9-2.2,1.9-3.3,2.9c1.8,5.2,3.8,10.1,8.6,13.7c-0.3-2.2-0.3-4.2-0.8-6c-0.9-3-2-5.9-3.1-8.8
			c2.4,2.5,3.7,5.7,3.9,9c0.4,4.8,2,8.3,6.7,10.4c2.2,1,4,3,5.5,4.9c3,3.8,2.9,8.1,0.8,12.3c4.6,4.2,10.6,2.9,12.1-2.5
			c0.7-2.5,0.2-4.9-1.6-6.8c-1.6-1.7-3.5-1.2-5.7,0c2.2-2.2,4.4-2.2,6.3-0.3c2.4,2.4,2.7,6.5,0.8,9.6c-1.8,2.9-5.5,4.2-8.8,3
			c-1.2-0.4-2.4-1.2-4-2c-0.2,0.3-0.6,1-1.1,1.5c-2,2-4.8,2.4-7.2,1.2c-1.6-0.8-2.4-2-2.5-3.7c-0.1-1.9,0.5-3.6,2.2-4.5
			c0.9-0.5,2.1-0.4,3.1-0.3c-0.9,0.2-2.1,0.2-2.8,0.7c-0.8,0.5-1.4,1.5-1.7,2.4c-0.7,2.2,0.2,3.9,2.2,4.8c2.7,1.2,5.2,0.3,7.1-2.5
			c-2.4-3.9-4.9-7.7-7-11.6c-1.4-2.6-2.4-5.5-3.5-8.2c-0.2-0.5-0.5-1.2-0.9-1.5c-4.6-3.3-6.8-8.1-8.6-13.3c-0.1-0.2-0.1-0.5-0.2-0.7
			c0-0.1-0.1-0.2-0.2-0.3c-1.5,0.4-3,0.8-4.5,1.2c0.6,6.5,4.1,11.2,8.9,15.4c2.2,1.9,4.2,4.3,5.5,6.9c2.1,3.9,0.3,8.2-3.5,9.5
			c-3.1,1.1-6.5-1.5-6.3-4.8c0.1-1.9,1.3-2.5,3.3-2.1c-0.6,0.3-2,0.5-2.4,1.2C61.4,57.6,62,59,63,60.1c1,1.1,2.2,1.7,3.8,1.3
			c2.7-0.7,4.6-3.7,4.1-6.5c-0.6-3.2-2.7-5.5-5-7.7c-1.8-1.8-3.8-3.5-5.5-5.4c-3-3.3-3.8-7.4-4.5-11.7c-0.3-0.1-0.7-0.2-1-0.2
			c-3.1-0.6-4,0.4-3.1,3.5c0.5,1.8,1.5,3.2,3.3,3.9c2.3,0.9,3.3,2.5,3.2,5c-0.2,3.7-0.3,7.4-0.5,11.1c-0.2,2.7,0.1,5.2,1.2,7.6
			c2.5,5.5,5,11,7.5,16.5c0.2,0.4,0.4,0.7,0.7,1.1c0.2-1.4,0.3-2.8,0.7-4.1c0.2-0.6,0.8-1.2,1.4-1.6c0.2-0.2,0.8,0.1,1.2,0.3
			c0.5,0.3,1,0.6,1.6,1c0.9-0.9,1.9-1.3,2.9-0.3c0.5,0.5,0.7,1.2,0.9,1.9c2.4,1.2,2.8,2.1,1.3,3.8c0.6,0.8,1.2,1.6,2.1,2.6
			c-0.9,0.4-1.5,0.7-2.2,0.9c0.3,0.6,0.7,1.2,1,1.9c-1.3,1.7-2.3,1.8-4.1,0.8c-1.2-0.7-2.4-1.2-3.6-1.8c-0.2-0.1-0.7-0.2-0.8,0
			c-1.6,2-4.9,1.3-6.2,3.9c0,0.1-0.2,0.1-0.5,0.2c-0.4-0.8-0.8-1.7-1.2-2.5c0.2-0.2,0.3-0.3,0.4-0.3c1-0.9,3.6-0.3,3.2-2.7
			c-0.2-1.4-0.7-3-1.5-4.1c-4.2-5.9-8.3-11.7-10.6-18.7c-1.3-4-1.6-6.7-1.4-10.7c-1.3,2.9-2.7,5.8-3.8,8.3c2.1,1.9,4.4,3.1,5.3,5
			c1.6,3.2,1.3,5.5-1.1,6.1c0.3,0.4,0.6,0.8,0.9,1.1c3.9,3.8,4.7,8.3,3.3,13.4c-0.5,1.9-1,3.9-1.3,5.9c-0.4,2.4-0.3,4.7,0.8,6.9
			c1.5,2.9,2.8,5.9,4.1,9c2.9,6.7,7.1,12.3,12.5,17.1c2,1.8,4.4,3.2,7.4,3.1c2.2-0.1,3.7-1.3,4.6-3.1c1-2.1,1.3-4.2-0.1-6.2
			c-1-1.3-2.4-1.9-4-1.5c-2.1,0.5-2.3,2.1-1.9,4.3c-1.3-2.6-0.3-4.5,2.2-4.9c3.9-0.6,6.3,2.8,5.3,7.2c-0.9,3.9-4.4,6-8.3,5.1
			c-3.2-0.8-5.6-2.7-7.7-5c-5.7-6.1-9.8-13.2-13.1-20.8c-0.2-0.4-0.4-0.9-0.9-1.2c0.5,1.8,0.8,3.6,1.5,5.2
			c2.4,5.5,4.8,10.9,7.4,16.3c1.2,2.6,2.9,4.9,4.1,7.5c2.4,4.8,6.4,7.1,11.5,8c1.2,0.2,2.4,0.4,3.6,0.5c0.1-0.2,0.2-0.3,0.3-0.5
			c-4.4-4.2-8.9-8.4-13.2-12.4c1.2,0.8,2.7,1.7,3.9,2.8c3.4,3.1,6.7,6.3,10.1,9.3c0.6,0.5,1.6,1,2.3,1c5.3,0.1,10.6,0,15.9,0
			c-0.4-3.2,2.3-6.4,7.1-5.2c4.1,1,6.5,3.9,6.8,8c0.1,0.6,0.6,1.4,1.1,1.8c3,2.7,6.1,4.3,10.6,3.9c4.9-0.5,8,2.6,8.6,6.9
			c0.2,1.5-0.2,3.1-0.3,4.8c5.4,3.8,14.4,4,19.1,0.4c2.3-1.7,3.8-4,4.1-6.9c0.7-6.2-4.3-10.8-10.4-9.6c-2.9,0.6-4.7,3.1-4.8,6.7
			c0,0.6,0.1,1.2,0.1,2.1c-1.8-5.2,1.5-9.8,6.6-9.9c4.3,0,8,2.8,9.1,7c0.1,0.2,0.2,0.4,0.3,0.6c0,1.1,0,2.2,0,3.3
			c-0.3,1-0.6,2-1,2.9c-2.2,5-6.8,7.6-13.1,7.5c-4-0.1-7.6-1.3-11.1-3c-3.5,3.7-8.5,4.8-12.6,2.9c-2.8-1.3-4.5-4-4.1-6.6
			c0.7,4.2,3.2,6.2,7.1,6.7c3.5,0.4,6.5-0.6,8.4-3.1c-3.7-3.4-7.3-6.7-10.8-10c-0.8-0.7-1.4-1-2.6-0.7c-1.9,0.6-3.8,0.8-5.7,1.3
			c-0.8,0.2-1.6,0.5-2.1,1.1c-3.6,3.9-8.1,5.1-13.3,4.6c-4.6-0.5-8.7-2.3-12.6-4.6c-0.5-0.3-0.9-0.5-1.4-0.7
			c-0.1,0.2-0.2,0.4-0.3,0.5c5.8,4.5,11.6,8.9,17.7,13.6c-0.9,0-1.5,0.1-2.1,0c-2.2-0.3-4.3-0.6-6.5-1.1c-2.3-0.5-4.4-0.4-6.5,0.7
			c-2.3,1.2-4.5,1.2-6.7-0.5c-1.8-1.5-3.9-1.5-6.1-0.8c-1.3,0.5-2.6,1.1-3.8,1.8c-4.2,2.4-8.6,2.1-12.8,0.2c-2.1-1-4-1.3-5.9-0.3
			c-3.4,1.7-6.5,1.5-9.6-0.7c-0.8-0.6-1.7-1-2.6-1.3c-0.8-0.3-1.7-0.3-2.5-0.4c0.1,0.5,0.3,0.6,0.5,0.7c0.5,0.4,0.9,0.9,1.3,1.3
			c-0.5,0.4-0.9,1-1.4,1.3c-0.9,0.4-1.9,0.7-2.8,0.7c-5.7,0.1-11.3,0.1-17,0.1c-1.3,0-2.7,0.1-4,0.2c-2.4,0.3-4.6,0-6.4-1.8
			c-3.7-3.7-6.8-7.8-8.6-12.7c0-0.6,0-1.2,0-1.8c0.6-0.7,1.3-1.5,1.9-2.2c1.7-2.2,3.5-4.3,5-6.6c1.6-2.5,2.8-5.3,4.6-7.7
			c2.6-3.7,5.6-7.1,8.3-10.7c0.5-0.7,0.8-1.6,0.9-2.5c0.2-3.2,0.2-6.3,0.4-9.5c0.5-6.9,0.7-13.7-2.5-20.2c-0.1-0.2-0.2-0.5-0.3-0.7
			C16.5,83,16.9,78,19.7,73.1c0.9-1.6,1.3-3.7,1.5-5.6c0.5-7.3-1.2-14.3-2.7-21.3c-1-4.3-1.7-8.6,0.3-12.9c0.8-1.8,1.8-3.4,2.7-5.2
			c1.2-2.2,1.2-2.2-1.3-2.5c-0.1,0-0.1-0.2-0.2-0.3c0.7-0.8,1.4-1.7,2.3-2.8c-2.6,0-2.3,2.3-3.6,3.1c-0.9-1.5-0.3-2.8,0.3-4.1
			c1.6-3.1,4.6-2.3,7.6-2.5c-0.2-2.7-0.4-5.2-0.6-7.8c0-0.1-0.1-0.2-0.1-0.3c-0.9-2.2-0.6-7.4,2-9c0.6-0.4,1.2-0.8,1.5-0.9
			c0.8,0,1.4,0.1,1.8,0C31.8,0.9,32.4,0.4,33,0C33.9,0,34.9,0,35.9,0z M39.9,70.5c-0.2,0-0.4,0-0.6,0c-0.2,3.6-0.7,7.2-0.6,10.7
			c0.3,7.8,0.8,15.6,1.5,23.3c0.4,4.5-0.1,8.6-2.9,12.4c-1.1,1.5-1.9,3.5-2.3,5.4c-1.7,8.2-3,16.4-4.8,24.5
			c-0.5,2.4,0.7,4.9-0.9,7.1c-0.1,0.1,0.3,0.6,0.5,0.8c0.4,0.3,0.8,0.6,1.2,0.9c2.6-4.9,5.1-9.8,7.7-14.7c0.4-0.7,0.6-1.6,0.8-2.4
			c1.6-6.5,1.5-13.2,1.4-19.8c-0.4-13.3-0.7-26.6-1-39.8C39.9,76.2,39.9,73.3,39.9,70.5z M74.6,135.1c1.2,1.5,2.7,3.1,3.9,4.9
			c2.5,3.6,5.7,6.3,9.5,8.3c5.2,2.7,10.4,5.2,16.5,4.4c3-0.4,5.6-1.5,7.8-3.9c-2.4-0.2-4.7-0.3-6.9-0.7c-7.5-1.3-13.8-4.9-19.4-9.9
			c-0.4-0.4-1-0.8-1.5-0.9C81.2,136.5,77.8,135.8,74.6,135.1z M87.5,138c6.3,5.6,14.5,9,22.3,9.2c4.4,0.1,4.6-0.1,5.7-4.4
			c0.3-1.3-0.1-1.7-1.1-2.2c-3.7-1.7-7.8-2.3-11.8-2.5C97.5,137.8,92.4,138,87.5,138z M82.3,63.3c2.2-4,1.8-8.6-1.4-11.8
			c-2.5-2.5-5.5-4.6-8.3-6.9c-0.2,0.2-0.3,0.3-0.5,0.5C74.3,51.7,77.7,57.7,82.3,63.3z M103.7,136.7c4.1,0.9,8,1.8,11.9,2.7
			c0.2-3.9-3.1-7.5-7.2-7.6C105.4,131.7,103.5,133.8,103.7,136.7z M124.2,146.3c3.7,3.7,7,7.3,11.4,9.8c1-3,0.7-5.6-1.4-7.8
			C131.5,145.5,128.1,145.8,124.2,146.3z M19.6,143.3c-0.8,1.3-1.5,2.6-2.4,3.6c-1,1.2-2.1,2.2-1.8,3.9c0,0.1-0.1,0.4-0.3,0.5
			c-1.8,0.7-1.5,2.2-1.6,3.7c-0.1,2.8,0.9,4.8,3.3,5.8C17.8,155,18.7,149.2,19.6,143.3z M116.9,141.9c-0.6,1.8-1.1,3.3-1.7,5.2
			c2.2-0.5,4.2-0.9,6.7-1.4C120,144.2,118.5,143.1,116.9,141.9z"/>
	</g>
</g>
</svg>
