<?xml version="1.0" encoding="utf-8"?>
<!-- Generator: Adobe Illustrator 19.2.1, SVG Export Plug-In . SVG Version: 6.00 Build 0)  -->
<svg version="1.1" id="Layer_1" xmlns="http://www.w3.org/2000/svg" xmlns:xlink="http://www.w3.org/1999/xlink" x="0px" y="0px"
	 viewBox="0 0 295.2 133.2" style="enable-background:new 0 0 295.2 133.2;" xml:space="preserve">
<style type="text/css">
	.st0{fill:#39A593;}
</style>
<g>
	<g>
		<path class="st0" d="M169,22.9c19.6,2.9,34.7,17.8,37.8,37.5c0.3,1.8,0.5,3.5,0.7,5.3c0,1,0,1.9,0,2.9c-0.1,0.3-0.2,0.6-0.2,0.9
			c-0.2,2-0.4,4-0.7,5.9c-5.4,28.4-35.9,44.3-62.2,32.4c-1.8-0.8-3.1-0.8-4.9,0.2c-9.7,5.3-20,7.2-30.8,4.8
			C90.2,108.6,78.7,96.9,74,78.6c-1-3.7-1.4-17,0.9-22.6c7.8-26,36.7-38.8,61.7-27.4c1.2,0.6,2.3,0.6,3.5-0.1c4-2.4,8.3-4,12.9-5
			C158.4,22.3,168.2,22.8,169,22.9z M148.8,101.4c11.2,5.6,30.8,4.1,42.9-11c11.8-14.7,10.7-36-2.5-49.4
			c-13.3-13.5-32.8-13.3-43.3-6.8C166.3,50.2,168.4,82.1,148.8,101.4z M131.8,98.7c-9.2-7.8-14.4-17.6-14.9-29.6
			c-0.5-12.1,3.8-22.2,12.2-30.8c-0.5-0.2-0.7-0.4-1-0.5c-7.9-3.1-15.9-3-23.7,0.2c-13.8,5.8-22.1,21.5-19.5,36.2
			c3,16.7,17,28.3,34,28C123.5,102.1,127.7,101.2,131.8,98.7z M138.4,95.3c19.1-14.6,16.7-43.1-1.9-54.7
			C121.7,54.7,121,80.8,138.4,95.3z"/>
	</g>
	<path class="st0" d="M201.3,20.2c-3.9-2.8-11.7-8.3-11.8-8.2c-2.3,0.7-4.6,1.5-7,2.2c-0.1,0.2-0.2,0.3-0.4,0.5
		c0.2,4.5,0.4,9,0.7,13.5c0.1,1.2,0.1,2.3,0.2,3.5c0,0.2,0.1,0.4,0.2,0.6c0.2,0.1,0.4,0.3,0.6,0.4c0.3-0.1,0.6-0.1,0.9-0.2
		c5.1-1.5,10.2-2.9,15.4-4.4c0.2-0.1,0.4-0.1,0.6-0.2c0.1-0.1,0.2-0.3,0.3-0.4c0.1-1.9,0.3-3.7,0.4-5.6
		C201.3,21.3,201.3,20.8,201.3,20.2z"/>
</g>
</svg>
