<?xml version="1.0" encoding="utf-8"?>
<!-- Generator: Adobe Illustrator 19.2.1, SVG Export Plug-In . SVG Version: 6.00 Build 0)  -->
<svg version="1.1" id="Layer_1" xmlns="http://www.w3.org/2000/svg" xmlns:xlink="http://www.w3.org/1999/xlink" x="0px" y="0px"
	 viewBox="0 0 311.2 139.7" style="enable-background:new 0 0 311.2 139.7;" xml:space="preserve">
<style type="text/css">
	.st0{fill-rule:evenodd;clip-rule:evenodd;fill:#99979E;}
	.st1{fill:#D0D8DE;}
	.st2{fill-rule:evenodd;clip-rule:evenodd;fill:#FEFEFE;}
	.st3{font-family:'Arial-BoldMT';}
	.st4{font-size:19.0447px;}
	.st5{font-size:19.0197px;}
	.st6{font-size:19.0188px;}
	.st7{font-size:19.0292px;}
	.st8{font-size:19.3259px;}
	.st9{font-size:19.1619px;}
	.st10{font-size:19.0313px;}
	.st11{font-size:19.0196px;}
	.st12{font-size:19.0361px;}
	.st13{font-size:19.0865px;}
	.st14{font-size:19.1723px;}
	.st15{fill-rule:evenodd;clip-rule:evenodd;fill:#F5194B;}
</style>
<g>
	<g>
		<g>
			<path class="st0" d="M6.6,10c1.4,0.3,2.8,0.6,4.2,0.8c9.5,1.6,18.9,3.2,28.4,4.7c7.9,1.2,15.8,2.3,23.8,3.3c8.3,1,16.6,2,25,2.8
				c7.5,0.8,15,1.4,22.6,1.9c6.6,0.5,13.1,0.9,19.7,1.2c6,0.3,12,0.5,18,0.7c4.6,0.1,9.3,0.2,13.9,0.3c2.6,0,5.3,0.1,7.9,0.1
				c4.9,0,9.9,0,14.8-0.1c6.3-0.1,12.6-0.3,18.9-0.6c6.6-0.3,13.3-0.7,19.9-1.2c6.1-0.4,12.1-1,18.1-1.5c11-1.1,22-2.5,32.9-4.3
				c9.7-1.6,19.3-3.4,28.8-5.8c0.7-0.2,1.4-0.4,2.2-0.6c0.7,1.8,1.4,3.7,2.2,5.5c-1.3,0.3-2.5,0.7-3.7,1c-9.4,2.3-18.9,4.2-28.5,5.7
				c-7.3,1.1-14.5,2.2-21.8,3.1c-5.9,0.7-11.9,1.3-17.9,1.9c-5.4,0.5-10.8,0.9-16.3,1.3c-4.7,0.3-9.4,0.6-14.1,0.8
				c-5.5,0.2-11.1,0.4-16.6,0.6c-4.3,0.1-8.6,0.1-12.8,0.2c-1.4,0-2.9,0-4.3,0c-0.2,0-0.3,0-0.5,0.1c-2.9,0-5.9,0-8.8,0
				c-0.2,0-0.3-0.1-0.5-0.1c-6.1-0.1-12.1-0.2-18.2-0.4c-4.6-0.1-9.3-0.3-13.9-0.6c-5.9-0.3-11.9-0.6-17.8-1.1
				c-6.8-0.5-13.6-1.1-20.4-1.7c-5.1-0.5-10.1-0.9-15.2-1.5c-7.6-0.9-15.2-1.8-22.8-2.8c-7.5-1-15-2.1-22.5-3.3
				c-8.8-1.4-17.6-3-26.4-4.5c0-0.1,0-0.2,0-0.3c0-0.1,0.1-0.2,0.1-0.3c0.4-1.7,0.9-3.4,1.3-5.2C6.4,10,6.5,10,6.6,10z"/>
			<path class="st0" d="M6.3,10c-0.4,1.7-0.9,3.4-1.3,5.2c0,0.1-0.1,0.2-0.1,0.3c0-1.8,0-3.6,0-5.4C5.4,10,5.8,10,6.3,10z"/>
		</g>
		<g>
			<path class="st1" d="M80.6,19.3c0.2,0,0.5,0,0.7,0c1,0.1,2.1,0.1,3.1,0.2c2.4,0.2,4.7,0.5,7.1,0.7c2.1,0.2,4.3,0.4,6.4,0.7
				c2.7,0.3,5.4,0.6,8.1,0.9c2.4,0.3,4.7,0.5,7.1,0.7c0.1,0,0.3,0,0.4,0c0.8,0.1,0.8,0.2,0.8,0.9c-0.2,3.4-0.9,6.7-1.4,10
				c-0.4,2.5-0.8,5-1.2,7.5c-0.5,3.4-1,6.8-1.6,10.3c-0.4,2.4-0.8,4.7-1.1,7.1c-0.4,2.9-0.9,5.7-1.3,8.6c0,0.3-0.1,0.6-0.3,0.8
				c0,0-0.1,0-0.1,0c-1.1-0.4-2-1.1-3-1.7c-3.9-2.4-7.8-4.7-11.7-7.1c-0.4-0.2-0.7-0.3-1.1-0.1c-5.5,1.7-11.1,3.4-16.6,5.1
				c-0.4,0.1-0.8,0.4-1.3,0.2c0-0.2,0-0.3,0-0.5c0.1-0.7,0.1-1.5,0.2-2.2c0.2-1.9,0.6-3.8,0.9-5.6c0.4-2.4,0.8-4.8,1.2-7.3
				c0.3-1.9,0.6-3.9,0.9-5.8c0.4-2.6,0.8-5.2,1.3-7.9c0.4-2.5,0.8-5,1.2-7.5c0.4-2.4,0.8-4.8,1.1-7.2C80.3,19.9,80.3,19.6,80.6,19.3
				z"/>
			<path class="st2" d="M84.1,22.7c1.4,0.2,2.7,0.3,4.1,0.4c1.7,0.2,3.5,0.4,5.2,0.6c1.7,0.2,3.5,0.4,5.2,0.6
				c1.4,0.2,2.9,0.3,4.3,0.4c1.7,0.2,3.4,0.4,5.2,0.6c0.5,0.1,1,0.1,1.6,0.1c0.4,0,0.7,0.2,0.6,0.6c-0.3,1.7-0.5,3.3-0.8,5
				c-0.3,2.2-0.7,4.3-1,6.5c-0.4,2.4-0.7,4.8-1.1,7.2c-0.3,1.9-0.6,3.7-0.9,5.6c-0.4,2.4-0.7,4.7-1.1,7.1c-0.2,1.5-0.5,3.1-0.7,4.6
				c0,0.3-0.2,0.5-0.6,0.2c-2.5-1.5-5-3.1-7.5-4.6c-1.3-0.8-2.5-1.5-3.8-2.3c-0.2-0.1-0.3-0.2-0.5-0.1c-3.5,1.1-7.1,2.2-10.6,3.2
				c-1.2,0.4-2.4,0.7-3.5,1.1c-0.5,0.2-0.5,0-0.5-0.3c0.2-1.2,0.4-2.4,0.6-3.6c0.3-1.6,0.5-3.3,0.8-4.9c0.4-2.6,0.9-5.2,1.3-7.8
				c0.4-2.3,0.7-4.7,1.1-7.1c0.3-1.8,0.6-3.5,0.9-5.3c0.3-1.6,0.5-3.2,0.7-4.8c0.2-1,0.3-1.9,0.5-2.9C83.6,22.6,83.9,22.7,84.1,22.7
				z"/>
		</g>
		<g>
			<path class="st1" d="M43.2,12.7c0.2,0,0.5,0,0.7,0c1,0.2,2,0.2,3.1,0.4c2.3,0.3,4.7,0.8,7,1.2c2.1,0.4,4.2,0.7,6.3,1
				c2.7,0.5,5.3,0.9,8,1.3c2.3,0.4,4.7,0.8,7,1.2c0.1,0,0.3,0,0.4,0.1c0.8,0.2,0.8,0.2,0.7,0.9c-0.5,3.3-1.5,6.6-2.2,9.9
				c-0.6,2.5-1.2,5-1.8,7.4c-0.8,3.4-1.6,6.8-2.4,10.1c-0.6,2.3-1.1,4.7-1.7,7c-0.7,2.8-1.3,5.6-2,8.5c-0.1,0.3-0.1,0.6-0.4,0.8
				c0,0-0.1,0-0.1,0c-1.1-0.4-1.9-1.2-2.8-1.8c-3.7-2.6-7.4-5.2-11.1-7.8c-0.3-0.2-0.7-0.3-1.1-0.2c-5.7,1.4-11.3,2.7-17,4.1
				c-0.4,0.1-0.8,0.3-1.3,0.1c0-0.2,0-0.3,0-0.5c0.2-0.7,0.3-1.5,0.4-2.2c0.4-1.9,0.9-3.7,1.3-5.6c0.6-2.4,1.2-4.8,1.7-7.2
				c0.5-1.9,1-3.8,1.4-5.8c0.6-2.6,1.3-5.2,1.9-7.8c0.6-2.5,1.2-5,1.8-7.4c0.6-2.4,1.2-4.7,1.7-7.1C42.9,13.3,42.9,13,43.2,12.7z"/>
			<path class="st2" d="M46.5,16.3c1.4,0.2,2.7,0.5,4,0.7c1.7,0.3,3.4,0.6,5.2,0.9c1.7,0.3,3.4,0.6,5.2,0.9c1.4,0.2,2.9,0.5,4.3,0.7
				c1.7,0.3,3.4,0.6,5.1,0.9c0.5,0.1,1,0.2,1.6,0.2c0.4,0.1,0.6,0.2,0.5,0.6c-0.4,1.6-0.8,3.3-1.2,5c-0.5,2.1-1,4.3-1.6,6.4
				c-0.6,2.4-1.1,4.8-1.7,7.1c-0.4,1.8-0.9,3.7-1.4,5.5c-0.6,2.3-1.1,4.7-1.6,7c-0.4,1.5-0.7,3-1.1,4.6c-0.1,0.3-0.2,0.5-0.6,0.2
				c-2.4-1.7-4.8-3.4-7.1-5c-1.2-0.8-2.4-1.7-3.6-2.5c-0.2-0.1-0.3-0.2-0.5-0.1c-3.6,0.9-7.2,1.7-10.8,2.6c-1.2,0.3-2.4,0.6-3.6,0.9
				c-0.5,0.1-0.5,0-0.4-0.3c0.3-1.2,0.6-2.4,0.9-3.6c0.4-1.6,0.8-3.2,1.2-4.9c0.6-2.6,1.3-5.1,1.9-7.7c0.6-2.3,1.1-4.7,1.7-7
				c0.4-1.7,0.9-3.5,1.3-5.2c0.4-1.6,0.8-3.2,1.1-4.8c0.2-0.9,0.5-1.9,0.7-2.8C45.9,16.1,46.2,16.3,46.5,16.3z"/>
		</g>
		<g>
			<path class="st1" d="M121,22.1c0.2,0,0.5,0,0.7-0.1c1,0,2.1,0,3.1,0c2.4,0,4.8,0.1,7.1,0.2c2.1,0.1,4.3,0.1,6.4,0.2
				c2.7,0.1,5.4,0.2,8.1,0.3c2.4,0.1,4.8,0.2,7.1,0.2c0.1,0,0.3,0,0.4,0c0.8,0.1,0.8,0.1,0.8,0.8c0.1,3.4-0.3,6.7-0.4,10.1
				c-0.1,2.5-0.3,5.1-0.4,7.6c-0.2,3.4-0.3,6.9-0.6,10.3c-0.1,2.4-0.3,4.8-0.4,7.2c-0.2,2.9-0.3,5.8-0.5,8.6c0,0.3,0,0.6-0.3,0.9
				c0,0-0.1,0-0.1,0c-1.2-0.3-2.1-0.9-3.1-1.4c-4.1-2.1-8.2-4.1-12.3-6.2c-0.4-0.2-0.7-0.2-1.1-0.1c-5.3,2.1-10.7,4.2-16,6.3
				c-0.4,0.2-0.8,0.4-1.3,0.3c0-0.2,0-0.3,0-0.5c0.1-0.7,0-1.5,0-2.2c0-1.9,0.2-3.8,0.3-5.7c0.1-2.4,0.3-4.9,0.4-7.3
				c0.1-2,0.3-3.9,0.4-5.9c0.2-2.6,0.3-5.3,0.5-7.9c0.2-2.5,0.3-5.1,0.5-7.6c0.1-2.4,0.3-4.8,0.4-7.2
				C120.8,22.6,120.8,22.3,121,22.1z"/>
			<path class="st2" d="M124.8,25.1c1.4,0,2.8,0.1,4.1,0.1c1.7,0.1,3.5,0.1,5.2,0.2c1.7,0.1,3.5,0.1,5.2,0.2c1.5,0,2.9,0.1,4.4,0.1
				c1.7,0.1,3.5,0.1,5.2,0.2c0.5,0,1.1,0,1.6,0c0.4,0,0.7,0.1,0.6,0.6c-0.1,1.7-0.2,3.4-0.3,5.1c-0.1,2.2-0.3,4.4-0.4,6.6
				c-0.1,2.4-0.2,4.8-0.4,7.3c-0.1,1.9-0.2,3.8-0.3,5.7c-0.1,2.4-0.2,4.8-0.4,7.2c-0.1,1.6-0.2,3.1-0.2,4.7c0,0.3-0.1,0.5-0.5,0.3
				c-2.6-1.3-5.3-2.7-8-4c-1.3-0.7-2.7-1.3-4-2c-0.2-0.1-0.3-0.1-0.5,0c-3.4,1.3-6.8,2.7-10.2,4c-1.1,0.4-2.3,0.9-3.4,1.3
				c-0.5,0.2-0.5,0-0.5-0.3c0.1-1.2,0.1-2.4,0.2-3.7c0.1-1.7,0.2-3.3,0.3-5c0.2-2.6,0.3-5.2,0.5-7.9c0.1-2.4,0.2-4.7,0.4-7.1
				c0.1-1.8,0.3-3.5,0.4-5.3c0.1-1.6,0.2-3.2,0.3-4.9c0.1-1,0.1-1.9,0.2-2.9C124.3,25.1,124.6,25.2,124.8,25.1z"/>
		</g>
		<g>
			<path class="st1" d="M163.1,23.6c0.2,0,0.5-0.1,0.7-0.1c1,0,2.1-0.1,3.1-0.2c2.4-0.1,4.8-0.1,7.1-0.1c2.1,0,4.3-0.1,6.4-0.1
				c2.7,0,5.4-0.1,8.1-0.1c2.4,0,4.8-0.1,7.1-0.1c0.1,0,0.3,0,0.4,0c0.8,0,0.8,0.1,0.9,0.8c0.3,3.4,0.1,6.7,0.2,10.1
				c0,2.5,0,5.1,0,7.6c0,3.5,0.1,6.9,0.1,10.4c0,2.4,0,4.8,0,7.2c0,2.9,0,5.8,0,8.6c0,0.3,0,0.6-0.2,0.9c0,0-0.1,0-0.1,0
				c-1.2-0.2-2.2-0.8-3.2-1.3c-4.2-1.9-8.5-3.8-12.7-5.7c-0.4-0.2-0.7-0.2-1.2,0c-5.2,2.3-10.4,4.6-15.7,7c-0.4,0.2-0.7,0.5-1.2,0.4
				c0-0.2-0.1-0.3-0.1-0.5c0-0.7-0.1-1.5-0.1-2.2c-0.1-1.9,0-3.8,0-5.7c0-2.4,0-4.9,0-7.3c0-2,0-3.9,0-5.9c0-2.6,0-5.3,0-7.9
				c0-2.5,0-5.1,0-7.6c0-2.4,0-4.8,0-7.2C162.9,24.2,162.9,23.9,163.1,23.6z"/>
			<path class="st2" d="M167.1,26.5c1.4,0,2.8,0,4.1,0c1.8,0,3.5,0,5.2,0c1.8,0,3.5,0,5.3-0.1c1.5,0,2.9-0.1,4.4-0.1
				c1.7,0,3.5,0,5.2,0c0.5,0,1.1,0,1.6,0c0.4,0,0.7,0.1,0.7,0.5c0,1.7,0,3.4,0,5.1c0,2.2,0,4.4,0,6.6c0,2.4,0.1,4.8,0.1,7.3
				c0,1.9,0,3.8,0,5.7c0,2.4,0,4.8,0.1,7.2c0,1.6,0,3.1,0,4.7c0,0.3-0.1,0.5-0.5,0.3c-2.7-1.2-5.5-2.5-8.2-3.7
				c-1.4-0.6-2.7-1.2-4.1-1.8c-0.2-0.1-0.3-0.1-0.6,0c-3.3,1.5-6.6,3-10,4.5c-1.1,0.5-2.2,1-3.3,1.5c-0.4,0.2-0.5,0.1-0.5-0.3
				c0-1.2,0-2.4,0-3.7c0-1.7,0-3.3,0-5c0-2.6,0-5.2,0-7.9c0-2.4,0-4.7,0-7.1c0-1.8,0-3.5,0-5.3c0-1.6,0-3.2,0-4.9c0-1,0-1.9,0-2.9
				C166.6,26.5,166.9,26.6,167.1,26.5z"/>
		</g>
		<g>
			<path class="st1" d="M203.5,23.4c0.2,0,0.5-0.1,0.7-0.1c1,0,2-0.2,3.1-0.3c2.4-0.2,4.7-0.3,7.1-0.4c2.1-0.1,4.3-0.3,6.4-0.4
				c2.7-0.1,5.4-0.3,8.1-0.5c2.4-0.1,4.7-0.3,7.1-0.4c0.1,0,0.3,0,0.4,0c0.8,0,0.8,0.1,0.9,0.7c0.5,3.3,0.6,6.7,0.8,10.1
				c0.2,2.5,0.3,5,0.5,7.6c0.3,3.4,0.5,6.9,0.7,10.3c0.2,2.4,0.3,4.8,0.5,7.2c0.2,2.9,0.4,5.8,0.6,8.6c0,0.3,0.1,0.6-0.2,0.9
				c0,0-0.1,0-0.1,0c-1.2-0.2-2.2-0.7-3.3-1.1c-4.3-1.7-8.7-3.4-13-5.1c-0.4-0.2-0.7-0.2-1.1,0.1c-5.1,2.6-10.1,5.1-15.2,7.7
				c-0.4,0.2-0.7,0.5-1.2,0.4c0-0.2-0.1-0.3-0.1-0.5c0-0.7-0.2-1.5-0.3-2.2c-0.2-1.9-0.3-3.8-0.4-5.7c-0.2-2.4-0.3-4.9-0.5-7.3
				c-0.1-2-0.2-3.9-0.4-5.9c-0.2-2.6-0.4-5.3-0.5-7.9c-0.2-2.5-0.3-5.1-0.5-7.6c-0.2-2.4-0.3-4.8-0.5-7.2
				C203.3,24,203.3,23.7,203.5,23.4z"/>
			<path class="st2" d="M207.7,26.1c1.4-0.1,2.7-0.2,4.1-0.2c1.7-0.1,3.5-0.2,5.2-0.3c1.7-0.1,3.5-0.2,5.2-0.3
				c1.5-0.1,2.9-0.2,4.4-0.3c1.7-0.1,3.5-0.2,5.2-0.3c0.5,0,1-0.1,1.6-0.1c0.4,0,0.7,0.1,0.7,0.5c0.1,1.7,0.2,3.4,0.3,5.1
				c0.1,2.2,0.3,4.4,0.4,6.6c0.2,2.4,0.4,4.8,0.5,7.3c0.1,1.9,0.2,3.8,0.4,5.7c0.2,2.4,0.4,4.8,0.5,7.2c0.1,1.5,0.2,3.1,0.3,4.7
				c0,0.3-0.1,0.5-0.5,0.3c-2.8-1.1-5.6-2.2-8.4-3.3c-1.4-0.5-2.8-1.1-4.2-1.6c-0.2-0.1-0.3-0.1-0.6,0c-3.2,1.6-6.4,3.3-9.7,4.9
				c-1.1,0.5-2.2,1.1-3.2,1.6c-0.4,0.2-0.5,0.1-0.5-0.2c-0.1-1.2-0.2-2.4-0.2-3.7c-0.1-1.7-0.2-3.3-0.3-5c-0.2-2.6-0.3-5.2-0.5-7.9
				c-0.2-2.4-0.4-4.7-0.5-7.1c-0.1-1.8-0.2-3.5-0.3-5.3c-0.1-1.6-0.2-3.2-0.3-4.9c-0.1-1-0.1-1.9-0.2-2.9
				C207.2,26.1,207.5,26.2,207.7,26.1z"/>
		</g>
		<g>
			<path class="st1" d="M243.4,20.6c0.2-0.1,0.4-0.1,0.7-0.2c1-0.1,2-0.4,3-0.6c2.3-0.4,4.7-0.7,7-1.1c2.1-0.3,4.2-0.7,6.3-1
				c2.7-0.4,5.3-0.8,8-1.2c2.3-0.3,4.7-0.7,7-1.1c0.1,0,0.3,0,0.4-0.1c0.8-0.1,0.8,0,1,0.6c0.9,3.3,1.4,6.6,2.1,9.9
				c0.5,2.5,1,5,1.5,7.5c0.7,3.4,1.4,6.8,2,10.2c0.5,2.4,0.9,4.7,1.4,7.1c0.6,2.8,1.1,5.7,1.7,8.5c0.1,0.3,0.1,0.6,0,0.9
				c0,0-0.1,0-0.1,0c-1.2-0.1-2.3-0.5-3.4-0.8c-4.5-1.3-9.1-2.5-13.6-3.8c-0.4-0.1-0.8-0.1-1.1,0.2c-4.7,3-9.4,6-14.1,9.1
				c-0.3,0.2-0.6,0.6-1.2,0.5c-0.1-0.2-0.1-0.3-0.2-0.5c-0.1-0.7-0.4-1.4-0.5-2.2c-0.4-1.9-0.7-3.7-1.1-5.6
				c-0.5-2.4-0.9-4.8-1.4-7.2c-0.4-1.9-0.7-3.9-1.1-5.8c-0.5-2.6-1-5.2-1.5-7.8c-0.5-2.5-0.9-5-1.4-7.5c-0.5-2.4-0.9-4.8-1.4-7.1
				C243.3,21.2,243.2,20.9,243.4,20.6z"/>
			<path class="st2" d="M247.9,22.9c1.4-0.2,2.7-0.4,4.1-0.6c1.7-0.3,3.4-0.5,5.2-0.8c1.7-0.3,3.4-0.5,5.2-0.8
				c1.4-0.2,2.9-0.5,4.3-0.7c1.7-0.3,3.4-0.5,5.1-0.8c0.5-0.1,1-0.2,1.5-0.3c0.4-0.1,0.7,0,0.8,0.4c0.3,1.7,0.6,3.3,1,5
				c0.4,2.2,0.8,4.3,1.3,6.5c0.5,2.4,1,4.8,1.4,7.2c0.4,1.9,0.7,3.7,1.1,5.6c0.5,2.4,0.9,4.7,1.4,7.1c0.3,1.5,0.6,3.1,0.9,4.6
				c0.1,0.3,0,0.5-0.5,0.4c-2.9-0.8-5.9-1.7-8.8-2.5c-1.5-0.4-2.9-0.8-4.4-1.2c-0.2-0.1-0.4-0.1-0.5,0.1c-3,1.9-6,3.9-9,5.8
				c-1,0.6-2,1.3-3,1.9c-0.4,0.3-0.5,0.1-0.5-0.2c-0.2-1.2-0.5-2.4-0.7-3.6c-0.3-1.6-0.6-3.3-0.9-4.9c-0.5-2.6-1-5.2-1.5-7.8
				c-0.5-2.3-0.9-4.7-1.4-7c-0.3-1.7-0.6-3.5-1-5.2c-0.3-1.6-0.6-3.2-0.9-4.8c-0.2-1-0.3-1.9-0.6-2.9C247.4,23,247.7,23,247.9,22.9z
				"/>
		</g>
		<g>
			<path class="st0" d="M1.8,65.8c1.4,0.3,2.8,0.7,4.3,1c9.7,2,19.4,4.1,29.2,6c8.1,1.6,16.2,3,24.4,4.2c8.5,1.3,17.1,2.5,25.7,3.6
				c7.7,1,15.4,1.8,23.2,2.5c6.7,0.6,13.5,1.1,20.2,1.6c6.1,0.4,12.3,0.7,18.5,0.9c4.8,0.2,9.6,0.3,14.3,0.4
				c2.7,0.1,5.4,0.1,8.1,0.1c5.1,0,10.2,0,15.2-0.2c6.5-0.2,13-0.4,19.4-0.7c6.8-0.4,13.6-0.9,20.4-1.5c6.2-0.5,12.4-1.2,18.6-2
				c11.3-1.4,22.6-3.2,33.8-5.5c10-2,19.9-4.4,29.6-7.4c0.7-0.2,1.4-0.5,2.2-0.7c0.7,2.4,1.5,4.7,2.2,7.1c-1.3,0.4-2.6,0.8-3.8,1.2
				c-9.7,3-19.4,5.3-29.3,7.2c-7.5,1.4-15,2.7-22.5,3.9c-6.1,0.9-12.2,1.7-18.4,2.4c-5.6,0.6-11.2,1.2-16.7,1.6
				c-4.8,0.4-9.7,0.7-14.5,1c-5.7,0.3-11.4,0.6-17.1,0.7c-4.4,0.1-8.8,0.2-13.2,0.2c-1.5,0-3,0-4.5,0c-0.2,0-0.3,0-0.5,0.1
				c-3,0-6,0-9-0.1c-0.2,0-0.3-0.1-0.5-0.1c-6.2-0.2-12.5-0.3-18.7-0.5c-4.8-0.2-9.5-0.4-14.3-0.7c-6.1-0.4-12.2-0.8-18.3-1.4
				c-7-0.6-13.9-1.4-20.9-2.1c-5.2-0.6-10.4-1.2-15.6-2C65.8,85.5,58,84.3,50.2,83c-7.7-1.3-15.4-2.7-23.1-4.2C18,77,9,75,0,73.1
				c0-0.1,0-0.3,0-0.4c0-0.1,0.1-0.2,0.1-0.3c0.5-2.2,0.9-4.4,1.4-6.6C1.6,65.8,1.7,65.8,1.8,65.8z"/>
			<path class="st0" d="M1.5,65.8c-0.5,2.2-0.9,4.4-1.4,6.6c0,0.1-0.1,0.2-0.1,0.3c0-2.3,0-4.6,0.1-6.9C0.5,65.8,1,65.8,1.5,65.8z"
				/>
		</g>
		<g>
			<path class="st1" d="M62.3,72c0.2,0,0.5,0,0.7,0.1c1,0.2,2,0.3,3,0.5c2.3,0.4,4.6,0.9,7,1.4c2.1,0.4,4.2,0.8,6.3,1.2
				c2.6,0.5,5.3,1,7.9,1.6c2.3,0.5,4.6,0.9,7,1.4c0.1,0,0.3,0,0.4,0.1c0.8,0.2,0.8,0.3,0.7,0.9c-0.6,3.3-1.7,6.6-2.6,9.8
				c-0.7,2.5-1.4,4.9-2.1,7.4c-0.9,3.4-1.8,6.7-2.8,10.1c-0.7,2.3-1.3,4.7-2,7c-0.8,2.8-1.6,5.6-2.3,8.4c-0.1,0.3-0.1,0.6-0.4,0.8
				c0,0-0.1,0-0.1,0c-1.1-0.5-1.9-1.2-2.8-1.9c-3.6-2.7-7.2-5.4-10.7-8.1c-0.3-0.3-0.7-0.3-1.1-0.2c-5.7,1.2-11.4,2.4-17.1,3.6
				c-0.4,0.1-0.8,0.3-1.3,0.1c0-0.2,0-0.3,0.1-0.5c0.2-0.7,0.3-1.4,0.5-2.2c0.4-1.9,1-3.7,1.5-5.5c0.7-2.4,1.4-4.8,2-7.1
				c0.5-1.9,1.1-3.8,1.6-5.7c0.7-2.6,1.5-5.1,2.2-7.7c0.7-2.5,1.4-4.9,2.1-7.4c0.7-2.3,1.4-4.7,2-7C62,72.5,62,72.2,62.3,72z"/>
			<path class="st2" d="M65.4,75.6c1.4,0.3,2.7,0.5,4,0.8c1.7,0.3,3.4,0.7,5.1,1c1.7,0.3,3.4,0.7,5.1,1c1.4,0.3,2.8,0.5,4.3,0.8
				c1.7,0.3,3.4,0.7,5.1,1c0.5,0.1,1,0.2,1.5,0.3c0.4,0.1,0.6,0.2,0.5,0.7c-0.5,1.6-0.9,3.3-1.4,4.9c-0.6,2.1-1.2,4.2-1.8,6.4
				c-0.7,2.4-1.3,4.7-1.9,7.1c-0.5,1.8-1.1,3.7-1.6,5.5c-0.7,2.3-1.3,4.6-1.9,7c-0.4,1.5-0.8,3-1.3,4.5c-0.1,0.3-0.2,0.4-0.6,0.2
				c-2.3-1.8-4.6-3.5-6.9-5.2c-1.2-0.9-2.3-1.8-3.5-2.6c-0.1-0.1-0.3-0.2-0.5-0.1c-3.6,0.8-7.3,1.5-10.9,2.3
				c-1.2,0.3-2.4,0.5-3.6,0.8c-0.5,0.1-0.5-0.1-0.4-0.4c0.3-1.2,0.7-2.4,1-3.6c0.5-1.6,0.9-3.2,1.4-4.8c0.7-2.5,1.5-5.1,2.2-7.6
				c0.7-2.3,1.3-4.6,1.9-6.9c0.5-1.7,1-3.4,1.5-5.1c0.5-1.6,0.9-3.2,1.3-4.7c0.3-0.9,0.6-1.9,0.8-2.8C64.9,75.5,65.2,75.7,65.4,75.6
				z"/>
		</g>
		<g>
			<path class="st1" d="M100.7,79.2c0.2,0,0.5,0,0.7,0c1,0.1,2.1,0.1,3.1,0.1c2.4,0.2,4.7,0.4,7.1,0.6c2.1,0.2,4.3,0.3,6.4,0.5
				c2.7,0.3,5.4,0.4,8.1,0.7c2.4,0.2,4.7,0.4,7.1,0.6c0.1,0,0.3,0,0.4,0c0.8,0.1,0.8,0.2,0.8,0.8c-0.1,3.4-0.7,6.7-1.2,10
				c-0.3,2.5-0.6,5-1,7.5c-0.4,3.4-0.8,6.9-1.3,10.3c-0.3,2.4-0.6,4.8-0.9,7.1c-0.4,2.9-0.7,5.7-1.1,8.6c0,0.3,0,0.6-0.3,0.8
				c0,0-0.1,0-0.1,0c-1.1-0.4-2-1-3-1.6c-4-2.3-7.9-4.6-11.8-6.9c-0.4-0.2-0.7-0.3-1.1-0.1c-5.5,1.8-11,3.6-16.5,5.4
				c-0.4,0.1-0.8,0.4-1.3,0.2c0-0.2,0-0.3,0-0.5c0.1-0.7,0.1-1.5,0.2-2.2c0.2-1.9,0.5-3.8,0.7-5.6c0.3-2.4,0.6-4.9,1-7.3
				c0.3-1.9,0.5-3.9,0.8-5.8c0.3-2.6,0.7-5.3,1-7.9c0.3-2.5,0.7-5,1-7.5c0.3-2.4,0.7-4.8,0.9-7.2C100.4,79.8,100.4,79.5,100.7,79.2z
				"/>
			<path class="st2" d="M104.3,82.5c1.4,0.1,2.7,0.2,4.1,0.4c1.7,0.2,3.5,0.3,5.2,0.5c1.7,0.2,3.5,0.3,5.2,0.5
				c1.5,0.1,2.9,0.2,4.4,0.4c1.7,0.1,3.4,0.3,5.2,0.5c0.5,0,1,0.1,1.6,0.1c0.4,0,0.7,0.2,0.6,0.6c-0.2,1.7-0.4,3.4-0.7,5
				c-0.3,2.2-0.6,4.3-0.9,6.5c-0.3,2.4-0.6,4.8-0.9,7.2c-0.2,1.9-0.5,3.7-0.8,5.6c-0.3,2.4-0.6,4.8-0.9,7.1
				c-0.2,1.5-0.4,3.1-0.6,4.6c0,0.3-0.1,0.5-0.5,0.2c-2.5-1.5-5.1-3-7.7-4.4c-1.3-0.7-2.5-1.5-3.8-2.2c-0.2-0.1-0.3-0.2-0.5-0.1
				c-3.5,1.2-7,2.3-10.5,3.5c-1.2,0.4-2.3,0.7-3.5,1.2c-0.5,0.2-0.5,0-0.5-0.3c0.2-1.2,0.3-2.4,0.5-3.6c0.2-1.6,0.4-3.3,0.7-4.9
				c0.4-2.6,0.7-5.2,1.1-7.8c0.3-2.4,0.6-4.7,0.9-7.1c0.2-1.8,0.5-3.5,0.7-5.3c0.2-1.6,0.4-3.2,0.6-4.8c0.1-1,0.3-1.9,0.4-2.9
				C103.8,82.4,104.1,82.5,104.3,82.5z"/>
		</g>
		<g>
			<path class="st1" d="M23.8,61.4c0.2,0,0.5,0.1,0.7,0.1c1,0.3,2,0.5,3,0.7c2.3,0.6,4.5,1.3,6.8,2c2,0.6,4.1,1.2,6.1,1.8
				c2.6,0.8,5.1,1.5,7.7,2.3c2.2,0.7,4.5,1.3,6.8,2c0.1,0,0.3,0.1,0.4,0.1c0.7,0.3,0.7,0.3,0.5,1c-1,3.3-2.5,6.4-3.8,9.6
				c-1,2.4-2,4.8-2.9,7.2c-1.3,3.3-2.6,6.5-4,9.8c-0.9,2.3-1.9,4.5-2.8,6.8c-1.1,2.7-2.2,5.4-3.3,8.2c-0.1,0.3-0.2,0.6-0.5,0.8
				c0,0-0.1,0-0.1,0c-1-0.6-1.7-1.4-2.5-2.2c-3.2-3-6.5-6-9.7-9c-0.3-0.3-0.6-0.4-1.1-0.3c-5.8,0.7-11.6,1.4-17.5,2
				c-0.4,0-0.9,0.2-1.3,0c0-0.2,0.1-0.3,0.1-0.5c0.3-0.7,0.5-1.4,0.7-2.1c0.7-1.8,1.5-3.6,2.2-5.4c0.9-2.3,1.9-4.6,2.9-6.9
				c0.8-1.8,1.6-3.7,2.3-5.5c1-2.5,2.1-5,3.1-7.5c1-2.4,2-4.8,3-7.1c0.9-2.3,1.9-4.5,2.8-6.8C23.4,61.9,23.5,61.6,23.8,61.4z"/>
			<path class="st2" d="M26.5,65.3c1.3,0.4,2.6,0.8,3.9,1.2c1.7,0.5,3.3,1,5,1.5c1.7,0.5,3.3,1,5,1.5c1.4,0.4,2.8,0.8,4.1,1.2
				c1.6,0.5,3.3,1,4.9,1.5c0.5,0.1,1,0.3,1.5,0.4c0.4,0.1,0.6,0.3,0.4,0.7c-0.7,1.6-1.3,3.2-2,4.8c-0.9,2.1-1.7,4.1-2.6,6.2
				c-0.9,2.3-1.8,4.6-2.8,6.9c-0.7,1.8-1.5,3.6-2.2,5.3c-0.9,2.3-1.8,4.5-2.8,6.8c-0.6,1.5-1.2,2.9-1.8,4.4
				c-0.1,0.3-0.3,0.4-0.6,0.1c-2.1-1.9-4.2-3.9-6.3-5.8c-1-1-2.1-1.9-3.1-2.9c-0.1-0.1-0.3-0.2-0.5-0.2c-3.7,0.4-7.4,0.9-11.1,1.3
				c-1.2,0.1-2.5,0.3-3.7,0.4c-0.5,0.1-0.5-0.1-0.4-0.4c0.5-1.1,1-2.3,1.4-3.4c0.7-1.6,1.3-3.1,2-4.7c1-2.5,2.1-4.9,3.1-7.4
				c0.9-2.2,1.8-4.5,2.8-6.7c0.7-1.7,1.4-3.3,2.1-5c0.6-1.5,1.2-3.1,1.9-4.6c0.4-0.9,0.8-1.8,1.1-2.7C26,65.1,26.3,65.3,26.5,65.3z"
				/>
		</g>
		<g>
			<path class="st1" d="M140,83.1c0.2,0,0.5-0.1,0.7-0.1c1,0,2.1-0.1,3.1-0.1c2.4-0.1,4.8,0,7.1,0c2.1,0,4.3,0,6.4,0
				c2.7,0,5.4,0,8.1,0c2.4,0,4.8,0,7.1,0c0.1,0,0.3,0,0.4,0c0.8,0,0.8,0.1,0.9,0.8c0.3,3.4,0.1,6.7,0.1,10.1c0,2.5,0,5.1,0,7.6
				c0,3.5,0,6.9-0.1,10.4c0,2.4,0,4.8-0.1,7.2c0,2.9,0,5.8-0.1,8.6c0,0.3,0,0.6-0.2,0.9c0,0-0.1,0-0.1,0c-1.2-0.2-2.2-0.8-3.2-1.3
				c-4.2-1.9-8.4-3.8-12.6-5.8c-0.4-0.2-0.7-0.2-1.2,0c-5.2,2.3-10.5,4.6-15.7,6.8c-0.4,0.2-0.8,0.4-1.2,0.3c0-0.2,0-0.3-0.1-0.5
				c0-0.7-0.1-1.5-0.1-2.2c-0.1-1.9,0-3.8,0-5.7c0-2.4,0.1-4.9,0.1-7.3c0-2,0.1-3.9,0.1-5.9c0-2.6,0.1-5.3,0.1-7.9
				c0-2.5,0.1-5.1,0.1-7.6c0-2.4,0.1-4.8,0.1-7.2C139.7,83.7,139.7,83.4,140,83.1z"/>
			<path class="st2" d="M143.9,86c1.4,0,2.8,0,4.1,0c1.8,0,3.5,0,5.2,0c1.8,0,3.5,0,5.3,0c1.5,0,2.9,0,4.4,0c1.7,0,3.5,0,5.2,0
				c0.5,0,1.1,0,1.6,0c0.4,0,0.7,0.1,0.7,0.5c0,1.7,0,3.4-0.1,5.1c0,2.2-0.1,4.4-0.1,6.6c0,2.4,0,4.8,0,7.3c0,1.9-0.1,3.8-0.1,5.7
				c0,2.4,0,4.8,0,7.2c0,1.6,0,3.1,0,4.7c0,0.3-0.1,0.5-0.5,0.3c-2.7-1.3-5.4-2.5-8.1-3.7c-1.4-0.6-2.7-1.3-4.1-1.9
				c-0.2-0.1-0.3-0.1-0.6,0c-3.3,1.5-6.7,2.9-10,4.4c-1.1,0.5-2.2,0.9-3.3,1.5c-0.4,0.2-0.5,0-0.5-0.3c0-1.2,0-2.4,0-3.7
				c0-1.7,0-3.3,0.1-5c0-2.6,0.1-5.2,0.1-7.9c0-2.4,0-4.7,0-7.1c0-1.8,0.1-3.5,0.1-5.3c0-1.6,0-3.2,0-4.9c0-1,0-1.9,0-2.9
				C143.4,86,143.7,86.1,143.9,86z"/>
		</g>
		<g>
			<path class="st1" d="M179.7,83.4c0.2,0,0.5-0.1,0.7-0.1c1-0.1,2-0.3,3.1-0.4c2.4-0.2,4.7-0.4,7.1-0.6c2.1-0.2,4.3-0.4,6.4-0.5
				c2.7-0.2,5.4-0.5,8.1-0.6c2.4-0.2,4.7-0.4,7.1-0.6c0.1,0,0.3,0,0.4,0c0.8,0,0.8,0,1,0.7c0.6,3.3,0.8,6.7,1.1,10.1
				c0.3,2.5,0.5,5,0.8,7.6c0.4,3.4,0.7,6.9,1,10.3c0.2,2.4,0.5,4.8,0.7,7.2c0.3,2.9,0.6,5.7,0.9,8.6c0,0.3,0.1,0.6-0.1,0.9
				c0,0-0.1,0-0.1,0c-1.2-0.2-2.2-0.7-3.3-1.1c-4.4-1.6-8.8-3.2-13.2-4.8c-0.4-0.2-0.8-0.1-1.1,0.1c-5,2.7-10,5.4-14.9,8
				c-0.4,0.2-0.7,0.5-1.2,0.4c0-0.2-0.1-0.3-0.1-0.5c-0.1-0.7-0.2-1.5-0.3-2.2c-0.3-1.9-0.4-3.8-0.6-5.7c-0.2-2.4-0.5-4.9-0.7-7.3
				c-0.2-2-0.4-3.9-0.5-5.9c-0.3-2.6-0.5-5.3-0.7-7.9c-0.2-2.5-0.5-5-0.7-7.6c-0.2-2.4-0.4-4.8-0.7-7.2
				C179.5,84,179.5,83.7,179.7,83.4z"/>
			<path class="st2" d="M183.9,86c1.4-0.1,2.7-0.2,4.1-0.3c1.7-0.1,3.5-0.3,5.2-0.4c1.7-0.1,3.5-0.3,5.2-0.4
				c1.5-0.1,2.9-0.3,4.4-0.4c1.7-0.1,3.4-0.3,5.2-0.4c0.5,0,1-0.1,1.6-0.1c0.4,0,0.7,0,0.7,0.5c0.1,1.7,0.3,3.4,0.5,5
				c0.2,2.2,0.4,4.4,0.6,6.5c0.2,2.4,0.5,4.8,0.7,7.2c0.2,1.9,0.3,3.8,0.5,5.6c0.2,2.4,0.5,4.8,0.7,7.1c0.2,1.5,0.3,3.1,0.5,4.6
				c0,0.3,0,0.5-0.5,0.3c-2.8-1-5.7-2.1-8.5-3.1c-1.4-0.5-2.8-1-4.3-1.6c-0.2-0.1-0.3-0.1-0.6,0c-3.2,1.7-6.3,3.4-9.5,5.1
				c-1.1,0.6-2.1,1.1-3.2,1.7c-0.4,0.2-0.5,0.1-0.5-0.2c-0.1-1.2-0.2-2.4-0.3-3.6c-0.2-1.6-0.3-3.3-0.4-4.9
				c-0.2-2.6-0.5-5.2-0.7-7.8c-0.2-2.4-0.5-4.7-0.7-7.1c-0.2-1.8-0.3-3.5-0.5-5.3c-0.1-1.6-0.3-3.2-0.5-4.8c-0.1-1-0.2-1.9-0.3-2.9
				C183.4,86,183.7,86.1,183.9,86z"/>
		</g>
		<g>
			<path class="st1" d="M221.3,80c0.2-0.1,0.4-0.1,0.7-0.2c1-0.2,2-0.4,3-0.6c2.3-0.5,4.7-0.8,7-1.2c2.1-0.3,4.2-0.8,6.3-1.1
				c2.7-0.4,5.3-0.9,8-1.4c2.3-0.4,4.7-0.8,7-1.2c0.1,0,0.3-0.1,0.4-0.1c0.8-0.1,0.8,0,1,0.6c1,3.3,1.6,6.6,2.3,9.9
				c0.6,2.5,1.1,5,1.6,7.5c0.8,3.4,1.5,6.8,2.3,10.2c0.5,2.4,1,4.7,1.5,7.1c0.6,2.8,1.2,5.7,1.9,8.5c0.1,0.3,0.2,0.6,0,0.9
				c0,0-0.1,0-0.1,0c-1.2,0-2.3-0.5-3.4-0.8c-4.6-1.2-9.1-2.4-13.7-3.6c-0.4-0.1-0.8-0.1-1.1,0.2c-4.6,3.1-9.3,6.2-13.9,9.3
				c-0.3,0.2-0.6,0.6-1.1,0.5c-0.1-0.2-0.1-0.3-0.2-0.5c-0.1-0.7-0.4-1.4-0.6-2.1c-0.5-1.9-0.8-3.7-1.2-5.6c-0.5-2.4-1-4.8-1.6-7.2
				c-0.4-1.9-0.8-3.9-1.2-5.8c-0.6-2.6-1.1-5.2-1.7-7.8c-0.5-2.5-1.1-5-1.6-7.5c-0.5-2.4-1-4.8-1.5-7.1
				C221.2,80.6,221.1,80.3,221.3,80z"/>
			<path class="st2" d="M225.8,82.2c1.4-0.2,2.7-0.5,4-0.7c1.7-0.3,3.4-0.6,5.2-0.9c1.7-0.3,3.4-0.6,5.2-0.9
				c1.4-0.2,2.9-0.5,4.3-0.7c1.7-0.3,3.4-0.6,5.1-0.9c0.5-0.1,1-0.2,1.5-0.3c0.4-0.1,0.7,0,0.8,0.4c0.3,1.7,0.7,3.3,1.1,5
				c0.5,2.2,0.9,4.3,1.4,6.5c0.5,2.4,1.1,4.8,1.6,7.1c0.4,1.9,0.8,3.7,1.2,5.6c0.5,2.3,1.1,4.7,1.6,7c0.3,1.5,0.7,3.1,1,4.6
				c0.1,0.3,0,0.5-0.4,0.4c-2.9-0.8-5.9-1.6-8.8-2.3c-1.5-0.4-2.9-0.8-4.4-1.2c-0.2-0.1-0.4-0.1-0.5,0.1c-3,2-5.9,4-8.9,5.9
				c-1,0.7-2,1.3-3,2c-0.4,0.3-0.5,0.1-0.5-0.2c-0.3-1.2-0.5-2.4-0.8-3.6c-0.3-1.6-0.7-3.3-1-4.9c-0.5-2.6-1.1-5.2-1.6-7.7
				c-0.5-2.3-1-4.7-1.5-7c-0.4-1.7-0.7-3.5-1.1-5.2c-0.3-1.6-0.7-3.2-1.1-4.8c-0.2-1-0.4-1.9-0.6-2.9
				C225.3,82.2,225.6,82.3,225.8,82.2z"/>
		</g>
		<g>
			<path class="st1" d="M262.2,72.3c0.2-0.1,0.4-0.2,0.6-0.2c1-0.2,1.9-0.6,2.9-0.9c2.3-0.6,4.6-1.2,6.9-1.7
				c2.1-0.5,4.1-1.1,6.2-1.5c2.6-0.6,5.2-1.3,7.8-1.9c2.3-0.5,4.6-1.1,6.9-1.7c0.1,0,0.3-0.1,0.4-0.1c0.8-0.2,0.8-0.1,1.1,0.5
				c1.3,3.2,2.2,6.5,3.3,9.7c0.8,2.4,1.6,4.9,2.4,7.3c1.1,3.3,2.2,6.6,3.2,10c0.7,2.3,1.5,4.6,2.2,6.9c0.9,2.8,1.8,5.6,2.7,8.3
				c0.1,0.3,0.2,0.6,0.1,0.9c0,0-0.1,0-0.1,0c-1.2,0-2.3-0.3-3.5-0.5c-4.7-0.9-9.3-1.7-14-2.6c-0.4-0.1-0.8,0-1.1,0.3
				c-4.3,3.4-8.6,6.8-13,10.3c-0.3,0.3-0.6,0.6-1.1,0.6c-0.1-0.2-0.2-0.3-0.2-0.5c-0.2-0.7-0.5-1.4-0.8-2.1
				c-0.7-1.8-1.2-3.6-1.8-5.5c-0.8-2.4-1.5-4.7-2.3-7.1c-0.6-1.9-1.2-3.8-1.8-5.7c-0.8-2.6-1.6-5.1-2.4-7.7
				c-0.8-2.4-1.5-4.9-2.3-7.3c-0.7-2.3-1.4-4.7-2.2-7C262.2,72.9,262,72.7,262.2,72.3z"/>
			<path class="st2" d="M266.9,74.2c1.3-0.3,2.7-0.6,4-1c1.7-0.4,3.4-0.8,5-1.2c1.7-0.4,3.4-0.8,5-1.2c1.4-0.3,2.8-0.7,4.2-1.1
				c1.7-0.4,3.3-0.8,5-1.2c0.5-0.1,1-0.3,1.5-0.4c0.4-0.1,0.7-0.1,0.8,0.4c0.5,1.6,1,3.3,1.6,4.9c0.7,2.1,1.3,4.2,2,6.3
				c0.8,2.3,1.5,4.7,2.3,7c0.6,1.8,1.1,3.6,1.7,5.5c0.7,2.3,1.5,4.6,2.3,6.9c0.5,1.5,1,3,1.5,4.5c0.1,0.3,0.1,0.5-0.4,0.4
				c-3-0.6-6-1.1-9-1.7c-1.5-0.3-3-0.6-4.5-0.8c-0.2,0-0.4,0-0.5,0.1c-2.7,2.2-5.5,4.4-8.3,6.6c-0.9,0.7-1.9,1.4-2.8,2.2
				c-0.4,0.3-0.5,0.2-0.6-0.1c-0.4-1.2-0.7-2.4-1.1-3.5c-0.5-1.6-1-3.2-1.5-4.8c-0.8-2.5-1.6-5.1-2.4-7.6c-0.7-2.3-1.5-4.6-2.2-6.9
				c-0.5-1.7-1-3.4-1.6-5.1c-0.5-1.6-1-3.1-1.5-4.7c-0.3-0.9-0.6-1.9-0.9-2.8C266.4,74.3,266.8,74.3,266.9,74.2z"/>
		</g>
	</g>
	<text transform="matrix(1.1038 0.1082 -0.1204 0.9927 87.8182 44.9274)" class="st3 st4">J</text>
	<text transform="matrix(1.1115 2.522493e-02 -2.804000e-02 0.9996 128.7811 49.1391)" class="st3 st5">U</text>
	<text transform="matrix(1.1117 -1.523262e-02 1.694000e-02 0.9999 173.2218 49.1411)" class="st3 st6">S</text>
	<text transform="matrix(1.1085 -6.977668e-02 7.759000e-02 0.997 216.7287 48.3997)" class="st3 st7">T</text>
	<text transform="matrix(1.0159 0.3656 -0.4065 0.9137 21.5864 88.9393)" class="st3 st8">M</text>
	<text transform="matrix(1.0676 0.2514 -0.2795 0.9602 64.0203 100.2363)" class="st3 st9">A</text>
	<text transform="matrix(1.1079 7.612614e-02 -8.465000e-02 0.9964 107.3629 107.793)" class="st3 st10">R</text>
	<text transform="matrix(1.1115 2.385794e-02 -2.652000e-02 0.9997 149.5989 109.8162)" class="st3 st11">R</text>
	<text transform="matrix(1.1064 -8.897840e-02 9.894001e-02 0.9951 196.3115 109.8635)" class="st3 st12">I</text>
	<text transform="matrix(1.0909 -0.1738 0.1933 0.9811 236.5414 104.546)" class="st3 st13">E</text>
	<text transform="matrix(1.0644 -0.2602 0.2893 0.9572 280.2487 96.6168)" class="st3 st14">D</text>
	<path class="st15" d="M46,30.2c0.5-1.9,3-3.2,4.8-3.4c2.4-0.2,4.3,0.6,5.6,2.4c0.4,0.6,0.4,0.6,1.2,0.2c2.1-1,4.2-0.9,6.2,0.2
		c2.1,1.1,3.8,4.4,1.3,7c-1.7,1.8-3.9,2.9-6.2,3.9c-1.6,0.7-3.2,1.1-4.9,1.5c-0.5,0.1-0.9,0.1-1.4-0.2c-2.7-2.1-4.8-4.6-6.2-7.5
		C45.8,32.9,45.6,31.3,46,30.2z"/>
	<path class="st15" d="M253.2,35.7c-0.4-1.9,1.3-4,2.9-4.7c2.2-1,4.3-0.9,6.3,0.3c0.7,0.4,0.7,0.4,1.2-0.2c1.5-1.6,3.4-2.3,5.8-1.9
		c2.4,0.3,5.5,2.8,4.4,6.1c-0.8,2.2-2.2,4-3.9,5.7c-1.1,1.1-2.4,2.1-3.8,3c-0.4,0.3-0.8,0.4-1.4,0.2c-3.4-1.1-6.5-2.6-9.1-4.9
		C254.3,38.3,253.4,36.9,253.2,35.7z"/>
</g>
</svg>
