<?xml version="1.0" encoding="utf-8"?>
<!-- Generator: Adobe Illustrator 19.2.1, SVG Export Plug-In . SVG Version: 6.00 Build 0)  -->
<svg version="1.1" id="Layer_1" xmlns="http://www.w3.org/2000/svg" xmlns:xlink="http://www.w3.org/1999/xlink" x="0px" y="0px"
	 viewBox="0 0 188.1 178.2" style="enable-background:new 0 0 188.1 178.2;" xml:space="preserve">
<style type="text/css">
	.st0{fill:#46403B;}
	.st1{fill-rule:evenodd;clip-rule:evenodd;fill:#46403B;}
	.st2{fill:#FFFFFF;}
	.st3{font-family:'Futura-Medium';}
	.st4{font-size:18.0361px;}
</style>
<g>
	<g>
		<path class="st0" d="M94,16.6c22.3,0,42.5,9,57.1,23.7c12.5,12.5,21,29.2,23.1,47.7h-2.1c0-0.4-0.1-0.8-0.2-1.2l-2,0.3
			c0,0.3,0.1,0.6,0.1,0.9h-0.6c-2.1-17.2-10-32.7-21.7-44.3C134,29.8,115,21.3,94,21.3s-40,8.5-53.8,22.3
			C28.6,55.3,20.7,70.7,18.5,87.9h-0.6c0-0.3,0.1-0.6,0.1-0.9l-2-0.3c-0.1,0.4-0.1,0.8-0.2,1.2h-2.1c2.2-18.5,10.6-35.2,23.1-47.7
			C51.5,25.6,71.7,16.6,94,16.6L94,16.6z M170.9,122.5c-4,12.2-10.8,23.2-19.7,32.1c-14.6,14.6-34.8,23.7-57.1,23.7
			c-22.3,0-42.5-9-57.1-23.7c-8.9-8.9-15.7-19.9-19.7-32.1h2.2c0.2,0.5,0.4,1.1,0.6,1.6l1.9-0.7c-0.1-0.3-0.2-0.6-0.3-0.9h0.6
			c3.8,10.9,10,20.7,18.1,28.7C54,165,73,173.5,94,173.5s40-8.5,53.8-22.3c8-8,14.2-17.8,18.1-28.7h0.6c-0.1,0.3-0.2,0.6-0.3,0.9
			l1.9,0.7c0.2-0.5,0.4-1.1,0.6-1.6H170.9L170.9,122.5z M93.7,20.7l0-2.1c-0.7,0-1.4,0-2.2,0l0.1,2.1C92.3,20.8,93,20.7,93.7,20.7
			L93.7,20.7z M94.3,18.7l0,2.1c0.7,0,1.4,0,2.1,0l0.1-2.1C95.8,18.7,95,18.7,94.3,18.7L94.3,18.7z M97.1,18.7L97,20.8
			c0.7,0,1.4,0.1,2.1,0.1l0.1-2.1C98.5,18.8,97.8,18.8,97.1,18.7L97.1,18.7z M99.8,18.9l-0.1,2.1c0.7,0,1.4,0.1,2.1,0.2l0.2-2.1
			C101.2,19,100.5,18.9,99.8,18.9L99.8,18.9z M102.6,19.1l-0.2,2.1c0.7,0.1,1.4,0.2,2.1,0.3l0.3-2C104,19.3,103.3,19.2,102.6,19.1
			L102.6,19.1z M105.3,19.5l-0.3,2c0.7,0.1,1.4,0.2,2.1,0.3l0.4-2C106.7,19.7,106,19.6,105.3,19.5L105.3,19.5z M108,19.9l-0.4,2
			c0.7,0.1,1.4,0.3,2,0.4l0.4-2C109.4,20.2,108.7,20,108,19.9L108,19.9z M110.7,20.4l-0.4,2c0.7,0.1,1.4,0.3,2,0.5l0.5-2
			C112.1,20.8,111.4,20.6,110.7,20.4L110.7,20.4z M113.4,21.1l-0.5,2c0.7,0.2,1.3,0.3,2,0.5l0.6-2C114.8,21.4,114.1,21.2,113.4,21.1
			L113.4,21.1z M116,21.8l-0.6,2c0.7,0.2,1.3,0.4,2,0.6l0.6-2C117.4,22.2,116.7,22,116,21.8L116,21.8z M118.6,22.6l-0.6,2
			c0.7,0.2,1.3,0.4,2,0.7l0.7-1.9C120,23.1,119.3,22.8,118.6,22.6L118.6,22.6z M121.2,23.5l-0.7,1.9c0.7,0.2,1.3,0.5,1.9,0.7
			l0.8-1.9C122.6,24,121.9,23.8,121.2,23.5L121.2,23.5z M123.8,24.5l-0.8,1.9c0.6,0.3,1.3,0.5,1.9,0.8l0.8-1.9
			C125.1,25.1,124.5,24.8,123.8,24.5L123.8,24.5z M126.3,25.6l-0.8,1.9c0.6,0.3,1.3,0.6,1.9,0.9l0.9-1.9
			C127.6,26.2,127,25.9,126.3,25.6L126.3,25.6z M128.8,26.8l-0.9,1.9c0.6,0.3,1.2,0.6,1.9,0.9l1-1.8
			C130.1,27.4,129.5,27.1,128.8,26.8L128.8,26.8z M131.3,28l-1,1.8c0.6,0.3,1.2,0.7,1.8,1l1-1.8C132.5,28.7,131.9,28.4,131.3,28
			L131.3,28z M133.7,29.4l-1,1.8c0.6,0.4,1.2,0.7,1.8,1.1l1.1-1.8C134.9,30.1,134.3,29.7,133.7,29.4L133.7,29.4z M136,30.8l-1.1,1.8
			c0.6,0.4,1.2,0.7,1.7,1.1l1.2-1.7C137.2,31.6,136.6,31.2,136,30.8L136,30.8z M138.3,32.3l-1.2,1.7c0.6,0.4,1.1,0.8,1.7,1.2
			l1.2-1.7C139.5,33.1,138.9,32.7,138.3,32.3L138.3,32.3z M140.5,33.9l-1.2,1.7c0.6,0.4,1.1,0.8,1.7,1.3l1.3-1.6
			C141.7,34.7,141.1,34.3,140.5,33.9L140.5,33.9z M142.7,35.5l-1.3,1.6c0.5,0.4,1.1,0.9,1.6,1.3l1.3-1.6
			C143.9,36.4,143.3,36,142.7,35.5L142.7,35.5z M144.9,37.3l-1.3,1.6c0.5,0.4,1.1,0.9,1.6,1.4l1.4-1.5
			C146,38.2,145.4,37.8,144.9,37.3L144.9,37.3z M146.9,39.1l-1.4,1.5c0.5,0.5,1,0.9,1.5,1.4l1.4-1.5C148,40.1,147.5,39.6,146.9,39.1
			L146.9,39.1z M148.9,41l-1.4,1.5c0.2,0.2,0.5,0.5,0.7,0.7c0.2,0.2,0.5,0.5,0.7,0.7l1.5-1.4c-0.3-0.3-0.5-0.5-0.8-0.8
			C149.4,41.5,149.2,41.2,148.9,41L148.9,41z M150.9,42.9l-1.5,1.4c0.5,0.5,1,1,1.4,1.5l1.5-1.4C151.9,44,151.4,43.4,150.9,42.9
			L150.9,42.9z M152.7,44.9l-1.5,1.4c0.5,0.5,0.9,1,1.4,1.6l1.6-1.3C153.7,46,153.2,45.5,152.7,44.9L152.7,44.9z M154.5,47l-1.6,1.3
			c0.4,0.5,0.9,1.1,1.3,1.6l1.6-1.3C155.4,48.1,155,47.6,154.5,47L154.5,47z M156.2,49.2l-1.6,1.3c0.4,0.5,0.8,1.1,1.3,1.7l1.7-1.2
			C157.1,50.3,156.7,49.7,156.2,49.2L156.2,49.2z M157.9,51.4l-1.7,1.2c0.4,0.6,0.8,1.1,1.2,1.7l1.7-1.2
			C158.7,52.5,158.3,52,157.9,51.4L157.9,51.4z M159.5,53.6l-1.7,1.2c0.4,0.6,0.8,1.2,1.1,1.7l1.8-1.1
			C160.3,54.8,159.9,54.2,159.5,53.6L159.5,53.6z M161,55.9l-1.8,1.1c0.4,0.6,0.7,1.2,1.1,1.8l1.8-1C161.7,57.2,161.3,56.5,161,55.9
			L161,55.9z M162.4,58.3l-1.8,1c0.3,0.6,0.7,1.2,1,1.8l1.8-1C163.1,59.5,162.7,58.9,162.4,58.3L162.4,58.3z M163.7,60.7l-1.8,1
			c0.3,0.6,0.6,1.2,0.9,1.9l1.9-0.9C164.4,62,164,61.3,163.7,60.7L163.7,60.7z M164.9,63.2l-1.9,0.9c0.3,0.6,0.6,1.3,0.9,1.9
			l1.9-0.8C165.5,64.5,165.2,63.8,164.9,63.2L164.9,63.2z M166.1,65.6l-1.9,0.8c0.3,0.6,0.6,1.3,0.8,1.9l1.9-0.8
			C166.7,67,166.4,66.3,166.1,65.6L166.1,65.6z M167.1,68.2l-1.9,0.8c0.3,0.6,0.5,1.3,0.7,1.9l1.9-0.7
			C167.7,69.5,167.4,68.8,167.1,68.2L167.1,68.2z M168.1,70.8l-1.9,0.7c0.2,0.7,0.5,1.3,0.7,2l2-0.6
			C168.6,72.1,168.4,71.4,168.1,70.8L168.1,70.8z M169,73.4l-2,0.6c0.2,0.7,0.4,1.3,0.6,2l2-0.6C169.4,74.7,169.2,74,169,73.4
			L169,73.4z M169.8,76l-2,0.6c0.2,0.7,0.4,1.3,0.5,2l2-0.5C170.2,77.4,170,76.7,169.8,76L169.8,76z M170.5,78.6l-2,0.5
			c0.2,0.7,0.3,1.4,0.5,2l2-0.4C170.8,80,170.7,79.3,170.5,78.6L170.5,78.6z M171.1,81.3l-2,0.4c0.1,0.7,0.3,1.4,0.4,2l2-0.4
			C171.4,82.7,171.3,82,171.1,81.3L171.1,81.3z M171.6,84l-2,0.4c0.1,0.7,0.2,1.4,0.3,2.1l2-0.3C171.9,85.4,171.7,84.7,171.6,84
			L171.6,84z M167.9,124.6l-1.9-0.7c-0.2,0.7-0.5,1.3-0.7,1.9l1.9,0.8C167.4,126,167.7,125.3,167.9,124.6L167.9,124.6z M166.9,127.2
			l-1.9-0.8c-0.3,0.6-0.5,1.3-0.8,1.9l1.9,0.8C166.4,128.5,166.7,127.8,166.9,127.2L166.9,127.2z M165.8,129.7l-1.9-0.8
			c-0.3,0.6-0.6,1.3-0.9,1.9l1.9,0.9C165.2,131,165.5,130.4,165.8,129.7L165.8,129.7z M164.7,132.2l-1.9-0.9
			c-0.3,0.6-0.6,1.2-0.9,1.9l1.8,1C164,133.5,164.3,132.8,164.7,132.2L164.7,132.2z M163.4,134.6l-1.8-1c-0.3,0.6-0.7,1.2-1,1.8
			l1.8,1C162.7,135.9,163.1,135.3,163.4,134.6L163.4,134.6z M162.1,137l-1.8-1c-0.3,0.6-0.7,1.2-1.1,1.8l1.7,1.1
			C161.3,138.3,161.7,137.7,162.1,137L162.1,137z M160.6,139.4l-1.8-1.1c-0.4,0.6-0.7,1.2-1.1,1.7l1.7,1.2
			C159.9,140.6,160.3,140,160.6,139.4L160.6,139.4z M159.1,141.7l-1.7-1.2c-0.4,0.6-0.8,1.1-1.2,1.7l1.7,1.2
			C158.3,142.9,158.7,142.3,159.1,141.7L159.1,141.7z M157.5,143.9l-1.7-1.2c-0.4,0.6-0.8,1.1-1.3,1.7l1.6,1.3
			C156.7,145.1,157.1,144.5,157.5,143.9L157.5,143.9z M155.9,146.1l-1.6-1.3c-0.4,0.5-0.9,1.1-1.3,1.6l1.6,1.3
			C155,147.2,155.4,146.7,155.9,146.1L155.9,146.1z M154.1,148.2l-1.6-1.3c-0.4,0.5-0.9,1.1-1.4,1.6l1.5,1.4
			C153.2,149.3,153.7,148.8,154.1,148.2L154.1,148.2z M152.3,150.3l-1.5-1.4c-0.5,0.5-0.9,1-1.4,1.5l1.5,1.4
			C151.4,151.4,151.8,150.8,152.3,150.3L152.3,150.3z M150.5,152.3l-1.5-1.4c-0.2,0.2-0.5,0.5-0.7,0.7c-0.2,0.2-0.5,0.5-0.7,0.7
			l1.4,1.5c0.3-0.3,0.5-0.5,0.8-0.8C149.9,152.8,150.2,152.6,150.5,152.3L150.5,152.3z M148.5,154.2l-1.4-1.5c-0.5,0.5-1,1-1.5,1.4
			l1.4,1.5C147.5,155.2,148,154.7,148.5,154.2L148.5,154.2z M146.5,156.1l-1.4-1.5c-0.5,0.5-1,0.9-1.6,1.4l1.3,1.6
			C145.4,157.1,145.9,156.6,146.5,156.1L146.5,156.1z M144.4,157.9l-1.3-1.6c-0.5,0.4-1.1,0.9-1.6,1.3l1.3,1.6
			C143.3,158.8,143.9,158.4,144.4,157.9L144.4,157.9z M142.3,159.6L141,158c-0.5,0.4-1.1,0.8-1.7,1.3l1.2,1.7
			C141.1,160.5,141.7,160.1,142.3,159.6L142.3,159.6z M140.1,161.3l-1.2-1.7c-0.6,0.4-1.1,0.8-1.7,1.2l1.2,1.7
			C138.9,162.1,139.5,161.7,140.1,161.3L140.1,161.3z M137.8,162.8l-1.2-1.7c-0.6,0.4-1.2,0.8-1.7,1.1l1.1,1.8
			C136.6,163.6,137.2,163.2,137.8,162.8L137.8,162.8z M135.5,164.3l-1.1-1.8c-0.6,0.4-1.2,0.7-1.8,1.1l1,1.8
			C134.3,165.1,134.9,164.7,135.5,164.3L135.5,164.3z M133.1,165.7l-1-1.8c-0.6,0.3-1.2,0.7-1.8,1l1,1.8
			C131.9,166.4,132.5,166.1,133.1,165.7L133.1,165.7z M130.7,167.1l-1-1.8c-0.6,0.3-1.2,0.6-1.9,0.9l0.9,1.9
			C129.5,167.7,130.1,167.4,130.7,167.1L130.7,167.1z M128.3,168.3l-0.9-1.9c-0.6,0.3-1.3,0.6-1.9,0.9l0.8,1.9
			C127,168.9,127.6,168.6,128.3,168.3L128.3,168.3z M125.8,169.5l-0.8-1.9c-0.6,0.3-1.3,0.6-1.9,0.8l0.8,1.9
			C124.5,170,125.1,169.8,125.8,169.5L125.8,169.5z M123.2,170.5l-0.8-1.9c-0.6,0.3-1.3,0.5-1.9,0.7l0.7,1.9
			C121.9,171.1,122.6,170.8,123.2,170.5L123.2,170.5z M120.7,171.5l-0.7-1.9c-0.7,0.2-1.3,0.5-2,0.7l0.6,2
			C119.3,172,120,171.7,120.7,171.5L120.7,171.5z M118.1,172.4l-0.6-2c-0.7,0.2-1.3,0.4-2,0.6l0.6,2
			C116.7,172.8,117.4,172.6,118.1,172.4L118.1,172.4z M115.4,173.2l-0.6-2c-0.7,0.2-1.3,0.4-2,0.5l0.5,2
			C114.1,173.6,114.8,173.4,115.4,173.2L115.4,173.2z M112.8,173.9l-0.5-2c-0.7,0.2-1.3,0.3-2,0.5l0.4,2
			C111.4,174.2,112.1,174.1,112.8,173.9L112.8,173.9z M110.1,174.5l-0.4-2c-0.7,0.1-1.4,0.3-2,0.4l0.4,2
			C108.7,174.8,109.4,174.6,110.1,174.5L110.1,174.5z M107.4,175l-0.4-2c-0.7,0.1-1.4,0.2-2.1,0.3l0.3,2
			C106,175.2,106.7,175.1,107.4,175L107.4,175z M104.7,175.4l-0.3-2c-0.7,0.1-1.4,0.2-2.1,0.3l0.2,2.1
			C103.3,175.6,104,175.5,104.7,175.4L104.7,175.4z M102,175.7l-0.2-2.1c-0.7,0.1-1.4,0.1-2.1,0.2l0.1,2.1
			C100.5,175.9,101.2,175.8,102,175.7L102,175.7z M99.2,176l-0.1-2.1c-0.7,0-1.4,0.1-2.1,0.1l0.1,2.1C97.8,176,98.5,176,99.2,176
			L99.2,176z M96.5,176.1l-0.1-2.1c-0.7,0-1.4,0-2.1,0l0,2.1C95,176.1,95.8,176.1,96.5,176.1L96.5,176.1z M93.7,176.1l0-2.1
			c-0.7,0-1.4,0-2.1,0l-0.1,2.1C92.3,176.1,93,176.1,93.7,176.1L93.7,176.1z M91,176.1l0.1-2.1c-0.7,0-1.4-0.1-2.1-0.1l-0.1,2.1
			C89.5,176,90.3,176.1,91,176.1L91,176.1z M88.2,175.9l0.1-2.1c-0.7-0.1-1.4-0.1-2.1-0.2l-0.2,2.1
			C86.8,175.8,87.5,175.9,88.2,175.9L88.2,175.9z M85.5,175.7l0.2-2.1c-0.7-0.1-1.4-0.2-2.1-0.3l-0.3,2
			C84.1,175.5,84.8,175.6,85.5,175.7L85.5,175.7z M82.8,175.3l0.3-2c-0.7-0.1-1.4-0.2-2.1-0.3l-0.4,2
			C81.4,175.1,82.1,175.2,82.8,175.3L82.8,175.3z M80.1,174.9l0.4-2c-0.7-0.1-1.4-0.3-2-0.4l-0.4,2
			C78.6,174.6,79.3,174.8,80.1,174.9L80.1,174.9z M77.4,174.4l0.4-2c-0.7-0.1-1.4-0.3-2-0.5l-0.5,2C76,174.1,76.7,174.2,77.4,174.4
			L77.4,174.4z M74.7,173.7l0.5-2c-0.7-0.2-1.3-0.3-2-0.5l-0.6,2C73.3,173.4,74,173.6,74.7,173.7L74.7,173.7z M72,173l0.6-2
			c-0.7-0.2-1.3-0.4-2-0.6l-0.6,2C70.7,172.6,71.3,172.8,72,173L72,173z M69.4,172.2l0.6-2c-0.7-0.2-1.3-0.4-2-0.7l-0.7,1.9
			C68,171.7,68.7,172,69.4,172.2L69.4,172.2z M66.8,171.3l0.7-1.9c-0.7-0.2-1.3-0.5-1.9-0.7l-0.8,1.9
			C65.5,170.8,66.1,171.1,66.8,171.3L66.8,171.3z M64.2,170.3l0.8-1.9c-0.6-0.3-1.3-0.5-1.9-0.8l-0.8,1.9
			C62.9,169.8,63.6,170,64.2,170.3L64.2,170.3z M61.7,169.2l0.8-1.9c-0.6-0.3-1.3-0.6-1.9-0.9l-0.9,1.9
			C60.4,168.6,61.1,168.9,61.7,169.2L61.7,169.2z M59.2,168l0.9-1.9c-0.6-0.3-1.2-0.6-1.9-0.9l-1,1.8C58,167.4,58.6,167.7,59.2,168
			L59.2,168z M56.8,166.8l1-1.8c-0.6-0.3-1.2-0.7-1.8-1l-1,1.8C55.5,166.1,56.2,166.4,56.8,166.8L56.8,166.8z M54.4,165.4l1-1.8
			c-0.6-0.3-1.2-0.7-1.8-1.1l-1.1,1.8C53.2,164.7,53.8,165.1,54.4,165.4L54.4,165.4z M52,164l1.1-1.8c-0.6-0.4-1.2-0.7-1.7-1.1
			l-1.2,1.7C50.8,163.2,51.4,163.6,52,164L52,164z M49.8,162.5l1.2-1.7c-0.6-0.4-1.1-0.8-1.7-1.2l-1.2,1.7
			C48.6,161.7,49.2,162.1,49.8,162.5L49.8,162.5z M47.5,160.9l1.2-1.7c-0.6-0.4-1.1-0.8-1.7-1.3l-1.3,1.6
			C46.4,160.1,46.9,160.5,47.5,160.9L47.5,160.9z M45.3,159.3l1.3-1.6c-0.5-0.4-1.1-0.9-1.6-1.3l-1.3,1.6
			C44.2,158.4,44.8,158.8,45.3,159.3L45.3,159.3z M43.2,157.5l1.3-1.6c-0.5-0.4-1.1-0.9-1.6-1.4l-1.4,1.5
			C42.1,156.6,42.6,157.1,43.2,157.5L43.2,157.5z M41.1,155.7l1.4-1.5c-0.5-0.5-1-0.9-1.5-1.4l-1.4,1.5
			C40.1,154.7,40.6,155.2,41.1,155.7L41.1,155.7z M39.1,153.8l1.4-1.5c-0.2-0.2-0.5-0.5-0.7-0.7c-0.2-0.2-0.5-0.5-0.7-0.7l-1.5,1.4
			c0.2,0.3,0.5,0.5,0.8,0.8C38.6,153.3,38.9,153.6,39.1,153.8L39.1,153.8z M37.2,151.9l1.5-1.4c-0.5-0.5-1-1-1.4-1.5l-1.5,1.4
			C36.2,150.8,36.7,151.4,37.2,151.9L37.2,151.9z M35.3,149.9l1.5-1.4c-0.5-0.5-0.9-1-1.4-1.6l-1.6,1.3
			C34.4,148.8,34.8,149.3,35.3,149.9L35.3,149.9z M33.5,147.8l1.6-1.3c-0.4-0.5-0.9-1.1-1.3-1.6l-1.6,1.3
			C32.6,146.7,33.1,147.2,33.5,147.8L33.5,147.8z M31.8,145.6l1.6-1.3c-0.4-0.5-0.8-1.1-1.3-1.7l-1.7,1.2
			C30.9,144.5,31.4,145.1,31.8,145.6L31.8,145.6z M30.2,143.4l1.7-1.2c-0.4-0.6-0.8-1.1-1.2-1.7l-1.7,1.2
			C29.3,142.3,29.7,142.9,30.2,143.4L30.2,143.4z M28.6,141.2l1.7-1.2c-0.4-0.6-0.8-1.2-1.1-1.7l-1.8,1.1
			C27.8,140,28.2,140.6,28.6,141.2L28.6,141.2z M27.1,138.9l1.8-1.1c-0.4-0.6-0.7-1.2-1.1-1.8l-1.8,1
			C26.3,137.7,26.7,138.3,27.1,138.9L27.1,138.9z M25.7,136.5l1.8-1c-0.3-0.6-0.7-1.2-1-1.8l-1.8,1C25,135.3,25.3,135.9,25.7,136.5
			L25.7,136.5z M24.4,134.1l1.8-1c-0.3-0.6-0.6-1.2-0.9-1.9l-1.9,0.9C23.7,132.8,24,133.5,24.4,134.1L24.4,134.1z M23.1,131.7
			l1.9-0.9c-0.3-0.6-0.6-1.3-0.9-1.9l-1.9,0.8C22.5,130.4,22.8,131,23.1,131.7L23.1,131.7z M22,129.2l1.9-0.8
			c-0.3-0.6-0.6-1.3-0.8-1.9l-1.9,0.8C21.4,127.8,21.7,128.5,22,129.2L22,129.2z M20.9,126.6l1.9-0.8c-0.3-0.6-0.5-1.3-0.7-1.9
			l-1.9,0.7C20.4,125.3,20.6,126,20.9,126.6L20.9,126.6z M16.1,86.2l2,0.3c0.1-0.7,0.2-1.4,0.3-2.1l-2-0.4
			C16.3,84.7,16.2,85.4,16.1,86.2L16.1,86.2z M16.5,83.4l2,0.4c0.1-0.7,0.3-1.4,0.4-2l-2-0.4C16.8,82,16.7,82.7,16.5,83.4L16.5,83.4
			z M17.1,80.7l2,0.4c0.1-0.7,0.3-1.4,0.5-2l-2-0.5C17.4,79.3,17.2,80,17.1,80.7L17.1,80.7z M17.7,78.1l2,0.5c0.2-0.7,0.3-1.3,0.5-2
			l-2-0.6C18.1,76.7,17.9,77.4,17.7,78.1L17.7,78.1z M18.4,75.4l2,0.6c0.2-0.7,0.4-1.3,0.6-2l-2-0.6C18.8,74,18.6,74.7,18.4,75.4
			L18.4,75.4z M19.2,72.8l2,0.6c0.2-0.7,0.4-1.3,0.7-2l-1.9-0.7C19.7,71.4,19.4,72.1,19.2,72.8L19.2,72.8z M20.1,70.2l1.9,0.7
			c0.2-0.7,0.5-1.3,0.7-1.9l-1.9-0.8C20.6,68.8,20.4,69.5,20.1,70.2L20.1,70.2z M21.1,67.6l1.9,0.8c0.3-0.6,0.5-1.3,0.8-1.9L22,65.6
			C21.7,66.3,21.4,67,21.1,67.6L21.1,67.6z M22.2,65.1l1.9,0.8c0.3-0.6,0.6-1.3,0.9-1.9l-1.9-0.9C22.8,63.8,22.5,64.4,22.2,65.1
			L22.2,65.1z M23.4,62.6l1.9,0.9c0.3-0.6,0.6-1.2,0.9-1.9l-1.8-1C24,61.3,23.7,62,23.4,62.6L23.4,62.6z M24.6,60.2l1.8,1
			c0.3-0.6,0.7-1.2,1-1.8l-1.8-1C25.3,58.9,25,59.5,24.6,60.2L24.6,60.2z M26,57.8l1.8,1c0.4-0.6,0.7-1.2,1.1-1.8l-1.8-1.1
			C26.7,56.5,26.3,57.2,26,57.8L26,57.8z M27.4,55.4l1.8,1.1c0.4-0.6,0.7-1.2,1.1-1.7l-1.7-1.2C28.2,54.2,27.8,54.8,27.4,55.4
			L27.4,55.4z M28.9,53.1l1.7,1.2c0.4-0.6,0.8-1.1,1.2-1.7l-1.7-1.2C29.7,52,29.3,52.5,28.9,53.1L28.9,53.1z M30.5,50.9l1.7,1.2
			c0.4-0.6,0.8-1.1,1.3-1.7l-1.6-1.3C31.4,49.7,30.9,50.3,30.5,50.9L30.5,50.9z M32.2,48.7l1.6,1.3c0.4-0.5,0.9-1.1,1.3-1.6L33.5,47
			C33.1,47.6,32.6,48.1,32.2,48.7L32.2,48.7z M33.9,46.6l1.6,1.3c0.5-0.5,0.9-1.1,1.4-1.6l-1.5-1.4C34.8,45.5,34.4,46,33.9,46.6
			L33.9,46.6z M35.7,44.5l1.5,1.4c0.5-0.5,0.9-1,1.4-1.5l-1.5-1.4C36.7,43.4,36.2,44,35.7,44.5L35.7,44.5z M37.6,42.5l1.5,1.4
			c0.2-0.2,0.5-0.5,0.7-0.7c0.2-0.2,0.5-0.5,0.7-0.7L39.1,41c-0.3,0.2-0.5,0.5-0.8,0.8C38.1,42,37.8,42.2,37.6,42.5L37.6,42.5z
			 M39.5,40.6l1.4,1.5c0.5-0.5,1-1,1.5-1.4l-1.4-1.5C40.6,39.6,40.1,40.1,39.5,40.6L39.5,40.6z M41.6,38.7l1.4,1.5
			c0.5-0.5,1-0.9,1.6-1.4l-1.3-1.6C42.6,37.7,42.1,38.2,41.6,38.7L41.6,38.7z M43.6,36.9l1.3,1.6c0.5-0.4,1.1-0.9,1.6-1.3l-1.3-1.6
			C44.8,36,44.2,36.4,43.6,36.9L43.6,36.9z M45.8,35.2l1.3,1.6c0.5-0.4,1.1-0.8,1.7-1.3l-1.2-1.7C46.9,34.3,46.4,34.7,45.8,35.2
			L45.8,35.2z M48,33.5l1.2,1.7c0.6-0.4,1.1-0.8,1.7-1.2l-1.2-1.7C49.2,32.7,48.6,33.1,48,33.5L48,33.5z M50.2,32l1.2,1.7
			c0.6-0.4,1.2-0.8,1.7-1.1L52,30.8C51.4,31.2,50.8,31.6,50.2,32L50.2,32z M52.6,30.5l1.1,1.8c0.6-0.4,1.2-0.7,1.8-1.1l-1-1.8
			C53.8,29.7,53.2,30.1,52.6,30.5L52.6,30.5z M54.9,29.1l1,1.8c0.6-0.3,1.2-0.7,1.8-1l-1-1.8C56.2,28.4,55.5,28.7,54.9,29.1
			L54.9,29.1z M57.3,27.7l1,1.8c0.6-0.3,1.2-0.6,1.9-0.9l-0.9-1.9C58.6,27.1,58,27.4,57.3,27.7L57.3,27.7z M59.8,26.5l0.9,1.9
			c0.6-0.3,1.3-0.6,1.9-0.9l-0.8-1.9C61.1,25.9,60.4,26.2,59.8,26.5L59.8,26.5z M62.3,25.3l0.8,1.9c0.6-0.3,1.3-0.5,1.9-0.8
			l-0.8-1.9C63.6,24.8,62.9,25.1,62.3,25.3L62.3,25.3z M64.8,24.3l0.8,1.9c0.6-0.3,1.3-0.5,1.9-0.7l-0.7-1.9
			C66.1,23.8,65.5,24,64.8,24.3L64.8,24.3z M67.4,23.3l0.7,1.9c0.7-0.2,1.3-0.5,2-0.7l-0.6-2C68.7,22.8,68,23.1,67.4,23.3L67.4,23.3
			z M70,22.4l0.6,2c0.7-0.2,1.3-0.4,2-0.6l-0.6-2C71.3,22,70.7,22.2,70,22.4L70,22.4z M72.6,21.6l0.6,2c0.7-0.2,1.3-0.4,2-0.5
			l-0.5-2C74,21.2,73.3,21.4,72.6,21.6L72.6,21.6z M75.3,20.9l0.5,2c0.7-0.2,1.4-0.3,2-0.5l-0.4-2C76.7,20.6,76,20.8,75.3,20.9
			L75.3,20.9z M77.9,20.3l0.4,2c0.7-0.1,1.4-0.3,2-0.4l-0.4-2C79.3,20,78.6,20.2,77.9,20.3L77.9,20.3z M80.6,19.8l0.4,2
			c0.7-0.1,1.4-0.2,2.1-0.3l-0.3-2C82.1,19.6,81.4,19.7,80.6,19.8L80.6,19.8z M83.4,19.4l0.3,2c0.7-0.1,1.4-0.2,2.1-0.3l-0.2-2.1
			C84.8,19.2,84.1,19.3,83.4,19.4L83.4,19.4z M86.1,19.1l0.2,2.1c0.7-0.1,1.4-0.1,2.1-0.2l-0.1-2.1C87.5,18.9,86.8,19,86.1,19.1
			L86.1,19.1z M88.8,18.8l0.1,2.1c0.7,0,1.4-0.1,2.1-0.1L91,18.7C90.3,18.8,89.5,18.8,88.8,18.8L88.8,18.8z"/>
		<path class="st1" d="M0,87.9h188.1l-10,17.3l10,17.3H0l10-17.3L0,87.9L0,87.9z M3.9,90.2l8.5,14.7l0.2,0.3l-0.2,0.3l-8.5,14.7
			h180.2l-8.5-14.7l-0.2-0.3l0.2-0.3l8.5-14.7H3.9L3.9,90.2z M11.3,105.2L2.4,89.9L2,89.1h1h182.2h1l-0.5,0.9l-8.9,15.3l8.9,15.3
			l0.5,0.9h-1H2.9H2l0.5-0.9L11.3,105.2L11.3,105.2z"/>
		<path class="st0" d="M133.2,124.9c-1.8,2.8-3.9,5.5-6.3,7.9c-8.4,8.4-20,13.6-32.9,13.6c-12.8,0-24.5-5.2-32.9-13.6
			c-2.4-2.4-4.5-5-6.3-7.9l1.4,0c1.7,2.5,3.6,4.9,5.7,7c8.2,8.2,19.6,13.3,32.1,13.3c12.5,0,23.9-5.1,32.1-13.3
			c2.1-2.1,4.1-4.5,5.8-7L133.2,124.9L133.2,124.9z"/>
		<path class="st0" d="M94,53.4c12.8,0,24.5,5.2,32.9,13.6c5.1,5.1,9.1,11.5,11.4,18.6h-1.2c-2.3-6.8-6.1-12.8-11-17.8
			c-8.2-8.2-19.6-13.3-32.1-13.3c-12.5,0-23.9,5.1-32.1,13.3c-4.9,4.9-8.7,11-11,17.8h-1.2C52,78.5,56,72.1,61.1,67
			C69.6,58.6,81.2,53.4,94,53.4L94,53.4z"/>
		<path class="st0" d="M94,56.5c12,0,22.8,4.9,30.7,12.7c4.6,4.6,8.1,10.1,10.3,16.4h-2.4c-2.1-5.6-5.4-10.6-9.5-14.8
			c-7.5-7.5-17.8-12.1-29.1-12.1c-11.4,0-21.7,4.6-29.1,12.1c-4.2,4.2-7.4,9.2-9.5,14.8H53c2.2-6.2,5.7-11.8,10.3-16.4
			C71.2,61.3,82,56.5,94,56.5L94,56.5z M129.5,124.9c-1.4,2-3,3.9-4.8,5.7c-7.9,7.9-18.7,12.7-30.7,12.7s-22.8-4.9-30.7-12.7
			c-1.7-1.8-3.4-3.6-4.8-5.7h2.8c1.1,1.4,2.3,2.8,3.6,4.1c7.5,7.5,17.8,12.1,29.1,12.1c11.4,0,21.7-4.6,29.1-12.1
			c1.3-1.3,2.5-2.7,3.6-4.1H129.5L129.5,124.9z"/>
		<path class="st1" d="M85.7,15.9H94h8.3l2.1-12.8l-5.3,8.6L99.2,6l-2.8,5.4L94,0l-2.5,11.3L88.8,6l0.1,5.7l-5.3-8.6L85.7,15.9
			L85.7,15.9z M85.7,16.2h16.7v0.8H85.7V16.2L85.7,16.2z"/>
		<path class="st1" d="M105.2,81.6c-4.8-4.1-16.8-4.8-20.8-0.9c-2.4,2.3-1.6,6.5,1.4,5.1C86,79.1,100.1,78.6,105.2,81.6L105.2,81.6z
			 M93.2,86.1c-0.7-3.7,7-5.7,10.1-4.7c-3.1-1.6-9.8-0.6-11.5,2.1C90.8,85.1,91.8,87.3,93.2,86.1L93.2,86.1z M100.2,71.6
			c4.7,1.3,4.7,0.9,0.1,2.6c0.2,4.8,0.5,4.6-2.4,0.9c-4.5,1.6-4.3,2-1.6-2c-3-3.8-3.2-3.5,1.4-2.1C100.4,66.9,100,66.8,100.2,71.6
			L100.2,71.6z M102.2,74.9c5.6,4.4,10.5-3.6,15-2.4C110,66.8,106.5,77.4,102.2,74.9L102.2,74.9z M104.8,62.7
			c-0.6,2.9,4,7.6,0.5,11.5C111.5,69.7,107,63.6,104.8,62.7L104.8,62.7z M104.7,74.2c5.2-11.5-16.4-17.5-21.5-7v0l0,0
			c-0.1,0.3-0.3,0.6-0.4,0.9c-2.7,5.9-8,9.5-11.5,7.3c-2.8,1.6,0.5,3.6,2.6,3.3c3-0.5,6.1-3.7,8.3-7.6c-0.9,5.8-9.1,12.5-13.4,8.2
			c-2.9-2.8,1.2-7.7,4.9-4.7c2.6-2.3-2-7.7-6.8-3.3c-5.8,5.3,0,14.1,8.3,11.5c3.3-1,6.2-4.9,7.6-9.2c1,2.3,3.2,4,6.5,3.7
			c6.3-0.5,5.6-7.4,2.2-7.1c-0.3,6.3-7.5,3.4-6.3-1.4C87.3,59.9,106.9,62.2,104.7,74.2L104.7,74.2z M101.6,75.2
			c3.7,12,17,0.7,22.2,7C119.2,68.9,105.2,83.1,101.6,75.2L101.6,75.2z"/>
		<path class="st1" d="M76.6,125.7c1.5,3.3,9.5,4.3,7.8,9.6C89.1,127.4,79.5,125.1,76.6,125.7L76.6,125.7z M97.6,126.3
			c2.8-1.4,8.6,2.4,10.4-2.1C106.8,131.9,99.2,128.2,97.6,126.3L97.6,126.3z M100.2,129.1c3,2.2,9.4,2.8,11.6,0.7
			c0.9-0.9,1.1-3.1-0.6-2.4C110.9,131.2,103,131,100.2,129.1L100.2,129.1z M85,123.9c4.1-0.2,9.2,1.4,12.8,3.8l0,0l0,0
			c0.5,0.3,0.9,0.7,1.3,1c8.3,6,16.2,3.1,14.5-1.4c-0.8-2.2-3.8-1.8-3.6,1c-2,0.4-2.9-3.6,0.8-4.3c4.5-0.8,6.4,5,2.3,8
			c-3.3,2.4-8.9,0.8-12.6-1.8c0.8,1,1.3,2,1.6,3.1c0.5,2.3-1.5,5.8-3.3,2.9C102.1,130.3,91,124,85,123.9L85,123.9z M76.3,125
			c5.8-1.9,17.3,0.2,19.6,6.6c2.3,6.2-4,11.1-8.3,7c-3.5-3.4,0.4-7.1,2.3-5.3c-2.1,2.9,0.8,5.5,3.2,3.7
			C98.5,133.2,91.1,123.5,76.3,125L76.3,125z M79.9,125.3c4.8-0.2,12.2,3.8,13.1,7.8c0.3,1.6-1.1,4.2-2.4,2.1
			C92.9,130.9,84.2,125.3,79.9,125.3L79.9,125.3z"/>
	</g>
	<text transform="matrix(0.7116 0 0 1 31.8379 110.4902)" class="st2 st3 st4">Happily Ever After</text>
</g>
</svg>
