<?xml version="1.0" encoding="utf-8"?>
<!-- Generator: Adobe Illustrator 19.2.1, SVG Export Plug-In . SVG Version: 6.00 Build 0)  -->
<svg version="1.1" id="Layer_1" xmlns="http://www.w3.org/2000/svg" xmlns:xlink="http://www.w3.org/1999/xlink" x="0px" y="0px"
	 viewBox="0 0 241.8 150.1" style="enable-background:new 0 0 241.8 150.1;" xml:space="preserve">
<style type="text/css">
	.st0{fill:#EB7662;}
	.st1{fill:#36A8B2;}
	.st2{fill:#373855;}
	.st3{fill:#FFFFFF;}
	.st4{font-family:'LokiCola';}
	.st5{font-size:20px;}
	.st6{letter-spacing:1;}
	.st7{font-family:'Gotham-Bold';}
	.st8{font-family:'Gotham-Book';}
</style>
<g>
	<g>
		<path class="st0" d="M193.7,37.4c-6-14.2-18.2-23.9-32.5-25.9c-19.8-2.7-33.5,12.4-40.3,20.7C114,24,100.3,8.8,80.5,11.5
			C66.2,13.5,54,23.2,48,37.4c-7,16.5-4.1,35.9,7.6,51.9c13.2,18,32.9,28.7,44.7,35.1l5.8,3.2c4.1,2.4,7.1,4.7,8.8,6.1l0.8,0.6
			c1.7,1.4,3.2,2.6,5.1,2.5c2-0.1,3.6-1.3,5.5-2.8l0.4-0.3c1.8-1.4,4.8-3.7,8.8-6.1l5.8-3.2c11.7-6.4,31.4-17.1,44.7-35.1
			C197.8,73.3,200.7,53.9,193.7,37.4z"/>
		<path class="st1" d="M199.7,34.5l1.9-0.8c-6.8-16-20.5-27-36.8-29.2l0,0c-2.2-0.3-4.3-0.4-6.3-0.4c-9.5,0-17.6,3-24.2,7.1
			c-6.5,4.1-11.5,9.1-15,13.3l1.6,1.3l1.6-1.3c-3.4-4.2-8.4-9.2-15-13.3C100.9,7,92.8,4,83.3,4c-2,0-4.2,0.1-6.3,0.4
			C60.7,6.7,47,17.7,40.2,33.7c-2.8,6.7-4.2,13.8-4.2,21c0,12.7,4.4,25.7,12.7,37.1c7.3,10,16.4,17.9,25.2,24.2
			c8.8,6.3,17.4,10.9,23.8,14.4l1-1.8l-1,1.8l6.3,3.5l1-1.8l-1,1.7c4.3,2.5,7.4,5,9.3,6.5l0,0l0.8,0.7l0,0c0.9,0.7,1.8,1.5,2.9,2.1
			c1.1,0.6,2.3,1.1,3.8,1.1l0.2,0h0c1.5,0,2.8-0.6,4-1.2c1.1-0.7,2.2-1.5,3.2-2.3l0,0l0.4-0.3l0,0c1.9-1.5,5.1-3.9,9.4-6.5l-1-1.7
			l1,1.8l6.3-3.5l0,0c6.4-3.5,14.9-8.1,23.7-14.4c8.8-6.3,17.9-14.2,25.2-24.2l0,0c8.4-11.4,12.7-24.4,12.7-37.1
			c0-7.2-1.4-14.3-4.2-21L199.7,34.5l-1.9,0.8c2.6,6.2,3.9,12.8,3.9,19.4c0,11.8-4,24-11.9,34.7l0,0c-7,9.5-15.7,17.2-24.3,23.3
			c-8.6,6.1-17,10.7-23.3,14.1l0,0l-6.3,3.5l0,0c-4.5,2.7-7.8,5.3-9.8,6.8l0,0l-0.4,0.3l0,0c-1,0.8-1.9,1.5-2.7,2
			c-0.8,0.5-1.4,0.7-2.1,0.7h0h-0.1c-0.5,0-1.1-0.2-1.8-0.5c-0.7-0.4-1.5-1-2.4-1.7l-0.9-0.7l0,0c-1.9-1.5-5.3-4.1-9.8-6.8l0,0
			l-6.3-3.5l0,0c-6.4-3.4-14.8-8-23.3-14.1c-8.6-6.1-17.3-13.7-24.3-23.3C44.1,78.7,40,66.5,40,54.7c0-6.7,1.3-13.3,3.9-19.4
			c6.3-14.8,18.8-24.8,33.6-26.8c2-0.3,3.9-0.4,5.8-0.4c8.7,0,16,2.7,22,6.5c6,3.7,10.7,8.5,14,12.4l1.6,1.9l1.6-1.9
			c3.2-3.9,8-8.7,14-12.4c6-3.7,13.4-6.5,22-6.5c1.9,0,3.8,0.1,5.8,0.4l0.3,0l-0.3,0c14.8,2,27.3,12,33.6,26.8l0,0L199.7,34.5z"/>
		<g>
			<g>
				<g>
					<g>
						<g>
							<path class="st2" d="M188.1,50.6c-1,0.2-2.1,0.5-3.1,0.7c-0.6,0.3-1.5,0.3-2.1,0.5c-3.3,0.7-6.6,1.3-9.9,1.9
								c-1.9,0.3-3.7,0.6-5.6,0.9c-0.4,0-0.4,0.2-1,0.1c-13.3,1.9-27.2,2.9-41.4,2.9c-19.3,0-37-1.8-51.8-4
								c-0.5-0.1-0.9-0.1-1.4-0.2c-1.6-0.2-3.2-0.5-4.7-0.8c-1.9-0.3-3.7-0.6-5.4-1c-1.7-0.3-3.4-0.6-4.9-1c0,0,0,0-0.1,0
								c-1.2-0.3-2.4-0.5-3.6-0.7c-11.4-2.4-19.1-4.7-21.6-5.4l-6,31.9c30.3,10.3,62.3,15.5,95.3,15.5c52.6,0,90.9-13.5,96.2-15.5
								l-7.1-31.9C202.8,46.8,195.5,48.9,188.1,50.6z"/>
						</g>
					</g>
				</g>
				<g>
					<g>
						<g>
							<path class="st2" d="M229.2,44.3c3.7-7.5,3.1-20.7,3.1-20.7c-17.1,11.1-32.1,12-32.1,12l12.9,3.8l5.5,26.3
								c12.1,0.6,23.1-7.9,23.1-7.9C240.8,55.3,229.2,44.3,229.2,44.3z"/>
						</g>
					</g>
				</g>
				<g>
					<g>
						<g>
							<path class="st2" d="M41.6,35.9c0,0-15-1-32.1-12c0,0-0.5,13.2,3.1,20.7c0,0-11.6,11-12.6,13.5c0,0,11.1,8.5,23.1,7.9
								l5.5-26.3L41.6,35.9z"/>
						</g>
					</g>
				</g>
			</g>
		</g>
	</g>
	<text transform="matrix(1 0 0 1 65.4077 81.2354)"><tspan x="0" y="0" class="st3 st4 st5 st6">   </tspan><tspan x="15.7" y="0" class="st3 st7 st5 st6">07.11.18</tspan><tspan x="100.1" y="0" class="st3 st8 st5 st6"> </tspan></text>
</g>
</svg>
