<?xml version="1.0" encoding="utf-8"?>
<!-- Generator: Adobe Illustrator 19.2.1, SVG Export Plug-In . SVG Version: 6.00 Build 0)  -->
<svg version="1.1" id="Layer_1" xmlns="http://www.w3.org/2000/svg" xmlns:xlink="http://www.w3.org/1999/xlink" x="0px" y="0px"
	 viewBox="0 0 349.2 132.2" style="enable-background:new 0 0 349.2 132.2;" xml:space="preserve">
<style type="text/css">
	.st0{fill:#68C4DD;}
	.st1{fill-rule:evenodd;clip-rule:evenodd;fill:#68C4DD;}
</style>
<g>
	<g>
		<rect x="308.5" y="17.2" class="st0" width="1.5" height="32.3"/>
		<rect x="306.3" y="17.2" class="st0" width="1.5" height="32.3"/>
		<rect x="304.1" y="17.2" class="st0" width="1.5" height="32.3"/>
		<rect x="302" y="17.2" class="st0" width="1.5" height="32.3"/>
		<rect x="319.2" y="17.2" class="st0" width="1.5" height="32.3"/>
		<rect x="321.4" y="17.2" class="st0" width="1.5" height="32.3"/>
		<rect x="323.6" y="17.2" class="st0" width="1.5" height="32.3"/>
		<rect x="317.1" y="17.2" class="st0" width="1.5" height="32.3"/>
		<rect x="310.6" y="17.2" class="st0" width="1.5" height="32.3"/>
		<rect x="314.9" y="17.2" class="st0" width="1.5" height="32.3"/>
		<rect x="312.8" y="17.2" class="st0" width="1.5" height="32.3"/>
		<rect x="39.3" y="17.2" class="st0" width="1.5" height="32.3"/>
		<rect x="41.4" y="17.2" class="st0" width="1.5" height="32.3"/>
		<rect x="37.1" y="17.2" class="st0" width="1.5" height="32.3"/>
		<rect x="43.6" y="17.2" class="st0" width="1.5" height="32.3"/>
		<rect x="34.9" y="17.2" class="st0" width="1.5" height="32.3"/>
		<rect x="45.7" y="17.2" class="st0" width="1.5" height="32.3"/>
		<path class="st0" d="M317.6,64.2L304,52.7h45.2l-21.4-18.8L349.1,14h-91.2l-21.4,25.1c-0.2-0.5-0.6-0.9-1.1-1.1
			c-0.2-0.1-0.5-0.2-0.7-0.2c-0.1,0-0.3,0-0.4,0l-0.1,0c-0.2,0-0.3,0-0.5,0.1c-0.3,0.1-0.6,0.2-0.9,0.4c-0.5,0.4-0.8,0.9-0.9,1.6
			l0,0.3c-0.3,0-0.5-0.1-0.8-0.1l0.7-5.7c0.4-0.1,0.7-0.4,0.8-0.7c0.1-0.2,0.2-0.4,0.2-0.6c0.1-0.7-0.4-1.4-1.1-1.7
			c-0.1,0-0.2-0.1-0.3-0.1c-0.1,0-0.2,0-0.3,0c-0.3,0-0.5,0.1-0.7,0.2c-0.4,0.2-0.7,0.7-0.7,1.1c-0.1,0.6,0.2,1.2,0.7,1.5l-0.7,5.7
			c-0.3,0-0.6-0.1-1-0.1l0-0.3c0.1-1.3-0.8-2.5-2.1-2.7c-0.7-0.1-1.3,0.1-1.8,0.5c-0.4,0.3-0.7,0.8-0.8,1.4c0,0.1,0,0.1,0,0.2l0,0.3
			c-0.3,0-0.5-0.1-0.8-0.1l0.6-5.7c0.3-0.1,0.5-0.2,0.6-0.4c0.2-0.2,0.3-0.5,0.4-0.8c0.1-0.8-0.6-1.6-1.4-1.7c-0.1,0-0.1,0-0.2,0
			l-0.1,0c-0.8,0-1.4,0.6-1.4,1.4c-0.1,0.6,0.2,1.2,0.7,1.5l-0.6,5.7c-0.3,0-0.6-0.1-1-0.1l0-0.3c0.1-0.6-0.1-1.2-0.5-1.7
			c-0.4-0.5-1-0.9-1.7-1c-0.2,0-0.3,0-0.4,0c-0.2,0-0.5,0.1-0.7,0.2c-0.3,0.1-0.5,0.2-0.6,0.4c-0.5,0.4-0.8,1-0.8,1.6l0,0.2
			c-0.3,0-0.5-0.1-0.8-0.1l0.5-5.7c0.4-0.2,0.7-0.5,0.9-0.9c0.1-0.1,0.1-0.3,0.1-0.4c0-0.5-0.2-1.1-0.7-1.4
			c-0.2-0.2-0.5-0.3-0.8-0.3c-0.3,0-0.6,0-0.9,0.2c-0.3,0.1-0.5,0.4-0.7,0.6c-0.1,0.2-0.2,0.4-0.2,0.6c0,0.6,0.3,1.2,0.8,1.5
			l-0.5,5.7c-0.3,0-0.6-0.1-1-0.1l0-0.3c0-0.2,0-0.3,0-0.5c0-0.1,0-0.3-0.1-0.4c-0.3-0.9-1.1-1.6-2-1.7l0,0c0,0,0,0-0.1,0l-0.1,0
			l0,0c-0.1,0-0.3,0-0.4,0c-0.1,0-0.2,0-0.3,0.1c0,0-0.1,0-0.1,0l-0.1,0l0.1,0.3l-0.2-0.3c-0.1,0-0.2,0.1-0.2,0.1c0,0-0.1,0-0.1,0.1
			c-0.1,0.1-0.2,0.1-0.3,0.2l-0.1,0c-0.1,0.1-0.1,0.1-0.2,0.2l0.3,0.2l-0.3-0.2c0,0-0.1,0.1-0.1,0.1c-0.1,0.1-0.1,0.2-0.2,0.3
			l-0.1,0.1c0,0.1-0.1,0.2-0.1,0.2l0.3,0.2l-0.3-0.1l0,0.1c0,0.1-0.1,0.3-0.1,0.5l0,0.2c-0.2,0-0.5,0-0.7-0.1l0.4-5.7
			c0.5-0.2,0.9-0.7,1-1.3c0-0.4-0.1-0.8-0.4-1.2c-0.3-0.3-0.7-0.5-1.1-0.5c-0.9-0.1-1.7,0.6-1.7,1.4c0,0.6,0.3,1.1,0.8,1.5l-0.4,5.7
			c-0.3,0-0.6-0.1-1-0.1l0-0.2c0-0.6-0.2-1.3-0.6-1.7c-0.4-0.5-1-0.8-1.6-0.8c-0.7,0-1.3,0.2-1.8,0.6c-0.5,0.4-0.8,1-0.8,1.6v0.2
			c-0.3,0-0.5,0-0.8-0.1l0.3-5.7c0.1,0,0.2-0.1,0.3-0.2c0.4-0.3,0.6-0.7,0.6-1.1c0-0.3-0.1-0.6-0.2-0.9c-0.2-0.3-0.4-0.5-0.7-0.6
			c-0.1,0-0.2-0.1-0.3-0.1l-0.1,0c-0.1,0-0.1,0-0.2,0l-0.1,0c-0.8,0-1.5,0.6-1.6,1.5c0,0.6,0.3,1.1,0.8,1.4l-0.3,5.6
			c-0.3,0-0.6,0-1-0.1l0-0.2c0-0.6-0.2-1.1-0.6-1.6c0,0-0.1-0.1-0.1-0.1c-0.4-0.4-1-0.7-1.6-0.7l-0.1,0c-0.6,0-1.2,0.2-1.6,0.6
			c-0.5,0.4-0.7,1-0.8,1.6l0,0.2c-0.3,0-0.5,0-0.8,0l0.2-5.6c0.3-0.1,0.5-0.3,0.7-0.6c0.2-0.2,0.2-0.5,0.3-0.8
			c0-0.6-0.3-1.1-0.9-1.4c-0.2-0.1-0.5-0.2-0.8-0.2c-0.5,0-1,0.2-1.3,0.6l0,0.1c-0.2,0.2-0.2,0.5-0.3,0.8c0,0.6,0.3,1.1,0.8,1.4
			l-0.2,5.6c-0.3,0-0.6,0-1,0l0-0.2c0-1.3-1-2.4-2.4-2.5c-0.6,0-1.1,0.2-1.5,0.6h-0.2v0.2c-0.4,0.4-0.6,1-0.6,1.5l0,0.2
			c-3.4-0.1-6.9-0.2-10.3-0.2c-3,0-6,0-8.9,0.1l0-0.1c0-0.3-0.1-0.6-0.2-0.9c-0.1-0.3-0.3-0.6-0.5-0.8c-0.4-0.4-1-0.7-1.6-0.7h-0.1
			c-0.6,0-1.2,0.3-1.7,0.8c0,0.1-0.1,0.1-0.2,0.2c0,0-0.1,0.1-0.1,0.1c-0.2,0.4-0.4,0.8-0.4,1.2l0,0.1l0,0.2c-0.3,0-0.5,0-0.8,0
			l-0.2-5.6c0.2-0.1,0.4-0.3,0.5-0.5c0.2-0.3,0.3-0.6,0.3-1c0-0.8-0.7-1.5-1.7-1.5c0,0,0,0,0,0c-0.4,0-0.8,0.2-1.1,0.5
			c-0.3,0.3-0.4,0.7-0.4,1.1c0,0.6,0.4,1.1,0.9,1.3l0.2,5.6c-0.3,0-0.6,0-1,0l0-0.1c0-0.6-0.3-1.2-0.8-1.6c-0.5-0.4-1.2-0.7-1.8-0.6
			c-1.3,0.1-2.4,1.2-2.3,2.5l0,0.1c-0.2,0-0.5,0-0.8,0l-0.3-5.6c0.5-0.3,0.8-0.8,0.8-1.4c0-0.6-0.4-1.1-0.9-1.3
			c-0.2-0.1-0.4-0.2-0.7-0.2l-0.1,0c-0.4,0-0.8,0.2-1.1,0.5c-0.3,0.3-0.4,0.7-0.4,1.1c0,0.6,0.4,1.1,0.9,1.3l0.3,5.6
			c-0.3,0-0.6,0-1,0.1l0-0.2c-0.1-0.6-0.3-1.2-0.8-1.5c-0.5-0.4-1.1-0.6-1.8-0.6c-1.3,0.1-2.3,1.2-2.3,2.5l0,0.1
			c-0.2,0-0.5,0-0.8,0.1l-0.4-5.5c0.5-0.3,0.8-0.9,0.8-1.5c-0.1-0.8-0.8-1.5-1.7-1.4c-0.4,0-0.8,0.2-1.1,0.6c0,0,0,0.1-0.1,0.1
			c0,0-0.1,0.1-0.1,0.1c-0.1,0.2-0.2,0.4-0.2,0.6l0.3,0.1l-0.3,0.1c0,0,0,0.1,0,0.2c0,0.6,0.4,1.1,1,1.3l0.4,5.5
			c-0.3,0-0.6,0.1-1,0.1l0-0.1c0,0,0-0.1,0-0.1c-0.1-0.4-0.2-0.8-0.5-1.1c-0.1-0.1-0.2-0.2-0.3-0.3c-0.5-0.4-1.1-0.6-1.8-0.5
			c-1.3,0.1-2.3,1.3-2.2,2.6l0,0.1c-0.3,0-0.5,0.1-0.8,0.1L135,32c0.2-0.1,0.4-0.3,0.5-0.5c0.2-0.3,0.3-0.6,0.2-1
			c0-0.5-0.3-0.9-0.8-1.2c-0.3-0.2-0.6-0.2-1-0.2c-0.9,0.1-1.5,0.9-1.5,1.7c0,0.6,0.4,1.1,1,1.3l0.5,5.5c-0.3,0-0.6,0.1-1,0.1l0-0.1
			c-0.1-0.6-0.4-1.2-0.8-1.6c-0.5-0.4-1.1-0.6-1.8-0.5c-0.6,0.1-1.2,0.4-1.6,0.8c-0.4,0.5-0.7,1.1-0.6,1.8l0,0.1
			c-0.3,0-0.5,0.1-0.8,0.1l-0.5-5.5c0.1-0.1,0.2-0.1,0.2-0.2c0.4-0.3,0.5-0.8,0.5-1.3c-0.1-0.8-0.9-1.5-1.8-1.4
			c-0.9,0.1-1.5,0.9-1.4,1.8c0.1,0.6,0.5,1.1,1,1.3l0.6,5.5c-0.3,0-0.6,0.1-1,0.1l0-0.1c-0.1-0.6-0.4-1.2-0.9-1.6
			c-0.5-0.4-1.1-0.6-1.8-0.5c-0.6,0.1-1.2,0.4-1.6,0.9c-0.4,0.5-0.6,1.1-0.5,1.8l0,0.1c-0.3,0-0.5,0.1-0.8,0.1L119,34
			c0.1-0.1,0.2-0.1,0.3-0.2c0.3-0.3,0.5-0.8,0.5-1.3c0-0.3-0.1-0.5-0.3-0.7c-0.3-0.4-0.7-0.6-1.2-0.6c-0.1,0-0.1,0-0.3,0
			c-0.3,0-0.6,0.2-0.9,0.4c-0.4,0.4-0.6,0.9-0.5,1.4c0.1,0.6,0.5,1.1,1,1.2l0.6,5.5c-0.3,0-0.6,0.1-1,0.1l0-0.1
			c-0.1-0.5-0.2-0.9-0.6-1.2c-0.1-0.1-0.2-0.2-0.3-0.3c-0.4-0.3-0.8-0.5-1.4-0.5c-0.1,0-0.3,0-0.4,0c-0.3,0.1-0.6,0.2-0.9,0.3
			c-0.4,0.2-0.7,0.6-0.9,1l-21.3-25L91.3,14L0.1,14l21.3,19.9L0,52.7h45.2L32.1,63.8c-0.2,0.1-0.6,0.2-0.6,0.2l-0.3,0.1l12.2,36.5
			l2.9,9l0.1-0.1l2.5,7.5l1.1-0.5c40.2-15.9,82.2-23.9,124.7-23.9c42.9,0,85.3,8.2,125.8,24.4l0,0.1l1.4,0.5l17-52.7l0.1-0.3
			l-0.4-0.1C318.3,64.4,317.8,64.3,317.6,64.2z M141.2,29.3L141.2,29.3L141.2,29.3C141.2,29.3,141.2,29.3,141.2,29.3z M345.3,15.5
			l-1.9,1.7H343v0.4l-0.7,0.6v-1.1h-1.5v2.5l-0.7,0.6v-3.1h-1.5v4.5l-0.7,0.6v-5.1h-1.5v6.5l-0.7,0.6v-7.1h-1.5v8.5l-0.7,0.6v-9.1
			h-1.5v10.5l-0.7,0.6V17.2H330v12.5l-0.7,0.6V17.2h-1.5v14.6l-0.7,0.6V17.2h-1.5v32.3h1.5V35.3l0.7,0.6v13.6h1.5V37.2l0.7,0.6v11.7
			h1.5V39.2l0.7,0.6v9.8h1.5v-8.4l0.7,0.6v7.9h1.5V43l0.7,0.6v6h1.5v-4.6l0.7,0.6v4.1h1.5v-2.7l0.7,0.6v2.2h1.5v-0.8l0.7,0.6l0,0.2
			h0.2l2,1.7h-43l-2.1-1.7h1.1V17.2h-1.5v31.9l-0.7-0.6V17.2h-1.5v30.1l-0.7-0.6V17.2h-1.5v28.3l-0.7-0.6V17.2h-1.5v26.5l-0.7-0.6
			V17.2h-1.5v24.6l-0.7-0.6V17.2H289v22.8l-0.7-0.6V17.2h-1.5v21l-0.7-0.6V17.2h-1.5v19.2l-0.7-0.6V17.2h-1.5v17.3l-0.7-0.6V17.2
			h-1.5v15.5l-0.7-0.6v-15h-1.5v13.7l-0.7-0.6V17.2h-1.5v11.9l-0.7-0.6V17.2h-1.5v10.1l-0.7-0.6v-9.5h-1.5v8.2l-0.7-0.6v-7.7h-1.5
			v6.4l-0.7-0.6v-5.8h-1.5v4.6l-0.7-0.6v-4h-1.5V20l-0.7-0.6v-2.2h-1.5v0.9l-0.7-0.6v-0.4H262l-2.1-1.7H345.3z M258.2,16l55,46.5
			c-2-0.8-4-1.6-6-2.3l-0.4-0.2l-0.1,0.1l-0.7-0.2l0.3-0.3l-1.1-1l-0.6,0.7l-0.7-0.2l0.8-0.9l-1.1-1l-1.1,1.3l-0.7-0.2l1.3-1.5
			l-1.1-1l-1.7,1.9l-0.7-0.2l1.8-2.1l-1.1-1l-2.2,2.6l-0.7-0.2l2.4-2.8l-1.1-1l-2.7,3.2l-0.7-0.2l2.9-3.4l-1.1-1l-3.3,3.9l-0.7-0.2
			l3.5-4.1l-1.1-1l-3.9,4.5l-0.7-0.2l4-4.7l-1.1-1l-4.4,5.2l-0.7-0.2l4.6-5.4l-1.1-1l-5,5.9l-0.7-0.2l5.2-6.1l-1.1-1l-5.6,6.6
			l-0.7-0.2l5.8-6.8l-1.1-1l-6.2,7.3l-0.7-0.2l6.4-7.5l-1.1-1l-6.8,8l-0.7-0.2l7-8.2l-1.1-1l-7.4,8.7l-0.7-0.2l7.6-9l-1.1-1
			l-8.1,9.5l-0.7-0.2l8.3-9.7l-1.1-1l-8.7,10.2l-0.7-0.2l8.9-10.5l-1.1-1l-9.4,11l-0.7-0.2L280,37l-1.1-1l-10,11.8l-0.7-0.2l10.2-12
			l-1.1-1l-10.7,12.6l-0.7-0.2l10.9-12.8l-1.1-1l-11.4,13.4l-0.7-0.2l11.6-13.6l-1.1-1L261.8,46l-0.7-0.2l12.3-14.5l-1.1-1l-12.8,15
			l-0.7-0.2l13-15.3l-1.1-1l-13.5,15.9l-0.7-0.2l13.8-16.2l-1.1-1l-14.3,16.8l-0.7-0.2l14.5-17l-1.1-1l-15,17.6l-0.7-0.2l15.2-17.9
			l-1.1-1L250,43.4l-0.7-0.2l16-18.8l-1.1-1l-16.5,19.4c-0.2,0-0.5-0.1-0.7-0.1L263.6,23l-1.1-1l-17.3,20.3l-0.7-0.1l17.6-20.6
			l-1.1-1l-18.1,21.3l-0.7-0.1l18.3-21.6l-1.1-1l-18.9,22.2l-0.7-0.1l19.2-22.5l-1.1-1L237.8,41l-0.8-0.1L258.2,16z M233.4,40
			c0-0.2,0.1-0.4,0.3-0.6c0.2-0.1,0.4-0.2,0.7-0.2c0.1,0,0.3,0.1,0.4,0.1c0.3,0.2,0.5,0.5,0.5,0.8c0,0,0,0.1,0,0.1l0,0.2l0,0
			c-0.6-0.1-1.3-0.2-1.9-0.3L233.4,40z M225.5,38.8c0-0.2,0.1-0.4,0.3-0.6c0.2-0.2,0.4-0.2,0.7-0.2c0.5,0.1,0.9,0.6,0.9,1.1l0,0.2
			c-0.6-0.1-1.3-0.2-1.9-0.3L225.5,38.8z M217.6,37.8c0-0.2,0.1-0.4,0.3-0.6c0.2-0.2,0.5-0.2,0.7-0.2c0.3,0,0.6,0.2,0.7,0.5
			c0.1,0.1,0.2,0.3,0.2,0.6l0,0.2c-0.6-0.1-1.3-0.1-1.9-0.2L217.6,37.8z M209.6,37c0-0.1,0-0.2,0.1-0.3l0-0.1c0,0,0.1-0.1,0.1-0.1
			c0,0,0.1-0.1,0.1-0.1l0.1-0.1c0.2-0.1,0.4-0.2,0.7-0.2c0.5,0.1,0.9,0.5,0.9,1l0,0.2c-0.6-0.1-1.3-0.1-1.9-0.2L209.6,37z
			 M201.6,36.3c0-0.2,0.1-0.4,0.2-0.6l0.1-0.1c0.2-0.1,0.4-0.3,0.7-0.2c0.3,0,0.5,0.1,0.7,0.3c0.2,0.2,0.3,0.4,0.2,0.7l0,0.2
			c-0.6-0.1-1.3-0.1-1.9-0.1L201.6,36.3z M196.2,34.5L196.2,34.5L196.2,34.5L196.2,34.5z M193.7,35.8c0-0.2,0.1-0.5,0.3-0.6
			c0.2-0.2,0.4-0.2,0.7-0.2c0,0,0,0,0,0c0.2,0,0.4,0.1,0.7,0.3c0,0,0,0,0,0l0,0c0,0,0,0,0.1,0c0,0,0,0,0,0l0,0.1
			c0.1,0.1,0.2,0.3,0.2,0.6l0,0.2c-0.6,0-1.3-0.1-1.9-0.1L193.7,35.8z M185.7,35.5c0-0.2,0.1-0.5,0.3-0.6c0.2-0.2,0.4-0.3,0.7-0.3
			c0.5,0,1,0.4,0.9,1l0,0.2c-0.6,0-1.3,0-1.9-0.1L185.7,35.5z M161.6,35.5c0-0.1,0-0.2,0.1-0.4c0,0,0-0.1,0.1-0.1
			c0.2-0.3,0.5-0.4,0.8-0.4c0.3,0,0.5,0.1,0.7,0.3c0.1,0.1,0.2,0.2,0.2,0.3c0,0.1,0.1,0.2,0.1,0.3v0.2c-0.6,0-1.3,0-1.9,0.1V35.5z
			 M153.6,35.9c0-0.5,0.4-1,1-1c0.2,0,0.5,0.1,0.6,0.2c0.2,0.2,0.3,0.4,0.3,0.6l0,0.2c-0.6,0-1.3,0.1-1.9,0.1L153.6,35.9z
			 M145.7,36.5c0-0.5,0.4-1,1-1c0.2,0,0.5,0.1,0.6,0.2c0.2,0.2,0.3,0.4,0.3,0.6l0,0.1c-0.6,0-1.3,0.1-1.9,0.1L145.7,36.5z
			 M137.7,37.2c0-0.5,0.4-1,0.9-1c0.3,0,0.5,0,0.7,0.2c0.2,0.2,0.3,0.4,0.3,0.6l0,0.1C139,37.1,138.3,37.2,137.7,37.2L137.7,37.2z
			 M129.7,38c0-0.2,0.1-0.5,0.2-0.7c0.2-0.2,0.4-0.3,0.7-0.4c0.3,0,0.5,0,0.7,0.2c0.2,0.1,0.3,0.4,0.3,0.6l0,0.1
			C131,38,130.4,38,129.7,38L129.7,38z M121.8,39.1c0-0.3,0-0.5,0.2-0.7c0.2-0.2,0.4-0.3,0.7-0.4c0.3,0,0.5,0,0.7,0.2
			c0,0,0.1,0.1,0.1,0.1l0,0c0.1,0.1,0.2,0.3,0.2,0.4l0,0.1C123.1,39,122.4,39.1,121.8,39.1L121.8,39.1z M114.3,39.4
			c0.1-0.1,0.3-0.1,0.4-0.1c0.3,0,0.5,0,0.7,0.2c0,0,0.1,0.1,0.1,0.1c0.1,0.1,0.1,0.2,0.2,0.4l0,0.2c-0.6,0.1-1.3,0.2-1.9,0.3l0,0
			C113.8,40,114,39.6,114.3,39.4z M4,51.2l2-1.8l0.3,0v-0.2l0.7-0.6v0.8h1.5v-2.2L9,46.8v2.7h1.5v-4.1l0.7-0.6v4.6h1.5v-6l0.7-0.6
			v6.5h1.5v-7.9l0.7-0.6v8.4H17v-9.8l0.7-0.6v10.3h1.5V37.8l0.7-0.6v12.2h1.5V35.9l0.7-0.6v14.1h1.5V17.2H22v15.2l-0.7-0.6V17.2
			h-1.5v13.2l-0.7-0.6V17.2h-1.5v11.1L17,27.8V17.2h-1.5v9.1l-0.7-0.6v-8.5h-1.5v7.1l-0.7-0.6v-6.5h-1.5v5.1l-0.7-0.6v-4.5H9v3.1
			l-0.7-0.6v-2.5H6.9v1.1l-0.7-0.6v-0.4H5.7l-1.9-1.7h85.4l-2.1,1.7h-0.4v0.3l-0.7,0.6v-0.9h-1.5v2.2L83.9,20v-2.8h-1.5v4l-0.7,0.6
			v-4.6h-1.5v5.8l-0.7,0.6v-6.4h-1.5v7.7l-0.7,0.6v-8.2H76v9.5l-0.7,0.6V17.2h-1.5v11.3l-0.7,0.6V17.2h-1.5v13.1L71,30.9V17.2h-1.5
			v15l-0.7,0.6V17.2h-1.5V34l-0.7,0.6V17.2h-1.5v18.6l-0.7,0.6V17.2H63v20.4l-0.7,0.6v-21h-1.5v22.3l-0.7,0.6V17.2h-1.5v24.1
			L58,41.9V17.2h-1.5v25.9l-0.7,0.6V17.2h-1.5V45l-0.7,0.6V17.2h-1.5v29.6l-0.7,0.6V17.2h-1.5v31.4l-0.7,0.6V17.2h-1.5v32.3H49
			L47,51.2H4z M91,16l21,24.7l-0.8,0.1l-19.6-23l-1.1,1l19,22.3c-0.2,0-0.5,0.1-0.7,0.1l-18.7-22l-1.1,1l18.2,21.4l-0.7,0.1
			L88.4,20.6l-1.1,1L104.7,42l-0.7,0.1L86.8,22l-1.1,1l16.6,19.5l-0.7,0.1L85.1,23.4l-1.1,1L99.8,43l-0.7,0.2L83.5,24.8l-1.1,1
			l15.1,17.7l-0.7,0.2L81.9,26.2l-1.1,1L95,44c-0.2,0.1-0.5,0.1-0.7,0.2L80.2,27.6l-1.1,1l13.6,15.9l-0.7,0.2L78.6,29l-1.1,1
			l12.8,15.1l-0.7,0.2L76.9,30.4l-1.1,1l12.1,14.2l-0.7,0.2l-11.9-14l-1.1,1l11.4,13.4l-0.7,0.2L73.6,33.2l-1.1,1l10.7,12.6L82.5,47
			L72,34.6l-1.1,1l10,11.8l-0.7,0.2L70.3,36l-1.1,1l9.4,11l-0.7,0.2l-9.2-10.8l-1.1,1l8.7,10.2l-0.7,0.2l-8.5-10l-1.1,1l8.1,9.5
			c-0.2,0.1-0.5,0.1-0.7,0.2l-7.9-9.3l-1.1,1l7.4,8.7L71,50.1l-7.2-8.5l-1.1,1l6.8,8c-0.2,0.1-0.5,0.1-0.7,0.2L62.1,43L61,44
			l6.2,7.3l-0.7,0.2l-6-7.1l-1.1,1l5.6,6.6c-0.2,0.1-0.4,0.1-0.7,0.2l-5.4-6.4l-1.1,1l5,5.9L62,52.9l-4.8-5.7l-1.1,1l4.4,5.2
			l-0.7,0.2l-4.2-5l-1.1,1l3.8,4.5l-0.7,0.2L53.9,50l-1.1,1l3.3,3.8l-0.7,0.2l-3.1-3.6l-1.1,1l2.7,3.2l-0.7,0.2l-2.5-3l-1.1,1
			l2.2,2.6L51,56.6l-2-2.4l-1.1,1l1.6,1.9l-0.7,0.2l-1.5-1.7l-1.1,1l1.1,1.3l-0.7,0.2l-1-1.1l-1.1,1l0.6,0.7l-0.7,0.2L44,58.4
			l-1.1,1l0.1,0.1c-2.1,0.8-4.3,1.6-6.4,2.5L91,16z M301.2,114.7l-0.3,1c-40.7-16.2-83.2-24.4-126.3-24.4c-42.6,0-84.6,8-124.9,23.9
			l-1.2-3.5l0.4-0.1l0.7,2.4l1.4-0.4l-0.8-2.5c0.2-0.1,0.4-0.1,0.6-0.2l0.2-0.1l0.7,2.4l1.4-0.4l-0.8-2.5l0.8-0.3l0.7,2.2l0.3,0.1
			l1.2-0.4l-0.7-2.5l0.8-0.3l0.7,2.4l1.4-0.4l-0.7-2.5l0.8-0.3l0.6,2v0.4l0.1,0l0.1,0.5l0.3-0.7l0.9-0.3l-0.7-2.5l0.8-0.3l0.7,2.4
			l1.4-0.4L61,107c0.3-0.1,0.5-0.2,0.8-0.3l0.6,2.4l1.4-0.4l-0.7-2.4l0.8-0.3l0.6,2.4l1.4-0.4l-0.7-2.4l0.8-0.3l0.6,2.3l1.4-0.4
			l-0.6-2.4l0.8-0.3l0.6,2.3l1.4-0.4l-0.6-2.4c0.2-0.1,0.4-0.1,0.6-0.2l0.1,0l0.6,2.3l1.4-0.4l-0.6-2.4l0.8-0.2l0.5,1.9v0.4l1.5-0.4
			l-0.6-2.4l0.8-0.2l0.6,2.3l1.4-0.3l-0.6-2.4c0.2-0.1,0.4-0.1,0.7-0.2l0.1,0l0.5,2.3l1.4-0.3l-0.6-2.4l0.8-0.2l0.5,2.3l1.1-0.2
			l0.3-0.1l-0.5-2.3l0.8-0.2l0.5,2.3l1.4-0.3l-0.5-2.4l0.8-0.2l0.5,2.3l1.4-0.3l-0.5-2.4l0.8-0.2l0.5,2.3l1.1-0.2l0.3-0.1V101
			l-0.4-2c0.3-0.1,0.5-0.1,0.8-0.2l0.5,2.3l1.4-0.3L89,98.4l0.8-0.2l0.5,2.3l1.2-0.3l0.1-0.3l-0.4-2.1l0.8-0.2l0.4,1.9v0.4l1.5-0.3
			l-0.5-2.3l0.8-0.2l0.4,2.2l1.4-0.3l-0.4-2.3c0.2,0,0.3-0.1,0.5-0.1l0.2-0.1l0.4,2.2l1.4-0.3l-0.4-2.3c0.3-0.1,0.5-0.1,0.8-0.2
			l0.4,2.2l1.2-0.2l0.2-0.2l-0.4-2.1l0.8-0.2l0.4,2.2l1.1-0.2l0.3-0.1l-0.4-2.2l0.8-0.2l0.4,2.2l1.4-0.2l-0.4-2.3l0.8-0.2l0.3,1.9
			l0.1,0.3h0.3l1.1-0.2l-0.4-2.3c0.2,0,0.3-0.1,0.5-0.1l0.3-0.1l0.4,2.2l1.4-0.2l-0.4-2.3l0.8-0.1l0.3,2.2l1.4-0.2l-0.3-2.3
			c0.3,0,0.5-0.1,0.8-0.1l0.3,2.2l1.4-0.2l-0.3-2.2l0.8-0.1l0.3,1.8l0.1,0.3l1.4-0.2l-0.3-2.2l0.2,0c0.2,0,0.4-0.1,0.5-0.1l0.3,2.2
			l1.4-0.2l-0.3-2.2l0.8-0.1l0.3,2.2l1.4-0.2l-0.3-2.2l0.2,0c0.2,0,0.4-0.1,0.6-0.1l0.2,1.8l0.1,0.3l1.4-0.1l-0.3-2.2l0.8-0.1
			l0.3,2.2l1.4-0.2l-0.3-2.2l0.8-0.1l0.2,2.2l1.4-0.2l-0.3-2.2l0.8-0.1l0.2,2.2l1.3-0.1l0.1-0.3l-0.2-1.9l0.8-0.1l0.2,2.1l1.4-0.2
			l-0.2-2.2l0.8-0.1l0.2,2.1l1.4-0.1l-0.2-2.2l0.8-0.1l0.2,2.1l1.4-0.1l-0.2-2.2l0.8-0.1l0.2,2.1l1.4-0.1l-0.2-2.2l0.8-0.1l0.2,2.1
			l1.4-0.1l-0.2-2.2l0.8-0.1l0.2,2.1l1.4-0.1l-0.2-2.2l0.8-0.1l0.2,2.1l1.4-0.1l-0.2-2.1l0.8-0.1l0.1,2.1l1.4-0.1l-0.1-2.1l0.8-0.1
			l0.1,2.1l1.4-0.1l-0.1-2.1l0.8-0.1l0.1,2.1l1.1-0.1h0.4l-0.1-2.1l0.8-0.1l0.1,2.1l1.4-0.1l-0.1-2.1l0.8,0l0.1,2.1l1.4-0.1
			l-0.1-2.1l0.8,0l0.1,2.1L157,90l-0.1-2.1l0.8,0l0.1,2.1l1.3-0.1l0.1-0.3l-0.1-1.8l0.8,0l0.1,1.9l0.2,0.2l1.3,0l-0.1-2.1l0.8,0
			l0.1,2.1l1.4,0l-0.1-2.1l0.8,0l0,2.1l1.1,0l0.3-0.1l0-2l0.8,0l0,2.1l1.5,0l0-2.1l0.8,0l0,2.1l1.5,0l0-2.1l0.8,0l0,2.1l1.3,0
			l0.2-0.2l0-1.9l0.8,0l0,2.1l1.5,0l0-2.1l0.8,0l0,2.1l1.4,0l0-2.1l0.8,0l0,2.1l1.5,0l0-2.1l0.8,0l0,2.1l1.4,0l0-2l0.8,0l0,2.1
			l1.5,0l0-2l0.8,0l-0.1,2.1l1.5,0l0.1-2l0.8,0l-0.1,1.7v0.3l1.4,0l0.1-2l0.8,0l-0.1,2.1l1.3,0l0.2-0.2l0.1-1.8c0.2,0,0.4,0,0.6,0
			l0.1,0l-0.1,2l1.5,0.1l0.1-2l0.8,0l-0.1,2l1.5,0.1l0.1-2l0.8,0l-0.1,2.1l1.5,0.1l0.1-2l0.8,0.1l-0.1,2l1.4,0.1l0.1-2l0.8,0.1
			l-0.1,2l1.4,0.1l0.1-2l0.8,0.1l-0.1,2l1.4,0.1l0.1-2l0.1,0c0.2,0,0.5,0,0.7,0.1l-0.1,2l1.4,0.1l0.1-2l0.8,0.1l-0.2,2.1l1.3,0.1
			l0.1-0.2l0.2-1.8l0.8,0.1l-0.1,1.7v0.3l1.4,0.1l0.2-2l0.1,0c0.2,0,0.5,0,0.7,0.1l-0.2,1.7v0.3l1.4,0.1l0.2-2l0.8,0.1l-0.2,2.1
			l1.4,0.1l0.2-2l0.8,0.1l-0.2,2.1l1.4,0.1l0.2-2l0.8,0.1l-0.2,2.1l1.4,0.1l0.2-2l0.8,0.1l-0.2,2.1l1.1,0.1l0.4,0l0.2-1.9l0.8,0.1
			l-0.2,1.9l0.2,0.2l1.2,0.1l0.2-2l0.8,0.1l-0.2,2.1l1.4,0.1l0.2-2l0.8,0.1l-0.3,2.1l1.1,0.1h0.3l0.2-2c0.1,0,0.3,0,0.4,0.1l0.3,0.1
			l-0.3,2.1l1.3,0.2l0.2-0.2l0.2-1.8l0.8,0.1l-0.3,2.1l1.5,0.2v-0.4l0.2-1.7l0.8,0.1l-0.3,2.1l1.4,0.2l0.3-2c0.3,0,0.5,0.1,0.8,0.1
			l-0.3,2.1l1.4,0.2l0.3-2l0.8,0.1l-0.3,2.1l1.4,0.2l0.3-2l0.8,0.1l-0.3,2.1l1.4,0.2l0.3-2l0.8,0.1l-0.3,2.1l1.4,0.2l0.3-2l0.8,0.2
			l-0.3,1.8v0.3l1.4,0.2l0.3-2l0.8,0.2l-0.4,2.1l1.4,0.2l0.3-2l0,0c0.2,0.1,0.5,0.1,0.7,0.2l-0.4,2.1l1.2,0.2h0.3l0.3-2l0.8,0.2
			l-0.4,2.1l1.4,0.3l0.4-2l0.2,0c0.2,0,0.4,0.1,0.6,0.1l-0.4,2.1l1.4,0.3l0.4-2l0.8,0.2l-0.3,1.9v0.3l1.4,0.3l0.4-2.1
			c0.3,0.1,0.5,0.1,0.8,0.2l-0.4,2.1l1.4,0.3L258,98l0.8,0.2l-0.4,2.1l1.4,0.3l0.4-2.1l0.8,0.2l-0.4,2.1l1.4,0.3l0.4-2.1l0.8,0.2
			l-0.5,2.2l1.4,0.3l0.4-2.1c0.2,0.1,0.4,0.1,0.6,0.2l0.2,0.1l-0.5,2.2l1.4,0.3l0.5-2.1c0.3,0.1,0.5,0.1,0.8,0.2l-0.5,2.2l1.4,0.3
			l0.5-2.1l0.8,0.2l-0.5,2.2l1.5,0.3v-0.4l0.4-1.7c0.3,0.1,0.5,0.2,0.8,0.2l-0.5,2.2l1.4,0.3l0.5-2.1l0.8,0.2l-0.5,2.2l1.4,0.3
			l0.5-2.1c0.2,0.1,0.4,0.1,0.6,0.2l0.2,0.1l-0.5,2.2l1.4,0.3l0.5-2.1l0.8,0.2l-0.6,2.3h0.4l1,0.3l0.5-2.1l0.8,0.2l-0.5,1.9l0,0.4
			l1.3,0.3l0.5-2.1c0.3,0.1,0.5,0.2,0.8,0.3l-0.6,2.2l1.4,0.4l0.6-2.2l0.8,0.3l-0.6,2.3l1.4,0.4l0.6-2.2c0.2,0.1,0.5,0.2,0.7,0.3
			l0,0l-0.6,2.3l1.4,0.4l0.6-2.2l0.2,0.1c0.2,0.1,0.4,0.1,0.6,0.2l-0.6,2.3l1.4,0.4l0.6-2.2l0.8,0.3l-0.7,2.3l1.4,0.4l0.6-2.2
			l0.8,0.3l-0.7,2.3l1.4,0.4l0.6-2.2c0.2,0.1,0.4,0.1,0.5,0.2l0.2,0.1l-0.7,2.3l1.4,0.4l0.7-2.2c0.3,0.1,0.5,0.2,0.8,0.3l-0.7,2.3
			l1.1,0.3l0.3,0l0.1-0.3l0.6-1.9l0.8,0.3l-0.7,2.4l1,0.3l0.4,0.2l0.7-2.3c0.2,0.1,0.5,0.2,0.7,0.3l0,0l-0.7,2.4L301.2,114.7z
			 M174.1,86c-43,0-85.4,8.2-126,24.2l-0.4-1.2c37.1-15.9,81-24.4,126.8-24.4c46.3,0,90.7,8.6,128.4,24.9l-0.5,1.4
			C260.9,94.4,217.7,86,174.1,86z M315.1,71.8l-0.2-0.1c-41-16.6-95.9-27.2-139.5-27.2l0,0c-44.6,0-99.6,10.3-140.4,26.5l-0.5-1.5
			c45.7-18.5,93.1-27.8,141-27.9h0.2c48,0,95.2,9.4,140.2,27.9L315.1,71.8z M85.7,49.7h1.1l0.2,1.2l-1,0.2L85.7,49.7z M317,66.1
			l-1.3-0.4l-0.6,1.9c-0.3-0.1-0.5-0.2-0.8-0.3l-0.2-0.1l0.6-2l-1.4-0.4l-0.6,1.9c-0.3-0.1-0.7-0.3-1-0.4l0.6-1.9l-0.1-0.1l-1.1-0.4
			l-0.1,0.2l-0.5,1.7c-0.3-0.1-0.7-0.3-1-0.4l0.5-1.8l-0.2-0.2l-1.2-0.4l-0.6,1.9c-0.3-0.1-0.6-0.2-0.8-0.3l-0.2-0.1l0.6-2l-1.4-0.4
			l-0.6,1.9l-0.2-0.1c-0.3-0.1-0.5-0.2-0.8-0.3l0.6-2l-1.4-0.4l-0.5,1.9l-1-0.4l0.6-2l-1.4-0.4l-0.5,1.9l-1-0.4l0.6-2l-1-0.3
			l-0.4-0.3l0,0.2l-0.1,0v0.4l-0.4,1.5l-1-0.3l0.5-2l-1.4-0.4l-0.5,1.9l-1-0.3l0.5-2l-1.4-0.4l-0.5,1.9l-0.3-0.1
			c-0.2-0.1-0.5-0.2-0.7-0.2l0.4-1.7l0-0.3l-0.3-0.1l-1.1-0.3l-0.5,1.9l-1-0.3l0.5-2l-1.4-0.4l-0.5,1.9h0c-0.3-0.1-0.7-0.2-1-0.3
			l0.5-2l-1.3-0.3l-0.1,0.2l-0.4,1.7c-0.2-0.1-0.4-0.1-0.6-0.2l-0.4-0.1l0.5-2l-1.4-0.3l-0.5,2l-1-0.3l0.5-2l-1.4-0.3l-0.5,2l-1-0.3
			l0.5-2l-1-0.2l-0.4-0.4l-0.1,0.3l-0.1,0v0.4l-0.4,1.6c-0.3-0.1-0.7-0.2-1-0.3l0.5-2.1l-1.4-0.3l-0.4,2l-1-0.3l0.4-2.1l-1.4-0.3
			l-0.4,2l-1-0.3l0.4-2.1l-1.3-0.3l-0.1,0.2l-0.4,1.8c-0.3-0.1-0.7-0.2-1-0.3l0.4-2.1l-1.4-0.3l-0.4,2l-1-0.3l0.4-2.1l-1.1-0.2
			l-0.4-0.1v0.4l-0.3,1.7c-0.3-0.1-0.7-0.2-1-0.3l0.4-1.9l-0.2-0.2l-1.2-0.2l-0.4,2l-0.3-0.1c-0.2-0.1-0.5-0.1-0.7-0.2l0.3-1.8v-0.3
			l-1.4-0.3l-0.4,2c-0.3-0.1-0.7-0.2-1-0.2l0.4-2.1l-1.4-0.3l-0.4,2l-1-0.2l0.4-2.1l-1.1-0.2h-0.3l-0.4,2c-0.2,0-0.4-0.1-0.6-0.1
			l-0.4-0.1l0.4-2.1l-1.1-0.2h-0.3l-0.3,2l-1-0.2l0.4-2.1l-1.4-0.2l-0.3,2c-0.3-0.1-0.7-0.1-1-0.2l0.3-2.1l-1.4-0.2l-0.3,2l-1-0.2
			l0.3-2.1l-1.4-0.2l-0.3,2l-0.3-0.1c-0.2,0-0.4-0.1-0.7-0.1l0.3-1.9l-0.2-0.2l-0.9-0.1H246l-0.3,2c-0.2,0-0.5-0.1-0.7-0.1l-0.3-0.1
			l0.3-2.1l-1.1-0.2h-0.3l-0.3,2l-1-0.2l0.3-2.1l-1.4-0.2l-0.3,2.1l-1-0.2l0.3-2.1l-1.4-0.2l-0.3,2.1l-1-0.2l0.3-2.1l-1.4-0.2
			l-0.3,2.1l-0.4-0.1c-0.2,0-0.4-0.1-0.6-0.1l0.3-2.1l-1.4-0.2l-0.3,2.1l-1-0.2l0.3-2.1l-1.4-0.2l-0.3,2.1l-1-0.2l0.2-2.1l-1.5-0.2
			l-0.2,2.1c-0.2,0-0.4-0.1-0.6-0.1l-0.4-0.1l0.2-1.8v-0.3l-1.4-0.2l-0.2,2.1l-1-0.1l0.2-1.8l0.1-0.4l-1.5-0.1l-0.2,2.1l-1-0.1
			L223,41l-1.3-0.1l-0.1,0.2l-0.2,1.9l-1-0.1l0.2-2.2l-1.4-0.1l-0.2,2.1l-0.4-0.1c-0.2,0-0.4,0-0.6-0.1L218,41l0-0.6l-1.4-0.1
			l-0.2,2.1l-1-0.1l0.2-2.2l-1.1-0.1h-0.3l-0.2,2.1l-1-0.1l0.2-2.2l-1.4-0.1l-0.2,2.1l-1-0.1l0.2-2.2l-1.4-0.1l-0.2,2.2l-1-0.1
			l0.2-2.2l-1.4-0.1l-0.1,0.2l-0.1,1.9l-0.4,0c-0.2,0-0.4,0-0.6-0.1l0.1-2.2l-1.4-0.1l-0.1,2.2l-1-0.1l0.1-2.2l-1.4-0.1l-0.1,2.2
			l-1-0.1l0.1-2.2l-1.4-0.1l-0.1,2.2c-0.3,0-0.5,0-0.8,0l-0.2,0l0.1-2.1l-0.2-0.1l-1.2-0.1l-0.1,2.2c-0.3,0-0.7,0-1-0.1l0.1-2.2
			l-1.5,0l-0.1,2.2c-0.3,0-0.7,0-1-0.1l0.1-2.2l-1.5-0.1l-0.1,2.2l-1,0l0.1-2.2l-1.5,0l-0.1,2.2l-0.3,0c-0.2,0-0.5,0-0.7,0l0.1-2.2
			l-1.4,0l-0.1,2.2c-0.2,0-0.4,0-0.6,0l-0.4,0l0-2.1l-0.2-0.1l-1.2-0.1l-0.1,2.2c-0.3,0-0.7,0-1,0l0-2.2l-1.1,0l-0.3,0l0,2.2
			c-0.3,0-0.7,0-1,0l0-2.2l-1.5,0l0,2.2c-0.3,0-0.7,0-1,0l0-2.3l-1.1,0l-0.3,0l0,2.2l-0.4,0c-0.2,0-0.4,0-0.6,0l0-2.2h-1.4l0,2.3
			c-0.2,0-0.4,0-0.6,0l-0.4,0l0-2.3l-1.5,0l0,2.3c-0.3,0-0.7,0-1,0l0-2.3l-1.5,0l0,2.3l-1,0l0-2.3l-1.5,0l0,2.3l-1,0l0-2.3l-1.5,0
			l0,2.3l-1,0l-0.1-2.3l-1.5,0l0.1,2.3l-1,0l-0.1-2.3l-1.5,0l0.1,2.3l-1,0l-0.1-2.3l-1.5,0l0.1,2.3l-1,0.1l-0.1-2.3l-1.5,0.1
			l0.1,2.3l-1,0.1l-0.1-2.3l-1.4,0.1l0.1,2.3l-1,0.1l-0.1-2.3l-1.5,0.1l0.1,2.3c-0.3,0-0.5,0-0.8,0.1l-0.2,0l-0.1-2.3l-1.4,0.1
			l0.1,2.4l-0.3,0c-0.2,0-0.5,0-0.7,0.1l-0.1-2.1l-0.2-0.2l-1.3,0.1l0.1,2.4c-0.2,0-0.4,0-0.6,0.1l-0.4,0l-0.2-2.3l-1.4,0.1l0.2,2.4
			c-0.3,0-0.7,0.1-1,0.1l-0.2-2.3l-1.4,0.1l0.2,2.4l-1,0.1l-0.2-2.3l-1.4,0.1l0.2,2.4l-1,0.1l-0.2-2.4l-1.4,0.1l0.2,2.4l-0.4,0
			c-0.2,0-0.4,0-0.6,0.1l-0.2-2.3l-1.4,0.1l0.2,2.4c-0.2,0-0.4,0.1-0.6,0.1l-0.4,0l-0.2-2.4l-1.4,0.1l0.2,2.4l-1,0.1l-0.2-2.4
			l-1.4,0.1l0.2,2.4l-1,0.1L127,41l-1.1,0.1l-0.3,0.1l0.2,2.4l-1,0.1l-0.3-2.4l-1.4,0.2l0.3,2.4l-1,0.1l-0.3-2.4l-1.4,0.2l0.3,2.4
			l-1,0.2l-0.3-2.4l-1.4,0.2l0.3,2.4l-1,0.2l-0.3-2.4l-1.4,0.2l0.3,2.4l-1,0.2l-0.3-2.4l-1.1,0.1l-0.3,0.1l0.3,2.4l-1,0.2l-0.3-2.4
			l-1.4,0.2l0.3,2.4l-0.2,0c-0.3,0-0.6,0.1-0.8,0.1l-0.3-2.4l-1.1,0.2l-0.3,0.1l0.3,2.4l-1,0.2l-0.3-2.4l-1.4,0.2l0.4,2.5l-1,0.2
			l-0.4-2.4l-1.2,0.2l-0.2,0.2l0.3,2.2l-1,0.2l-0.4-2.4l-1.1,0.2h-0.4l0.4,2.5l-1,0.2l-0.4-2.4l-1.4,0.2l0.4,2.5
			c-0.3,0.1-0.7,0.1-1,0.2L97.7,46l-1.1,0.2l-0.3,0.1v0.3l0.4,2.1l-1,0.2l-0.4-2.4l-1.1,0.2l-0.3,0.1v0.3l0.4,2.1l-0.4,0.1
			c-0.2,0-0.4,0.1-0.6,0.1l-0.4-2.4l-1.4,0.3l0.4,2.5c-0.2,0.1-0.5,0.1-0.7,0.2L90.8,50l-0.4-2.4l-1.1,0.2L89,47.9v0.3l0.4,2.1
			c-0.3,0.1-0.7,0.2-1,0.2L88,48.2l-1.4,0.3l0.2,1.1l-1.1-0.3l-0.1-0.5L84.5,49h-0.4l0,0.1L83,49.3l1.3,0.3l0.4,1.9l-1,0.3l-0.5-2.4
			l-1.4,0.3l0.5,2.5l-1,0.3l-0.4-2.2l-0.3-0.1l-1.2,0.2l0.5,2.5l-1,0.3l-0.5-2.4l-1.1,0.2L77,51v0.3l0.4,2.1l-0.3,0.1
			c-0.2,0.1-0.5,0.1-0.7,0.2l-0.5-2.4l-1.4,0.3l0.5,2.4c-0.2,0.1-0.5,0.1-0.7,0.2L74,54.3L73.5,52l-1.1,0.2l-0.3,0.1v0.3l0.5,2.1
			l-1,0.3l-0.5-2.4L70,52.9l-0.3,0.1v0.3l0.5,2.1l-1,0.3l-0.5-2.3l-1.1,0.2l-0.3,0.1V54l0.5,2.1l-1,0.3l-0.6-2.4l-1.1,0.3l-0.3,0.1
			v0.3l0.5,2.1L65.1,57c-0.2,0.1-0.5,0.1-0.7,0.2L64,55.5L64,55.3v-0.4l-1.5,0.4l0.6,2.4l-1,0.3l-0.6-2.3L60.1,56l0.6,2.4
			c-0.3,0.1-0.7,0.2-1,0.3l-0.5-2v-0.4l-1.5,0.4l0.6,2.4l-1,0.3l-0.6-2.3l-1.4,0.4l0.6,2.4l-1,0.3L54.3,58l-1.4,0.4l0.6,2.4
			l-0.4,0.2c-0.2,0.1-0.4,0.1-0.6,0.2l-0.6-2.3l-1.4,0.4l0.6,2.4c-0.3,0.1-0.5,0.2-0.8,0.3l-0.2,0.1l-0.6-2.3L48.1,60l0.7,2.4
			l-1,0.4l-0.6-2.3l-1.4,0.4l0.7,2.4l-1,0.4l-0.7-2.3l-1.3,0.4V62l0.6,2.1c-0.3,0.1-0.7,0.2-1,0.4l-0.7-2.3L41,62.6l0.7,2.4l-1,0.4
			l-0.7-2.2l-1.4,0.4l0.7,2.4l-1,0.4l-0.7-2.2l-1.3,0.4v0.3l0.6,2.1l-1,0.4L35.3,65L34,65.4v0.3l0.6,2.1L34,68l-1-3
			c12.6-5.2,25.5-9.7,38.4-13.5l0.1,0c1.4-0.4,2.8-0.8,4.2-1.2l0.4-0.1c1.4-0.4,2.7-0.8,4.1-1.1l0.4-0.1c8.5-2.2,17.2-4.2,25.8-5.8
			l0.6-0.1c1.4-0.3,2.8-0.5,4.1-0.7l0.5-0.1c20.5-3.5,41.5-5.3,62.4-5.3c21.2,0,42.5,1.8,63.4,5.5l0.5,0.1
			c8.9,1.6,17.8,3.5,26.6,5.7l0.1,0c7.4,1.9,14.9,4,22.2,6.3c10.1,3.2,20.4,7,30.4,11.1L317,66.1z"/>
		<rect x="26.3" y="17.2" class="st0" width="1.5" height="32.3"/>
		<rect x="24.1" y="17.2" class="st0" width="1.5" height="32.3"/>
		<rect x="28.5" y="17.2" class="st0" width="1.5" height="32.3"/>
		<rect x="30.6" y="17.2" class="st0" width="1.5" height="32.3"/>
		<rect x="32.8" y="17.2" class="st0" width="1.5" height="32.3"/>
	</g>
	<path class="st1" d="M176.8,28c7,0,6.9-0.5,1.2,3.5c2.2,6.6,2.6,6.2-3.1,2.2c-5.6,4-5.3,4.5-3.1-2.2c-5.7-4.1-5.8-3.5,1.2-3.5
		C175.2,21.4,174.6,21.4,176.8,28L176.8,28z"/>
</g>
</svg>
