<?xml version="1.0" encoding="UTF-8" standalone="no"?>
<svg width="30px" height="36px" viewBox="0 0 30 36" version="1.1" xmlns="http://www.w3.org/2000/svg" xmlns:xlink="http://www.w3.org/1999/xlink">
    <!-- Generator: Sketch 3.7.2 (28276) - http://www.bohemiancoding.com/sketch -->
    <title>junk</title>
    <desc>Created with Sketch.</desc>
    <defs></defs>
    <g id="Welcome" stroke="none" stroke-width="1" fill="none" fill-rule="evenodd">
        <g id="Templates-Screen-Alternative" transform="translate(-712.000000, -216.000000)" fill="#8A959E">
            <g id="junk" transform="translate(712.000000, 216.000000)">
                <path d="M20.25,31.5 L18.75,31.5 L18.75,8.25 L20.25,8.25 L20.25,31.5 L20.25,31.5 Z M11.25,8.25 L9.75,8.25 L9.75,31.5 L11.25,31.5 L11.25,8.25 L11.25,8.25 Z M15.75,8.25 L14.25,8.25 L14.25,31.5 L15.75,31.5 L15.75,8.25 L15.75,8.25 Z M30,3 L30,4.5 L27.68325,4.5 L24.68325,36 L5.319,36 L2.319,4.5 L0,4.5 L0,3 L11.25,3 L11.25,0 L18.75,0 L18.75,3 L30,3 L30,3 Z M12.75,3 L17.25,3 L17.25,1.5 L12.75,1.5 L12.75,3 L12.75,3 Z M26.175,4.5 L3.825,4.5 L6.68325,34.5 L23.31975,34.5 L26.175,4.5 L26.175,4.5 Z" id="i-289"></path>
            </g>
        </g>
    </g>
</svg>