<?xml version="1.0" encoding="utf-8"?>
<!-- Generator: Adobe Illustrator 19.2.1, SVG Export Plug-In . SVG Version: 6.00 Build 0)  -->
<svg version="1.1" id="Layer_1" xmlns="http://www.w3.org/2000/svg" xmlns:xlink="http://www.w3.org/1999/xlink" x="0px" y="0px"
	 viewBox="0 0 300 300" style="enable-background:new 0 0 300 300;" xml:space="preserve">
<style type="text/css">
	.st0{fill-rule:evenodd;clip-rule:evenodd;fill:#86C9AB;}
	.st1{fill-rule:evenodd;clip-rule:evenodd;fill:#785EE2;}
	.st2{fill-rule:evenodd;clip-rule:evenodd;fill:#F89900;}
	.st3{fill-rule:evenodd;clip-rule:evenodd;fill:#FEFDFE;}
</style>
<g id="_x33_mngvr.tif">
	<g>
		<path class="st0" d="M2,149.7C2.2,67.4,68.5,1.5,150.8,1.7C232,1.9,298.2,68.6,297.9,150c-0.2,81.6-66.6,147.8-148.1,147.6
			C68.1,297.5,1.8,231.1,2,149.7z M146.2,211.8c0,16.1,0,32.2,0,48.3c0,0.8-0.4,2,0.4,2.3c2,0.8,4.1,0.5,6.1,0.2
			c1.8-0.3,1-2.1,1-3.1c0.1-15.9,0-31.8,0-47.7c3-0.8,6.1,0.1,9.5-0.6c-2.4-4.2-4.7-8.3-7-12.4c1.3-0.4,2.4-0.7,3.4-1.3
			c14.2-8.8,27.3-19.1,38-32c16.2-19.5,26-41.1,21.8-67.4c-2.3-14-6.6-27.1-16.2-37.9C181.7,36.1,146.6,30,117,44.4
			c-32.5,15.8-41.2,53.7-35.9,80.3c3.2,16.2,11.7,29.9,22.4,42.2c11.4,13.1,24.9,23.6,39.9,32.3c-2.2,3.9-4.4,7.9-6.8,12.1
			C140.2,211.8,143.2,211.1,146.2,211.8z"/>
		<path class="st1" d="M146.2,211.8c-3-0.7-6,0-9.5-0.5c2.3-4.2,4.6-8.2,6.8-12.1c-15-8.7-28.5-19.2-39.9-32.3
			c-10.7-12.3-19.2-26-22.4-42.2c-5.3-26.6,3.4-64.5,35.9-80.3c29.6-14.4,64.7-8.3,86.1,15.8c9.6,10.8,13.9,23.8,16.2,37.9
			c4.3,26.3-5.5,47.9-21.8,67.4c-10.7,12.9-23.8,23.2-38,32c-1,0.6-2,0.9-3.4,1.3c2.3,4.1,4.6,8.2,7,12.4c-3.3,0.7-6.5-0.2-9.5,0.6
			C151.2,211.8,148.7,211.8,146.2,211.8z M157.9,56c0.1-1.9-0.3-3.7-1.9-4.5c-1.8-0.9-2.4,1.2-3.3,2.1C133,73.3,113.3,93,93.6,112.7
			c-2.2,2.2-1.5,4.7,1.3,5.5c1.7,0.5,2.9-0.3,4.1-1.5c19.1-19.1,38.2-38.3,57.3-57.3C157.4,58.4,158.1,57.4,157.9,56z M88.9,106
			c0.1,1,0.1,1.6,0.2,2c0.5,1.3,0,3.4,1.5,3.8c1.3,0.4,2.1-1.4,3-2.3c19.1-19,38.1-38,57.1-57.1c0.6-0.6,1.2-1.2,1.7-1.8
			c0.5-0.5,0.6-1,0-1.6c-1.6-1.7-5.9-1.9-7.6-0.2c-18.2,18.1-36.3,36.3-54.5,54.4C89.5,104.2,88.7,105.1,88.9,106z M89.2,100.2
			c17.6-17.6,35.3-35.3,52.7-52.8c-4.7-0.5-9,0.6-13,4.8C118.1,63.6,107,74.7,95.6,85.5C90.9,89.8,89.6,94.8,89.2,100.2z
			 M154.8,65.8c-17,17-34.2,34.2-51.7,51.7C124.9,104.4,141.7,86.7,154.8,65.8z M93.6,83.3c11-11,22.1-22.1,32.9-32.9
			C110.4,55.8,99.3,67,93.6,83.3z"/>
		<path class="st2" d="M146.2,211.8c2.5,0,5,0,7.5,0c0,15.9,0,31.8,0,47.7c0,1.1,0.8,2.9-1,3.1c-2,0.3-4.2,0.6-6.1-0.2
			c-0.8-0.3-0.4-1.5-0.4-2.3C146.2,244,146.2,227.9,146.2,211.8z"/>
		<path class="st3" d="M157.9,56c0.2,1.4-0.5,2.4-1.5,3.4c-19.1,19.1-38.3,38.2-57.3,57.3c-1.2,1.2-2.4,2-4.1,1.5
			c-2.9-0.8-3.5-3.4-1.3-5.5C113.3,93,133,73.3,152.7,53.6c0.9-0.9,1.6-2.9,3.3-2.1C157.6,52.3,158,54.1,157.9,56z"/>
		<path class="st3" d="M88.9,106c-0.2-0.9,0.6-1.8,1.6-2.7c18.2-18.1,36.3-36.3,54.5-54.4c1.7-1.7,6-1.5,7.6,0.2
			c0.6,0.6,0.5,1.1,0,1.6c-0.6,0.6-1.2,1.2-1.7,1.8c-19,19-38,38.1-57.1,57.1c-0.9,0.9-1.7,2.7-3,2.3c-1.5-0.4-1-2.5-1.5-3.8
			C89,107.6,89,107.1,88.9,106z"/>
		<path class="st3" d="M89.2,100.2c0.4-5.4,1.7-10.4,6.4-14.7c11.4-10.7,22.5-21.9,33.3-33.3c4-4.2,8.3-5.3,13-4.8
			C124.5,64.9,106.8,82.6,89.2,100.2z"/>
		<path class="st3" d="M154.8,65.8c-13.1,20.9-29.9,38.6-51.7,51.7C120.6,100,137.8,82.8,154.8,65.8z"/>
		<path class="st3" d="M93.6,83.3c5.7-16.3,16.8-27.6,32.9-32.9C115.8,61.2,104.6,72.4,93.6,83.3z"/>
	</g>
</g>
</svg>
