<?xml version="1.0" encoding="utf-8"?>
<!-- Generator: Adobe Illustrator 19.2.1, SVG Export Plug-In . SVG Version: 6.00 Build 0)  -->
<svg version="1.1" id="Layer_1" xmlns="http://www.w3.org/2000/svg" xmlns:xlink="http://www.w3.org/1999/xlink" x="0px" y="0px"
	 viewBox="0 0 300 300" style="enable-background:new 0 0 300 300;" xml:space="preserve">
<style type="text/css">
	.st0{fill:#FEFEFE;}
	.st1{fill-rule:evenodd;clip-rule:evenodd;fill:#F2F2F2;}
	.st2{fill-rule:evenodd;clip-rule:evenodd;fill:#0C55C0;}
	.st3{fill-rule:evenodd;clip-rule:evenodd;fill:#F7C158;}
	.st4{fill-rule:evenodd;clip-rule:evenodd;fill:#68C4DD;}
	.st5{fill-rule:evenodd;clip-rule:evenodd;fill:#DEDEDE;}
	.st6{fill-rule:evenodd;clip-rule:evenodd;fill:#D91530;}
	.st7{fill-rule:evenodd;clip-rule:evenodd;fill:#F5182E;}
</style>
<g id="I1UcYU.tif">
	<g>
		<path class="st0" d="M166.6,296.7c4.5,0,8.9-0.2,13.4,0c16,0.7,30.3-2.9,42.2-14.6c8-7.9,13.7-16.2,13.6-28.1
			c-0.1-5.2-2.8-9.1-3.8-13.7c-1.3-5.9-1.2-12.2-3.3-17.8c-4.4-12-4.5-24.8-8.8-36.8c-4.9-14.1-5.8-29.4-10.5-43.7
			c-1.6-4.7-0.6-8.5,3.2-12c3.5-3.3,7.7-5.8,10.8-9.7c7-8.6,10.4-18.6,13.5-29.1c5.2-17.6,0.8-33.8-6.7-49.4
			c-2.2-4.5-5.6-8.8-8.2-13.3c-0.8-1.3-2-2.5-3.3-3.4c-8.6-5.9-17.3-11.4-27.3-14.8c-14.7-5.1-29.3-5.8-43.7,0.3
			c-5.8,2.4-11.4,5.7-17,8.4c-10.2,4.9-15.2,14-22,21.6c-2,2.2-3.7,5-4.4,7.8c-3.4,12.8-5.3,25.8-3.7,39c0.7,5.8,3.1,11.5,5.6,16.9
			c1.9,4.1,2.1,7.1-1,10.4c-7,7.3-11.7,16.3-17.9,24.2c-4.8,6.1-9,12.7-13.7,18.8c-4.9,6.3-9.5,13-15.7,18.4
			c-4.7,4.2-6.9,10.4-11.3,15.1c-4.3,4.7-8.6,10.1-11.9,15.9c-4.2,7.3-2.5,15.5-2.4,23.2c0.3,13.3,6.4,24.4,17.1,31.9
			c5.5,3.9,11,8,16.7,11.7c9,6,19.5,8.8,29.4,12.3c6.9,2.5,14.7,3.8,21.8,6.6c1.7,0.7,3.5,1.3,5.3,1.4
			C137.1,295.2,151.7,298.4,166.6,296.7z"/>
		<path class="st1" d="M166.2,294.3c-14.8,1.7-29.4-1.5-44.1-2.5c-1.8-0.1-3.6-0.7-5.3-1.4c-7.1-2.8-14.9-4.1-21.8-6.6
			c-9.8-3.5-20.4-6.3-29.4-12.3c-5.7-3.8-11.2-7.8-16.7-11.7c-10.7-7.5-16.8-18.5-17.1-31.9c-0.2-7.8-1.8-15.9,2.4-23.2
			c3.3-5.8,7.6-11.2,11.9-15.9c4.4-4.8,6.6-11,11.3-15.1c6.1-5.4,10.8-12.2,15.7-18.4c4.7-6,8.9-12.7,13.7-18.8
			c6.2-7.9,10.9-16.9,17.9-24.2c3.2-3.3,2.9-6.3,1-10.4c-2.5-5.3-4.9-11.1-5.6-16.9c-1.6-13.1,0.3-26.2,3.7-39
			c0.7-2.8,2.5-5.6,4.4-7.8c6.8-7.6,11.8-16.7,22-21.6c5.6-2.7,11.2-6,17-8.4c14.4-6.1,29-5.4,43.7-0.3c10,3.4,18.7,9,27.3,14.8
			c1.3,0.9,2.5,2.1,3.3,3.4c2.6,4.5,6,8.7,8.2,13.3c7.5,15.6,11.9,31.8,6.7,49.4c-3.1,10.4-6.6,20.4-13.5,29.1
			c-3.1,3.9-7.3,6.4-10.8,9.7c-3.8,3.5-4.7,7.3-3.2,12c4.8,14.3,5.6,29.5,10.5,43.7c4.2,12,4.4,24.9,8.8,36.8c2,5.6,2,11.9,3.3,17.8
			c1,4.6,3.7,8.5,3.8,13.7c0.1,11.9-5.6,20.2-13.6,28.1c-11.9,11.7-26.2,15.3-42.2,14.6C175.1,294.1,170.6,294.3,166.2,294.3z
			 M104.7,149.1c-0.4,0.5-0.8,0.9-1.2,1.4c-12,14.9-23.6,30.1-34.6,45.8l0.2,0c-0.5,0.5-0.9,1-1.4,1.6c-3.9,4.9-7.8,9.8-11.6,14.8
			c-6.9,9.1-6.7,15.1,0.9,23.6c2.8,3.2,5.7,6.3,9.6,8.2c10.8,8.4,23.1,13.6,36.1,17.3c20.6,7.5,41.9,10.8,63.7,11.1
			c11.2,0.2,22.3-0.9,32.7-5.6c9-4,14.7-9.3,11.6-21.9c-10.8-44.1-20.9-88.3-31.3-132.5c-0.3-1.4-0.4-2.3,0.9-3
			c5.1,8.1,10,2.8,14.9-0.3c0.3-0.2,0.7-0.5,1-0.6c3.4-1.4,3.1-3.3,1.3-6.1c-3.6-5.4-6.9-11.1-11.1-18c5.7,1.3,9.6,2.2,13.5,3.2
			c11.8,2.8,11.5,2.8,14.5-9.2c1-4.2-0.4-5.2-4-6c-6.2-1.3-12.3-2.9-19.9-4.7c5-3.2,8.4-5.3,11.8-7.4c10.2-6.3,10.1-6.3,3.6-16.6
			c-1.9-3.1-3.4-3.8-6.6-1.6c-5.4,3.7-11.2,7-17.8,11.1c1.2-5.3,2-9.2,2.9-13.1c2.9-12.3,2.9-12.1-9.2-14.9c-3.9-0.9-5,0.2-5.7,3.7
			c-1.3,6.4-2.9,12.6-4.8,20.4c-3.1-5-5.2-8.4-7.3-11.8c-6.4-10.3-6.3-10.1-16.6-3.9c-3.6,2.2-3.6,3.9-1.4,7.1
			c3.5,5.2,6.7,10.7,10.7,17.5c-5.7-1.3-9.6-2.2-13.5-3.1c-11.7-2.7-11.6-2.7-14.4,9.1c-0.9,3.6-0.2,5,3.6,5.8
			c6.4,1.2,12.6,3.1,20.2,5c-6.9,4.3-12.4,7.6-17.8,11.1c-1.2,0.8-3.8,1.4-2.9,3.3c2,4.2,4.2,8.4,7.2,11.9c2.5,2.9,4.6-2.3,7.5-1.6
			c-0.9,3.2-3.1,5.6-5,8.1C124.9,121.9,114.8,135.5,104.7,149.1L104.7,149.1z M42.1,239.1c-0.3-0.1-0.7-0.3-1-0.4
			c-0.1,0.3-0.5,0.7-0.4,1c0.1,0.2,0.6,0.3,0.9,0.5C41.9,239.8,42,239.5,42.1,239.1z"/>
		<path class="st2" d="M178.4,109.9c-1.3,0.7-1.2,1.6-0.9,3c10.4,44.2,20.5,88.4,31.3,132.5c3.1,12.7-2.7,18-11.6,21.9
			c-10.4,4.6-21.6,5.7-32.7,5.6c-21.8-0.3-43.1-3.6-63.7-11.1c2-1.3,4-3.6,6-3.8c8.8-0.6,16.8-4.2,25.2-6.3
			c16-4,33.5-19.3,30.6-40.5c-0.5-3.5-0.9-5.4-5-4.1c-7.1,2.2-14.4,3.9-21.5,6c-25.1,7.5-49.1,17.4-71.4,31.3
			c-3.9-1.9-6.8-5-9.6-8.2c-7.6-8.5-7.8-14.6-0.9-23.6c3.8-5,7.7-9.9,11.6-14.8c0.9-0.2,1.4-0.6,1.4-1.6c0,0-0.2,0-0.2,0
			c1.7,0.7,3.1-0.3,4.6-0.9c10.9-4.4,21.3-9.6,32.4-13.4c17.6-6.1,35.5-11,53.4-15.7c2.7-0.7,5.3-1.3,5.2-5.4
			c-0.3-9.7-0.2-19.5-0.1-29.2c0.1-4.8-2.6-4.9-5.9-3.7c-15.9,5.8-32.2,10.8-47.1,19.2c-2.1,1.2-4.2,2.6-6.8,2
			c10.1-13.6,20.3-27.3,30.4-40.9c1.9-2.6,4.1-4.9,5-8.1c4.1-4,9-6.6,14.4-9.5c0.2,5-1.5,8.9-2.4,13c-2.7,12.1-2.8,12,9.3,14.2
			c3.7,0.7,5.1-0.3,5.8-3.9c1.3-6.4,3-12.7,4.7-20C173.8,99.7,176.4,104.7,178.4,109.9z"/>
		<path class="st3" d="M178.4,109.9c-2-5.3-4.5-10.2-8.5-15.9c-1.8,7.3-3.5,13.6-4.7,20c-0.7,3.6-2.1,4.6-5.8,3.9
			c-12-2.3-12-2.1-9.3-14.2c0.9-4.1,2.6-8,2.4-13c-5.3,3-10.3,5.5-14.4,9.5c-2.8-0.7-5,4.4-7.5,1.6c-3-3.5-5.2-7.7-7.2-11.9
			c-0.9-1.9,1.6-2.5,2.9-3.3c5.4-3.5,11-6.8,17.8-11.1c-7.6-1.9-13.9-3.8-20.2-5c-3.8-0.7-4.5-2.1-3.6-5.8
			c2.8-11.8,2.7-11.8,14.4-9.1c3.9,0.9,7.8,1.8,13.5,3.1c-4.1-6.7-7.2-12.2-10.7-17.5c-2.1-3.2-2.2-4.9,1.4-7.1
			c10.3-6.2,10.2-6.4,16.6,3.9c2.1,3.4,4.2,6.9,7.3,11.8c1.8-7.8,3.5-14.1,4.8-20.4c0.7-3.5,1.8-4.6,5.7-3.7
			c12.1,2.8,12.1,2.6,9.2,14.9c-0.9,3.9-1.8,7.8-2.9,13.1c6.7-4.1,12.4-7.3,17.8-11.1c3.2-2.2,4.7-1.5,6.6,1.6
			c6.5,10.4,6.6,10.3-3.6,16.6c-3.4,2.1-6.8,4.3-11.8,7.4c7.6,1.8,13.7,3.4,19.9,4.7c3.6,0.7,5,1.8,4,6c-2.9,12-2.7,12-14.5,9.2
			c-3.9-0.9-7.8-1.8-13.5-3.2c4.2,7,7.5,12.6,11.1,18c1.8,2.8,2.1,4.7-1.3,6.1c-0.4,0.2-0.7,0.4-1,0.6
			C188.4,112.7,183.5,118,178.4,109.9z"/>
		<path class="st4" d="M64.6,244.5c22.3-13.9,46.3-23.8,71.4-31.3c7.1-2.1,14.4-3.9,21.5-6c4.1-1.3,4.5,0.6,5,4.1
			c3,21.2-14.5,36.5-30.6,40.5c-8.4,2.1-16.4,5.7-25.2,6.3c-2.1,0.1-4,2.5-6,3.8C87.7,258.1,75.4,252.9,64.6,244.5z"/>
		<path class="st4" d="M102.6,149.2c2.6,0.6,4.7-0.8,6.8-2c14.9-8.4,31.2-13.4,47.1-19.2c3.3-1.2,6-1.2,5.9,3.7
			c-0.1,9.7-0.2,19.5,0.1,29.2c0.1,4-2.5,4.7-5.2,5.4c-17.9,4.8-35.8,9.7-53.4,15.7c-11.1,3.8-21.6,9.1-32.4,13.4
			c-1.5,0.6-2.9,1.6-4.6,0.9c11-15.7,22.6-30.9,34.6-45.8C101.9,150.1,102.3,149.6,102.6,149.2L102.6,149.2z"/>
		<path class="st5" d="M40.1,239.1c-0.1,0.3-0.3,0.7-0.4,1c-0.3-0.1-0.8-0.2-0.9-0.5c-0.1-0.2,0.2-0.6,0.4-1
			C39.4,238.8,39.8,239,40.1,239.1z"/>
		<path class="st6" d="M102.7,149.1c-0.4,0.5-0.8,0.9-1.2,1.4C101.9,150.1,102.3,149.6,102.7,149.1z"/>
		<path class="st7" d="M67,196.3c0,0.9-0.5,1.4-1.4,1.6C66.1,197.4,66.6,196.9,67,196.3z"/>
	</g>
</g>
</svg>
