<?xml version="1.0" encoding="utf-8"?>
<!-- Generator: Adobe Illustrator 19.2.1, SVG Export Plug-In . SVG Version: 6.00 Build 0)  -->
<svg version="1.1" id="Layer_1" xmlns="http://www.w3.org/2000/svg" xmlns:xlink="http://www.w3.org/1999/xlink" x="0px" y="0px"
	 viewBox="0 0 300 300" style="enable-background:new 0 0 300 300;" xml:space="preserve">
<style type="text/css">
	.st0{fill:#FFFFFF;stroke:#FC4D58;stroke-width:5;stroke-miterlimit:10;}
	.st1{fill-rule:evenodd;clip-rule:evenodd;fill:#FC4D58;stroke:#FFFFFF;stroke-width:3;stroke-miterlimit:10;}
	.st2{fill-rule:evenodd;clip-rule:evenodd;fill:#F7C158;stroke:#FFFFFF;stroke-width:3;stroke-miterlimit:10;}
	.st3{fill:none;stroke:#29764D;stroke-width:6;stroke-miterlimit:10;}
</style>
<g>
	<circle class="st0" cx="151.5" cy="155.9" r="85.9"/>
	<g>
		<g>
			<path class="st1" d="M177.2,178.8c0.3,2.6,1,5.2,0.7,7.6c-0.5,4.3-3.2,7.3-7.4,8.6c-4.6,1.4-8.7,0-11.9-3.4
				c-4.2-4.5-4.6-10-3.7-15.7c0.2-1.5,0.9-3,1.1-4.6c0.4-4.3,0.6-8.6,0.9-13c5.3,1.7,11,0.1,16.7-1.2c4.2-0.9,8.5-0.7,12.5,1.3
				c3.5,1.8,5.9,4.5,6.9,8.4c1,4.1,0,7.7-3.1,10.5c-3.1,2.9-6.8,3.6-10.9,2.3C178.4,179.3,177.7,179,177.2,178.8z"/>
			<path class="st1" d="M130.6,179.6c-2.6,0.3-5.2,1-7.6,0.7c-4.3-0.5-7.3-3.2-8.6-7.4c-1.4-4.6,0-8.7,3.4-11.9
				c4.5-4.2,10-4.6,15.7-3.7c1.5,0.2,3,0.9,4.6,1.1c4.3,0.4,8.6,0.6,13,0.9c-1.7,5.3-0.1,11,1.2,16.7c0.9,4.2,0.7,8.5-1.3,12.5
				c-1.8,3.5-4.5,5.9-8.4,6.9c-4.1,1-7.6,0-10.5-3.1c-2.9-3.1-3.6-6.8-2.3-10.9C130,180.8,130.4,180.1,130.6,179.6z"/>
			<path class="st1" d="M130.2,132.1c-0.3-2.6-1-5.2-0.7-7.6c0.5-4.3,3.2-7.3,7.4-8.6c4.6-1.4,8.7,0,11.9,3.4
				c4.2,4.5,4.6,10,3.7,15.7c-0.2,1.5-0.9,3-1.1,4.6c-0.4,4.3-0.6,8.6-0.9,13c-5.3-1.7-11-0.1-16.7,1.2c-4.2,0.9-8.5,0.7-12.5-1.3
				c-3.5-1.8-6-4.5-6.9-8.4c-1-4.1,0-7.7,3.1-10.5c3.1-2.9,6.8-3.6,10.9-2.3C129,131.6,129.7,131.9,130.2,132.1z"/>
			<path class="st1" d="M176.4,130c2.6-0.3,5.2-1,7.5-0.7c4.3,0.5,7.3,3.2,8.6,7.4c1.4,4.6,0,8.7-3.4,11.9c-4.5,4.2-10,4.6-15.7,3.7
				c-1.5-0.2-3-0.9-4.6-1.1c-4.3-0.4-8.6-0.6-13-0.9c1.7-5.3,0.1-11-1.2-16.7c-0.9-4.2-0.7-8.5,1.3-12.5c1.8-3.5,4.5-5.9,8.4-6.9
				c4.1-1,7.7,0,10.5,3.1c2.9,3.1,3.6,6.8,2.3,10.9C176.9,128.9,176.6,129.5,176.4,130z"/>
			<path class="st1" d="M218.4,155.3c2.1,1.7,4.4,2.9,5.9,4.8c2.7,3.4,2.9,7.4,0.9,11.3c-2.3,4.3-6.1,6.1-10.8,6
				c-6.1-0.2-10.3-3.8-13.7-8.5c-0.9-1.3-1.5-2.8-2.5-4c-2.7-3.3-5.6-6.5-8.5-9.8c4.9-2.5,7.8-7.7,11-12.7c2.3-3.7,5.5-6.5,9.8-7.9
				c3.8-1.2,7.4-1,10.8,1.1c3.6,2.2,5.4,5.4,5.3,9.6c-0.2,4.3-2.3,7.4-6.1,9.4C219.6,154.9,218.9,155.1,218.4,155.3z"/>
			<path class="st1" d="M202.3,104.4c2.6-0.3,5.2-1,7.6-0.7c4.3,0.5,7.3,3.2,8.6,7.4c1.4,4.6,0,8.7-3.4,11.9
				c-4.5,4.2-10,4.6-15.7,3.7c-1.5-0.2-3-0.9-4.6-1.1c-4.3-0.4-8.6-0.6-13-0.9c1.7-5.3,0.1-11-1.2-16.7c-0.9-4.2-0.7-8.5,1.3-12.5
				c1.8-3.5,4.5-5.9,8.4-6.9c4.1-1,7.7,0,10.5,3.1c2.9,3.1,3.6,6.8,2.3,10.9C202.9,103.2,202.5,103.9,202.3,104.4z"/>
			<path class="st1" d="M152.8,87.6c1.7-2.1,2.9-4.4,4.8-5.9c3.4-2.7,7.4-3,11.3-0.9c4.3,2.3,6.1,6.1,6,10.8
				c-0.2,6.1-3.8,10.3-8.5,13.7c-1.3,0.9-2.8,1.5-4,2.5c-3.3,2.7-6.5,5.6-9.8,8.5c-2.5-4.9-7.7-7.8-12.7-11
				c-3.7-2.3-6.5-5.5-7.9-9.8c-1.2-3.8-1-7.4,1.1-10.8c2.2-3.6,5.4-5.4,9.6-5.3c4.3,0.2,7.4,2.3,9.4,6.1
				C152.4,86.4,152.6,87.1,152.8,87.6z"/>
			<path class="st1" d="M103.5,104.7c-0.3-2.6-1-5.2-0.7-7.6c0.5-4.3,3.2-7.3,7.4-8.6c4.6-1.4,8.7,0,11.9,3.4
				c4.2,4.5,4.6,10,3.7,15.7c-0.2,1.5-0.9,3-1.1,4.6c-0.4,4.3-0.6,8.6-0.9,13c-5.3-1.7-11-0.1-16.7,1.2c-4.2,0.9-8.5,0.7-12.5-1.3
				c-3.5-1.8-5.9-4.5-6.9-8.4c-1-4.1,0-7.7,3.1-10.5c3.1-2.9,6.8-3.6,10.9-2.3C102.3,104.2,103,104.5,103.5,104.7z"/>
			<path class="st1" d="M86.9,155.3c-2.1-1.7-4.4-2.9-5.9-4.8c-2.7-3.4-2.9-7.4-0.9-11.3c2.3-4.3,6.1-6.1,10.8-6
				c6.1,0.2,10.3,3.8,13.7,8.5c0.9,1.3,1.5,2.8,2.5,4c2.7,3.3,5.6,6.5,8.5,9.8c-4.9,2.5-7.8,7.7-11,12.7c-2.3,3.7-5.5,6.5-9.8,7.9
				c-3.8,1.2-7.4,1-10.8-1.1c-3.6-2.2-5.4-5.4-5.3-9.6c0.2-4.3,2.3-7.4,6.1-9.4C85.7,155.8,86.5,155.5,86.9,155.3z"/>
			<path class="st1" d="M103.8,205.2c-2.6,0.3-5.2,1-7.6,0.7c-4.3-0.5-7.3-3.2-8.6-7.4c-1.4-4.6,0-8.7,3.4-11.9
				c4.5-4.2,10-4.6,15.7-3.7c1.5,0.2,3,0.9,4.6,1.1c4.3,0.4,8.6,0.6,13,0.9c-1.7,5.3-0.1,11,1.2,16.7c0.9,4.2,0.7,8.5-1.3,12.5
				c-1.8,3.5-4.5,6-8.4,6.9c-4.1,1-7.7,0-10.5-3.1c-2.9-3.1-3.6-6.8-2.3-10.9C103.3,206.4,103.7,205.7,103.8,205.2z"/>
			<path class="st1" d="M152.8,223.7c-1.7,2.1-2.9,4.4-4.8,5.9c-3.4,2.7-7.4,3-11.3,0.9c-4.3-2.3-6.1-6.1-6-10.8
				c0.2-6.1,3.8-10.3,8.5-13.7c1.3-0.9,2.8-1.5,4-2.5c3.3-2.7,6.5-5.6,9.8-8.5c2.5,4.9,7.7,7.8,12.7,11c3.7,2.3,6.5,5.5,7.9,9.8
				c1.2,3.8,1,7.4-1.1,10.8c-2.2,3.6-5.4,5.4-9.6,5.3c-4.3-0.2-7.4-2.3-9.4-6.1C153.3,224.9,153,224.1,152.8,223.7z"/>
			<path class="st1" d="M203.3,204.3c0.3,2.6,1,5.2,0.7,7.6c-0.5,4.3-3.2,7.3-7.4,8.6c-4.6,1.4-8.7,0-11.9-3.4
				c-4.2-4.5-4.6-10-3.7-15.7c0.2-1.5,0.9-3,1.1-4.6c0.4-4.3,0.6-8.6,0.9-13c5.3,1.7,11,0.1,16.7-1.2c4.2-0.9,8.5-0.7,12.5,1.3
				c3.5,1.8,5.9,4.5,6.9,8.4c1,4.1,0,7.7-3.1,10.5c-3.1,2.9-6.8,3.6-10.9,2.3C204.4,204.8,203.7,204.5,203.3,204.3z"/>
			<path class="st2" d="M153.6,165c-0.5,0.6-0.8,1.2-1.4,1.7c-1,0.8-2.1,0.8-3.2,0.2c-1.2-0.7-1.7-1.7-1.7-3.1
				c0-1.7,1.1-2.9,2.4-3.9c0.4-0.3,0.8-0.4,1.1-0.7c0.9-0.8,1.8-1.6,2.8-2.4c0.7,1.4,2.2,2.2,3.6,3.1c1,0.7,1.8,1.6,2.2,2.8
				c0.3,1.1,0.3,2.1-0.3,3.1c-0.6,1-1.5,1.5-2.7,1.5c-1.2,0-2.1-0.6-2.7-1.7C153.7,165.3,153.6,165.1,153.6,165z"/>
			<path class="st2" d="M144.1,155.8c-0.6-0.5-1.2-0.8-1.7-1.4c-0.8-1-0.8-2.1-0.2-3.2c0.7-1.2,1.7-1.7,3.1-1.7
				c1.7,0,2.9,1.1,3.9,2.4c0.3,0.4,0.4,0.8,0.7,1.1c0.8,0.9,1.6,1.8,2.4,2.8c-1.4,0.7-2.2,2.2-3.1,3.6c-0.7,1-1.6,1.8-2.8,2.2
				c-1.1,0.3-2.1,0.3-3.1-0.3c-1-0.6-1.5-1.5-1.5-2.7c0-1.2,0.6-2.1,1.7-2.6C143.7,155.9,143.9,155.8,144.1,155.8z"/>
			<path class="st2" d="M153.5,146.2c0.5-0.6,0.8-1.2,1.4-1.7c1-0.8,2.1-0.8,3.2-0.2c1.2,0.7,1.7,1.7,1.7,3.1
				c-0.1,1.7-1.1,2.9-2.4,3.9c-0.4,0.3-0.8,0.4-1.1,0.7c-0.9,0.8-1.8,1.6-2.8,2.4c-0.7-1.4-2.2-2.2-3.6-3.1c-1-0.7-1.8-1.6-2.2-2.8
				c-0.3-1.1-0.3-2.1,0.3-3.1c0.6-1,1.5-1.5,2.7-1.5c1.2,0,2.1,0.6,2.7,1.7C153.4,145.9,153.4,146.1,153.5,146.2z"/>
			<path class="st2" d="M163.2,155c0.6,0.5,1.2,0.8,1.7,1.4c0.8,1,0.8,2.1,0.2,3.2c-0.6,1.2-1.7,1.7-3.1,1.7c-1.7,0-2.9-1.1-3.9-2.4
				c-0.3-0.4-0.4-0.8-0.7-1.1c-0.8-0.9-1.6-1.8-2.4-2.8c1.4-0.7,2.2-2.2,3.1-3.6c0.7-1,1.6-1.8,2.8-2.2c1.1-0.3,2.1-0.3,3.1,0.3
				c1,0.6,1.5,1.5,1.5,2.7c0,1.2-0.6,2.1-1.7,2.6C163.5,154.9,163.3,155,163.2,155z"/>
		</g>
		<path class="st3" d="M6,138.4c0,10.7,22.7,19.3,50.8,19.3"/>
		<path class="st3" d="M295,136.1c0,10.7-22.7,19.3-50.8,19.3"/>
	</g>
</g>
</svg>
