<?xml version="1.0" encoding="utf-8"?>
<!-- Generator: Adobe Illustrator 19.2.1, SVG Export Plug-In . SVG Version: 6.00 Build 0)  -->
<svg version="1.1" id="Layer_1" xmlns="http://www.w3.org/2000/svg" xmlns:xlink="http://www.w3.org/1999/xlink" x="0px" y="0px"
	 viewBox="0 0 300 300" style="enable-background:new 0 0 300 300;" xml:space="preserve">
<style type="text/css">
	.st0{fill:#FFFFFF;}
	.st1{fill-rule:evenodd;clip-rule:evenodd;fill:#EEAA0C;}
	.st2{fill-rule:evenodd;clip-rule:evenodd;fill:#F9D604;}
	.st3{fill-rule:evenodd;clip-rule:evenodd;fill:#F9D604;stroke:#F9D604;stroke-width:6;stroke-miterlimit:10;}
</style>
<g id="FVZFL9.tif">
	<g>
		<path class="st0" d="M79.4,300c0.4-3.4-1.2-5.1-3.7-6.5c-8.2-4.6-15.8-10-21.8-17.4c-1.3-1.6-1.6-3-0.9-5.1
			c3.1-8.8,6-17.7,8.9-26.5c0.7-2.2,1.6-3,3.9-2.6c6.5,1.2,12.8,0.2,19-1.9c14.9-5.2,25.7-14.2,29.9-30.2
			c7.6-29,15.6-57.9,23.4-86.8c0.3-1.2,0.7-2.4,1-3.6c1.2,1.3,1.7,2.5,2.2,3.8c12.4,29.3,24.9,58.6,37.4,87.9
			c7.2,16.9,21,24.2,38.6,25.1c5.3,0.3,10.6-0.8,16.3-1.3c4.2,8.5,8.6,17.5,13.2,26.3c1.3,2.5,1.5,4.6-0.1,6.9
			c-0.8,1.1-1.3,2.4-2.2,3.4c-5.3,5.3-10.7,10.7-16.2,15.8c-1.9,1.8-3.3,3.5-2.3,6.7c23.5-11.8,46.8-23.4,70.3-35.2
			c-2.4-2.5-4.6-2.7-7.3-1.9c-8.9,2.6-18,4.1-27.3,3.2c-2.3-0.2-3.7-1-4.8-3.2c-2.2-4.8-4.7-9.5-7.1-14.2c-2.2-4.4-4.4-8.9-6.6-13.4
			c0.8-0.6,1.3-1.1,1.9-1.5c14-9.8,24.7-36.8,12.6-57c-18.7-31.3-36.6-63-54.8-94.5c-3-5.2-5-5.7-10.4-3
			C176.8,81.2,161,89.2,145.2,97c-1,0.5-2.4,0.9-3.3,0.6c-2.5-0.8-4.9-2.2-7.4-3c-17.9-6-35.8-12-53.7-17.9
			c-4.4-1.5-6.9-0.6-8.4,3.2c-14.2,34.8-28.3,69.5-42.3,104.3c-1.3,3.3-2.4,7-2.6,10.5c-0.9,18.4,7.4,32.1,22.6,41.9
			c2,1.3,2.4,2.2,1.7,4.4c-2.9,8.3-5.9,16.6-8.3,25.1c-1.1,3.7-3.2,5.1-6.6,5.8c-8.4,1.8-16.7,1.6-25.1,0.2c-2.9-0.5-5,0.3-6.6,3.1
			C29.9,283.5,54.6,291.7,79.4,300z M144.2,22.7c0.3,0,0.6,0,0.8,0c0-5.4-0.1-10.8,0-16.2c0-2.5-1.1-3.6-3.6-3.5
			c-4,0.2-8.1,0.4-12.1,0.7c-3.2,0.2-4,1.3-3.2,4.4c2.5,10.5,5.1,21,7.4,31.5c0.6,2.7,1.4,4.4,4.7,4c5.1-0.7,5.9-1.2,5.9-5.4
			C144.3,33.1,144.2,27.9,144.2,22.7z M108.8,56.9c-0.7-1.2-1-2-1.5-2.6c-7.2-9.2-14.5-18.4-21.7-27.6c-1.6-2.1-3.3-2.3-5.2-0.3
			c-2.7,2.8-5.4,5.5-8,8.3c-2.2,2.4-2.1,3.6,0.6,5.6c9.2,6.9,18.4,13.8,27.7,20.6c1,0.7,3,1.3,3.8,0.8
			C106.2,60.4,107.4,58.5,108.8,56.9z M205.3,32.1c-0.7-1.1-1.1-1.9-1.7-2.6c-2.4-2.8-4.9-5.7-7.3-8.5c-2.2-2.5-3.6-2.4-5.8,0.2
			c-7,8.5-14.1,16.9-21.1,25.4c-1.3,1.6-2.7,3.3-0.6,5.1c3.7,3.1,4.8,4.4,7.7,2.3c8.9-6.4,17.9-12.8,26.8-19.3
			C204.1,34.1,204.6,33.1,205.3,32.1z"/>
		<path class="st1" d="M79.4,300c-24.9-8.3-49.5-16.5-74.4-24.8c1.6-2.8,3.7-3.6,6.6-3.1c8.4,1.3,16.7,1.5,25.1-0.2
			c3.4-0.7,5.5-2.1,6.6-5.8c2.4-8.5,5.4-16.8,8.3-25.1c0.8-2.2,0.3-3.1-1.7-4.4c-15.2-9.8-23.5-23.5-22.6-41.9
			c0.2-3.5,1.2-7.2,2.6-10.5c14-34.8,28.2-69.6,42.3-104.3c1.5-3.8,4.1-4.6,8.4-3.2c17.9,5.9,35.8,11.9,53.7,17.9
			c2.5,0.8,4.9,2.2,7.4,3c1,0.3,2.4-0.1,3.3-0.6c15.8-7.8,31.6-15.7,47.3-23.6c5.4-2.7,7.4-2.2,10.4,3
			c18.3,31.5,36.2,63.2,54.8,94.5c12.1,20.2,1.4,47.2-12.6,57c-0.6,0.4-1.1,0.9-1.9,1.5c2.2,4.5,4.4,8.9,6.6,13.4
			c2.4,4.7,4.9,9.4,7.1,14.2c1,2.2,2.5,3,4.8,3.2c9.4,0.9,18.4-0.6,27.3-3.2c2.6-0.8,4.9-0.5,7.3,1.9
			c-23.5,11.8-46.8,23.4-70.3,35.2c-1-3.2,0.3-4.9,2.3-6.7c5.5-5.2,10.9-10.5,16.2-15.8c0.9-0.9,1.4-2.3,2.2-3.4
			c1.6-2.3,1.5-4.3,0.1-6.9c-4.6-8.8-9-17.8-13.2-26.3c-5.7,0.5-11,1.5-16.3,1.3c-17.6-0.9-31.4-8.2-38.6-25.1
			c-12.5-29.3-24.9-58.6-37.4-87.9c-0.5-1.2-1-2.4-2.2-3.8c-0.3,1.2-0.7,2.4-1,3.6c-7.8,28.9-15.8,57.8-23.4,86.8
			c-4.2,16-15,25-29.9,30.2c-6.2,2.1-12.5,3.1-19,1.9c-2.3-0.4-3.2,0.4-3.9,2.6c-2.8,8.9-5.8,17.7-8.9,26.5
			c-0.7,2.1-0.4,3.5,0.9,5.1c6,7.4,13.5,12.8,21.8,17.4C78.2,294.9,79.8,296.6,79.4,300z M147.3,108.4c2.9,7,5.4,13.5,8.2,20
			c11.2,26.2,22.5,52.4,33.7,78.6c2,4.6,4.6,8.6,8.7,11.5c8.2,5.9,17.3,7.8,27.2,6.2c2.9-0.5,5.7-1.6,8.6-2.5
			c-13.1,1-27.5-2.4-34.5-19.9c-8-20-16.9-39.7-25.4-59.5c-2.3-5.5-4.5-11-6.8-16.6c13.7-6.9,27.1-13.6,40.8-20.4
			c-4.3-7.2-8.5-14.2-12.7-21.3C179,92.5,163.3,100.4,147.3,108.4z M82.8,109.9c14.7,4.9,29,9.6,43.6,14.5
			c1.7-6.6,3.2-12.9,4.8-19.3C114.2,99.5,97.6,94,80.8,88.4c-0.5,1.1-1,2-1.4,2.9c-2.6,6.1-5.3,12.2-7.7,18.3
			c-10.6,26.5-21.1,53-31.5,79.5c-1,2.5-1.6,5.2-1.7,7.8c-0.5,13.2,8.8,27.2,21.1,32.1c0.5,0.2,1,0.2,2.2,0.3c-1.3-1-2-1.6-2.7-2.2
			c-10.4-8.8-13.7-20.5-8.9-33.3c6.3-16.8,12.7-33.5,19.2-50.3C73.7,132.5,78.2,121.4,82.8,109.9z M75.1,193.4
			c-2.8-0.1-5.2,2.3-5.2,5.1c-0.1,2.8,2.2,5.3,4.9,5.4c2.8,0.1,5.4-2.4,5.4-5.3C80.3,195.8,77.9,193.4,75.1,193.4z M205.4,147.5
			c-2.4,0-4.3,1.9-4.3,4.3c0,2.5,2,4.6,4.5,4.5c2.3,0,4.3-2,4.4-4.3C209.9,149.5,207.9,147.5,205.4,147.5z M87.8,163.1
			c-0.1-2.5-2.1-4.4-4.7-4.3c-2.4,0.1-4.2,2.1-4.2,4.5c0.1,2.3,2.1,4.3,4.4,4.4C85.7,167.7,87.8,165.5,87.8,163.1z M207.5,168.9
			c0-2.5-1.8-4.3-4.3-4.4c-2.4-0.1-4.5,1.8-4.6,4.2c-0.1,2.4,2.1,4.7,4.5,4.7C205.6,173.3,207.5,171.3,207.5,168.9z M223.8,179.1
			c-2.3-0.2-4.4,1.7-4.7,4c-0.2,2.5,1.6,4.6,4.1,4.8c2.4,0.1,4.5-1.6,4.7-3.9C228.2,181.6,226.2,179.2,223.8,179.1z M90.3,180.2
			c-2.3-0.1-4.4,1.9-4.5,4.2c-0.1,2.4,1.7,4.4,4.1,4.6c2.5,0.1,4.7-1.8,4.7-4.3C94.6,182.4,92.6,180.3,90.3,180.2z M213.2,191.5
			c-2.3,0.1-4.2,2.2-4.2,4.6c0.1,2.5,1.9,4.3,4.4,4.3c2.5,0,4.6-2.2,4.4-4.6C217.6,193.4,215.5,191.4,213.2,191.5z"/>
		<path class="st1" d="M144.2,22.7c0,5.2,0.1,10.4,0,15.6c-0.1,4.2-0.8,4.6-5.9,5.4c-3.2,0.4-4-1.3-4.7-4c-2.4-10.5-5-21-7.4-31.5
			c-0.7-3.1,0-4.2,3.2-4.4c4-0.3,8.1-0.5,12.1-0.7c2.5-0.2,3.6,0.9,3.6,3.5c-0.1,5.4,0,10.8,0,16.2
			C144.8,22.7,144.5,22.7,144.2,22.7z"/>
		<path class="st1" d="M108.8,56.9c-1.4,1.6-2.6,3.5-4.3,4.6c-0.8,0.5-2.8,0-3.8-0.8C91.4,54,82.2,47.1,73,40.2
			c-2.7-2-2.8-3.2-0.6-5.6c2.6-2.8,5.3-5.5,8-8.3c1.9-2,3.5-1.7,5.2,0.3c7.2,9.2,14.5,18.4,21.7,27.6
			C107.8,54.9,108.1,55.7,108.8,56.9z"/>
		<path class="st1" d="M205.3,32.1c-0.7,1-1.2,2-2,2.6c-8.9,6.5-17.8,12.9-26.8,19.3c-2.9,2.1-4,0.8-7.7-2.3
			c-2.1-1.8-0.7-3.5,0.6-5.1c7-8.5,14-16.9,21.1-25.4c2.2-2.6,3.6-2.7,5.8-0.2c2.5,2.8,4.9,5.6,7.3,8.5
			C204.2,30.2,204.6,31,205.3,32.1z"/>
		<path class="st2" d="M147.3,108.4c16-8,31.7-15.9,47.7-23.9c4.3,7.2,8.4,14.1,12.7,21.3c-13.6,6.8-27,13.5-40.8,20.4
			c2.3,5.6,4.5,11.2,6.8,16.6c8.5,19.8,17.4,39.5,25.4,59.5c7.1,17.5,21.4,20.9,34.5,19.9c-2.9,0.8-5.7,2-8.6,2.5
			c-9.8,1.6-19-0.3-27.2-6.2c-4.1-2.9-6.7-7-8.7-11.5c-11.3-26.2-22.5-52.4-33.7-78.6C152.7,121.9,150.1,115.4,147.3,108.4z"/>
		<path class="st2" d="M82.8,109.9c-4.6,11.5-9.1,22.6-13.5,33.8c-6.5,16.7-12.9,33.5-19.2,50.3c-4.8,12.7-1.5,24.5,8.9,33.3
			c0.7,0.6,1.4,1.2,2.7,2.2c-1.2-0.2-1.7-0.2-2.2-0.3c-12.4-4.9-21.7-18.9-21.1-32.1c0.1-2.6,0.8-5.4,1.7-7.8
			c10.4-26.5,21-53,31.5-79.5c2.5-6.2,5.1-12.2,7.7-18.3c0.4-0.9,0.8-1.8,1.4-2.9c16.8,5.6,33.4,11.1,50.5,16.8
			c-1.6,6.4-3.2,12.6-4.8,19.3C111.8,119.5,97.5,114.8,82.8,109.9z"/>
		<path class="st3" d="M75.1,193.4c2.8,0.1,5.1,2.4,5.1,5.2c0,2.9-2.6,5.4-5.4,5.3c-2.8-0.1-5-2.6-4.9-5.4
			C70,195.6,72.4,193.3,75.1,193.4z"/>
		<path class="st3" d="M205.4,147.5c2.5,0,4.6,2,4.5,4.5c-0.1,2.3-2,4.3-4.4,4.3c-2.5,0-4.5-2-4.5-4.5
			C201.1,149.4,203,147.5,205.4,147.5z"/>
		<path class="st3" d="M87.8,163.1c0.1,2.4-2,4.6-4.5,4.6c-2.3,0-4.3-2-4.4-4.4c-0.1-2.4,1.8-4.4,4.2-4.5
			C85.6,158.7,87.7,160.6,87.8,163.1z"/>
		<path class="st3" d="M207.5,168.9c0,2.4-2,4.4-4.3,4.4c-2.4,0-4.6-2.3-4.5-4.7c0.1-2.3,2.2-4.2,4.6-4.2
			C205.8,164.5,207.6,166.4,207.5,168.9z"/>
		<path class="st3" d="M223.8,179.1c2.4,0.2,4.4,2.5,4.2,4.9c-0.2,2.4-2.3,4.1-4.7,3.9c-2.5-0.1-4.4-2.3-4.1-4.8
			C219.4,180.8,221.5,178.9,223.8,179.1z"/>
		<path class="st3" d="M90.3,180.2c2.3,0.1,4.3,2.2,4.3,4.5c0,2.5-2.2,4.5-4.7,4.3c-2.4-0.1-4.2-2.1-4.1-4.6
			C85.9,182.1,87.9,180.2,90.3,180.2z"/>
		<path class="st3" d="M213.2,191.5c2.3-0.1,4.5,1.9,4.6,4.2c0.2,2.5-1.9,4.6-4.4,4.6c-2.5,0-4.3-1.8-4.4-4.3
			C208.9,193.7,210.8,191.6,213.2,191.5z"/>
	</g>
</g>
</svg>
