<?xml version="1.0" encoding="utf-8"?>
<!-- Generator: Adobe Illustrator 19.2.1, SVG Export Plug-In . SVG Version: 6.00 Build 0)  -->
<svg version="1.1" id="Layer_1" xmlns="http://www.w3.org/2000/svg" xmlns:xlink="http://www.w3.org/1999/xlink" x="0px" y="0px"
	 viewBox="0 0 300 300" style="enable-background:new 0 0 300 300;" xml:space="preserve">
<style type="text/css">
	.st0{clip-path:url(#SVGID_2_);fill:#FFD278;}
	.st1{clip-path:url(#SVGID_2_);}
	.st2{fill:none;stroke:#773692;stroke-width:2.7;stroke-miterlimit:10;}
	.st3{fill:#F76F7E;}
	.st4{fill:#FFFFFF;}
	.st5{fill:#68C4DD;}
	.st6{fill:#FFD278;}
	.st7{fill:#E66753;}
</style>
<g>
	<g>
		<g>
			<g>
				<g>
					<defs>
						<path id="SVGID_1_" d="M159.7,127.1c0,5.1-4.1,9.1-9.1,9.1l0,0c-5,0-9.1-4.1-9.1-9.1V65.5c0-5.1,4.1-9.1,9.1-9.1l0,0
							c5.1,0,9.1,4.1,9.1,9.1V127.1z"/>
					</defs>
					<clipPath id="SVGID_2_">
						<use xlink:href="#SVGID_1_"  style="overflow:visible;"/>
					</clipPath>
					<path class="st0" d="M159.7,127.1c0,5.1-4.1,9.1-9.1,9.1l0,0c-5,0-9.1-4.1-9.1-9.1V65.5c0-5.1,4.1-9.1,9.1-9.1l0,0
						c5.1,0,9.1,4.1,9.1,9.1V127.1z"/>
					<g class="st1">
						<line class="st2" x1="138" y1="92.9" x2="164.4" y2="66.4"/>
						<line class="st2" x1="128.7" y1="83.5" x2="155.1" y2="57"/>
						<line class="st2" x1="138" y1="110.9" x2="164.4" y2="84.5"/>
						<line class="st2" x1="138" y1="129" x2="164.4" y2="102.5"/>
					</g>
				</g>
				<g>
					<path class="st3" d="M134.3,41.8c0-7,16.3-24.8,16.3-24.8s16.3,17.8,16.3,24.8c0,7-9.3,12.6-16.3,12.6
						C143.6,54.4,134.3,48.8,134.3,41.8z"/>
					<path class="st4" d="M140.8,46.8c0-4.2,9.8-14.9,9.8-14.9s9.8,10.7,9.8,14.9c0,4.2-5.6,7.6-9.8,7.6
						C146.3,54.4,140.8,51,140.8,46.8z"/>
				</g>
			</g>
			<g>
				<path class="st5" d="M298.4,249.9c0,15.9-11.5,28.8-25.6,28.8H28.3c-14.1,0-25.6-12.9-25.6-28.8v-93.6
					c0-15.9,11.5-28.8,25.6-28.8h244.5c14.1,0,25.6,12.9,25.6,28.8V249.9z"/>
				<g>
					<g>
						<circle class="st6" cx="29.3" cy="255.7" r="9.4"/>
						<circle class="st6" cx="89.9" cy="255.7" r="9.4"/>
						<circle class="st6" cx="150.5" cy="255.7" r="9.4"/>
						<circle class="st6" cx="211.1" cy="255.7" r="9.4"/>
						<ellipse class="st6" cx="271.7" cy="255.7" rx="9.4" ry="9.4"/>
					</g>
					<g>
						<circle class="st6" cx="59.2" cy="235.2" r="9.4"/>
						<circle class="st6" cx="119.8" cy="235.2" r="9.4"/>
						<ellipse class="st6" cx="180.4" cy="235.2" rx="9.4" ry="9.4"/>
						<circle class="st6" cx="241" cy="235.2" r="9.4"/>
					</g>
				</g>
				<g>
					<path class="st7" d="M272.8,126.9H28.3c-14.1,0-25.6,11.5-25.6,25.6v41.3c1.4,0.2,2.8,0.3,4.2,0.3c2.3,0,7.3-1.1,9.3,0
						c4.9,2.7,4.5,16.2,15.4,16.2c9.7,0,10.3-18.3,15.9-18.8c10.3-0.9,10.2,33.8,28.6,33.8c14.7,0,14.8-29.6,22.8-34.8
						c1.9-1.3,7-0.9,9.1,0c5.9,2.7,4.4,23.9,16.8,23.9c11,0,8.4-17.4,13.8-20.3c3-1.6,10.9-2,13.7,0c9.9,7.2,4.3,27.5,15.4,27.5
						c11,0,2-25.3,11.4-32.7c3.8-3,15.3-4.4,19.3-1.7c6,4,5.1,26.6,19.3,26.6c13.7,0,10.3-22.2,16.5-22.3c11-0.2,1.7,36.5,27.9,36.5
						c19.9,0,8.5-29,16.5-34c3-1.9,10.6-0.3,14.2,0c1.9,0.2,3.8,0.1,5.7-0.2v-41.4C298.4,138.4,286.9,126.9,272.8,126.9z"/>
					<g>
						<g>
							<line class="st7" x1="9.9" y1="142.4" x2="18.4" y2="160.7"/>
							<line class="st7" x1="45.3" y1="148.5" x2="64.8" y2="142.4"/>
							<line class="st7" x1="90.4" y1="142.4" x2="92.8" y2="154.6"/>
							<line class="st7" x1="64.8" y1="175.4" x2="55" y2="187.6"/>
							<line class="st7" x1="45.3" y1="168" x2="45.3" y2="181.5"/>
							<line class="st7" x1="126.9" y1="148.5" x2="141.6" y2="160.7"/>
							<line class="st7" x1="168.4" y1="142.4" x2="158.6" y2="151.6"/>
							<line class="st7" x1="213.5" y1="136.3" x2="226.9" y2="145.5"/>
							<line class="st7" x1="272" y1="140.9" x2="264.7" y2="148.5"/>
							<line class="st7" x1="196.4" y1="160.7" x2="185.5" y2="174.8"/>
							<line class="st7" x1="111.1" y1="174.8" x2="126.9" y2="175.4"/>
							<line class="st7" x1="226.9" y1="160.7" x2="231.8" y2="175.4"/>
							<line class="st7" x1="285.4" y1="160.7" x2="272" y2="175.4"/>
						</g>
						<g>
							<line class="st7" x1="280.5" y1="176.5" x2="272.9" y2="160"/>
							<line class="st7" x1="248.7" y1="171" x2="231.2" y2="176.5"/>
							<line class="st7" x1="208.1" y1="176.5" x2="205.9" y2="165.5"/>
							<line class="st7" x1="231.2" y1="146.8" x2="239.9" y2="135.9"/>
							<line class="st7" x1="248.7" y1="153.4" x2="248.7" y2="141.3"/>
							<line class="st7" x1="175.2" y1="171" x2="162" y2="160"/>
							<line class="st7" x1="137.9" y1="176.5" x2="146.7" y2="168.2"/>
							<line class="st7" x1="97.3" y1="181.9" x2="85.2" y2="173.7"/>
							<line class="st7" x1="44.6" y1="177.8" x2="51.2" y2="171"/>
							<line class="st7" x1="112.7" y1="160" x2="122.5" y2="147.4"/>
							<line class="st7" x1="189.5" y1="147.4" x2="175.2" y2="146.8"/>
							<line class="st7" x1="85.2" y1="160" x2="80.8" y2="146.8"/>
							<line class="st7" x1="32.6" y1="160" x2="44.6" y2="146.8"/>
							<line class="st7" x1="12.8" y1="144.1" x2="20.9" y2="135.9"/>
						</g>
					</g>
				</g>
			</g>
		</g>
	</g>
</g>
</svg>
