<?xml version="1.0" encoding="utf-8"?>
<!-- Generator: Adobe Illustrator 19.2.1, SVG Export Plug-In . SVG Version: 6.00 Build 0)  -->
<svg version="1.1" id="Layer_1" xmlns="http://www.w3.org/2000/svg" xmlns:xlink="http://www.w3.org/1999/xlink" x="0px" y="0px"
	 viewBox="0 0 130.1 143.7" style="enable-background:new 0 0 130.1 143.7;" xml:space="preserve">
<style type="text/css">
	.st0{fill:#FFFFFF;stroke:#4A97A9;stroke-width:12;stroke-miterlimit:10;}
	.st1{fill:#4A97A9;}
	.st2{fill-rule:evenodd;clip-rule:evenodd;fill:#4A97A9;}
	.st3{font-family:'MarkerFelt-Wide';}
	.st4{font-size:16.4119px;}
</style>
<g>
	<path class="st0" d="M117.2,33.8L72,7.6c-3.8-2.2-10-2.2-13.8,0L12.9,33.8C9.1,36,6,41.3,6,45.7V98c0,4.4,3.1,9.8,6.9,12l45.2,26.1
		c3.8,2.2,10,2.2,13.8,0l45.2-26.1c3.8-2.2,6.9-7.6,6.9-12V45.7C124.1,41.3,121,36,117.2,33.8z"/>
	<g>
		<path class="st1" d="M67.7,79.3c1.1,0,2.2,0,3.3,0c0.2,0,0.3,0.1,0.5,0.1c2.1,0.1,3.7,0.9,5,2.7c0.2,0.3,0.5,0.6,0.7,0.9
			c0.2,0.3,0.4,0.4,0.8,0.4c5.2-0.1,10.4,0,15.6,0.8c1.6,0.2,3.2,0.7,4.7,1.2c1,0.3,1.8,0.9,2.2,2c0,0.2,0,0.4,0,0.7
			c-0.3,1.1-1.2,1.7-2.2,2c-1.3,0.4-2.7,0.7-4,0.9c-0.8,0.1-1.4,0.2-1.5,1.2c0,0.1-0.1,0.1-0.1,0.2c0,0-0.1,0-0.1,0
			c0-0.3,0-0.7,0.1-1.1c-0.8,0-1.6,0.1-2.4,0.1c-0.8,0-1.6,0-2.4,0c-0.1,0.7-0.4,1.3-0.3,1.8c0.2,1.4-0.3,2.5-1.3,3.4
			c-0.3,0.3-0.7,0.5-1.1,0.8c1.2,0.8,1.8,1.8,1.5,3.3c-0.3,1.4-1.3,2.2-2.5,2.8c0.4,0.3,0.7,0.5,1,0.7c1.3,1,1.5,2.3,0.6,3.7
			c-0.9,1.3-2.1,2.1-3.6,2.5c-0.6,0.1-1.2,0.2-1.7,0.3c-0.3,0-0.7,0-1,0c-0.1,0-0.1-0.1-0.2-0.1c-1.8-0.1-3.4-0.9-4.7-2.1
			c-0.3-0.2-0.5-0.5-0.8-0.8c-5.1,3.9-10.1,3.1-15.1-0.2c-0.8,1.3-1.9,2-3.4,1.8c-3.3-0.3-6.5-0.7-9.8-1.1c-0.2,0-0.4-0.1-0.5-0.2
			c-1.8-1.4-3.1-3.3-3.6-5.6c-0.3-1.5-0.4-3-0.6-4.5c0-0.3-0.1-0.4-0.4-0.5c-0.3,0-0.6-0.1-1-0.2c0-0.5,0-1.1,0-1.6
			c0.1-0.4,0.2-0.8,0.2-1.3c0.4-3.8,2.2-6.9,5.2-9.3c0.1-0.1,0.4-0.2,0.5-0.2c3.3,0.2,6.6,0.5,9.9,0.7c0.5,0,0.9,0.3,1.1,0.8
			c0.2,0.4,0.2,0.8,0.4,1.2c0,0,0.1,0.1,0.1,0.2c0.1,0,0.3-0.1,0.4-0.1c0.1-2.7,1.2-4.8,3.5-6.2c1.3-0.9,2.8-1.3,4.4-1.6
			C65.9,79.6,66.8,79.5,67.7,79.3z M68.6,95.3c0.8-1.4,1-2.9,0.9-4.5c-0.1-2.1-0.4-4.1-1-6.1c-0.2-0.9-0.5-1.8-0.7-2.7
			c0.6,1,1.1,2.1,1.7,3.1c0.2,0.3,0.4,0.5,0.7,0.8c0.1,0,0.1,0,0.2-0.1c0.1-0.5,0.2-0.9,0.4-1.5c0.8,1.8,1.6,3.4,2.9,4.8
			c0.2-0.4,0.4-0.7,0.6-1.1c0.5-1,1.1-1.9,2.2-2.4c0.1-0.1,0.2-0.4,0.1-0.5c-0.4-1.2-1.2-2-2-2.9c-0.8-0.8-1.7-1.2-2.8-1.2
			c-1.1,0-2.1,0-3.2,0c-2,0.1-3.9,0.5-5.7,1.4c-0.8,0.4-1.5,0.9-1.9,1.7c-1,2.3-1.5,4.6-0.7,7c0.1,0.3,0.2,0.7,0.3,1.2
			c-0.6-0.7-1.2-1.3-1.7-1.9c-0.4,1.5-0.6,3-0.5,4.4c0.1,1.4,0.3,2.9,0.5,4.3c-1,0-2.1,0-3.1,0c0,0.6,0,1.3,0,1.9
			c-0.2-0.4-0.3-0.8-0.4-1.2C55,99.1,55,99.1,54,99.3c0,0.5,0.1,0.9,0.1,1.4c0.3,1.3,0.5,2.6,0.9,3.9c0.1,0.5,0.5,0.8,1,0.7
			c0.8-0.1,1.6-0.1,2.4-0.1c0.2,0,0.5,0.1,0.7,0.2c1.1,0.7,2.2,1.5,3.4,2.1c2.5,1.3,5.1,1.3,7.6-0.1c0.4-0.2,0.5-0.4,0.5-0.8
			c-0.1-0.8,0-1.6-0.1-2.3c0-0.7-0.1-1.4-0.2-2.2c0,0-0.1,0-0.1,0c0,0.9-0.1,1.8-0.2,2.8c-0.3,0-0.6,0-0.9-0.1
			c-0.1-0.6-0.2-1.2-0.3-1.8c-0.1,0-0.1,0-0.2,0c0,1,0,2,0,3c-0.4,0-0.6,0-0.9,0c-0.4-3-0.5-3.5-2.3-5.8c-0.2-0.3-0.5-0.5-0.9-0.4
			c-1.4,0.1-2.6-0.7-3.8-1.2c1.6,0,3.3,0.4,4.9-0.5c-0.2-0.3-0.3-0.5-0.5-0.7c0.2,0,0.3,0.1,0.4,0.2c0.4,0.4,0.7,0.3,1.1-0.1
			c0.4-0.4,0.8-0.8,1.1-1.3c0.4-0.4,0.8-0.9,0.2-1.5C68.2,95.1,68.4,95.2,68.6,95.3z M53.3,87.4c-2.1-0.2-4.2-0.3-6.3-0.5
			c-1-0.1-1.8,0.2-2.4,0.9c-0.1,0.1-0.2,0.2-0.3,0.4c-1.9,2.1-2.6,4.7-3,7.4c-0.1,0.4,0.2,0.4,0.4,0.5c2.5,0.9,5,1.6,7.6,1.9
			c0.9,0.1,1.8,0.2,2.7,0.3c0-1.9-0.1-3.7,0-5.5C52.1,90.9,52.5,89.1,53.3,87.4z M87,85c-3,0.2-5.7,0.3-8.5,0.5
			c0.5,1.4,1,2.8,1.4,4.2c0.3,0.8,0.1,1.5-0.5,2c-0.5,0.4-1.1,0.6-1.7,0.9c-0.4,0.1-0.9,0.1-1.3,0.2c-0.3,0.9,0,1.8,0.1,2.6
			c0.1,0.5,0.3,0.7,0.8,0.8c0.4,0.1,0.9,0.2,1.3,0.2c1,0.1,1.9,0.2,2.9,0.2c1.1,0,2.2-0.2,3.2-0.8c1.1-0.7,1.3-2,0.4-3
			c-0.5-0.5-1.1-0.9-1.7-1.2c-0.7-0.4-1.6-0.7-2.4-1c0.1-0.2,0.1-0.5,0.2-0.8c0.5,0,1,0.1,1.4,0.1c1.5,0.1,2.9,0.1,4.3-0.4
			c0.2-0.1,0.4-0.3,0.4-0.5C87.2,87.7,87.1,86.4,87,85z M78.9,97.7c-1-0.4-1.6,0.1-2.2,0.9c-1,1.2-0.8,2.4-0.5,3.6
			c0,0.1,0.2,0.2,0.3,0.3c2.5,1.2,5.2,0.9,7.4-0.9c0.6-0.5,0.9-1.2,0.6-2c-0.3-1.1-2.3-2.3-3.3-2.2C80.5,97.5,79.7,97.6,78.9,97.7z
			 M76.5,104c-0.5,1-0.9,1.9-0.7,3c0.1,0.6,0.3,1,0.9,1.3c2.1,1,4.3,1,6.3-0.1c0.4-0.2,0.8-0.7,1.1-1.1c0.3-0.4,0.3-0.8,0-1.2
			c-0.7-0.8-1.7-1.3-2.6-1.8c-0.5-0.3-0.8,0-1.2,0c-1.1,0-2.2,0-3.4,0c0,0.1,0,0.2-0.1,0.3C76.8,104.3,76.7,104.2,76.5,104z
			 M52.3,100.5c-3.1-0.6-6.2-1.2-9.2-1.8c0,2.2,1.5,6.1,2.8,7.1c-1-1.7-0.6-3.5-0.5-5.3c0.6,1.1,1.1,2.2,1.7,3.4
			c0.2-1.2,0.4-2.2,0.6-3.3c0.5,1.3,0.6,2.8,1.5,3.9c0.3-1.1,0.5-2.1,0.8-3.1c0,0,0.1,0,0.1,0c0.4,1.2,0.8,2.3,1.2,3.5
			c0.3-1,0.6-1.9,1-2.8C52.5,101.4,52.4,100.9,52.3,100.5z M88.2,89.4c1.5,0.5,3,0.4,4.4-0.1c0.1,0,0.3-0.3,0.3-0.5
			c0-0.9,0-1.8,0-2.7c0-0.4-0.1-0.5-0.5-0.5c-0.4,0-0.8-0.1-1.1-0.2c-1.3-0.1-2.6-0.3-4-0.4c0,0-0.1,0.1-0.1,0.1
			C88.4,86.4,88.7,87.8,88.2,89.4z M93.7,89.2c1.1,0.2,2.1,0.2,3.2-0.1c0.4-0.1,0.9-0.3,1.2-0.6c0.5-0.4,0.5-1,0-1.4
			c-1.4-0.8-2.9-1.1-4.6-1.4C94,86.9,94.1,88,93.7,89.2z M78.8,89.3c-0.3-0.9-0.8-1.7-1.5-2.3c-0.1-0.1-0.3-0.2-0.4-0.1
			c-0.5,0.2-1,0.5-1.4,0.6C76.3,88.8,77.2,89.8,78.8,89.3z M74.5,106.5c0.1-0.5,0.1-1.1,0.3-1.6c0.2-0.5,0.7-0.8,1.1-1.2
			c-0.1-0.1-0.3-0.2-0.5-0.3c-0.7-0.4-1.1-0.3-1.6,0.3c-0.1,0.2-0.2,0.4-0.3,0.6C73.2,105.1,73.6,105.9,74.5,106.5z M77.3,97.6
			c-1.5-0.4-2.7,0-3.2,1c-0.4,1-0.1,2.1,0.8,2.6C74.4,99.2,75.5,98.2,77.3,97.6z M73.5,91.9c-0.4,1,0.5,2.8,1.6,3.4
			c-0.1-0.4-0.2-0.9-0.2-1.4c0-0.5,0.2-0.9,0.4-1.3C74.7,92.3,74.1,92.1,73.5,91.9z M72.5,102c0,0-0.1,0-0.1,0
			c-0.3,1.1-0.6,2.1-0.9,3.2c0,0-0.1,0-0.1,0c0-0.2,0-0.5,0-0.7c-0.2,0.4-0.2,0.9-0.3,1.3c-0.1,0.5-0.2,0.9-0.2,1.4
			c0,0,0.1,0.1,0.1,0.1c0.5-0.5,1-0.9,1.4-1.4c0.1-0.1,0.1-0.3,0.1-0.4c-0.3-0.7-0.2-1.4-0.1-2.1C72.5,102.9,72.5,102.4,72.5,102z
			 M75,88.3c-0.4,0.4-0.7,0.8-1,1.2c1.1,1.2,2.8,1.7,4.1,1.2C76.3,90.8,75.5,89.7,75,88.3z M55.1,93C55.1,93,55.2,93,55.1,93
			c0.8-1.1,1.5-2.1,2.2-3.3c-0.5-0.1-0.8-0.1-1.2-0.2C55.7,90.7,55.4,91.8,55.1,93z M53.9,92.5C53.9,92.5,53.9,92.5,53.9,92.5
			c0.6-1,1.2-2,1.8-3c-1.1-0.1-1.2-0.1-1.4,0.9C54.1,91.1,54,91.8,53.9,92.5z M57.4,89.7c-0.2,0.9-0.3,1.7-0.4,2.5c0,0,0.1,0,0.1,0
			c0.4-0.7,0.7-1.4,1.1-2.2C57.9,90,57.7,89.9,57.4,89.7z M54.6,107.5c-0.5-1.3-1.1-2.5-1.6-3.7c0,0.8,0.7,2.8,1.2,3.4
			C54.2,107.3,54.4,107.4,54.6,107.5z M87.3,92.4c0-0.4,0-0.8,0-1.1c-0.3,0-0.6,0-0.9,0C86.7,91.7,87,92,87.3,92.4z"/>
		<path class="st2" d="M72.5,102c0,0.4,0,0.9-0.2,1.3c-0.2,0.7-0.2,1.4,0.1,2.1c0.1,0.1,0,0.3-0.1,0.4c-0.5,0.5-1,0.9-1.4,1.4
			c0,0-0.1-0.1-0.1-0.1c0.1-0.4,0.2-0.9,0.2-1.4c0.1-0.4,0.2-0.9,0.3-1.3c0,0.2,0,0.5,0,0.7c0,0,0.1,0,0.1,0
			c0.3-1.1,0.6-2.1,0.9-3.2C72.4,102,72.5,102,72.5,102z"/>
		<path class="st2" d="M87.3,92.4c-0.3-0.4-0.6-0.7-0.9-1.1c0.3,0,0.6,0,0.9,0C87.3,91.6,87.3,92,87.3,92.4z"/>
		<path class="st2" d="M43.6,95c0.2-0.6,0.4-1.1,0.5-1.6c0.5,0.2,0.8-0.1,1.1-0.4c1.1-1.2,3.1-0.9,3.9,0.5c0.4,0.7,0.4,0.7,1.2,1
			c-0.1,0.5-0.2,1-0.4,1.5c-0.6-0.2-0.9,0-1.2,0.4c-1.1,1.2-3.1,0.9-3.8-0.5C44.6,95.3,44.4,94.8,43.6,95z M47.3,94.9
			c-0.3-0.3-0.5-0.6-0.7-0.6c-0.2,0-0.4,0.3-0.6,0.5c0.3,0.2,0.6,0.4,0.9,0.6C46.9,95.5,47.1,95.2,47.3,94.9z"/>
		<path class="st2" d="M47.3,94.9c-0.2,0.3-0.4,0.5-0.5,0.5c-0.3-0.2-0.6-0.4-0.9-0.6c0.2-0.2,0.4-0.5,0.6-0.5
			C46.8,94.4,47,94.7,47.3,94.9z"/>
	</g>
	<text transform="matrix(1 0 0 1 27.4785 53.1509)"><tspan x="0" y="0" class="st1 st3 st4">BIRTHDAY</tspan><tspan x="23.5" y="19.7" class="st1 st3 st4">GUY</tspan></text>
</g>
</svg>
