<?xml version="1.0" encoding="utf-8"?>
<!-- Generator: Adobe Illustrator 19.2.1, SVG Export Plug-In . SVG Version: 6.00 Build 0)  -->
<svg version="1.1" id="Layer_1" xmlns="http://www.w3.org/2000/svg" xmlns:xlink="http://www.w3.org/1999/xlink" x="0px" y="0px"
	 viewBox="0 0 130.1 143.7" style="enable-background:new 0 0 130.1 143.7;" xml:space="preserve">
<style type="text/css">
	.st0{fill:#FFFFFF;stroke:#DF3E6F;stroke-width:12;stroke-miterlimit:10;}
	.st1{fill:#DF3E6F;}
	.st2{fill-rule:evenodd;clip-rule:evenodd;fill:#DF3E6F;}
	.st3{font-family:'MarkerFelt-Wide';}
	.st4{font-size:16.4119px;}
</style>
<g>
	<path class="st0" d="M117.1,34.1L71.8,8C68,5.8,61.8,5.8,58,8L12.8,34.1c-3.8,2.2-6.9,7.6-6.9,12v52.2c0,4.4,3.1,9.8,6.9,12
		L58,136.4c3.8,2.2,10,2.2,13.8,0l45.2-26.1c3.8-2.2,6.9-7.6,6.9-12V46.1C124,41.7,120.9,36.3,117.1,34.1z"/>
	<g>
		<g>
			<path class="st1" d="M67.6,79.7c1.1,0,2.2,0,3.3,0c0.2,0,0.3,0.1,0.5,0.1c2.1,0.1,3.7,0.9,5,2.7c0.2,0.3,0.5,0.6,0.7,0.9
				c0.2,0.3,0.4,0.4,0.8,0.4c5.2-0.1,10.4,0,15.6,0.8c1.6,0.2,3.1,0.7,4.7,1.2c1,0.3,1.8,0.9,2.2,2c0,0.2,0,0.4,0,0.7
				c-0.3,1.1-1.2,1.7-2.2,2c-1.3,0.4-2.7,0.7-4,0.9c-0.8,0.1-1.4,0.2-1.5,1.2c0,0.1-0.1,0.1-0.1,0.2c0,0-0.1,0-0.1,0
				c0-0.3,0-0.7,0.1-1.1c-0.8,0-1.6,0.1-2.4,0.1c-0.8,0-1.6,0-2.4,0c-0.1,0.7-0.4,1.3-0.3,1.8c0.2,1.4-0.3,2.5-1.3,3.4
				c-0.3,0.3-0.7,0.5-1.1,0.8c1.2,0.8,1.8,1.8,1.5,3.3c-0.3,1.4-1.3,2.2-2.5,2.8c0.4,0.3,0.7,0.5,1,0.7c1.3,1,1.5,2.3,0.6,3.7
				c-0.9,1.3-2.1,2.1-3.6,2.5c-0.6,0.1-1.2,0.2-1.7,0.3c-0.3,0-0.7,0-1,0c-0.1,0-0.1-0.1-0.2-0.1c-1.8-0.1-3.4-0.9-4.7-2.1
				c-0.3-0.2-0.5-0.5-0.8-0.8c-5.1,3.9-10.1,3.1-15.1-0.2c-0.8,1.3-1.9,2-3.4,1.8c-3.3-0.3-6.5-0.7-9.8-1.1c-0.2,0-0.4-0.1-0.5-0.2
				c-1.8-1.4-3.1-3.2-3.6-5.6c-0.3-1.5-0.4-3-0.6-4.5c0-0.3-0.1-0.4-0.4-0.5c-0.3-0.1-0.6-0.1-1-0.2c0-0.5,0-1.1,0-1.6
				c0.1-0.4,0.2-0.8,0.2-1.3c0.4-3.8,2.2-6.9,5.2-9.3c0.1-0.1,0.4-0.2,0.5-0.2c3.3,0.2,6.6,0.5,9.9,0.7c0.5,0,0.9,0.3,1.1,0.8
				c0.2,0.4,0.2,0.8,0.4,1.2c0,0,0.1,0.1,0.1,0.2c0.1,0,0.3-0.1,0.4-0.1c0.1-2.7,1.2-4.8,3.5-6.2c1.3-0.9,2.8-1.3,4.4-1.6
				C65.7,79.9,66.7,79.8,67.6,79.7z M68.4,95.7c0.8-1.4,1-2.9,0.9-4.5c-0.1-2.1-0.4-4.1-1-6.1c-0.2-0.9-0.5-1.8-0.7-2.7
				c0.6,1,1.1,2.1,1.7,3.1c0.2,0.3,0.4,0.5,0.7,0.8c0.1,0,0.1,0,0.2-0.1c0.1-0.5,0.2-0.9,0.4-1.5c0.8,1.8,1.6,3.4,2.9,4.8
				c0.2-0.4,0.4-0.7,0.6-1.1c0.5-1,1.1-1.9,2.2-2.4c0.1-0.1,0.2-0.4,0.1-0.5c-0.4-1.2-1.2-2-2-2.9c-0.8-0.8-1.7-1.2-2.8-1.2
				c-1.1,0-2.2,0-3.2,0c-2,0.1-3.9,0.5-5.7,1.4c-0.8,0.4-1.5,0.9-1.9,1.7c-1,2.3-1.5,4.6-0.7,7c0.1,0.3,0.2,0.7,0.3,1.2
				c-0.6-0.7-1.2-1.3-1.7-1.9c-0.4,1.5-0.6,3-0.5,4.4c0.1,1.4,0.3,2.9,0.5,4.3c-1,0-2.1,0-3.1,0c0,0.6,0,1.3,0,1.9
				c-0.2-0.4-0.3-0.8-0.4-1.2c-0.2-0.9-0.3-0.9-1.2-0.7c0,0.5,0.1,0.9,0.1,1.4c0.3,1.3,0.5,2.6,0.8,3.9c0.1,0.5,0.5,0.8,1,0.7
				c0.8-0.1,1.6-0.1,2.4-0.1c0.2,0,0.5,0.1,0.7,0.2c1.1,0.7,2.2,1.5,3.4,2.1c2.5,1.3,5.1,1.3,7.6,0c0.4-0.2,0.5-0.4,0.5-0.8
				c-0.1-0.8,0-1.6-0.1-2.3c0-0.7-0.1-1.4-0.2-2.2c0,0-0.1,0-0.1,0c0,0.9-0.1,1.8-0.2,2.8c-0.3,0-0.6,0-0.9-0.1
				c-0.1-0.6-0.2-1.2-0.3-1.8c-0.1,0-0.1,0-0.2,0c0,1,0,2,0,3c-0.4,0-0.6,0-0.9,0c-0.4-3-0.5-3.5-2.3-5.8c-0.2-0.3-0.5-0.5-0.9-0.4
				c-1.4,0.1-2.6-0.7-3.8-1.2c1.6,0,3.3,0.4,4.9-0.5c-0.2-0.3-0.3-0.5-0.5-0.7c0.2,0,0.3,0.1,0.4,0.2c0.4,0.4,0.7,0.3,1.1-0.1
				c0.4-0.4,0.8-0.8,1.1-1.3c0.4-0.4,0.8-0.9,0.2-1.5C68.1,95.5,68.2,95.6,68.4,95.7z M53.2,87.7c-2.1-0.2-4.2-0.3-6.3-0.5
				c-1-0.1-1.8,0.2-2.4,0.9c-0.1,0.1-0.2,0.2-0.3,0.4c-1.9,2.1-2.6,4.7-3,7.4c-0.1,0.4,0.2,0.4,0.4,0.5c2.5,0.9,5,1.6,7.6,1.9
				c0.9,0.1,1.8,0.2,2.7,0.3c0-1.9-0.1-3.7,0-5.5C51.9,91.2,52.4,89.5,53.2,87.7z M86.9,85.3c-3,0.2-5.7,0.3-8.5,0.5
				c0.5,1.4,1,2.8,1.4,4.2c0.3,0.8,0.1,1.5-0.5,2c-0.5,0.4-1.1,0.6-1.7,0.9c-0.4,0.1-0.9,0.1-1.3,0.2c-0.3,0.9,0,1.8,0.1,2.6
				c0.1,0.5,0.3,0.7,0.8,0.8c0.5,0.1,0.9,0.2,1.3,0.2c1,0.1,1.9,0.2,2.9,0.2c1.1,0,2.2-0.2,3.2-0.8c1.1-0.7,1.3-2,0.4-3
				c-0.5-0.5-1.1-0.9-1.7-1.2c-0.7-0.4-1.6-0.7-2.4-1c0.1-0.2,0.1-0.5,0.2-0.8c0.5,0,1,0.1,1.4,0.1c1.5,0.1,2.9,0.1,4.3-0.4
				c0.2-0.1,0.4-0.3,0.4-0.5C87.1,88.1,87,86.8,86.9,85.3z M78.8,98c-1-0.4-1.6,0.1-2.2,0.9c-1,1.2-0.9,2.4-0.5,3.6
				c0,0.1,0.2,0.2,0.3,0.3c2.5,1.2,5.2,0.9,7.4-0.9c0.6-0.5,0.9-1.2,0.6-2c-0.3-1.1-2.3-2.3-3.3-2.1C80.3,97.9,79.5,97.9,78.8,98z
				 M76.4,104.3c-0.5,1-0.9,1.9-0.8,3c0.1,0.6,0.3,1,0.9,1.3c2.1,1,4.3,1,6.3-0.1c0.4-0.2,0.8-0.7,1.1-1.1c0.3-0.4,0.3-0.8,0-1.2
				c-0.7-0.8-1.7-1.3-2.6-1.8c-0.5-0.3-0.8,0-1.2,0c-1.1,0-2.2,0-3.4,0c0,0.1,0,0.2-0.1,0.3C76.6,104.7,76.5,104.5,76.4,104.3z
				 M52.2,100.9c-3.1-0.6-6.2-1.2-9.2-1.8c0,2.2,1.5,6.1,2.8,7.1c-1-1.7-0.6-3.5-0.5-5.3c0.6,1.1,1.1,2.2,1.7,3.4
				c0.2-1.2,0.4-2.2,0.6-3.3c0.5,1.3,0.6,2.8,1.5,3.9c0.3-1.1,0.5-2.1,0.8-3.1c0,0,0.1,0,0.1,0c0.4,1.1,0.8,2.3,1.2,3.5
				c0.3-1,0.6-1.9,1-2.8C52.3,101.8,52.3,101.3,52.2,100.9z M88.1,89.8c1.5,0.5,3,0.4,4.4-0.1c0.1-0.1,0.3-0.3,0.3-0.5
				c0-0.9,0-1.8,0-2.7c0-0.4-0.1-0.5-0.5-0.5c-0.4,0-0.8-0.1-1.1-0.2c-1.3-0.1-2.6-0.3-4-0.4c0,0-0.1,0.1-0.1,0.1
				C88.2,86.7,88.5,88.2,88.1,89.8z M93.6,89.5c1.1,0.2,2.1,0.2,3.2-0.1c0.4-0.1,0.9-0.3,1.2-0.6c0.5-0.4,0.5-1,0-1.4
				c-1.4-0.8-2.9-1.1-4.6-1.4C93.8,87.2,94,88.3,93.6,89.5z M78.6,89.6c-0.3-0.9-0.8-1.7-1.5-2.3c-0.1-0.1-0.3-0.2-0.4-0.1
				c-0.5,0.2-1,0.5-1.4,0.6C76.2,89.2,77,90.1,78.6,89.6z M74.3,106.8c0.1-0.5,0.1-1.1,0.3-1.6c0.2-0.5,0.7-0.8,1.1-1.2
				c-0.1-0.1-0.3-0.2-0.5-0.3c-0.7-0.4-1.1-0.3-1.6,0.3c-0.1,0.2-0.2,0.4-0.3,0.6C73,105.5,73.4,106.3,74.3,106.8z M77.1,97.9
				c-1.5-0.4-2.7,0-3.1,1c-0.4,1-0.1,2.1,0.8,2.6C74.3,99.6,75.4,98.6,77.1,97.9z M73.3,92.2c-0.4,1,0.5,2.8,1.6,3.4
				c-0.1-0.4-0.2-0.9-0.2-1.4c0-0.5,0.2-0.9,0.4-1.3C74.5,92.7,73.9,92.4,73.3,92.2z M72.4,102.3c0,0-0.1,0-0.1,0
				c-0.3,1.1-0.6,2.1-0.9,3.2c0,0-0.1,0-0.1,0c0-0.2,0-0.5,0-0.7c-0.2,0.4-0.2,0.9-0.3,1.3c-0.1,0.5-0.2,0.9-0.2,1.4
				c0,0,0.1,0.1,0.1,0.1c0.5-0.5,1-0.9,1.4-1.4c0.1-0.1,0.1-0.3,0.1-0.4c-0.3-0.7-0.2-1.4-0.1-2.1C72.3,103.2,72.3,102.8,72.4,102.3
				z M74.8,88.6c-0.4,0.4-0.7,0.8-1,1.2c1.1,1.2,2.8,1.7,4.1,1.2C76.1,91.1,75.4,90.1,74.8,88.6z M54.9,93.3
				C55,93.3,55,93.3,54.9,93.3c0.8-1.1,1.5-2.1,2.2-3.3c-0.5-0.1-0.8-0.1-1.2-0.2C55.6,91,55.3,92.2,54.9,93.3z M53.7,92.9
				C53.7,92.9,53.8,92.9,53.7,92.9c0.6-1,1.2-2,1.8-3c-1.1-0.1-1.2-0.1-1.4,0.9C53.9,91.4,53.8,92.2,53.7,92.9z M57.2,90.1
				c-0.2,0.9-0.3,1.7-0.4,2.5c0,0,0.1,0,0.1,0c0.4-0.7,0.7-1.4,1.1-2.2C57.8,90.4,57.6,90.2,57.2,90.1z M54.4,107.8
				c-0.5-1.3-1.1-2.5-1.6-3.7c0,0.8,0.7,2.8,1.2,3.4C54.1,107.7,54.2,107.7,54.4,107.8z M87.1,92.8c0-0.4,0-0.8,0-1.1
				c-0.3,0-0.6,0-0.9,0C86.5,92,86.8,92.4,87.1,92.8z"/>
			<path class="st2" d="M72.4,102.3c0,0.4,0,0.9-0.2,1.3c-0.2,0.7-0.2,1.4,0.1,2.1c0.1,0.1,0,0.3-0.1,0.4c-0.5,0.5-1,0.9-1.4,1.4
				c0,0-0.1-0.1-0.1-0.1c0.1-0.5,0.2-0.9,0.2-1.4c0.1-0.4,0.2-0.9,0.3-1.3c0,0.2,0,0.5,0,0.7c0,0,0.1,0,0.1,0
				c0.3-1.1,0.6-2.1,0.9-3.2C72.3,102.3,72.3,102.3,72.4,102.3z"/>
			<path class="st2" d="M87.1,92.8c-0.3-0.4-0.6-0.7-0.9-1.1c0.3,0,0.6,0,0.9,0C87.1,92,87.1,92.3,87.1,92.8z"/>
			<path class="st2" d="M43.4,95.3c0.2-0.6,0.4-1.1,0.5-1.6c0.5,0.2,0.8-0.1,1.1-0.4c1.1-1.2,3.1-0.9,3.9,0.5c0.4,0.7,0.4,0.7,1.2,1
				c-0.1,0.5-0.2,1-0.4,1.5c-0.6-0.2-0.9,0-1.2,0.4c-1.1,1.2-3.1,0.9-3.8-0.5C44.5,95.7,44.3,95.2,43.4,95.3z M47.2,95.3
				c-0.3-0.3-0.5-0.6-0.7-0.6c-0.2,0-0.4,0.3-0.6,0.5c0.3,0.2,0.6,0.4,0.9,0.6C46.7,95.8,47,95.6,47.2,95.3z"/>
			<path class="st2" d="M47.2,95.3c-0.2,0.3-0.4,0.5-0.5,0.5c-0.3-0.2-0.6-0.4-0.9-0.6c0.2-0.2,0.4-0.5,0.6-0.5
				C46.7,94.7,46.9,95,47.2,95.3z"/>
		</g>
	</g>
	<text transform="matrix(1 0 0 1 27.3291 53.5024)"><tspan x="0" y="0" class="st1 st3 st4">BIRTHDAY</tspan><tspan x="24.1" y="19.7" class="st1 st3 st4">GAL</tspan></text>
</g>
</svg>
