<?xml version="1.0" encoding="utf-8"?>
<!-- Generator: Adobe Illustrator 19.2.1, SVG Export Plug-In . SVG Version: 6.00 Build 0)  -->
<svg version="1.1" id="Layer_1" xmlns="http://www.w3.org/2000/svg" xmlns:xlink="http://www.w3.org/1999/xlink" x="0px" y="0px"
	 viewBox="0 0 345.4 130.9" style="enable-background:new 0 0 345.4 130.9;" xml:space="preserve">
<style type="text/css">
	.st0{fill-rule:evenodd;clip-rule:evenodd;fill:#2E1153;}
	.st1{fill-rule:evenodd;clip-rule:evenodd;fill:#368E95;}
	.st2{fill-rule:evenodd;clip-rule:evenodd;fill:#0A2D50;}
	.st3{fill-rule:evenodd;clip-rule:evenodd;fill:#DB5817;}
	.st4{fill-rule:evenodd;clip-rule:evenodd;fill:#E87E04;}
	.st5{fill-rule:evenodd;clip-rule:evenodd;fill:#EBAC03;}
	.st6{fill-rule:evenodd;clip-rule:evenodd;fill:#DAC40E;}
	.st7{opacity:0.83;fill-rule:evenodd;clip-rule:evenodd;fill:#2E1153;}
	.st8{fill-rule:evenodd;clip-rule:evenodd;fill:#907569;}
	.st9{fill-rule:evenodd;clip-rule:evenodd;fill:#354B72;}
	.st10{fill-rule:evenodd;clip-rule:evenodd;fill:#A2A165;}
	.st11{fill-rule:evenodd;clip-rule:evenodd;fill:#090226;}
	.st12{fill-rule:evenodd;clip-rule:evenodd;fill:#DE271E;}
</style>
<g>
	<path class="st0" d="M204.1,10c7.5-2.8,15.1-5.6,22.6-8.4c1.1-0.4,2.3-0.8,3.2-1.5c8.7,0,17.3,0,26-0.1c0.3,0,0.8-0.2,0.9,0.3
		c0.1,0.4-0.3,0.6-0.7,0.7c-8.6,3-16.7,6.9-25.3,9.8c-11,3.7-21.6,8.1-32.3,12.3c-18,7-36.3,13.7-54.4,20.5
		c-0.7,0.3-1.4,0.4-2.1,0.6c-0.4-0.4-0.9-0.3-1.4-0.2c-1.5,0.5-3.1,0.9-4.6,1.5c-2,0.8-4,1.7-6.1,2.4c-4.8,1.6-9.5,3.2-14,5.3
		c-1.3,0.6-2.6,1.4-4.2,1.5c-0.7-0.3-1-1-2-1c-1.7,0-3.4,0.2-5.1,0.3c-2.2,0.1-4.4,0.4-6.7,0.2c-3.1-0.3-6.3-0.3-9.4,0.3
		c-1.3,0.3-2.7,0.6-4.1,0.6c0.1-0.6,0.8-0.7,1.3-0.8c2.6-0.6,4.8-1.7,7.2-2.5c5.6-2,11-4.2,16.6-6.3c5.1-1.9,10.1-3.8,15.2-5.7
		c5.3-2,10.6-4,15.9-6c5.6-2.1,11.1-4.2,16.7-6.3c5.5-2.1,11-4.2,16.5-6.2c7.1-2.7,14.2-5.3,21.2-8"/>
	<path class="st0" d="M115.8,32c-0.4,0.8-1.3,1.2-2.3,1.3c-1.9,0.2-3.7,0.9-5,2c-0.3,0.2-0.6,0.3-0.9,0.4c-2.3,0.5-4.5,1.3-6.6,2.1
		c-0.3,0.1-0.7,0.2-0.9,0.4c-1.2,0.9-2.6,1.3-4.2,1.6c-0.2,0-0.3,0.1-0.4,0.2c-1.4,1.5-3.8,1.4-5.6,2.2c-2,0.8-4.1,1.5-6.2,2.3
		c-5.2,2-10.5,4-15.7,6c-5.7,2.2-11.3,4.3-17,6.5c-6.5,2.5-13,5-19.6,7.5c-6.7,2.5-13.4,4.9-20,7.6c-2.4,1-4.7,2-7,3
		c-0.7,0-1.2,0.1-1.8,0.3c-0.7,0.3-1.4,0.5-2.2,0.4c0-2.7,0.1-5.5-0.2-8.2c-0.2-1.9,0.7-2.7,2.8-3.4c10.3-3.4,20.2-7.5,30.3-11.3
		c14.1-5.4,28.3-10.7,42.5-16.1c11.9-4.5,23.7-9,35.6-13.5c1.2-0.4,2.3-0.9,3.6-1.1c0.4,0.6,0.5,1.2,0.5,1.9c0,2.2,0,4.3,0,6.5
		C115.3,31,115.3,31.6,115.8,32z"/>
	<path class="st1" d="M229.4,64.6c0.1,0.1,0.2,0.1,0.2,0.2c-0.1,0.7,0.5,0.9,1.1,1.2c5.8,2.2,11.5,4.4,17.3,6.6
		c0.8,0.3,1.7,0.5,2.7,0.4c0.1,0,0.1,0.1,0.2,0.1c0.2,0.5,0.7,0.7,1.2,1c1.3,0.5,2.6,1,3.9,1.5c9.7,3.7,19.5,7.3,29.2,11
		c10.1,3.8,20.2,7.7,30.3,11.5c4.6,1.7,9.2,3.4,13.7,5.2c4.3,1.6,8.5,3.2,12.8,4.8c0.3,0.1,0.9,0.2,0.7,0.6
		c-0.1,0.4-0.6,0.4-1.1,0.4c-0.5-0.1-1.1-0.1-1.7-0.1c-6.6,0-13.2,0-19.8,0c-1.5,0-3-0.2-4.3-0.7c-5.9-2.3-11.9-4.5-17.8-6.8
		c-9.1-3.4-18.1-6.8-27.2-10.2c-10.1-3.8-20.1-7.6-30.2-11.4c-11.7-4.4-23.3-8.8-35-13.1c-1-0.4-2-0.7-2.6-1.5
		c0.3-0.4,0.8-0.6,1.3-0.8c2.8-1.1,5.5-2.1,8.3-3.2c1-0.4,2.1-0.7,3.2-0.8c3.4,0.9,6.5,2.3,9.8,3.5C226.9,64.3,228,64.7,229.4,64.6z
		"/>
	<path class="st2" d="M84.3,55.4c1.4,0,2.7-0.3,4.1-0.6c3.1-0.7,6.2-0.6,9.4-0.3c2.2,0.2,4.5-0.1,6.7-0.2c1.7-0.1,3.4-0.3,5.1-0.3
		c1,0,1.3,0.7,2,1c0.1,0.6-0.6,0.6-1,0.7c-1.3,0.3-2.7,0.5-3.9,1.2c-1.3,0.7-2.6,1.4-4.2,1.3c-0.2,0-0.4,0.1-0.5,0.2
		c-2,1.6-4.6,2.2-7.1,2.9c-1.6,0.5-3.2,1.1-4.1,2.5c-0.2,0.2-0.4,0.2-0.7,0.2c-3.3,0.2-6.2,1.4-9,2.8c-0.4,0.2-0.5,0.5-0.5,0.8
		c-0.3,0.2-0.7,0.5-1.2,0.4c-1.9-0.2-3.4,0.5-4.9,1.3c-0.3,0.1-0.9,0.3-0.4,0.8c-0.1,0.3-0.4,0.2-0.7,0.2c-0.5,0-1,0-1.5,0
		c-1.1,0.1-2.1,0.7-2.4,1.5l-0.1,0l-0.1,0c-2.3,0-3.1,0.3-3.7,1.5c-1,1-2.7,1.3-4.1,1.8c-3.1,1.3-6.4,2.3-9.6,3.5
		c-6.2,2.3-12.5,4.7-18.7,7c-1.8,0.7-3.6,1.3-5.5,2C27.3,87.1,26.7,87,26,87c-6.2,0-12.4,0-18.5,0c-1.3,0-2.6-0.1-3.9,0.2
		c-0.6,0.1-1.1,0.1-1.2-0.6c5-2.1,10.1-4,15.2-6c1.8-0.7,3.8-1.3,5.6-2c1.9-0.7,4-1.2,5.6-2.5c6.7-2.3,13.2-4.8,19.8-7.3
		c1.7-0.7,3.6-1.2,5.3-1.8c1.6-0.6,2.7-1.7,4.3-2.3c1.2-0.4,2.3-0.8,3.6-1c1.1-0.2,2-0.7,2.9-1.2c2.4-1.5,5.1-2.3,8-2.9
		c0.3-0.1,0.6-0.1,0.9-0.3c1-1,2.4-1.2,3.8-1.5c1.6-0.3,3.1-0.8,4.3-1.8C82.4,55.4,83.4,55.4,84.3,55.4z"/>
	<path class="st3" d="M86,76.9c0.1-0.7,0.9-1,1.6-1.3c8.2-3.1,16.4-6.3,24.6-9.4c19.4-7.3,38.8-14.6,58.2-22
		c0.5-0.2,0.9-0.4,1.5-0.3c1.5,0.5,2.8,0,4.1-0.4c3.6-1.2,7.2-2.5,10.8-3.8c2.6-0.9,5.4-1.6,7.7-3c0.9-0.5,1.7-1,2.8-1.2
		c1.6-0.2,2-0.1,2,1.3c0,1.8,0,3.6,0,5.4c0,0.4-0.1,0.8,0.2,1.1c-9.9,3.9-19.8,7.8-30,11.1c-7.7,0-15.4,0-23.1,0
		c-0.7,0-1.3,0.2-1.8,0.4c-2.1,0.8-4.3,1.6-6.4,2.4c-6.2,2.3-12.4,4.9-18.7,7c-0.4,0.1-0.8,0.3-0.7,0.7c0.1,0.4,0.6,0.7,1.1,0.6
		c2.2-0.5,4.4,0,6.5,0c1.7,0,3.4-0.2,5.1-0.2c3.6,0,7.1,0,10.7,0c0,0.2,0,0.3,0,0.5c-0.4,0.2-0.7,0.3-1.1,0.5c-2,0-3.8,0.2-4.9,1.8
		c-0.4,0.1-0.8,0.3-1.2,0.4c-0.9,0-2-0.3-2.2,0.9c-2.1,0.8-4.1,1.6-6.2,2.3c-1.6-0.1-3.1,0.1-3.8,1.5c-2.8,1-5.5,2.1-8.2,3.3
		c-0.5,0-0.9,0.2-1.3,0.4c-6.6,2.6-13.3,5.1-19.9,7.7c-2.1,0.8-4.1,1.8-6.5,2.1c-0.5-2.4-0.2-4.9-0.3-7.3
		C86.5,78.6,86.4,77.7,86,76.9z"/>
	<path class="st4" d="M112.9,98.7c0.8-0.3,1.5-0.7,2.2-1c-0.5-2.7-0.2-5.4-0.2-8c0-0.6-0.1-1.3-0.5-1.8c-4.6,1.3-8.9,3.2-13.4,4.8
		c-3.7,1.3-7.3,2.7-11,4c-0.4,0.1-0.8,0.3-1.2,0.3c-0.3,0.4-0.8,0.5-1.2,0.7c-12.8,4.9-25.6,9.8-38.5,14.6c-5.3,2-10.6,3.9-15.9,5.8
		c-0.4,0.1-0.7,0.2-1.1,0.4c-0.8,0.7-1.9,0.5-2.9,0.7c-0.3,0.6-1,0.8-1.7,1.1c-1.1,0.4-2.3,0.7-3.2,1.5c1.2,0.2,2.2-0.1,3.1-0.6
		c1.6-0.8,3.4-1.2,5.3-1.2c6.5,0,12.9,0,19.4,0c0.2,0,0.4,0,0.6,0c0.4,0,0.8,0.1,1,0.4c0.2,0.3-0.2,0.5-0.5,0.6
		c0.2,0.1,0.4,0.1,0.6,0.2C73.6,113.6,93.3,106.3,112.9,98.7z"/>
	<path class="st5" d="M115.6,130.6c-9,0-18,0-27,0c-0.4,0-0.9,0-1.3,0c0.1-0.5,0.7-0.6,1.1-0.7c0.7-0.2,1.5-0.4,2.2-0.7
		c5.9-2.2,11.7-4.4,17.5-6.6c9.1-3.5,18.1-6.9,27.2-10.4c6.2-2.4,12.5-4.8,18.8-7.1c1.2-0.4,2.6-0.7,3.4-1.7
		c4.9-1.2,9.5-3.1,13.9-5.2c0.3,0,0.6,0,0.9,0c0,1.8,0.1,3.6,0,5.4c0,1.6,0.2,3.1,0.3,4.7c-0.3,0.8-1.1,1-1.9,1.3
		c-9,3.4-18,6.8-27.1,10.3C134.4,123.5,125,127.1,115.6,130.6z"/>
	<path class="st6" d="M0.4,108.8c2.5-0.3,4.7-1.3,7-2.1c5.8-2,11.5-4.1,17.1-6.4c2-0.8,3.9-1.8,5.7-3c2.4-1.6,5.3-2.3,8.1-3.2
		c5.8-1.8,11.6-3.8,17-6.3c1.1-0.5,2.3-0.8,3.6-0.9c2.4,0.7,4.9,0.6,7.4,0.5c3-0.2,6.1-0.3,8.9,0.9c0.4,0.2,0.8,0.4,1.3,0.3
		c0.6,0,1.2,0.1,1.5-0.4c0.4-0.5-0.7-0.5-0.6-0.9c1.6-0.2,3.1,0.3,4.6,0.4c-0.4,0.6-1.1,0.8-1.8,1c-1.5,0.6-3,1.1-4.5,1.7
		c-0.6,0.2-1,0.5-1,1l0,0c-1.3-0.1-2.4,0.2-3.6,0.7c-3,1.2-6,2.3-9,3.4c-3,1.1-6,2.2-8.8,3.6c-0.4,0.2-1,0.4-1,0.9
		c-0.1,0-0.2,0-0.2,0.1c-2.1-0.2-3.8,0.6-5.6,1.4c-0.5,0.2-0.8,0.6-0.9,1.1l0,0c-0.7,0.1-1.6-0.3-2.1,0.3c-0.3,0.4-0.7,0.4-1.2,0.4
		c-0.5,0-1,0.1-1.4,0.2c-1.6,0.6-3.2,1.2-4.8,1.9c-0.5,0.2-0.9,0.5-0.8,1.1c-0.1,0-0.2,0.1-0.3,0.1c-2.2-0.1-4,0.6-5.8,1.4
		c-0.6,0.2-0.9,0.7-1.1,1.2c-0.1,0-0.1,0.1-0.2,0.1c-0.4,0-0.7-0.1-1.1,0c-1.6,0.2-3.4,0.3-4,1.9c-0.2,0.1-0.3,0.1-0.5,0.2
		c-3-0.1-5.4,1-7.7,2.2c-0.4,0.2-0.5,0.5-0.4,0.8c-0.2,0.1-0.3,0.1-0.5,0.2c-0.9-0.6-1.8-0.1-2.5,0.2c-3.1,1.1-6.3,2.3-9.4,3.5
		c-1.2,0.4-1.5,0.3-1.5-0.8C0.4,114.5,0.4,111.7,0.4,108.8z"/>
	<path class="st4" d="M231.9,64.9c0.5-0.5,1.2-0.8,1.9-1.1c17.3-6.6,34.6-13.2,51.9-19.7c0.9-0.3,1.8-0.5,2.8-0.5
		c8.2,0,16.4,0,24.6,0c0.4,0,1-0.2,1.2,0.3c0.2,0.5-0.4,0.7-0.9,0.9c-0.9,0.4-1.9,0.6-2.9,0.7c-1.4-0.2-2.4,0.2-3.2,1.1
		c-1.9,1-3.6,2.2-5.9,2.3c-2.3-0.1-4.2,0.6-5.6,2.1c-0.2,0.1-0.3,0.1-0.5,0.2c-2.2,0.1-4.1,0.8-5.9,1.7c-0.3,0.2-0.6,0.4-0.6,0.8
		c-1,0.9-2.3,1.4-3.7,1.9c-7.6,2.9-15.2,5.8-22.8,8.7c-0.5,0.2-1,0.5-1.6,0.7c-0.7,0-1.4,0-1.7,0.6c-8.3,0.1-16.5-0.3-24.8,0.2
		C233.5,65.5,232.6,65.4,231.9,64.9z"/>
	<path class="st3" d="M203.2,65.2c0.6,0.8,1.6,1.1,2.6,1.5c11.7,4.4,23.3,8.7,35,13.1c10.1,3.8,20.1,7.6,30.2,11.4
		c9,3.4,18.1,6.8,27.2,10.2c6,2.2,11.9,4.5,17.8,6.8c1.4,0.5,2.8,0.7,4.3,0.7c6.6,0,13.2,0,19.8,0c0.6,0,1.1,0,1.7,0.1
		c0.5,0.1,0.9,0,1.1-0.4c0.2-0.4-0.4-0.5-0.7-0.6c-4.2-1.6-8.5-3.2-12.8-4.8c-4.6-1.7-9.2-3.4-13.7-5.2
		c-10.1-3.8-20.2-7.7-30.3-11.5c-9.7-3.7-19.5-7.3-29.2-11c-1.3-0.5-2.6-1-3.9-1.5c-0.5-0.2-1.1-0.4-1.2-1c0.4-0.1,0.8,0,1.1,0.1
		c3.5,1,6.8,2.4,10.2,3.7c1.3,0.5,2.7,1,4.2,1c0.1,0.7,0.6,1.1,1.4,1.3c1.1,0.3,2.3,0.7,3.5,0.8c0.1,0.1,0.3,0.1,0.4,0.2
		c2,1.4,4.4,2.1,7,2.5c0.6,0.8,1.5,1,2.6,0.9c1.7,1.2,3.6,2.2,6,2.5c3.3,1.7,6.8,3,10.6,4c0.3,0.4,0.8,0.6,1.3,0.8
		c6.8,2.6,13.6,5.1,20.3,7.7c7.3,2.8,14.6,5.7,21.9,8.5c1.1,0.4,2.2,1,3.5,0.9c0,3.8,0,7.6,0,11.4c-1,0-1.9-0.3-2.8-0.7
		c-6.5-2.5-13-5-19.6-7.5c-2-0.8-4.1-1.5-6.4-1.9c-1.6-0.5-3.1-0.9-4.6-1.6c-5.7-2.3-11.6-4.5-17.4-6.6c-18.5-7-37-14-55.6-21.1
		c-3.4-1.3-6.7-2.7-10.3-3.7c-0.3-0.4-0.9-0.7-1.4-0.9c-6.8-2.6-13.6-5.2-20.4-7.8c-4.1-1.6-8.4-2.5-13-2.4c-4.5,0.2-9,0-13.6,0
		c-1.7,0-3.4,0-5.1,0.2c-0.5,0.1-1,0.1-1.1,0.6c-2.1,0.2-2.2,0.4-1.9,2.1c0.1,0.7,0.3,1.4,0.2,2.1c-0.3,2-0.6,4.1,0.6,6
		c-0.5,0-1-0.3-1.4-0.5c-4.2-1.7-8.4-3.3-12.8-4.8c0-0.2,0-0.3,0.1-0.5c0.3-0.1,0.7-0.2,1-0.2c4.1-1.1,7.8-2.9,11.7-4.3
		c1.1-0.4,1.5-1,1.5-1.9c0-2.9,0-5.8,0-8.7c0.1-0.3,0.4-0.4,0.8-0.4c4.2,1.7,8.3,3.4,12.5,5.1c0.6,0.2,1.2,0.2,1.9,0.3
		c0.2,0.3,0.7,0.4,1.1,0.6c3.1,1.2,6.2,2.3,9.3,3.5C199.7,64.9,201.4,65.3,203.2,65.2z"/>
	<path class="st5" d="M266.5,77.9c-1.5-0.1-2.9-0.6-4.2-1c-3.4-1.3-6.7-2.7-10.2-3.7c-0.4-0.1-0.7-0.3-1.1-0.1
		c-0.1,0-0.1-0.1-0.2-0.1c-0.1-0.7-0.7-1.1-1.5-1.3c-3.5-1.3-7-2.5-10.5-3.8c-1.5-0.6-3.2-1-4.4-2c8.3-0.5,16.5-0.1,24.8-0.2
		c0.6,0.5,1.3,0.4,2,0.4c4.9,2.6,10.4,4.2,15.6,6.2c18.4,7,36.9,14,55.4,20.9c0.5,0.2,1,0.3,1.2,0.7c-1,0.4-1.9,0-2.8-0.4
		c-4.2-1.6-8.4-3.2-12.6-4.8c-1.6-0.6-3.2-1.1-5.1-0.9c-1,0.1-2,0.2-3,0.2c-2.4,0-4.8,0.2-7.1,0.7c-0.8,0.2-1.7,0.3-2.4-0.2
		c-1-0.7-2.2-0.6-3.4-0.6c-0.4,0-0.7,0.2-0.8,0.5c-0.1,0.3,0.3,0.4,0.6,0.5c0.8,0.3,1.3,0.8,1.2,1.5c-3.8-1-7.3-2.3-10.6-4
		c0.4-0.3,0.8-0.6,1.2-0.9c0.2-0.2,0.6-0.3,0.3-0.6c-0.2-0.3-0.6-0.4-1-0.4c-0.5,0-0.9,0.2-1.3,0.5c-0.2,0.1-0.5,0.2-0.8,0
		c-0.3-0.2-0.1-0.4,0.1-0.6c0.5-0.5,0.5-1.1,0.5-1.6c-0.1-1.6,0.5-3,2-4.1c0.6-0.5,0.4-0.8-0.1-1.2c-1.1-0.7-2.8-1-3.7-0.5
		c-1.9,1.1-3.7,0.7-5.6,0.5c-0.2,0-0.4,0-0.6,0c-3.6,0-7.2,0.1-10.3-1.8c-0.5-0.3-1.2-0.3-1.6,0.2c-0.4,0.4-0.5,1,0.1,1.4
		C267.6,77.4,267.2,77.7,266.5,77.9z"/>
	<path class="st4" d="M289.8,120.5c-1.2,0-2.3-0.5-3.4-0.9c-6-2.6-12.3-4.6-18.4-7c-3.3-1.3-6.6-2.5-9.9-3.8
		c-0.5-0.2-1.1-0.4-1.3-0.9c0.7-0.1,1.6,0,1.7-0.8c0.1-0.6,0.2-1.2,0.2-1.9c0-2.3,0-4.6,0-6.8c0.5-0.1,1,0.1,1.4,0.2
		c2,0.7,3.9,1.4,5.9,2.1c5.8,2.3,11.5,4.6,17.4,6.8c1.6,0.6,3.1,1.3,4.9,1.5c0.2,0.7,1,0.8,1.6,1c5,1.6,9.6,3.8,14.2,5.9
		c2.7,1.3,5.4,2.6,8.6,3c3.6,0.4,7,1.2,10.3,2.4c5.9,2.2,11.7,4.5,17.5,6.7c1.4,0.6,2.9,0.9,4.5,0.8c0.2,0.5,0.3,1,0.3,1.5
		c0,0.4-0.2,0.7-0.8,0.5c-0.2-0.3-0.6-0.4-1-0.5c-8-3.1-16-6.2-24-9.3c-2.1-0.8-4.2-1.3-6.5-1.2c-1.8,0.1-3.7,0-5.5,0
		c-5.4,0-10.8,0-16.2,0C290.7,119.8,290,119.8,289.8,120.5z"/>
	<path class="st5" d="M345,86.9c-1.7,0.1-3-0.7-4.5-1.3c-6.8-2.6-13.5-5.2-20.3-7.8c-8.3-3.2-16.6-6.3-24.9-9.4
		c-1.7-0.6-3.4-1.2-5.1-1.8c-0.4-0.1-0.9-0.3-0.8-0.7c0.1-0.4,0.6-0.5,1.1-0.5c8.2,0,16.3,0,24.5,0c2.1,0,3.9,0.9,5.7,1.6
		c7.2,2.7,14.3,5.5,21.5,8.2c0.9,0.3,1.7,0.6,2.7,0.6C345,79.5,345,83.2,345,86.9z"/>
	<path class="st3" d="M345,128.7c-1.6,0.1-3-0.3-4.5-0.8c-5.8-2.3-11.6-4.5-17.5-6.7c-3.3-1.2-6.7-2-10.3-2.4
		c-3.2-0.3-5.9-1.7-8.6-3c-4.6-2.1-9.2-4.3-14.2-5.9c-0.6-0.2-1.5-0.3-1.6-1c0.8-0.2,1.6,0.2,2.5,0.2c4.7,0,9.5,0.1,14.2-0.1
		c2.3-0.1,4.5,0.3,6.7,0.4c1.5,0.1,3,0.4,4.4-0.1c2.2,0.4,4.3,1.1,6.4,1.9c6.5,2.5,13,5,19.6,7.5c0.9,0.3,1.8,0.7,2.8,0.7
		C345.1,122.5,345.1,125.6,345,128.7z"/>
	<path class="st6" d="M298,90.1c0-0.7-0.4-1.2-1.2-1.5c-0.3-0.1-0.7-0.2-0.6-0.5c0.1-0.3,0.4-0.5,0.8-0.5c1.2,0,2.4-0.1,3.4,0.6
		c0.7,0.5,1.6,0.4,2.4,0.2c2.3-0.5,4.7-0.7,7.1-0.7c1,0,2-0.1,3-0.2c1.8-0.1,3.4,0.3,5.1,0.9c4.2,1.6,8.4,3.2,12.6,4.8
		c0.8,0.3,1.8,0.8,2.8,0.4c0.2,0.1,0.3,0.3,0.5,0.4c2.4,2.2,5.5,3.2,9.2,3.4c2.1,0.4,2.2,0.6,2.2,2.3c-0.1,2.7-0.1,5.4-0.1,8.2
		c-1.3,0.1-2.4-0.4-3.5-0.9c-7.3-2.8-14.6-5.7-21.9-8.5c-6.7-2.6-13.5-5.1-20.3-7.7C298.8,90.7,298.2,90.5,298,90.1z"/>
	<path class="st5" d="M289.8,120.5c0.1-0.8,0.8-0.7,1.5-0.7c5.4,0,10.8,0,16.2,0c1.8,0,3.7,0.1,5.5,0c2.4-0.1,4.5,0.4,6.5,1.2
		c8,3.1,16,6.2,24,9.3c0.4,0.1,0.8,0.2,1,0.5c-9.7,0-19.4,0.1-29,0c0,0,0-0.1,0-0.1c-0.7-0.7-1.6-1-2.6-1.4
		C305.2,126.4,297.4,123.6,289.8,120.5z"/>
	<path class="st7" d="M22.5,111.2c0.2-0.1,0.3-0.1,0.5-0.2c1.8-0.1,3.4-0.8,5-1.5c0.3,0.3,0.7,0.2,1,0.2c0,1.9,0,3.8,0,5.8
		c0,1.2-0.2,2.5,0.3,3.7c-0.3,0.6-1,0.8-1.7,1.1c-1.1,0.4-2.3,0.7-3.2,1.5c-0.3,0.1-0.6,0.3-0.9,0.4c-0.6,0-1.2,0.2-1.7,0.3
		c-4.3,1.4-8.5,3.2-12.7,4.8c-0.4,0.2-0.9,0.3-1,0.8c-1.4,0.5-2.8,0.9-4.1,1.4c-0.9,0.3-3.8,1.6-3.8,1.1c0-2.9,0.1-7.9,0.1-10.8
		c0.5-0.1,1.1-0.1,1.6-0.3c1.7-0.6,3.4-1.2,5.1-1.8c2.4-0.9,4.8-1.7,6.9-3c0.2-0.1,0.3-0.1,0.5-0.2C17.3,113.7,20,112.8,22.5,111.2z
		"/>
	<path class="st1" d="M23.4,122c0.3-0.1,0.6-0.3,0.9-0.4c1.2,0.2,2.2-0.1,3.1-0.6c1.6-0.8,3.4-1.2,5.3-1.2c6.5,0,12.9,0,19.4,0
		c0.2,0,0.4,0,0.6,0c0.4,0,0.8,0.1,1,0.4c0.2,0.4-0.3,0.6-0.6,0.7c-1,0.4-2,0.8-3,1.2c-5.2,1.9-10.5,3.8-15.7,5.8
		c-1.4,0.5-2.7,1-4.1,1.5c-0.7,0.3-1.4,0.6-1.8,1.2c-9,0-17.9,0-26.9,0c0.5-0.8,1.4-1,2.3-1.3c1.4-0.5,2.8-0.9,4.1-1.4
		c0.7,0.1,1.3-0.1,1.9-0.2c4.4-1.2,8.4-3,12.7-4.5C23.2,123,23.5,122.6,23.4,122z"/>
	<path class="st4" d="M199.6,43.4c-0.3-0.3-0.2-0.7-0.2-1.1c0-1.8,0-3.6,0-5.4c0-1.3-0.4-1.5-2-1.3c-1.1,0.2-1.9,0.6-2.8,1.2
		c-2.3,1.4-5.1,2.1-7.7,3c-3.6,1.3-7.2,2.6-10.8,3.8c-1.3,0.4-2.6,1-4.1,0.4c4.5-1.8,8.9-3.5,13.4-5.3c4.4-1.8,9-3.3,13.2-5.3
		c1.5-0.7,3.1-0.7,4.7-0.1c8.2,3.1,16.3,6.2,24.5,9.3c0.6,0.2,1.1,0.4,0.9,1.1c-0.9,0-1.8,0-2.8,0c-7.7,0-15.3,0-23,0
		c-0.5-0.1-1.1-0.1-1.6-0.2C200.7,43.5,200.1,43.4,199.6,43.4z"/>
	<path class="st8" d="M28.7,76.2c-1.5,1.3-3.6,1.7-5.6,2.5c-1.9,0.7-3.8,1.3-5.6,2c-5.1,2-10.3,3.8-15.2,6c-0.7,0.1-1.4,0.2-2,0.2
		c0-3.7,0-7.4,0-11.1c0.8,0.1,1.5-0.1,2.2-0.4C3,75.1,3.5,75,4.2,75c-0.2,0.9,0.2,1.2,1.4,1.2C13.3,76.2,21,76.2,28.7,76.2z"/>
	<path class="st9" d="M0.2,86.9c0.7-0.1,1.4-0.2,2-0.2c0.1,0.6,0.7,0.7,1.2,0.6C4.8,86.9,6.1,87,7.4,87c6.2,0,12.4,0,18.5,0
		c0.7,0,1.3,0.1,1.9,0.5c-5.8,2.9-12.2,4.8-18.3,7.2c-2.7,1-5.5,2-8.3,3c-0.6,0.2-1.1,0.4-1.1-0.5C0.2,93.8,0.2,90.3,0.2,86.9z"/>
	<path class="st5" d="M82,87.6c-1.5-0.1-3-0.6-4.6-0.4c-0.1,0.4,0.9,0.4,0.6,0.9c-0.3,0.5-0.9,0.4-1.5,0.4c-0.5,0-0.9-0.2-1.3-0.3
		c-2.8-1.2-5.8-1.1-8.9-0.9c-2.5,0.2-5,0.2-7.4-0.5c0.1-0.3,0.3-0.5,0.6-0.6c3.4-1.1,6.5-2.7,10.2-3.3c0.5-0.1,0.9-0.1,1.4-0.2
		c0.9-0.1,1.6-0.4,2.1-1.1c1-1.7,3-2.2,5.1-2.5c2.8-0.4,5.4-1.1,7.8-2.4c0.4,0.8,0.5,1.6,0.5,2.5c0,2.4-0.2,4.9,0.3,7.3
		c-0.2,0.1-0.4,0.2-0.6,0.3C84.7,86.9,83.4,87.5,82,87.6z"/>
	<path class="st8" d="M229.4,54.7c0,0.2,0,0.4,0,0.7c-1.1,0-2.1,0-3.1,0.4c-3.5,1.2-6.9,2.7-10.4,4c-0.4-0.1-0.8-0.2-1.1-0.3
		c-3.4-1.3-6.9-2.4-10.3-3.8c-0.9-0.4-1.9-0.8-3-0.9c0-0.2,0-0.4,0-0.6c1.4-0.4,2.8-0.9,4.2-1.3c3.2-1.1,6.4-2.1,9.2-3.8
		c0.5,0,1,0,1.4,0c1.5,1,3.3,1.4,4.9,2.1C224,52.4,227.1,53,229.4,54.7z"/>
	<path class="st4" d="M229.4,54.7c-2.3-1.7-5.4-2.3-8.1-3.5c-1.6-0.7-3.5-1.1-4.9-2.1c0.2-0.3,0.5-0.5,0.9-0.6
		c2.3-0.9,4.5-1.8,6.8-2.6c1.7-0.6,3.4-1.4,5.3-1.7c0.4,0.1,0.5,0.3,0.5,0.7c-0.1,2.6,0.6,5.1,0.5,7.6
		C230.3,53.3,230.2,54.1,229.4,54.7z"/>
	<path class="st6" d="M229.3,44.2c-1.9,0.2-3.6,1.1-5.3,1.7c-2.3,0.8-4.5,1.8-6.8,2.6c-0.4,0.1-0.7,0.3-0.9,0.6c-0.5,0-1,0-1.4,0
		c-0.8-0.7-1.8-1.1-2.8-1.5c-2.2-0.8-4.3-1.6-6.5-2.4c-1-0.4-2-0.9-2.7-1.6c7.7,0,15.3,0,23,0c0.9,0,1.8,0,2.8,0
		C228.9,43.8,229.1,44,229.3,44.2z"/>
	<path class="st10" d="M215.9,59.8c3.4-1.4,6.8-2.8,10.4-4c1-0.4,2.1-0.4,3.1-0.4c0.7,0.2,0.8,0.7,0.7,1.2c-0.5,2.1-0.4,4.3-0.5,6.4
		c0,0.5-0.1,1-0.2,1.5c-1.3,0.1-2.5-0.3-3.7-0.7c-3.3-1.2-6.3-2.6-9.8-3.5C215.9,60.2,215.9,60,215.9,59.8z"/>
	<path class="st11" d="M90.6,63.7c0.8-1.4,2.4-2,4.1-2.5c2.5-0.8,5.1-1.3,7.1-2.9c0.1-0.1,0.4-0.2,0.5-0.2c1.7,0.1,3-0.6,4.2-1.3
		c1.2-0.7,2.5-0.9,3.9-1.2c0.5-0.1,1.1-0.1,1-0.7c1.6-0.1,2.9-0.9,4.2-1.5c4.5-2.1,9.2-3.7,14-5.3c2.1-0.7,4.1-1.6,6.1-2.4
		c1.5-0.6,3.1-1,4.6-1.5c0.5-0.2,1-0.2,1.4,0.2c-0.1,0.4-0.5,0.5-0.9,0.7c-16.2,5.9-32.2,12.1-48.3,18.3
		C92,63.5,91.3,63.7,90.6,63.7z"/>
	<path class="st10" d="M234.3,65.7c1.2,1,2.8,1.5,4.4,2c3.5,1.3,7,2.6,10.5,3.8c0.8,0.3,1.4,0.6,1.5,1.3c-0.9,0.1-1.8-0.1-2.7-0.4
		c-5.8-2.2-11.5-4.4-17.3-6.6c-0.6-0.2-1.2-0.5-1.1-1.2c0.8,0.1,1.5,0.1,2.3,0.1C232.6,65.4,233.5,65.5,234.3,65.7z"/>
	<path class="st10" d="M13.8,114.5c-2.1,1.3-4.5,2.2-6.9,3c-1.7,0.6-3.4,1.2-5.1,1.8c-0.5,0.2-1.1,0.2-1.6,0.3c0-3.4,0-6.8-0.1-10.2
		c0-0.2-0.1-0.5,0.3-0.6c0,2.9,0,5.8,0,8.6c0,1,0.3,1.2,1.5,0.8c3.1-1.1,6.3-2.3,9.4-3.5C12.1,114.4,12.9,113.9,13.8,114.5z"/>
	<path class="st5" d="M342.9,97.5c-3.6-0.2-6.7-1.2-9.2-3.4c3.1,0.5,5.9,1.6,8.6,2.9C342.6,97.1,342.7,97.3,342.9,97.5z"/>
	<path class="st11" d="M80.5,67.4c-0.1-0.3,0.1-0.6,0.5-0.8c2.8-1.4,5.6-2.6,9-2.8C87,65.4,83.8,66.4,80.5,67.4z"/>
	<path class="st3" d="M288.9,53.7c0-0.4,0.3-0.6,0.6-0.8c1.8-0.9,3.7-1.6,5.9-1.7C293.7,52.9,291.3,53.3,288.9,53.7z"/>
	<path class="st3" d="M295.8,51c1.4-1.5,3.2-2.2,5.6-2.1C299.9,50.3,298,50.9,295.8,51z"/>
	<path class="st11" d="M74.1,69.9c-0.5-0.5,0.1-0.6,0.4-0.8c1.5-0.8,3-1.5,4.9-1.3C77.8,68.8,76,69.6,74.1,69.9z"/>
	<path class="st11" d="M69.5,71.6c0.2-0.8,1.3-1.4,2.4-1.5c0.5,0,1,0,1.5,0C72.4,71.1,71,71.4,69.5,71.6z"/>
	<path class="st11" d="M65.6,73.1c0.6-1.2,1.4-1.6,3.7-1.5C68.3,72.5,67,72.9,65.6,73.1z"/>
	<path class="st3" d="M307.3,46.7c0.7-1,1.8-1.3,3.2-1.1C309.8,46.5,308.6,46.7,307.3,46.7z"/>
	<path class="st3" d="M261.1,65.9c-0.7,0-1.4,0.1-2-0.4c0.3-0.6,1-0.6,1.7-0.6C260.9,65.3,261,65.6,261.1,65.9z"/>
	<path class="st0" d="M172.4,98.2c-0.3,0-0.6,0-0.9,0c-0.1-0.7-0.3-1.3-0.3-2c0-2.5,0-5.1,0-7.6c0-0.7-0.5-1.1-1.1-1.4
		c-0.4-0.2-1-0.2-1.5,0.1c-2.4,1.6-5.2,2.6-8.1,3.4c-3.1,0.9-6,0.9-8.7-0.9c-1.9-1.3-4-2-6.5-2c-0.6,0-1.2,0-1.5,0.5
		c-0.3,0.4,0,0.8,0.3,1.1c0.5,0.5,0.5,1,0.1,1.6c-0.4,0.5-0.6,0.9-0.6,1.5c0.1,2.9-1.8,4.9-4.9,6.2c-2.3,1-5,1.5-7.3,2.5
		c-3.2,1.5-6.6,2.7-10,3.8c-0.8,0.2-1.5,0.6-1.5,1.4c-0.8,0.5-1.7,0.9-2.7,1.3c-2.7,1-5.4,1.9-8.1,2.9c-3,1.1-5.6,2.6-8.5,3.7
		c-7.3,2.7-14.6,5.5-22,8.2c-3.8,1.4-7.6,2.8-11.3,4.3c-2.9,1.1-6.1,1.9-8.7,3.6c-8.9,0-16.8,0-25.7,0c-0.7,0-1.4,0-2.2,0
		c-0.4,0-0.8,0-0.9-0.3c-0.1-0.4,0.3-0.5,0.6-0.6c4.9-1.6,9.6-3.5,14.3-5.3c22.6-8.6,45.3-16.9,67.8-25.7c0.8-0.3,1.5-0.7,2.2-1
		c1.4,0.1,2.6-0.4,3.8-0.9c7.9-3,15.8-5.9,23.7-8.9c0.6-0.2,1.1-0.6,1.5-1c0.8-0.2,1.6-0.4,2.3-0.7c7.9-2.9,15.8-5.9,23.7-8.8
		c0.8-0.3,1.5-0.7,2.5-0.6c0,6.5,0,13.1,0,19.6C172.7,97,172.5,97.6,172.4,98.2z"/>
	<path class="st5" d="M258.8,98.3c0,2.3,0,4.6,0,6.8c0,0.6-0.1,1.3-0.2,1.9c-0.1,0.9-1,0.7-1.7,0.8c-1.8-0.3-3.4-0.9-5-1.5
		c-5.3-1.9-10.4-4-15.5-5.9c-5.5-2.1-11.2-3.8-16.6-6c-6-2.4-12.2-4.7-18.3-7.1c-9.3-3.7-18.8-7.1-28.2-10.8
		c-0.2-0.1-0.4-0.1-0.6-0.2c0,0,0-0.1,0-0.1c-1.1-2-0.8-4-0.6-6c0.1-0.7-0.1-1.4-0.2-2.1c-0.3-1.7-0.2-1.8,1.9-2.1
		c0.4,0.1,0.8,0.1,1.1,0.3c8.1,3,16.2,5.9,24.2,9c1,0.4,2,0.9,3.2,1c0.5,0.7,1.4,1,2.2,1.3c10.3,3.7,20.5,7.5,30.5,11.6
		c1.7,0.7,3.4,1.3,5.2,1.6c0.3,0.4,0.8,0.6,1.3,0.8c3.2,1.3,6.3,2.5,9.5,3.8c0.7,0.3,1.4,0.4,2.2,0.4
		C255.2,96.6,257,97.5,258.8,98.3z"/>
	<path class="st4" d="M172.7,76.2c0,0,0,0.1,0,0.1c0,0.1,0,0.2,0,0.4c-0.9-0.1-1.7,0.3-2.5,0.6c-7.9,2.9-15.8,5.9-23.7,8.8
		c-0.8,0.3-1.6,0.5-2.3,0.7c-0.5-0.8-0.7-1.7-0.7-2.6c-0.1-2.5,0.1-5.1-0.3-7.6c4.2-1.7,8.4-3.3,12.6-4.9c0.9-0.3,1.7-0.7,2.7-0.6
		c4.3,1.5,8.6,3.1,12.8,4.8C171.7,76,172.2,76.2,172.7,76.2z"/>
	<path class="st6" d="M215.9,59.8c0,0.2,0,0.4,0,0.5c-1.1,0.1-2.2,0.4-3.2,0.8c-2.8,1.1-5.5,2.1-8.3,3.2c-0.5,0.2-1,0.4-1.3,0.8
		c-1.8,0.1-3.4-0.3-5-0.9c-3.1-1.1-6.2-2.3-9.3-3.5c-0.4-0.1-0.8-0.3-1.1-0.6c0.2-0.3,0.5-0.4,0.8-0.5c4.3-1.7,8.5-3.4,12.9-4.9
		c1.1,0.1,2,0.5,3,0.9c3.3,1.4,6.9,2.5,10.3,3.8C215.1,59.7,215.5,59.7,215.9,59.8z"/>
	<path class="st1" d="M86.2,87c0.2-0.1,0.4-0.2,0.6-0.3c2.4-0.3,4.4-1.3,6.5-2.1c6.6-2.5,13.3-5.1,19.9-7.7c0.4-0.2,0.8-0.4,1.3-0.4
		c0.2,0.3,0.3,0.6,0.5,1c-0.7-0.1-1.3,0.1-1.9,0.3c-1.2,0.5-2.3,1-3.5,1.4c-7.4,2.9-15.1,5.3-22.4,8.3c-1.1,0.4-1.3,0.8-0.7,1.6
		c0.4,0.5,0.3,0.9-0.1,1.3c-0.7,0.6-0.6,1.3-0.5,2c0.2,1,0.5,2,0.4,3.1c-0.1,0.6,0.4,0.9,1.1,1.1c0.4,0.1,0.8,0.2,1.1,0.3
		c-0.3,0.4-0.8,0.5-1.2,0.7c-12.8,4.9-25.6,9.8-38.5,14.6c-5.3,2-10.6,3.9-15.9,5.8c-0.4,0.1-0.7,0.2-1.1,0.4
		c-0.1-0.8,0.4-1.1,1.3-1.4c2.9-0.9,5.7-1.9,8.5-3c1.2-0.5,2.3-1,3.5-1.4c2-0.7,4-1.5,5.9-2.2c0.4-0.1,0.8-0.3,0.6-0.7
		c-0.1-0.4-0.5-0.6-0.9-0.6c-0.8,0-1.5-0.2-2.2-0.2c-5.8,0-11.7,0-17.5,0c-0.9,0-1.7,0.1-2.3,0.8c-0.3,0-0.7,0.1-1-0.2
		c0-0.1,0-0.2,0.1-0.3c0.1,0,0.1,0,0.2-0.1c2.5-0.5,4.9-1.2,6.9-2.6c0.1,0,0.2-0.1,0.3-0.1c0.3,0,0.5-0.1,0.8-0.1
		c3.2-0.8,5.8-2.4,9-3.3c0.2-0.1,0.4-0.3,0.5-0.5l0,0c2.4-0.4,4.6-1.1,6.4-2.5c0.1,0,0.2,0,0.2-0.1c1.1,0.3,1.7-0.5,2.5-0.7
		c5.1-1.7,10-3.7,15.1-5.6c1.7-0.6,3.4-1.2,4.8-2.2l0,0C78.9,90.4,82.7,89.1,86.2,87z"/>
	<path class="st0" d="M115.1,77.5c-0.2-0.3-0.3-0.6-0.5-1c2.7-1.2,5.4-2.2,8.2-3.3c1.5-0.1,2.9-0.5,3.8-1.5c2.1-0.8,4.1-1.6,6.2-2.3
		c1,0.1,1.7-0.2,2.2-0.9c0.4-0.1,0.8-0.3,1.2-0.4c1.9-0.1,3.5-0.7,4.9-1.8c0.4-0.2,0.7-0.3,1.1-0.5c1.1,0.2,2-0.4,3.1-0.3
		c0.5,0.6,1.3,0.9,2,1.2c2.8,1.3,5.9,2.1,8.8,3.3c0.8,0.3,1.6,0.4,2.4,0.4c0,0.2,0,0.3-0.1,0.5c-1-0.1-1.9,0.3-2.7,0.6
		c-4.2,1.6-8.4,3.3-12.6,4.9c-1.5,0.3-2.8,0.9-4.2,1.4c-7,2.6-13.9,5.3-20.9,8c-0.9,0.3-1.7,0.7-2.7,0.7c-0.5-0.3-0.3-0.7-0.3-1.1
		c0.3-2.4,0.2-4.7,0.2-7.1C115.3,78.2,115.5,77.8,115.1,77.5z"/>
	<path class="st12" d="M142.2,65.3c-3.6,0-7.1,0-10.7,0c-1.7,0-3.4,0.2-5.1,0.2c-2.2,0-4.4-0.5-6.5,0c-0.5,0.1-1-0.1-1.1-0.6
		c-0.1-0.4,0.3-0.6,0.7-0.7c6.4-2.1,12.5-4.6,18.7-7c2.1-0.8,4.3-1.6,6.4-2.4c0.6-0.2,1.2-0.4,1.8-0.4c7.7,0,15.4,0,23.1,0
		c-0.2,0.4-0.7,0.5-1.1,0.7c-4.4,1.9-9.1,3.4-13.6,5.2C150.7,62.1,146.4,63.7,142.2,65.3z"/>
	<path class="st8" d="M142.2,65.3c4.3-1.7,8.5-3.3,12.8-5c4.5-1.8,9.2-3.2,13.6-5.2c0.4-0.2,0.8-0.4,1.1-0.7
		c10.2-3.3,20.1-7.2,30-11.1c0.6,0,1.1,0.1,1.7,0.1c0,0.4,0,0.7,0,1.1c-1.1-0.1-2.2,0-3.2,0.4c-7.5,2.8-14.9,5.6-22.4,8.5
		c-0.9,0.3-1.7,0.7-2.2,1.4c-0.4,0-0.6,0.1-0.8,0.4c-0.9-0.1-1.7,0.1-2.4,0.4c-1.8,0.7-3.6,1.4-5.4,2c-3.9,1.5-7.8,2.9-11.7,4.4
		c-2.7,1.1-5.6,1.9-7.9,3.5c-1.1-0.1-2,0.5-3.1,0.3C142.2,65.7,142.2,65.5,142.2,65.3z"/>
	<path class="st8" d="M141.1,66.3c-1.3,1.1-2.9,1.7-4.9,1.8C137.2,66.6,139.1,66.3,141.1,66.3z"/>
	<path class="st8" d="M126.6,71.8c-1,1-2.3,1.4-3.8,1.5C123.5,71.9,125,71.7,126.6,71.8z"/>
	<path class="st8" d="M135,68.6c-0.5,0.7-1.2,1-2.2,0.9C133,68.3,134.1,68.6,135,68.6z"/>
	<path class="st1" d="M115.4,86.7c0,0.6-0.8,0.7-1,1.1c-4.6,1.3-8.9,3.2-13.4,4.8c-3.7,1.3-7.3,2.7-11,4c-0.4,0.1-0.8,0.3-1.2,0.3
		c-0.4-0.1-0.8-0.2-1.1-0.3c-0.6-0.2-1.1-0.5-1.1-1.1c0.1-1-0.2-2.1-0.4-3.1c-0.2-0.7-0.2-1.4,0.5-2c0.4-0.4,0.5-0.8,0.1-1.3
		c-0.6-0.8-0.4-1.2,0.7-1.6c7.3-3.1,15-5.4,22.4-8.3c1.2-0.5,2.3-1,3.5-1.4c0.6-0.2,1.2-0.3,1.9-0.3c0.4,0.3,0.2,0.7,0.2,1
		c0,2.4,0.1,4.7-0.2,7.1C115,86,114.9,86.4,115.4,86.7z"/>
	<path class="st1" d="M28.9,109.7c0.6-0.6,1.4-0.8,2.3-0.8c5.8,0,11.7,0,17.5,0c0.8,0,1.5,0.2,2.2,0.2c0.5,0,0.8,0.2,0.9,0.6
		c0.1,0.4-0.3,0.5-0.6,0.7c-2,0.8-3.9,1.6-5.9,2.2c-1.2,0.4-2.4,0.9-3.5,1.4c-2.8,1.1-5.6,2.2-8.5,3c-0.9,0.3-1.4,0.6-1.3,1.4
		c-0.8,0.7-1.9,0.5-2.9,0.7c-0.5-1.2-0.2-2.4-0.3-3.7C28.9,113.5,28.9,111.6,28.9,109.7z"/>
	<path class="st0" d="M157.6,103.4c-3.7-1.8-7.7-2.9-11.5-4.5c-1.6-0.7-3.2-0.3-4.7,0.2c-4.3,1.5-8.5,3.1-12.8,4.7
		c-2.3,0.8-4.5,1.7-6.8,2.5c-0.5,0.2-1,0.3-1.6,0.3c0-0.8,0.8-1.2,1.5-1.4c3.4-1.1,6.8-2.3,10-3.8c2.3-1,5-1.5,7.3-2.5
		c3.1-1.4,5-3.3,4.9-6.2c0-0.6,0.2-1.1,0.6-1.5c0.4-0.6,0.4-1-0.1-1.6c-0.3-0.3-0.6-0.7-0.3-1.1c0.3-0.5,0.9-0.5,1.5-0.5
		c2.5,0,4.6,0.7,6.5,2c2.6,1.8,5.6,1.8,8.7,0.9c2.9-0.8,5.7-1.8,8.1-3.4c0.4-0.3,1-0.3,1.5-0.1c0.6,0.3,1.1,0.7,1.1,1.4
		c0,2.5,0,5.1,0,7.6c0,0.7,0.1,1.3,0.3,2C167.1,100.3,162.5,102.2,157.6,103.4z"/>
	<path class="st10" d="M74.8,91.4c-1.4,1-3.1,1.6-4.8,2.2c-5,1.8-9.9,3.9-15.1,5.6c-0.8,0.3-1.4,1-2.5,0.7c0-0.5,0.6-0.7,1-0.9
		c2.8-1.4,5.9-2.5,8.8-3.6c3-1.1,6-2.3,9-3.4C72.3,91.6,73.5,91.3,74.8,91.4z"/>
	<path class="st10" d="M86.2,87c-3.5,2-7.4,3.4-11.5,4.4c-0.1-0.6,0.4-0.8,1-1c1.5-0.6,3-1.1,4.5-1.7c0.7-0.3,1.4-0.5,1.8-1
		C83.4,87.5,84.7,86.9,86.2,87z"/>
	<path class="st10" d="M45.7,102.4c-0.2,0.2-0.3,0.4-0.5,0.5c-3.1,0.8-5.8,2.5-9,3.3c-0.3,0.1-0.5,0.1-0.8,0.1
		c-0.1-0.5,0.2-0.8,0.8-1.1c1.6-0.6,3.2-1.2,4.8-1.9c0.4-0.2,0.9-0.2,1.4-0.2c0.5,0,0.9,0,1.2-0.4C44.2,102.2,45,102.5,45.7,102.4z"
		/>
	<path class="st10" d="M22.5,111.2c-2.4,1.5-5.1,2.5-8.1,3.1c-0.1-0.3,0.1-0.6,0.4-0.8C17.1,112.2,19.5,111.1,22.5,111.2z"/>
	<path class="st10" d="M35.1,106.5c-2,1.4-4.4,2.1-6.9,2.6c0.2-0.5,0.5-0.9,1.1-1.2C31.1,107.1,32.9,106.3,35.1,106.5z"/>
	<path class="st10" d="M52.2,100c-1.8,1.3-4.1,2-6.4,2.5c0.1-0.5,0.4-0.9,0.9-1.1C48.3,100.6,50.1,99.8,52.2,100z"/>
	<path class="st10" d="M28,109.1c0,0.1,0,0.2-0.1,0.3c-1.6,0.7-3.1,1.4-5,1.5c0.6-1.6,2.4-1.6,4-1.9C27.3,109.1,27.6,109.1,28,109.1
		z"/>
	<path class="st12" d="M258.8,98.3c-1.8-0.8-3.7-1.7-5.5-2.5c0-0.5-0.4-0.6-0.9-0.8c-2.4-1.2-5.1-2.1-7.7-3
		c-1.4-0.5-2.7-1.4-4.4-1.1c-1.9-0.2-3.6-0.9-5.2-1.6c-10.1-4.1-20.3-7.9-30.5-11.6c-0.8-0.3-1.7-0.6-2.2-1.3
		c0.5-0.2,1.1-0.2,1.6-0.2c8.1,0,16.3-0.1,24.4,0.2c3.6,1,6.9,2.4,10.3,3.7c18.5,7,37,14.1,55.6,21.1c5.8,2.2,11.6,4.3,17.4,6.6
		c1.5,0.6,3.1,1.1,4.6,1.6c-1.5,0.5-3,0.2-4.4,0.1c-2.2-0.1-4.4-0.5-6.7-0.4c-4.7,0.2-9.5,0-14.2,0.1c-0.8,0-1.6-0.3-2.5-0.2
		c-1.8-0.2-3.3-0.9-4.9-1.5c-5.9-2.1-11.6-4.5-17.4-6.8c-1.9-0.8-3.9-1.4-5.9-2.1C259.8,98.4,259.3,98.2,258.8,98.3z"/>
	<path class="st3" d="M228.4,76.4c-8.1-0.3-16.3-0.1-24.4-0.2c-0.6,0-1.1,0-1.6,0.2c-1.1-0.2-2.2-0.6-3.2-1c-8-3.1-16.1-6-24.2-9
		c-0.4-0.1-0.8-0.2-1.1-0.3c0.1-0.5,0.6-0.5,1.1-0.6c1.7-0.2,3.4-0.2,5.1-0.2c4.5,0,9,0.1,13.6,0c4.7-0.2,8.9,0.7,13,2.4
		c6.7,2.7,13.6,5.2,20.4,7.8C227.5,75.7,228.1,75.9,228.4,76.4z"/>
	<path class="st1" d="M173.4,54.9c0.5-0.7,1.4-1,2.2-1.4c7.5-2.8,14.9-5.7,22.4-8.5c1-0.4,2.1-0.5,3.2-0.4c0.1,3.2,0.2,6.5,0.3,9.7
		c0,0.2,0,0.4,0,0.6c-4.4,1.4-8.7,3.2-12.9,4.9c-0.3,0.1-0.7,0.2-0.8,0.5c-0.6,0-1.3,0-1.9-0.3C181.8,58.2,177.6,56.6,173.4,54.9z"
		/>
	<path class="st1" d="M145.3,65.6c2.3-1.6,5.2-2.4,7.9-3.5c3.9-1.5,7.8-2.9,11.7-4.4c1.8-0.7,3.6-1.4,5.4-2c0.8-0.3,1.6-0.5,2.4-0.4
		c0,2.9,0,5.8,0,8.7c0,0.9-0.4,1.5-1.5,1.9c-3.9,1.5-7.6,3.2-11.7,4.3c-0.3,0.1-0.7,0.2-1,0.2c-0.8,0-1.7-0.1-2.4-0.4
		c-2.9-1.2-6-2-8.8-3.3C146.5,66.4,145.8,66.1,145.3,65.6z"/>
	<path class="st5" d="M271.3,80c1.1-0.7,2.4-1,3.8-0.9c0.3,0,0.9-0.2,0.9,0.3c0,0.4-0.5,0.5-0.8,0.6c-1.1,0.3-2.3,0.2-3.4,0.3
		C271.6,80.1,271.5,80.1,271.3,80z"/>
	<path class="st5" d="M278.7,82.7c0.9-0.5,1.8-0.5,2.8-0.2c0.4,0.1,0.8,0.3,0.8,0.8c-0.1,0.4-0.5,0.4-0.9,0.4
		C280.3,83.7,279.4,83.5,278.7,82.7z"/>
	<path class="st8" d="M23.4,122c0.1,0.6-0.2,1-0.9,1.2c-4.3,1.4-8.3,3.3-12.7,4.5c-0.6,0.2-1.2,0.3-1.9,0.2c0.1-0.4,0.5-0.6,1-0.8
		c4.2-1.6,8.4-3.3,12.7-4.8C22.2,122.2,22.8,122,23.4,122z"/>
	<path class="st12" d="M201.5,54.8c-0.1-3.3-0.6-6.9-0.7-10.2c0-0.4,0-0.8,0-1.1c0.6,0.1,1.2,0.1,1.8,0.2c1.3,0.7,7.7,3.3,10,4.1
		c1.1,0.4,2.2,0.9,3.1,1.6c-3,1.8-6.5,2.8-10,3.9C204.2,53.7,203,54.4,201.5,54.8z"/>
	<path class="st12" d="M240.3,90.9c1.7-0.3,3,0.6,4.4,1.1c2.6,0.9,5.3,1.7,7.7,3c0.4,0.2,0.8,0.4,0.9,0.8c-0.8,0.1-1.5-0.1-2.2-0.4
		c-3.2-1.3-6.3-2.5-9.5-3.8C241.2,91.4,240.6,91.3,240.3,90.9z"/>
	<polygon class="st6" points="0.2,87.6 0.2,75.8 200.6,0.1 198.9,11.9 	"/>
	<polygon class="st6" points="0.2,120.4 0.1,107.2 111.1,65.2 112.2,77.9 	"/>
	<polygon class="st3" points="111.2,78.4 111.1,65.1 222.1,23.2 223.2,35.8 	"/>
	<polygon class="st1" points="0.3,99.1 121.1,52.9 97.8,51 0.2,87.7 	"/>
	<polygon class="st0" points="97.8,51 121.1,52.9 256.7,0.3 229.8,0.1 	"/>
	<path class="st1" d="M114.5,87.2c1.1-0.5,2.7-1,3.6-1.3c7-2.7,23.6-9,25.1-9.4c0.3,2.5,0.8,9.6,1,10.5c-0.4,0.5-0.9,0.6-1.6,0.8
		c-7.9,3-15.8,6-23.7,8.9c-1.2,0.5-2.8,1.1-4.1,1.5C114.4,95.7,114.5,87.8,114.5,87.2z"/>
	<polygon class="st0" points="114.5,87.2 114.9,77 145.3,65.6 158.8,70.7 	"/>
	<polygon class="st4" points="228.7,65.2 287.8,43 318.7,42.9 262,65.4 	"/>
	<polygon class="st6" points="345.3,109.6 345.2,97.3 260.8,65 228.7,64.8 	"/>
	<polygon class="st5" points="171.1,76.9 171,63.6 266.8,101.3 266.1,112.8 	"/>
	<path class="st0" d="M230,44.1"/>
	<polyline class="st0" points="215.5,49.4 231.5,43.2 229.6,64.8 228.8,65.5 201.5,54.8 	"/>
	<polygon class="st1" points="202.4,43.8 215.4,49.4 231.5,43.2 	"/>
	<polygon class="st4" points="231.5,43.3 218.5,37.6 202.4,43.9 	"/>
	<polygon class="st0" points="146.2,65.2 161.3,70.1 114.1,88.2 114.4,77.3 	"/>
	<polygon class="st0" points="345.4,130.9 287,108.8 316,108.7 345,119.4 	"/>
	<polygon class="st1" points="0,130.5 34.5,116.8 68,116.1 31.1,130.7 	"/>
	<path class="st12" d="M169.7,11.8c-0.3,0.3-0.9,0.5-1.4,0.7c-6.2,2.1-12.2,4.6-18.2,6.9c-11.4,4.3-22.8,8.5-34.2,12.7
		c-0.5-0.4-0.5-1-0.5-1.5c0-2.2,0-4.3,0-6.5c0-0.7-0.1-1.3-0.5-1.9c0.5-0.6,1.3-0.9,2.1-1.2c17.6-6.5,52.5-19.9,52.5-19.9l3.2-1"/>
	<path class="st1" d="M229.4,130.6c9,0,18,0,27,0c0.4,0,0.9,0,1.3,0c-0.1-0.5-0.7-0.6-1.1-0.7c-0.7-0.2-1.5-0.4-2.2-0.7
		c-5.9-2.2-11.7-4.4-17.5-6.6c-9.1-3.5-18.1-6.9-27.2-10.4c-6.2-2.4-12.5-4.8-18.8-7.1c-1.2-0.4-2.6-0.7-3.4-1.7
		c-4.9-1.2-9.5-3.1-13.9-5.2c-0.3,0-0.6,0-0.9,0c0,1.8-0.1,3.6,0,5.4c0,1.6-0.2,3.1-0.3,4.7c0.3,0.8,1.1,1,1.9,1.3
		c9,3.4,18,6.8,27.1,10.3C210.6,123.5,220,127.1,229.4,130.6z"/>
	<path class="st12" d="M172.6,98.2c0.3,0,0.6,0,0.9,0c0.1-0.7,0.3-1.3,0.3-2c0-2.5,0-5.1,0-7.6c0-0.7,0.5-1.1,1.1-1.4
		c0.4-0.2,1-0.2,1.5,0.1c2.4,1.6,5.2,2.6,8.1,3.4c3.1,0.9,6,0.9,8.7-0.9c1.9-1.3,4-2,6.5-2c0.6,0,1.2,0,1.5,0.5
		c0.3,0.4,0,0.8-0.3,1.1c-0.5,0.5-0.5,1-0.1,1.6c0.4,0.5,0.6,0.9,0.6,1.5c-0.1,2.9,1.8,4.9,4.9,6.2c2.3,1,5,1.5,7.3,2.5
		c3.2,1.5,6.6,2.7,10,3.8c0.8,0.2,1.5,0.6,1.5,1.4c0.8,0.5,1.7,0.9,2.7,1.3c2.7,1,5.4,1.9,8.1,2.9c3,1.1,5.6,2.6,8.5,3.7
		c7.3,2.7,14.6,5.5,22,8.2c3.8,1.4,7.6,2.8,11.3,4.3c2.9,1.1,6.1,1.9,8.7,3.6c8.9,0,16.8,0,25.7,0c0.7,0,1.4,0,2.2,0
		c0.4,0,0.8,0,0.9-0.3c0.1-0.4-0.3-0.5-0.6-0.6c-4.9-1.6-9.6-3.5-14.3-5.3c-22.6-8.6-72.6-27.1-73.8-27.6c-7.9-3-15.8-5.9-23.7-8.9
		c-0.6-0.2-19.7-7.6-27.6-10.6c-0.8-0.3-1.5-0.7-2.5-0.6c0,6.5,0,13.1,0,19.6C172.3,97,172.5,97.6,172.6,98.2z"/>
	<path class="st12" d="M187.4,103.4c3.7-1.8,7.7-2.9,11.5-4.5c1.6-0.7,3.2-0.3,4.7,0.2c4.3,1.5,8.5,3.1,12.8,4.7
		c2.3,0.8,4.5,1.7,6.8,2.5c0.5,0.2,1,0.3,1.6,0.3c0-0.8-0.8-1.2-1.5-1.4c-3.4-1.1-6.8-2.3-10-3.8c-2.3-1-5-1.5-7.3-2.5
		c-3.1-1.4-5-3.3-4.9-6.2c0-0.6-0.2-1.1-0.6-1.5c-0.4-0.6-0.4-1,0.1-1.6c0.3-0.3,0.6-0.7,0.3-1.1c-0.3-0.5-0.9-0.5-1.5-0.5
		c-2.5,0-4.6,0.7-6.5,2c-2.6,1.8-5.6,1.8-8.7,0.9c-2.9-0.8-5.7-1.8-8.1-3.4c-0.4-0.3-1-0.3-1.5-0.1c-0.6,0.3-1.1,0.7-1.1,1.4
		c0,2.5,0,5.1,0,7.6c0,0.7-0.1,1.3-0.3,2C177.9,100.3,182.5,102.2,187.4,103.4z"/>
	<polygon class="st0" points="287.5,130.4 200.7,97.3 184,102.8 257.8,130.6 	"/>
</g>
</svg>
