<?xml version="1.0" encoding="utf-8"?>
<!-- Generator: Adobe Illustrator 19.2.1, SVG Export Plug-In . SVG Version: 6.00 Build 0)  -->
<svg version="1.1" id="Layer_1" xmlns="http://www.w3.org/2000/svg" xmlns:xlink="http://www.w3.org/1999/xlink" x="0px" y="0px"
	 viewBox="0 0 341.8 171.3" style="enable-background:new 0 0 341.8 171.3;" xml:space="preserve">
<style type="text/css">
	.st0{fill-rule:evenodd;clip-rule:evenodd;fill:#247E76;}
	.st1{fill-rule:evenodd;clip-rule:evenodd;fill:#124843;}
	.st2{fill-rule:evenodd;clip-rule:evenodd;fill:#207069;}
	.st3{fill-rule:evenodd;clip-rule:evenodd;fill:#031917;}
	.st4{fill-rule:evenodd;clip-rule:evenodd;fill:#072B29;}
	.st5{fill-rule:evenodd;clip-rule:evenodd;fill:#165752;}
	.st6{fill-rule:evenodd;clip-rule:evenodd;fill:#39B8AD;}
	.st7{fill-rule:evenodd;clip-rule:evenodd;fill:#13514C;}
	.st8{fill-rule:evenodd;clip-rule:evenodd;fill:#2A8D86;}
	.st9{fill-rule:evenodd;clip-rule:evenodd;fill:#1A625C;}
	.st10{fill-rule:evenodd;clip-rule:evenodd;fill:#0C3B37;}
	.st11{fill-rule:evenodd;clip-rule:evenodd;fill:#000202;}
	.st12{fill-rule:evenodd;clip-rule:evenodd;fill:#44D9CC;}
</style>
<g>
	<g>
		<path class="st0" d="M70.4,33.8c1.5,1,3,1.9,4.6,2.9c0,1,0,2-0.1,2.9c-0.8,6-1.4,12-2.5,17.9c-0.3,1.7,0.4,3.6-1.1,5.2
			c-0.2-0.2-0.4-0.4-0.5-0.6c-4.9-8.6-9.7-17.3-14.6-25.9c-2.5-4.6-5-9.1-7.5-13.7c0.3,0.1,0.6,0.1,0.8,0.2c5,2.7,9.9,5.4,14.9,8.1
			C66.2,31.9,67.8,33.3,70.4,33.8z"/>
		<path class="st1" d="M70.4,33.8c-2.5-0.5-4.1-2-6.1-3c-5-2.6-9.9-5.4-14.9-8.1c-0.2-0.1-0.5-0.1-0.8-0.2l0,0
			c-0.2-0.1-0.4-0.2-0.5-0.3c-0.1,0-0.2,0-0.3,0C47.5,22.2,47.2,22,47,22c-6.9-0.3-13.7-0.5-20.6-0.8c0.7-0.5,1.5-0.3,2.3-0.3
			c7.2-0.1,14.4-0.2,21.6-0.2c0.4,0,0.8,0,1.1-0.1c0.1,0,0.1,0,0.2,0c-0.1,0.4,0.5,0.6,0.8,0.8c5.6,3.8,11.3,7.6,16.9,11.4
			C69.7,33.2,70.3,33.4,70.4,33.8z"/>
		<path class="st2" d="M73.2,93.4c0,0.1,0,0.2,0,0.3c-0.3,0.1-0.3,0.2,0,0.3l0,0c0,1.2-0.1,2.4,0.1,3.5c0.9,5.7,1.9,11.4,2.4,17.1
			c-0.9,0.4-1.2,0-1.4-0.5c-0.2-0.1-0.3-0.2-0.5-0.3l0,0c-0.2-0.1-0.3-0.2-0.5-0.3l0,0c-1.7-2-4.1-3.6-6.2-5.4
			c-3.9-3.3-7.8-6.5-11.9-9.7c-2.3-1.8-4.2-3.9-6.9-5.4C48,92.9,48,92.7,48,92.5c3,0.2,6,0.3,9.1,0.5c5,0.2,9.9,0.3,14.9,0.5
			c0.3,0,0.6,0,0.8,0C73,93.4,73.1,93.4,73.2,93.4z"/>
		<path class="st3" d="M72.8,93.4c-0.3,0-0.6,0-0.8,0c0.1-0.6-0.4-0.9-0.9-1.3c-5.9-4.4-11.7-8.7-17.6-13.1c-0.7-0.5-1.2-1-1.3-1.7
			c3.2,0.3,6.5,0.7,9.8,1c3.2,0.3,6.3,1,9.5,0.9c0.2,0,0.5,0.1,0.7,0.1C72.4,84,72.6,88.7,72.8,93.4z"/>
		<path class="st0" d="M72.2,79.3c-0.2,0-0.5-0.1-0.7-0.1c0-0.2-0.1-0.4-0.1-0.6c0.3,0,0.6,0,0.8,0l0.1,0.1l0,0.1
			C72.2,79,72.2,79.2,72.2,79.3z"/>
		<path class="st3" d="M75.4,131.8c0,0.1,0.1,0.2,0.1,0.3c-0.8,4-1.5,8.1-2.3,12.1c-0.1,0.2-0.2,0.4-0.3,0.6l0,0
			c-7.1-3.3-14.3-6.7-21.4-10c0-0.2-0.1-0.4-0.1-0.5c-0.3-4.8-0.6-9.7-0.9-14.5c0.2-1.8,0.5-3.6,0.6-5.3c0.4-4,1.3-7.9,1.4-11.9
			c0.3,0.2,0.6,0.3,0.9,0.5c0.7,1.9,2.4,3.5,3.7,5.2c4.8,6.6,9.7,13.2,14.7,19.7C72.8,129.2,73.3,130.9,75.4,131.8L75.4,131.8z"/>
		<path class="st4" d="M73.3,94.1c-0.3-0.1-0.3-0.2,0-0.3C73.2,93.9,73.3,94,73.3,94.1z"/>
		<path class="st5" d="M51.5,134.8c7.1,3.3,14.3,6.7,21.4,10c0.1,4.2-1,8.4-0.8,12.7c-5.6,1.6-11.1,3.1-16.7,4.7
			c-0.8,0.2-1.6,0.4-2.5,0.4c-0.3-0.1-0.6-0.2-0.9-0.2c0.2,0,0.4-0.1,0.6-0.1c0.4-0.2,0.4-0.5,0.4-0.8c-0.2-2.7-0.1-5.4-0.4-8.1
			C52,147.2,51.9,141,51.5,134.8z"/>
		<path class="st6" d="M52.5,60.2c3.5,0.2,6.6,1.2,10,1.8c2.6,0.4,5.1,1,7.7,1.5c0.4,0.1,0.8,0.3,1.2-0.1c0.1,0,0.3,0.1,0.4,0.1
			c-0.3,4.6,0.4,9.2,0.4,13.7c0,0.5,0,0.9,0,1.4c-0.3,0-0.6,0-0.8,0c-0.7-0.7-1.4-1.3-2.1-2C63.7,71.2,58.1,65.7,52.5,60.2z"/>
		<path class="st7" d="M48.1,22.6c1.1,10.1,2.2,20.3,3.2,30.4c0.2,2.2,0.4,4.4,0.6,6.6c-1.8-0.4-2.5-1.6-3.8-2.5
			c-6.8-4.6-13.6-9.2-20.3-13.8c-0.3-0.2-0.6-0.3-0.9-0.4c0-0.1-0.1-0.2-0.1-0.3c0-0.2,0-0.4,0.1-0.7c3.1-3,6.3-6,9.4-9
			c3.8-3.6,7.5-7.1,11.3-10.7c0.1,0,0.2,0,0.3,0C48,22.4,48.1,22.5,48.1,22.6z"/>
		<path class="st8" d="M47.7,22.3c-3.8,3.6-7.5,7.1-11.3,10.7c-3.2,3-6.3,6-9.4,9c-0.6-0.3-0.4-0.7-0.5-1.1c-0.3-2.5-0.7-5.1-1-7.6
			c-0.6-4-1.2-8-1.8-12c0.9,0,1.8,0,2.7,0c6.9,0.2,13.7,0.5,20.6,0.8C47.2,22,47.5,22.2,47.7,22.3z"/>
		<path class="st0" d="M48.1,22.6c0-0.1-0.1-0.2-0.1-0.4c0.2,0.1,0.4,0.2,0.5,0.3C48.4,22.6,48.3,22.6,48.1,22.6z"/>
		<path class="st5" d="M76.2,114.8c-0.7,5.7-0.4,11.3-0.8,17c-2.1-0.9-2.6-2.6-3.7-4c-5-6.5-9.9-13.1-14.7-19.7
			c-1.3-1.7-3-3.3-3.7-5.2c0.5,0,0.9,0.3,1.3,0.5c3.8,2.2,7.6,4.4,11.5,6.4c2.4,1.3,4.4,3,7.3,3.7l0,0c0.2,0.1,0.3,0.2,0.5,0.3l0,0
			c0.2,0.1,0.3,0.2,0.5,0.3c0.2,0.5,0.5,0.9,1.4,0.5C75.9,114.7,76,114.7,76.2,114.8z"/>
		<path class="st4" d="M52.1,77.3c0.1,0.7,0.7,1.2,1.3,1.7c5.9,4.4,11.7,8.7,17.6,13.1c0.5,0.4,1,0.8,0.9,1.3
			c-5-0.2-10-0.3-14.9-0.5c-3-0.1-6-0.3-9.1-0.5c0-0.1,0-0.2,0-0.3c1.2-5,2.2-10.1,3-15.1c0.1,0,0.2-0.1,0.3-0.1
			C51.5,77.1,51.8,77.2,52.1,77.3z"/>
		<path class="st9" d="M48.4,93.1c0.5,1.9,1.7,3.7,2.5,5.5c0.3,0.7,0.8,1.4,0.8,2.2c-0.3-0.2-0.7-0.4-0.9-0.6
			C45.1,94,39.4,87.8,33.9,81.6c-1.4-1.6-3.5-3-3.9-5c0.8,0.3,1.2,0.9,1.8,1.3c1,0.7,1.4,1.9,3,2.1c-0.1,0.6,0.4,0.9,0.9,1.3
			c1.2,1,2.3,2.1,3.5,3.1c3,2.6,5.6,5.3,8.8,7.7c0,0.1,0,0.2,0,0.3C48,92.7,48,92.9,48.4,93.1z"/>
		<path class="st8" d="M73.9,113.9c-0.2-0.1-0.3-0.2-0.5-0.3C73.6,113.7,73.7,113.8,73.9,113.9z"/>
		<path class="st8" d="M74.3,114.2c-0.2-0.1-0.3-0.2-0.5-0.3C74,114,74.2,114.1,74.3,114.2z"/>
		<path class="st10" d="M52.1,77.3c-0.3-0.1-0.6-0.2-0.9-0.3c0.1-3.8,0.1-7.5,0.5-11.3c0.2-1.8-0.2-3.7,0.7-5.4l0.1,0
			c5.6,5.5,11.2,11,16.7,16.4c0.7,0.7,1.4,1.3,2.1,2c0,0.2,0.1,0.4,0.1,0.6c-3.3,0.1-6.4-0.6-9.5-0.9C58.6,78,55.4,77.6,52.1,77.3z"
			/>
		<path class="st9" d="M52.4,102c0,0.1,0,0.3,0,0.4c-0.1,4-1,7.9-1.4,11.9c-0.2,1.8-0.4,3.6-0.6,5.3c-0.1,0-0.3,0-0.4,0
			c-2.6-3.3-5.1-6.5-7.8-9.8c-5.5-6.8-11-13.6-16.6-20.3c0-0.1,0-0.2,0-0.2c0.5,0.1,1.2,0.2,1.6,0.4c5.8,2.8,11.5,5.7,17.3,8.5
			C47.2,99.5,49.5,101.1,52.4,102z"/>
		<path class="st1" d="M50,119.7c0.1,0,0.3,0,0.4,0c0.3,4.8,0.6,9.7,0.9,14.5c-1.5-0.4-2-1.4-2.9-2.1c-5.4-4.6-10.7-9.1-16-13.7
			c-1.8-1.5-3.4-3.1-5.2-4.7c4,0.7,7.6,2.1,11.5,3C42.5,117.7,46.1,119.1,50,119.7z"/>
		<path class="st3" d="M27,133.6c0,0.3,0.1,0.6,0.1,0.8c-0.2,4.7,1,9.4,0.9,14.1c0,2.1,0.5,4.1,0.5,6.1c0,0.3,0.2,0.8-0.4,0.9
			c-0.5,0.1-0.7-0.2-1.1-0.4c-0.9-0.4-1.9-0.8-2.4-1.5c-1.1-1.8-3.2-2.9-5-4.3c-4.8-3.5-9.7-6.9-14.3-10.5c0-0.1,0-0.2,0-0.3
			c0.5-0.1,1-0.1,1.5-0.2c4.9-1.2,9.9-2.4,14.8-3.6c1.3-0.3,2.9-0.3,3.7-1.3C25.9,133.6,26.5,133.6,27,133.6z"/>
		<path class="st2" d="M4.8,130.4c0.2-0.1,0.3-0.2,0.5-0.3c3.4-2.7,6.9-5.4,10.4-8.2c3.5-2.7,6.9-5.4,10.4-8.2c0.3,0,0.6,0,0.8,0
			c0.1,6.6,0.1,13.2,0.2,19.9c-0.6,0-1.1,0-1.7,0c-0.3-0.1-0.6-0.3-0.9-0.3c-6.5-0.9-13-1.7-19.6-2.6C4.8,130.6,4.8,130.5,4.8,130.4
			z"/>
		<path class="st10" d="M4.8,130.7c6.5,0.9,13.1,1.7,19.6,2.6c0.3,0,0.6,0.2,0.9,0.3c-0.8,1.1-2.4,1-3.7,1.3
			c-4.9,1.2-9.9,2.4-14.8,3.6c-0.5,0.1-1,0.2-1.5,0.2C4.6,136,4.9,133.4,4.8,130.7z"/>
		<path class="st4" d="M3.5,130c0.2,0,0.3,0,0.5,0C3.8,130.2,3.7,130.3,3.5,130z"/>
		<path class="st0" d="M2.4,61.7C1.6,50.8,0.9,39.9,0.2,29c0.3,0.3,0.6,0.6,0.9,0.9c0.1,0,0.2,0.1,0.4,0.1c0,0.6,0.6,1.2,1,1.7
			c5.7,7,11.5,13.9,17.3,20.9c1.3,1.6,2.7,3.2,4,4.8c0.8-2.2,1.1-4.2,1.6-6.3c0.6-2.7,0.6-5.5,1.7-8.2c0.3,0.1,0.6,0.3,0.9,0.4
			c6.8,4.6,13.6,9.2,20.3,13.8c1.2,0.8,1.9,2.1,3.8,2.5c0.2,0.2,0.3,0.4,0.5,0.6c-1,1.8-0.5,3.6-0.7,5.4c-0.4,3.7-0.3,7.5-0.5,11.3
			C51.1,77,51.1,77,51,77c-0.1,0-0.1-0.1-0.2-0.1c-0.9-0.7-1.8-1.4-2.8-2.1c-2.5-1.8-5.1-3.5-7.5-5.3c-5.3-3.9-10.7-7.7-16.3-11.4
			c-0.4-0.4-0.9-0.1-1.3-0.1C16,59.3,9.2,60.5,2.4,61.7z"/>
		<path class="st2" d="M23.7,21c0,0.1,0,0.2,0,0.3c0.6,4,1.2,8,1.8,12c0.4,2.5,0.7,5.1,1,7.6c0.1,0.4-0.1,0.8,0.5,1.1
			c0,0.2,0,0.4-0.1,0.7C18.6,38.4,10.3,34.1,2,29.8c0.2-0.2,0.5-0.4,0.8-0.5c4-1.6,8-3.1,11.9-4.7c2.8-1.2,6-2,8.5-3.6
			C23.4,21,23.5,21,23.7,21z"/>
		<path class="st0" d="M47.9,92.2c-3.2-2.4-5.9-5.1-8.8-7.7c-1.2-1-2.3-2.1-3.5-3.1c-0.5-0.4-1-0.8-0.9-1.3c0.5-0.2,1-0.3,1.6-0.4
			c4.8-0.9,9.6-1.8,14.4-2.7c0.1,0,0.1,0.1,0.2,0.1C50.2,82.1,49.1,87.1,47.9,92.2z"/>
		<path class="st9" d="M3.3,89.8c0-4.2,0-8.3,0.1-12.5c0.1-3.7,0.2-7.4,0.2-11.1c0-0.5,0.2-1.1-0.4-1.6c-0.2-0.7-0.5-1.4-0.7-2.2
			c0.5,0,0.9,0.3,1.3,0.5c3.7,3.3,8.8,5.2,14.1,6.8c2.3,0.7,4.5,1.6,6.7,2.4c0.5,0.2,0.9,0.3,0.9,0.8c-2.6,2-5.1,4-7.8,6
			C12.9,82.5,8.4,86.4,3.3,89.8z"/>
		<path class="st2" d="M25.5,72.9c0-0.4-0.5-0.6-0.9-0.8c-2.2-0.8-4.4-1.7-6.7-2.4C12.6,68,7.5,66.2,3.8,62.9
			c-0.3-0.3-0.7-0.5-1.3-0.5c-0.1-0.2-0.1-0.4-0.2-0.6c6.8-1.2,13.6-2.4,20.4-3.7c0.5-0.1,0.9-0.4,1.3,0.1c1.1,5.3,2.2,10.7,3.3,16
			c-0.5-0.1-1-0.2-1.4-0.3C25.9,73.5,26.1,73.1,25.5,72.9z"/>
		<path class="st7" d="M25.7,89.6c-0.7,0.5-0.4,1.1-0.4,1.6c-0.2,4.8,0.5,9.6,0.7,14.5c0.1,2,0.3,4.1,0.4,6.1c0,0.6,0.1,1.1-0.4,1.6
			c-7.7,0.9-15.4,1.7-23,2.6c0-0.1,0-0.3,0-0.4c0.1-0.2,0.3-0.4,0.4-0.6c1.6-1.3,2.5-2.9,3.7-4.3c5.8-7.3,11.6-14.6,17.4-21.9
			c0.4,0.2,0.9,0.4,1.3,0.6C25.7,89.4,25.7,89.5,25.7,89.6z"/>
		<path class="st11" d="M0.1,11.9C0,11.8,0,11.8,0,11.7c0.2,0.1,0.3,0.2,0.4,0.2C0.3,11.9,0.2,11.9,0.1,11.9z"/>
		<path class="st12" d="M1.1,29.9c0.1-0.1,0.3-0.2,0.4-0.3c0,0.1,0.1,0.2,0.1,0.3c-0.1,0-0.1,0.1-0.2,0.1C1.3,30,1.2,29.9,1.1,29.9z
			"/>
		<path class="st2" d="M24.4,88.7C18.6,96,12.8,103.3,7,110.6c-1.2,1.5-2,3.1-3.7,4.3c-0.8-0.5-0.5-1.2-0.4-1.7
			c0.2-7.7,0.4-15.3,0.2-23c3.2-0.2,6.3-0.5,9.5-0.7c3.9-0.3,7.9-0.7,11.8-1C24.4,88.5,24.4,88.6,24.4,88.7z"/>
		<path class="st9" d="M29.1,76c0.6,0,0.8,0.2,0.9,0.6C29.4,76.6,29.1,76.4,29.1,76z"/>
		<path class="st9" d="M28.6,75.3c0.4,0.1,0.5,0.3,0.5,0.6C28.7,75.8,28.6,75.6,28.6,75.3z"/>
		<path class="st9" d="M27.7,74.4c0.3,0.2,0.5,0.4,0.5,0.7C27.8,74.9,27.7,74.7,27.7,74.4z"/>
		<path class="st9" d="M28.2,75c0.2,0.1,0.3,0.2,0.5,0.3C28.5,75.2,28.3,75.1,28.2,75z"/>
	</g>
	<g>
		<path class="st0" d="M138.8,22.2c1.5,1,3,1.9,4.6,2.9c0,1,0,2-0.1,2.9c-0.8,6-1.5,12-2.5,17.9c-0.3,1.7,0.4,3.6-1.1,5.2
			c-0.2-0.2-0.4-0.4-0.5-0.6c-4.9-8.6-9.7-17.3-14.6-25.9c-2.5-4.6-5-9.1-7.5-13.7c0.3,0.1,0.6,0.1,0.8,0.2c5,2.7,9.9,5.4,14.9,8.1
			C134.7,20.2,136.3,21.7,138.8,22.2z"/>
		<path class="st1" d="M138.8,22.2c-2.5-0.5-4.1-2-6.1-3c-5-2.6-9.9-5.4-14.9-8.1c-0.2-0.1-0.5-0.1-0.8-0.2l0,0
			c-0.2-0.1-0.4-0.2-0.5-0.3c-0.1,0-0.2,0-0.3,0c-0.2-0.1-0.5-0.3-0.7-0.3c-6.9-0.3-13.7-0.5-20.6-0.8c0.7-0.5,1.5-0.3,2.3-0.3
			c7.2-0.1,14.4-0.2,21.6-0.2c0.4,0,0.8,0,1.1-0.1c0.1,0,0.1,0,0.2,0c-0.1,0.4,0.5,0.6,0.8,0.8c5.6,3.8,11.3,7.6,16.9,11.4
			C138.2,21.5,138.7,21.7,138.8,22.2z"/>
		<path class="st2" d="M141.7,81.8c0,0.1,0,0.2,0,0.3c-0.3,0.1-0.3,0.2,0,0.3l0,0c0,1.2-0.1,2.4,0.1,3.5c0.9,5.7,1.9,11.4,2.4,17.1
			c-0.9,0.4-1.2,0-1.4-0.5c-0.2-0.1-0.3-0.2-0.5-0.3l0,0c-0.2-0.1-0.3-0.2-0.5-0.3l0,0c-1.7-2-4.1-3.6-6.2-5.4
			c-3.9-3.3-7.8-6.5-11.9-9.7c-2.3-1.8-4.2-3.9-6.9-5.4c-0.4-0.1-0.4-0.4-0.4-0.6c3,0.2,6,0.3,9.1,0.5c5,0.2,9.9,0.3,14.9,0.5
			c0.3,0,0.6,0,0.8,0C141.4,81.8,141.5,81.8,141.7,81.8z"/>
		<path class="st3" d="M141.2,81.8c-0.3,0-0.6,0-0.8,0c0.1-0.6-0.4-0.9-0.9-1.3c-5.9-4.4-11.7-8.7-17.6-13.1c-0.7-0.5-1.2-1-1.3-1.7
			c3.2,0.3,6.5,0.7,9.8,1c3.2,0.3,6.3,1,9.5,0.9c0.2,0,0.5,0.1,0.7,0.1C140.8,72.4,141,77.1,141.2,81.8z"/>
		<path class="st0" d="M140.6,67.7c-0.2,0-0.5-0.1-0.7-0.1c0-0.2-0.1-0.4-0.1-0.6c0.3,0,0.6,0,0.8,0l0.1,0.1l0,0.1
			C140.7,67.4,140.6,67.5,140.6,67.7z"/>
		<path class="st3" d="M143.8,120.1c0,0.1,0.1,0.2,0.1,0.3c-0.8,4-1.5,8.1-2.3,12.1c-0.1,0.2-0.2,0.4-0.3,0.6l0,0
			c-7.1-3.3-14.3-6.7-21.4-10c0-0.2-0.1-0.4-0.1-0.5c-0.3-4.8-0.6-9.7-0.9-14.5c0.2-1.8,0.5-3.6,0.6-5.3c0.4-4,1.3-7.9,1.4-11.9
			c0.3,0.2,0.6,0.3,0.9,0.5c0.7,1.9,2.4,3.5,3.7,5.2c4.8,6.6,9.7,13.2,14.7,19.7C141.2,117.5,141.7,119.2,143.8,120.1L143.8,120.1z"
			/>
		<path class="st4" d="M141.7,82.4c-0.3-0.1-0.3-0.2,0-0.3C141.7,82.2,141.7,82.3,141.7,82.4z"/>
		<path class="st5" d="M119.9,123.1c7.1,3.3,14.3,6.7,21.4,10c0.1,4.2-1,8.4-0.8,12.7c-5.6,1.6-11.1,3.1-16.7,4.7
			c-0.8,0.2-1.6,0.4-2.5,0.4c-0.3-0.1-0.6-0.2-0.9-0.2c0.2,0,0.4-0.1,0.6-0.1c0.4-0.2,0.4-0.5,0.4-0.8c-0.2-2.7-0.1-5.4-0.4-8.1
			C120.4,135.5,120.3,129.3,119.9,123.1z"/>
		<path class="st6" d="M121,48.6c3.5,0.2,6.6,1.2,10,1.8c2.6,0.4,5.1,1,7.7,1.5c0.4,0.1,0.8,0.3,1.2-0.1c0.1,0,0.3,0.1,0.4,0.1
			c-0.3,4.6,0.4,9.2,0.4,13.7c0,0.5,0,0.9,0,1.4c-0.3,0-0.6,0-0.8,0c-0.7-0.7-1.4-1.3-2.1-2C132.1,59.5,126.5,54.1,121,48.6z"/>
		<path class="st7" d="M116.6,11c1.1,10.1,2.2,20.3,3.2,30.4c0.2,2.2,0.4,4.4,0.6,6.6c-1.8-0.4-2.5-1.6-3.8-2.5
			c-6.8-4.6-13.6-9.2-20.3-13.8c-0.3-0.2-0.6-0.3-0.9-0.4c0-0.1-0.1-0.2-0.1-0.3c0-0.2,0-0.4,0.1-0.7c3.1-3,6.3-6,9.4-9
			c3.8-3.6,7.5-7.1,11.3-10.7c0.1,0,0.2,0,0.3,0C116.5,10.7,116.5,10.8,116.6,11z"/>
		<path class="st8" d="M116.2,10.6c-3.8,3.6-7.5,7.1-11.3,10.7c-3.2,3-6.3,6-9.4,9c-0.6-0.3-0.4-0.7-0.5-1.1c-0.3-2.5-0.7-5.1-1-7.6
			c-0.6-4-1.2-8-1.8-12c0.9,0,1.8,0,2.7,0c6.9,0.2,13.7,0.5,20.6,0.8C115.7,10.4,115.9,10.5,116.2,10.6z"/>
		<path class="st0" d="M116.6,11c0-0.1-0.1-0.2-0.1-0.4c0.2,0.1,0.4,0.2,0.5,0.3C116.9,10.9,116.7,11,116.6,11z"/>
		<path class="st5" d="M144.6,103.1c-0.7,5.7-0.4,11.3-0.8,17c-2.1-0.9-2.6-2.6-3.7-4c-5-6.5-9.9-13.1-14.7-19.7
			c-1.3-1.7-3-3.3-3.7-5.2c0.5,0,0.9,0.3,1.3,0.5c3.8,2.2,7.6,4.4,11.5,6.4c2.4,1.3,4.4,3,7.3,3.7l0,0c0.2,0.1,0.3,0.2,0.5,0.3l0,0
			c0.2,0.1,0.3,0.2,0.5,0.3c0.2,0.5,0.5,0.9,1.4,0.5C144.3,103.1,144.5,103.1,144.6,103.1z"/>
		<path class="st4" d="M120.6,65.6c0.1,0.7,0.7,1.2,1.3,1.7c5.9,4.4,11.7,8.7,17.6,13.1c0.5,0.4,1,0.8,0.9,1.3
			c-5-0.2-10-0.3-14.9-0.5c-3-0.1-6-0.3-9.1-0.5c0-0.1,0-0.2,0-0.3c1.2-5,2.2-10.1,3-15.1c0.1,0,0.2-0.1,0.3-0.1
			C120,65.4,120.3,65.5,120.6,65.6z"/>
		<path class="st9" d="M116.8,81.4c0.5,1.9,1.7,3.7,2.5,5.5c0.3,0.7,0.8,1.4,0.8,2.2c-0.3-0.2-0.7-0.4-0.9-0.6
			c-5.6-6.2-11.3-12.4-16.8-18.6c-1.4-1.6-3.5-3-3.9-5c0.8,0.3,1.2,0.9,1.8,1.3c1,0.7,1.4,1.9,3,2.1c-0.1,0.6,0.4,0.9,0.9,1.3
			c1.2,1,2.3,2.1,3.5,3.1c3,2.6,5.6,5.3,8.8,7.7c0,0.1,0,0.2,0,0.3C116.4,81.1,116.5,81.3,116.8,81.4z"/>
		<path class="st8" d="M142.3,102.2c-0.2-0.1-0.3-0.2-0.5-0.3C142,102,142.2,102.1,142.3,102.2z"/>
		<path class="st8" d="M142.8,102.5c-0.2-0.1-0.3-0.2-0.5-0.3C142.5,102.3,142.6,102.4,142.8,102.5z"/>
		<path class="st10" d="M120.6,65.6c-0.3-0.1-0.6-0.2-0.9-0.3c0.1-3.8,0.1-7.5,0.5-11.3c0.2-1.8-0.2-3.7,0.7-5.4l0.1,0
			c5.6,5.5,11.2,11,16.7,16.4c0.7,0.7,1.4,1.3,2.1,2c0,0.2,0.1,0.4,0.1,0.6c-3.3,0.1-6.4-0.6-9.5-0.9
			C127.1,66.3,123.8,66,120.6,65.6z"/>
		<path class="st9" d="M120.9,90.4c0,0.1,0,0.3,0,0.4c-0.1,4-1,7.9-1.4,11.9c-0.2,1.8-0.4,3.6-0.6,5.3c-0.1,0-0.3,0-0.4,0
			c-2.6-3.3-5.1-6.5-7.8-9.8c-5.5-6.8-11-13.6-16.6-20.3c0-0.1,0-0.2,0-0.2c0.5,0.1,1.2,0.2,1.6,0.4c5.8,2.8,11.5,5.7,17.3,8.5
			C115.7,87.9,118,89.4,120.9,90.4z"/>
		<path class="st1" d="M118.5,108c0.1,0,0.3,0,0.4,0c0.3,4.8,0.6,9.7,0.9,14.5c-1.5-0.4-2-1.4-2.9-2.1c-5.4-4.6-10.7-9.1-16-13.7
			c-1.8-1.5-3.4-3.1-5.2-4.7c4,0.7,7.6,2.1,11.5,3C111,106,114.5,107.4,118.5,108z"/>
		<path class="st3" d="M95.5,121.9c0,0.3,0.1,0.6,0.1,0.8c-0.2,4.7,1,9.4,0.9,14.1c0,2.1,0.5,4.1,0.5,6.1c0,0.3,0.2,0.8-0.4,0.9
			c-0.5,0.1-0.7-0.2-1.1-0.4c-0.9-0.4-1.9-0.8-2.4-1.5c-1.1-1.8-3.2-2.9-5-4.3c-4.8-3.5-9.7-6.9-14.3-10.5c0-0.1,0-0.2,0-0.3
			c0.5-0.1,1-0.1,1.5-0.2c4.9-1.2,9.9-2.4,14.8-3.6c1.3-0.3,2.9-0.3,3.7-1.3C94.3,121.9,94.9,121.9,95.5,121.9z"/>
		<path class="st2" d="M73.2,118.8c0.2-0.1,0.3-0.2,0.5-0.3c3.5-2.7,6.9-5.4,10.4-8.2c3.5-2.7,6.9-5.4,10.4-8.2c0.3,0,0.6,0,0.8,0
			c0.1,6.6,0.1,13.2,0.2,19.9c-0.6,0-1.1,0-1.7,0c-0.3-0.1-0.6-0.3-0.9-0.3c-6.5-0.9-13-1.7-19.6-2.6
			C73.2,118.9,73.2,118.8,73.2,118.8z"/>
		<path class="st10" d="M73.2,119c6.5,0.9,13.1,1.7,19.6,2.6c0.3,0,0.6,0.2,0.9,0.3c-0.8,1.1-2.4,1-3.7,1.3
			c-4.9,1.2-9.9,2.4-14.8,3.6c-0.5,0.1-1,0.2-1.5,0.2C73,124.4,73.3,121.7,73.2,119z"/>
		<path class="st4" d="M71.9,118.4c0.2,0,0.3,0,0.5,0C72.3,118.6,72.1,118.7,71.9,118.4z"/>
		<path class="st0" d="M70.8,50.1c-0.7-10.9-1.4-21.8-2.1-32.8c0.3,0.3,0.6,0.6,0.9,0.9c0.1,0,0.2,0.1,0.4,0.1c0,0.6,0.6,1.2,1,1.7
			c5.7,7,11.5,13.9,17.3,20.9c1.3,1.6,2.7,3.2,4,4.8c0.8-2.2,1.1-4.2,1.6-6.3c0.6-2.7,0.6-5.5,1.7-8.2c0.3,0.1,0.6,0.3,0.9,0.4
			c6.8,4.6,13.6,9.2,20.3,13.8c1.2,0.8,1.9,2.1,3.8,2.5c0.2,0.2,0.3,0.4,0.5,0.6c-1,1.8-0.5,3.6-0.7,5.4c-0.4,3.7-0.3,7.5-0.5,11.3
			c-0.1,0-0.2,0.1-0.3,0.1c-0.1,0-0.1-0.1-0.2-0.1c-0.9-0.7-1.8-1.4-2.8-2.1c-2.5-1.8-5.1-3.5-7.5-5.3c-5.3-3.9-10.7-7.7-16.3-11.4
			c-0.4-0.4-0.9-0.1-1.3-0.1C84.4,47.6,77.6,48.9,70.8,50.1z"/>
		<path class="st2" d="M92.1,9.3c0,0.1,0,0.2,0,0.3c0.6,4,1.2,8,1.8,12c0.4,2.5,0.7,5.1,1,7.6c0.1,0.4-0.1,0.8,0.5,1.1
			c0,0.2,0,0.4-0.1,0.7c-8.3-4.3-16.6-8.6-24.9-12.8c0.2-0.2,0.5-0.4,0.8-0.5c4-1.6,8-3,11.9-4.7c2.8-1.2,6-2,8.5-3.6
			C91.8,9.3,92,9.3,92.1,9.3z"/>
		<path class="st0" d="M116.4,80.5c-3.2-2.4-5.9-5.1-8.8-7.7c-1.2-1-2.3-2.1-3.5-3.1c-0.5-0.4-1-0.8-0.9-1.3c0.5-0.2,1-0.3,1.6-0.4
			c4.8-0.9,9.6-1.8,14.4-2.7c0.1,0,0.1,0.1,0.2,0.1C118.6,70.4,117.6,75.5,116.4,80.5z"/>
		<path class="st9" d="M71.7,78.1c0-4.2,0-8.3,0.1-12.5c0.1-3.7,0.2-7.4,0.2-11.1c0-0.5,0.2-1.1-0.4-1.6c-0.2-0.7-0.5-1.4-0.7-2.2
			c0.5,0,0.9,0.3,1.3,0.5C76,54.5,81,56.4,86.3,58c2.3,0.7,4.5,1.6,6.7,2.4c0.5,0.2,0.9,0.3,0.9,0.8c-2.6,2-5.1,4-7.8,6
			C81.3,70.8,76.9,74.7,71.7,78.1z"/>
		<path class="st2" d="M94,61.2c0-0.4-0.5-0.6-0.9-0.8c-2.2-0.8-4.4-1.7-6.7-2.4C81,56.4,76,54.5,72.2,51.2
			c-0.3-0.3-0.7-0.5-1.3-0.5c-0.1-0.2-0.1-0.4-0.2-0.6c6.8-1.2,13.6-2.4,20.4-3.7c0.5-0.1,0.9-0.4,1.3,0.1c1.1,5.3,2.2,10.7,3.3,16
			c-0.5-0.1-1-0.2-1.4-0.3C94.4,61.8,94.5,61.4,94,61.2z"/>
		<path class="st7" d="M94.1,77.9c-0.7,0.5-0.4,1.1-0.4,1.6c-0.2,4.8,0.5,9.6,0.7,14.5c0.1,2,0.3,4.1,0.4,6.1c0,0.6,0.1,1.1-0.4,1.6
			c-7.7,0.9-15.4,1.7-23,2.6c0-0.1,0-0.3,0-0.4c0.1-0.2,0.3-0.4,0.4-0.6c1.6-1.3,2.5-2.9,3.7-4.3C81.2,91.6,87,84.3,92.8,77
			c0.4,0.2,0.9,0.4,1.3,0.6C94.1,77.8,94.1,77.8,94.1,77.9z"/>
		<path class="st11" d="M68.6,0.3c-0.1-0.1-0.1-0.2-0.1-0.3c0.1,0.1,0.3,0.2,0.4,0.2C68.8,0.3,68.7,0.3,68.6,0.3z"/>
		<path class="st12" d="M69.5,18.3c0.1-0.1,0.3-0.2,0.4-0.3c0,0.1,0.1,0.2,0.1,0.3c-0.1,0-0.1,0.1-0.2,0.1
			C69.8,18.3,69.6,18.3,69.5,18.3z"/>
		<path class="st2" d="M92.8,77C87,84.3,81.2,91.6,75.4,98.9c-1.2,1.5-2,3.1-3.7,4.3c-0.8-0.5-0.5-1.2-0.4-1.7
			c0.2-7.7,0.4-15.3,0.2-23c3.2-0.2,6.3-0.5,9.5-0.7c3.9-0.3,7.9-0.7,11.8-1C92.8,76.9,92.8,76.9,92.8,77z"/>
		<path class="st9" d="M97.5,64.3c0.6,0,0.8,0.2,0.9,0.6C97.8,64.9,97.5,64.7,97.5,64.3z"/>
		<path class="st9" d="M97.1,63.7c0.4,0.1,0.5,0.3,0.5,0.6C97.1,64.2,97.1,64,97.1,63.7z"/>
		<path class="st9" d="M96.2,62.7c0.3,0.2,0.5,0.4,0.5,0.7C96.2,63.3,96.2,63,96.2,62.7z"/>
		<path class="st9" d="M96.6,63.4c0.2,0.1,0.3,0.2,0.5,0.3C96.9,63.6,96.8,63.5,96.6,63.4z"/>
	</g>
	<g>
		<path class="st0" d="M204.6,42.5c1.5,1,3,1.9,4.6,2.9c0,1,0,2-0.1,2.9c-0.8,6-1.5,12-2.5,17.9c-0.3,1.7,0.4,3.6-1.1,5.2
			c-0.2-0.2-0.4-0.4-0.5-0.6c-4.9-8.6-9.7-17.3-14.6-25.9c-2.5-4.6-5-9.1-7.5-13.7c0.3,0.1,0.6,0.1,0.8,0.2c5,2.7,9.9,5.4,14.9,8.1
			C200.5,40.6,202.1,42,204.6,42.5z"/>
		<path class="st1" d="M204.6,42.5c-2.5-0.5-4.1-2-6.1-3c-5-2.6-9.9-5.4-14.9-8.1c-0.2-0.1-0.5-0.1-0.8-0.2l0,0
			c-0.2-0.1-0.4-0.2-0.5-0.3c-0.1,0-0.2,0-0.3,0c-0.2-0.1-0.5-0.3-0.7-0.3c-6.9-0.3-13.7-0.5-20.6-0.8c0.7-0.5,1.5-0.3,2.3-0.3
			c7.2-0.1,14.4-0.2,21.6-0.2c0.4,0,0.8,0,1.1-0.1c0.1,0,0.1,0,0.2,0c-0.1,0.4,0.5,0.6,0.8,0.8c5.6,3.8,11.3,7.6,16.9,11.4
			C204,41.9,204.5,42.1,204.6,42.5z"/>
		<path class="st2" d="M207.5,102.1c0,0.1,0,0.2,0,0.3c-0.3,0.1-0.3,0.2,0,0.3l0,0c0,1.2-0.1,2.4,0.1,3.5c0.9,5.7,1.9,11.4,2.4,17.1
			c-0.9,0.4-1.2,0-1.4-0.5c-0.2-0.1-0.3-0.2-0.5-0.3l0,0c-0.2-0.1-0.3-0.2-0.5-0.3l0,0c-1.7-2-4.1-3.6-6.2-5.4
			c-3.9-3.3-7.8-6.5-11.9-9.7c-2.3-1.8-4.2-3.9-6.9-5.4c-0.4-0.1-0.4-0.4-0.4-0.6c3,0.2,6,0.3,9.1,0.5c5,0.2,10,0.3,14.9,0.5
			c0.3,0,0.6,0,0.8,0C207.2,102.1,207.4,102.1,207.5,102.1z"/>
		<path class="st3" d="M207.1,102.1c-0.3,0-0.6,0-0.8,0c0.1-0.6-0.4-0.9-0.9-1.3c-5.9-4.4-11.7-8.7-17.6-13.1
			c-0.7-0.5-1.2-1-1.3-1.7c3.2,0.3,6.5,0.7,9.8,1c3.2,0.3,6.3,1,9.5,0.9c0.2,0,0.5,0.1,0.7,0.1C206.6,92.7,206.8,97.4,207.1,102.1z"
			/>
		<path class="st0" d="M206.4,88c-0.2,0-0.5-0.1-0.7-0.1c0-0.2-0.1-0.4-0.1-0.6c0.3,0,0.6,0,0.8,0l0.1,0.1l0,0.1
			C206.5,87.7,206.4,87.9,206.4,88z"/>
		<path class="st3" d="M209.6,140.5c0,0.1,0.1,0.2,0.1,0.3c-0.8,4-1.5,8.1-2.3,12.1c-0.1,0.2-0.2,0.4-0.3,0.6l0,0
			c-7.1-3.3-14.3-6.7-21.4-10c0-0.2-0.1-0.4-0.1-0.5c-0.3-4.8-0.6-9.7-0.9-14.5c0.2-1.8,0.5-3.6,0.6-5.3c0.4-4,1.3-7.9,1.4-11.9
			c0.3,0.2,0.6,0.3,0.9,0.5c0.7,1.9,2.4,3.5,3.7,5.2c4.8,6.6,9.7,13.2,14.7,19.7C207.1,137.9,207.6,139.6,209.6,140.5L209.6,140.5z"
			/>
		<path class="st4" d="M207.5,102.8c-0.3-0.1-0.3-0.2,0-0.3C207.5,102.6,207.5,102.7,207.5,102.8z"/>
		<path class="st5" d="M185.8,143.5c7.1,3.3,14.3,6.7,21.4,10c0.1,4.2-1,8.4-0.8,12.7c-5.6,1.6-11.1,3.1-16.7,4.7
			c-0.8,0.2-1.6,0.4-2.5,0.4c-0.3-0.1-0.6-0.2-0.9-0.2c0.2,0,0.4-0.1,0.6-0.1c0.4-0.2,0.4-0.5,0.4-0.8c-0.2-2.7-0.1-5.4-0.4-8.1
			C186.2,155.9,186.1,149.6,185.8,143.5z"/>
		<path class="st6" d="M186.8,68.9c3.5,0.2,6.6,1.2,10,1.8c2.6,0.4,5.1,1,7.7,1.5c0.4,0.1,0.8,0.3,1.2-0.1c0.1,0,0.3,0.1,0.4,0.1
			c-0.3,4.6,0.4,9.2,0.4,13.7c0,0.5,0,0.9,0,1.4c-0.3,0-0.6,0-0.8,0c-0.7-0.7-1.4-1.3-2.1-2C197.9,79.9,192.4,74.4,186.8,68.9z"/>
		<path class="st7" d="M182.4,31.3c1.1,10.1,2.2,20.3,3.2,30.4c0.2,2.2,0.4,4.4,0.6,6.6c-1.8-0.4-2.5-1.6-3.8-2.5
			c-6.8-4.6-13.6-9.2-20.3-13.8c-0.3-0.2-0.6-0.3-0.9-0.4c0-0.1-0.1-0.2-0.1-0.3c0-0.2,0-0.4,0.1-0.7c3.1-3,6.3-6,9.4-9
			c3.8-3.6,7.5-7.1,11.3-10.7c0.1,0,0.2,0,0.3,0C182.3,31.1,182.4,31.2,182.4,31.3z"/>
		<path class="st8" d="M182,31c-3.8,3.6-7.5,7.1-11.3,10.7c-3.2,3-6.3,6-9.4,9c-0.6-0.3-0.4-0.7-0.5-1.1c-0.3-2.5-0.7-5.1-1-7.6
			c-0.6-4-1.2-8-1.8-12c0.9,0,1.8,0,2.7,0c6.9,0.2,13.7,0.5,20.6,0.8C181.5,30.7,181.7,30.9,182,31z"/>
		<path class="st0" d="M182.4,31.3c0-0.1-0.1-0.2-0.1-0.4c0.2,0.1,0.4,0.2,0.5,0.3C182.7,31.3,182.5,31.3,182.4,31.3z"/>
		<path class="st5" d="M210.4,123.4c-0.7,5.7-0.4,11.3-0.8,17c-2.1-0.9-2.6-2.6-3.7-4c-5-6.5-9.9-13.1-14.7-19.7
			c-1.3-1.7-3-3.3-3.7-5.2c0.5,0,0.9,0.3,1.3,0.5c3.8,2.2,7.6,4.4,11.5,6.4c2.4,1.3,4.4,3,7.3,3.7l0,0c0.2,0.1,0.3,0.2,0.5,0.3l0,0
			c0.2,0.1,0.3,0.2,0.5,0.3c0.2,0.5,0.5,0.9,1.4,0.5C210.1,123.4,210.3,123.4,210.4,123.4z"/>
		<path class="st4" d="M186.4,86c0.1,0.7,0.7,1.2,1.3,1.7c5.9,4.4,11.7,8.7,17.6,13.1c0.5,0.4,1,0.8,0.9,1.3c-5-0.2-10-0.3-14.9-0.5
			c-3-0.1-6-0.3-9.1-0.5c0-0.1,0-0.2,0-0.3c1.2-5,2.2-10.1,3-15.1c0.1,0,0.2-0.1,0.3-0.1C185.8,85.8,186.1,85.9,186.4,86z"/>
		<path class="st9" d="M182.6,101.8c0.5,1.9,1.7,3.7,2.5,5.5c0.3,0.7,0.8,1.4,0.8,2.2c-0.3-0.2-0.7-0.4-0.9-0.6
			c-5.6-6.2-11.3-12.4-16.8-18.6c-1.4-1.6-3.5-3-3.9-5c0.8,0.3,1.2,0.9,1.8,1.3c1,0.7,1.4,1.9,3,2.1c-0.1,0.6,0.4,0.9,0.9,1.3
			c1.2,1,2.3,2.1,3.5,3.1c3,2.6,5.6,5.3,8.8,7.7c0,0.1,0,0.2,0,0.3C182.2,101.4,182.3,101.6,182.6,101.8z"/>
		<path class="st8" d="M208.2,122.6c-0.2-0.1-0.3-0.2-0.5-0.3C207.9,122.3,208,122.4,208.2,122.6z"/>
		<path class="st8" d="M208.6,122.9c-0.2-0.1-0.3-0.2-0.5-0.3C208.3,122.7,208.5,122.8,208.6,122.9z"/>
		<path class="st10" d="M186.4,86c-0.3-0.1-0.6-0.2-0.9-0.3c0.1-3.8,0.1-7.5,0.5-11.3c0.2-1.8-0.2-3.7,0.7-5.4l0.1,0
			c5.6,5.5,11.2,11,16.7,16.4c0.7,0.7,1.4,1.3,2.1,2c0,0.2,0.1,0.4,0.1,0.6c-3.3,0.1-6.4-0.6-9.5-0.9
			C192.9,86.7,189.7,86.3,186.4,86z"/>
		<path class="st9" d="M186.7,110.7c0,0.1,0,0.3,0,0.4c-0.1,4-1,7.9-1.4,11.9c-0.2,1.8-0.4,3.6-0.6,5.3c-0.1,0-0.3,0-0.4,0
			c-2.6-3.3-5.1-6.5-7.8-9.8c-5.5-6.8-11-13.6-16.6-20.3c0-0.1,0-0.2,0-0.2c0.5,0.1,1.2,0.2,1.6,0.4c5.8,2.8,11.5,5.7,17.3,8.5
			C181.5,108.2,183.8,109.8,186.7,110.7z"/>
		<path class="st1" d="M184.3,128.4c0.1,0,0.3,0,0.4,0c0.3,4.8,0.6,9.7,0.9,14.5c-1.5-0.4-2-1.4-2.9-2.1c-5.4-4.6-10.7-9.1-16-13.7
			c-1.8-1.5-3.4-3.1-5.2-4.7c4,0.7,7.6,2.1,11.5,3C176.8,126.4,180.3,127.8,184.3,128.4z"/>
		<path class="st3" d="M161.3,142.3c0,0.3,0.1,0.6,0.1,0.8c-0.2,4.7,1,9.4,0.9,14.1c0,2.1,0.5,4.1,0.5,6.1c0,0.3,0.2,0.8-0.4,0.9
			c-0.5,0.1-0.7-0.2-1.1-0.4c-0.9-0.4-1.9-0.8-2.4-1.5c-1.1-1.8-3.2-2.9-5-4.3c-4.8-3.5-9.7-6.9-14.3-10.5c0-0.1,0-0.2,0-0.3
			c0.5-0.1,1-0.1,1.5-0.2c4.9-1.2,9.9-2.3,14.8-3.6c1.3-0.3,2.9-0.2,3.7-1.3C160.1,142.3,160.7,142.3,161.3,142.3z"/>
		<path class="st2" d="M139,139.1c0.2-0.1,0.3-0.2,0.5-0.3c3.4-2.7,6.9-5.4,10.4-8.2c3.5-2.7,6.9-5.4,10.4-8.2c0.3,0,0.6,0,0.8,0
			c0.1,6.6,0.1,13.2,0.2,19.9c-0.6,0-1.1,0-1.7,0c-0.3-0.1-0.6-0.3-0.9-0.3c-6.5-0.9-13-1.7-19.6-2.6
			C139.1,139.3,139,139.2,139,139.1z"/>
		<path class="st10" d="M139.1,139.4c6.5,0.9,13.1,1.7,19.6,2.6c0.3,0,0.6,0.2,0.9,0.3c-0.8,1.1-2.4,1-3.7,1.3
			c-4.9,1.2-9.9,2.4-14.8,3.6c-0.5,0.1-1,0.2-1.5,0.2C138.8,144.7,139.2,142,139.1,139.4z"/>
		<path class="st4" d="M137.8,138.7c0.2,0,0.3,0,0.5,0C138.1,138.9,137.9,139,137.8,138.7z"/>
		<path class="st0" d="M136.6,70.4c-0.7-10.9-1.4-21.8-2.1-32.8c0.3,0.3,0.6,0.6,0.9,0.9c0.1,0,0.2,0.1,0.4,0.1c0,0.6,0.6,1.2,1,1.7
			c5.7,7,11.5,13.9,17.3,20.9c1.3,1.6,2.7,3.2,4,4.8c0.8-2.2,1.1-4.2,1.6-6.3c0.6-2.7,0.6-5.5,1.7-8.2c0.3,0.1,0.6,0.3,0.9,0.4
			c6.8,4.6,13.6,9.2,20.3,13.8c1.2,0.8,1.9,2.1,3.8,2.5c0.2,0.2,0.3,0.4,0.5,0.6c-1,1.8-0.5,3.6-0.7,5.4c-0.4,3.7-0.3,7.5-0.5,11.3
			c-0.1,0-0.2,0.1-0.3,0.1c-0.1,0-0.1-0.1-0.2-0.1c-0.9-0.7-1.8-1.4-2.8-2.1c-2.5-1.8-5.1-3.5-7.5-5.3c-5.3-3.9-10.7-7.7-16.3-11.4
			c-0.4-0.4-0.9-0.1-1.3-0.1C150.2,68,143.4,69.2,136.6,70.4z"/>
		<path class="st2" d="M157.9,29.7c0,0.1,0,0.2,0,0.3c0.6,4,1.2,8,1.8,12c0.4,2.5,0.7,5.1,1,7.6c0.1,0.4-0.1,0.8,0.5,1.1
			c0,0.2,0,0.4-0.1,0.7c-8.3-4.3-16.6-8.6-24.9-12.8c0.2-0.2,0.5-0.4,0.8-0.5c4-1.6,8-3,11.9-4.7c2.8-1.2,6-2,8.5-3.6
			C157.6,29.7,157.8,29.7,157.9,29.7z"/>
		<path class="st0" d="M182.2,100.8c-3.2-2.4-5.9-5.2-8.8-7.7c-1.2-1-2.3-2.1-3.5-3.1c-0.5-0.4-1-0.8-0.9-1.3c0.5-0.2,1-0.3,1.6-0.4
			c4.8-0.9,9.6-1.8,14.4-2.7c0.1,0,0.1,0.1,0.2,0.1C184.4,90.8,183.4,95.8,182.2,100.8z"/>
		<path class="st9" d="M137.5,98.5c0-4.2,0-8.3,0.1-12.5c0.1-3.7,0.2-7.4,0.2-11.1c0-0.5,0.2-1.1-0.4-1.6c-0.2-0.7-0.5-1.4-0.7-2.2
			c0.5,0,0.9,0.3,1.3,0.5c3.7,3.3,8.8,5.2,14.1,6.8c2.3,0.7,4.5,1.6,6.7,2.4c0.5,0.2,0.9,0.3,0.9,0.8c-2.6,2-5.1,4-7.8,6
			C147.2,91.2,142.7,95.1,137.5,98.5z"/>
		<path class="st2" d="M159.8,81.6c0-0.4-0.5-0.6-0.9-0.8c-2.2-0.8-4.4-1.7-6.7-2.4c-5.3-1.7-10.4-3.5-14.1-6.8
			c-0.3-0.3-0.7-0.5-1.3-0.5c-0.1-0.2-0.1-0.4-0.2-0.6c6.8-1.2,13.6-2.4,20.4-3.7c0.5-0.1,0.9-0.4,1.3,0.1c1.1,5.3,2.2,10.7,3.3,16
			c-0.5-0.1-1-0.2-1.4-0.3C160.2,82.2,160.4,81.8,159.8,81.6z"/>
		<path class="st7" d="M160,98.3c-0.7,0.5-0.4,1.1-0.4,1.6c-0.2,4.8,0.5,9.6,0.7,14.5c0.1,2,0.3,4.1,0.4,6.1c0,0.6,0.1,1.1-0.4,1.6
			c-7.7,0.9-15.4,1.7-23,2.6c0-0.1,0-0.3,0-0.4c0.1-0.2,0.3-0.4,0.4-0.6c1.6-1.3,2.5-2.9,3.7-4.3c5.8-7.3,11.6-14.6,17.4-21.9
			c0.4,0.2,0.9,0.4,1.3,0.6C160,98.1,160,98.2,160,98.3z"/>
		<path class="st11" d="M134.4,20.6c-0.1-0.1-0.1-0.2-0.1-0.3c0.1,0.1,0.3,0.2,0.4,0.2C134.6,20.6,134.5,20.6,134.4,20.6z"/>
		<path class="st12" d="M135.3,38.6c0.1-0.1,0.3-0.2,0.4-0.3c0,0.1,0.1,0.2,0.1,0.3c-0.1,0-0.1,0.1-0.2,0.1
			C135.6,38.7,135.5,38.6,135.3,38.6z"/>
		<path class="st2" d="M158.7,97.4c-5.8,7.3-11.6,14.6-17.4,21.9c-1.2,1.5-2,3.1-3.7,4.3c-0.8-0.5-0.5-1.2-0.4-1.7
			c0.2-7.7,0.4-15.3,0.2-23c3.2-0.2,6.3-0.5,9.5-0.7c3.9-0.3,7.9-0.7,11.8-1C158.7,97.2,158.7,97.3,158.7,97.4z"/>
		<path class="st9" d="M163.3,84.6c0.6,0,0.8,0.2,0.9,0.6C163.6,85.3,163.3,85.1,163.3,84.6z"/>
		<path class="st9" d="M162.9,84c0.4,0.1,0.5,0.3,0.5,0.6C163,84.5,162.9,84.3,162.9,84z"/>
		<path class="st9" d="M162,83.1c0.3,0.2,0.5,0.4,0.5,0.7C162,83.6,162,83.4,162,83.1z"/>
		<path class="st9" d="M162.4,83.7c0.2,0.1,0.3,0.2,0.5,0.3C162.8,83.9,162.6,83.8,162.4,83.7z"/>
	</g>
	<g>
		<path class="st0" d="M272.1,25.9c1.5,1,3,1.9,4.6,2.9c0,1,0,2-0.1,2.9c-0.8,6-1.5,12-2.5,17.9c-0.3,1.7,0.4,3.6-1.1,5.2
			c-0.2-0.2-0.4-0.4-0.5-0.6c-4.9-8.6-9.7-17.3-14.6-25.9c-2.5-4.6-5-9.1-7.5-13.7c0.3,0.1,0.6,0.1,0.8,0.2c5,2.7,9.9,5.4,14.9,8.1
			C268,23.9,269.6,25.4,272.1,25.9z"/>
		<path class="st1" d="M272.1,25.9c-2.5-0.5-4.1-2-6.1-3c-5-2.6-9.9-5.4-14.9-8.1c-0.2-0.1-0.5-0.1-0.8-0.2l0,0
			c-0.2-0.1-0.4-0.2-0.5-0.3c-0.1,0-0.2,0-0.3,0c-0.2-0.1-0.5-0.3-0.7-0.3c-6.9-0.3-13.7-0.5-20.6-0.8c0.7-0.5,1.5-0.3,2.3-0.3
			c7.2-0.1,14.4-0.2,21.6-0.2c0.4,0,0.8,0,1.1-0.1c0.1,0,0.1,0,0.2,0c-0.1,0.4,0.5,0.6,0.8,0.8c5.6,3.8,11.3,7.6,16.9,11.4
			C271.5,25.2,272,25.4,272.1,25.9z"/>
		<path class="st2" d="M275,85.5c0,0.1,0,0.2,0,0.3c-0.3,0.1-0.3,0.2,0,0.3l0,0c0,1.2-0.1,2.4,0.1,3.5c0.9,5.7,1.9,11.4,2.4,17.1
			c-0.9,0.4-1.2,0-1.4-0.5c-0.2-0.1-0.3-0.2-0.5-0.3l0,0c-0.2-0.1-0.3-0.2-0.5-0.3l0,0c-1.7-2-4.1-3.6-6.2-5.4
			c-3.9-3.3-7.8-6.5-11.9-9.7c-2.3-1.8-4.2-3.9-6.9-5.4c-0.4-0.1-0.4-0.4-0.4-0.6c3,0.2,6,0.3,9.1,0.5c5,0.2,9.9,0.3,14.9,0.5
			c0.3,0,0.6,0,0.8,0C274.7,85.5,274.8,85.5,275,85.5z"/>
		<path class="st3" d="M274.5,85.5c-0.3,0-0.6,0-0.8,0c0.1-0.6-0.4-0.9-0.9-1.3c-5.9-4.4-11.7-8.7-17.6-13.1c-0.7-0.5-1.2-1-1.3-1.7
			c3.2,0.3,6.5,0.7,9.8,1c3.2,0.3,6.3,1,9.5,0.9c0.2,0,0.5,0.1,0.7,0.1C274.1,76.1,274.3,80.8,274.5,85.5z"/>
		<path class="st0" d="M273.9,71.4c-0.2,0-0.5-0.1-0.7-0.1c0-0.2-0.1-0.4-0.1-0.6c0.3,0,0.6,0,0.8,0l0.1,0.1l0,0.1
			C273.9,71.1,273.9,71.2,273.9,71.4z"/>
		<path class="st3" d="M277.1,123.8c0,0.1,0.1,0.2,0.1,0.3c-0.8,4-1.5,8.1-2.3,12.1c-0.1,0.2-0.2,0.4-0.3,0.6l0,0
			c-7.1-3.3-14.3-6.7-21.4-10c0-0.2-0.1-0.4-0.1-0.5c-0.3-4.8-0.6-9.7-0.9-14.5c0.2-1.8,0.5-3.6,0.6-5.3c0.4-4,1.3-7.9,1.4-11.9
			c0.3,0.2,0.6,0.3,0.9,0.5c0.7,1.9,2.4,3.5,3.7,5.2c4.8,6.6,9.7,13.2,14.7,19.7C274.5,121.2,275,122.9,277.1,123.8L277.1,123.8z"/>
		<path class="st4" d="M275,86.1c-0.3-0.1-0.3-0.2,0-0.3C275,85.9,275,86,275,86.1z"/>
		<path class="st5" d="M253.2,126.8c7.1,3.3,14.3,6.7,21.4,10c0.1,4.2-1,8.4-0.8,12.7c-5.6,1.6-11.1,3.1-16.7,4.7
			c-0.8,0.2-1.6,0.4-2.5,0.4c-0.3-0.1-0.6-0.2-0.9-0.2c0.2,0,0.4-0.1,0.6-0.1c0.4-0.2,0.4-0.5,0.4-0.8c-0.2-2.7-0.1-5.4-0.4-8.1
			C253.7,139.2,253.6,133,253.2,126.8z"/>
		<path class="st6" d="M254.2,52.3c3.5,0.2,6.6,1.2,10,1.8c2.6,0.4,5.1,1,7.7,1.5c0.4,0.1,0.8,0.3,1.2-0.1c0.1,0,0.3,0.1,0.4,0.1
			c-0.3,4.6,0.4,9.2,0.4,13.7c0,0.5,0,0.9,0,1.4c-0.3,0-0.6,0-0.8,0c-0.7-0.7-1.4-1.3-2.1-2C265.4,63.2,259.8,57.7,254.2,52.3z"/>
		<path class="st7" d="M249.9,14.7c1.1,10.1,2.2,20.3,3.2,30.4c0.2,2.2,0.4,4.4,0.6,6.6c-1.8-0.4-2.5-1.6-3.8-2.5
			c-6.8-4.6-13.6-9.2-20.3-13.8c-0.3-0.2-0.6-0.3-0.9-0.4c0-0.1-0.1-0.2-0.1-0.3c0-0.2,0-0.4,0.1-0.7c3.1-3,6.3-6,9.4-9
			c3.8-3.6,7.5-7.1,11.3-10.7c0.1,0,0.2,0,0.3,0C249.8,14.4,249.8,14.5,249.9,14.7z"/>
		<path class="st8" d="M249.4,14.3c-3.8,3.6-7.5,7.1-11.3,10.7c-3.2,3-6.3,6-9.4,9c-0.6-0.3-0.4-0.7-0.5-1.1c-0.3-2.5-0.7-5.1-1-7.6
			c-0.6-4-1.2-8-1.8-12c0.9,0,1.8,0,2.7,0c6.9,0.2,13.7,0.5,20.6,0.8C248.9,14.1,249.2,14.2,249.4,14.3z"/>
		<path class="st0" d="M249.9,14.7c0-0.1-0.1-0.2-0.1-0.4c0.2,0.1,0.4,0.2,0.5,0.3C250.1,14.6,250,14.6,249.9,14.7z"/>
		<path class="st5" d="M277.9,106.8c-0.7,5.7-0.4,11.3-0.8,17c-2.1-0.9-2.6-2.6-3.7-4c-5-6.5-9.9-13.1-14.7-19.7
			c-1.3-1.7-3-3.3-3.7-5.2c0.5,0,0.9,0.3,1.3,0.5c3.8,2.2,7.6,4.4,11.5,6.4c2.4,1.3,4.4,3,7.3,3.7l0,0c0.2,0.1,0.3,0.2,0.5,0.3l0,0
			c0.2,0.1,0.3,0.2,0.5,0.3c0.2,0.5,0.5,0.9,1.4,0.5C277.6,106.8,277.7,106.8,277.9,106.8z"/>
		<path class="st4" d="M253.9,69.3c0.1,0.7,0.7,1.2,1.3,1.7c5.9,4.4,11.7,8.7,17.6,13.1c0.5,0.4,1,0.8,0.9,1.3
			c-5-0.2-10-0.3-14.9-0.5c-3-0.1-6-0.3-9.1-0.5c0-0.1,0-0.2,0-0.3c1.2-5,2.2-10.1,3-15.1c0.1,0,0.2-0.1,0.3-0.1
			C253.3,69.1,253.6,69.2,253.9,69.3z"/>
		<path class="st9" d="M250.1,85.1c0.5,1.9,1.7,3.7,2.5,5.5c0.3,0.7,0.8,1.4,0.8,2.2c-0.3-0.2-0.7-0.4-0.9-0.6
			c-5.6-6.2-11.3-12.4-16.8-18.6c-1.4-1.6-3.5-3-3.9-5c0.8,0.3,1.2,0.9,1.8,1.3c1,0.7,1.4,1.9,3,2.1c-0.1,0.6,0.4,0.9,0.9,1.3
			c1.2,1,2.3,2.1,3.5,3.1c3,2.6,5.6,5.3,8.8,7.7c0,0.1,0,0.2,0,0.3C249.7,84.7,249.7,85,250.1,85.1z"/>
		<path class="st8" d="M275.6,105.9c-0.2-0.1-0.3-0.2-0.5-0.3C275.3,105.7,275.5,105.8,275.6,105.9z"/>
		<path class="st8" d="M276.1,106.2c-0.2-0.1-0.3-0.2-0.5-0.3C275.8,106,275.9,106.1,276.1,106.2z"/>
		<path class="st10" d="M253.9,69.3c-0.3-0.1-0.6-0.2-0.9-0.3c0.1-3.8,0.1-7.5,0.5-11.3c0.2-1.8-0.2-3.7,0.7-5.4l0.1,0
			c5.6,5.5,11.2,11,16.7,16.4c0.7,0.7,1.4,1.3,2.1,2c0,0.2,0.1,0.4,0.1,0.6c-3.3,0.1-6.4-0.6-9.5-0.9
			C260.4,70,257.1,69.6,253.9,69.3z"/>
		<path class="st9" d="M254.2,94c0,0.1,0,0.3,0,0.4c-0.1,4-1,7.9-1.4,11.9c-0.2,1.8-0.4,3.6-0.6,5.3c-0.1,0-0.3,0-0.4,0
			c-2.6-3.3-5.1-6.5-7.8-9.8c-5.5-6.8-11-13.6-16.6-20.3c0-0.1,0-0.2,0-0.2c0.5,0.1,1.2,0.2,1.6,0.4c5.8,2.8,11.5,5.7,17.3,8.5
			C249,91.5,251.3,93.1,254.2,94z"/>
		<path class="st1" d="M251.7,111.7c0.1,0,0.3,0,0.4,0c0.3,4.8,0.6,9.7,0.9,14.5c-1.5-0.4-2-1.4-2.9-2.1c-5.4-4.6-10.7-9.1-16-13.7
			c-1.8-1.5-3.4-3.1-5.2-4.7c4,0.7,7.6,2.1,11.5,3C244.3,109.7,247.8,111.1,251.7,111.7z"/>
		<path class="st3" d="M228.7,125.6c0,0.3,0.1,0.6,0.1,0.8c-0.2,4.7,1,9.4,0.9,14.1c0,2.1,0.5,4.1,0.5,6.1c0,0.3,0.2,0.8-0.4,0.9
			c-0.5,0.1-0.7-0.2-1.1-0.4c-0.9-0.4-1.9-0.8-2.4-1.5c-1.1-1.8-3.2-2.9-5-4.3c-4.8-3.5-9.7-6.9-14.3-10.5c0-0.1,0-0.2,0-0.3
			c0.5-0.1,1-0.1,1.5-0.2c4.9-1.2,9.9-2.3,14.8-3.6c1.3-0.3,2.9-0.2,3.7-1.3C227.6,125.6,228.2,125.6,228.7,125.6z"/>
		<path class="st2" d="M206.5,122.4c0.2-0.1,0.3-0.2,0.5-0.3c3.4-2.7,6.9-5.4,10.4-8.2c3.5-2.7,6.9-5.4,10.4-8.2c0.3,0,0.6,0,0.8,0
			c0.1,6.6,0.1,13.2,0.2,19.9c-0.6,0-1.1,0-1.7,0c-0.3-0.1-0.6-0.3-0.9-0.3c-6.5-0.9-13-1.7-19.6-2.6
			C206.5,122.6,206.5,122.5,206.5,122.4z"/>
		<path class="st10" d="M206.5,122.7c6.5,0.9,13.1,1.7,19.6,2.6c0.3,0,0.6,0.2,0.9,0.3c-0.8,1.1-2.4,1-3.7,1.3
			c-4.9,1.2-9.9,2.4-14.8,3.6c-0.5,0.1-1,0.2-1.5,0.2C206.3,128.1,206.6,125.4,206.5,122.7z"/>
		<path class="st4" d="M205.2,122.1c0.2,0,0.3,0,0.5,0C205.5,122.3,205.4,122.4,205.2,122.1z"/>
		<path class="st0" d="M204.1,53.8c-0.7-10.9-1.4-21.8-2.1-32.8c0.3,0.3,0.6,0.6,0.9,0.9c0.1,0,0.2,0.1,0.4,0.1c0,0.6,0.6,1.2,1,1.7
			c5.7,7,11.5,13.9,17.3,20.9c1.3,1.6,2.7,3.2,4,4.8c0.8-2.2,1.1-4.2,1.6-6.3c0.6-2.7,0.6-5.5,1.7-8.2c0.3,0.1,0.6,0.3,0.9,0.4
			c6.8,4.6,13.6,9.2,20.3,13.8c1.2,0.8,1.9,2.1,3.8,2.5c0.2,0.2,0.3,0.4,0.5,0.6c-1,1.8-0.5,3.6-0.7,5.4c-0.4,3.7-0.3,7.5-0.5,11.3
			c-0.1,0-0.2,0.1-0.3,0.1c-0.1,0-0.1-0.1-0.2-0.1c-0.9-0.7-1.8-1.4-2.8-2.1c-2.5-1.8-5.1-3.5-7.5-5.3c-5.3-3.9-10.7-7.7-16.3-11.4
			c-0.4-0.4-0.9-0.1-1.3-0.1C217.7,51.3,210.9,52.5,204.1,53.8z"/>
		<path class="st2" d="M225.4,13c0,0.1,0,0.2,0,0.3c0.6,4,1.2,8,1.8,12c0.4,2.5,0.7,5.1,1,7.6c0.1,0.4-0.1,0.8,0.5,1.1
			c0,0.2,0,0.4-0.1,0.7c-8.3-4.3-16.6-8.6-24.9-12.8c0.2-0.2,0.5-0.4,0.8-0.5c4-1.6,8-3,11.9-4.7c2.8-1.2,6-2,8.5-3.6
			C225.1,13,225.2,13,225.4,13z"/>
		<path class="st0" d="M249.7,84.2c-3.2-2.4-5.9-5.2-8.8-7.7c-1.2-1-2.3-2.1-3.5-3.1c-0.5-0.4-1-0.8-0.9-1.3c0.5-0.2,1-0.3,1.6-0.4
			c4.8-0.9,9.6-1.8,14.4-2.7c0.1,0,0.1,0.1,0.2,0.1C251.9,74.1,250.8,79.2,249.7,84.2z"/>
		<path class="st9" d="M205,81.8c0-4.2,0-8.3,0.1-12.5c0.1-3.7,0.2-7.4,0.2-11.1c0-0.5,0.2-1.1-0.4-1.6c-0.2-0.7-0.5-1.4-0.7-2.2
			c0.5,0,0.9,0.3,1.3,0.5c3.7,3.3,8.8,5.2,14.1,6.8c2.3,0.7,4.5,1.6,6.7,2.4c0.5,0.2,0.9,0.3,0.9,0.8c-2.6,2-5.1,4-7.8,6
			C214.6,74.5,210.2,78.4,205,81.8z"/>
		<path class="st2" d="M227.3,64.9c0-0.4-0.5-0.6-0.9-0.8c-2.2-0.8-4.4-1.7-6.7-2.4c-5.3-1.7-10.4-3.5-14.1-6.8
			c-0.3-0.3-0.7-0.5-1.3-0.5c-0.1-0.2-0.1-0.4-0.2-0.6c6.8-1.2,13.6-2.4,20.4-3.7c0.5-0.1,0.9-0.4,1.3,0.1c1.1,5.3,2.2,10.7,3.3,16
			c-0.5-0.1-1-0.2-1.4-0.3C227.7,65.5,227.8,65.1,227.3,64.9z"/>
		<path class="st7" d="M227.4,81.6c-0.7,0.5-0.4,1.1-0.4,1.6c-0.2,4.8,0.5,9.6,0.7,14.5c0.1,2,0.3,4.1,0.4,6.1
			c0,0.6,0.1,1.1-0.4,1.6c-7.7,0.9-15.4,1.7-23,2.6c0-0.1,0-0.3,0-0.4c0.1-0.2,0.3-0.4,0.4-0.6c1.6-1.3,2.5-2.9,3.7-4.3
			c5.8-7.3,11.6-14.6,17.4-21.9c0.4,0.2,0.9,0.4,1.3,0.6C227.4,81.5,227.4,81.5,227.4,81.6z"/>
		<path class="st11" d="M201.8,4c-0.1-0.1-0.1-0.2-0.1-0.3c0.2,0.1,0.3,0.2,0.4,0.2C202.1,4,201.9,4,201.8,4z"/>
		<path class="st12" d="M202.8,21.9c0.1-0.1,0.3-0.2,0.4-0.3c0,0.1,0.1,0.2,0.1,0.3c-0.1,0-0.1,0.1-0.2,0.1
			C203,22,202.9,22,202.8,21.9z"/>
		<path class="st2" d="M226.1,80.7c-5.8,7.3-11.6,14.6-17.4,21.9c-1.2,1.5-2,3.1-3.7,4.3c-0.8-0.5-0.5-1.2-0.4-1.7
			c0.2-7.7,0.4-15.3,0.2-23c3.2-0.2,6.3-0.5,9.5-0.7c3.9-0.3,7.9-0.7,11.8-1C226.1,80.5,226.1,80.6,226.1,80.7z"/>
		<path class="st9" d="M230.8,68c0.6,0,0.8,0.2,0.9,0.6C231.1,68.6,230.8,68.4,230.8,68z"/>
		<path class="st9" d="M230.4,67.4c0.4,0.1,0.5,0.3,0.5,0.6C230.4,67.9,230.3,67.7,230.4,67.4z"/>
		<path class="st9" d="M229.5,66.4c0.3,0.2,0.5,0.4,0.5,0.7C229.5,67,229.5,66.7,229.5,66.4z"/>
		<path class="st9" d="M229.9,67.1c0.2,0.1,0.3,0.2,0.5,0.3C230.2,67.3,230.1,67.2,229.9,67.1z"/>
	</g>
	<g>
		<path class="st0" d="M335.9,36.2c1.5,1,3,1.9,4.6,2.9c0,1,0,2-0.1,2.9c-0.8,6-1.5,12-2.5,17.9c-0.3,1.7,0.4,3.6-1.1,5.2
			c-0.2-0.2-0.4-0.4-0.5-0.6c-4.9-8.6-9.7-17.3-14.6-25.9c-2.5-4.6-5-9.1-7.5-13.7c0.3,0.1,0.6,0.1,0.8,0.2c5,2.7,9.9,5.4,14.9,8.1
			C331.8,34.3,333.4,35.7,335.9,36.2z"/>
		<path class="st1" d="M335.9,36.2c-2.5-0.5-4.1-2-6.1-3c-5-2.6-9.9-5.4-14.9-8.1c-0.2-0.1-0.5-0.1-0.8-0.2l0,0
			c-0.2-0.1-0.4-0.2-0.5-0.3c-0.1,0-0.2,0-0.3,0c-0.2-0.1-0.5-0.3-0.7-0.3c-6.9-0.3-13.7-0.5-20.6-0.8c0.7-0.5,1.5-0.3,2.3-0.3
			c7.2-0.1,14.4-0.2,21.6-0.2c0.4,0,0.8,0,1.1-0.1c0.1,0,0.1,0,0.2,0c-0.1,0.4,0.5,0.6,0.8,0.8c5.6,3.8,11.3,7.6,16.9,11.4
			C335.3,35.5,335.8,35.8,335.9,36.2z"/>
		<path class="st2" d="M338.8,95.8c0,0.1,0,0.2,0,0.3c-0.3,0.1-0.3,0.2,0,0.3l0,0c0,1.2-0.1,2.4,0.1,3.5c0.9,5.7,1.9,11.4,2.4,17.1
			c-0.9,0.4-1.2,0-1.4-0.5c-0.2-0.1-0.3-0.2-0.5-0.3l0,0c-0.2-0.1-0.3-0.2-0.5-0.3l0,0c-1.7-2-4.1-3.6-6.2-5.4
			c-3.9-3.3-7.8-6.5-11.9-9.7c-2.3-1.8-4.2-3.9-6.9-5.4c-0.4-0.1-0.4-0.4-0.4-0.6c3,0.2,6,0.3,9.1,0.5c5,0.2,9.9,0.3,14.9,0.5
			c0.3,0,0.6,0,0.8,0C338.5,95.8,338.7,95.8,338.8,95.8z"/>
		<path class="st3" d="M338.4,95.8c-0.3,0-0.6,0-0.8,0c0.1-0.6-0.4-0.9-0.9-1.3c-5.9-4.4-11.7-8.7-17.6-13.1c-0.7-0.5-1.2-1-1.3-1.7
			c3.3,0.3,6.5,0.7,9.8,1c3.2,0.3,6.3,1,9.5,0.9c0.2,0,0.5,0.1,0.7,0.1C337.9,86.4,338.2,91.1,338.4,95.8z"/>
		<path class="st0" d="M337.7,81.7c-0.2,0-0.5-0.1-0.7-0.1c0-0.2-0.1-0.4-0.1-0.6c0.3,0,0.6,0,0.8,0l0.1,0.1l0,0.1
			C337.8,81.4,337.8,81.6,337.7,81.7z"/>
		<path class="st3" d="M341,134.1c0,0.1,0.1,0.2,0.1,0.3c-0.8,4-1.5,8.1-2.3,12.1c-0.1,0.2-0.2,0.4-0.3,0.6l0,0
			c-7.1-3.3-14.3-6.7-21.4-10c0-0.2-0.1-0.4-0.1-0.5c-0.3-4.8-0.6-9.7-0.9-14.5c0.2-1.8,0.5-3.6,0.6-5.3c0.4-4,1.3-7.9,1.4-11.9
			c0.3,0.2,0.6,0.3,0.9,0.5c0.7,1.9,2.4,3.5,3.7,5.2c4.8,6.6,9.7,13.2,14.7,19.7C338.4,131.5,338.9,133.3,341,134.1L341,134.1z"/>
		<path class="st4" d="M338.8,96.5c-0.3-0.1-0.3-0.2,0-0.3C338.8,96.3,338.8,96.4,338.8,96.5z"/>
		<path class="st5" d="M317.1,137.1c7.1,3.3,14.3,6.7,21.4,10c0.1,4.2-1,8.4-0.8,12.7c-5.6,1.6-11.1,3.1-16.7,4.7
			c-0.8,0.2-1.6,0.4-2.5,0.4c-0.3-0.1-0.6-0.2-0.9-0.2c0.2,0,0.4-0.1,0.6-0.1c0.4-0.2,0.4-0.5,0.4-0.8c-0.2-2.7-0.1-5.4-0.4-8.1
			C317.6,149.5,317.4,143.3,317.1,137.1z"/>
		<path class="st6" d="M318.1,62.6c3.5,0.2,6.6,1.2,10,1.8c2.6,0.4,5.1,1,7.7,1.5c0.4,0.1,0.8,0.3,1.2-0.1c0.1,0,0.3,0.1,0.4,0.1
			c-0.3,4.6,0.4,9.2,0.4,13.7c0,0.5,0,0.9,0,1.4c-0.3,0-0.6,0-0.8,0c-0.7-0.7-1.4-1.3-2.1-2C329.3,73.6,323.7,68.1,318.1,62.6z"/>
		<path class="st7" d="M313.7,25c1.1,10.1,2.2,20.3,3.2,30.4c0.2,2.2,0.4,4.4,0.6,6.6c-1.8-0.4-2.5-1.6-3.8-2.5
			c-6.8-4.6-13.6-9.2-20.3-13.8c-0.3-0.2-0.6-0.3-0.9-0.4c0-0.1-0.1-0.2-0.1-0.3c0-0.2,0-0.4,0.1-0.7c3.1-3,6.3-6,9.4-9
			c3.8-3.6,7.5-7.1,11.3-10.7c0.1,0,0.2,0,0.3,0C313.6,24.8,313.7,24.9,313.7,25z"/>
		<path class="st8" d="M313.3,24.7c-3.8,3.6-7.5,7.1-11.3,10.7c-3.2,3-6.3,6-9.4,9c-0.6-0.3-0.4-0.7-0.5-1.1c-0.3-2.5-0.7-5.1-1-7.6
			c-0.6-4-1.2-8-1.8-12c0.9,0,1.8,0,2.7,0c6.9,0.2,13.7,0.5,20.6,0.8C312.8,24.4,313,24.6,313.3,24.7z"/>
		<path class="st0" d="M313.7,25c0-0.1-0.1-0.2-0.1-0.4c0.2,0.1,0.4,0.2,0.5,0.3C314,25,313.9,25,313.7,25z"/>
		<path class="st5" d="M341.8,117.1c-0.7,5.7-0.4,11.3-0.8,17c-2.1-0.9-2.6-2.6-3.7-4c-5-6.5-9.9-13.1-14.7-19.7
			c-1.3-1.7-3-3.3-3.7-5.2c0.5,0,0.9,0.3,1.3,0.5c3.8,2.2,7.6,4.4,11.5,6.4c2.4,1.3,4.4,3,7.3,3.7l0,0c0.2,0.1,0.3,0.2,0.5,0.3l0,0
			c0.2,0.1,0.3,0.2,0.5,0.3c0.2,0.5,0.5,0.9,1.4,0.5C341.4,117.1,341.6,117.1,341.8,117.1z"/>
		<path class="st4" d="M317.7,79.7c0.1,0.7,0.7,1.2,1.3,1.7c5.9,4.4,11.7,8.7,17.6,13.1c0.5,0.4,1,0.8,0.9,1.3
			c-5-0.2-9.9-0.3-14.9-0.5c-3-0.1-6-0.3-9.1-0.5c0-0.1,0-0.2,0-0.3c1.2-5,2.2-10.1,3-15.1c0.1,0,0.2-0.1,0.3-0.1
			C317.1,79.4,317.4,79.5,317.7,79.7z"/>
		<path class="st9" d="M314,95.5c0.5,1.9,1.7,3.7,2.5,5.5c0.3,0.7,0.8,1.4,0.8,2.2c-0.3-0.2-0.7-0.4-0.9-0.6
			c-5.6-6.2-11.3-12.4-16.8-18.6c-1.4-1.6-3.5-3-3.9-5c0.8,0.3,1.2,0.9,1.8,1.3c1,0.7,1.4,1.9,3,2.1c-0.1,0.6,0.4,0.9,0.9,1.3
			c1.2,1,2.3,2.1,3.5,3.1c3,2.6,5.6,5.3,8.8,7.7c0,0.1,0,0.2,0,0.3C313.6,95.1,313.6,95.3,314,95.5z"/>
		<path class="st8" d="M339.5,116.2c-0.2-0.1-0.3-0.2-0.5-0.3C339.2,116,339.3,116.1,339.5,116.2z"/>
		<path class="st8" d="M339.9,116.6c-0.2-0.1-0.3-0.2-0.5-0.3C339.6,116.3,339.8,116.5,339.9,116.6z"/>
		<path class="st10" d="M317.7,79.7c-0.3-0.1-0.6-0.2-0.9-0.3c0.1-3.8,0.1-7.5,0.5-11.3c0.2-1.8-0.2-3.7,0.7-5.4l0.1,0
			c5.6,5.5,11.2,11,16.8,16.4c0.7,0.7,1.4,1.3,2.1,2c0,0.2,0.1,0.4,0.1,0.6c-3.3,0.1-6.4-0.6-9.5-0.9C324.2,80.4,321,80,317.7,79.7z
			"/>
		<path class="st9" d="M318,104.4c0,0.1,0,0.3,0,0.4c-0.1,4-1,7.9-1.4,11.9c-0.2,1.8-0.4,3.6-0.6,5.3c-0.1,0-0.3,0-0.4,0
			c-2.6-3.3-5.1-6.5-7.8-9.8c-5.5-6.8-11-13.6-16.6-20.3c0-0.1,0-0.2,0-0.2c0.5,0.1,1.2,0.2,1.6,0.4c5.8,2.8,11.5,5.7,17.3,8.5
			C312.8,101.9,315.1,103.5,318,104.4z"/>
		<path class="st1" d="M315.6,122.1c0.1,0,0.3,0,0.4,0c0.3,4.8,0.6,9.7,0.9,14.5c-1.5-0.4-2-1.4-2.9-2.1c-5.4-4.6-10.7-9.1-16-13.7
			c-1.8-1.5-3.4-3.1-5.2-4.7c4,0.7,7.6,2.1,11.5,3C308.1,120,311.6,121.5,315.6,122.1z"/>
		<path class="st3" d="M292.6,136c0,0.3,0.1,0.6,0.1,0.8c-0.2,4.7,1,9.4,0.9,14.1c0,2.1,0.5,4.1,0.5,6.1c0,0.3,0.2,0.8-0.4,0.9
			c-0.5,0.1-0.7-0.2-1.1-0.4c-0.9-0.4-1.9-0.8-2.4-1.5c-1.1-1.8-3.2-2.9-5-4.3c-4.8-3.5-9.7-6.9-14.3-10.5c0-0.1,0-0.2,0-0.3
			c0.5-0.1,1-0.1,1.5-0.2c4.9-1.2,9.9-2.3,14.8-3.6c1.3-0.3,2.9-0.2,3.7-1.3C291.5,135.9,292,136,292.6,136z"/>
		<path class="st2" d="M270.3,132.8c0.2-0.1,0.3-0.2,0.5-0.3c3.5-2.7,6.9-5.4,10.4-8.2c3.5-2.7,6.9-5.4,10.4-8.2c0.3,0,0.6,0,0.8,0
			c0.1,6.6,0.1,13.2,0.2,19.9c-0.6,0-1.1,0-1.7,0c-0.3-0.1-0.6-0.3-0.9-0.3c-6.5-0.9-13-1.7-19.6-2.6
			C270.4,133,270.4,132.9,270.3,132.8z"/>
		<path class="st10" d="M270.4,133.1c6.5,0.9,13.1,1.7,19.6,2.6c0.3,0,0.6,0.2,0.9,0.3c-0.8,1.1-2.4,1-3.7,1.3
			c-4.9,1.2-9.9,2.4-14.8,3.6c-0.5,0.1-1,0.2-1.5,0.2C270.2,138.4,270.5,135.7,270.4,133.1z"/>
		<path class="st4" d="M269.1,132.4c0.2,0,0.3,0,0.5,0C269.4,132.6,269.2,132.7,269.1,132.4z"/>
		<path class="st0" d="M267.9,64.1c-0.7-10.9-1.4-21.8-2.1-32.8c0.3,0.3,0.6,0.6,0.9,0.9c0.1,0,0.2,0.1,0.4,0.1c0,0.6,0.6,1.2,1,1.7
			c5.7,7,11.5,13.9,17.3,20.9c1.3,1.6,2.7,3.2,4,4.8c0.8-2.2,1.1-4.2,1.6-6.3c0.6-2.7,0.6-5.5,1.7-8.2c0.3,0.1,0.6,0.3,0.9,0.4
			c6.8,4.6,13.6,9.2,20.3,13.8c1.2,0.8,1.9,2.1,3.8,2.5c0.2,0.2,0.3,0.4,0.5,0.6c-1,1.8-0.5,3.6-0.7,5.4c-0.4,3.7-0.3,7.5-0.5,11.3
			c-0.1,0-0.2,0.1-0.3,0.1c-0.1,0-0.1-0.1-0.2-0.1c-0.9-0.7-1.8-1.4-2.8-2.1c-2.5-1.8-5.1-3.5-7.5-5.3c-5.3-3.9-10.7-7.7-16.3-11.4
			c-0.4-0.4-0.9-0.1-1.3-0.1C281.5,61.7,274.7,62.9,267.9,64.1z"/>
		<path class="st2" d="M289.2,23.3c0,0.1,0,0.2,0,0.3c0.6,4,1.2,8,1.8,12c0.4,2.5,0.7,5.1,1,7.6c0.1,0.4-0.1,0.8,0.5,1.1
			c0,0.2,0,0.4-0.1,0.7c-8.3-4.3-16.6-8.6-24.9-12.8c0.2-0.2,0.5-0.4,0.8-0.5c4-1.6,8-3,11.9-4.7c2.8-1.2,6-2,8.5-3.6
			C289,23.4,289.1,23.4,289.2,23.3z"/>
		<path class="st0" d="M313.5,94.5c-3.2-2.4-5.9-5.2-8.8-7.7c-1.2-1-2.3-2.1-3.5-3.1c-0.5-0.4-1-0.8-0.9-1.3c0.5-0.2,1-0.3,1.6-0.4
			c4.8-0.9,9.6-1.8,14.4-2.7c0.1,0,0.1,0.1,0.2,0.1C315.8,84.5,314.7,89.5,313.5,94.5z"/>
		<path class="st9" d="M268.9,92.1c0-4.2,0-8.3,0.1-12.5c0.1-3.7,0.2-7.4,0.2-11.1c0-0.5,0.2-1.1-0.4-1.6c-0.2-0.7-0.5-1.4-0.7-2.2
			c0.5,0,0.9,0.3,1.3,0.5c3.7,3.3,8.8,5.2,14.1,6.8c2.3,0.7,4.5,1.6,6.7,2.4c0.5,0.2,0.9,0.3,0.9,0.8c-2.6,2-5.1,4-7.8,6
			C278.5,84.9,274,88.8,268.9,92.1z"/>
		<path class="st2" d="M291.1,75.3c0-0.4-0.5-0.6-0.9-0.8c-2.2-0.8-4.4-1.7-6.7-2.4c-5.3-1.7-10.4-3.5-14.1-6.8
			c-0.3-0.3-0.7-0.5-1.3-0.5c-0.1-0.2-0.1-0.4-0.2-0.6c6.8-1.2,13.6-2.4,20.4-3.7c0.5-0.1,0.9-0.4,1.3,0.1c1.1,5.3,2.2,10.7,3.3,16
			c-0.5-0.1-1-0.2-1.4-0.3C291.5,75.9,291.7,75.5,291.1,75.3z"/>
		<path class="st7" d="M291.3,92c-0.7,0.5-0.4,1.1-0.4,1.6c-0.2,4.8,0.5,9.6,0.7,14.5c0.1,2,0.3,4.1,0.4,6.1c0,0.6,0.1,1.1-0.4,1.6
			c-7.7,0.9-15.4,1.7-23,2.6c0-0.1,0-0.3,0-0.4c0.1-0.2,0.3-0.4,0.4-0.6c1.6-1.3,2.5-2.9,3.7-4.3c5.8-7.3,11.6-14.6,17.4-21.9
			c0.4,0.2,0.9,0.4,1.3,0.6C291.3,91.8,291.3,91.9,291.3,92z"/>
		<path class="st11" d="M265.7,14.3c-0.1-0.1-0.1-0.2-0.1-0.3c0.1,0.1,0.3,0.2,0.4,0.2C265.9,14.3,265.8,14.3,265.7,14.3z"/>
		<path class="st12" d="M266.7,32.3c0.1-0.1,0.3-0.2,0.4-0.3c0,0.1,0.1,0.2,0.1,0.3c-0.1,0-0.1,0.1-0.2,0.1
			C266.9,32.4,266.8,32.3,266.7,32.3z"/>
		<path class="st2" d="M290,91.1c-5.8,7.3-11.6,14.6-17.4,21.9c-1.2,1.5-2,3.1-3.7,4.3c-0.8-0.5-0.5-1.2-0.4-1.7
			c0.2-7.7,0.4-15.3,0.2-23c3.2-0.2,6.3-0.5,9.5-0.7c3.9-0.3,7.9-0.7,11.8-1C290,90.9,290,91,290,91.1z"/>
		<path class="st9" d="M294.7,78.3c0.6,0,0.8,0.2,0.9,0.6C294.9,79,294.7,78.8,294.7,78.3z"/>
		<path class="st9" d="M294.2,77.7c0.4,0.1,0.5,0.3,0.5,0.6C294.3,78.2,294.2,78,294.2,77.7z"/>
		<path class="st9" d="M293.3,76.8c0.3,0.2,0.5,0.4,0.5,0.7C293.4,77.3,293.3,77.1,293.3,76.8z"/>
		<path class="st9" d="M293.8,77.4c0.2,0.1,0.3,0.2,0.5,0.3C294.1,77.6,293.9,77.5,293.8,77.4z"/>
	</g>
</g>
</svg>
