<?xml version="1.0" encoding="utf-8"?>
<!-- Generator: Adobe Illustrator 19.2.1, SVG Export Plug-In . SVG Version: 6.00 Build 0)  -->
<svg version="1.1" id="Layer_1" xmlns="http://www.w3.org/2000/svg" xmlns:xlink="http://www.w3.org/1999/xlink" x="0px" y="0px"
	 viewBox="0 0 342 183" style="enable-background:new 0 0 342 183;" xml:space="preserve">
<style type="text/css">
	.st0{fill-rule:evenodd;clip-rule:evenodd;fill:#F8EF90;}
	.st1{fill:#FEFDFD;}
	.st2{fill-rule:evenodd;clip-rule:evenodd;fill:#B22C2D;}
	.st3{fill-rule:evenodd;clip-rule:evenodd;fill:#EC6409;}
	.st4{fill-rule:evenodd;clip-rule:evenodd;fill:#FBD038;}
	.st5{fill-rule:evenodd;clip-rule:evenodd;fill:#E52A02;}
	.st6{fill-rule:evenodd;clip-rule:evenodd;fill:#F6A305;}
	.st7{fill-rule:evenodd;clip-rule:evenodd;fill:#F49E84;}
	.st8{fill-rule:evenodd;clip-rule:evenodd;fill:#FEFDFD;}
</style>
<g>
	<polygon class="st0" points="338,180.2 7,180.2 7,153.4 81.6,165.2 171.7,169.2 250.4,171.8 255.6,162.6 304.9,164.1 338,153.4 	
		"/>
	<g id="sRrBIW.tif_2_">
		<g>
			<path class="st1" d="M167.2,126.8c0-0.2-0.1-0.3-0.3-0.3l0.1,0c0-0.3-0.1-0.4-0.4-0.6l0,0c-0.1-0.2-0.2-0.3-0.3-0.5l0-0.1l-0.1,0
				c-0.1-0.1-0.2-0.2-0.3-0.3l0,0c0-0.2-0.1-0.5-0.3-0.6l0,0c0-0.2-0.1-0.5-0.3-0.6l0,0c-0.2-0.7-0.4-1.3-0.9-1.9l0.1-0.1
				c-1.6-3.4,0.6-6.5,0.5-10c-1.8,0.7-2.3,2.1-2.5,3.7c-0.4,2.7-0.2,5.3,0.2,8c-0.7,0.6-1-0.2-1.4-0.5c-0.7-0.7-0.8-1.7-1.2-2.5
				c-1.5,1.8-1.6,4.1-0.2,5.8c0.7,0.9,1.6,1.5,2.4,2.1c2.2,1.5,3.7,3.4,4.8,5.8c0.6,1.4,1.3,2.8,2.1,4.3c1-1.3,1.2-2.6,1.5-4
				c0.4-2,0-3.9-1.4-5.4c-0.7-0.7-1.4-1.5-2-2.3C167.4,127,167.3,126.9,167.2,126.8L167.2,126.8z M216.3,146.5L216.3,146.5
				c0.6-0.1,1-0.3,1.2-0.8c1.8-1.2,2.7-2.9,2.3-5.1c-0.4-1.8-1.7-3.4-1.9-5.6c-0.7,0.9-0.8,1.6-0.6,2.2c0.7,1.9,0.3,3.8-0.2,5.7
				c-0.4,0.3-0.5,0.7-0.5,1.2c0,0.1-0.1,0.2-0.1,0.2c-0.1,0.1-0.1,0.2-0.2,0.3c-0.1,0.1-0.2,0.2-0.3,0.3c-0.4,0.1-0.6,0.4-0.6,0.7
				l0,0c-0.9,1-0.4,1.6,0.7,2c0,0,0,0,0.1,0.1c0,0-0.1,0-0.1-0.1c0-0.3,0-0.5,0-0.8c0-0.1,0.1-0.2,0.1-0.3
				C216.2,146.7,216.2,146.6,216.3,146.5z M7,27.5L7,27.5c-0.2-1-0.2-1.9-0.8-3.2C6,26,6,27.2,6.4,28.5c0.1,0.4,0.1,0.7,0.2,1.1
				c0,0-0.1,0.1-0.1,0.1c0,0.1,0.1,0.2,0.1,0.2C6.7,30.9,7,32,7.4,33c0.8,1.8,2.2,2.9,4,3.5c1,0.3,1.2,0,1.1-1
				c-0.2-1.4-0.9-2.4-2-3.3c-1.5-1.1-3-2.3-3.5-4.3C7.1,27.8,7,27.7,7,27.5z M194.9,143c1.1,1.4,2.3,2.7,3.6,4
				c0.2,0.2,0.4,0.5,0.7,0.4c0.3-0.1,0.2-0.5,0.2-0.8c0-1.8-0.9-3-2.3-3.9c-1.6-1.1-1.6-2.9-1.6-4.6
				C193.5,139.6,193.3,141.3,194.9,143z M336.9,122c0,0.1,0,0.2,0.1,0.3c0.1,0.2,0.1,0.4,0.2,0.6c0,0.4,0,0.8,0.3,1.1
				c0.1,0.3-0.2,0.9,0.4,0.8c1.1-0.2,2.7-2.9,2.2-3.9c-0.7-1.3-1.4-2.5-2.5-3.5c0-1-0.2-2.1-0.4-3.2c-2.6,3.1-2.6,4.6-0.2,7.6
				C336.8,121.9,336.8,122,336.9,122z M56.9,94.2c0.1,0.4,0.3,0.9,0.4,1.3c0.1,0.5,0.2,1,0.2,1.5c0,1.5-0.7,1.9-2.1,1.6
				c-1.6-0.4-2.8-1.2-3.5-2.7c-0.5-1-0.9-2-1.5-3.4c-0.2,1.4-0.3,2.4-0.4,3.4c-0.3,2.7,0.6,4.8,2.8,6.4c0.8,0.6,1.6,1.2,2.4,1.7
				c3.4,2.4,3.9,4,2.5,7.9c-0.3,0.8-1,1.6-0.8,2.6c3.1-2.4,5.2-5.4,5.6-9.3C63.2,100.6,60.6,97.1,56.9,94.2z M325.4,76.1
				c0.2,3.1,0.3,6-0.6,8.7c-0.9,2.5-0.2,4.4,1.9,5.9c2.4,1.7,3.4,4,3.1,6.8c-0.1,0.6,0.3,1.6-0.4,1.7c-0.7,0.2-1.2-0.7-1.6-1.2
				c-0.5-0.6-0.6-1.4-0.8-2.1c-0.1-0.4,0-0.9-0.5-1.1c-1.8,1.7-2.1,3.2-1.1,5.4c0.6,1.3,1.6,2.2,2.6,3.1c1.2,1.1,2.3,2.1,1.9,3.9
				c0.5,0,0.7-0.3,1-0.5c2.5-2.1,3.9-4.8,4.5-8c0.4-2,0.4-4,2.5-5.2c-1.7-1.2-3.3-0.8-5-0.1c0-0.7,0-1.1,0-1.6
				c-0.2-2.9-0.5-5.9-2.3-8.3c-0.5-0.6-1.1-1.4-1.3,0.2c-0.1,0.5-0.5,0.9-1,0.9c-0.7,0-0.6-0.6-0.7-1c-0.3-1.2-0.3-2.4-0.4-3.7
				C327.1,78.6,326.8,77.3,325.4,76.1z M37.4,71.8c0.4,1,0.6,1.8,0.9,2.5c1.5,5,1.5,9.6-3,13.3c-0.4,0.3-0.7,0.8-1,1.2
				c-1.8,2.2-3,4.7-3.2,7.7c0.4-0.1,0.5-0.4,0.6-0.7c1.3-2.8,3-5.2,5.4-7.2c1.5-1.3,2.9-2.7,4.2-4.2c1.7-2.1,2-4.4,1-6.9
				C41.1,75.2,39.5,73.5,37.4,71.8z M124.8,118.6c-0.1-1.7,0.4-3,1.7-4c0.6-0.5,0.6-1.1,0.5-1.8c-0.2-1-0.5-2-1.3-3
				c-0.5,1.8-1.2,3.5-2.6,4.7c-0.7,0.6-1.3,1.4-0.9,2.4C122.7,117.9,123.6,118.4,124.8,118.6z M306.6,92.8c-0.9,1.2-1.7,2.4-2.9,3.2
				c-1.6,1.1-1.8,1.6-1.3,3.5c0.3,1.1,0.7,2.1,1.4,3c-0.6-2.2-0.4-4.1,1.4-5.8C306.2,95.8,306.7,94.4,306.6,92.8z M153.6,139
				c0.1,1-0.5,1.3-1.4,1.3c-0.7,0.1-1.1,0.7-1.1,1.4c0,0.7,0.4,1.4,1.1,1.4c0.8,0,1.8,0.4,2.3-0.5
				C155.2,141.6,154.8,139.9,153.6,139z M159.1,114.4c0.6-1.2,0.7-1.9,0.1-3c-0.7-1.1-0.6-2,0-3c0.2-0.3,0.5-0.5,0.4-1
				C156.3,108.1,156.5,111.5,159.1,114.4z M55,87.5c1.3-1.7,1.3-1.9-0.1-3.2c-0.6-0.5-0.9-1.2-1.1-1.9c-0.1-0.4-0.1-0.7-0.7-0.5
				c-1.2,0.6-1.5,2-0.5,2.9C53.4,85.6,54.2,86.5,55,87.5z M154.1,161.8c-0.2-0.9-0.5-1.7-1.5-1.7c-1.1,0-1.5,0.9-1.5,1.9
				c0,0.9,0.4,1.7,1.5,1.7C153.7,163.7,154,162.8,154.1,161.8z M46.3,111.9c-0.4,0.9-0.7,1.7-1.3,2.4c-0.5,0.6-0.2,1.1,0.4,1.3
				c0.6,0.2,1.3,0.7,1.8-0.1C47.8,114.5,47.4,112.9,46.3,111.9z M180.6,118.8c0.2,0.9,0.3,1.8,1.4,1.7c1,0,1.4-0.8,1.4-1.6
				c0-0.9-0.3-1.7-1.4-1.7C181,117.2,180.8,118,180.6,118.8z M306.7,118.9c0,1.2-0.6,1.8-1.1,2.5c-0.4,0.6-0.3,1.1,0.4,1.4
				c0.6,0.2,1.3,0.6,1.8-0.2C308.3,121.6,307.9,119.9,306.7,118.9z M335.3,79c0,1.1-0.4,1.8-1,2.5c-0.5,0.5-0.5,1.1,0.2,1.4
				c0.6,0.2,1.2,0.8,1.8,0C337.1,81.7,336.7,80.1,335.3,79z M269.3,137.1c-0.1,1-0.6,1.7-1.1,2.4c-0.4,0.5-0.3,1,0.3,1.3
				c0.6,0.3,1.3,0.6,1.8,0C271,139.8,270.5,137.9,269.3,137.1z M84.4,156.5c-0.1-1-0.4-1.7-1.4-1.7c-0.9,0-1.3,0.7-1.3,1.6
				c0,0.9,0.3,1.7,1.4,1.6C84,157.9,84.4,157.3,84.4,156.5z M108.1,145.8c-0.2-0.8-0.4-1.6-1.5-1.5c-0.9,0-1.3,0.7-1.3,1.6
				c0,0.9,0.4,1.6,1.4,1.6C107.7,147.4,108,146.6,108.1,145.8z M162.8,107.7c0-0.8-0.3-1.5-1.3-1.5c-1,0-1.3,0.7-1.3,1.5
				c0,0.8,0.3,1.6,1.3,1.6C162.5,109.3,162.8,108.7,162.8,107.7z M136.4,103.6c-0.2-0.7-0.4-1.5-1.3-1.5c-0.9,0-1.4,0.7-1.4,1.6
				c0,0.8,0.4,1.5,1.3,1.5C136,105.3,136.3,104.5,136.4,103.6z M318.3,54.8c-0.2,1-0.6,1.7-1.1,2.3c-0.4,0.5-0.4,1.1,0.3,1.4
				c0.6,0.2,1.3,0.6,1.8-0.1C319.8,57.5,319.4,55.8,318.3,54.8z M225.3,163.5c-0.2-0.8,0-2.1-0.9-2.1c-1.1,0-1,1.3-1,2.1
				c0,0.8-0.1,2,1,2C225.4,165.6,225.1,164.3,225.3,163.5z M72.8,82.8c0.1,0.8,0.3,1.5,1.3,1.5c1.1,0,1.3-0.8,1.3-1.6
				c0-0.8-0.4-1.5-1.3-1.5C73.2,81.3,72.9,82,72.8,82.8z M5.5,1.3C5.5,0.7,5.2,0,4.3,0C3.3,0,3,0.7,3,1.6c0,0.8,0.3,1.6,1.3,1.5
				C5.2,3.1,5.5,2.4,5.5,1.3z M242.4,158.4c-0.8,0.1-1.2,0.6-1.2,1.3c0,0.9,0.5,1.3,1.3,1.3c0.8,0,1.2-0.5,1.2-1.3
				C243.8,158.8,243.3,158.5,242.4,158.4z M303.4,145.1c-0.1-0.8-0.5-1.2-1.3-1.2c-0.8,0-1.2,0.5-1.2,1.2c0,0.7,0.4,1.2,1.2,1.2
				C303,146.4,303.4,145.9,303.4,145.1z M249.5,147.9c-0.1-0.5,0-1.2-0.6-1.1c-1,0.2-1,1.2-1.1,2.1c0,0.4-0.1,1.2,0.5,1.1
				C249.4,149.8,249.3,148.7,249.5,147.9z M256,146.1c-0.6,0.1-1,0.3-1,1.1c0.1,0.7,0.6,0.8,1.1,0.8c0.6,0,1.2-0.2,1.1-1
				C257.2,146.3,256.7,146.2,256,146.1z"/>
			<path class="st2" d="M53.3,131.5c3-6,8.8-10.4,13.8-10.2c-0.8,1.1-1.8,2-2.3,3.2c-0.6,1.2-0.7,2.5-0.8,4.3c1-1.9,2.1-3.2,3.3-4.4
				c1.2-1.1,2.6-2.1,4.2-2.6c4.3-1.5,5.4-4.7,4.8-9.1c-0.1-1-0.4-2-0.9-2.9c0.2-0.2,0.4-0.1,0.5,0c2.9,3.6,4.6,7.6,3.8,12.3
				c-0.4,2.2-1.6,3.8-3.2,5.2c-1.4,1.2-2.9,2.2-4.3,3.4c-1.8,1.6-1.7,2.5,0,4.2c0.6,0.5,1.2,0.9,1.9,1.2c1.4,0.7,2.7,0.1,3.3-1.4
				c0.5-1.4,0.6-2.8,0.7-4.6c1.9,2.2,3.2,4.4,3.9,7c0.7,2.4,0.3,4.5-1.1,6.6c-2.2,3.4-4.4,6.9-5.9,10.7c-0.5,1.3-0.8,2.6-0.9,4
				c-0.2,2.2,0.8,3.9,3,4.5c2.9,0.9,5.9,0.8,8.7-0.5c3.1-1.5,4.2-4.3,4.4-7.5c0.2-2.7-0.3-5.3-1.1-8c1.8,0.8,3.1,2,4.2,3.4
				c1.2,1.4,1.9,3,2.9,4.5c-0.3-2.2-0.5-4.5-0.3-6.7c0.2-2.9,1.3-5.4,3.2-7.5c1.3-1.3,2.6-2.6,4.1-3.7c0.4-0.2,0.7-0.6,1.1-0.2
				c0.3,0.3-0.2,0.7-0.3,1c-1.3,2.1-2.5,4.3-3.1,6.8c-0.7,3.1,0.5,6.6,4.6,6.4c1.6-0.1,2.8-0.8,3.4-2.3c1-2.4,0.7-4.8,0.5-7.3
				c0-0.5-0.2-1-0.2-1.5c-0.2-3.7,2.9-6,6.4-4.7c2.1,0.8,2.9,2.9,1.8,4.4c-0.4,0.4-0.6,0.6-1.1,0.1c-1.7-1.6-3.4-1.1-4.1,1.2
				c-0.9,2.8,0.7,6.3,4.4,7c1.7,0.3,3.5-0.9,4.6-2.5c1.9-2.8,1.4-5.7-0.1-8.5c-1.7-3.2-4.5-5.2-7.7-6.6c-0.2-0.1-0.3-0.2-0.8-0.4
				c3-0.1,5.5,0.3,8,1.4c2.4,1.1,4.5,2.8,6.4,5c0.2-4.3,1.6-7.7,5-9.8c3.6-2.2,7.5-3.6,12.1-3.4c-1.6,1.2-2.9,2.3-3.9,3.7
				c-1.9,2.8-2.4,5.9-2.1,9.2c0.5,5.5,2.5,10.4,5.4,15.3c1.6-3.4,2-6.7,1.1-10.2c4.5,2.5,7.2,8.7,6.2,14.1c-0.4,2-0.8,4.1-1.2,6.1
				c-0.1,0.7-0.2,1.5-0.1,2.3c0.2,2.6,2.8,4.1,5.2,3.1c1.1-0.5,1.2-1.5,1.1-2.5c-0.2-1.6-0.9-3-1.6-4.4c-0.2-0.4-0.5-0.7-0.5-1.3
				c2.4-0.1,4,1.1,5.3,2.9c1.1,1.6,1.9,3.4,3.1,5c0.3,0.3,0.5,0.7,1,0.9c-0.1-0.9-0.3-1.7-0.6-2.4c-1.4-3.2-2.4-6.6-2.6-10.1
				c-0.4-5.8,2.9-10.7,8.7-12.6l0,0c-0.5,0.8-1.1,1.5-1.5,2.4c-1,1.7-1,2.8-0.1,3.6c1.1,1,3.4,1.2,4.6,0.2c1-0.8,1.8-1.8,2.2-3.1
				c2.5-7.4,2.9-14.8-1-22c-0.6-1.2-1.3-2.3-1.9-3.5c-0.2-0.3-0.9-0.6-0.4-1c0.3-0.2,0.8,0.2,1.1,0.5c3,2.3,5.6,5,7.9,8.1
				c4.6,6.4,5.5,13.4,3.8,20.9c-0.9,4.1-2.4,8.1-2.9,12.4c-0.1,1.1-0.2,2.2,0.1,3.2c0.5,1.8,1.7,2.8,3.4,3.2c3.9,1,7.6-0.4,9.1-3.6
				c0.7-1.5,1-3.1-0.2-4.5c-1.1-1.3-2.9-1.7-4.8-1c-0.3,0.1-0.7,0.2-1,0.4c0-2.9,2.2-5.6,5.1-6.3c3.9-1,6.3,0.3,9.1,5.1
				c0.7-2.3,2.4-3.8,3.5-5.7c0.8-1.4,0.7-2.8-0.1-4.2c-0.7-1.2-1.6-2.2-2.6-3.2c5.8,0.4,10.4,7,8.6,12.4c-0.7,2.2-1.6,4.4-2.1,6.8
				c-1.1,4.8,1.6,8,6.8,8.1c-2.3-2.5-3.9-5.1-2.3-8.4c0.9-1.9,3.5-3,7-3c-0.6,0.5-1,0.9-1.4,1.3c-3.1,2.9-2.4,6.9,1.5,8.5
				c2.5,1,5.3,1.3,8,1.4c4.2,0.1,8.3-0.1,12.5-0.8c2.8-0.5,5.6-0.2,8.2,1.4c1,0.6,1.5,0.4,1.9-0.7c0.6-1.8,1.4-3.5,1.5-5.4
				c0.2-2.4-0.4-3.1-2.7-3.6c-0.3-0.1-0.6-0.1-1-0.2c3.2-1.8,6.3-1.9,9.3,0c0.5-7.8,6.1-13.3,14.2-13.9c2.5-0.2,5,0,7.7,1
				c-1.9,0.5-3.6,0.8-5.1,1.6c-1.8,1-3.1,2.3-3.8,4.2c-0.5,1.7,0.1,3.9,1.5,5c1.3,1,3,1.1,4.7,0.2c2-1.1,2.2-3.1,0.4-5.2
				c-0.4-0.5-0.9-1.1-1.6-1.8c3.2,0.8,5.9,2,7.7,4.5c1.2,1.7,1.1,3.5,0.3,5.4c-0.1,0.3-0.4,0.6-0.2,0.9c0.3,0.3,0.6,0.1,0.9,0
				c2.5-0.5,3.2-1.4,2.7-3.9c-0.5-2.6-1.2-5.2-1.9-7.9c-0.2-0.8-0.3-1.6-0.4-2.4c-1-6.3,2.1-10.6,6.9-14c1.5-1.1,3.1-2,4.8-2.6
				c0.3-0.3,0.8-0.1,1.1-0.5c2.5-0.8,5-1.4,7.6-1.6c0.4,0.4,1.2-0.2,1.3,0.6c-3.4,1.3-6.8,2.9-9.3,5.6c-3.7,4-4.1,10.2-1,14.5
				c1.1,1.6,2.9,2,4.5,2.1c4.2,0.3,8.1-0.9,11.1-3.9c3.8-4,6-8.6,4.4-14.3c-1.1-4.2-2.8-8.3-3.8-12.5c-1.5-6.9-0.8-13.3,3.3-19.2
				c1.2-1.7,2.3-3.4,4.1-4.9c-3.8,14-0.1,26.3,7.9,37.6c0.3-1.3-0.2-2.7-0.4-4.2c-0.4-4.3-0.5-8.6,2-12.4c0.5-0.8,0.9-1.7,1.8-2l0,0
				c-1.3,4.2-1.1,8.3,0.6,12.3c2.5,6.1,6.2,11.5,9.6,17.2c0,6.7,0,13.4,0,20.1c-0.4-0.3-0.4-0.8-0.5-1.2c-0.8-2.9-2.1-5.6-3.7-8.1
				c0-0.5-0.4-0.9-0.6-1.4c-2.1-3.6-3.5-7.3-2.8-11.5c0.1-0.5,0.7-1.3,0-1.6c-0.5-0.2-1.2,0.4-1.7,0.8c-0.1,0.1-0.2,0.2-0.3,0.3
				c-1.5,1.4-2,3.3-2.1,5.5c-2.2-1.5-3.4-3.5-4.4-5.6c-1-2.2-1.3-4.5-1.9-7c-0.6,1.3-0.5,2.5-0.7,3.6c-0.7,4-1.2,8.1-2.5,11.9
				c-0.6,1.8-2,3.2-2.6,5c-0.4,0.5-0.8,0.9-1.2,1.4c-3.6,3.9-7.4,5.3-12.4,3c-0.8-0.4-1.8-0.8-1.8-1.8c0-0.9,1-1.1,1.7-1.5
				c0.2-0.1,0.3-0.2,0.6-0.3c-1.6-0.6-3.1-0.6-4.6-0.3c-1.5,0.2-2.7,1-3.2,2.6c-0.1,0.4-0.1,1-0.5,1.1c-0.6,0.1-0.7-0.5-0.9-0.9
				c-0.2-0.6-0.5-1.1-1.1-1.4c-0.1-0.2-0.2-0.4-0.3-0.6c-1.5-3.2-2.1-6.6-2.1-10.2c-1,1.9-1.5,3.9-1.6,6c-0.1,1.5-0.5,3.1,0.5,4.5
				c0.7,1.9,1.9,3.6,2.2,5.6c0.2,1.4-0.2,2-1.7,2.1c-1.9,0-3.5-0.9-5.2-1.7c-0.5-0.2-0.9-0.5-1.3,0.1c-0.8,1.1-1.2,2.3-1.2,3.7
				c0,2.7,1.5,4.6,3.1,6.4c1.9,2.2,4.2,3.8,6.5,5.4l-0.1,0c-4.6,0-9.3,0-13.9,0c-0.4,0-0.9-0.1-1.2,0.3c-0.5-0.1-0.6-0.4-0.2-0.8
				c0.5-0.5,1.1-1,1.6-1.6c1.5-1.9,2.2-4.5-0.2-6.6c-1.1-0.9-1.8-2-1.1-3.6c-1,0.7-1.7,1.4-2.6,2c-1.5,1-2.2,0.9-3.5-0.3
				c-0.9-0.8-1.2-1.9-1.6-3c-0.1-2,0.3-3.9,0.9-5.7c0.3-0.8,0.2-1.1-0.7-1.1c-1,0-1.9,0.1-2.7,0.6c-0.6,0.4-1.1,0.6-0.9-0.6
				c0.2-1.6,0-3.3-1.2-4.7c-0.3-0.3-0.5-0.9-1.1-0.8c-0.5,0.1-0.2,0.7-0.3,1c-0.2,0.5-0.5,0.9-0.8,1.3c-0.8,0.9-1.2,1.9-1.4,3.1
				c-0.4,2,0.1,4.1-0.5,6c0,0.1,0,0.2-0.1,0.3c-0.7,0.2-1.2,0.9-1.9,0.9c-1.9-0.2-1.7-1.7-1.8-3c-2.8,1.4-3.7,2.8-3.6,5.6
				c0.1,2.2,0.9,4.2,2.3,5.8c1.5,1.6,1.6,3.2,0.8,5c-5,0-9.9,0-14.9,0c-0.5,0-1.2-0.2-1.6,0.3c-0.1-0.1-0.2-0.2-0.4-0.3
				c0-0.2,0.1-0.5,0.1-0.7c0.6-3.1,0.2-3.9-2.8-4.8c-3-0.9-6.2-0.7-9.3-0.6c-2,0.1-3.7-0.5-5.5-1.1c-1.3-0.5-2.4-1.4-3.8-2.3
				c0.3,2,1.3,3.3,2.8,4.5c-3.8,0-7.4-0.1-10.6-1.5c-3-1.2-5.4-3.2-6.1-6.7c-0.4-1.8,0.4-3.4,0.7-5.1c0.3-1.8,0.1-3.6-1-5.1
				c-0.2-0.3-0.7-0.7-1.1-0.5c-0.6,0.3-0.1,0.7,0,1.1c0.5,1.9-1.2,6-3.1,7c0-0.6-0.1-1.2,0-1.7c0.2-1.2-0.5-1.8-1.3-2.5
				c-0.3-0.3-0.7-0.5-1-0.2c-0.3,0.2,0,0.6,0.1,0.9c0.7,2.3,0.3,3.2-1.6,4.7c-2.2,1.7-4.4,3.4-5.4,6.3c-0.6,1.8-2.5,2-4,0.8
				c-1-0.8-1-1.9-1-3.1c0-0.3,0.1-0.7-0.3-0.9c-0.4-0.2-0.7,0.2-1,0.4c-0.6,0.6-0.7,1.3-0.8,2.1c0,0.5-0.1,1-0.7,0.7
				c-2.6-1.3-4.9-2.7-6.1-5.6c-1.3-3.1-1.2-6.2-0.1-9.3c0.8-2.4,1.9-4.7,1.6-7.4c-0.2-1.3-0.5-2.6-0.5-3.9c-0.1-2.2-0.3-4.4,1.1-6.4
				c-0.4,0-0.5,0.1-0.7,0.2c-2.3,2-3.2,4.5-2.5,7.4c0.3,1.5,0.5,3.1,0.4,4.6c-0.1,2-1.4,3.2-3.3,3.3c-2,0.1-3.3-0.7-4.3-2.4
				c-0.7-1.2-1.6-2.1-3.4-2.1c0.7,0.9,0.9,1.8,0.8,2.7c-0.1,1.5-1.1,2.5-1.8,3.6c-2.2,3.5-1.8,7.2,1.2,10.1c0.9,0.9,1.7,1.8,2.6,2.6
				c1.1,0.9,1.8,2.1,2.3,3.3c0.5,1.1,1.1,2.2,0.6,3.5c-0.1,0.3-0.2,0.7-0.6,0.7c-0.3,0-0.4-0.4-0.5-0.6c-0.9-1.4-1.9-2.7-3.9-2.6
				c-0.4,0-1.1-0.3-1.3,0.3c-0.2,0.4,0.4,0.7,0.7,1c0.1,0.2,0.3,0.4,0,0.7c-2-1.1-3.3-3-5.2-4.8c0.1,0.5,0.2,0.8,0.3,1
				c1.2,4-0.5,5.8-4.7,5.1c-5.5-0.9-8.6-4.3-10.3-9.3c-1.3-3.7-1.6-7.6-1.9-11.5c0-0.5,0.2-1.5-0.9-0.7c-2.2,1.6-4.6,1.7-7.3,1.4
				c-6.7-0.9-8.7-8-5.8-13.1c0.9-1.6,1.7-1.9,3.2-1.1c1.5,0.8,1.7,0,2.1-1.1c0.2-0.5,0.1-1,0.2-1.5c0.4-2.4-1.8-3.3-3.7-2.5
				c-3.2,1.3-5,3.6-6,6.9c-0.7,2.3-0.3,4.7-0.8,7c-0.2,0.7-0.1,1.6-1.1,1.7c-1,0.2-1.8-0.3-2.4-1.2c-0.5-0.8-0.5-1.7-1-2.7
				c-0.6,2.3-1.2,4.4-2.1,6.4c-1.4,3-2.8,6-5.9,7.8c-2.4,1.4-6.8,1.6-8.8-0.7c-1.8-2-2.2-4.4-2.3-6.9c0-0.7,0.4-1.7-0.3-1.9
				c-0.6-0.2-1.2,0.8-1.6,1.4c-2.1,3-2.6,6.3-1.7,9.8c0.3,1.1-0.2,1.1-0.9,0.7c-1.3-0.7-2.8-0.6-4.2-0.5c-0.9,0-1.6,0.3-1.2,1.5
				c0.3,0.8,0.3,1.7,0.5,2.5c0,0.4,0,0.7,0,1.1c-0.6,3.7-3.2,5.5-6.9,5.8c-2.1,0.2-4.1-0.1-6.1-0.4c-7.8-1.1-11.9-4.9-12.1-12.8
				c-0.1-3.5,0.7-6.9,1.7-10.2c0.9-3,2.1-5.8,3.3-8.7c0.1-0.1,0.4-0.2,0.1-0.4c0,0.1-0.1,0.2-0.1,0.4c-0.3,0-0.4,0.1-0.6,0.3
				c-1.9,2.7-4,5.3-6.2,7.9c-1.7,1.9-3.4,3.8-5.5,5.3c-0.9,0.6-1.4,0.3-1.6-0.7c-0.5-1.9-0.2-3.8,0.2-5.7c0.8-3.8,2.3-7.5,4-11
				c0.7-1.4,1.7-2.5,2-4c0.1-0.1,0.4-0.2,0.1-0.4c0,0.1-0.1,0.2-0.1,0.4c-0.7,0-1,0.7-1.4,1c-0.5,0.5-0.9,1-1.6,1.3
				c-0.4,0.2-0.8,0.3-1.2,0c-0.4-0.3-0.2-0.7-0.1-1.2c0.3-1.1,1.2-1.8,1.8-2.6c0,0,0-0.1,0.1-0.1c0,0,0,0.1-0.1,0.1
				c-0.6,0-1.2,0.1-1.8,0.3c-3.9,1.4-6.4,4.2-7.8,8c-0.6,1.5-1.4,3-2.5,4.2c-0.3,0.3-0.6,0.9-1.1,0.7c-0.6-0.2-0.3-0.8-0.3-1.2
				c0-1.1-0.2-2.1-1.1-2.8c-0.3-0.2-0.7-0.6-1.2-0.4c-0.4,0.2-0.2,0.7-0.3,1c-0.1,0.6-0.2,1.1-0.3,1.7c-0.4,4.7-1.7,9-4.6,12.8
				c-1.5,2-2.1,2.1-4,0.4c-0.2-0.2-0.4-0.4-0.5-0.6c-0.7-1-1.4-2.1-2.1-3.2c-0.1-0.3-0.2-0.5-0.3-0.8c-0.2-1.6-0.7-3.2-0.8-4.8
				c-0.3-4.7,1-9.1,2.6-13.5c1.4-3.6,2.2-7.2,1-11.1c-0.5-1.7-1.4-3.6-0.3-5.4c0.3-0.5-0.3-0.5-0.7-0.6c-1.2-0.3-1.8,0.7-2.8,1.1
				c0.3-1.7,0.3-3.4,0.1-4.9c-0.4-3.3-2.3-5.8-5-7.5c-0.1-0.1-0.2-0.2-0.3-0.3c-0.1-0.1,0.1-0.4-0.2-0.3c0.1,0.1,0.1,0.2,0.2,0.3
				c0.1,0.1,0.2,0.2,0.3,0.3c0.3,0.8,0.7,1.5,1,2.3c0.5,1.1,0.8,2.3,0.6,3.6c-0.4,3.1,0,6.2,1.1,9.1c0.7,1.8,1.8,3.5,2.3,5.3
				c1,3.7,0.3,7.3-1.8,10.6c-3,4.7-8.3,5.1-11.6,0.4c-1.9-2.6-2.9-5.6-3.8-8.6c-1.1-3.5-1.7-7-2.2-10.6c-0.4-2.8-0.8-5.5-0.6-8.4
				c1.1,1.4,1.7,1.5,2,0.3c0.3-1.2,0.6-2.3,0.3-3.6c-0.5-1.9-1.4-3.6-1.9-5.5c-0.4-1.7-0.4-3.2,0.6-4.7c0.6-0.9,1.5-1.4,2.2-2.1
				c0.2-0.2,0.7-0.2,0.3-0.7c-2.1-2.4-1.2-4.7,0.2-7c1.4-2.2,3.3-3.9,4.9-6c2.7-3.5,4.8-7.2,3.9-11.9c-0.8-4.5-3.2-7.6-7.4-9.5
				c-0.1-0.1-0.2-0.4-0.4-0.1c0.1,0,0.2,0.1,0.4,0.1c0,0.5,0.4,0.7,0.7,1.1c2.9,3.4,4.6,7.1,3.6,11.7c-0.6,3-1.8,5.7-4.5,7.5
				c-1.4,0.9-2.9,1.3-4.8,2.1c1.3,0.4,1.9,1.2,1.8,2.1c-0.1,1-1.1,1.3-1.9,1.5c0.1,0.4,0.4,0.4,0.6,0.5c0.5,0.2,0.9,0.4,0.9,1
				c0,0.6-0.6,0.5-1,0.6c-0.9,0.3-1.5,0.9-2.2,1.5c-0.6,0.5-0.6,1.3-1.4,1.6C9.6,89.5,7,88,4.8,88.9c3.7,3.6,4.1,6.7,0.9,10.7
				c-3.1,4-4,8.3-2.5,13.1c0.8,2.6,1,5.3,0.8,8c-0.2,2.5-0.9,4.7-3.1,6.2c0-9.5,0-18.9,0-28.4c1.1-0.4,1.3-1.4,1.7-2.3
				c1.1-3,0.9-6,0.4-9.1c-0.1-0.6-0.2-1.2-0.3-1.8C2,79.9,5.5,75.9,11.1,76c-0.8,1-1.8,1.8-2.4,2.8c-0.7,1.3-0.4,2,1.1,2.2
				c1.2,0.2,2.3-0.2,3.2-0.8c2.5-1.6,4.2-3.8,5-6.6c0.9-3.3-1.4-5.7-4.8-5c-1.3,0.2-2,1-2.2,2.3c-0.1,0.7,0,1.5,0,2.3
				c-1.8-0.8-3-3.1-2.7-5.1c0.3-2.7,1.6-3.7,5.8-4.4c-3.8-3.4-8.5-2.9-11.9,1.3c-0.9-3.4,1-7.9,4.3-9.8c3.1-1.8,6.3-2.3,9.7-1
				c0.8,0.3,1-0.1,1.2-0.7c0.4-1.2-0.1-2.4-0.6-3.8c4.4,1.9,7.9,4.4,10.6,7.9c4.3,5.7,4.2,11.9,2.3,18.3c-1,3.4-3,6.3-5.7,8.6
				c-1,0.9-2,1.7-3,2.6c-1.5,1.5-1.8,3.3-1.6,5.5c0.8-0.6,1.6-1.3,2.5-1.3c0.4,0,0.9-0.1,1.1,0.3c0.2,0.4-0.3,0.6-0.5,0.9
				c-2.6,3.2-4.4,6.7-4.7,10.9c-0.1,0.9-0.1,1.9,0,2.8c0.4,3,1,5.9,0.8,9c-0.1,2,1.2,3.3,2.6,4.4c2.3,1.8,4.3,3.8,5.5,6.6
				c1.3-4.1-1.9-12-7-17.1c1-0.7,2-0.5,3.1-0.3c0.2,0.1,0.4,0.3,0.6,0.1c0.2-0.2,0-0.4-0.2-0.5c-1.4-3.2-1.9-6.5-1.4-10
				c0.5-3.2,2-5.9,4.5-8c-0.3,1.2-0.6,2.3-0.8,3.5c-0.5,3.1,0.5,5.6,2.8,7.6c2.7,2.3,4.6,5.1,5.5,8.6c0.1,0.3,0.1,0.6,0.2,0.8
				c0.1,0.4-0.3,1.2,0.3,1.2c0.6,0,0.6-0.8,0.7-1.4c0.3-1.9-0.4-3.6-1.5-5.1c-0.3-0.5-0.6-0.9-1.1-1.7c1.8,0.3,3,1.4,4.2,2.3
				c2.1,1.7,3.5,3.9,4.1,6.6c0.3,1.4,0.3,2.9,0.1,4.3c-0.8,6.4-1.8,12.8-1.9,19.2c0,2.7-0.1,5.5,0.2,8.5c2.6-3.1,4.9-6.2,6.7-9.5
				c1.8-3.5,2-7.3,2-11.3c1.9,1,2.9,2.6,3.6,4.4c-0.1,0.2,0,0.5,0.2,0.6c0,0.2,0.1,0.3,0.1,0.5c0,1.6,0,3.2-0.5,4.7
				c-0.1,0.2-0.2,0.4,0.1,0.6c0.3,0.1,0.4-0.1,0.5-0.3c0.4-1,1-1.9,1.2-3c0.1,0,0.1-0.1,0.1-0.1c0,0,0.1,0,0.1,0L53.3,131.5z"/>
			<path class="st3" d="M4.9,180.2c-1.3,0-2.6,0-4,0c0-17.8,0-35.6,0-53.3c2.2-1.5,2.9-3.8,3.1-6.2c0.2-2.7,0-5.4-0.8-8
				c-1.5-4.8-0.6-9.1,2.5-13.1c3.2-4,2.8-7.1-0.9-10.7c2.2-0.9,4.8,0.6,5.3,3.3c0.8-0.3,0.8-1.2,1.4-1.6c0.7-0.6,1.3-1.2,2.2-1.5
				c0.4-0.1,1-0.1,1-0.6c0-0.5-0.4-0.8-0.9-1c-0.2-0.1-0.5-0.1-0.6-0.5c0.9-0.2,1.9-0.4,1.9-1.5c0.1-0.9-0.5-1.7-1.8-2.1
				c1.8-0.8,3.4-1.2,4.8-2.1c2.7-1.8,3.9-4.5,4.5-7.5c0.9-4.6-0.8-8.3-3.6-11.7c-0.3-0.3-0.6-0.6-0.7-1.1l0,0c4.2,1.8,6.6,5,7.4,9.5
				c0.8,4.7-1.2,8.4-3.9,11.9c-1.6,2-3.6,3.8-4.9,6c-1.4,2.3-2.3,4.6-0.2,7c0.4,0.5-0.1,0.5-0.3,0.7c-0.7,0.7-1.6,1.2-2.2,2.1
				c-1,1.5-1.1,3.1-0.6,4.7c0.5,1.9,1.4,3.6,1.9,5.5c0.3,1.3,0,2.4-0.3,3.6c-0.3,1.2-0.9,1.1-2-0.3c-0.2,2.9,0.2,5.7,0.6,8.4
				c0.5,3.6,1.2,7.1,2.2,10.6c0.9,3,2,6,3.8,8.6c3.3,4.7,8.5,4.4,11.6-0.4c2.1-3.2,2.8-6.8,1.8-10.6c-0.5-1.8-1.6-3.5-2.3-5.3
				c-1.1-2.9-1.5-6-1.1-9.1c0.2-1.2-0.2-2.4-0.6-3.6c-0.3-0.8-0.7-1.5-1-2.3l0,0c2.8,1.8,4.7,4.2,5,7.5c0.2,1.6,0.2,3.2-0.1,4.9
				c1-0.5,1.7-1.5,2.8-1.1c0.4,0.1,0.9,0.2,0.7,0.6c-1.1,1.9-0.2,3.8,0.3,5.4c1.2,3.9,0.4,7.5-1,11.1c-1.6,4.3-2.9,8.7-2.6,13.5
				c0.1,1.7,0.7,3.2,0.8,4.8c-0.8-0.2-0.7-1-1.1-1.6c-2.3-4-5.9-6.4-10-8.1c-0.6-0.2-1.2-0.6-2-0.4c0.7,0.9,1.3,1.6,1.9,2.4
				c1,1.2,1.9,2.5,2.5,3.9c0.3,0.7,0.6,1.6-0.5,2c-2.1,0.7-5.4-1.2-6.1-3.3c-0.7-2.3-0.9-4.7-0.4-7.1c0.1-0.4,0.2-0.9-0.2-1.3
				c-0.5,0-0.7,0.5-1,0.8c-0.8,0.7-1.7,0.6-2.3-0.1c-1.1-1.3-2.5-2.4-3.6-3.7c-0.5-0.5-0.8-0.6-1.3-0.2c-0.8,0.6-1.3,0.5-2.1-0.1
				c-0.8-0.7-1.5-0.3-1.4,0.7c0.1,1.7,0.1,3.4,1.1,5c0.7,1.1,1.3,2.3,1.9,3.5c-1-0.4-1.8-1-2.6-1.5c-1-0.6-2.1-0.8-3.2-0.3
				c-0.4,0.2-0.7,0.5-0.1,0.9c2.2,1.2,2.6,3.2,2.6,5.4c0.1,4.4-1.5,8.4-3.3,12.3c-1.6,3.5-2,6.9-0.7,10.5
				C3,176.7,4.1,178.4,4.9,180.2z"/>
			<path class="st4" d="M341.4,180.2c-3.9,0-7.8,0-11.6,0c0.2-0.9,1.1-1.1,1.7-1.6c3-2.4,3.4-6,1.1-8.8c-0.3-0.4-0.6-0.5-1.1-0.5
				c-1.2,0.1-2.6,0.4-3.6,0c-1.2-0.5-1.8-0.8-2.3,0.6c-0.1,0.4-0.6,0.2-0.6,0c-0.3-1.1-1-2.1-0.8-3.5c0.4-2,0.6-4.1,0.8-6.1
				c0-0.3,0.2-0.8-0.3-1c-0.5-0.2-0.9,0.1-1.2,0.5c-0.8,0.9-1.5,2-1.9,3.1c-0.5,1.5-1.3,2.8-2.3,4c-0.7,0.8-1.5,1.4-2.7,1.1
				c-1-0.2-1.1-1.1-1.1-1.9c0.2-0.2,0.4-0.4,0.1-0.5c-0.2-0.1-0.3,0.2-0.3,0.3c-1.1,0.9-2.2,1.9-3.6,2.3c-2.8,0.7-5.4,0.1-7.8-1.6
				c-0.2-0.2-0.4-0.4-0.7-0.3c-0.3,0.1-0.3,0.5-0.2,0.7c0.1,1.7-0.9,2.3-2.4,1.7c-0.5-0.2-1-0.4-1.3-0.1c-0.8,0.8-2.1,0.6-2.9,1.5
				c0-0.3-0.1-0.5-0.1-0.6c-0.1-0.5,0.9-0.9,0.2-1.2c-0.6-0.3-0.7,0.5-1,0.9c-0.4,0.5-0.9,1.1-1.6,0.3c-0.7-0.8-1-0.2-1.3,0.4
				c-0.9,1.7-0.2,4.7,1.3,6c1.5,1.3,3,2.6,4.1,4.2c-0.9,0.6-1.8-0.2-2.7,0c-0.7,0.2-1.4,0.1-2.1,0.1c-2.3-1.6-4.6-3.2-6.5-5.4
				c-1.6-1.9-3.1-3.8-3.1-6.4c0-1.4,0.4-2.6,1.2-3.7c0.4-0.6,0.9-0.3,1.3-0.1c1.6,0.8,3.3,1.7,5.2,1.7c1.5,0,1.9-0.6,1.7-2.1
				c-0.3-2.1-1.5-3.7-2.2-5.6c0.7-0.5,1.3-1,2.2-0.3c0.2,0.2,0.6,0,0.9,0c0.1,0.2,0.2,0.4,0.3,0.6c-0.4,1,0.1,1.4,1.1,1.4
				c0.2,0.4,0.4,1,0.9,0.9c0.4-0.1,0.4-0.7,0.5-1.1c0.5-1.6,1.8-2.4,3.2-2.6c1.5-0.2,3-0.3,4.6,0.3c-0.3,0.1-0.4,0.2-0.6,0.3
				c-0.7,0.4-1.7,0.6-1.7,1.5c0,1,1,1.4,1.8,1.8c5,2.4,8.8,1,12.4-3c0.4-0.4,0.8-0.9,1.2-1.4c0.7,0.7,1.3,0.2,1.8-0.3
				c0.5-0.5,0.6-1.1,1.3-0.1c0.3,0.5,0.5-0.2,0.7-0.5c0.8-1.5,0.8-3.2,0.8-4.8c0-1.3,0.5-1.8,1.7-1.2c1.9,0.9,3.5,2.1,3.7,4.4
				c0.1,0.6,0.3,0.8,0.9,0.8c0.6,0,1.1-0.2,1.7-0.3c1.7-0.4,3.4,0.6,5.1,0.4c0.1,0,0.2,0.1,0.2,0.2c0.2,0.9,1.1,1,1.8,1.4
				c1.6,2.5,2.9,5.2,3.7,8.1c0.1,0.4,0.1,0.9,0.5,1.2C341.4,171.1,341.4,175.7,341.4,180.2z"/>
			<path class="st3" d="M56.9,94.2c3.7,2.9,6.3,6.3,5.8,11.2c-0.4,3.9-2.5,6.9-5.6,9.3c-0.2-1,0.5-1.8,0.8-2.6
				c1.4-3.9,0.9-5.5-2.5-7.9c-0.8-0.6-1.6-1.1-2.4-1.7c-2.2-1.6-3.2-3.7-2.8-6.4c0.1-1,0.3-2,0.4-3.4c0.6,1.4,1,2.4,1.5,3.4
				c0.7,1.5,1.9,2.3,3.5,2.7c1.4,0.3,2-0.2,2.1-1.6c0-0.5-0.1-1-0.2-1.5C57.2,95.1,57,94.7,56.9,94.2z M60.2,106.3
				c0.8-1.1,1-2.2,0.9-3.5c0-0.6-0.4-1.1-1-0.9c-1.5,0.3-2.9,0.3-4.4-0.5c0.5,0.9,1,1.8,1.9,2C59.3,103.8,60,104.8,60.2,106.3z"/>
			<path class="st2" d="M325.4,76.1c1.4,1.2,1.7,2.5,1.7,3.9c0,1.2,0.1,2.5,0.4,3.7c0.1,0.4,0,1.1,0.7,1c0.5,0,0.9-0.3,1-0.9
				c0.2-1.6,0.9-0.8,1.3-0.2c1.8,2.5,2.1,5.4,2.3,8.3c0,0.5,0,0.9,0,1.6c1.7-0.7,3.3-1.1,5,0.1c-2.1,1.1-2.1,3.2-2.5,5.2
				c-0.6,3.2-2,5.9-4.5,8c-0.2,0.2-0.4,0.5-1,0.5c0.4-1.8-0.7-2.9-1.9-3.9c-1-0.9-2-1.8-2.6-3.1c-1.1-2.2-0.8-3.8,1.1-5.4
				c0.4,0.3,0.3,0.7,0.5,1.1c0.2,0.7,0.4,1.5,0.8,2.1c0.4,0.6,0.9,1.4,1.6,1.2c0.7-0.2,0.3-1.1,0.4-1.7c0.3-2.9-0.7-5.2-3.1-6.8
				c-2.1-1.5-2.7-3.4-1.9-5.9C325.7,82.1,325.6,79.2,325.4,76.1z M328.9,91.4c0,0.4,0.2,0.7,0.6,0.8c1.3,1.9,1.2,4,1.1,6.1
				c-0.3,0.6-0.7,1.2-0.8,1.9c-1.7,0.2-2.4-1.1-3.3-2.2c-0.2-0.3-0.1-1-0.7-0.8c-0.5,0.2-0.3,0.7-0.2,1.1c0.5,1.9,1.7,3.2,3.2,4.1
				c1.4,0.9,2.2,1.9,1.6,3.9c2.7-2.2,3.8-4.9,4.1-8c0.2-1.7,0.2-3.5,1.6-4.9c-1.2-0.3-2.2,0-3.1,0.5c-0.7,0.3-1.3,0.5-1.3-0.6
				c0.2-2.6,0-5.1-1.1-7.4c-0.3-0.6-0.4-0.8-1-0.2c-1.4,1.2-2.4,0.7-3-1c-0.3-0.8,0.1-1.6-0.2-2.4c-0.4,1.4-0.9,2.8-0.8,4.4
				C325.8,88.9,327.4,90.1,328.9,91.4L328.9,91.4z"/>
			<path class="st4" d="M164.7,122.1L164.7,122.1c-0.1,0.9,0,1.5,0.8,1.9l0,0c0,0.2,0.1,0.5,0.3,0.6l0,0c0,0.3,0,0.5,0.3,0.6l0,0
				c0.1,0.1,0.2,0.2,0.3,0.3l0.1,0l0,0.1c0.1,0.1,0.2,0.3,0.3,0.5l0,0c0,0.3,0,0.5,0.4,0.6l-0.1,0c0.1,0.1,0.2,0.2,0.3,0.3l0,0
				c0.1,0.1,0.2,0.2,0.3,0.3c0.6,0.8,1.3,1.6,2,2.3c1.5,1.5,1.9,3.3,1.4,5.4c-0.3,1.3-0.6,2.7-1.5,4c-0.7-1.5-1.4-2.9-2.1-4.3
				c-1.1-2.4-2.6-4.3-4.8-5.8c-0.9-0.6-1.8-1.3-2.4-2.1c-1.4-1.7-1.3-4.1,0.2-5.8c0.4,0.8,0.5,1.9,1.2,2.5c0.4,0.3,0.6,1.1,1.4,0.5
				c0.4-0.2,0.1-0.5,0.1-0.7c0.1-0.7-0.4-1.6,0.3-1.9C163.9,120.7,164.1,121.9,164.7,122.1z"/>
			<path class="st5" d="M37.4,71.8c2.2,1.7,3.8,3.4,4.8,5.7c1.1,2.5,0.7,4.8-1,6.9c-1.3,1.5-2.7,3-4.2,4.2c-2.4,2-4.1,4.4-5.4,7.2
				c-0.1,0.2-0.1,0.5-0.6,0.7c0.2-3,1.4-5.5,3.2-7.7c0.3-0.4,0.6-0.8,1-1.2c4.5-3.6,4.4-8.3,3-13.3C38,73.6,37.7,72.8,37.4,71.8z"/>
			<path class="st3" d="M7.1,27.9c0.5,2,2,3.1,3.5,4.3c1.1,0.8,1.8,1.9,2,3.3c0.1,1-0.1,1.3-1.1,1c-1.9-0.6-3.3-1.6-4-3.5
				c-0.4-1-0.7-2-0.8-3.1c0-0.1,0-0.2,0-0.3c-0.1-0.4-0.1-0.7-0.2-1.1c0.2-0.3,0.1-0.8,0.5-1l0,0C7,27.7,7.1,27.8,7.1,27.9z"/>
			<path class="st4" d="M216,145c0.1-0.1,0.2-0.2,0.3-0.3c0.2,0,0.3-0.1,0.2-0.3c0-0.1,0.1-0.2,0.1-0.2c0.4-0.3,0.6-0.7,0.5-1.2
				c0.5-1.9,1-3.7,0.2-5.7c-0.2-0.6-0.1-1.3,0.6-2.2c0.2,2.2,1.5,3.7,1.9,5.6c0.5,2.1-0.5,3.9-2.3,5.1c-0.6-0.1-0.9,0.2-1.2,0.7
				l0,0.1c-0.2,0-0.2,0.1-0.2,0.3c0,0.1-0.1,0.2-0.1,0.3c-0.8-0.1-0.5-0.8-0.6-1.2l0,0C215.8,145.7,215.9,145.4,216,145z"/>
			<path class="st3" d="M124.8,118.6c-1.2-0.2-2-0.7-2.4-1.7c-0.4-1,0.2-1.7,0.9-2.4c1.3-1.3,2-2.9,2.6-4.7c0.7,1,1.1,2,1.3,3
				c0.1,0.7,0.1,1.3-0.5,1.8C125.2,115.6,124.7,116.9,124.8,118.6z"/>
			<path class="st3" d="M164.7,122.1c-0.6-0.2-0.8-1.3-1.5-1c-0.6,0.3-0.2,1.3-0.3,1.9c0,0.2,0.3,0.5-0.1,0.7
				c-0.4-2.7-0.6-5.3-0.2-8c0.2-1.6,0.8-3,2.5-3.7C165.3,115.5,163.1,118.7,164.7,122.1z"/>
			<path class="st4" d="M306.6,92.8c0.1,1.6-0.4,3-1.4,3.9c-1.8,1.7-2,3.6-1.4,5.8c-0.7-0.9-1.1-2-1.4-3c-0.6-1.9-0.4-2.4,1.3-3.5
				C304.9,95.2,305.7,94,306.6,92.8z"/>
			<path class="st3" d="M337.4,117.4c1.1,1,1.8,2.2,2.5,3.5c0.5,1-1,3.7-2.2,3.9c-0.6,0.1-0.3-0.5-0.4-0.8c0-0.4,0.1-0.8-0.3-1.1
				c-0.1-0.2-0.1-0.4-0.2-0.6c0,0,0.1-0.1,0.1-0.1c0-0.1-0.1-0.1-0.1-0.2c-0.1-0.1-0.1-0.1-0.1-0.2
				C337,120.3,337.2,118.9,337.4,117.4z"/>
			<path class="st4" d="M337.4,117.4c-0.2,1.5-0.4,2.9-0.7,4.4c-2.4-2.9-2.3-4.4,0.2-7.6C337.3,115.3,337.5,116.4,337.4,117.4z"/>
			<path class="st4" d="M153.6,139c1.2,0.9,1.7,2.6,1,3.7c-0.5,0.9-1.5,0.5-2.3,0.5c-0.8,0-1.1-0.7-1.1-1.4c0-0.8,0.4-1.3,1.1-1.4
				C153.1,140.3,153.6,140,153.6,139z"/>
			<path class="st4" d="M159.1,114.4c-2.5-2.9-2.7-6.3,0.5-7c0.2,0.4-0.2,0.7-0.4,1c-0.6,1-0.7,1.9,0,3
				C159.8,112.5,159.7,113.2,159.1,114.4z"/>
			<path class="st3" d="M55,87.5c-0.8-1-1.6-1.9-2.4-2.7c-1-0.9-0.6-2.3,0.5-2.9c0.6-0.3,0.6,0.1,0.7,0.5c0.2,0.8,0.5,1.4,1.1,1.9
				C56.2,85.6,56.2,85.8,55,87.5z"/>
			<path class="st6" d="M197.1,142.7c1.5,0.9,2.3,2.1,2.3,3.9c0,0.3,0.1,0.6-0.2,0.8c-0.3,0.1-0.5-0.2-0.7-0.4
				c-1.2-1.3-2.5-2.5-3.6-4C195.7,143.3,196.3,142.5,197.1,142.7z"/>
			<path class="st4" d="M154.1,161.8c-0.2,0.9-0.4,1.9-1.5,1.9c-1.1,0-1.4-0.8-1.5-1.7c0-1,0.3-1.9,1.5-1.9
				C153.6,160.1,153.9,161,154.1,161.8z"/>
			<path class="st4" d="M197.1,142.7c-0.8-0.2-1.4,0.6-2.2,0.3c-1.6-1.7-1.4-3.5,0.6-5C195.6,139.9,195.6,141.6,197.1,142.7z"/>
			<path class="st4" d="M46.3,111.9c1.1,0.9,1.5,2.6,0.9,3.6c-0.5,0.8-1.2,0.3-1.8,0.1c-0.6-0.2-1-0.7-0.4-1.3
				C45.6,113.7,45.9,112.8,46.3,111.9z"/>
			<path class="st4" d="M180.6,118.8c0.1-0.8,0.4-1.6,1.4-1.6c1.1,0,1.4,0.8,1.4,1.7c0,0.8-0.4,1.6-1.4,1.6
				C180.9,120.6,180.8,119.7,180.6,118.8z"/>
			<path class="st4" d="M306.7,118.9c1.2,1.1,1.6,2.7,1,3.7c-0.5,0.7-1.2,0.4-1.8,0.2c-0.6-0.2-0.8-0.8-0.4-1.4
				C306.1,120.7,306.7,120.1,306.7,118.9z"/>
			<path class="st4" d="M335.3,79c1.4,1.1,1.8,2.7,1,3.8c-0.5,0.7-1.2,0.2-1.8,0c-0.7-0.3-0.7-0.9-0.2-1.4
				C334.9,80.8,335.3,80.1,335.3,79z"/>
			<path class="st4" d="M269.3,137.1c1.2,0.7,1.8,2.7,1,3.6c-0.5,0.6-1.2,0.3-1.8,0c-0.6-0.3-0.6-0.8-0.3-1.3
				C268.7,138.8,269.2,138.1,269.3,137.1z"/>
			<path class="st4" d="M84.4,156.5c0,0.8-0.4,1.4-1.3,1.5c-1,0-1.4-0.8-1.4-1.6c0-0.8,0.4-1.5,1.3-1.6
				C84.1,154.8,84.3,155.5,84.4,156.5z"/>
			<path class="st4" d="M108.1,145.8c-0.1,0.8-0.4,1.6-1.3,1.6c-1,0-1.4-0.7-1.4-1.6c0-0.8,0.3-1.5,1.3-1.6
				C107.7,144.2,108,145,108.1,145.8z"/>
			<path class="st4" d="M162.8,107.7c0,0.9-0.3,1.6-1.2,1.7c-1.1,0-1.3-0.8-1.3-1.6c0-0.8,0.3-1.5,1.3-1.5
				C162.5,106.2,162.8,107,162.8,107.7z"/>
			<path class="st4" d="M136.4,103.6c-0.1,0.9-0.4,1.7-1.4,1.7c-0.9,0-1.3-0.7-1.3-1.5c0-0.9,0.4-1.6,1.4-1.6
				C136,102.1,136.3,102.9,136.4,103.6z"/>
			<path class="st4" d="M318.3,54.8c1.1,1,1.6,2.7,0.9,3.7c-0.5,0.7-1.2,0.3-1.8,0.1c-0.7-0.3-0.7-0.9-0.3-1.4
				C317.6,56.4,318.1,55.7,318.3,54.8z"/>
			<path class="st4" d="M225.3,163.5c-0.2,0.8,0.1,2.1-1,2.1c-1,0-1-1.2-1-2c0-0.8-0.1-2.1,1-2.1
				C225.4,161.4,225.2,162.7,225.3,163.5z"/>
			<path class="st4" d="M297.5,131.7c-0.2,0.4-0.8,0.2-1.1,0.5c-0.3-0.2-0.6-0.4-0.9-0.7c-0.6-0.5-0.9-1.2-0.5-2
				c0.3-0.6,0.9-0.9,1.5-0.6c0.8,0.3,1.1,1,0.9,1.8C297.5,131.1,297.3,131.4,297.5,131.7z"/>
			<path class="st3" d="M72.8,82.8c0.1-0.8,0.3-1.5,1.3-1.6c0.9,0,1.3,0.7,1.3,1.5c0,0.8-0.2,1.6-1.3,1.6
				C73.1,84.3,73,83.6,72.8,82.8z"/>
			<path class="st3" d="M5.5,1.3c0,1.1-0.3,1.8-1.3,1.8C3.3,3.1,3,2.4,3,1.6C3,0.7,3.3,0,4.3,0C5.2,0,5.5,0.7,5.5,1.3z"/>
			<path class="st4" d="M242.4,158.4c0.8,0.1,1.4,0.4,1.4,1.3c0,0.8-0.4,1.2-1.2,1.3c-0.9,0-1.3-0.4-1.3-1.3
				C241.2,158.9,241.7,158.5,242.4,158.4z"/>
			<path class="st4" d="M303.4,145.1c-0.1,0.7-0.4,1.2-1.2,1.2c-0.8,0-1.2-0.5-1.2-1.2c0-0.8,0.4-1.2,1.2-1.2
				C302.9,143.9,303.3,144.4,303.4,145.1z"/>
			<path class="st4" d="M249.5,147.9c-0.2,0.8-0.1,1.9-1.2,2.1c-0.6,0.1-0.5-0.7-0.5-1.1c0.1-0.8,0.1-1.8,1.1-2.1
				C249.5,146.7,249.4,147.4,249.5,147.9z"/>
			<path class="st0" d="M53,131.7c-0.2,1.1-0.7,2-1.2,3c-0.1,0.2-0.2,0.4-0.5,0.3c-0.3-0.1-0.1-0.3-0.1-0.6c0.5-1.5,0.5-3.1,0.5-4.7
				c0.6,0.4,0.4,1,0.4,1.5C52.2,131.9,52.5,132.1,53,131.7z"/>
			<path class="st4" d="M256,146.1c0.7,0,1.2,0.2,1.3,0.9c0,0.7-0.5,1-1.1,1c-0.5,0-1.1-0.1-1.1-0.8
				C255,146.5,255.5,146.2,256,146.1z"/>
			<path class="st3" d="M306.5,130.7c-0.2-0.8-1-0.2-1.3-0.6c1.2-0.3,2.3-0.2,3.5,0C307.9,130.3,307.2,130.5,306.5,130.7z"/>
			<path class="st7" d="M6.9,27.5c-0.5,0.2-0.3,0.7-0.5,1C6,27.2,6,26,6.2,24.4C6.7,25.6,6.8,26.6,6.9,27.5z"/>
			<path class="st7" d="M215.3,145.8c0.2,0.4-0.2,1.1,0.6,1.2c0,0.3,0,0.5,0,0.8l0,0C214.9,147.4,214.4,146.8,215.3,145.8z"/>
			<path class="st3" d="M165.5,124c-0.8-0.4-0.9-1.1-0.9-1.9C165.1,122.7,165.3,123.3,165.5,124z"/>
			<path class="st7" d="M216.3,146.4c0.2-0.5,0.6-0.8,1.2-0.7C217.3,146.2,216.8,146.4,216.3,146.4z"/>
			<path class="st7" d="M217,142.9c0.1,0.5-0.1,0.9-0.5,1.2C216.5,143.7,216.5,143.2,217,142.9z"/>
			<path class="st7" d="M216,145c0,0.4-0.2,0.7-0.6,0.7C215.4,145.4,215.5,145.1,216,145z"/>
			<path class="st6" d="M337.1,122.9c0.4,0.3,0.3,0.7,0.3,1.1C337.1,123.7,337.1,123.3,337.1,122.9z"/>
			<path class="st0" d="M51.7,129.3c-0.2-0.2-0.2-0.4-0.2-0.6C51.8,128.8,51.8,129,51.7,129.3z"/>
			<path class="st3" d="M165.8,124.6c-0.3-0.1-0.3-0.3-0.3-0.6C165.7,124.1,165.8,124.3,165.8,124.6z"/>
			<path class="st3" d="M166.1,125.1c-0.3-0.1-0.3-0.3-0.3-0.6C166,124.7,166.1,124.9,166.1,125.1z"/>
			<path class="st3" d="M167,126.5c-0.3-0.1-0.3-0.3-0.4-0.6C166.9,126.1,167,126.3,167,126.5z"/>
			<path class="st7" d="M216.4,144.4c0,0.2,0,0.3-0.2,0.3C216.3,144.6,216.4,144.5,216.4,144.4z"/>
			<polygon class="st5" points="331.2,117 331.2,116.9 331.2,116.9 			"/>
			<path class="st7" d="M216.1,146.7c0-0.2,0-0.2,0.2-0.3C216.2,146.6,216.2,146.7,216.1,146.7z"/>
			<path class="st7" d="M216,147.9C216,147.9,216,147.9,216,147.9C216,147.9,216,147.9,216,147.9L216,147.9z"/>
			<path class="st7" d="M6.6,29.5c0,0.1,0,0.2,0,0.3c0-0.1-0.1-0.1-0.1-0.2C6.5,29.6,6.5,29.6,6.6,29.5z"/>
			<path class="st7" d="M7.1,27.9C7.1,27.8,7,27.7,7,27.5C7,27.7,7.1,27.8,7.1,27.9z"/>
			<path class="st6" d="M336.9,122c0,0.1,0.1,0.1,0.1,0.2c0,0,0,0.1-0.1,0.1C336.9,122.2,336.9,122.1,336.9,122z"/>
			<polygon class="st5" points="168.3,141.6 168.4,141.6 168.3,141.6 			"/>
			<polygon class="st0" points="53.3,131.5 53.3,131.6 53.2,131.6 53.2,131.5 			"/>
			<path class="st3" d="M166.3,125.4c-0.1-0.1-0.2-0.2-0.3-0.3C166.2,125.2,166.2,125.3,166.3,125.4z"/>
			<path class="st3" d="M166.6,126c-0.1-0.2-0.2-0.3-0.3-0.5C166.4,125.7,166.5,125.9,166.6,126z"/>
			<path class="st3" d="M167.5,127.1c-0.1-0.1-0.2-0.2-0.3-0.3C167.3,126.9,167.4,127,167.5,127.1z"/>
			<path class="st3" d="M167.2,126.8c-0.1-0.1-0.2-0.2-0.3-0.3C167.1,126.5,167.2,126.7,167.2,126.8z"/>
			<path class="st3" d="M172.3,179.9c-0.6,0.1-1.1,0.3-1.8,0.3c-9.7,0-19.3,0-29,0c-0.2,0-0.5,0-0.7-0.1c1.8-3.7,2.8-7.6,2.5-11.7
				c0-0.3,0.1-0.7-0.2-0.9c-0.3-0.2-0.7,0.1-0.9,0.3c-0.9,0.9-2.1,1.3-3.2,1.8c-2.3,1-4.5,1-6.8-0.4c-2.7-1.7-3.9-4.1-4.5-7.1
				c-0.2-1.1-0.1-2.3-1.8-2.6c-0.7-0.1-1.4-1.3-0.6-2.3c0.5-0.7,0.9-1.5,0.9-2.4c-0.3-0.1-0.4,0.1-0.5,0.2c-2,2.5-4.4,4.5-7.2,6
				c-3.1,1.7-5.8,3.8-7.1,7.3c-0.6,1.6-1,3.2-1.3,4.9c-0.1,0.4-0.1,1.4-1,0.7c-2-1.6-4.5-3-3.6-6.3c-0.4-0.1-0.5,0-0.7,0.2
				c-1.4,1.6-2.6,3.3-3.2,5.5c-2.5-3.6-5.1-4.7-9.3-3.9c-0.1-0.8-0.2-1.7-0.5-2.5c-0.4-1.2,0.2-1.5,1.2-1.5c1.4,0,2.8-0.2,4.2,0.5
				c0.7,0.4,1.1,0.4,0.9-0.7c-0.9-3.5-0.4-6.8,1.7-9.8c0.4-0.6,1-1.6,1.6-1.4c0.7,0.2,0.3,1.2,0.3,1.9c0.1,2.5,0.6,4.9,2.3,6.9
				c2.1,2.3,6.4,2.1,8.8,0.7c3-1.8,4.5-4.7,5.9-7.8c0.9-2,1.5-4.1,2.1-6.4c0.5,1,0.5,1.9,1,2.7c0.6,0.9,1.3,1.3,2.4,1.2
				c1-0.1,1-1,1.1-1.7c0.5-2.3,0.1-4.7,0.8-7c0.9-3.2,2.8-5.6,6-6.9c2-0.8,4.1,0.1,3.7,2.5c-0.1,0.5,0,1-0.2,1.5
				c-0.3,1.1-0.5,1.9-2.1,1.1c-1.6-0.8-2.4-0.5-3.2,1.1c-2.9,5.2-0.8,12.3,5.8,13.1c2.7,0.4,5.1,0.2,7.3-1.4
				c1.1-0.8,0.8,0.2,0.9,0.7c0.3,3.9,0.6,7.8,1.9,11.5c1.8,5,4.9,8.4,10.3,9.3c4.2,0.7,5.9-1.1,4.7-5.1c-0.1-0.2-0.1-0.4-0.3-1
				c1.8,1.8,3.2,3.7,5.2,4.8c0.3-0.3,0.1-0.5,0-0.7c-0.2-0.3-0.8-0.6-0.7-1c0.2-0.6,0.8-0.3,1.3-0.3c1.9-0.1,2.9,1.2,3.9,2.6
				c0.1,0.2,0.2,0.6,0.5,0.6c0.4,0,0.5-0.4,0.6-0.7c0.5-1.3-0.2-2.4-0.6-3.5c-0.5-1.2-1.2-2.4-2.3-3.3c-0.9-0.8-1.8-1.7-2.6-2.6
				c-2.9-2.9-3.3-6.6-1.2-10.1c0.7-1.1,1.7-2.2,1.8-3.6c0.1-1-0.1-1.8-0.8-2.7c1.8,0,2.7,0.9,3.4,2.1c1,1.7,2.3,2.5,4.3,2.4
				c1.9-0.1,3.2-1.3,3.3-3.3c0.1-1.6-0.1-3.1-0.4-4.6c-0.7-3,0.2-5.5,2.5-7.4c0.1-0.1,0.3-0.2,0.7-0.2c-1.3,2-1.2,4.2-1.1,6.4
				c0.1,1.3,0.4,2.6,0.5,3.9c0.4,2.7-0.7,5-1.6,7.4c-1.1,3.1-1.2,6.2,0.1,9.3c1.2,2.9,3.5,4.3,6.1,5.6c0.6,0.3,0.7-0.2,0.7-0.7
				c0-0.8,0.2-1.5,0.8-2.1c0.3-0.3,0.5-0.6,1-0.4c0.4,0.2,0.3,0.6,0.3,0.9c0,1.2,0,2.3,1,3.1c1.5,1.2,3.4,1,4-0.8
				c1-2.9,3.2-4.6,5.4-6.3c1.9-1.5,2.3-2.4,1.6-4.7c-0.1-0.3-0.4-0.7-0.1-0.9c0.3-0.3,0.7-0.1,1,0.2c0.8,0.7,1.4,1.4,1.3,2.5
				c-0.1,0.6,0,1.1,0,1.7c1.9-1,3.7-5.1,3.1-7c-0.1-0.4-0.6-0.8,0-1.1c0.4-0.2,0.8,0.2,1.1,0.5c1.1,1.5,1.4,3.2,1,5.1
				c-0.3,1.7-1.1,3.3-0.7,5.1c0.7,3.5,3.1,5.4,6.1,6.7c3.3,1.3,6.8,1.5,10.6,1.5c-1.5-1.3-2.6-2.5-2.8-4.5c1.4,0.9,2.4,1.8,3.8,2.3
				c1.8,0.6,3.5,1.2,5.5,1.1c3.1-0.1,6.2-0.3,9.3,0.6c3,0.9,3.4,1.7,2.8,4.8c0,0.2-0.1,0.5-0.1,0.7c-9.9,0-19.9,0-29.8,0
				c-0.3,0-0.7,0.2-0.8-0.3c1.4-0.9,1.4-1.2,0.4-2.4c-0.9-1-2.1-1.1-3.1-1.7c-1.7-1.8-3.5-3.6-4-6.1c-0.1-0.6-0.6-0.3-1-0.1
				c-0.7,0.5-0.7,1.3-0.8,2.3c-0.9-1.1-1.9-1.6-3-1.7c-0.4-0.1-1.1-0.2-1.3,0.3c-0.2,0.4,0.5,0.5,0.7,0.7c0.2,0.2,0.4,0.4,0.6,0.6
				c0.5,0.4,0.6,1,0.3,1.5c-0.3,0.6-0.8,0.4-1.4,0.3c-2-0.4-3.6,0.2-4.8,1.9c-1,1.7-0.2,3.1,0.5,4.6c-2.5,0-5,0-7.5,0.1
				c-0.5,0-0.9-0.2-1.2-0.6c0.2-1.7-0.7-2.6-2.1-3.4c-2.6-1.4-5.5-2.6-7.2-5.2c-1-1.7-1.2-3.4-0.4-5.3c0.6-1.5,0.8-3,0.7-4.6
				c-0.1-1.8-0.9-3.1-2.3-4.2c-0.3-0.2-0.6-0.6-1-0.2c-0.3,0.3,0,0.6,0.2,0.9c1.8,3.2,0.4,6.2-0.6,9.5c-0.5-0.9-0.8-1.6-1.1-2.2
				c-0.8-1.2-2.6-1.4-3.6-0.4c-0.3,0.3-0.5,0.8,0.1,0.8c1.9,0.1,2.3,1.4,2.7,2.9c0.5,1.6,1.4,3,3,3.8c0.5,0.5,1,1,1.5,1.5
				c1.8,2.4,1.4,4.4-1.1,6C172.7,179.7,172.5,179.8,172.3,179.9z"/>
			<path class="st4" d="M4.9,180.2c-0.8-1.8-1.9-3.5-2.5-5.5c-1.2-3.6-0.9-7.1,0.7-10.5c1.8-3.9,3.4-7.9,3.3-12.3
				c0-2.2-0.5-4.2-2.6-5.4c-0.6-0.4-0.4-0.7,0.1-0.9c1.1-0.6,2.2-0.3,3.2,0.3c0.8,0.5,1.6,1.1,2.6,1.5c-0.6-1.2-1.2-2.4-1.9-3.5
				c-1-1.5-1-3.3-1.1-5c-0.1-1,0.6-1.4,1.4-0.7c0.8,0.6,1.3,0.7,2.1,0.1c0.5-0.4,0.8-0.3,1.3,0.2c1.1,1.3,2.5,2.4,3.6,3.7
				c0.6,0.7,1.4,0.8,2.3,0.1c0.3-0.3,0.4-0.8,1-0.8c0.4,0.4,0.3,0.9,0.2,1.3c-0.5,2.4-0.3,4.8,0.4,7.1c0.6,2.1,4,4,6.1,3.3
				c1.1-0.4,0.8-1.3,0.5-2c-0.6-1.4-1.5-2.7-2.5-3.9c-0.6-0.7-1.2-1.5-1.9-2.4c0.9-0.2,1.5,0.1,2,0.4c4.1,1.7,7.7,4.1,10,8.1
				c0.3,0.5,0.2,1.4,1.1,1.6c0.1,0.3,0.2,0.5,0.3,0.8c-0.2,0.2-0.2,0.4-0.1,0.6c1,1.9,1.6,4,2.1,6.1c0.2,0.9,0.5,0.9,1.2,0.5
				c2.5-1.5,5-3,7.6-4.4c3.2-1.7,6.5-2.3,9.9-0.9c0.7,0.3,1.5,0.4,1.9,1.2c-3.2,0.5-5.5,2.3-7.4,4.7c-1,1.4-1,3.6-0.1,4.8
				c2,2.4,5.6,2.9,8.4,1.4c2-1.2,2.4-3.1,2.9-5.1c0.4-1.5,0-3.1,0.8-4.7c1.9,2.4,3.4,5,4.6,7.6c0.9,1.9,0.6,3.6-0.2,5.4
				c-1.3,2.6-3.2,4.8-4.8,7.1c-1.9,0-3.8,0-5.7,0c0-0.2-0.1-0.2-0.3-0.2c-0.3,0-0.5,0-0.8,0c-2-3.1-1.6-5.2,1.2-6.9
				c-2.4-1.5-5.4,0-5.7,2.3c-0.2,1.2-0.7,1.1-1.4,0.5c-1-0.8-1.9-1.7-2.2-3c-0.1-0.4-0.1-1-0.9-1c-0.1,0.8-0.1,1.6,0.1,2.4
				c0.2,0.8,0.5,1.5,0.2,2.4c-0.2,0.7-0.6,1.1-1.3,1.1c-0.7,0-1.2-0.3-1.4-1c-0.1-0.3-0.1-0.6-0.1-0.8c0-0.2,0-0.5-0.3-0.6
				c-0.3-0.1-0.6,0.1-0.7,0.4c-0.3,0.9-0.9,1.8-0.2,3c-2-0.4-3.2,0.3-4.2,1.7c-0.5,0.4-0.9,0-1.4-0.1c0.6-1.1,0.5-2.6,1.6-3.5
				c0.2-0.2,0.6-0.2,0.5-0.6c-0.1-0.4-0.4-0.5-0.7-0.5c-0.4,0-0.8-0.1-1.1,0c-0.8,0.1-1-0.2-0.5-0.9c0.8-1.1,0.4-2.1,0.2-3.3
				c-0.3-1.7-1.5-1.3-2.7-1.5c-4.2-0.8-5.5-1.8-5.4-5.6c0.1-1.5,0.1-3,0.3-4.6c-1.5,0.8-2.8,1.5-4.2,1.7c-2.9,0.3-4.5,1.9-5.2,4.6
				c-0.2,0.6-0.5,0.9-1.1,1c-4.1,0.7-6.1-0.5-6.5-4.6c-0.2-1.9-0.8-3.7-1.9-5.4c0.6,2.4,0.8,4.8,0.2,7.3c-0.7,2.6,0.1,4.7,1.9,6.7
				c1.7,1.9,4,3,6.2,4.6c-1.3-0.1-2.4-0.6-3.5-0.2c-0.4,0.1-1,0.2-0.5,0.7c1.5,1.3,2,3.7,4.4,4.1c-2.3,0.4-4.7,0.1-7,0.2
				C9.1,180.3,7,180.2,4.9,180.2z"/>
			<path class="st3" d="M61.1,180.2c1.6-2.4,3.6-4.5,4.8-7.1c0.9-1.8,1.1-3.5,0.2-5.4c-1.2-2.7-2.7-5.2-4.6-7.6
				c-0.8,1.6-0.4,3.2-0.8,4.7c-0.5,2-0.8,3.9-2.9,5.1c-2.7,1.5-6.4,1-8.4-1.4c-1-1.2-1-3.4,0.1-4.8c1.8-2.4,4.2-4.2,7.4-4.7
				c-0.4-0.8-1.3-0.9-1.9-1.2c-3.4-1.5-6.7-0.9-9.9,0.9c-2.6,1.4-5.1,2.9-7.6,4.4c-0.7,0.5-1,0.4-1.2-0.5c-0.5-2.1-1.1-4.2-2.1-6.1
				c-0.1-0.2-0.2-0.4,0.1-0.6c0.7,1.1,1.4,2.1,2.1,3.2c0.2,0.2,0.3,0.5,0.5,0.6c1.8,1.7,2.5,1.6,4-0.4c2.9-3.8,4.2-8.1,4.6-12.8
				c0-0.6,0.2-1.1,0.3-1.7c0.1-0.4-0.1-0.8,0.3-1c0.4-0.2,0.8,0.1,1.2,0.4c0.9,0.7,1.1,1.7,1.1,2.8c0,0.4-0.3,1.1,0.3,1.2
				c0.5,0.2,0.8-0.4,1.1-0.7c1.1-1.3,1.9-2.7,2.5-4.2c1.5-3.8,3.9-6.6,7.8-8c0.6-0.2,1.2-0.3,1.8-0.3l0,0c-0.6,0.9-1.5,1.5-1.8,2.6
				c-0.1,0.4-0.3,0.8,0.1,1.2c0.4,0.3,0.8,0.2,1.2,0c0.7-0.3,1.1-0.9,1.6-1.3c0.4-0.4,0.7-1,1.4-1l0,0c-0.4,1.5-1.4,2.7-2,4
				c-1.7,3.5-3.2,7.1-4,11c-0.4,1.9-0.7,3.8-0.2,5.7c0.2,1,0.7,1.3,1.6,0.7c2.1-1.5,3.8-3.4,5.5-5.3c2.2-2.5,4.3-5.1,6.2-7.9
				c0.2-0.2,0.3-0.3,0.6-0.3l0,0c-1.2,2.9-2.4,5.7-3.3,8.7c-1,3.3-1.8,6.7-1.7,10.2c0.3,7.9,4.4,11.7,12.1,12.8c2,0.3,4,0.5,6.1,0.4
				c3.7-0.3,6.4-2.1,6.9-5.8c0.5,0,0.6,0.5,0.6,0.8c0.8,2.9,1.1,5.9,0.5,8.9c-9.9,0-19.9,0-29.8,0C62.8,180.2,61.9,180.7,61.1,180.2
				z"/>
			<path class="st4" d="M93.4,180.2c0.6-3,0.3-6-0.5-8.9c-0.1-0.4-0.1-0.8-0.6-0.8c0-0.4,0-0.7,0-1.1c4.2-0.8,6.8,0.2,9.3,3.9
				c0.6-2.2,1.7-3.9,3.2-5.5c0.2-0.2,0.3-0.3,0.7-0.2c-0.9,3.3,1.6,4.6,3.6,6.3c0.9,0.7,0.9-0.3,1-0.7c0.3-1.7,0.7-3.3,1.3-4.9
				c1.3-3.5,4-5.6,7.1-7.3c2.8-1.5,5.3-3.4,7.2-6c0.1-0.2,0.2-0.3,0.5-0.2c0,0.9-0.4,1.7-0.9,2.4c-0.8,1.1,0,2.2,0.6,2.3
				c1.7,0.3,1.6,1.6,1.8,2.6c0.6,3,1.8,5.4,4.5,7.1c2.3,1.4,4.5,1.4,6.8,0.4c1.1-0.5,2.3-0.9,3.2-1.8c0.2-0.2,0.5-0.5,0.9-0.3
				c0.4,0.2,0.2,0.6,0.2,0.9c0.3,4.2-0.7,8-2.5,11.7c-4.5,0-9,0-13.5,0c-0.7-1.4-1.5-2.7-0.5-4.3c0.2-0.4,0.6-0.9,0.2-1.3
				c-0.4-0.5-1.1-0.1-1.4,0.2c-0.8,0.6-0.9,0.2-1.1-0.5c-0.3-1.3-1.1-2.4-2.2-3.2c-0.7-0.5-1.1-1.2-1.3-1.9c-0.1-0.3,0-0.8-0.4-0.8
				c-0.5,0-0.6,0.5-0.7,0.9c-0.2,1.3-0.2,2.5-0.3,3.8c0,1.1-0.3,2.1-1.3,2.8c-1.1,0.8-1.3,0.7-1.7-0.6c-0.1-0.4-0.2-0.7-0.3-1.1
				c-0.2-0.6-0.6-1.1-1.2-1c-0.6,0.1-0.5,0.8-0.6,1.3c-0.1,0.9,0.5,1.7,0.4,2.7c-1.2-0.5-2.3-0.6-3.3,0.2c-0.7,0.6-0.7,1,0.1,1.5
				c0.6,0.4,1.4,0.4,1.6,1.2C106.6,180.2,100,180.2,93.4,180.2z"/>
			<path class="st3" d="M337.1,157.2c-0.7-0.4-1.6-0.5-1.8-1.4c0-0.1-0.1-0.2-0.2-0.2c-1.7,0.3-3.4-0.8-5.1-0.4
				c-0.5,0.1-1.1,0.3-1.7,0.3c-0.6,0-0.8-0.2-0.9-0.8c-0.2-2.3-1.8-3.5-3.7-4.4c-1.2-0.6-1.8-0.2-1.7,1.2c0,1.7,0,3.3-0.8,4.8
				c-0.2,0.3-0.4,0.9-0.7,0.5c-0.6-1-0.8-0.3-1.3,0.1c-0.5,0.5-1.1,1-1.8,0.3c0.6-1.8,2-3.2,2.6-5c1.4-3.9,1.8-7.9,2.5-11.9
				c0.2-1.1,0.1-2.3,0.7-3.6c0.5,2.5,0.9,4.8,1.9,7c1,2.1,2.2,4.1,4.4,5.6c0.1-2.2,0.5-4.1,2.1-5.5c0.1-0.1,0.2-0.2,0.3-0.3
				c0.5-0.4,1.2-1.1,1.7-0.8c0.7,0.3,0,1.1,0,1.6c-0.6,4.2,0.8,8,2.8,11.5C336.7,156.3,337.1,156.7,337.1,157.2z"/>
			<path class="st3" d="M270.2,166.6c-0.7,0.1-0.9-0.5-1.2-0.9c-0.7-0.7-1.4-0.8-2.3-0.5c-0.7,0.2-1.3,1-1.6-0.4
				c-0.1-0.3-0.7,0-1,0.1c-0.9,0.5-1.8,0.6-2.8,0.8c0.6-2,0.1-4,0.5-6c0.2-1.2,0.6-2.3,1.4-3.1c0.4-0.4,0.7-0.8,0.8-1.3
				c0.1-0.3-0.2-0.9,0.3-1c0.5-0.1,0.8,0.4,1.1,0.8c1.1,1.4,1.4,3,1.2,4.7c-0.2,1.2,0.3,1,0.9,0.6c0.9-0.5,1.8-0.6,2.7-0.6
				c0.9,0,1,0.3,0.7,1.1C270.5,162.7,270.1,164.6,270.2,166.6z"/>
			<path class="st3" d="M293.7,158.3c-0.3,0-0.7,0.1-0.9,0c-0.9-0.7-1.5-0.1-2.2,0.3c-1-1.4-0.6-3-0.5-4.5c0.1-2.1,0.6-4.1,1.6-6
				C291.6,151.7,292.2,155.1,293.7,158.3z"/>
			<path class="st3" d="M295.1,160.3c-0.9-0.1-1.5-0.4-1.1-1.4C294.6,159.2,294.9,159.8,295.1,160.3z"/>
			<path class="st3" d="M261.3,166c-0.1,1.4-1,1.2-1.9,0.9C260.1,166.8,260.6,166.2,261.3,166z"/>
			<path class="st8" d="M23.4,108.5c0.2,0.1,0.4,0.3,0.2,0.5c-0.2,0.2-0.4,0-0.6-0.1C23.1,108.8,23.2,108.6,23.4,108.5z"/>
			<path class="st3" d="M27.9,107.8c-0.1-0.1-0.1-0.2-0.2-0.3C28,107.5,27.8,107.8,27.9,107.8L27.9,107.8z"/>
			<path class="st3" d="M18.5,61c-0.1,0-0.2-0.1-0.4-0.1C18.4,60.7,18.4,60.9,18.5,61L18.5,61z"/>
			<path class="st3" d="M72.2,144.2c0-0.1,0.1-0.2,0.1-0.4C72.5,144,72.3,144.1,72.2,144.2L72.2,144.2z"/>
			<path class="st3" d="M64.5,136.2c0-0.1,0.1-0.2,0.1-0.4C64.9,136.1,64.6,136.1,64.5,136.2L64.5,136.2z"/>
			<path class="st3" d="M28.2,108.1c-0.1-0.1-0.2-0.2-0.3-0.3l0,0C28,107.9,28.1,108,28.2,108.1L28.2,108.1z"/>
			<path class="st3" d="M61.9,134.8c0,0,0-0.1,0.1-0.1C62,134.7,62,134.8,61.9,134.8L61.9,134.8z"/>
			<path class="st0" d="M192.9,180.2c-0.8-1.5-1.5-2.9-0.5-4.6c1.3,0.1,2.6,0.2,3.8,0.3c2.4,0.1,4.8-0.3,7.2,0.2
				c1.1,0.2,2.4,0.5,3.5-0.3c1,0.6,2.3,0.7,3.1,1.7c1.1,1.2,1,1.5-0.4,2.4C204.1,180.3,198.5,180.1,192.9,180.2z"/>
			<path class="st0" d="M174.9,171.1c1.8,2.6,4.6,3.8,7.2,5.2c1.4,0.8,2.4,1.6,2.1,3.4c-0.1,0.5-0.4,0.6-0.8,0.6c-3.5,0-7,0-10.5,0
				c-0.2,0-0.4-0.2-0.6-0.3c0.2-0.1,0.4-0.2,0.6-0.4c2.6-1.6,3-3.6,1.1-6c-0.4-0.6-1-1-1.5-1.5C173,170.9,174.2,171.6,174.9,171.1z"
				/>
			<path class="st0" d="M55.1,180c0.2,0,0.3,0,0.3,0.2C55.3,180.1,55.2,180.1,55.1,180z"/>
			<path class="st0" d="M261.1,180.5c-0.6-2.2-1.9-4.1-3-5.9c3.8-0.7,7.5,0,11.2-0.6c0.3-0.1,0.7-0.1,1,0.1c1.5,1.3,2.8,1,4.2-0.4
				c0.4,2.3,2.1,4.6-0.6,6.5c-1.2,0.4-2.4,0.3-3.6,0.3C267.2,180.5,264.1,180.5,261.1,180.5z"/>
			<path class="st6" d="M329.2,180.2c0.2,0,0.4,0,0.6,0C329.6,180.5,329.4,180.5,329.2,180.2z"/>
			<path class="st0" d="M315.1,165.9c0-0.2,0.1-0.4,0.3-0.3c0.3,0.2,0.1,0.4-0.1,0.5C315.3,166,315.2,166,315.1,165.9z"/>
			<path class="st4" d="M60.2,106.3c-0.2-1.6-0.9-2.6-2.5-2.9c-0.9-0.2-1.5-1.1-1.9-2c1.4,0.8,2.9,0.8,4.4,0.5
				c0.6-0.1,0.9,0.3,1,0.9C61.2,104.1,60.9,105.2,60.2,106.3z"/>
			<path class="st4" d="M330.6,98.3c0.1-2.1,0.1-4.2-1.1-6.1c0-0.4,0-0.8-0.6-0.8l0,0c0-0.4-0.1-0.7-0.3-1c-0.9-1.3-0.6-2.1,1-3.1
				c-0.2,0.9-0.5,1.7,0,2.5c0.8,1.2,1.5,2.4,2.2,3.6c0,1.1,0.6,1,1.3,0.6c0.9-0.5,1.9-0.8,3.1-0.5c-1.4,1.4-1.4,3.1-1.6,4.9
				c-0.3,3.1-1.4,5.7-4.1,8c0.6-2-0.2-3-1.6-3.9c-1.6-1-2.8-2.3-3.2-4.1c-0.1-0.4-0.3-1,0.2-1.1c0.6-0.2,0.5,0.5,0.7,0.8
				c0.8,1.2,1.5,2.4,3.3,2.2c0.4,1,0.1,2.2,1.3,3.1c0.2-1.4,0.6-2.6,1.7-3.5c0.7-0.5,0.2-1-0.1-1.4c-0.3-0.4-0.7-0.6-1.1,0
				C331.3,98.8,330.9,98.9,330.6,98.3z"/>
			<path class="st3" d="M331.7,93.4c-0.7-1.2-1.4-2.4-2.2-3.6c-0.5-0.8-0.2-1.6,0-2.5c-1.6,0.9-1.8,1.8-1,3.1c0.2,0.3,0.4,0.6,0.3,1
				c-1.4-1.3-3.1-2.4-3.2-4.7c-0.1-1.5,0.4-2.9,0.8-4.4c0.3,0.8-0.1,1.5,0.2,2.4c0.5,1.7,1.6,2.2,3,1c0.7-0.6,0.8-0.3,1,0.2
				C331.6,88.3,331.9,90.8,331.7,93.4z"/>
			<path class="st0" d="M330.6,98.3c0.3,0.6,0.7,0.4,1,0c0.4-0.6,0.8-0.4,1.1,0c0.3,0.4,0.8,1,0.1,1.4c-1.2,0.8-1.5,2-1.7,3.5
				c-1.2-0.8-0.9-2.1-1.3-3.1C329.8,99.5,330.3,99,330.6,98.3z"/>
			<path class="st3" d="M328.9,91.4c0.6,0,0.6,0.4,0.6,0.8C329.1,92.1,328.9,91.8,328.9,91.4z"/>
			<path class="st4" d="M174.9,171.1c-0.7,0.5-1.9-0.3-2.4,0.9c-1.6-0.8-2.5-2.2-3-3.8c-0.4-1.5-0.8-2.8-2.7-2.9
				c-0.6,0-0.4-0.5-0.1-0.8c0.9-1,2.8-0.8,3.6,0.4c0.4,0.6,0.7,1.2,1.1,2.2c1-3.3,2.4-6.3,0.6-9.5c-0.2-0.3-0.5-0.6-0.2-0.9
				c0.4-0.3,0.7,0,1,0.2c1.4,1.1,2.2,2.4,2.3,4.2c0.1,1.6-0.1,3.1-0.7,4.6C173.7,167.7,173.9,169.4,174.9,171.1z"/>
			<path class="st4" d="M207,175.9c-1.1,0.7-2.4,0.5-3.5,0.3c-2.4-0.5-4.8-0.1-7.2-0.2c-1.3,0-2.6-0.2-3.8-0.3
				c1.2-1.7,2.8-2.3,4.8-1.9c0.5,0.1,1.1,0.4,1.4-0.3c0.3-0.6,0.1-1.1-0.3-1.5c-0.2-0.2-0.4-0.4-0.6-0.6c-0.2-0.3-0.9-0.3-0.7-0.7
				c0.2-0.5,0.8-0.4,1.3-0.3c1.1,0.1,2.1,0.6,3,1.7c0.1-1,0.1-1.8,0.8-2.3c0.4-0.3,0.9-0.5,1,0.1C203.5,172.3,205.2,174.1,207,175.9
				z"/>
			<path class="st7" d="M280.1,182.4c0,0.2,0,0.5,0,0.7c-0.2-0.1-0.4-0.1-0.4-0.2C279.6,182.5,279.9,182.5,280.1,182.4z"/>
			<path class="st7" d="M35.6,183c-0.1-0.1-0.2-0.2-0.3-0.3l0,0C35.4,182.8,35.5,182.9,35.6,183L35.6,183z"/>
			<path class="st7" d="M35.3,182.7c0,0-0.1,0-0.1-0.1C35.2,182.7,35.2,182.7,35.3,182.7L35.3,182.7z"/>
		</g>
	</g>
	<rect y="178.2" class="st0" width="342" height="2"/>
</g>
</svg>
