<?xml version="1.0" encoding="utf-8"?>
<!-- Generator: Adobe Illustrator 19.2.1, SVG Export Plug-In . SVG Version: 6.00 Build 0)  -->
<svg version="1.1" id="Layer_1" xmlns="http://www.w3.org/2000/svg" xmlns:xlink="http://www.w3.org/1999/xlink" x="0px" y="0px"
	 viewBox="0 0 447.6 223.8" style="enable-background:new 0 0 447.6 223.8;" xml:space="preserve">
<style type="text/css">
	.st0{fill:#280100;}
	.st1{fill-rule:evenodd;clip-rule:evenodd;fill:#370100;}
	.st2{fill-rule:evenodd;clip-rule:evenodd;fill:#5D0400;}
	.st3{fill-rule:evenodd;clip-rule:evenodd;fill:#280100;}
	.st4{fill-rule:evenodd;clip-rule:evenodd;fill:#470200;}
	.st5{fill-rule:evenodd;clip-rule:evenodd;fill:#910A00;}
	.st6{fill-rule:evenodd;clip-rule:evenodd;fill:#C71200;}
</style>
<g id="I7Ogrw.tif">
	<g>
		<path class="st0" d="M447.6,145.5c0,6.3,0,12.6,0,18.9c-7,4-13.8,8.3-20.6,12.6c-0.8,0.5-1.6,0.9-2.4,1.4
			c-5.9,3.7-11.7,7.4-17.6,11.1c-13.1,8.2-26.2,16.4-39.2,24.6c-0.5,0.3-1.3,0.6-1.3,1.6c3.7-0.4,7.3-0.7,10.8-1.1
			c10.5-1.1,21-2.2,31.4-3.3c1.4-0.1,2.5-0.6,3.3-1.7c2.3-2.4,4.7-4.9,7-7.3c7.4-7.8,14.5-15.9,22.3-23.2c2-1.8,3.8-4,6.3-5.1
			c0,16.2,0,32.4,0,48.6c0,1.2-0.2,1.4-1.4,1.4c-29.7,0-59.4,0-89.2,0c-0.3-0.9,0.6-1.3,1-1.8c1.3-1.4,2.6-2.8,3.9-4.1
			c-2.8,1.8-5.4,3.7-7.7,6c-19.5,0-38.9,0-58.4,0c1.6-3.8,3.8-7.3,5.7-11c0.3-0.6,1-1.3,0.3-1.9c-0.5-0.5-1.2,0.2-1.7,0.5
			c-5.3,2.9-10.5,5.7-15.7,8.7c-1.9,1.1-4.2,1.9-5.7,3.7c-92.3,0-184.6,0-277,0c-1.4,0-1.7-0.2-1.7-1.7c0-60.9,0-121.7,0-182.6
			C0.7,39.3,1.3,39,2,38.7c5-2.7,10.1-5.3,15.1-8c9.4-5,18.8-10,28.2-15c1.9-1,3.7-2.2,5.8-2.8c0.1,0,0.2,0,0.3,0.1
			c3,3.4,5.9,6.7,8.9,10.1c4.4,5,8.9,10,13.4,14.9c2.9,3.2,5.6,6.7,8.9,9.6c-0.1,1.2-1,1.8-1.7,2.6c-9.5,9.6-18.9,19.2-28.4,28.7
			c-0.5,0.5-0.9,1-1.4,1.6c-6.3,4.9-12.6,9.7-18.9,14.6c-7,5.4-13.9,10.9-20.9,16.3c-1.3,1-1.3,1.7-0.1,2.7c1,0.9,2,1.8,2.9,2.7
			c5.8,5.2,11.6,10.4,17.5,15.6c5.4,4.8,10.9,9.7,16.3,14.5c0.8,0.7,1.2,0.7,1.5-0.5c0.8-3.4,0.9-6.9,1-10.2
			c0.1-3.2,0.5-6.4,0.4-9.6c-0.1-4,0.4-8.1,0.7-12.2c0.6-0.4,1-1,1.3-1.6c4-8.3,8-16.5,12.1-24.8c1.6-3.3,3.1-6.6,5.5-9.4
			c9.7-11.4,19.3-23,28.9-34.5c0.5-0.6,0.9-1.6,1.6-1.4c0.9,0.2,0.7,1.3,0.8,2.1c1.7,11.3,3.3,22.6,5,33.9c0.1,0.9,0.2,1.9,0.9,2.6
			c-0.1,0.2-0.1,0.5-0.2,0.7c-1.5,0.7-2.7,1.8-4,2.8c-11.8,9-23.6,18.1-35.3,27.1c-2.3,1.8-2.4,2.2-1,4.8c2.9,5.6,5.8,11.3,8.8,16.9
			c1.7,3.3,3.4,6.6,5.3,9.8c0.7,1.1,0.8,2.1,0.2,3.3c-2.4,4.9-4.7,9.9-7.1,14.8c-2.7,5.8-5.5,11.6-8.2,17.4c-0.8,1.6-0.5,1.9,1.2,2
			c0.5,0,0.9,0,1.4,0c12,0,24.1,0,36.1-0.3c8.5-0.2,17,0,25.5,0c0,0.1,0,0.2,0,0.3c-0.4,0.9-0.3,1.8-0.4,2.7
			c-0.2,4.9,0.2,9.8,0.5,14.6c0.2,3.8,0.1,7.7,0.3,11.5c0.1,1.7,0.8,2.6,2.7,2.7c8,0.4,16,0.9,24,1.3c9.2,0.4,18.5,0.7,27.7,1.1
			c3,0.1,5.9,0.4,8.9,0.5c4.7,0.2,9.4,0.3,14.1,0.5c1.2,0,2-0.5,2.7-1.6c0.9-1.5,1.5-3.2,3-4.3c21.8-0.2,43.7,0.2,65.5-0.4
			c2.1,0,3.6-0.7,5.2-2c5.8-5,11.6-9.9,17.4-14.8c4.5-3.8,9.1-7.4,13.3-11.5c0.1,0,0.2,0,0.3-0.1c4.9,0.2,9.8,0.9,14.8,0.8
			c2.2-0.1,4.4,0.2,6.6,0.6c2.3,0.4,4.2,0.1,5.9-1.6c6.7-6.3,13.3-12.7,20-19c4.8-4.5,9.7-9.1,14.6-13.5c2.6-2.3,4.5-4.7,4.8-8.5
			c0.5-7.8,1.4-15.6,2.1-23.5c0.1-1.5,0-2.9-0.7-4.2c-4.4-8.5-8.8-16.9-13.2-25.4c-1.5-3-3.4-5.8-4.3-9.1c0.6,0.7,1.3,1.5,1.9,2.2
			c13.1,17.4,26.1,35,38.8,52.7c2.5,3.5,5.3,6.9,7.5,10.7c-0.2,0.2-0.4,0.4-0.7,0.7c-0.2,0.1-0.3,0.3-0.5,0.4
			c-0.1,0-0.1,0.1-0.2,0.2c-0.5,0.4-1,0.8-1.5,1.2c-6,5.6-12.1,11.1-18.1,16.7c-6.8,6.3-13.6,12.6-20.3,18.9
			c-1.2,0.4-2.3,0.7-3.5,1.1c-18.4,7-36.7,14.1-55.1,21.2c-3.2,1.3-6.7,2.1-9.5,4.3c-0.5,0.4-1.3,0.6-1.1,1.4c0.2,0.6,1,0.5,1.5,0.5
			c6.4,0.5,12.7,1.1,19.1,1.6c12.8,1,25.5,2,38.3,3c0.8,0.1,1.6,0.2,2.3-0.6c0.4-0.4,0.8-0.9,1.1-1.3c5-6.7,9.9-13.5,15-20.2
			c2.8-3.7,5.2-7.6,8.4-10.9c0.6-0.3,1.3-0.6,1.9-0.9c14.8-9.3,29.6-18.7,44.4-28C439.9,150.1,443.6,147.5,447.6,145.5z"/>
		<path class="st1" d="M414.7,143.4c-2.2-3.8-5-7.1-7.5-10.7c-12.7-17.7-25.7-35.3-38.8-52.7c-0.6-0.8-1.3-1.5-1.9-2.2l0,0
			c-0.2-0.1-0.3-0.2-0.5-0.3c-1.2-1.3-0.7-2.7,0.1-4c4.2-7.7,8.5-15.3,12.7-23c0.4-0.7,0.9-1.3,0.6-2.1c1.1-0.8,1.7-1.9,2.3-3
			c5.5-9.4,11-18.7,16.5-28.1c1-1.8,2.3-3.5,2.8-5.6l0,0c0.4-0.3,0.6-0.6,0.7-1.1l0,0c7.1,0.4,14.3,0.7,21.4,1.2
			c8.1,0.5,16.2,1.2,24.4,1.3c0,12.6,0,25.2,0,37.8c-2.4,0.8-4.5,2.2-6.7,3.3c-13.1,6.8-26.2,13.7-39.4,20.5
			c-1.8,0.9-2.2,2.3-2.1,4.1c0.3,3.9,0.4,7.8,0.7,11.7c0.3,5.5,0.7,11,0.9,16.6c0.1,1.9,1,3.1,2.4,4.1c13.1,9.4,26.2,18.8,39.3,28.2
			c1.5,1.1,2.9,2.5,4.9,3c0,0.6,0,1.2,0,1.7C436.6,144.2,425.6,143.2,414.7,143.4z"/>
		<path class="st2" d="M119.6,0C192.8,0,266,0,339.2,0c0.3,0.7,1,1.2,1.5,1.6c3.3,2.7,6.7,5.4,10,8.2c-0.2,0.7-0.6,1.2-1.2,1.7
			c-1.8,1.4-3.5,2.8-5.3,4.3c-9.7,7.7-19.4,15.5-29.2,23.2c-2.8,2.2-5.5,4.6-8.6,6.5c-0.7-0.5-1.4-0.9-2-1.4
			c-10.3-9-20.7-18.1-31-27.2c-3.5-3.1-3.3-2.6-0.3-5.6c0.3-0.3,0.9-0.6,0.7-1.1c-0.2-0.6-0.9-0.4-1.4-0.4
			c-3.5,0.1-7.1,0.3-10.6,0.5c-12.5,0.7-25,1.3-37.5,2c-6.9,0.4-13.7,0.8-20.6,1.1c-1.5,0.1-2.8,0.6-3.9,1.6
			c-8.3,7.2-16.6,14.4-25,21.6c-2.2,1.9-4.2,4.1-6.8,5.5c0.1-0.7,0.1-1.4,0.2-2.1c0.4-3.1,1.3-6.2,1.4-9.4l0,0
			c0.1-0.2,0.2-0.3,0.3-0.5c1.6-2.1,3.2-4.2,4.7-6.3c2.5-3.4,5-6.8,7.5-10.3c0.3-0.4,0.9-0.9,0.5-1.5c-0.3-0.6-1-0.4-1.6-0.4
			c-0.7,0-1.4,0-2.1,0c-21.8,0-43.6-0.1-65.4,0.3c-1.4,0-2.8,0.1-4.1-0.7c2.1-2.1,4.2-4.2,6.2-6.4C117.1,3.3,118.6,1.9,119.6,0z"/>
		<path class="st3" d="M447.6,142.3c-1.9-0.5-3.3-1.9-4.9-3c-13.1-9.4-26.2-18.9-39.3-28.2c-1.5-1.1-2.4-2.2-2.4-4.1
			c-0.2-5.5-0.6-11-0.9-16.6c-0.2-3.9-0.4-7.8-0.7-11.7c-0.1-1.9,0.3-3.2,2.1-4.1c13.1-6.8,26.2-13.7,39.4-20.5
			c2.2-1.2,4.3-2.5,6.7-3.3C447.6,81.3,447.6,111.8,447.6,142.3z"/>
		<path class="st4" d="M306.4,45.5c3.1-1.9,5.8-4.3,8.6-6.5c9.8-7.7,19.5-15.5,29.2-23.2c1.8-1.4,3.5-2.8,5.3-4.3
			c0.6-0.4,1-0.9,1.2-1.7c-0.2-0.7-0.4-1.4-0.7-2.1c-1-2.6-2.4-5-3.2-7.7c17.9,0,35.9,0,53.8,0c0.5,1.9,1,3.8,1.6,5.7
			c0.5,1.7,0.6,3.3-0.5,4.8l0,0c-0.2,0.4-0.5,0.7-0.7,1.1l0,0c-0.5,0.5-1,1-1.4,1.5c-6.2,7.9-12.3,15.8-18.5,23.6
			c-2.9,3.6-5.5,7.5-8.7,10.9c-0.4-0.6-0.9-1.1-1.3-1.7c-6-8.9-12-17.9-18-26.8c-0.3-0.4-0.6-0.9-0.9-1.3c-0.5-0.6-0.9-0.6-1,0.2
			c-0.1,0.4-0.1,0.8-0.1,1.2c-0.2,8.7,0.5,17.3,0.3,26c0,1.6,0.7,2.2,2.3,2.3c6.1,0.3,12.2,0.4,18.3,0.3c-0.5,0.6-1,1.1-1.8,1.4
			c-3.3,0.6-6.1,2.4-9.1,3.8c-9.2,4.1-18.3,8.3-27.4,12.4c-2.1,1-4.2,2.1-6.4,2.6c0.3-0.3,0.5-0.6,0.9-0.9c7.1-6,14.2-12,21.3-18.1
			c0.4-0.4,1.2-0.6,0.9-1.3c-0.2-0.6-0.9-0.4-1.4-0.4c-3.5-0.1-7.1-0.1-10.6-0.4c-3.6-0.3-7.2-0.2-10.8-0.4
			c-7-0.3-13.9-0.6-20.9-0.9C306.5,45.8,306.5,45.6,306.4,45.5z"/>
		<path class="st1" d="M51.1,12.9c-2.1,0.6-3.9,1.8-5.8,2.8c-9.4,5-18.8,10-28.2,15C12,33.3,7,36,2,38.7C1.3,39,0.7,39.3,0,39.5
			c0-1.6,0-3.3,0-4.9c0.7-0.4,1.1-1,1.5-1.7c3.8-6.6,7.7-13.2,11.5-19.8c0.6-1,1.4-1.8,2.4-2.5c4.3-2.8,8.6-5.6,12.9-8.4
			c1-0.7,2.1-1.2,2.8-2.3c8,0,16.1,0,24.1,0c-0.2,1.6-0.9,3-1.4,4.5C53,7.3,51.7,10,51.1,12.9z"/>
		<path class="st4" d="M414.7,143.4c11-0.2,21.9,0.9,32.9,0.7c0,0.5,0,0.9,0,1.4c-4,2.1-7.6,4.6-11.4,7c-14.8,9.3-29.6,18.7-44.4,28
			c-0.6,0.4-1.2,0.6-1.9,0.9c0.3-1,0.9-1.9,1.5-2.7c6.9-10.4,13.7-20.9,20.6-31.3c0.6-0.9,1.1-1.8,1.3-2.8c0.1-0.1,0.1-0.1,0.2-0.2
			c0.2-0.1,0.3-0.3,0.5-0.4C414.2,143.8,414.5,143.6,414.7,143.4z"/>
		<path class="st3" d="M401.7,10.5c1.1-1.5,1.1-3.1,0.5-4.8c-0.6-1.9-1.1-3.8-1.6-5.7c15.1,0,30.2,0,45.3,0c1.4,0,1.6,0.4,1.6,1.6
			c-0.1,3.8,0,7.6,0,11.3c-8.1-0.1-16.3-0.8-24.4-1.3C416,11.3,408.9,10.9,401.7,10.5z"/>
		<path class="st3" d="M79.4,0C85,0,90.6,0,96.2,0c-0.5,0.9-1.4,1.2-2.2,1.6c-6.4,3.2-12.7,6.5-19.1,9.7c-0.5,0.3-1.2,0.4-1.5,1.2
			c1.4,0.7,2.7,0.1,4.1,0c10.2-0.2,20.4-0.5,30.7-0.7c-2.5,2.3-5.4,4.1-8.1,6c-7.2,5.1-14.4,10.2-21.6,15.3c-0.3-0.9-0.7-1.8-1-2.8
			c-1.8-5.8-3.5-11.7-5.3-17.5C74.5,8.7,77,4.4,79.4,0z"/>
		<path class="st3" d="M31.2,0c-0.7,1.1-1.8,1.6-2.8,2.3c-4.3,2.8-8.6,5.6-12.9,8.4c-1,0.6-1.8,1.4-2.4,2.5
			C9.3,19.8,5.4,26.4,1.6,33c-0.4,0.7-0.8,1.3-1.5,1.7c0-11.1,0-22.2,0-33.3C0,0.3,0.2,0,1.3,0C11.3,0.1,21.2,0,31.2,0z"/>
		<path class="st4" d="M427,177c6.8-4.4,13.6-8.6,20.6-12.6c0,3.1,0,6.3,0,9.4c-2.5,1.2-4.3,3.3-6.3,5.1
			c-7.9,7.3-14.9,15.5-22.3,23.2c-2.3,2.4-4.7,4.9-7,7.3c-0.3-0.7,0.1-1.3,0.4-2c4.6-9.5,9.2-18.9,13.9-28.4
			C426.5,178.4,426.7,177.7,427,177z"/>
		<path class="st1" d="M108.1,11.9c-10.2,0.2-20.4,0.5-30.7,0.7c-1.3,0-2.7,0.7-4.1,0c0.3-0.8,1-0.9,1.5-1.2
			C81.2,8.1,87.6,4.9,94,1.7c0.8-0.4,1.7-0.8,2.2-1.6c7.8,0,15.6,0,23.4,0c-1,1.9-2.6,3.3-4,4.8c-2,2.2-4.1,4.3-6.2,6.4
			C109,11.5,108.5,11.7,108.1,11.9z"/>
		<path class="st4" d="M79.4,0C77,4.4,74.5,8.7,72.1,13c-6.9,0-13.8,0-20.6,0c-0.1,0-0.2,0-0.3-0.1c0.6-2.9,1.9-5.6,2.8-8.4
			C54.4,3,55.1,1.6,55.3,0C63.3,0,71.4,0,79.4,0z"/>
		<path class="st1" d="M278.7,223.8c1.5-1.8,3.7-2.6,5.7-3.7c5.2-3,10.5-5.8,15.7-8.7c0.5-0.3,1.2-0.9,1.7-0.5
			c0.7,0.6-0.1,1.3-0.3,1.9c-1.9,3.7-4,7.2-5.7,11C290.1,223.8,284.4,223.8,278.7,223.8z"/>
		<path class="st3" d="M346.9,0c0.8,2.7,2.2,5.1,3.2,7.7c0.3,0.7,0.5,1.4,0.7,2.1c-3.3-2.7-6.7-5.4-10-8.2c-0.6-0.5-1.2-0.9-1.5-1.6
			C341.7,0,344.3,0,346.9,0z"/>
		<path class="st5" d="M354.2,223.8c2.3-2.3,5-4.1,7.7-6c-1.3,1.4-2.6,2.7-3.9,4.1c-0.5,0.5-1.3,0.9-1,1.8
			C356.1,223.8,355.1,223.8,354.2,223.8z"/>
		<path class="st2" d="M107.5,81.8c0.1-0.2,0.1-0.5,0.2-0.7c0.5-0.3,1.1-0.6,1.6-1c15.3-11.3,30.6-22.7,45.9-34c2-1.4,3.7-3.2,6-4.2
			c-1.4,10.1-2.9,20.2-4.3,30.6c0.9-0.7,1-1.4,1.2-2c1.7-4.8,3.3-9.6,5-14.4c1.5-4.4,3.1-8.8,4.7-13.2c0.7,0.4,1.2,1,1.6,1.5
			c8.4,10.2,16.9,20.5,25.3,30.7c2.2,2.7,2.2,2.7,0,5.4c-0.1,0.1-0.1,0.2-0.2,0.3c-7.5,9-15,18.1-22.5,27.1
			c-0.5,0.6-1.6,1.3-1.3,2.1c0.3,1,1.5,0.4,2.4,0.6c0.5,0.1,1,0.1,1.6,0.2c9.4,1.1,18.8,2.2,28.3,3.3l0,0c0.4,1.3,0.7,2.7,1.1,4
			c2.5,8,5.1,16,7.6,24c0.8,2.6,1,2.8,3.8,3c6.2,0.3,12.3,0.5,18.5,0.8c6.3,0.3,12.7,0.5,19,0.8c9.5,0.4,18.9,0.9,28.4,1.3
			c0.6,0,1.5,0.3,1.7-0.4c0.2-0.6-0.7-0.8-1.1-1.2c-0.1-0.1-0.2-0.1-0.3-0.2c-13-9.8-26-19.6-39-29.5c-1.8-1.4-3.9-2.6-5.4-4.4
			c8.8-0.3,17.7-0.6,26.5-0.9c1.8-0.1,3.4-0.5,4.9-1.6c5.4-3.8,10.9-7.6,16.4-11.3c7.3-5,14.5-9.9,21.8-14.9c3.4,2.4,7,4.4,10.6,6.5
			c9.9,6,19.8,11.9,29.6,17.9c0.5,0.3,1.3,0.4,1.1,1.1c-0.2,0.5-0.9,0.3-1.4,0.4c-0.1,0-0.2,0-0.3,0c-8.8,0.1-17.7,0.4-26.5,0.6
			c-9.7,0.2-19.3,0.4-29,0.7c-6.8,0.2-13.6,0.1-20.4,0.4c-0.6,0-1.5-0.2-1.7,0.5c-0.2,0.9,0.8,1,1.3,1.4c4.8,3.2,9.7,6.4,14.6,9.6
			c9,6,18,12,27.2,17.8c3.3,2,4.6,4.6,4.6,8.3c0,10.7-0.6,21.3-0.4,32c-0.1,0-0.2,0-0.3,0.1c-2.8-0.3-5.6,0.3-8.4,0.3
			c-10.8-0.1-21.6,0.6-32.4,0.4c-0.6,0-1.3,0.1-1.9,0.1c-6,0.5-12.1,0.1-18.1,0.2c-0.5,0-1-0.2-1.5-0.3c0.2-0.2,0.3-0.4,0.5-0.6
			c0.8-0.1,1.5-0.5,2.2-1c19-11.4,38-22.9,57.1-34.3c0.5-0.3,1.1-0.4,1.2-1.1c-0.5-0.4-1-0.2-1.5-0.2c-9.1,1.2-18.2,2.4-27.4,3.7
			c-1.1,0.1-2,0.5-2.9,1.2c-5.7,3.2-11.3,6.5-17,9.7c-10.8,6.2-21.6,12.4-32.4,18.6c-0.4-0.6-0.9-1.2-1.3-1.9
			c-5.9-9.4-11.8-18.8-17.7-28.2c-0.4-0.6-0.6-1.6-1.5-1.6c-1,0.1-1.1,1.1-1.4,1.8c-2.2,5.3-4.5,10.6-6.6,16
			c-1.7,4.4-3.9,8.7-5.1,13.4c-1.6,0-3.3,0-4.9,0.1c-8.2,0.4-16.5,0.9-24.7,1.3c-5.1,0.3-10.2,0.5-15.3,0.8
			c-8,0.4-15.9,0.9-23.9,1.3c0-0.1,0-0.2,0-0.3l0,0c0.1-0.1,0.2-0.2,0.4-0.4l0,0c0.5-0.1,0.8-0.3,1-0.7l0,0c0.2-0.1,0.5-0.2,0.7-0.4
			l0,0c0.1-0.1,0.2-0.2,0.4-0.4l0,0c0.2-0.1,0.5-0.2,0.7-0.3l0,0c0.1-0.1,0.2-0.2,0.3-0.3l0,0c0.5,0,0.8-0.2,1-0.7l0,0
			c0.2-0.2,0.5-0.3,0.7-0.5c2.5-0.9,4.5-2.5,6.6-4c0.4-0.1,0.8-0.3,1.1-0.7l0,0c0.4-0.1,0.6-0.3,0.7-0.7l0,0c1,0.1,1.6-0.5,2.4-1
			c10.8-6.9,21.5-13.7,32.3-20.6c1.1-0.7,2.3-1.2,3.1-2.3c0.7-0.7,0.2-1.4-0.1-2.1c-2-6-4-12-6-18c-1.6-4.5-2.8-9.2-4.8-13.6l0-0.1
			l0,0.1c0.2,0.9,0.3,1.8,0.5,2.7c2.5,10.5,5.1,20.9,7.6,31.4c-0.3,0.1-0.5,0.3-0.8,0.4c-0.6-0.1-1.2-0.3-1.9-0.3
			c-9.4-0.3-18.8-0.5-28.1-0.7l0,0c-0.1-0.8-0.1-1.5-0.2-2.2c-1.6-10.2-3.2-20.4-4.7-30.6c-0.6-1-1.5-1.6-2.3-2.4
			C129.9,101.9,118.7,91.9,107.5,81.8z"/>
		<path class="st4" d="M315.7,181.1c-0.2-10.7,0.4-21.3,0.4-32c0-3.7-1.3-6.3-4.6-8.3c-9.2-5.8-18.1-11.8-27.2-17.8
			c-4.9-3.2-9.7-6.4-14.6-9.6c-0.5-0.4-1.5-0.5-1.3-1.4c0.2-0.7,1.1-0.4,1.7-0.5c6.8-0.4,13.6-0.2,20.4-0.4c9.7-0.3,19.3-0.5,29-0.7
			c8.8-0.2,17.7-0.5,26.5-0.6c0.1,0,0.2,0,0.3,0c0.5-0.1,1.2,0.2,1.4-0.4c0.2-0.7-0.6-0.9-1.1-1.1c-9.9-6-19.8-11.9-29.6-17.9
			c-3.5-2.1-7.2-4.1-10.6-6.5c1.9-1.3,3.7-2.6,5.6-3.9c0.9,0.4,1.8,0.4,2.7,0.4c4.1,0.1,8.3-0.8,12.4-0.3c4.4,0.5,7.7-1.4,10.8-4.2
			c0.7-0.4,1.4-0.8,2.1-1.2c13.1-8.8,26.1-17.6,39.2-26.5c0.2,0.8-0.3,1.4-0.6,2.1c-4.2,7.7-8.5,15.3-12.7,23
			c-0.7,1.3-1.3,2.6-0.1,4c0.2,0.1,0.3,0.2,0.5,0.3l0,0c0.9,3.3,2.8,6.1,4.3,9.1c4.3,8.5,8.7,17,13.2,25.4c0.7,1.4,0.8,2.8,0.7,4.2
			c-0.7,7.8-1.7,15.6-2.1,23.5c-0.2,3.8-2.2,6.1-4.8,8.5c-4.9,4.5-9.7,9-14.6,13.5c-6.7,6.3-13.4,12.6-20,19c-1.7,1.6-3.7,2-5.9,1.6
			c-2.2-0.4-4.4-0.6-6.6-0.6C325.6,182.1,320.7,181.4,315.7,181.1z"/>
		<path class="st1" d="M107.5,81.8c11.2,10.1,22.4,20.1,33.6,30.2c0.8,0.7,1.7,1.4,2.3,2.4c-1.4,0.2-2.6,0.8-3.8,1.4
			c-8.7,4.4-17.3,8.8-26,13.2c-9.5,4.8-19,9.5-28.4,14.2c-0.5,0.3-1.3,0.4-1.3,1.1c0,0.7,0.8,0.5,1.3,0.6c9.7,0.4,19.4,0.7,29.1,1.1
			c3.2,0.1,6.4,0.3,9.6,0.4c8.1,0.3,16.3,0.6,24.4,0.9l0,0c-4.7,8.6-9.5,17.3-14.2,26c-1.1,2-2.4,4-3,6.2l0,0
			c-0.1,0.1-0.2,0.2-0.3,0.3c0,0.1,0,0.3,0,0.4l0,0c-0.1,0.1-0.2,0.2-0.4,0.4l0,0c-8.5,0-17-0.2-25.5,0c-12,0.3-24.1,0.3-36.1,0.3
			c-0.5,0-0.9,0-1.4,0c-1.7-0.1-2-0.4-1.2-2c2.7-5.8,5.4-11.6,8.2-17.4c2.3-4.9,4.7-9.9,7.1-14.8c0.6-1.2,0.4-2.1-0.2-3.3
			c-1.8-3.2-3.6-6.5-5.3-9.8c-2.9-5.6-5.9-11.3-8.8-16.9c-1.4-2.6-1.4-3,1-4.8c11.8-9.1,23.5-18.1,35.3-27.1
			C104.8,83.7,106,82.5,107.5,81.8z"/>
		<path class="st4" d="M161.2,42c-2.3,1-4,2.8-6,4.2c-15.3,11.3-30.6,22.6-45.9,34c-0.5,0.4-1.1,0.7-1.6,1c-0.7-0.7-0.8-1.7-0.9-2.6
			c-1.7-11.3-3.3-22.6-5-33.9c-0.1-0.8,0.1-1.9-0.8-2.1c-0.8-0.2-1.2,0.9-1.6,1.4c-9.6,11.5-19.2,23.1-28.9,34.5
			c-2.4,2.9-3.9,6.2-5.5,9.4c-4.1,8.2-8.1,16.5-12.1,24.8c-0.3,0.6-0.7,1.2-1.3,1.6c0.2-11.3-0.6-22.6-0.3-33.9
			c0.5-0.5,0.9-1.1,1.4-1.6c9.4-9.6,18.9-19.2,28.4-28.7c0.7-0.7,1.6-1.4,1.7-2.6c-1.4-4.8-2.8-9.6-4.2-14.3
			C85.6,28.2,92.8,23.1,100,18c2.7-2,5.6-3.7,8.1-6c0.5-0.2,0.9-0.5,1.4-0.7c1.3,0.8,2.7,0.7,4.1,0.7c21.8-0.5,43.6-0.3,65.4-0.3
			c0.7,0,1.4,0,2.1,0c0.6,0,1.3-0.1,1.6,0.4c0.3,0.6-0.2,1.1-0.5,1.5c-2.5,3.4-5,6.9-7.5,10.3c-1.6,2.1-3.1,4.2-4.7,6.3
			c-0.1,0.2-0.2,0.3-0.3,0.5l0,0C166.6,34.2,163.7,38,161.2,42z"/>
		<path class="st1" d="M130.5,180.8c8-0.4,15.9-0.9,23.9-1.3c5.1-0.3,10.2-0.5,15.3-0.8c8.2-0.4,16.5-0.9,24.7-1.3
			c1.6-0.1,3.3-0.1,4.9-0.1c11.1,0.2,22.2,0.3,33.3,0.8c-2.8,4.7-5.6,9.3-8.3,14c-1.1,2-2.5,3.8-3.3,5.9c-2.4,4-5,7.8-7,12
			c-1.4,1.1-2.1,2.8-3,4.3c-0.7,1-1.5,1.6-2.7,1.6c-4.7-0.2-9.4-0.3-14.1-0.5c-3-0.1-5.9-0.4-8.9-0.5c-9.2-0.4-18.5-0.7-27.7-1.1
			c-8-0.4-16-0.9-24-1.3c-1.9-0.1-2.6-1-2.7-2.7c-0.3-3.8-0.2-7.7-0.3-11.5c-0.2-4.9-0.7-9.8-0.5-14.6
			C130.1,182.6,130.1,181.7,130.5,180.8z"/>
		<path class="st4" d="M214,209.9c2-4.2,4.6-8,7-12c0.7-0.3,1.4-0.6,2.1-0.9c9.3-4.6,18.5-9.3,27.8-13.9c0.8-0.4,1.5-0.9,2.3-1.3
			c0.5,0.1,1,0.3,1.5,0.3c6,0,12.1,0.3,18.1-0.2c0.6,0,1.3-0.1,1.9-0.1c10.8,0.2,21.6-0.5,32.4-0.4c2.8,0,5.6-0.6,8.4-0.3
			c-4.3,4.1-8.9,7.7-13.3,11.5c-5.8,4.9-11.7,9.8-17.4,14.8c-1.5,1.3-3.1,2-5.2,2C257.7,210.1,235.8,209.7,214,209.9z"/>
		<path class="st1" d="M51.1,80.5c-0.3,11.3,0.5,22.6,0.3,33.9c-0.3,4.1-0.8,8.1-0.7,12.2c0.1,3.2-0.4,6.4-0.4,9.6
			c-0.1,3.4-0.2,6.9-1,10.2c-0.3,1.2-0.7,1.2-1.5,0.5c-5.4-4.8-10.9-9.7-16.3-14.5c-5.8-5.2-11.6-10.4-17.5-15.6
			c-1-0.9-1.9-1.9-2.9-2.7c-1.2-1-1.2-1.8,0.1-2.7c7-5.4,14-10.9,20.9-16.3C38.5,90.2,44.8,85.3,51.1,80.5z"/>
		<path class="st4" d="M365.4,214c-0.6,0.7-1.4,0.6-2.3,0.6c-12.8-1-25.5-2-38.3-3c-6.4-0.5-12.8-1-19.1-1.6c-0.5,0-1.4,0.1-1.5-0.5
			c-0.2-0.7,0.7-1,1.1-1.4c2.8-2.2,6.3-3.1,9.5-4.3c18.3-7.1,36.7-14.1,55.1-21.2c1.1-0.4,2.3-0.7,3.5-1.1c-0.3,1.4-0.6,2.8-1,4.3
			C370.1,195.1,367.8,204.5,365.4,214z"/>
		<path class="st1" d="M427,177c-0.3,0.7-0.4,1.5-0.8,2.1c-4.6,9.5-9.2,18.9-13.9,28.4c-0.3,0.6-0.7,1.2-0.4,2
			c-0.8,1.1-1.9,1.6-3.3,1.7c-10.5,1.1-21,2.2-31.4,3.3c-3.6,0.4-7.1,0.7-10.8,1.1c0.1-1.1,0.8-1.3,1.3-1.6
			c13.1-8.2,26.2-16.4,39.2-24.6c5.9-3.7,11.7-7.4,17.6-11.1C425.3,177.9,426.1,177.4,427,177z"/>
		<path class="st2" d="M365.4,214c2.4-9.4,4.7-18.8,7-28.3c0.4-1.4,0.6-2.8,1-4.3c6.8-6.3,13.5-12.6,20.3-18.9
			c6-5.6,12.1-11.1,18.1-16.7c0.5-0.4,1-0.8,1.5-1.2c-0.2,1.1-0.7,1.9-1.3,2.8c-6.9,10.4-13.7,20.9-20.6,31.3
			c-0.6,0.9-1.2,1.7-1.5,2.7c-3.2,3.4-5.6,7.3-8.4,10.9c-5,6.7-10,13.5-15,20.2C366.2,213.1,365.8,213.5,365.4,214z"/>
		<path class="st1" d="M78.4,33.3c1.4,4.8,2.8,9.6,4.2,14.3c-3.3-2.9-5.9-6.4-8.9-9.6c-4.5-4.9-8.9-10-13.4-14.9
			c-3-3.3-5.9-6.7-8.9-10.1c6.9,0,13.8,0,20.6,0c1.8,5.8,3.5,11.7,5.3,17.5C77.6,31.4,78,32.3,78.4,33.3z"/>
		<path class="st2" d="M414,144c-0.2,0.1-0.3,0.3-0.5,0.4C413.7,144.3,413.8,144.2,414,144z"/>
		<path class="st3" d="M379.4,48.3c-13.1,8.8-26.1,17.6-39.2,26.5c-0.7,0.5-1.4,0.8-2.1,1.2c0.4-1,1.2-1.5,2-2.1
			c8.6-6.9,17.1-13.7,25.7-20.6c1.5-1.2,3.2-2.3,4.5-3.8c0.7-0.3,1.3-0.8,1.8-1.4c0.1-0.1,0.2-0.2,0.3-0.3c3.2-3.4,5.8-7.2,8.7-10.9
			c6.2-7.8,12.3-15.8,18.5-23.6c0.4-0.5,0.9-1,1.4-1.5c-0.5,2.1-1.8,3.8-2.8,5.6c-5.5,9.4-11,18.8-16.5,28.1
			C381.1,46.4,380.5,47.5,379.4,48.3z"/>
		<path class="st3" d="M401.1,11.6c0.2-0.4,0.5-0.7,0.7-1.1C401.6,10.9,401.4,11.3,401.1,11.6z"/>
		<path class="st3" d="M366.4,77.6c-0.2-0.1-0.3-0.2-0.5-0.3C366.1,77.4,366.3,77.5,366.4,77.6z"/>
		<path class="st5" d="M202.8,114.4c-9.4-1.1-18.8-2.2-28.3-3.3c-0.5-0.1-1-0.1-1.6-0.2c-0.8-0.2-2,0.4-2.4-0.6
			c-0.3-0.8,0.7-1.5,1.3-2.1c7.5-9,15-18.1,22.5-27.1c0.1-0.1,0.1-0.2,0.2-0.3c2.2-2.7,2.2-2.7,0-5.4c-8.4-10.2-16.9-20.5-25.3-30.7
			c-0.5-0.6-1-1.2-1.6-1.6c0.1-0.3,0.2-0.7,0.3-1c2.6-1.4,4.6-3.6,6.8-5.5c8.4-7.1,16.7-14.3,25-21.6c1.2-1,2.4-1.5,3.9-1.6
			c6.9-0.4,13.7-0.7,20.6-1.1c12.5-0.7,25-1.3,37.5-2c3.5-0.2,7.1-0.3,10.6-0.5c0.5,0,1.2-0.2,1.4,0.4c0.2,0.5-0.4,0.8-0.7,1.1
			c-3,3-3.2,2.5,0.3,5.6c10.3,9.1,20.7,18.1,31,27.2c0.6,0.5,1.3,0.9,2,1.4c0.1,0.1,0.1,0.2,0.2,0.4c0.2,0.8,0.4,1.6,0.7,2.3
			c2.2,6,4.4,12,6.7,18c1.2,3.2,2.2,6.6,3.8,9.7c-0.2,0.3-0.4,0.6-0.8,0.6c-0.6,0-1.2-0.1-1.7,0c-10.3,0.6-20.6,1.3-30.8,1.9
			c-8.5,0.5-17.1,1.1-25.6,1.6c-8.1,0.5-16.3,1-24.4,1.5c-0.7,0-1.4,0.3-2.3-0.6c24.3-11.5,48.3-22.9,72.6-34.4
			c-0.6-0.6-1-0.6-1.4-0.6c-4.8-0.2-9.5-0.4-14.3-0.8c-2.5-0.2-5-0.2-7.5-0.4c-5.1-0.3-10.2-0.7-15.3-1c-4.8-0.3-9.5-0.5-14.3-0.7
			c-5.4-0.3-10.8-1-16.2-1c-10.9-0.1-21.8,0.2-32.7-0.3c-0.8,0-1.6,0-2.4,0c-1.3,0-1.8,0.5-1.1,1.7c0.3,0.6,0.6,1.2,0.9,1.7
			c5.7,11.2,11.3,22.5,17.1,33.7c0.9,1.7,0.9,3.2,0,4.9c-3.4,6.7-6.6,13.4-9.8,20.1C206,107.3,204.1,110.7,202.8,114.4z"/>
		<path class="st3" d="M168,42.1c-0.1,0.3-0.2,0.7-0.3,1c-1.6,4.4-3.1,8.8-4.7,13.2c-1.7,4.8-3.3,9.6-5,14.4c-0.2,0.6-0.2,1.3-1.2,2
			c1.5-10.4,2.9-20.5,4.3-30.6c2.5-4,5.3-7.8,8.4-11.4c0,3.2-1,6.2-1.4,9.4C168.2,40.7,168.1,41.4,168,42.1z"/>
		<path class="st3" d="M169.6,30.6c0.1-0.2,0.2-0.3,0.3-0.5C169.8,30.3,169.7,30.5,169.6,30.6z"/>
		<path class="st2" d="M317.8,75.9c-1.6-3.1-2.6-6.5-3.8-9.7c-2.3-6-4.5-12-6.7-18c-0.3-0.8-0.5-1.6-0.7-2.3
			c7,0.3,13.9,0.6,20.9,0.9c3.6,0.2,7.2,0.1,10.8,0.4c3.5,0.3,7.1,0.3,10.6,0.4c0.5,0,1.2-0.2,1.4,0.4c0.2,0.7-0.5,0.9-0.9,1.3
			c-7.1,6-14.2,12-21.3,18.1c-0.3,0.3-0.6,0.6-0.9,0.9C324.1,70.8,321,73.3,317.8,75.9z"/>
		<path class="st1" d="M317.8,75.9c3.1-2.6,6.3-5.1,9.4-7.7c2.3-0.5,4.3-1.7,6.4-2.6c9.2-4.1,18.3-8.3,27.4-12.4
			c3-1.4,5.8-3.2,9.1-3.8c-1.3,1.5-3,2.6-4.5,3.8c-8.5,6.9-17.1,13.7-25.7,20.6c-0.8,0.6-1.6,1.2-2,2.1c-3.1,2.8-6.3,4.7-10.8,4.2
			c-4.1-0.5-8.2,0.4-12.4,0.3c-0.9,0-1.9,0-2.7-0.4c1.6-1.2,3.2-2.3,4.9-3.5C317.5,76.5,317.7,76.2,317.8,75.9z"/>
		<path class="st1" d="M372.4,47.6c-0.1,0.1-0.2,0.2-0.3,0.3c-6.1,0.1-12.2,0-18.3-0.3c-1.6-0.1-2.3-0.7-2.3-2.3
			c0.2-8.7-0.6-17.3-0.3-26c0-0.4,0-0.8,0.1-1.2c0.2-0.8,0.6-0.8,1-0.2c0.3,0.4,0.6,0.9,0.9,1.3c6,8.9,12,17.9,18,26.8
			C371.5,46.5,372,47,372.4,47.6z"/>
		<path class="st6" d="M317.1,76.5c-1.6,1.2-3.2,2.3-4.9,3.5c-1.9,1.3-3.7,2.6-5.6,3.9c-7.3,5-14.5,9.9-21.8,14.9
			c-5.5,3.7-11,7.5-16.4,11.3c-1.5,1.1-3,1.5-4.9,1.6c-8.9,0.2-17.7,0.6-26.5,0.9c-2.8-0.2-5.6,0.2-8.3,0.4
			c-8.6,0.5-17.3,1-25.9,1.5l0,0c1.3-3.7,3.3-7.1,4.9-10.6c3.2-6.7,6.5-13.4,9.8-20.1c0.9-1.7,0.9-3.2,0-4.9
			c-5.7-11.2-11.4-22.4-17.1-33.7c-0.3-0.6-0.6-1.2-0.9-1.7c-0.6-1.2-0.1-1.7,1.1-1.7c0.8,0,1.6,0,2.4,0c10.9,0.5,21.8,0.2,32.7,0.3
			c5.4,0,10.8,0.7,16.2,1c4.8,0.3,9.5,0.5,14.3,0.7c5.1,0.3,10.2,0.7,15.3,1c2.5,0.2,5,0.2,7.5,0.4c4.7,0.4,9.5,0.5,14.3,0.8
			c0.4,0,0.8,0,1.4,0.6c-24.3,11.5-48.3,22.9-72.6,34.4c0.9,0.9,1.6,0.6,2.3,0.6c8.1-0.5,16.3-1,24.4-1.5c8.5-0.5,17.1-1.1,25.6-1.6
			c10.3-0.6,20.6-1.3,30.8-1.9C315.9,76.5,316.5,76.5,317.1,76.5z"/>
		<path class="st5" d="M202.8,114.4c8.6-0.5,17.3-1,25.9-1.5c2.8-0.2,5.5-0.6,8.3-0.4c1.5,1.8,3.6,3,5.4,4.4c13,9.9,26,19.7,39,29.5
			c0.1,0.1,0.2,0.1,0.3,0.2c0.4,0.4,1.3,0.6,1.1,1.2c-0.2,0.8-1.1,0.5-1.7,0.4c-9.5-0.4-18.9-0.8-28.4-1.3c-6.3-0.3-12.7-0.6-19-0.8
			c-6.2-0.3-12.3-0.5-18.5-0.8c-2.8-0.1-3-0.4-3.8-3c-2.5-8-5.1-16-7.6-24C203.4,117.1,203.1,115.8,202.8,114.4z"/>
		<path class="st4" d="M148.3,147.2c-8.1-0.3-16.3-0.6-24.4-0.9c-3.2-0.1-6.4-0.3-9.6-0.4c-9.7-0.4-19.4-0.7-29.1-1.1
			c-0.5,0-1.2,0.2-1.3-0.6c0-0.7,0.8-0.8,1.3-1.1c9.5-4.8,19-9.5,28.4-14.2c8.7-4.4,17.4-8.8,26-13.2c1.2-0.6,2.4-1.2,3.8-1.4
			c1.6,10.2,3.2,20.4,4.7,30.6C148.2,145.7,148.3,146.4,148.3,147.2z"/>
		<path class="st3" d="M253.1,181.8c-0.8,0.4-1.5,0.9-2.3,1.3c-9.2,4.6-18.5,9.3-27.8,13.9c-0.7,0.3-1.4,0.6-2.1,0.9
			c0.8-2.1,2.1-4,3.3-5.9c2.7-4.7,5.5-9.3,8.3-14c0.1-0.1,0.2-0.2,0.3-0.3c10.8-6.2,21.6-12.4,32.4-18.6c5.7-3.2,11.3-6.5,17-9.7
			c-0.4,1.2-1.2,2.1-2,3c-6,6.3-12,12.7-17.9,19c-3,3.2-5.8,6.5-8.8,9.7C253.4,181.4,253.3,181.6,253.1,181.8z"/>
		<path class="st4" d="M232.9,177.7c-0.1,0.1-0.2,0.2-0.3,0.3c-11.1-0.5-22.2-0.6-33.3-0.8c1.2-4.6,3.4-8.9,5.1-13.4
			c2.1-5.4,4.4-10.7,6.6-16c0.3-0.7,0.4-1.8,1.4-1.8c0.9,0,1.1,0.9,1.5,1.6c5.9,9.4,11.8,18.8,17.7,28.2
			C232,176.5,232.5,177.1,232.9,177.7z"/>
		<path class="st4" d="M131.2,179.4c0.6-2.3,1.9-4.2,3-6.2c4.7-8.7,9.4-17.3,14.2-26c9.4,0.2,18.8,0.5,28.1,0.7
			c0.6,0,1.3,0.2,1.9,0.3c-0.4,0.4-0.9,0.8-1.3,1.1c-8.2,5.5-16.5,10.9-24.8,16.4c-2.8,1.8-5.7,3.4-8.2,5.7l0,0
			c-0.2,0.2-0.5,0.5-0.7,0.7l0,0c-0.5,0-0.8,0.3-1.1,0.7c-2.1,1.5-4.2,3.1-6.6,4c-0.2,0.2-0.5,0.3-0.7,0.5l0,0
			c-0.3,0.2-0.7,0.5-1,0.7l0,0c-0.1,0.1-0.2,0.2-0.3,0.3l0,0c-0.2,0.1-0.5,0.2-0.7,0.3l0,0c-0.1,0.1-0.2,0.2-0.4,0.4l0,0
			c-0.2,0.1-0.5,0.2-0.7,0.4l0,0C131.6,179.4,131.4,179.4,131.2,179.4z"/>
		<path class="st4" d="M253.6,181.2c2.9-3.2,5.8-6.5,8.8-9.7c5.9-6.4,11.9-12.7,17.9-19c0.8-0.9,1.6-1.8,2-3c0.8-0.7,1.8-1,2.9-1.2
			c9.1-1.2,18.2-2.5,27.4-3.7c0.5-0.1,1-0.3,1.5,0.2c0,0.7-0.7,0.9-1.2,1.1c-19,11.4-38,22.9-57.1,34.3
			C255.1,180.7,254.4,181,253.6,181.2z"/>
		<path class="st6" d="M171,113.7c1.9,4.4,3.2,9.1,4.8,13.6c2.1,6,4,12,6,18c0.2,0.7,0.7,1.4,0.1,2.1c-0.9,0-1.8,0.5-2.7,0.4
			c-2.5-10.5-5.1-20.9-7.6-31.4C171.3,115.5,171.2,114.6,171,113.7L171,113.7z"/>
		<path class="st3" d="M179.1,147.8c0.9,0.2,1.8-0.4,2.7-0.4c-0.8,1-2,1.6-3.1,2.3c-10.8,6.9-21.5,13.8-32.3,20.6
			c-0.7,0.5-1.4,1.1-2.4,1c2.5-2.2,5.4-3.8,8.2-5.7c8.2-5.5,16.5-10.9,24.8-16.4c0.5-0.3,0.9-0.7,1.3-1.1
			C178.6,148.1,178.9,148,179.1,147.8z"/>
		<path class="st3" d="M142.3,172.8c0.3-0.4,0.6-0.7,1.1-0.7C143.1,172.5,142.8,172.6,142.3,172.8z"/>
		<path class="st3" d="M134,178c0.3-0.2,0.7-0.5,1-0.7C134.8,177.8,134.4,178,134,178z"/>
		<path class="st3" d="M143.4,172.1c0.2-0.2,0.5-0.5,0.7-0.7C144,171.8,143.8,172,143.4,172.1z"/>
		<path class="st3" d="M131.2,179.4c0.2,0,0.5,0,0.7,0c-0.2,0.4-0.6,0.6-1,0.7c0-0.1,0-0.3,0-0.4C130.9,179.6,131,179.5,131.2,179.4
			L131.2,179.4z"/>
		<path class="st3" d="M135,177.3c0.2-0.2,0.5-0.3,0.7-0.5C135.5,177,135.2,177.1,135,177.3z"/>
		<polygon class="st6" points="171,113.7 171,113.6 171,113.7 		"/>
		<path class="st3" d="M132.9,178.7c0.2-0.1,0.5-0.2,0.7-0.3C133.4,178.5,133.1,178.6,132.9,178.7z"/>
		<path class="st3" d="M131.9,179.4c0.2-0.1,0.5-0.2,0.7-0.4C132.3,179.2,132.1,179.3,131.9,179.4z"/>
		<path class="st3" d="M130.5,180.5c0.1-0.1,0.2-0.2,0.4-0.4C130.7,180.2,130.6,180.3,130.5,180.5z"/>
		<path class="st3" d="M132.6,179.1c0.1-0.1,0.2-0.2,0.4-0.4C132.8,178.8,132.7,178.9,132.6,179.1z"/>
		<path class="st3" d="M133.6,178.4c0.1-0.1,0.2-0.2,0.3-0.3C133.8,178.1,133.7,178.2,133.6,178.4z"/>
		<path class="st4" d="M131.2,179.4c-0.1,0.1-0.2,0.2-0.3,0.3C130.9,179.6,131,179.5,131.2,179.4z"/>
	</g>
</g>
</svg>
