<?xml version="1.0" encoding="utf-8"?>
<!-- Generator: Adobe Illustrator 19.2.1, SVG Export Plug-In . SVG Version: 6.00 Build 0)  -->
<svg version="1.1" id="Layer_1" xmlns="http://www.w3.org/2000/svg" xmlns:xlink="http://www.w3.org/1999/xlink" x="0px" y="0px"
	 viewBox="0 0 150 150" style="enable-background:new 0 0 150 150;" xml:space="preserve">
<style type="text/css">
	.st0{fill-rule:evenodd;clip-rule:evenodd;fill:#F6CF00;}
</style>
<path class="st0" d="M36,100h77.2l0.2,6H35.8L36,100L36,100z M123.4,63.9c5.8-4.9,16.1-3.5,23.5,1.9c-17.4,0.3-29.5,13.6-33.5,30.2
	H35.8c-4-16.6-16.1-29.9-33.5-30.2c7.4-5.4,17.7-6.8,23.5-1.9c5.6-6.4,17.8,2.7,11.7,12.5c6.2-0.6,7.6,8.2,8.2,12.8
	c2-16.3,12.4-13.3,13.7-0.8c1.1-10.1,6.2-14.8,12.8-21.9c-21-3.6-17.1-18.8-4.3-10.6c-3.3-11,6.8-19.5,6.8-20.9
	c5,7,9.2,12.9,6.8,20.9c12.9-8.2,16.7,7-4.3,10.6c6.7,7.1,11.7,11.9,12.8,21.9c1.3-12.6,11.6-15.5,13.7,0.8
	c0.5-4.6,1.9-13.4,8.2-12.8C105.7,66.6,117.8,57.5,123.4,63.9L123.4,63.9z M36,109.2h77.2l0.2,6H35.8L36,109.2L36,109.2z"/>
</svg>
