<?xml version="1.0" encoding="utf-8"?>
<!-- Generator: Adobe Illustrator 19.2.1, SVG Export Plug-In . SVG Version: 6.00 Build 0)  -->
<svg version="1.1" id="Layer_1" xmlns="http://www.w3.org/2000/svg" xmlns:xlink="http://www.w3.org/1999/xlink" x="0px" y="0px"
	 viewBox="0 0 300 300" style="enable-background:new 0 0 300 300;" xml:space="preserve">
<style type="text/css">
	.st0{fill-rule:evenodd;clip-rule:evenodd;fill:#F9D604;stroke:#F9D604;stroke-width:6;stroke-miterlimit:10;}
	.st1{fill-rule:evenodd;clip-rule:evenodd;fill:#8EC3ED;}
	.st2{fill-rule:evenodd;clip-rule:evenodd;fill:#F9D604;}
	.st3{fill-rule:evenodd;clip-rule:evenodd;fill:#EEAA0C;}
	.st4{fill-rule:evenodd;clip-rule:evenodd;fill:#3162B4;}
	.st5{fill-rule:evenodd;clip-rule:evenodd;fill:#E6E6E6;}
	.st6{fill-rule:evenodd;clip-rule:evenodd;fill:#E7E7E7;}
	.st7{fill-rule:evenodd;clip-rule:evenodd;fill:#E9E9E9;}
	.st8{fill-rule:evenodd;clip-rule:evenodd;fill:#DFDFDF;}
	.st9{fill-rule:evenodd;clip-rule:evenodd;fill:#E06534;}
	.st10{fill-rule:evenodd;clip-rule:evenodd;fill:#E26330;}
	.st11{fill-rule:evenodd;clip-rule:evenodd;fill:#F6FAFD;}
	.st12{fill-rule:evenodd;clip-rule:evenodd;fill:#3365B6;}
</style>
<g>
	<g id="bujPzM.tif_11_">
		<g>
			<path class="st0" d="M148.9,80.1c15.3,2.1,26.6-2.9,32.4-19.5c15.7,18,12,35.2,0.8,52.4c26.9,3.1,31.9,10.6,24,34.5
				c14.3,1.9,22.3,9.4,20.9,24.6c-0.3,3.7,0.8,6.1,4.6,7.5c10.3,4,14.2,12.1,12.3,22.6c-1.9,10.5-9.6,14.4-19.5,15
				c-50.2,0-100.4,0-150.6,0c-12.3-0.7-18.9-7.4-19.5-19.6c-0.7-13.3,5.4-18.4,28.6-24.7c-17.9-22.3-12.5-31.4,25.5-42.8
				c-16.4-17.5-12.3-32.6,10.6-38.9c4.9-1.4,9.7-3.5,14.5-5.2C139.5,86.5,145.2,85.9,148.9,80.1z M140.9,178.2
				c-5.8,1.1-9.7,4.3-9.6,10.3c0.2,6.5,4.4,10.5,10.9,10.2c5.8-0.3,9.6-4.2,9.5-10.2C151.6,181.9,147.4,178.6,140.9,178.2z
				 M133.5,104.9c-5,1-8.7,3.9-8.6,10.1c0.1,6.7,3.9,10.6,10.5,10.1c5.6-0.3,9.5-3.8,9.4-10C144.8,108.3,140.7,105.4,133.5,104.9z
				 M186.4,173.7c-5,1.3-9.9,4.1-9.4,10.8c0.4,5.6,4.5,9.1,10.4,9.1c5.9,0,10-3.6,10.4-9.2C198.2,178,193.7,174.6,186.4,173.7z
				 M117.9,165.3c5.1-1.2,9.6-4.2,9.6-11c0-6.4-4.1-9-10.1-9c-6.2,0.1-9.5,3.3-9.5,9.6C107.8,161,110.6,164.7,117.9,165.3z
				 M175.1,131.1c-6,0.2-10.2,2.9-10.1,9.2c0.1,6.6,4.1,10.6,10.7,10.6c6.3,0,9.1-4.1,9.1-10.2C184.8,134.4,181.3,131.3,175.1,131.1
				z"/>
			<path class="st0" d="M218.3,241.9c-4.1,13-8.3,25.9-12.3,38.9c-3.1,9.9-9.8,14.5-20,14.5c-24.5,0-49.1,0.1-73.6,0
				c-10.1,0-16.9-4.6-20-14.6c-4-13-8.2-25.9-12.4-38.8c7.6-0.4,7.1-10.5,13.8-12.1c9.7,13.2,9.7,13.2,22.3,0.1
				c9.7,13.4,9.7,13.4,22-0.6c1,0.9,2.5,1.6,3.1,2.7c4.2,8.1,7.6,15.6,15.3,2.1c4.1-7.1,7.6-1.5,9.9,2.7c3.9,6.9,7.4,6.3,10.9-0.3
				c1.3-2.4,2.8-4.7,5.1-8.4c7.7,14.8,15.5,16,22.3,1.1C210.7,232.8,211,240.9,218.3,241.9z"/>
			<path class="st0" d="M218.3,241.9c-7.3-1-7.5-9.1-13.5-12.7c-6.8,14.9-14.6,13.8-22.3-1.1c-2.3,3.7-3.8,6-5.1,8.4
				c-3.5,6.5-7,7.1-10.9,0.3c-2.4-4.2-5.9-9.8-9.9-2.7c-7.7,13.5-11.2,6-15.3-2.1c-0.6-1.1-2-1.8-3.1-2.7
				c-12.3,14.1-12.3,14.1-22,0.6c-12.6,13.1-12.6,13.1-22.3-0.1c-6.7,1.6-6.2,11.7-13.8,12.1c-2.9-8-7-15.7-6.2-24.6
				c50.2,0,100.4,0,150.6,0C225.5,226.3,221.4,234,218.3,241.9z"/>
			<path class="st0" d="M127.3,28.4c2.2-9,6.2-22.7,14.2-22.7c8-0.1,13.6,13.3,14.4,23.3c0.7,8.6-5.4,14.2-14.1,14.4
				C132.8,43.6,128.2,38,127.3,28.4z"/>
			<path class="st0" d="M148.9,80.1c-3.7,5.7-9.4,6.4-15.4,6c0-7.9,0.1-15.9-0.2-23.8c-0.2-5.5,2.1-7.4,7.4-7.2
				c4.9,0.1,8.1,1.1,8,6.9C148.5,68,148.8,74.1,148.9,80.1z"/>
			<path class="st0" d="M140.9,178.2c6.5,0.4,10.7,3.7,10.9,10.4c0.1,6-3.7,9.8-9.5,10.2c-6.6,0.3-10.7-3.7-10.9-10.2
				C131.1,182.5,135.1,179.3,140.9,178.2z"/>
			<path class="st0" d="M133.5,104.9c7.1,0.4,11.3,3.4,11.3,10.3c0,6.2-3.8,9.6-9.4,10c-6.6,0.4-10.4-3.4-10.5-10.1
				C124.8,108.9,128.5,106,133.5,104.9z"/>
			<path class="st0" d="M186.4,173.7c7.3,0.9,11.8,4.2,11.4,10.7c-0.3,5.6-4.5,9.1-10.4,9.2c-5.9,0-10-3.5-10.4-9.1
				C176.4,177.9,181.4,175.1,186.4,173.7z"/>
			<path class="st0" d="M117.9,165.3c-7.3-0.6-10.1-4.3-10-10.3c0-6.3,3.3-9.5,9.5-9.6c6-0.1,10.1,2.5,10.1,9
				C127.4,161.1,123,164.1,117.9,165.3z"/>
			<path class="st0" d="M175.1,131.1c6.2,0.2,9.6,3.3,9.7,9.6c0.1,6.1-2.7,10.2-9.1,10.2c-6.6,0-10.6-4-10.7-10.6
				C165,133.9,169.1,131.3,175.1,131.1z"/>
		</g>
	</g>
	<g id="bujPzM.tif_10_">
		<g>
			<path class="st1" d="M147.7,91.4c13.9,1.9,24.3-2.7,29.5-17.8c14.3,16.4,11,32,0.7,47.7c24.5,2.8,29.1,9.7,21.8,31.4
				c13.1,1.7,20.3,8.5,19,22.4c-0.3,3.4,0.8,5.5,4.2,6.9c9.4,3.6,13,11,11.2,20.6c-1.8,9.6-8.7,13.1-17.7,13.7
				c-45.7,0-91.5,0-137.2,0c-11.2-0.7-17.2-6.7-17.8-17.8c-0.6-12.2,4.9-16.8,26.1-22.5c-16.3-20.3-11.4-28.6,23.2-39
				c-15-15.9-11.2-29.7,9.6-35.4c4.5-1.2,8.8-3.2,13.2-4.8C139.1,97.2,144.3,96.6,147.7,91.4z M140.4,180.7c-5.3,1-8.9,4-8.7,9.4
				c0.2,5.9,4,9.6,10,9.3c5.3-0.3,8.7-3.8,8.6-9.2C150.2,184,146.3,181,140.4,180.7z M133.7,114c-4.6,0.9-7.9,3.6-7.8,9.2
				c0.1,6.1,3.6,9.6,9.6,9.2c5.1-0.3,8.6-3.5,8.6-9.1C144,117.1,140.2,114.4,133.7,114z M181.8,176.6c-4.5,1.2-9.1,3.8-8.6,9.8
				c0.4,5.1,4.1,8.3,9.5,8.3c5.4,0,9.1-3.2,9.5-8.3C192.6,180.5,188.5,177.5,181.8,176.6z M119.4,169c4.6-1.1,8.7-3.9,8.7-10
				c0-5.9-3.7-8.2-9.2-8.2c-5.7,0.1-8.6,3-8.7,8.7C110.3,165.1,112.8,168.4,119.4,169z M171.6,137.8c-5.5,0.2-9.3,2.6-9.2,8.4
				c0.1,6,3.8,9.6,9.8,9.6c5.8,0,8.3-3.7,8.2-9.3C180.4,140.8,177.2,138,171.6,137.8z"/>
			<path class="st2" d="M210.9,238.7c-3.8,11.8-7.6,23.6-11.2,35.4c-2.8,9-8.9,13.2-18.2,13.2c-22.3,0-44.7,0.1-67,0
				c-9.2,0-15.4-4.2-18.2-13.3c-3.6-11.8-7.5-23.6-11.2-35.4c6.9-0.4,6.5-9.5,12.6-11c8.8,12,8.8,12,20.3,0.1
				c8.9,12.2,8.9,12.2,20-0.6c0.9,0.8,2.2,1.4,2.8,2.5c3.8,7.3,6.9,14.2,14,1.9c3.7-6.4,6.9-1.3,9,2.5c3.5,6.3,6.7,5.7,10-0.2
				c1.2-2.2,2.6-4.3,4.6-7.6c7.1,13.5,14.2,14.5,20.4,1C204,230.4,204.3,237.9,210.9,238.7z"/>
			<path class="st3" d="M210.9,238.7c-6.6-0.9-6.9-8.3-12.3-11.6c-6.2,13.6-13.3,12.5-20.4-1c-2.1,3.4-3.5,5.4-4.6,7.6
				c-3.2,6-6.4,6.5-10,0.2c-2.2-3.8-5.4-8.9-9-2.5c-7,12.3-10.2,5.5-14-1.9c-0.5-1-1.8-1.7-2.8-2.5c-11.2,12.8-11.2,12.8-20,0.6
				c-11.5,11.9-11.5,11.9-20.3-0.1c-6.1,1.5-5.6,10.6-12.6,11c-2.7-7.3-6.3-14.3-5.7-22.4c45.7,0,91.5,0,137.2,0
				C217.5,224.5,213.7,231.5,210.9,238.7z"/>
			<path class="st4" d="M147.7,91.4c-3.4,5.2-8.5,5.8-14.1,5.4c0-7.2,0.1-14.5-0.1-21.7c-0.2-5,1.9-6.7,6.8-6.6
				c4.5,0.1,7.4,1,7.3,6.3C147.4,80.3,147.6,85.9,147.7,91.4z"/>
			<path class="st5" d="M185.8,61.4c0.1,0.3,0.3,0.8,0.2,0.9c-0.3,0.2-0.7,0.2-1.1,0.4c-0.1-0.3-0.3-0.8-0.2-0.9
				C185,61.5,185.4,61.5,185.8,61.4z"/>
			<path class="st6" d="M213.6,125.3c-0.3-0.4-0.7-0.8-1-1.2c0.4,0.4,0.8,0.7,1.2,1.1C213.8,125.1,213.6,125.3,213.6,125.3z"/>
			<path class="st6" d="M226.6,153.6c-0.4-0.2-0.7-0.4-1.1-0.7C225.9,153.2,226.3,153.4,226.6,153.6L226.6,153.6z"/>
			<path class="st5" d="M193,71.1c-0.3-0.4-0.7-0.8-1-1.2c0.4,0.4,0.8,0.7,1.2,1.1C193.1,70.9,193,71.1,193,71.1z"/>
			<path class="st6" d="M239.6,176.8c0.8,0.9,1.7,1.7,2.5,2.6c0,0,0,0,0,0C241.2,178.6,240.3,177.7,239.6,176.8L239.6,176.8z"/>
			<path class="st7" d="M154.3,14.3c-0.3-0.4-0.7-0.8-1-1.1C153.7,13.5,154,13.8,154.3,14.3L154.3,14.3z"/>
			<path class="st8" d="M89.9,290.4c-0.4-0.2-0.7-0.4-1.1-0.5C89.1,290,89.4,290.2,89.9,290.4L89.9,290.4z"/>
			<path class="st8" d="M92.4,292.9c-0.9-0.9-1.7-1.7-2.6-2.6l-0.1,0.1C90.6,291.3,91.5,292.1,92.4,292.9L92.4,292.9z"/>
			<path class="st8" d="M92.4,293c0.9,0.9,1.7,1.7,2.6,2.6l0,0C94.1,294.7,93.3,293.8,92.4,293L92.4,293z"/>
			<path class="st9" d="M140.4,180.7c5.9,0.3,9.8,3.3,9.9,9.4c0.1,5.5-3.3,9-8.6,9.2c-6,0.3-9.8-3.3-10-9.3
				C131.5,184.7,135.1,181.7,140.4,180.7z"/>
			<path class="st10" d="M133.7,114c6.5,0.4,10.3,3.1,10.3,9.3c0,5.6-3.5,8.8-8.6,9.1c-6,0.4-9.4-3.1-9.6-9.2
				C125.8,117.6,129.1,114.9,133.7,114z"/>
			<path class="st11" d="M181.8,176.6c6.7,0.8,10.8,3.9,10.4,9.8c-0.3,5.1-4.1,8.3-9.5,8.3c-5.4,0-9.1-3.2-9.5-8.3
				C172.8,180.4,177.3,177.9,181.8,176.6z"/>
			<path class="st11" d="M119.4,169c-6.7-0.6-9.2-3.9-9.1-9.4c0-5.7,3-8.7,8.7-8.7c5.5-0.1,9.2,2.3,9.2,8.2
				C128.2,165.1,124.1,167.8,119.4,169z"/>
			<path class="st12" d="M171.6,137.8c5.6,0.2,8.8,3,8.8,8.8c0,5.5-2.5,9.3-8.2,9.3c-6,0-9.7-3.6-9.8-9.6
				C162.3,140.4,166.1,137.9,171.6,137.8z"/>
		</g>
	</g>
</g>
</svg>
