<?xml version="1.0" encoding="utf-8"?>
<!-- Generator: Adobe Illustrator 19.2.1, SVG Export Plug-In . SVG Version: 6.00 Build 0)  -->
<svg version="1.1" id="Layer_1" xmlns="http://www.w3.org/2000/svg" xmlns:xlink="http://www.w3.org/1999/xlink" x="0px" y="0px"
	 viewBox="0 0 147.7 121" style="enable-background:new 0 0 147.7 121;" xml:space="preserve">
<style type="text/css">
	.st0{fill-rule:evenodd;clip-rule:evenodd;fill:#FFFFFF;stroke:#495E6A;stroke-width:4;stroke-miterlimit:10;}
	.st1{fill-rule:evenodd;clip-rule:evenodd;fill:#495E6A;}
	.st2{fill-rule:evenodd;clip-rule:evenodd;fill:#E1E1E1;}
</style>
<g id="TPfpoY.tif">
	<g>
		<path class="st0" d="M106.7,24.6c3.6,4.8,6.5,10,8.7,15.7c10.2,27.4-1.9,58.6-27.8,72c-8.7,4.5-18.1,6.8-27.9,6.7
			c-13-0.2-24.7-4.3-35-12.2c-0.2-0.2-0.4-0.3-0.6-0.4c-3.6-3-6.9-6.2-9.8-9.9c-6.8-8.8-10.9-18.8-12-29.9C0.6,48.5,6,33,18.3,19.9
			c9.2-9.7,20.6-15.5,33.8-17.3C71.9,0,88.8,6,102.8,20.2C104.2,21.5,105.4,23.1,106.7,24.6z M22.6,32.1c0,7.8,6.2,14.1,14,14.1
			c7.8,0,14.1-6.3,14.1-14.1c0-7.8-6.4-14.2-14.1-14.1C28.8,18.1,22.6,24.4,22.6,32.1z M73.2,39.5c7.8,0,14.1-6.3,14-14.2
			c0-7.7-6.4-13.9-14.2-13.9c-7.8,0-13.9,6.3-13.8,14.4C59.2,33.3,65.5,39.5,73.2,39.5z M38.3,67.1C38.3,59.3,32,53,24.2,53
			c-7.7,0-14,6.3-14,14c0,7.8,6.3,14.1,14,14.1C32,81.2,38.3,74.9,38.3,67.1z M97.1,67.8c7.6,0.1,14-6.1,14.1-13.7
			c0.1-8-6-14.3-13.8-14.4c-7.7-0.1-14.2,6-14.3,13.6C83,61.3,89.2,67.7,97.1,67.8z M62.3,95.4c0-7.8-6.3-14.1-14-14.1
			c-7.6,0-14,6.3-14,13.8c0,8,6.1,14.3,13.9,14.4C56,109.5,62.3,103.2,62.3,95.4z M98.8,88.6c0-7.8-6.2-14-14-14
			c-7.7,0-14,6.3-14,14c0,7.8,6.2,14.1,14,14.1C92.6,102.7,98.8,96.5,98.8,88.6z M60.4,73.2c7.2,0,12.8-5.6,12.8-12.8
			c0-7.1-5.8-12.9-12.8-12.9c-7,0-12.7,5.7-12.8,12.8C47.5,67.4,53.3,73.2,60.4,73.2z"/>
		<path class="st1" d="M145.9,63.4c0.4,2.5,1.2,4.8,1.7,7.3c0.3,1.2,0.3,1.2-1,0.9c-3.4-0.8-6.7-1-9.9,0.8c-2.6,1.5-3.9,4-4.7,6.8
			c-0.6,2.3-0.8,4.6-0.7,7c0.2,5.8-0.4,11.5-2.4,17c-3.3,8.8-9.5,13.9-18.8,15.3c-5.9,0.9-12.8-2.7-15.6-8c-0.3-0.5-0.4-0.9,0.2-1.3
			c2.7-1.7,5.1-3.8,7.5-5.9c0.2-0.1,0.3-0.3,0.6-0.3c0.2,1.2,0.3,2.4,0.5,3.6c1.1,5.3,4.7,8.3,10,8.4c1,0,1.9-0.2,2.7-0.7
			c4.9-3,8.3-7,8.8-13c0.4-4.5,0-9-0.2-13.5c-0.2-4.6-0.2-9.3,0.8-13.8c1.3-5.9,5.2-9.2,10.8-10.9c2.6-0.8,5.3-0.9,8.1-1
			C145.4,61.9,145.6,62.7,145.9,63.4z"/>
		<path class="st1" d="M22.6,32.1c0-7.7,6.2-14,14-14c7.7-0.1,14.1,6.3,14.1,14.1c0,7.8-6.3,14.1-14.1,14.1
			C28.9,46.2,22.6,39.9,22.6,32.1z"/>
		<path class="st1" d="M73.2,39.5c-7.6,0-14-6.2-14.1-13.7c0-8,6-14.3,13.8-14.4c7.9,0,14.2,6.2,14.2,13.9
			C87.2,33.2,81,39.5,73.2,39.5z"/>
		<path class="st1" d="M38.3,67.1c0,7.8-6.3,14.1-14.1,14.1c-7.7,0-14-6.3-14-14.1c0-7.7,6.3-14,14-14C32,53,38.3,59.3,38.3,67.1z"
			/>
		<path class="st1" d="M97.1,67.8c-7.9-0.1-14.1-6.5-14-14.5c0.1-7.6,6.6-13.7,14.3-13.6c7.8,0.1,13.9,6.5,13.8,14.4
			C111.1,61.6,104.7,67.8,97.1,67.8z"/>
		<path class="st1" d="M62.3,95.4c0,7.8-6.3,14.1-14.2,14c-7.8,0-13.9-6.4-13.9-14.4c0-7.5,6.5-13.8,14-13.8
			C56.1,81.3,62.4,87.6,62.3,95.4z"/>
		<path class="st1" d="M98.8,88.6c0,7.8-6.2,14.1-14,14.1c-7.8,0-14-6.3-14-14.1c0-7.7,6.3-14,14-14C92.6,74.6,98.8,80.8,98.8,88.6z
			"/>
		<path class="st1" d="M60.4,73.2c-7.1,0-12.9-5.8-12.8-12.9c0.1-7.1,5.8-12.8,12.8-12.8c7.1,0,12.8,5.7,12.8,12.9
			C73.2,67.6,67.6,73.2,60.4,73.2z M68.9,60.5c0-4.7-3.7-8.4-8.4-8.5c-4.7,0-8.5,3.7-8.5,8.4c0,4.7,3.7,8.4,8.4,8.4
			C65.1,68.9,68.9,65.1,68.9,60.5z"/>
		<path class="st2" d="M68.9,60.5c0,4.6-3.8,8.4-8.5,8.4c-4.7,0-8.4-3.7-8.4-8.4c0-4.7,3.8-8.5,8.5-8.4C65.2,52,68.9,55.8,68.9,60.5
			z"/>
	</g>
</g>
</svg>
