<?xml version="1.0" encoding="utf-8"?>
<!-- Generator: Adobe Illustrator 19.2.1, SVG Export Plug-In . SVG Version: 6.00 Build 0)  -->
<svg version="1.1" id="Layer_1" xmlns="http://www.w3.org/2000/svg" xmlns:xlink="http://www.w3.org/1999/xlink" x="0px" y="0px"
	 viewBox="0 0 76 111.6" style="enable-background:new 0 0 76 111.6;" xml:space="preserve">
<style type="text/css">
	.st0{fill-rule:evenodd;clip-rule:evenodd;fill:#DF7F00;}
</style>
<path class="st0" d="M75.9,72.3c-0.7,0.9-1,1.4-1.4,2c-0.8,1.2-1.5,2.4-2.3,3.5c-1.1,1.6-2.7,2.7-4.5,3.4c-3.3,1.2-7.8-0.4-7.4-5.5
	c0.2-3,0.5-6,1.5-8.8c1.3-3.7,2.5-7.4,3.2-11.3c0.3-1.8,0.6-3.6,0.2-5.3c0,0,0.1,0,0.1-0.1c-0.9-4.5-3.8-10.7-6.5-14.4
	c-1.8-2.4-3.7-4.5-5.8-6.6c-5.2-5.2-9.4-11.1-12.1-17.9c-1.2-3-1.8-6.1-2.6-9.2c-0.2-0.7-0.2-1.4-0.7-2c-4,3.6-6.5,8-8.4,12.9
	c-3.9,10-3.5,20-0.2,30.5c-3.8-2.2-5.6-5.9-8.9-8.5c0.5,4.5,1.6,10.2,3.6,14.1c0,0.2,0.1,0.4,0.1,0.6c0.5,2.2,1,4.4,1.2,6.7
	c0.3,3.3-0.3,6.3-2.3,9.1c-0.6-0.7-0.7-1.4-1-2.1c-0.8-2-1.5-4.1-2.5-6.1c-1-2-2.4-3.7-4.2-5c-0.4-0.3-0.8-0.7-1.4-0.6
	c0,0.3,0,0.5,0.1,0.8c1.5,5.3,0.3,10.1-2.3,14.8c-1,1.7-2.2,3.3-3.4,4.9C6,74.5,4,77,2.6,79.8c-1.7,3.4-3.1,6.9-2.4,10.9
	C1,95.3,3.1,99.2,6,102.8c3.1,3.8,6.8,6.7,11.6,8.2c1.5,0.5,3,0.8,4.5,0.7c1.4-0.1,1.7-0.7,1.3-2c-0.1-0.3-0.3-0.6-0.4-0.9
	c-3.1-6.2-4.8-19.6-0.8-24c0.1-0.2,0.2-0.3,0.4-0.5c0.4-0.4,0.8-0.4,1.1,0.1c0.2,0.3,0.3,0.6,0.4,0.9c0.5,2.8,2.3,4.9,4.2,6.9
	c1.6,1.7,3.3,1.8,5.2,0.6c3.2-2.2,11.9-12.4,13.2-22.4c0-0.1,0-0.3,0-0.4c0.1-0.5,0.1-1,0.8-1c0.6,0,0.8,0.4,0.8,0.9
	c0.1,0.9,0.2,1.7,0.2,2.6c0,4-0.9,7.9-2.5,11.6c-0.7,1.7-1.5,3.3-2.1,5c-1,3-0.6,4.5,1.9,6.5c1.1,0.9,2.4,1.7,3.6,2.5
	c1.2,0.8,1.6,1.7,1.2,2.9c-0.7,2-1.2,4.1-2.3,5.9c-0.4,0.6-0.8,1.2-0.6,2.1c1.2,0,2.3,0.1,3.4-0.2c11-3,18.3-9.9,22.5-20.3
	c0.3-0.7,0.4-1.4,0.7-2.1C76.6,81.9,76,77.4,75.9,72.3z"/>
</svg>
