<?xml version="1.0" encoding="utf-8"?>
<!-- Generator: Adobe Illustrator 19.2.1, SVG Export Plug-In . SVG Version: 6.00 Build 0)  -->
<svg version="1.1" id="Layer_1" xmlns="http://www.w3.org/2000/svg" xmlns:xlink="http://www.w3.org/1999/xlink" x="0px" y="0px"
	 viewBox="0 0 181.1 85.3" style="enable-background:new 0 0 181.1 85.3;" xml:space="preserve">
<style type="text/css">
	.st0{fill-rule:evenodd;clip-rule:evenodd;fill:#EB7662;}
	.st1{fill-rule:evenodd;clip-rule:evenodd;fill:#B83C25;}
	.st2{fill-rule:evenodd;clip-rule:evenodd;fill:#FCCA72;}
</style>
<g>
	<path class="st0" d="M104,17.4c-5.1-2.2-10.7,0.2-12.7,5.3c-0.1,0.3-0.1,0.8-0.7,0.8c-0.5,0-0.7-0.3-0.8-0.7
		c-2.2-5.3-7.2-7.4-12.7-5.4c-1.3-4.6-0.2-8.6,2.7-12.2C83.6,0.4,90.1-1.2,95.7,1c5.6,2.2,9.2,7.8,8.9,13.8
		C104.5,15.7,104.5,16.6,104,17.4z"/>
	<g>
		<path class="st1" d="M0,26.6c-0.4-4.5,3.2-9.1,7.8-9.8c1.1-0.2,2.1-0.2,3.2,0c0.4,0.1,0.8,0.1,1.1-0.4c0.3-0.5-0.1-0.7-0.3-1
			c-2.3-3-2.8-6.3-1.2-9.8C12.1,2,15,0.2,18.9,0c3.8-0.2,7.3,2.2,8.9,5.8c0.2,0.4,0.2,1,0.8,1c0.7,0,0.8-0.6,1-1
			c1.9-4.3,6.4-6.6,10.9-5.6c4.3,1,7.4,5,7.3,9.5c-0.1,2-0.7,3.8-2,5.4c-0.3,0.4-0.9,0.7-0.4,1.3c0.4,0.6,0.9,0.3,1.4,0.2
			c2.8-0.3,5.2,0.4,7.3,2.2c0.5,0.4,0.6,0.8,0.2,1.4c-2.7,4-3.2,8.3-1.6,12.9c0.3,0.8,0.1,1.1-0.6,1.4c-1.7,0.7-3.5,1.2-5.4,0.8
			c-0.4-0.1-0.9-0.3-1.3,0.3c-0.4,0.6,0.2,0.9,0.4,1.2c2.3,3.1,2.7,6.4,1.1,9.8c-1.6,3.5-4.5,5.2-8.3,5.5c-3.8,0.3-7.5-2.3-9.1-5.9
			c-0.2-0.4-0.1-0.9-0.8-0.9c-0.7,0-0.7,0.5-0.9,0.9c-1.7,4.1-5.7,6.2-9.3,5.9c-4.6-0.4-7.8-3.3-8.8-7.7c-0.6-2.8,0.1-5.3,1.8-7.6
			c0.2-0.3,0.8-0.6,0.4-1.1c-0.3-0.6-0.8-0.4-1.3-0.4c-4.8,0.8-9.6-2.6-10.5-7.3C0.1,27.7,0.1,27.2,0,26.6z"/>
		<path class="st1" d="M126.3,19.5c1.7-1.6,3.7-2.6,6.1-2.9c0.8-0.1,1.5,0.1,2.3,0.2c0.4,0,0.8,0.1,1-0.4c0.2-0.4,0-0.7-0.2-1
			c-4.3-5.6-1.9-13.2,4.9-15.1c4.5-1.2,9.4,1.2,11.1,5.5c0.2,0.5,0.2,1,1,1c0.7,0,0.7-0.6,0.9-1c1.6-4.1,5.9-6.4,10.5-5.6
			c4.1,0.7,7.4,4.5,7.6,8.8c0.1,2.4-0.5,4.6-2.1,6.5c-0.3,0.3-0.4,0.6-0.2,1c0.2,0.5,0.6,0.4,1,0.4c2.7-0.5,5.2,0.2,7.4,1.9
			c3,2.3,4.3,6.2,3.2,10c-1,3.7-4.1,6.3-7.8,6.7c-0.9,0.1-1.8,0.2-2.8,0c-0.4-0.1-0.8-0.1-1.1,0.4c-0.2,0.5,0.1,0.7,0.3,1.1
			c2.3,2.9,2.7,6.1,1.4,9.4c-1.3,3.3-3.8,5.3-7.4,5.8c-4.4,0.7-8.4-1.6-10.1-5.8c-0.2-0.4-0.3-0.9-0.9-0.9c-0.6,0-0.6,0.5-0.8,0.9
			c-1.7,4.3-6.1,6.3-9.5,5.9c-5-0.7-8.2-4-8.6-8.5c-0.2-2.5,0.4-4.8,2-6.8c0.3-0.3,0.5-0.6,0.3-1.1c-0.3-0.6-0.7-0.4-1.1-0.4
			c-2.3,0.4-4.5-0.1-6.5-1.3c-0.5-0.5-0.2-1-0.1-1.4c1-3.4,0.9-6.7-0.5-10c-0.3-0.6-0.7-1.2-1-1.8C126.3,20.5,126,20.1,126.3,19.5z"
			/>
		<path class="st0" d="M62,43.6c0.5,5.4,5.5,9.3,10.8,8.4c0.4-0.1,0.8-0.2,1.1,0.3c0.2,0.5,0,0.7-0.2,1c-3.4,4.4-2.9,9.8,1.4,13.5
			c0.1,0.1,0.3,0.3,0.4,0.4c-2.3,2-4.9,3.3-7.9,3.7c-7.8,1.2-15.7-5.3-15.8-13.2c-0.1-6.4,3.4-11.8,9-13.8
			C61.2,43.7,61.6,43.6,62,43.6z"/>
		<path class="st0" d="M105.7,67c4.6-3.8,5.2-9.2,1.7-13.8c-0.2-0.3-0.4-0.5-0.2-1c0.3-0.5,0.6-0.4,1-0.3c4.3,0.7,8.4-1.5,10.2-5.4
			c0.5-1,0.6-2,0.9-3.1c6.1,2,9.9,7,10.1,13.3c0.1,5.7-3.5,11-8.9,13.2C115.4,72,108.9,70.7,105.7,67z"/>
		<path class="st0" d="M77,67.9c5,2.1,9.7,0,11.9-3.4c0.4-0.6,0.6-1.2,0.9-1.8c0.2-0.4,0.1-0.9,0.8-0.9c0.6,0,0.7,0.4,0.9,0.8
			c1.1,2.9,3.3,4.9,6.3,5.7c2.2,0.6,4.4,0.4,6.5-0.5c1.9,7.5-2.8,15.2-10.3,17c-7.6,1.8-15.3-3-16.9-10.5
			C76.4,72.2,76.5,70.1,77,67.9z"/>
		<path class="st0" d="M119.3,41.7c-0.5-3.1-2-5.7-4.8-7.3c-1.9-1.1-4-1.4-6.2-1.1c-0.4,0.1-0.8,0.3-1.1-0.3c-0.3-0.5,0.1-0.7,0.3-1
			c3.5-4.3,2.7-10.3-1.8-13.7c3.9-3.9,8.6-4.7,13.8-3.3c2.8,0.8,5,2.5,6.9,4.6c1.2,1.8,2.3,3.8,2.7,6c0.6,3,0.2,5.8-0.9,8.6
			c-1.5,3-3.6,5.3-6.6,6.8C120.8,41.3,120.1,41.6,119.3,41.7z"/>
		<path class="st0" d="M65.1,40.2c-7.1,0-13-6-13-13.2c0-7.3,6.4-13.7,13.8-13.7C73,13.3,79,19.2,79,26.4
			C79,33.8,72.6,40.2,65.1,40.2z"/>
		<path class="st2" d="M28.7,16.4c5.4,0,9.8,4.4,9.8,9.8c0,5.4-4.4,9.7-9.8,9.7c-5.4,0-9.7-4.3-9.7-9.7
			C18.9,20.7,23.2,16.4,28.7,16.4z"/>
		<path class="st2" d="M162.2,26.1c0,5.5-4.3,9.8-9.7,9.8c-5.4,0-9.8-4.4-9.8-9.8c0-5.4,4.4-9.8,9.8-9.8
			C157.9,16.4,162.2,20.7,162.2,26.1z"/>
		<path class="st1" d="M105.7,67c-0.5,0.3-1,0.6-1.6,0.9c-0.7,1.2-1.9,1.2-3,1.3c-4.2,0.4-8.4-1.9-10.1-5.9
			c-0.1-0.2-0.2-0.5-0.5-0.6c-0.4,0-0.4,0.4-0.5,0.6c-1.1,2.6-3,4.3-5.6,5.3c-2.1,0.8-4.2,0.9-6.3,0.2c-0.5-0.2-1-0.4-1.2-0.9
			c-0.5-0.3-1-0.5-1.4-0.8c-1.6-0.2-2.3-1.4-3-2.6c-2.1-3.2-2-7.7,0.2-10.9c0.1-0.1,0.2-0.2,0.3-0.4c0.1-0.2,0.3-0.4,0.2-0.6
			c-0.1-0.3-0.4-0.2-0.7-0.2c-1.7,0.1-3.3,0-4.9-0.7c-3.1-1.3-5.1-3.6-5.9-6.8c-0.1-0.5-0.2-1,0.3-1.4c-0.1-2.9,0.6-5.5,2.7-7.6
			c2.3-2.2,5-3.1,8.2-2.6c0.4,0.1,0.8,0.1,1-0.3c0.3-0.4,0.2-0.7-0.2-1.1c-3.7-4.1-2.8-11.5,3.1-14.5c0.1,0,0.1-0.1,0.2-0.1
			c0.5-1.1,1.7-1.1,2.7-1.2c4.7-0.4,8.2,1.5,10.3,5.8c0.1,0.2,0.2,0.5,0.5,0.5c0.3,0,0.4-0.3,0.5-0.5c0.7-1.4,1.6-2.6,2.8-3.6
			c2.6-2.2,5.6-2.6,8.9-1.9c0.5,0.1,1.1,0.3,1.3,0.9c0.6,0.3,1.1,0.6,1.7,1c0.4-0.1,0.8,0.1,1.1,0.3c3.5,2.9,4.4,8.5,2,12.4
			c-0.3,0.5-1,1-0.7,1.5c0.3,0.6,1.1,0.3,1.7,0.2c4.1-0.2,8.3,2.8,9.5,7c0.2,0.7,0.5,1.3,0,2c0,0.6,0,1.2,0,1.8c0.6,1,0.1,2-0.3,2.8
			c-1.7,4-5.2,6.3-9.6,6.2c0,0,0,0-0.1,0c-0.5,0.1-1.1-0.3-1.3,0.2c-0.2,0.4,0.3,0.8,0.6,1.1c2.6,4,1.9,9.4-1.6,12.6
			C106.6,66.9,106.3,67.2,105.7,67z"/>
		<path class="st2" d="M99.2,43.7c0,5.5-4.3,9.8-9.7,9.8c-5.4,0-9.8-4.4-9.8-9.8c0-5.4,4.4-9.8,9.8-9.8
			C94.9,33.9,99.2,38.2,99.2,43.7z"/>
	</g>
</g>
</svg>
