<?xml version="1.0" encoding="utf-8"?>
<!-- Generator: Adobe Illustrator 19.2.1, SVG Export Plug-In . SVG Version: 6.00 Build 0)  -->
<svg version="1.1" id="Layer_1" xmlns="http://www.w3.org/2000/svg" xmlns:xlink="http://www.w3.org/1999/xlink" x="0px" y="0px"
	 viewBox="0 0 154.2 78.4" style="enable-background:new 0 0 154.2 78.4;" xml:space="preserve">
<style type="text/css">
	.st0{fill-rule:evenodd;clip-rule:evenodd;fill:#99979E;}
	.st1{fill-rule:evenodd;clip-rule:evenodd;fill:#FD603B;}
	.st2{fill-rule:evenodd;clip-rule:evenodd;fill:#91B4A1;}
	.st3{fill-rule:evenodd;clip-rule:evenodd;fill:#FFFFFF;}
</style>
<g id="Nmg5KV.tif">
	<g>
		<path class="st0" d="M77.8,0c1.8,0.5,3.1,1.5,3.4,3.5c0.1,0.6,0.6,0.6,1.1,0.6c1.3,0,2.6,0,3.9,0C92.6,4,99,3.9,105.3,3.9
			c4.4,0,8.9-0.1,13.3,0c17.5,0.5,32,13,35,30.2c0.8,4.7,0.7,9.3-0.3,13.9c-0.1,0.4-0.1,0.7-0.2,1.1c-0.1,0.2-0.2,0.4-0.2,0.6
			c0,0.2-0.1,0.4-0.1,0.5c-0.3,0.4-0.4,0.9-0.5,1.3c-0.6,1.9-1.4,3.7-2.3,5.4c-7.2,14.2-23.1,22-38.8,19.2c-6.4-1.2-12-3.8-17-7.9
			c-1.8-1.5-3.7-3-5.7-4.4c-2.1-1.4-4.4-2.4-7-2.8c-1.4-0.2-2.8-0.3-4.2-0.3c-5.1-0.1-9.7,1-13.7,4.3c-1.7,1.4-3.4,2.8-5.2,4.1
			c-7.9,6-16.8,8.4-26.7,7.2C17.6,74.6,6,64.9,1.6,51.1c-0.1-0.4-0.3-0.8-0.4-1.2C0.6,47,0.1,44.1,0,41.1C-0.4,22.9,12.8,7,30.9,4.2
			c4-0.6,7.9-0.4,11.9-0.4c7.3,0,14.6,0.1,21.9,0.1c2.4,0,4.8,0.1,7.2,0.1c1.1,0,1.3,0,1.6-1.1c0.4-1.7,1.7-2.5,3.2-3
			C77,0,77.4,0,77.8,0z M36.7,28.1c-1,0-2,0-2.9,0c-1.1,0-1.1,0-1.1,1.1c0,1.9,0,3.8,0,5.8c0,1.2,0,1.2-1.2,1.3c-1.9,0-3.8,0-5.8,0
			c-1.1,0-1.1,0-1.1,1.1c0,2,0,3.9,0,5.9c0,1.1,0,1.1,1.2,1.1c1.9,0,3.8,0,5.8,0c1.1,0,1.1,0,1.1,1.1c0,2,0,3.9,0,5.9
			c0,1,0,1.1,1,1.1c2,0,4,0,6,0c1.1,0,1.1,0,1.1-1.1c0-1.9,0-3.8,0-5.8c0-1.2,0-1.2,1.2-1.2c2,0,3.9,0,5.9,0c1,0,1,0,1-1
			c0-2,0-4,0-6c0-1.1,0-1.1-1.1-1.1c-1.9,0-3.8,0-5.8,0c-1.2,0-1.2,0-1.2-1.3c0-1.9,0-3.7,0-5.6c0-1.2,0-1.2-1.3-1.2
			C38.6,28.1,37.7,28.1,36.7,28.1z M113.6,48.6c0-2.3-1.7-4.1-4-4.1c-2.3,0-4.1,1.8-4.1,4.1c0,2.2,1.7,4,4,4.1
			C111.8,52.7,113.6,50.9,113.6,48.6z M129.9,32.5c0.1-2.3-1.7-4.2-4-4.2c-2.3,0-4.1,1.7-4.2,4c0,2.2,1.7,4.1,3.9,4.1
			C127.9,36.6,129.8,34.8,129.9,32.5z M113.6,32.5c0-2.3-1.7-4.1-4-4.1c-2.3,0-4.1,1.8-4.1,4.1c0,2.2,1.7,4,4,4.1
			C111.8,36.5,113.6,34.8,113.6,32.5z M129.9,48.6c0-2.3-1.7-4.1-4-4.1c-2.3,0-4.1,1.8-4.1,4.1c0,2.2,1.8,4,4,4
			C128,52.7,129.8,50.9,129.9,48.6z"/>
		<path class="st1" d="M1.2,50c0.1,0.4,0.3,0.8,0.4,1.2c4.4,13.7,16,23.5,30.3,25.3c9.8,1.2,18.7-1.2,26.7-7.2
			c1.8-1.3,3.5-2.7,5.2-4.1c4-3.3,8.7-4.5,13.7-4.3c1.4,0,2.8,0.1,4.2,0.3c2.5,0.4,4.9,1.3,7,2.8c2,1.3,3.8,2.9,5.7,4.4
			c5,4.1,10.6,6.7,17,7.9c15.6,2.8,31.6-5,38.8-19.2c0.9-1.8,1.7-3.6,2.3-5.4c0.1-0.4,0.2-0.9,0.5-1.3c0.3,0.4,0.1,0.8,0,1.2
			c-1.7,6.2-4.8,11.5-9.3,16.1c-5,5-10.9,8.3-17.7,9.9c-4.1,1-8.3,1.1-12.5,0.6c-7.2-0.8-13.5-3.7-19.2-8.3
			c-2.1-1.7-4.2-3.4-6.5-4.9c-2.2-1.3-4.5-2.1-7-2.3c-2.8-0.2-5.6-0.3-8.4,0.2c-2.8,0.5-5.3,1.6-7.5,3.2c-2.1,1.6-4.1,3.2-6.2,4.8
			c-5.2,3.9-11,6.4-17.4,7.2c-6.5,0.8-12.9,0-18.9-2.6c-5.1-2.2-9.4-5.3-13.1-9.4c-3.8-4.2-6.3-9.1-7.8-14.6C1.1,51,0.9,50.5,1.2,50
			z"/>
		<path class="st2" d="M153,49.7c0-0.2,0.1-0.4,0.2-0.6C153.4,49.4,153.3,49.6,153,49.7z"/>
		<path class="st3" d="M36.7,28.1c0.9,0,1.9,0,2.8,0c1.2,0,1.3,0,1.3,1.2c0,1.9,0,3.7,0,5.6c0,1.2,0,1.3,1.2,1.3c1.9,0,3.8,0,5.8,0
			c1.1,0,1.1,0,1.1,1.1c0,2,0,4,0,6c0,1,0,1-1,1c-2,0-3.9,0-5.9,0c-1.1,0-1.1,0-1.2,1.2c0,1.9,0,3.8,0,5.8c0,1.1,0,1.1-1.1,1.1
			c-2,0-4,0-6,0c-1,0-1,0-1-1.1c0-2,0-3.9,0-5.9c0-1.1,0-1.1-1.1-1.1c-1.9,0-3.8,0-5.8,0c-1.2,0-1.2,0-1.2-1.1c0-2,0-3.9,0-5.9
			c0-1.1,0-1.1,1.1-1.1c1.9,0,3.8,0,5.8,0c1.2,0,1.2,0,1.2-1.3c0-1.9,0-3.8,0-5.8c0-1.1,0-1.1,1.1-1.1C34.8,28,35.8,28.1,36.7,28.1z
			"/>
		<path class="st1" d="M113.6,48.6c0,2.3-1.9,4.1-4.1,4c-2.2-0.1-4-1.8-4-4.1c0-2.3,1.8-4.1,4.1-4.1
			C111.9,44.5,113.7,46.3,113.6,48.6z"/>
		<path class="st1" d="M129.9,32.5c-0.1,2.3-1.9,4-4.2,3.9c-2.2-0.1-3.9-1.9-3.9-4.1c0-2.3,1.9-4.1,4.2-4
			C128.2,28.4,129.9,30.2,129.9,32.5z"/>
		<path class="st1" d="M113.6,32.5c0,2.3-1.8,4.1-4.1,4c-2.2-0.1-4-1.8-4-4.1c0-2.3,1.8-4.1,4.1-4.1
			C111.9,28.3,113.7,30.2,113.6,32.5z"/>
		<path class="st1" d="M129.9,48.6c0,2.3-1.8,4.1-4.1,4c-2.2,0-4-1.8-4-4c0-2.3,1.8-4.1,4.1-4.1C128.1,44.5,129.9,46.3,129.9,48.6z"
			/>
	</g>
</g>
</svg>
