<?xml version="1.0" encoding="utf-8"?>
<!-- Generator: Adobe Illustrator 19.2.1, SVG Export Plug-In . SVG Version: 6.00 Build 0)  -->
<svg version="1.1" id="Layer_1" xmlns="http://www.w3.org/2000/svg" xmlns:xlink="http://www.w3.org/1999/xlink" x="0px" y="0px"
	 viewBox="0 0 150 150" style="enable-background:new 0 0 150 150;" xml:space="preserve">
<style type="text/css">
	.st0{fill-rule:evenodd;clip-rule:evenodd;fill:#68C4DD;}
	.st1{fill-rule:evenodd;clip-rule:evenodd;fill:#F53E15;}
	.st2{fill-rule:evenodd;clip-rule:evenodd;fill:#E12200;}
</style>
<g>
	<path class="st0" d="M150,140.5c0,5.3-4.3,9.5-9.5,9.5H9.5c-5.3,0-9.5-4.3-9.5-9.5V9.5C0,4.3,4.3,0,9.5,0h131
		c5.3,0,9.5,4.3,9.5,9.5V140.5z"/>
	<path class="st1" d="M77.3,125.2c-1.7,1.8-2.6-0.3-3.6-0.9c-9.6-6.3-19.2-12.7-28.8-19.1C37.4,99,29.8,93,23.4,85.5
		c-14.3-16.7-7.3-36,3.7-44c14.9-10.8,34.9-7.4,45.5,7.9c0.1,0.2,0.3,0.4,0.5,0.6c2.4,2.5,4.1,5.4,5.2,8.6
		c0.4,20.4,0.1,40.7,0.2,61.1C78.4,121.7,77.8,123.4,77.3,125.2z"/>
	<path class="st2" d="M77.3,125.2c-1.1-1.5-0.7-3.3-0.7-5c0-20.8,0-41.6,0-62.4c-0.5-1.9-0.4-3.6,1.5-4.7
		c10.1-22.8,42.4-23.5,55.3-3c7.3,14.5,3.9,27.1-6.9,38.5c-10.8,11.5-24,20-37,28.7C85.5,120,81.4,122.5,77.3,125.2z"/>
</g>
</svg>
