<?xml version="1.0" encoding="utf-8"?>
<!-- Generator: Adobe Illustrator 19.2.1, SVG Export Plug-In . SVG Version: 6.00 Build 0)  -->
<svg version="1.1" id="Layer_1" xmlns="http://www.w3.org/2000/svg" xmlns:xlink="http://www.w3.org/1999/xlink" x="0px" y="0px"
	 viewBox="0 0 191.1 92.8" style="enable-background:new 0 0 191.1 92.8;" xml:space="preserve">
<style type="text/css">
	.st0{fill:#B22C2D;}
	.st1{fill-rule:evenodd;clip-rule:evenodd;fill:#B22C2D;}
	.st2{fill-rule:evenodd;clip-rule:evenodd;fill:#FBD038;}
	.st3{fill:#FBD038;}
</style>
<g>
	<g>
		<g>
			<path class="st0" d="M67.1,83c6.2,0,12.1,0.2,18-0.1c4.2-0.2,7.1-3.8,7.1-8c0-4.2-3.2-7.8-7.4-8.3c-1.6-0.2-3.3,0-4.9-0.1
				c-4.4-0.4-7.6-2.5-9.1-6.9c-2.4-7.2,1.7-13.5,9.4-13.8c5.7-0.2,11.3,0,17,0c0-2,0-3.5,0-5.1c-6.4,0-12.7-0.3-18.8,0.1
				c-5.2,0.3-9,3.2-11.2,8c-4.2,9.3,0,23.5,15.2,22.9c2.3-0.1,5-0.1,4.9,3.2c0,3.3-2.6,3.2-4.9,3.1c-5,0-10.1,0-15.2,0
				C67.1,79.8,67.1,81.3,67.1,83z M97.2,48.6c-6.1,0-11.9-0.2-17.7,0.1c-4,0.2-6.3,3.1-6.3,7.2c0,4.2,2.4,7.1,6.5,7.6
				c1.6,0.2,3.3,0,4.9,0.1c4.7,0.4,8.2,2.6,9.9,7.1c2.9,7.7-1.8,14.8-10.1,15.1c-5.7,0.2-11.3,0-17.3,0c0,1.9,0,3.3,0,5.1
				c6.5,0,13,0.3,19.4-0.1c5.2-0.4,9.3-3.3,11.5-8.2c4.8-10.5-0.7-24.7-15.7-24.1C80.5,58.5,78,58.8,78,56c0-2.8,2.4-2.4,4.3-2.4
				c4.9,0,9.8,0,14.9,0C97.2,51.9,97.2,50.5,97.2,48.6z M144.8,85.7c-6.2,0-11.8,0-17.8,0c0-15.1,0-29.8,0-44.8c-1.7,0-3.1,0-4.5,0
				c0,16.7,0,33.2,0,49.7c7.6,0,15,0,22.3,0C144.8,89,144.8,87.6,144.8,85.7z M18.5,40.8c0,7.6-0.1,14.8,0,22
				c0.1,5.3,0,10.7,0.7,15.9c0.9,6.7,5.8,11.3,12.4,12c3.9,0.4,7.8,0.1,11.8,0.1c0-1.7,0-3.1,0-5c-2.6,0-5,0-7.4,0
				c-9.4-0.1-13-3.6-13.1-13.2c-0.1-8.5,0-17,0-25.5c0-2.1,0-4.2,0-6.4C21.3,40.8,20.2,40.8,18.5,40.8z M191.1,86
				c-1.5-0.1-2.7-0.2-3.8-0.2c-14.6-0.1-16.8-2.3-16.8-17.1c0-9.2,0-18.4,0-27.7c-1.7,0-3,0-4.5,0c0,7.7-0.1,15.2,0,22.7
				c0.1,4.9,0,9.9,0.7,14.8c0.9,6.8,5.6,11.4,12.2,12.2c4,0.5,8,0.1,12.1,0.1C191.1,89.1,191.1,87.8,191.1,86z M153.3,90.8
				c0-16.7,0-33.2,0-49.8c-1.6,0-2.9,0-4.3,0c0,16.7,0,33.1,0,49.8C150.5,90.8,151.8,90.8,153.3,90.8z M1.5,40.9
				c0,16.8,0,33.3,0,49.9c1.5,0,2.8,0,4.2,0c0-16.7,0-33.2,0-49.9C4.3,40.9,3.1,40.9,1.5,40.9z M144.8,83c0-1.8,0-3.2,0-5.1
				c-3.7,0-7.2,0-11,0c0-12.6,0-24.8,0-37c-1.6,0-2.8,0-4.1,0c0,14.1,0,28,0,42.1C134.8,83,139.5,83,144.8,83z M43.3,57.7
				c-5.1,0-10,0.1-14.9,0c-2.4-0.1-3,0.9-3,3.1c0.1,4-0.1,8.1,0.1,12.1c0.3,7.5,3.1,10.1,10.6,10.2c2.4,0,4.8,0,7.4,0
				c0-1.8,0-3.3,0-5.1c-3,0-5.9-0.1-8.8,0c-2.8,0.1-4.4-1.3-4.6-4c-0.2-3.6,0-7.3,0-11.3c4.6,0,8.8,0,13.2,0
				C43.3,61,43.3,59.5,43.3,57.7z M177.6,62.8c4.6,0,8.9,0,13.2,0c0-1.8,0-3.3,0-5.1c-5.4,0-10.5-0.1-15.7,0.1c-0.7,0-2,1.2-2,1.9
				c0,5.6,0,11.1,0.4,16.7c0.3,3.6,2.6,6.1,6.4,6.4c3.6,0.3,7.3,0.1,11.1,0.1c0-1.6,0-3,0-4.8c-3.1,0-6-0.1-8.8,0
				c-2.8,0.1-4.4-1.3-4.5-4C177.5,70.4,177.6,66.8,177.6,62.8z M8.7,40.7c0,17,0,33.5,0,50.1c1.4,0,2.7,0,4.1,0
				c0-16.7,0-33.2,0-49.9C11.4,40.8,10.2,40.8,8.7,40.7z M156.3,40.7c0,17,0,33.5,0,50.1c1.4,0,2.7,0,4.1,0c0-16.7,0-33.2,0-49.9
				C159,40.8,157.7,40.8,156.3,40.7z M43.3,50.1c-4.4,0-8.6,0-13.3,0c0-3.3,0-6.1,0-9c-1.7,0-3,0-4.4,0c0,4.8,0,9.3,0,13.9
				c6,0,11.9,0,17.6,0C43.3,53.2,43.3,51.9,43.3,50.1z M177.7,40.7c-1.9,0.1-3.1,0.1-4.4,0.2c0,4.9,0,9.4,0,14.1c6,0,11.7,0,17.6,0
				c0-1.6,0-3.1,0-5c-4.4,0-8.6,0-13.2,0C177.7,46.8,177.7,44.1,177.7,40.7z M53.7,60.4c0-6.6,0-12.9,0-19.4c-1.5,0-2.9,0-4.2,0
				c0,6.6,0,13,0,19.4C51,60.4,52.2,60.4,53.7,60.4z M56.6,40.7c0,6.8,0,13.2,0,19.8c1.5-0.1,2.8-0.1,4.1-0.2c0-6.7,0-12.9,0-19.4
				C59.3,40.8,58.1,40.8,56.6,40.7z"/>
			<path class="st1" d="M67.1,83c0-1.8,0-3.2,0-5c5.1,0,10.2,0,15.2,0c2.4,0,4.9,0.1,4.9-3.1c0-3.3-2.6-3.3-4.9-3.2
				c-15.2,0.6-19.4-13.5-15.2-22.9c2.2-4.8,6-7.7,11.2-8c6.2-0.4,12.4-0.1,18.8-0.1c0,1.6,0,3.1,0,5.1c-5.7,0-11.4-0.1-17,0
				c-7.6,0.2-11.8,6.5-9.4,13.8c1.5,4.3,4.7,6.5,9.1,6.9c1.6,0.1,3.3,0,4.9,0.1c4.2,0.5,7.4,4.1,7.4,8.3c0,4.2-2.8,7.8-7.1,8
				C79.2,83.3,73.2,83,67.1,83z"/>
			<path class="st1" d="M97.2,48.6c0,1.9,0,3.3,0,5c-5.1,0-10,0-14.9,0c-1.9,0-4.3-0.4-4.3,2.4c0,2.8,2.4,2.5,4.3,2.4
				C97.2,57.8,102.7,72,98,82.5c-2.2,4.9-6.3,7.8-11.5,8.2c-6.4,0.4-12.9,0.1-19.4,0.1c0-1.7,0-3.2,0-5.1c5.9,0,11.6,0.1,17.3,0
				c8.3-0.3,13-7.4,10.1-15.1c-1.7-4.5-5.2-6.7-9.9-7.1c-1.6-0.1-3.3,0.1-4.9-0.1c-4-0.5-6.5-3.4-6.5-7.6c0-4.1,2.3-7,6.3-7.2
				C85.2,48.4,91,48.6,97.2,48.6z"/>
			<path class="st1" d="M144.8,85.7c0,1.9,0,3.3,0,4.9c-7.3,0-14.7,0-22.3,0c0-16.5,0-33,0-49.7c1.4,0,2.8,0,4.5,0
				c0,14.9,0,29.7,0,44.8C133,85.7,138.6,85.7,144.8,85.7z"/>
			<path class="st1" d="M18.5,40.8c1.7,0,2.9,0,4.5,0c0,2.2,0,4.3,0,6.4c0,8.5-0.1,17,0,25.5c0.1,9.6,3.6,13.1,13.1,13.2
				c2.4,0,4.8,0,7.4,0c0,1.8,0,3.3,0,5c-4,0-8,0.3-11.8-0.1c-6.6-0.7-11.5-5.3-12.4-12c-0.7-5.2-0.6-10.6-0.7-15.9
				C18.4,55.6,18.5,48.4,18.5,40.8z"/>
			<path class="st1" d="M191.1,86c0,1.8,0,3.1,0,4.7c-4.1,0-8.2,0.4-12.1-0.1c-6.6-0.8-11.3-5.5-12.2-12.2
				c-0.7-4.9-0.6-9.8-0.7-14.8c-0.1-7.5,0-14.9,0-22.7c1.5,0,2.8,0,4.5,0c0,9.3,0,18.5,0,27.7c0,14.8,2.1,17,16.8,17.1
				C188.4,85.9,189.5,85.9,191.1,86z"/>
			<path class="st1" d="M153.3,90.8c-1.5,0-2.8,0-4.3,0c0-16.6,0-33.1,0-49.8c1.4,0,2.7,0,4.3,0C153.3,57.5,153.3,74.1,153.3,90.8z"
				/>
			<path class="st1" d="M1.5,40.9c1.5,0,2.8,0,4.2,0c0,16.7,0,33.2,0,49.9c-1.5,0-2.7,0-4.2,0C1.5,74.2,1.5,57.7,1.5,40.9z"/>
			<path class="st1" d="M144.8,83c-5.2,0-10,0-15.1,0c0-14,0-28,0-42.1c1.3,0,2.5,0,4.1,0c0,12.2,0,24.4,0,37c3.8,0,7.3,0,11,0
				C144.8,79.7,144.8,81.2,144.8,83z"/>
			<path class="st1" d="M43.3,57.7c0,1.8,0,3.3,0,5.1c-4.4,0-8.6,0-13.2,0c0,4-0.1,7.6,0,11.3c0.1,2.7,1.8,4,4.6,4
				c2.9-0.1,5.8,0,8.8,0c0,1.8,0,3.3,0,5.1c-2.6,0-5,0-7.4,0c-7.5-0.1-10.4-2.7-10.6-10.2c-0.1-4,0.1-8.1-0.1-12.1
				c-0.1-2.2,0.6-3.2,3-3.1C33.3,57.8,38.2,57.7,43.3,57.7z"/>
			<path class="st1" d="M177.6,62.8c0,4-0.1,7.6,0,11.2c0.1,2.7,1.7,4.1,4.5,4c2.9-0.1,5.8,0,8.8,0c0,1.8,0,3.2,0,4.8
				c-3.8,0-7.5,0.2-11.1-0.1c-3.8-0.3-6.1-2.8-6.4-6.4c-0.5-5.5-0.5-11.1-0.4-16.7c0-0.7,1.3-1.9,2-1.9c5.2-0.2,10.3-0.1,15.7-0.1
				c0,1.8,0,3.2,0,5.1C186.5,62.8,182.3,62.8,177.6,62.8z"/>
			<path class="st1" d="M8.7,40.7c1.5,0.1,2.7,0.1,4.1,0.2c0,16.7,0,33.2,0,49.9c-1.4,0-2.6,0-4.1,0C8.7,74.2,8.7,57.7,8.7,40.7z"/>
			<path class="st1" d="M156.3,40.7c1.5,0.1,2.7,0.1,4.1,0.2c0,16.7,0,33.2,0,49.9c-1.4,0-2.6,0-4.1,0
				C156.3,74.2,156.3,57.7,156.3,40.7z"/>
			<path class="st1" d="M43.3,50.1c0,1.8,0,3.2,0,4.8c-5.8,0-11.6,0-17.6,0c0-4.6,0-9.1,0-13.9c1.4,0,2.6,0,4.4,0c0,2.9,0,5.8,0,9
				C34.6,50.1,38.9,50.1,43.3,50.1z"/>
			<path class="st1" d="M177.7,40.7c0,3.3,0,6.1,0,9.3c4.5,0,8.7,0,13.2,0c0,1.9,0,3.3,0,5c-5.9,0-11.6,0-17.6,0c0-4.7,0-9.2,0-14.1
				C174.5,40.9,175.8,40.8,177.7,40.7z"/>
			<path class="st1" d="M53.7,60.4c-1.4,0-2.7,0-4.2,0c0-6.4,0-12.8,0-19.4c1.3,0,2.7,0,4.2,0C53.7,47.4,53.7,53.8,53.7,60.4z"/>
			<path class="st1" d="M56.6,40.7c1.5,0.1,2.7,0.1,4.1,0.2c0,6.5,0,12.7,0,19.4c-1.3,0.1-2.6,0.1-4.1,0.2
				C56.6,53.9,56.6,47.5,56.6,40.7z"/>
		</g>
		<path class="st2" d="M167.6,22c-0.2,0.3-0.4,0.4-0.5,0.6c-0.3,0.4-0.5,0.7-0.8,1.1c-0.4,0.5-1,0.8-1.6,1c-1.2,0.4-2.8-0.1-2.6-1.7
			c0.1-0.9,0.2-1.8,0.5-2.7c0.4-1.1,0.9-2.3,1.1-3.4c0.1-0.5,0.2-1.1,0.1-1.6c0,0,0,0,0,0c-0.3-1.4-1.3-3.3-2.3-4.4
			c-0.6-0.7-1.3-1.4-2.1-2c-1.8-1.6-3.3-3.4-4.3-5.5c-0.4-0.9-0.6-1.9-0.9-2.8c-0.1-0.2-0.1-0.4-0.3-0.6c-1.4,1.1-2.3,2.4-3,3.9
			c-1.4,3-1.2,6.1-0.1,9.3c-1.4-0.7-2-1.8-3.2-2.6c0.2,1.4,0.6,3.1,1.3,4.3c0,0.1,0,0.1,0,0.2c0.2,0.7,0.4,1.3,0.4,2
			c0.1,1-0.1,1.9-0.8,2.8c-0.2-0.2-0.3-0.4-0.4-0.6c-0.3-0.6-0.5-1.3-0.9-1.8c-0.4-0.6-0.8-1.1-1.5-1.5c-0.1-0.1-0.3-0.2-0.5-0.2
			c0,0.1,0,0.2,0,0.2c0.5,1.6,0.1,3.1-0.8,4.5c-0.3,0.5-0.8,1-1.2,1.5c-0.6,0.8-1.4,1.5-1.9,2.4c-0.6,1-1.1,2.1-0.8,3.3
			c0.3,1.4,1,2.6,2.1,3.7c1.1,1.1,2.4,2,4.1,2.5c0.5,0.1,1.1,0.2,1.6,0.2c0.5,0,0.6-0.2,0.5-0.6c0-0.1-0.1-0.2-0.2-0.3
			c-1.1-1.9-1.7-6-0.3-7.3c0-0.1,0.1-0.1,0.1-0.1c0.1-0.1,0.3-0.1,0.4,0c0.1,0.1,0.1,0.2,0.1,0.3c0.2,0.9,0.8,1.5,1.5,2.1
			c0.6,0.5,1.2,0.6,1.9,0.2c1.2-0.7,4.2-3.8,4.7-6.8c0,0,0-0.1,0-0.1c0-0.1,0-0.3,0.3-0.3c0.2,0,0.3,0.1,0.3,0.3
			c0,0.3,0.1,0.5,0.1,0.8c0,1.2-0.3,2.4-0.9,3.5c-0.3,0.5-0.5,1-0.7,1.5c-0.4,0.9-0.2,1.4,0.7,2c0.4,0.3,0.9,0.5,1.3,0.8
			c0.4,0.3,0.6,0.5,0.4,0.9c-0.2,0.6-0.4,1.2-0.8,1.8c-0.1,0.2-0.3,0.4-0.2,0.6c0.4,0,0.8,0,1.2-0.1c3.9-0.9,6.5-3,8-6.2
			c0.1-0.2,0.1-0.4,0.3-0.6C167.9,24.9,167.7,23.5,167.6,22z"/>
		<path class="st1" d="M165.4,23.9c-0.2,0.3-0.3,0.4-0.4,0.6c-0.2,0.3-0.4,0.7-0.7,1c-0.3,0.5-0.8,0.8-1.3,1c-1,0.4-2.2-0.1-2.1-1.6
			c0.1-0.9,0.1-1.7,0.4-2.5c0.4-1.1,0.7-2.1,0.9-3.2c0.1-0.5,0.2-1,0.1-1.5c0,0,0,0,0,0c-0.3-1.3-1.1-3.1-1.9-4.1
			c-0.5-0.7-1.1-1.3-1.7-1.9c-1.5-1.5-2.7-3.2-3.5-5.1c-0.3-0.9-0.5-1.8-0.7-2.6c0-0.2-0.1-0.4-0.2-0.6c-1.1,1-1.9,2.3-2.4,3.7
			c-1.1,2.9-1,5.7-0.1,8.7c-1.1-0.6-1.6-1.7-2.6-2.5c0.2,1.3,0.5,2.9,1,4c0,0.1,0,0.1,0,0.2c0.1,0.6,0.3,1.3,0.3,1.9
			c0.1,0.9-0.1,1.8-0.7,2.6c-0.2-0.2-0.2-0.4-0.3-0.6c-0.2-0.6-0.4-1.2-0.7-1.7c-0.3-0.6-0.7-1.1-1.2-1.4c-0.1-0.1-0.2-0.2-0.4-0.2
			c0,0.1,0,0.2,0,0.2c0.4,1.5,0.1,2.9-0.7,4.2c-0.3,0.5-0.6,1-1,1.4c-0.5,0.7-1.1,1.4-1.5,2.2c-0.5,1-0.9,2-0.7,3.1
			c0.2,1.3,0.8,2.5,1.7,3.5c0.9,1.1,2,1.9,3.3,2.4c0.4,0.1,0.9,0.2,1.3,0.2c0.4,0,0.5-0.2,0.4-0.6c0-0.1-0.1-0.2-0.1-0.3
			c-0.9-1.8-1.4-5.6-0.2-6.9c0-0.1,0.1-0.1,0.1-0.1c0.1-0.1,0.2-0.1,0.3,0c0.1,0.1,0.1,0.2,0.1,0.3c0.1,0.8,0.7,1.4,1.2,2
			c0.5,0.5,1,0.5,1.5,0.2c0.9-0.6,3.4-3.6,3.8-6.4c0,0,0-0.1,0-0.1c0-0.1,0-0.3,0.2-0.3c0.2,0,0.2,0.1,0.2,0.3
			c0,0.2,0.1,0.5,0.1,0.7c0,1.2-0.3,2.3-0.7,3.3c-0.2,0.5-0.4,0.9-0.6,1.4c-0.3,0.8-0.2,1.3,0.5,1.9c0.3,0.3,0.7,0.5,1,0.7
			c0.3,0.2,0.5,0.5,0.3,0.8c-0.2,0.6-0.3,1.2-0.7,1.7c-0.1,0.2-0.2,0.3-0.2,0.6c0.3,0,0.7,0,1-0.1c3.1-0.8,5.2-2.9,6.5-5.8
			c0.1-0.2,0.1-0.4,0.2-0.6C165.6,26.6,165.4,25.3,165.4,23.9z"/>
	</g>
	<g>
		<path class="st3" d="M65.5,84.8c6.2,0,12.1,0.2,18-0.1c4.2-0.2,7.1-3.8,7.1-8c0-4.2-3.2-7.8-7.4-8.3c-1.6-0.2-3.3,0-4.9-0.1
			c-4.4-0.4-7.6-2.5-9.1-6.8c-2.5-7.2,1.7-13.5,9.4-13.8c5.7-0.2,11.3,0,17,0c0-2,0-3.5,0-5.1c-6.4,0-12.7-0.3-18.8,0.1
			c-5.2,0.3-9,3.2-11.2,8c-4.2,9.3,0,23.5,15.2,22.9c2.3-0.1,5-0.1,4.9,3.2c0,3.3-2.6,3.2-4.9,3.1c-5,0-10.1,0-15.2,0
			C65.5,81.6,65.5,83,65.5,84.8z M95.6,50.4c-6.1,0-12-0.2-17.7,0.1c-4,0.2-6.3,3.1-6.3,7.2c0,4.2,2.4,7.1,6.5,7.6
			c1.6,0.2,3.3,0,4.9,0.1c4.7,0.4,8.2,2.6,9.9,7.1c2.9,7.7-1.8,14.8-10.1,15.1c-5.7,0.2-11.3,0-17.3,0c0,1.9,0,3.3,0,5.1
			c6.5,0,13,0.3,19.4-0.1c5.2-0.4,9.3-3.3,11.5-8.2c4.8-10.5-0.7-24.7-15.7-24.1c-1.8,0.1-4.3,0.4-4.3-2.4c0-2.8,2.4-2.4,4.3-2.4
			c4.9,0,9.8,0,14.9,0C95.6,53.7,95.6,52.3,95.6,50.4z M143.2,87.5c-6.2,0-11.8,0-17.8,0c0-15.1,0-29.8,0-44.8c-1.7,0-3.1,0-4.5,0
			c0,16.7,0,33.2,0,49.7c7.6,0,15,0,22.3,0C143.2,90.8,143.2,89.4,143.2,87.5z M17,42.6c0,7.6-0.1,14.8,0,22
			c0.1,5.3,0,10.7,0.7,15.9c0.9,6.7,5.8,11.3,12.4,12c3.9,0.4,7.8,0.1,11.8,0.1c0-1.7,0-3.1,0-5c-2.6,0-5,0-7.4,0
			c-9.4-0.1-13-3.6-13.1-13.2c-0.1-8.5,0-17,0-25.5c0-2.1,0-4.2,0-6.4C19.8,42.6,18.7,42.6,17,42.6z M189.6,87.8
			c-1.5-0.1-2.7-0.2-3.8-0.2c-14.6-0.1-16.8-2.3-16.8-17.1c0-9.2,0-18.4,0-27.7c-1.7,0-2.9,0-4.5,0c0,7.7-0.1,15.2,0,22.7
			c0.1,4.9,0,9.9,0.7,14.8c0.9,6.8,5.6,11.4,12.2,12.2c4,0.5,8,0.1,12.1,0.1C189.6,90.9,189.6,89.6,189.6,87.8z M151.8,92.5
			c0-16.7,0-33.2,0-49.8c-1.6,0-2.9,0-4.3,0c0,16.7,0,33.1,0,49.8C149,92.5,150.3,92.5,151.8,92.5z M0,42.7C0,59.5,0,76,0,92.6
			c1.5,0,2.8,0,4.2,0c0-16.7,0-33.2,0-49.9C2.8,42.7,1.5,42.7,0,42.7z M143.2,84.8c0-1.8,0-3.2,0-5.1c-3.7,0-7.2,0-11,0
			c0-12.6,0-24.8,0-37c-1.6,0-2.8,0-4.1,0c0,14.1,0,28,0,42.1C133.2,84.8,138,84.8,143.2,84.8z M41.7,59.5c-5.1,0-10,0.1-14.9,0
			c-2.4-0.1-3,0.9-3,3.1c0.1,4-0.1,8.1,0.1,12.1c0.3,7.5,3.1,10.1,10.6,10.2c2.4,0,4.8,0,7.4,0c0-1.8,0-3.3,0-5.1
			c-3,0-5.9-0.1-8.8,0c-2.8,0.1-4.4-1.3-4.6-4c-0.2-3.6,0-7.3,0-11.3c4.6,0,8.8,0,13.2,0C41.7,62.8,41.7,61.3,41.7,59.5z
			 M176.1,64.5c4.6,0,8.9,0,13.2,0c0-1.8,0-3.3,0-5.1c-5.4,0-10.5-0.1-15.7,0.1c-0.7,0-2,1.2-2,1.9c0,5.6,0,11.1,0.4,16.7
			c0.3,3.6,2.6,6.1,6.4,6.4c3.6,0.3,7.3,0.1,11.1,0.1c0-1.6,0-3,0-4.8c-3.1,0-6-0.1-8.8,0c-2.8,0.1-4.4-1.3-4.5-4
			C176,72.2,176.1,68.5,176.1,64.5z M7.2,42.5c0,17,0,33.5,0,50.1c1.4,0,2.7,0,4.1,0c0-16.7,0-33.2,0-49.9
			C9.9,42.6,8.7,42.6,7.2,42.5z M154.7,42.5c0,17,0,33.5,0,50.1c1.4,0,2.7,0,4.1,0c0-16.7,0-33.2,0-49.9
			C157.4,42.6,156.2,42.6,154.7,42.5z M41.8,51.8c-4.4,0-8.6,0-13.3,0c0-3.3,0-6.1,0-9c-1.7,0-3,0-4.4,0c0,4.8,0,9.3,0,13.9
			c6,0,11.9,0,17.6,0C41.8,55,41.8,53.6,41.8,51.8z M176.1,42.5c-1.9,0.1-3.1,0.1-4.4,0.2c0,4.9,0,9.4,0,14.1c6,0,11.7,0,17.6,0
			c0-1.6,0-3.1,0-5c-4.4,0-8.6,0-13.2,0C176.1,48.6,176.1,45.8,176.1,42.5z M52.1,62.1c0-6.6,0-12.9,0-19.4c-1.5,0-2.9,0-4.2,0
			c0,6.6,0,13,0,19.4C49.5,62.1,50.7,62.1,52.1,62.1z M55.1,42.5c0,6.8,0,13.2,0,19.8c1.5-0.1,2.8-0.1,4.1-0.2c0-6.7,0-12.9,0-19.4
			C57.8,42.6,56.6,42.6,55.1,42.5z"/>
		<path class="st2" d="M65.5,84.8c0-1.8,0-3.2,0-5c5.1,0,10.2,0,15.2,0c2.4,0,4.9,0.1,4.9-3.1c0-3.3-2.6-3.3-4.9-3.2
			c-15.2,0.6-19.4-13.5-15.2-22.9c2.2-4.8,6-7.7,11.2-8c6.2-0.4,12.4-0.1,18.8-0.1c0,1.6,0,3.1,0,5.1c-5.7,0-11.4-0.1-17,0
			c-7.6,0.2-11.8,6.5-9.4,13.8c1.5,4.3,4.7,6.5,9.1,6.8c1.6,0.1,3.3,0,4.9,0.1c4.2,0.5,7.4,4.1,7.4,8.3c0,4.2-2.8,7.8-7.1,8
			C77.6,85,71.7,84.8,65.5,84.8z"/>
		<path class="st2" d="M95.6,50.4c0,1.9,0,3.3,0,5c-5.1,0-10,0-14.9,0c-1.9,0-4.3-0.4-4.3,2.4c0,2.8,2.5,2.5,4.3,2.4
			c14.9-0.6,20.4,13.6,15.7,24.1c-2.2,4.9-6.3,7.8-11.5,8.2c-6.4,0.4-12.9,0.1-19.4,0.1c0-1.7,0-3.2,0-5.1c5.9,0,11.6,0.1,17.3,0
			c8.3-0.3,13-7.4,10.1-15.1c-1.7-4.5-5.2-6.7-9.9-7.1c-1.6-0.1-3.3,0.1-4.9-0.1c-4-0.5-6.5-3.4-6.5-7.6c0-4.1,2.3-7,6.3-7.2
			C83.7,50.2,89.5,50.4,95.6,50.4z"/>
		<path class="st2" d="M143.2,87.5c0,1.9,0,3.3,0,4.9c-7.3,0-14.7,0-22.3,0c0-16.5,0-33,0-49.7c1.5,0,2.8,0,4.5,0
			c0,14.9,0,29.7,0,44.8C131.4,87.5,137.1,87.5,143.2,87.5z"/>
		<path class="st2" d="M17,42.6c1.7,0,2.9,0,4.5,0c0,2.2,0,4.3,0,6.4c0,8.5-0.1,17,0,25.5c0.1,9.6,3.6,13.1,13.1,13.2
			c2.4,0,4.8,0,7.4,0c0,1.8,0,3.3,0,5c-4,0-8,0.4-11.8-0.1c-6.6-0.7-11.5-5.3-12.4-12C17,75.2,17.1,69.9,17,64.6
			C16.9,57.4,17,50.2,17,42.6z"/>
		<path class="st2" d="M189.6,87.8c0,1.8,0,3.1,0,4.7c-4.1,0-8.2,0.4-12.1-0.1c-6.6-0.8-11.3-5.5-12.2-12.2
			c-0.7-4.9-0.6-9.8-0.7-14.8c-0.1-7.5,0-14.9,0-22.7c1.5,0,2.8,0,4.5,0c0,9.3,0,18.5,0,27.7c0,14.8,2.1,17,16.8,17.1
			C186.9,87.6,188,87.7,189.6,87.8z"/>
		<path class="st2" d="M151.8,92.5c-1.5,0-2.8,0-4.3,0c0-16.6,0-33.1,0-49.8c1.4,0,2.8,0,4.3,0C151.8,59.3,151.8,75.8,151.8,92.5z"
			/>
		<path class="st2" d="M0,42.7c1.5,0,2.8,0,4.2,0c0,16.7,0,33.2,0,49.9c-1.4,0-2.7,0-4.2,0C0,76,0,59.5,0,42.7z"/>
		<path class="st2" d="M143.2,84.8c-5.2,0-10,0-15.1,0c0-14.1,0-28,0-42.1c1.3,0,2.5,0,4.1,0c0,12.2,0,24.4,0,37c3.8,0,7.3,0,11,0
			C143.2,81.5,143.2,83,143.2,84.8z"/>
		<path class="st2" d="M41.7,59.5c0,1.8,0,3.3,0,5.1c-4.4,0-8.6,0-13.2,0c0,4-0.1,7.6,0,11.3c0.1,2.7,1.8,4,4.6,4
			c2.9-0.1,5.8,0,8.8,0c0,1.8,0,3.3,0,5.1c-2.6,0-5,0-7.4,0c-7.5-0.1-10.4-2.7-10.6-10.2c-0.1-4,0.1-8.1-0.1-12.1
			c-0.1-2.2,0.6-3.2,3-3.1C31.7,59.6,36.6,59.5,41.7,59.5z"/>
		<path class="st2" d="M176.1,64.5c0,4-0.1,7.6,0,11.2c0.1,2.7,1.7,4.1,4.5,4c2.9-0.1,5.8,0,8.8,0c0,1.8,0,3.2,0,4.8
			c-3.8,0-7.5,0.2-11.1-0.1c-3.8-0.3-6.1-2.8-6.4-6.4c-0.5-5.5-0.4-11.1-0.4-16.7c0-0.7,1.3-1.9,2-1.9c5.2-0.2,10.3-0.1,15.7-0.1
			c0,1.8,0,3.2,0,5.1C185,64.5,180.7,64.5,176.1,64.5z"/>
		<path class="st2" d="M7.2,42.5c1.5,0.1,2.7,0.1,4.1,0.2c0,16.7,0,33.2,0,49.9c-1.4,0-2.6,0-4.1,0C7.2,76,7.2,59.5,7.2,42.5z"/>
		<path class="st2" d="M154.7,42.5c1.5,0.1,2.7,0.1,4.1,0.2c0,16.7,0,33.2,0,49.9c-1.4,0-2.6,0-4.1,0
			C154.7,76,154.7,59.5,154.7,42.5z"/>
		<path class="st2" d="M41.8,51.8c0,1.8,0,3.2,0,4.8c-5.8,0-11.6,0-17.6,0c0-4.6,0-9.1,0-13.9c1.4,0,2.6,0,4.4,0c0,2.9,0,5.8,0,9
			C33.1,51.8,37.4,51.8,41.8,51.8z"/>
		<path class="st2" d="M176.1,42.5c0,3.3,0,6.1,0,9.3c4.5,0,8.7,0,13.2,0c0,1.9,0,3.3,0,5c-5.9,0-11.6,0-17.6,0c0-4.7,0-9.2,0-14.1
			C173,42.7,174.3,42.6,176.1,42.5z"/>
		<path class="st2" d="M52.1,62.1c-1.4,0-2.7,0-4.2,0c0-6.4,0-12.8,0-19.4c1.3,0,2.7,0,4.2,0C52.1,49.2,52.1,55.6,52.1,62.1z"/>
		<path class="st2" d="M55.1,42.5c1.5,0.1,2.7,0.1,4.1,0.2c0,6.5,0,12.7,0,19.4c-1.3,0.1-2.6,0.1-4.1,0.2
			C55.1,55.7,55.1,49.3,55.1,42.5z"/>
	</g>
</g>
</svg>
