<?xml version="1.0" encoding="utf-8"?>
<!-- Generator: Adobe Illustrator 19.2.1, SVG Export Plug-In . SVG Version: 6.00 Build 0)  -->
<svg version="1.1" id="Layer_1" xmlns="http://www.w3.org/2000/svg" xmlns:xlink="http://www.w3.org/1999/xlink" x="0px" y="0px"
	 viewBox="0 0 92.3 125.5" style="enable-background:new 0 0 92.3 125.5;" xml:space="preserve">
<style type="text/css">
	.st0{fill-rule:evenodd;clip-rule:evenodd;fill:#FB7300;}
	.st1{fill-rule:evenodd;clip-rule:evenodd;fill:#E6BC38;}
</style>
<g>
	<g id="lrefTD.tif_1_">
		<g>
			<path class="st0" d="M75.8,0c-9.6,17-19.9,35.2-30.3,53.6c15.6,0,31,0,46.8,0c-23.1,24.1-46,48-68.9,71.9c-0.1,0-0.2-0.1-0.2-0.1
				c8.9-17.8,17.8-35.5,26.8-53.5c-15.6,0-31,0-46.8,0C27.9,47.5,52.3,23.3,75.8,0z"/>
		</g>
	</g>
	<g id="lrefTD.tif">
		<g>
			<path class="st1" d="M72.6,0c-9.6,17-19.9,35.2-30.3,53.6c15.6,0,31,0,46.8,0c-23.1,24.1-46,48-68.9,71.9c-0.1,0-0.2-0.1-0.2-0.1
				c8.9-17.8,17.8-35.5,26.8-53.5c-15.6,0-31,0-46.8,0C24.7,47.4,49.1,23.3,72.6,0z"/>
		</g>
	</g>
</g>
</svg>
