<?xml version="1.0" encoding="utf-8"?>
<!-- Generator: Adobe Illustrator 19.2.1, SVG Export Plug-In . SVG Version: 6.00 Build 0)  -->
<svg version="1.1" id="Layer_1" xmlns="http://www.w3.org/2000/svg" xmlns:xlink="http://www.w3.org/1999/xlink" x="0px" y="0px"
	 viewBox="0 0 141.3 121.1" style="enable-background:new 0 0 141.3 121.1;" xml:space="preserve">
<style type="text/css">
	.st0{fill:#CABFA5;}
	.st1{fill-rule:evenodd;clip-rule:evenodd;fill:#FCFAE4;}
	.st2{fill-rule:evenodd;clip-rule:evenodd;fill:#4A5362;}
	.st3{fill-rule:evenodd;clip-rule:evenodd;fill:#707B85;}
	.st4{fill-rule:evenodd;clip-rule:evenodd;fill:#CABFA5;}
	.st5{fill-rule:evenodd;clip-rule:evenodd;fill:#636E7A;}
</style>
<g id="bkkCJk.tif">
	<g>
		<path class="st0" d="M141.3,80.7c0-0.5,0-1.1,0-1.6c0-23.4,0-46.9,0-70.3c0-0.4,0-0.8,0-1.2c0-3.7-2.5-6.7-6.1-7.5
			C134.4,0,133.6,0,132.8,0C91.4,0,49.9,0,8.4,0C8.1,0,7.8,0,7.5,0c-2,0-3.6,0.7-5.1,2.1C0.7,3.7,0,5.8,0,8.1c0,24.2,0,48.4,0,72.6
			c0,4.2,0,8.4,0,12.6c0,2.1,0.8,3.9,2.2,5.3c1.6,1.7,3.7,2.3,6,2.3c15.7,0,31.4,0,47.2,0c0.6,0,1.2,0,1.7,0.1c0,3.5,0,7,0,10.5
			c0,1-0.2,1.9-0.6,2.8c-1,2-2.6,3.3-4.8,3.7c-1.2,0.2-1.2,0.2-1.2,1.4c0,1.6,0,1.6,1.7,1.6c12.4,0,24.7,0,37.1,0
			c1.7,0,1.7,0.1,1.6-1.6c0-1.2,0-1.2-1.1-1.4c-3.5-0.7-5.6-3.3-5.6-6.8c0-3.4,0-6.8,0-10.3c0.4,0,0.8,0,1.2,0c15.7,0,31.4,0,47,0
			c0.4,0,0.9,0,1.3,0c4.7-0.2,7.7-3.8,7.7-7.9C141.3,89,141.3,84.9,141.3,80.7z"/>
		<path class="st1" d="M57.2,101c-0.6,0-1.2-0.1-1.7-0.1c-15.7,0-31.4,0-47.2,0c-2.3,0-4.4-0.7-6-2.3C0.8,97.2,0,95.4,0,93.3
			c0-4.2,0-8.4,0-12.6c0.5,0,1,0,1.5,0c41.5,0,83,0,124.6,0c0.5,0,1,0,1.5,0c0.3,0.2,0.7,0.2,1,0.2c3.7,0,7.4,0,11.2,0
			c0.3,0,0.7,0.1,1-0.1c0.2,0,0.3,0,0.5,0c0,4.1,0,8.2,0,12.3c0.1,4.1-3,7.7-7.7,7.9c-0.4,0-0.9,0-1.3,0c-15.7,0-31.4,0-47,0
			c-0.4,0-0.8,0-1.2,0c-0.2,0-0.4,0-0.6,0c-8.5,0-17,0-25.5,0C57.8,101,57.5,101,57.2,101z M70.8,87.5c-1.9,0-3.4,1.5-3.4,3.4
			c0,1.9,1.4,3.3,3.3,3.4c1.9,0.1,3.4-1.4,3.5-3.3C74.2,89.1,72.6,87.5,70.8,87.5z"/>
		<path class="st2" d="M141.3,80.7c-0.2,0-0.3,0-0.5,0c-2.4-0.1-4.7-0.1-7.1-0.1c-2,0-4.1-0.1-6.1,0.1c-0.5,0-1,0-1.5,0
			c-41.5,0-83,0-124.6,0c-0.5,0-1,0-1.5,0C0,56.5,0,32.3,0,8.1c0-2.4,0.7-4.4,2.5-6.1C3.9,0.7,5.6,0,7.5,0c0.3,0,0.6,0,0.9,0
			c41.5,0,82.9,0,124.4,0c0.8,0,1.6,0,2.4,0.1c3.6,0.8,6.1,3.8,6.1,7.5c0,0.4,0,0.8,0,1.2c0,23.4,0,46.9,0,70.3
			C141.3,79.7,141.3,80.2,141.3,80.7z M54.1,6.8c-0.5,0-0.9,0-1.4,0c-14.8,0-29.5,0-44.3,0c-1.6,0-1.6,0-1.6,1.7
			c0,21.3,0,42.6,0,63.9c0,0.3,0,0.5,0,0.8c0,0.6,0.3,0.8,0.9,0.8c0.2,0,0.4,0,0.6,0c37.5,0,74.9,0,112.4,0c4.2,0,8.4,0,12.6,0
			c1.9,0,1.8,0.1,1.8-1.8c0-21.1,0-42.2,0-63.3c0-2.2,0.2-2-2-2c-25.8,0-51.6,0-77.4,0C55.1,6.8,54.6,6.8,54.1,6.8z"/>
		<path class="st3" d="M57.2,101c0.3,0,0.6-0.1,0.9-0.1c8.5,0,17,0,25.5,0c0.2,0,0.4,0,0.6,0c0,3.4,0,6.8,0,10.3
			c0,3.5,2.2,6.1,5.6,6.8c1.1,0.2,1.1,0.2,1.1,1.4c0,1.8,0.1,1.6-1.6,1.6c-12.4,0-24.7,0-37.1,0c-1.7,0-1.7,0-1.7-1.6
			c0-1.1,0-1.2,1.2-1.4c2.2-0.4,3.8-1.7,4.8-3.7c0.4-0.9,0.6-1.8,0.6-2.8C57.2,108,57.2,104.5,57.2,101z"/>
		<path class="st3" d="M70.8,87.5c1.9,0,3.4,1.6,3.3,3.5c-0.1,1.9-1.6,3.3-3.5,3.3c-1.9-0.1-3.3-1.5-3.3-3.4
			C67.4,89,68.9,87.5,70.8,87.5z"/>
		<path class="st4" d="M127.6,80.8c2-0.1,4.1-0.1,6.1-0.1c2.4,0,4.7-0.1,7.1,0.1c-0.3,0.2-0.7,0.1-1,0.1c-3.7,0-7.4,0-11.2,0
			C128.3,80.9,127.9,81,127.6,80.8z"/>
		<path class="st3" d="M120.6,74c-37.5,0-74.9,0-112.4,0c-0.2,0-0.4,0-0.6,0c-0.6,0-0.9-0.2-0.9-0.8c0-0.3,0-0.5,0-0.8
			c0-21.3,0-42.6,0-63.9c0-1.7,0-1.7,1.6-1.7c14.8,0,29.5,0,44.3,0c0.5,0,0.9,0,1.4,0c0.1,0.6,0.6,1,1,1.4
			c18,18,36.1,36.1,54.1,54.1c3.5,3.5,7,7,10.5,10.5C120.1,73.1,120.5,73.4,120.6,74z"/>
		<path class="st5" d="M120.6,74c-0.1-0.6-0.5-0.9-0.9-1.2c-3.5-3.5-7-7-10.5-10.5c-18-18-36.1-36.1-54.1-54.1
			c-0.4-0.4-0.9-0.7-1-1.4c0.5,0,1,0,1.5,0c25.8,0,51.6,0,77.4,0c2.2,0,2-0.2,2,2c0,21.1,0,42.2,0,63.3c0,2,0.1,1.8-1.8,1.8
			C129,74,124.8,74,120.6,74z"/>
	</g>
</g>
</svg>
