<?xml version="1.0" encoding="utf-8"?>
<!-- Generator: Adobe Illustrator 19.2.1, SVG Export Plug-In . SVG Version: 6.00 Build 0)  -->
<svg version="1.1" id="Layer_1" xmlns="http://www.w3.org/2000/svg" xmlns:xlink="http://www.w3.org/1999/xlink" x="0px" y="0px"
	 viewBox="0 0 102.1 110.3" style="enable-background:new 0 0 102.1 110.3;" xml:space="preserve">
<style type="text/css">
	.st0{fill-rule:evenodd;clip-rule:evenodd;fill:#0C55C0;}
</style>
<path class="st0" d="M76.6,29.9c0-3.8,0-7.9,0-12c0.1-5.3,2.1-9.6,6.9-12.2c7.3-3.9,16.8,0.9,18.1,9.2c0.2,1.2,0.3,2.5,0.3,3.7
	c0,20.4,0.1,40.7,0,61.1c0,15.1-9.3,26.9-23.6,30.1c-0.9,0.2-1.9,0.4-2.8,0.4c-10.8-0.1-21.7,0.2-32.5-0.6c-9.7-0.7-18-5.4-25-12.1
	c-4.7-4.5-9.3-9-13.8-13.8c-7.7-8.1-4.8-20,5.7-23.2c5-1.5,9.6-0.3,13.5,3.2c0.5,0.4,1,0.9,1.5,1.3c0,0,0.1,0,0.6,0.1
	c0-0.9,0-1.7,0-2.5c0-16.4,0-32.9,0-49.3c0-5.7,2.5-10,7.7-12.3C41.1-2.4,50.4,3.5,50.8,12c0.2,5.3,0.1,10.6,0.1,15.9
	c0,0.8,0,1.6,0,1.9c3.1,0.3,6,0.2,8.7,0.8c3.1,0.7,5.4,0.7,8.5,0C70.7,30.1,73.5,30.2,76.6,29.9z M63.9,68.9
	c-4.9,3.1-7.9,3.8-11.6,2.8c-6.1-1.7-9.7-6.5-9.7-13.4c0-14.6,0-29.2,0-43.8c0-3.8-1.8-6.3-4.5-6.2c-2.7,0.1-4.2,2.2-4.2,6.1
	c0,19.9,0,39.8,0,59.8c0,2.2-0.5,4.1-2.8,5c-2.3,1-3.9-0.1-5.5-1.7c-2.5-2.5-5-5-7.5-7.5c-1.6-1.6-3.5-2.3-5.6-1.7
	c-4.5,1.2-5.6,6.1-2.1,9.8c3.8,4,7.8,7.8,11.6,11.8c8,8.3,17.8,12.3,29.3,12.3c6.6,0,13.3,0,19.9,0c13,0,22.4-9.4,22.5-22.5
	c0-20.3,0-40.6,0-60.9c0-0.9-0.1-1.9-0.3-2.8c-0.5-2.1-2.4-3.6-4.3-3.5c-2.2,0.2-3.5,1.4-3.9,3.5c-0.2,0.9-0.3,1.9-0.3,2.8
	c0,13.4,0,26.7,0,40.1c0,5.5-2.4,9.6-7.4,11.9C72.7,73.2,68.1,72.3,63.9,68.9z M50.8,51.1c0,2.4,0,4.9,0,7.3c0,0.1,0,0.3,0,0.4
	c0.1,3.1,1.8,5,4.4,5c2.6,0,4.4-1.8,4.4-5c0.1-5.2,0.1-10.3,0-15.5c0-3.2-1.9-5.2-4.5-5.1c-2.6,0.1-4.2,2-4.3,5.1
	C50.8,45.9,50.8,48.5,50.8,51.1z M76.6,51.1c0-2.7,0-5.4,0-8.2c-0.1-2.8-1.8-4.6-4.2-4.7c-2.5,0-4.3,1.8-4.4,4.5
	c-0.1,5.5-0.1,11,0,16.6c0,2.8,1.8,4.6,4.3,4.5c2.5,0,4.2-1.8,4.3-4.6C76.7,56.5,76.6,53.8,76.6,51.1z"/>
</svg>
