<?xml version="1.0" encoding="utf-8"?>
<!-- Generator: Adobe Illustrator 19.2.1, SVG Export Plug-In . SVG Version: 6.00 Build 0)  -->
<svg version="1.1" id="Layer_1" xmlns="http://www.w3.org/2000/svg" xmlns:xlink="http://www.w3.org/1999/xlink" x="0px" y="0px"
	 viewBox="0 0 111.9 111.9" style="enable-background:new 0 0 111.9 111.9;" xml:space="preserve">
<style type="text/css">
	.st0{fill:#FFFFFF;}
	.st1{fill-rule:evenodd;clip-rule:evenodd;fill:#99979E;}
	.st2{fill-rule:evenodd;clip-rule:evenodd;fill:#F2F2F2;}
</style>
<g id="tJCHeT.tif">
	<g>
		<path class="st0" d="M55.9,111.9c30.9,0.1,56-24.9,56-55.9C112,25.1,87,0.1,56,0C25.1-0.1,0.1,24.9,0,55.9
			C-0.1,86.8,24.9,111.9,55.9,111.9z"/>
		<path class="st1" d="M55.9,111.9c-31-0.1-56-25.1-55.9-56c0.1-31,25.1-56,56-55.9c31,0.1,56,25.1,55.9,56
			C111.9,87,86.8,112,55.9,111.9z M78,56c0-12.2-9.8-22.1-22.1-22.1c-12.2,0-22.1,9.8-22.1,22.1c0,12.2,9.8,22.1,22.1,22.1
			C68.1,78.1,78,68.2,78,56z M27.8,97.6c4.1-6,8.2-12,12.1-17.8c-2.6-2.6-5.1-5.1-7.6-7.6c-5.8,4-11.8,8-17.8,12.1
			C18.1,89.6,22.5,93.9,27.8,97.6z M84.3,14.5c-4.1,6.1-8.2,12-12.1,17.8c2.6,2.6,5,5.1,7.6,7.6c5.8-4,11.8-8,17.8-12.1
			C93.9,22.5,89.5,18.1,84.3,14.5z"/>
		<path class="st2" d="M78,56c0,12.2-9.9,22.1-22.1,22.1c-12.2,0-22.1-9.9-22.1-22.1c0-12.2,9.9-22.1,22.1-22.1
			C68.2,33.9,78.1,43.8,78,56z M55.9,60.9c2.8,0,4.9-2.1,4.9-4.9c0-2.7-2.1-4.9-4.8-4.9c-2.8,0-5,2.1-5,4.8
			C51,58.7,53.2,60.9,55.9,60.9z"/>
		<path class="st2" d="M27.8,97.6c-5.3-3.6-9.7-8-13.3-13.3c6-4.1,12-8.2,17.8-12.1c2.5,2.5,5,5,7.6,7.6
			C36,85.5,31.9,91.5,27.8,97.6z"/>
		<path class="st2" d="M84.3,14.5c5.3,3.6,9.6,8,13.3,13.3c-6,4.1-12,8.2-17.8,12.1c-2.5-2.5-5-5-7.6-7.6
			C76.1,26.5,80.2,20.5,84.3,14.5z"/>
		<path class="st1" d="M55.9,60.9c-2.8,0-4.9-2.2-4.9-5c0-2.8,2.2-4.9,5-4.8c2.7,0,4.8,2.2,4.8,4.9C60.9,58.7,58.7,60.9,55.9,60.9z"
			/>
	</g>
</g>
</svg>
