<?xml version="1.0" encoding="utf-8"?>
<!-- Generator: Adobe Illustrator 19.2.1, SVG Export Plug-In . SVG Version: 6.00 Build 0)  -->
<svg version="1.1" id="Layer_1" xmlns="http://www.w3.org/2000/svg" xmlns:xlink="http://www.w3.org/1999/xlink" x="0px" y="0px"
	 viewBox="0 0 139.8 157" style="enable-background:new 0 0 139.8 157;" xml:space="preserve">
<style type="text/css">
	.st0{fill-rule:evenodd;clip-rule:evenodd;fill:#7BCABA;stroke:#C7623E;stroke-width:5;stroke-miterlimit:10;}
	.st1{fill-rule:evenodd;clip-rule:evenodd;fill:#7BCABA;}
</style>
<g>
	<g id="a7XVQm.tif">
		<g>
			<path class="st0" d="M61.2,61.3c2.9-12.9,5.7-25.6,8.6-38.4c2.8,12.7,5.7,25.5,8.6,38.4c7.7-4.9,15.1-9.6,22.6-14.3
				c0.1,0.1,0.1,0.1,0.2,0.2c-4.7,7.5-9.5,14.9-14.3,22.6c12.8,2.9,25.4,5.7,38,8.5c0,0.1,0,0.1,0,0.2c-12.6,2.8-25.2,5.6-38,8.5
				c4.9,7.7,9.6,15.2,14.4,22.7c0,0-0.1,0.1-0.1,0.1c-7.5-4.8-15-9.5-22.7-14.4c-2.9,12.9-5.7,25.7-8.6,38.4
				c-2.8-12.7-5.7-25.4-8.6-38.4c-7.6,4.8-15.1,9.6-22.6,14.3c-0.1-0.1-0.1-0.1-0.2-0.2c4.7-7.5,9.4-14.9,14.3-22.6
				c-12.8-2.9-25.4-5.7-38-8.5c0-0.1,0-0.1,0-0.2c12.6-2.8,25.2-5.6,38-8.5C47.8,62,43.1,54.5,38.3,47c0,0,0.1-0.1,0.1-0.1
				C45.9,51.6,53.5,56.4,61.2,61.3z"/>
		</g>
	</g>
	<path class="st1" d="M115.5,55.4c0-2.5-0.1-4.9-0.3-7.3c-0.2-2.4-0.5-4.7-1.2-7c-0.1-0.2-0.1-0.4-0.2-0.5c-0.3-0.6-0.6-1.2-0.9-1.8
		c-1.4-2.4-3.7-3.2-6.3-2.9c-3.6,0.5-6.8,2.1-10,3.7c-1.4,0.7-2.7,1.4-4,2.2c-0.2,0.1-0.5,0.3-0.7,0c-0.3-0.3-0.2-0.5,0.2-0.8
		c2.9-1.7,5.9-3.5,8.5-5.6c1.7-1.4,3.3-2.8,4.4-4.7c0.8-1.4,1.2-2.8,0.6-4.4c-0.8-1.9-2.1-3.5-3.7-4.8c-1.5-1.4-3.2-2.5-4.9-3.7
		c-1.6-1-3.2-2-4.8-3c-0.2-0.1-0.4-0.2-0.4-0.5c-0.3-0.2-0.3-0.3-0.1-0.6c0.2-0.3,0.4,0,0.6,0.1c3,1.7,5.9,3.3,9.1,4.6
		c2.1,0.8,4.2,1.5,6.5,1.5c2.1,0,3.7-0.9,4.8-2.7c1.2-1.8,1.6-3.9,2-6c0.5-3.4,0.7-6.9,0.7-10.4c0-0.1,0-0.3,0-0.4
		c0-0.2,0-0.4,0.3-0.4c0.3,0,0.3,0.2,0.3,0.4c0,1.2,0.1,2.4,0.1,3.5c0.1,3.3,0.3,6.7,1.2,9.9c0.4,1.5,0.9,2.8,1.9,4
		c1.5,1.8,3.5,2.2,5.7,1.9c3.2-0.4,6.1-1.8,8.9-3.2c1.8-0.9,3.5-1.9,5.3-2.8c0.2-0.1,0.3-0.2,0.5,0c0.2,0.3,0.1,0.4-0.1,0.6
		c-0.1,0.5-0.5,0.5-0.8,0.7c-2.8,1.7-5.5,3.3-8,5.4c-1.5,1.2-2.9,2.5-3.9,4.1c-0.4,0.5-0.6,1.1-0.9,1.7c-0.6,1.5-0.2,3,0.5,4.4
		c1,1.9,2.6,3.3,4.2,4.6c2.7,2.2,5.7,4,8.8,5.8c0.3,0.2,0.7,0.3,0.4,0.8c-0.2,0.4-0.4,0.2-0.7,0.1c-1.7-1-3.4-1.9-5.1-2.8
		c-2.2-1.1-4.4-2.1-6.7-2.7c-1.7-0.5-3.4-0.7-5.2-0.3c-1.8,0.4-2.9,1.7-3.7,3.2c-0.3,0.5-0.4,1.2-0.7,1.7c-0.5,1.3-0.7,2.7-0.9,4
		c-0.5,3.5-0.5,7-0.5,10.5C115.9,55.6,115.7,55.6,115.5,55.4z"/>
	<path class="st1" d="M23.8,156.8c0-2.5-0.1-4.9-0.3-7.3c-0.2-2.4-0.5-4.7-1.2-7c-0.1-0.2-0.1-0.4-0.2-0.5c-0.3-0.6-0.6-1.2-0.9-1.8
		c-1.4-2.4-3.7-3.2-6.3-2.9c-3.6,0.5-6.8,2.1-10,3.7c-1.4,0.7-2.7,1.4-4,2.2c-0.2,0.1-0.5,0.3-0.7,0c-0.3-0.3-0.2-0.5,0.2-0.8
		c2.9-1.7,5.9-3.5,8.5-5.6c1.7-1.4,3.3-2.8,4.4-4.7c0.8-1.4,1.2-2.8,0.6-4.4c-0.8-1.9-2.1-3.5-3.7-4.8c-1.5-1.4-3.2-2.5-4.9-3.7
		c-1.6-1-3.2-2-4.8-3c-0.2-0.1-0.4-0.2-0.4-0.5c-0.3-0.2-0.3-0.3-0.1-0.6c0.2-0.3,0.4,0,0.6,0.1c3,1.7,5.9,3.3,9.1,4.6
		c2.1,0.8,4.2,1.5,6.5,1.5c2.1,0,3.7-0.9,4.8-2.7c1.2-1.8,1.6-3.9,2-6c0.5-3.4,0.7-6.9,0.7-10.4c0-0.1,0-0.3,0-0.4
		c0-0.2,0-0.4,0.3-0.4c0.3,0,0.3,0.2,0.3,0.4c0,1.2,0.1,2.4,0.1,3.5c0.1,3.3,0.3,6.7,1.2,9.9c0.4,1.5,0.9,2.8,1.9,4
		c1.5,1.8,3.5,2.2,5.7,1.9c3.2-0.4,6.1-1.8,8.9-3.2c1.8-0.9,3.5-1.9,5.3-2.8c0.2-0.1,0.3-0.2,0.5,0c0.2,0.3,0.1,0.4-0.1,0.6
		c-0.1,0.5-0.5,0.5-0.8,0.7c-2.8,1.7-5.5,3.3-8,5.4c-1.5,1.2-2.9,2.5-3.9,4.1c-0.4,0.5-0.6,1.1-0.9,1.7c-0.6,1.5-0.2,3,0.5,4.4
		c1,1.9,2.6,3.3,4.2,4.6c2.7,2.2,5.7,4,8.8,5.8c0.3,0.2,0.7,0.3,0.4,0.8c-0.2,0.4-0.4,0.2-0.7,0.1c-1.7-1-3.4-1.9-5.1-2.8
		c-2.2-1.1-4.4-2.1-6.7-2.7c-1.7-0.5-3.4-0.7-5.2-0.3c-1.8,0.4-2.9,1.7-3.7,3.2c-0.3,0.5-0.4,1.2-0.7,1.7c-0.5,1.3-0.7,2.7-0.9,4
		c-0.5,3.5-0.5,7-0.5,10.5C24.3,157,24,157,23.8,156.8z"/>
</g>
</svg>
