<?xml version="1.0" encoding="utf-8"?>
<!-- Generator: Adobe Illustrator 19.2.1, SVG Export Plug-In . SVG Version: 6.00 Build 0)  -->
<svg version="1.1" id="Layer_1" xmlns="http://www.w3.org/2000/svg" xmlns:xlink="http://www.w3.org/1999/xlink" x="0px" y="0px"
	 viewBox="0 0 84.4 126.4" style="enable-background:new 0 0 84.4 126.4;" xml:space="preserve">
<style type="text/css">
	.st0{fill-rule:evenodd;clip-rule:evenodd;fill:#124E5B;}
</style>
<g id="f15Gco.tif">
	<g>
		<path class="st0" d="M36.7,33.9c-0.7-1.7-1.4-3.4-2.1-5.1c-1.9-4.6-3.8-9.1-5.6-13.7c-0.2-0.6-0.1-1.6,0.3-2
			c0.3-0.4,1.3-0.7,1.8-0.5c0.6,0.2,1.2,0.9,1.4,1.5c2.3,5.5,4.6,11.1,6.8,16.6c0.2,0.6,0.5,1.1,0.7,1.6c0.1,0,0.2,0,0.3-0.1
			c0-0.5,0-1,0-1.6c0-9.4,0-18.7,0-28.1c0-1,0-2,1.2-2.4c1.3-0.4,2.3,0.4,2.3,1.9c0,4,0,8,0,12c0,5.2,0,10.4,0,15.6
			c0,0.2,0,0.5,0.2,0.8c0.2-0.4,0.4-0.7,0.6-1.1c2.4-5.1,4.7-10.2,7.2-15.2c0.3-0.5,0.7-1.2,1.2-1.4c0.6-0.2,1.5-0.1,1.9,0.2
			c0.4,0.4,0.5,1.2,0.5,1.9c0,0.5-0.5,1-0.7,1.6c-2.8,6-5.5,12-8.2,18c-0.1,0.3-0.2,0.6-0.1,1.1c0.3-0.3,0.7-0.6,1-1
			c7.2-7.2,14.3-14.3,21.5-21.5c0.3-0.3,0.6-0.7,1-0.9c0.8-0.6,1.6-0.5,2.2,0.2c0.7,0.7,0.8,1.5,0.2,2.4c-0.2,0.3-0.6,0.6-0.9,0.9
			c-6.7,6.6-13.3,13.3-20,19.9c-0.3,0.3-0.6,0.7-0.8,1.2c0.4-0.1,0.8-0.3,1.2-0.4c5.7-2.3,11.3-4.6,17-6.9c0.2-0.1,0.5-0.2,0.7-0.3
			c1.2-0.4,2.3-0.1,2.6,0.9c0.4,1.1,0,2.1-1.3,2.6C65,35,59.2,37.3,53.4,39.7c-0.4,0.2-0.8,0.4-1.3,0.8c0.4,0,0.8,0.1,1.2,0.1
			c9.6,0,19.2,0,28.7,0c1.1,0,2,0.2,2.2,1.5c0.2,1.2-0.5,2-1.8,2c-1.6,0.1-3.2,0.1-4.7,0.1c-8.4,0-16.8,0-25.2,0
			c-0.1,0-0.2,0-0.6,0.1c0.5,0.2,0.8,0.4,1.1,0.6c5.6,2.3,11.2,4.7,16.8,7c0.3,0.1,0.5,0.2,0.8,0.3c1.2,0.6,1.7,1.5,1.2,2.5
			c-0.5,1.1-1.5,1.4-2.7,0.9c-5.8-2.4-11.5-4.8-17.3-7.2c-0.4-0.2-0.7-0.3-1.3-0.2c0.3,0.4,0.7,0.7,1.1,1.1
			c6.6,6.6,13.2,13.3,19.9,19.9c0.7,0.7,1.3,1.4,0.8,2.5c-0.7,1.3-1.9,1.4-3,0.4c-3.3-3.3-6.6-6.6-9.9-9.9
			c-3.6-3.6-7.2-7.2-10.9-10.9c-0.2-0.2-0.5-0.4-0.9-0.5c1.1,2.7,2.2,5.4,3.3,8c1.5,3.5,2.9,7.1,4.4,10.6c0.5,1.3,0,2.5-1.3,2.7
			c-1.2,0.2-1.7-0.5-2.1-1.5c-1.7-4.2-3.5-8.5-5.2-12.7c-0.8-2-1.6-4-2.7-5.9c0,0.3-0.1,0.7-0.1,1c0,9.5,0,18.9,0,28.4
			c0,0.3,0,0.7,0,1c0,1.3-0.6,2-1.7,2c-1.2,0-1.8-0.6-1.8-2c0-3.6,0-7.2,0-10.9c0-6.6,0-13.2,0-19.9c0-0.2,0-0.5,0-0.7
			c-0.1,0-0.1,0-0.2-0.1c-0.2,0.4-0.3,0.7-0.5,1.1c-7.3,20.5-13,41.5-17.1,62.9c-0.6,3.2-1.2,6.4-1.8,9.6c-0.3,1.4-1,2.1-2.2,2
			c-1.1-0.2-1.6-1.2-1.4-2.5C21.5,99.7,27.5,76.1,35.5,53c0.2-0.5,0.4-1.1,0.5-1.7c0-0.1,0-0.2-0.1-0.4c-0.4,0.4-0.8,0.7-1.1,1
			C28.3,58.6,21.7,65.2,15,71.8c-0.3,0.3-0.6,0.6-1,0.8c-0.8,0.3-1.7,0.1-2-0.7c-0.2-0.6-0.1-1.4,0.1-2.1c0.1-0.3,0.5-0.5,0.8-0.8
			c6.7-6.7,13.4-13.4,20.1-20.1c0.3-0.3,0.6-0.6,0.8-1.2c-0.6,0.2-1.2,0.5-1.8,0.7c-5.6,2.3-11.2,4.5-16.7,6.8
			c-1.6,0.6-2.3,0.5-2.8-0.6c-0.5-1.2,0-2.1,1.5-2.7c5.6-2.3,11.2-4.6,16.7-6.9c0.5-0.2,1-0.4,1.4-0.9c-0.5,0-0.9,0-1.4,0
			c-9.1,0-18.2,0-27.3,0c-0.7,0-1.3,0-2-0.1C0.4,43.8,0,43.2,0,42.3c0-1,0.6-1.5,1.5-1.7c0.4-0.1,0.7,0,1.1,0c9.4,0,18.8,0,28.2,0
			c0.5,0,1,0,1.5,0c0-0.1,0.1-0.2,0.1-0.3c-0.4-0.2-0.8-0.4-1.2-0.6c-5.6-2.3-11.2-4.7-16.8-7c-0.3-0.1-0.7-0.3-1-0.5
			c-1-0.5-1.4-1.5-1-2.4c0.5-1.1,1.3-1.4,2.4-1c1,0.3,1.9,0.8,2.9,1.2c5,2.1,10,4.2,15,6.3c0.3,0.1,0.5,0.2,1,0.1
			c-0.3-0.3-0.5-0.6-0.8-0.9C26,28.7,19.3,22,12.6,15.3c-1.1-1.1-1.2-2.2-0.3-3c0.9-0.7,1.7-0.6,2.7,0.4c3.4,3.4,6.8,6.8,10.2,10.2
			c3.5,3.5,6.9,6.9,10.4,10.4c0.2,0.2,0.5,0.4,0.7,0.7C36.5,33.9,36.6,33.9,36.7,33.9z"/>
	</g>
</g>
</svg>
