<?xml version="1.0" encoding="utf-8"?>
<!-- Generator: Adobe Illustrator 19.2.1, SVG Export Plug-In . SVG Version: 6.00 Build 0)  -->
<svg version="1.1" id="Layer_1" xmlns="http://www.w3.org/2000/svg" xmlns:xlink="http://www.w3.org/1999/xlink" x="0px" y="0px"
	 viewBox="0 0 110.7 110.7" style="enable-background:new 0 0 110.7 110.7;" xml:space="preserve">
<style type="text/css">
	.st0{fill-rule:evenodd;clip-rule:evenodd;fill:#0A472D;}
</style>
<g id="k3kBsb.tif">
	<g>
		<path class="st0" d="M110.7,63.1c-1.9,2.5-1.7,5.6-2.5,8.5c-10.1,32.2-45.3,48-76.1,34.1c-3.3-1.5-3.4-2.2-0.7-4.7
			c13.4-12,26.6-24.2,39.9-36.3c0.3-0.3,0.5-0.7,1-1.5c-3.7,0-7,0-11.5,0c11.2-12.7,21.7-24.6,32.7-37.1c-4.6,0-8.5,0-13.1,0
			c2.8-4.8,6.7-7.9,9.7-11.5c1.5-1.8,2.5,0,3.5,1c8.7,8.5,14.1,18.8,16.3,30.7c0.1,0.8-0.1,1.8,0.9,2.2
			C110.7,53.3,110.7,58.2,110.7,63.1z"/>
		<path class="st0" d="M0,45.8c1.4-1.2,1.4-3,1.8-4.6c6-23.8,28.9-41.4,53.5-41c1.1,0,2.6-0.6,3.2,0.5c0.7,1.4-0.8,2.3-1.5,3.2
			C49.5,13.6,42,23.2,34.1,33.6c6.9,0.3,13,0.6,20.2,0.9C43.3,47,32.9,58.8,21.9,71.3c7.3,0,13.6,0,20.5,0c-1.2,3.5-3.1,5.8-4.7,8.3
			c-4,6.2-8.1,12.2-11.9,18.5c-1.6,2.6-2.9,2.4-5,0.7c-9.4-7.9-16-17.6-19.1-29.6C1.2,67.4,1.4,65.4,0,64C0,57.9,0,51.9,0,45.8z"/>
	</g>
</g>
</svg>
