<?xml version="1.0" encoding="utf-8"?>
<!-- Generator: Adobe Illustrator 19.2.1, SVG Export Plug-In . SVG Version: 6.00 Build 0)  -->
<svg version="1.1" id="Layer_1" xmlns="http://www.w3.org/2000/svg" xmlns:xlink="http://www.w3.org/1999/xlink" x="0px" y="0px"
	 viewBox="0 0 150 150" style="enable-background:new 0 0 150 150;" xml:space="preserve">
<style type="text/css">
	.st0{fill-rule:evenodd;clip-rule:evenodd;fill:#99979E;}
</style>
<g id="NrEztp.tif_2_">
	<g>
		<path class="st0" d="M72.7,148.5c-4.2-1.7-7.4-4.2-7.6-9.5c6.2-1,12.3-2.1,18.4-3.1c1.1,5.2-1.1,9.2-6.6,12.6
			C75.5,148.5,74.1,148.5,72.7,148.5z"/>
		<path class="st0" d="M93.6,101.6c-12.6,2.2-25.2,4.4-38.1,6.7c0-13.5-7.5-23.5-14.5-33.6c-0.9-1.3-1.8-2.6-2.7-4
			C28,54.4,26.7,37.8,36.8,21.1C46.5,4.8,66.6-3.3,84.9,1.3c19.3,4.8,32.8,20.9,34.1,40.3c0.7,10.5-2.2,19.9-8.3,28.3
			c-2.5,3.6-5.3,7-8,10.5C97.9,86.6,93.8,93.1,93.6,101.6z"/>
		<path class="st0" d="M58.2,120.8c-0.7-0.8-2.2-1.7-2.5-2.9c-0.5-1.9,1.1-3.1,2.9-3.4c8-1.6,16-3.2,24-4.8c2.4-0.5,4.9-1.3,7.3-1.2
			c1.2,0,3,1.3,3.4,2.4c0.3,0.8-1.1,3-2.1,3.2C80.5,116.4,69.8,118.5,58.2,120.8z"/>
		<path class="st0" d="M58.3,133.3c-0.9-1.1-2.6-2.2-2.6-3.2c0.1-1.2,1.5-3,2.6-3.2c5.9-1.5,11.9-2.5,17.8-3.7
			c4.2-0.8,8.4-1.7,12.6-2.5c2.2-0.4,4.2-0.2,4.6,2.4c0.4,2.4-1.4,3.2-3.5,3.6c-9.8,1.9-19.5,3.9-29.3,5.9c-0.6,0.1-1.2,0.2-1.8,0.2
			C58.7,133,58.5,133.2,58.3,133.3z"/>
	</g>
</g>
</svg>
