<?xml version="1.0" encoding="utf-8"?>
<!-- Generator: Adobe Illustrator 19.2.1, SVG Export Plug-In . SVG Version: 6.00 Build 0)  -->
<svg version="1.1" id="Layer_1" xmlns="http://www.w3.org/2000/svg" xmlns:xlink="http://www.w3.org/1999/xlink" x="0px" y="0px"
	 viewBox="0 0 150 150" style="enable-background:new 0 0 150 150;" xml:space="preserve">
<style type="text/css">
	.st0{fill:#68C4DD;}
	.st1{fill-rule:evenodd;clip-rule:evenodd;fill:#68C4DD;}
</style>
<g id="oyLqFa.tif">
	<g>
		<path class="st0" d="M16.5,140.1c0-43.1,0-86.2,0-129.3c0.1-0.3,0.2-0.6,0.2-0.9c0.7-3.8,2.9-6.3,6.5-7.5c0.5-0.2,1.1-0.3,1.6-0.5
			c24.3,0,48.6,0,72.9,0c0.2,0.2,0.3,0.5,0.5,0.7c9.5,9.5,19,19,28.5,28.4c2.5,2.5,5.1,5,7.7,7.5c0,34.1,0,68.1,0,102.2
			c0,0.1-0.1,0.1-0.1,0.2c-1.4,5.4-4.5,7.8-10.1,7.8c-32.5,0-65,0-97.5,0c-0.5,0-0.9,0-1.4,0c-3.9-0.2-7.3-2.9-8.4-6.7
			C16.8,141.3,16.7,140.7,16.5,140.1z M29,136.4c31.1,0,62,0,93,0c0-31.1,0-62.1,0-93.2c-9.7,0-19.2,0-29,0c0-9.6,0-19.1,0-28.6
			c-21.4,0-42.7,0-64.1,0C29,55.2,29,95.8,29,136.4z"/>
		<path class="st1" d="M40.7,65.2c0-2.3,0-4.4,0-6.7c23.2,0,46.4,0,69.7,0c0,2.2,0,4.4,0,6.7C87.2,65.2,64,65.2,40.7,65.2z"/>
		<path class="st1" d="M110.4,75.7c0,2.3,0,4.5,0,6.7c-23.3,0-46.4,0-69.7,0c0-2.2,0-4.5,0-6.7C63.9,75.7,87.1,75.7,110.4,75.7z"/>
		<path class="st1" d="M110.4,92.9c0,2.3,0,4.4,0,6.7c-23.2,0-46.5,0-69.7,0c0-2.2,0-4.4,0-6.7C63.9,92.9,87.1,92.9,110.4,92.9z"/>
		<path class="st1" d="M110.4,110.1c0,2.3,0,4.4,0,6.7c-23.2,0-46.4,0-69.7,0c0-2.2,0-4.4,0-6.7C63.9,110.1,87.1,110.1,110.4,110.1z
			"/>
		<path class="st1" d="M73.8,39.5c-11,0-22,0-33.1,0c0-2.8,0-5.6,0-8.5c11,0,22,0,33.1,0C73.8,33.7,73.8,36.5,73.8,39.5z"/>
	</g>
</g>
</svg>
