<?xml version="1.0" encoding="utf-8"?>
<!-- Generator: Adobe Illustrator 19.2.1, SVG Export Plug-In . SVG Version: 6.00 Build 0)  -->
<svg version="1.1" id="Layer_1" xmlns="http://www.w3.org/2000/svg" xmlns:xlink="http://www.w3.org/1999/xlink" x="0px" y="0px"
	 viewBox="0 0 150 150" style="enable-background:new 0 0 150 150;" xml:space="preserve">
<style type="text/css">
	.st0{fill-rule:evenodd;clip-rule:evenodd;fill:#99979E;}
</style>
<g id="mEKsZN.tif">
	<g>
		<g>
			<path class="st0" d="M148.9,38.6c-7.7,0-6.5,0-8.3-5.5c-0.9-2.8-2.1-5.5-3.1-8.2c-3.3-8.4-10.2-12.9-20.7-13.3
				c-8.5-0.3-17-0.4-25.5-0.7c-2.9-0.1-3.8,0.9-3.9,3.3C86.3,50.8,87.1,87.4,87,124c0,3,0.7,5.9,1.1,8.9c0.9,5.5,4.6,8.7,11.1,9.8
				c2.7,0.4,5.4,1.1,8.1,1.1c4.3,0,5.9,1.7,5.4,5.1c-25.5,0-51,0-76.4,0c-0.7-3.2,0.4-5,4.7-5.1c3.4-0.1,6.7-0.9,10-1.5
				c5-1,7.8-3.7,8.7-8c1-4.6,1.4-9.2,1.4-13.9c0.1-35.1,0-70.2,0.2-105.3c0-3.3-1.1-4.4-5.1-4.3c-9.2,0.2-18.3,0.4-27.5,1.2
				c-9.4,0.9-14.6,5.8-17.8,12.8c-1.7,3.6-2.8,7.4-3.8,11.2c-0.6,2.3-2.4,2.6-4.7,2.5c-2.6-0.1-2.7-1.7-2.7-3.3
				c-0.1-11.7,0.2-23.5,1-35.2c48.1,0,96.2,0,144.3-0.1c3.6,0,3.9,0.9,3.9,3.5C148.8,15.2,148.9,26.9,148.9,38.6z"/>
		</g>
	</g>
</g>
</svg>
